*
*
G04 PADS 9.5 Build Number: 522968 generated Gerber (RS-274-X) file*
G04 PC Version=2.1*
*
%IN "Plasma_LF_Gen_MCU_PCB_V"*%
*
%MOIN*%
*
%FSLAX35Y35*%
*
*
*
*
G04 PC Standard Apertures*
*
*
G04 Thermal Relief Aperture macro.*
%AMTER*
1,1,$1,0,0*
1,0,$1-$2,0,0*
21,0,$3,$4,0,0,45*
21,0,$3,$4,0,0,135*
%
*
*
G04 Annular Aperture macro.*
%AMANN*
1,1,$1,0,0*
1,0,$2,0,0*
%
*
*
G04 Odd Aperture macro.*
%AMODD*
1,1,$1,0,0*
1,0,$1-0.005,0,0*
%
*
*
G04 PC Custom Aperture Macros*
*
*
*
*
*
*
G04 PC Aperture Table*
*
%ADD010C,0.00004*%
%ADD033C,0.00394*%
%ADD055C,0.01*%
*
*
*
*
G04 PC Circuitry*
G04 Layer Name Plasma_LF_Gen_MCU_PCB_V - circuitry*
%LPD*%
*
*
G04 PC Custom Flashes*
G04 Layer Name Plasma_LF_Gen_MCU_PCB_V - flashes*
%LPD*%
*
*
G04 PC Circuitry*
G04 Layer Name Plasma_LF_Gen_MCU_PCB_V - circuitry*
%LPD*%
*
G54D10*
G54D33*
G01X100000Y100000D02*
X253543D01*
Y257480*
X100000*
Y100000*
G54D55*
X236591Y249543D02*
X244591Y257543D01*
X236591D02*
X244591Y249543D01*
X244465D02*
X252465Y257543D01*
X244465D02*
X252465Y249543D01*
X236591Y241669D02*
X244591Y249669D01*
X236591D02*
X244591Y241669D01*
X244465D02*
X252465Y249669D01*
X244465D02*
X252465Y241669D01*
X236591Y233795D02*
X244591Y241795D01*
X236591D02*
X244591Y233795D01*
X244465D02*
X252465Y241795D01*
X244465D02*
X252465Y233795D01*
X236591Y225921D02*
X244591Y233921D01*
X236591D02*
X244591Y225921D01*
X244465D02*
X252465Y233921D01*
X244465D02*
X252465Y225921D01*
X236591Y218047D02*
X244591Y226047D01*
X236591D02*
X244591Y218047D01*
X244465D02*
X252465Y226047D01*
X244465D02*
X252465Y218047D01*
X236591Y210173D02*
X244591Y218173D01*
X236591D02*
X244591Y210173D01*
X244465D02*
X252465Y218173D01*
X244465D02*
X252465Y210173D01*
X236591Y202299D02*
X244591Y210299D01*
X236591D02*
X244591Y202299D01*
X244465D02*
X252465Y210299D01*
X244465D02*
X252465Y202299D01*
X236591Y194425D02*
X244591Y202425D01*
X236591D02*
X244591Y194425D01*
X244465D02*
X252465Y202425D01*
X244465D02*
X252465Y194425D01*
X236591Y186551D02*
X244591Y194551D01*
X236591D02*
X244591Y186551D01*
X244465D02*
X252465Y194551D01*
X244465D02*
X252465Y186551D01*
X236591Y178677D02*
X244591Y186677D01*
X236591D02*
X244591Y178677D01*
X244465D02*
X252465Y186677D01*
X244465D02*
X252465Y178677D01*
X236591Y170803D02*
X244591Y178803D01*
X236591D02*
X244591Y170803D01*
X244465D02*
X252465Y178803D01*
X244465D02*
X252465Y170803D01*
X236591Y162929D02*
X244591Y170929D01*
X236591D02*
X244591Y162929D01*
X244465D02*
X252465Y170929D01*
X244465D02*
X252465Y162929D01*
X236591Y155055D02*
X244591Y163055D01*
X236591D02*
X244591Y155055D01*
X244465D02*
X252465Y163055D01*
X244465D02*
X252465Y155055D01*
X236591Y147181D02*
X244591Y155181D01*
X236591D02*
X244591Y147181D01*
X244465D02*
X252465Y155181D01*
X244465D02*
X252465Y147181D01*
X236591Y139307D02*
X244591Y147307D01*
X236591D02*
X244591Y139307D01*
X244465D02*
X252465Y147307D01*
X244465D02*
X252465Y139307D01*
X236591Y131433D02*
X244591Y139433D01*
X236591D02*
X244591Y131433D01*
X244465D02*
X252465Y139433D01*
X244465D02*
X252465Y131433D01*
X236591Y123559D02*
X244591Y131559D01*
X236591D02*
X244591Y123559D01*
X244465D02*
X252465Y131559D01*
X244465D02*
X252465Y123559D01*
X236591Y115685D02*
X244591Y123685D01*
X236591D02*
X244591Y115685D01*
X244465D02*
X252465Y123685D01*
X244465D02*
X252465Y115685D01*
X236591Y107811D02*
X244591Y115811D01*
X236591D02*
X244591Y107811D01*
X244465D02*
X252465Y115811D01*
X244465D02*
X252465Y107811D01*
X236591Y99937D02*
X244591Y107937D01*
X236591D02*
X244591Y99937D01*
X244465D02*
X252465Y107937D01*
X244465D02*
X252465Y99937D01*
X101079Y249543D02*
X109079Y257543D01*
X101079D02*
X109079Y249543D01*
X108953D02*
X116953Y257543D01*
X108953D02*
X116953Y249543D01*
X101079Y241669D02*
X109079Y249669D01*
X101079D02*
X109079Y241669D01*
X108953D02*
X116953Y249669D01*
X108953D02*
X116953Y241669D01*
X101079Y233795D02*
X109079Y241795D01*
X101079D02*
X109079Y233795D01*
X108953D02*
X116953Y241795D01*
X108953D02*
X116953Y233795D01*
X101079Y225921D02*
X109079Y233921D01*
X101079D02*
X109079Y225921D01*
X108953D02*
X116953Y233921D01*
X108953D02*
X116953Y225921D01*
X101079Y218047D02*
X109079Y226047D01*
X101079D02*
X109079Y218047D01*
X108953D02*
X116953Y226047D01*
X108953D02*
X116953Y218047D01*
X101079Y210173D02*
X109079Y218173D01*
X101079D02*
X109079Y210173D01*
X108953D02*
X116953Y218173D01*
X108953D02*
X116953Y210173D01*
X101079Y202299D02*
X109079Y210299D01*
X101079D02*
X109079Y202299D01*
X108953D02*
X116953Y210299D01*
X108953D02*
X116953Y202299D01*
X101079Y194425D02*
X109079Y202425D01*
X101079D02*
X109079Y194425D01*
X108953D02*
X116953Y202425D01*
X108953D02*
X116953Y194425D01*
X101079Y186551D02*
X109079Y194551D01*
X101079D02*
X109079Y186551D01*
X108953D02*
X116953Y194551D01*
X108953D02*
X116953Y186551D01*
X101079Y178677D02*
X109079Y186677D01*
X101079D02*
X109079Y178677D01*
X108953D02*
X116953Y186677D01*
X108953D02*
X116953Y178677D01*
X101079Y170803D02*
X109079Y178803D01*
X101079D02*
X109079Y170803D01*
X108953D02*
X116953Y178803D01*
X108953D02*
X116953Y170803D01*
X101079Y162929D02*
X109079Y170929D01*
X101079D02*
X109079Y162929D01*
X108953D02*
X116953Y170929D01*
X108953D02*
X116953Y162929D01*
X101079Y155055D02*
X109079Y163055D01*
X101079D02*
X109079Y155055D01*
X108953D02*
X116953Y163055D01*
X108953D02*
X116953Y155055D01*
X101079Y147181D02*
X109079Y155181D01*
X101079D02*
X109079Y147181D01*
X108953D02*
X116953Y155181D01*
X108953D02*
X116953Y147181D01*
X101079Y139307D02*
X109079Y147307D01*
X101079D02*
X109079Y139307D01*
X108953D02*
X116953Y147307D01*
X108953D02*
X116953Y139307D01*
X101079Y131433D02*
X109079Y139433D01*
X101079D02*
X109079Y131433D01*
X108953D02*
X116953Y139433D01*
X108953D02*
X116953Y131433D01*
X101079Y123559D02*
X109079Y131559D01*
X101079D02*
X109079Y123559D01*
X108953D02*
X116953Y131559D01*
X108953D02*
X116953Y123559D01*
X101079Y115685D02*
X109079Y123685D01*
X101079D02*
X109079Y115685D01*
X108953D02*
X116953Y123685D01*
X108953D02*
X116953Y115685D01*
X101079Y107811D02*
X109079Y115811D01*
X101079D02*
X109079Y107811D01*
X108953D02*
X116953Y115811D01*
X108953D02*
X116953Y107811D01*
X101079Y99937D02*
X109079Y107937D01*
X101079D02*
X109079Y99937D01*
X108953D02*
X116953Y107937D01*
X108953D02*
X116953Y99937D01*
X165689Y234799D02*
X169689Y238799D01*
X165689Y242799*
X161689Y238799*
X165689Y234799*
Y238799D02*
Y242799D01*
Y244799D02*
X169689Y248799D01*
X165689Y252799*
X161689Y248799*
X165689Y244799*
Y248799D02*
Y252799D01*
X175689Y234799D02*
X179689Y238799D01*
X175689Y242799*
X171689Y238799*
X175689Y234799*
Y238799D02*
Y242799D01*
Y244799D02*
X179689Y248799D01*
X175689Y252799*
X171689Y248799*
X175689Y244799*
Y248799D02*
Y252799D01*
X185689Y234799D02*
X189689Y238799D01*
X185689Y242799*
X181689Y238799*
X185689Y234799*
Y238799D02*
Y242799D01*
Y244799D02*
X189689Y248799D01*
X185689Y252799*
X181689Y248799*
X185689Y244799*
Y248799D02*
Y252799D01*
X195689Y234799D02*
X199689Y238799D01*
X195689Y242799*
X191689Y238799*
X195689Y234799*
Y238799D02*
Y242799D01*
Y244799D02*
X199689Y248799D01*
X195689Y252799*
X191689Y248799*
X195689Y244799*
Y248799D02*
Y252799D01*
X205689Y234799D02*
X209689Y238799D01*
X205689Y242799*
X201689Y238799*
X205689Y234799*
Y238799D02*
Y242799D01*
Y244799D02*
X209689Y248799D01*
X205689Y252799*
X201689Y248799*
X205689Y244799*
Y248799D02*
Y252799D01*
X134386Y241472D02*
X142386D01*
Y249472*
X134386*
Y241472*
X138386Y245472D02*
Y249472D01*
X139307Y241472D02*
X147307D01*
Y249472*
X139307*
Y241472*
X143307Y245472D02*
Y249472D01*
X113717Y131496D02*
X121717D01*
X117717Y127496D02*
Y135496D01*
X115685Y103937D02*
X123685D01*
X119685Y99937D02*
Y107937D01*
X121591Y127559D02*
X129591D01*
X125591Y123559D02*
Y131559D01*
X118795Y107087D02*
X126795D01*
X122795Y103087D02*
Y111087D01*
X202299Y132283D02*
X210299D01*
X206299Y128283D02*
Y136283D01*
X179268Y121024D02*
X187268D01*
X183268Y117024D02*
Y125024D01*
X199150Y136220D02*
X207150D01*
X203150Y132220D02*
Y140220D01*
X138126Y127559D02*
X146126D01*
X142126Y123559D02*
Y131559D01*
X149150Y127953D02*
X157150D01*
X153150Y123953D02*
Y131953D01*
X160961Y127559D02*
X168961D01*
X164961Y123559D02*
Y131559D01*
X209701Y114016D02*
X217701D01*
X213701Y110016D02*
Y118016D01*
X196394Y103937D02*
X204394D01*
X200394Y99937D02*
Y107937D01*
X172772Y123622D02*
X180772D01*
X176772Y119622D02*
Y127622D01*
X157024Y103937D02*
X165024D01*
X161024Y99937D02*
Y107937D01*
X137339Y103937D02*
X145339D01*
X141339Y99937D02*
Y107937D01*
X201906Y126378D02*
X209906D01*
X205906Y122378D02*
Y130378D01*
X186551Y123622D02*
X194551D01*
X190551Y119622D02*
Y127622D01*
X209386Y135630D02*
X217386D01*
X213386Y131630D02*
Y139630D01*
X158106Y107087D02*
X166106D01*
X162106Y103087D02*
Y111087D01*
X229858Y103937D02*
X237858D01*
X233858Y99937D02*
Y107937D01*
X216079Y103937D02*
X224079D01*
X220079Y99937D02*
Y107937D01*
X229858Y123622D02*
X237858D01*
X233858Y119622D02*
Y127622D01*
X229858Y135433D02*
X237858D01*
X233858Y131433D02*
Y139433D01*
X114110Y159055D02*
X122110D01*
X118110Y155055D02*
Y163055D01*
X124504Y215315D02*
X132504D01*
X128504Y211315D02*
Y219315D01*
X135252Y217165D02*
X143252D01*
X139252Y213165D02*
Y221165D01*
X124465Y200748D02*
X132465D01*
X128465Y196748D02*
Y204748D01*
X113717Y202362D02*
X121717D01*
X117717Y198362D02*
Y206362D01*
X113717Y170866D02*
X121717D01*
X117717Y166866D02*
Y174866D01*
X121591Y151181D02*
X129591D01*
X125591Y147181D02*
Y155181D01*
X135567Y173386D02*
X143567D01*
X139567Y169386D02*
Y177386D01*
X118795Y175315D02*
X126795D01*
X122795Y171315D02*
Y179315D01*
X135567Y187598D02*
X143567D01*
X139567Y183598D02*
Y191598D01*
X135213Y198465D02*
X143213D01*
X139213Y194465D02*
Y202465D01*
X113717Y186614D02*
X121717D01*
X117717Y182614D02*
Y190614D01*
X213520Y167126D02*
X221520D01*
X217520Y163126D02*
Y171126D01*
X214583Y187992D02*
X222583D01*
X218583Y183992D02*
Y191992D01*
X200331Y164961D02*
X208331D01*
X204331Y160961D02*
Y168961D01*
X207811Y167717D02*
X215811D01*
X211811Y163717D02*
Y171717D01*
X209780Y157480D02*
X217780D01*
X213780Y153480D02*
Y161480D01*
X207024Y151181D02*
X215024D01*
X211024Y147181D02*
Y155181D01*
X184976Y164961D02*
X192976D01*
X188976Y160961D02*
Y168961D01*
X211354Y214173D02*
X219354D01*
X215354Y210173D02*
Y218173D01*
X142614Y160000D02*
X150614D01*
X146614Y156000D02*
Y164000D01*
X140055Y215984D02*
X148055D01*
X144055Y211984D02*
Y219984D01*
X145213Y181693D02*
X153213D01*
X149213Y177693D02*
Y185693D01*
X146354Y146772D02*
X154354D01*
X150354Y142772D02*
Y150772D01*
X155055Y141339D02*
X163055D01*
X159055Y137339D02*
Y145339D01*
X160567Y214567D02*
X168567D01*
X164567Y210567D02*
Y218567D01*
X169228Y195669D02*
X177228D01*
X173228Y191669D02*
Y199669D01*
X176906Y161614D02*
X184906D01*
X180906Y157614D02*
Y165614D01*
X156827Y195866D02*
X164827D01*
X160827Y191866D02*
Y199866D01*
X202693Y148425D02*
X210693D01*
X206693Y144425D02*
Y152425D01*
X207220Y211220D02*
X215220D01*
X211220Y207220D02*
Y215220D01*
X205055Y165354D02*
X213055D01*
X209055Y161354D02*
Y169354D01*
X145094Y209646D02*
X153094D01*
X149094Y205646D02*
Y213646D01*
X142654Y151890D02*
X150654D01*
X146654Y147890D02*
Y155890D01*
X169819Y177756D02*
X177819D01*
X173819Y173756D02*
Y181756D01*
X182614Y177756D02*
X190614D01*
X186614Y173756D02*
Y181756D01*
X187535Y204331D02*
X195535D01*
X191535Y200331D02*
Y208331D01*
X169622Y202165D02*
X177622D01*
X173622Y198165D02*
Y206165D01*
X199346Y187598D02*
X207346D01*
X203346Y183598D02*
Y191598D01*
X170803Y185630D02*
X178803D01*
X174803Y181630D02*
Y189630D01*
X188480Y144055D02*
X196480D01*
X192480Y140055D02*
Y148055D01*
X202102Y184154D02*
X210102D01*
X206102Y180154D02*
Y188154D01*
X163913Y173031D02*
X171913D01*
X167913Y169031D02*
Y177031D01*
X195213Y175984D02*
X203213D01*
X199213Y171984D02*
Y179984D01*
X188520Y151181D02*
X196520D01*
X192520Y147181D02*
Y155181D01*
X166866Y143307D02*
X174866D01*
X170866Y139307D02*
Y147307D01*
X177693Y204331D02*
X185693D01*
X181693Y200331D02*
Y208331D01*
X156827Y201969D02*
X164827D01*
X160827Y197969D02*
Y205969D01*
X142693Y194882D02*
X150693D01*
X146693Y190882D02*
Y198882D01*
X192457Y162992D02*
X200457D01*
X196457Y158992D02*
Y166992D01*
X167850Y155118D02*
X175850D01*
X171850Y151118D02*
Y159118D01*
X199346Y204331D02*
X207346D01*
X203346Y200331D02*
Y208331D01*
X168638Y215354D02*
X176638D01*
X172638Y211354D02*
Y219354D01*
X158795Y192913D02*
X166795D01*
X162795Y188913D02*
Y196913D01*
X153776Y210945D02*
X161776D01*
X157776Y206945D02*
Y214945D01*
X157811Y205315D02*
X165811D01*
X161811Y201315D02*
Y209315D01*
X170803Y205315D02*
X178803D01*
X174803Y201315D02*
Y209315D01*
X170803Y198819D02*
X178803D01*
X174803Y194819D02*
Y202819D01*
X158795Y198819D02*
X166795D01*
X162795Y194819D02*
Y202819D01*
X171197Y192913D02*
X179197D01*
X175197Y188913D02*
Y196913D01*
X202004Y208169D02*
X210004D01*
X206004Y204169D02*
Y212169D01*
X219622Y165709D02*
X227622D01*
X223622Y161709D02*
Y169709D01*
X216276Y162717D02*
X224276D01*
X220276Y158717D02*
Y166717D01*
X219701Y195866D02*
X227701D01*
X223701Y191866D02*
Y199866D01*
X217024Y191181D02*
X225024D01*
X221024Y187181D02*
Y195181D01*
X227890Y174803D02*
X235890D01*
X231890Y170803D02*
Y178803D01*
X229858Y153150D02*
X237858D01*
X233858Y149150D02*
Y157150D01*
X227693Y182874D02*
X235693D01*
X231693Y178874D02*
Y186874D01*
X227102Y191339D02*
X235102D01*
X231102Y187339D02*
Y195339D01*
X229465Y217913D02*
X237465D01*
X233465Y213913D02*
Y221913D01*
X220409Y218307D02*
X228409D01*
X224409Y214307D02*
Y222307D01*
X230449Y210630D02*
X238449D01*
X234449Y206630D02*
Y214630D01*
X225134Y166142D02*
X233134D01*
X229134Y162142D02*
Y170142D01*
X229858Y143307D02*
X237858D01*
X233858Y139307D02*
Y147307D01*
X135370Y253543D02*
X143370D01*
X139370Y249543D02*
Y257543D01*
X115685Y253543D02*
X123685D01*
X119685Y249543D02*
Y257543D01*
X115685Y245669D02*
X123685D01*
X119685Y241669D02*
Y249669D01*
X115685Y222047D02*
X123685D01*
X119685Y218047D02*
Y226047D01*
X115685Y237795D02*
X123685D01*
X119685Y233795D02*
Y241795D01*
X115685Y231102D02*
X123685D01*
X119685Y227102D02*
Y235102D01*
X132339Y223031D02*
X140339D01*
X136339Y219031D02*
Y227031D01*
X185016Y223425D02*
X193016D01*
X189016Y219425D02*
Y227425D01*
X138520Y229252D02*
X146520D01*
X142520Y225252D02*
Y233252D01*
X150606Y243622D02*
X158606D01*
X154606Y239622D02*
Y247622D01*
X210173Y237795D02*
X218173D01*
X214173Y233795D02*
Y241795D01*
X190488Y222047D02*
X198488D01*
X194488Y218047D02*
Y226047D01*
X206866Y228898D02*
X214866D01*
X210866Y224898D02*
Y232898D01*
X214110Y253543D02*
X222110D01*
X218110Y249543D02*
Y257543D01*
X196394Y253543D02*
X204394D01*
X200394Y249543D02*
Y257543D01*
X176709Y253543D02*
X184709D01*
X180709Y249543D02*
Y257543D01*
X155055Y253543D02*
X163055D01*
X159055Y249543D02*
Y257543D01*
X137614Y237283D02*
X145614D01*
X141614Y233283D02*
Y241283D01*
X145055Y226811D02*
X153055D01*
X149055Y222811D02*
Y230811D01*
X167457Y220472D02*
X175457D01*
X171457Y216472D02*
Y224472D01*
X197181Y222638D02*
X205181D01*
X201181Y218638D02*
Y226638D01*
X230252Y226378D02*
X238252D01*
X234252Y222378D02*
Y230378D01*
X229858Y245669D02*
X237858D01*
X233858Y241669D02*
Y249669D01*
X225921Y253543D02*
X233921D01*
X229921Y249543D02*
Y257543D01*
X218244Y222047D02*
X226244D01*
X222244Y218047D02*
Y226047D01*
X907087Y220000D02*
X1165087D01*
X907087Y196000D02*
X1165087D01*
X907087Y172000D02*
X1165087D01*
X907087Y148000D02*
X1165087D01*
X907087Y124000D02*
X1165087D01*
X907087Y100000D02*
X1165087D01*
X907087Y220000D02*
Y100000D01*
X991087Y220000D02*
Y100000D01*
X1027087Y220000D02*
Y100000D01*
X1063087Y220000D02*
Y100000D01*
X1117087Y220000D02*
Y100000D01*
X1165087Y220000D02*
Y100000D01*
X942587Y208750D02*
X942041Y209500D01*
X941223Y209875*
X940132*
X939314Y209500*
X938768Y208750*
Y208000*
X939041Y207250*
X939314Y206875*
X939859Y206500*
X941496Y205750*
X942041Y205375*
X942314Y205000*
X942587Y204250*
Y203125*
X942041Y202375*
X941223Y202000*
X940132*
X939314Y202375*
X938768Y203125*
X945041Y209875D02*
Y202000D01*
X951314Y209875D02*
X947496Y202000D01*
Y209875D02*
X951314D01*
X947496Y202000D02*
X951314D01*
X953768Y209875D02*
Y202000D01*
Y209875D02*
X957314D01*
X953768Y206125D02*
X955950D01*
X953768Y202000D02*
X957314D01*
X1000950Y209875D02*
X1000405Y209500D01*
X999859Y208750*
X999587Y208000*
X999314Y206875*
Y205000*
X999587Y203875*
X999859Y203125*
X1000405Y202375*
X1000950Y202000*
X1002041*
X1002587Y202375*
X1003132Y203125*
X1003405Y203875*
X1003678Y205000*
Y206875*
X1003405Y208000*
X1003132Y208750*
X1002587Y209500*
X1002041Y209875*
X1000950*
X1001768Y203500D02*
X1003405Y201250D01*
X1008041Y209875D02*
Y202000D01*
X1006132Y209875D02*
X1009950D01*
X1012405D02*
X1014587Y206125D01*
Y202000*
X1016768Y209875D02*
X1014587Y206125D01*
X1039132Y208750D02*
X1038587Y209500D01*
X1037768Y209875*
X1036678*
X1035859Y209500*
X1035314Y208750*
Y208000*
X1035587Y207250*
X1035859Y206875*
X1036405Y206500*
X1038041Y205750*
X1038587Y205375*
X1038859Y205000*
X1039132Y204250*
Y203125*
X1038587Y202375*
X1037768Y202000*
X1036678*
X1035859Y202375*
X1035314Y203125*
X1041587Y209875D02*
X1043768Y206125D01*
Y202000*
X1045950Y209875D02*
X1043768Y206125D01*
X1048405Y209875D02*
Y202000D01*
Y209875D02*
X1050587Y202000D01*
X1052768Y209875D02*
X1050587Y202000D01*
X1052768Y209875D02*
Y202000D01*
X1074587Y209875D02*
Y202000D01*
Y209875D02*
X1077041D01*
X1077859Y209500*
X1078132Y209125*
X1078405Y208375*
Y207250*
X1078132Y206500*
X1077859Y206125*
X1077041Y205750*
X1074587*
X1080859Y209875D02*
Y202000D01*
X1084132*
X1088768Y209875D02*
X1086587Y202000D01*
X1088768Y209875D02*
X1090950Y202000D01*
X1087405Y204625D02*
X1090132D01*
X1095314Y209875D02*
Y202000D01*
X1093405Y209875D02*
X1097223D01*
X1099678D02*
Y202000D01*
Y209875D02*
X1103223D01*
X1099678Y206125D02*
X1101859D01*
X1099678Y202000D02*
X1103223D01*
X1105678Y209875D02*
Y202000D01*
Y209875D02*
X1107587D01*
X1108405Y209500*
X1108950Y208750*
X1109223Y208000*
X1109496Y206875*
Y205000*
X1109223Y203875*
X1108950Y203125*
X1108405Y202375*
X1107587Y202000*
X1105678*
X1133768Y209875D02*
Y202000D01*
X1131859Y209875D02*
X1135678D01*
X1139768D02*
X1139223Y209500D01*
X1138678Y208750*
X1138405Y208000*
X1138132Y206875*
Y205000*
X1138405Y203875*
X1138678Y203125*
X1139223Y202375*
X1139768Y202000*
X1140859*
X1141405Y202375*
X1141950Y203125*
X1142223Y203875*
X1142496Y205000*
Y206875*
X1142223Y208000*
X1141950Y208750*
X1141405Y209500*
X1140859Y209875*
X1139768*
X1144950D02*
Y202000D01*
X1148223*
X914723Y185875D02*
X913905Y185500D01*
X913359Y184375*
X913087Y182500*
Y181375*
X913359Y179500*
X913905Y178375*
X914723Y178000*
X915268*
X916087Y178375*
X916632Y179500*
X916905Y181375*
Y182500*
X916632Y184375*
X916087Y185500*
X915268Y185875*
X914723*
X919632Y178750D02*
X919359Y178375D01*
X919632Y178000*
X919905Y178375*
X919632Y178750*
X922905Y185875D02*
X925905D01*
X924268Y182875*
X925087*
X925632Y182500*
X925905Y182125*
X926178Y181000*
Y180250*
X925905Y179125*
X925359Y178375*
X924541Y178000*
X923723*
X922905Y178375*
X922632Y178750*
X922359Y179500*
X1001087Y184375D02*
X1001632Y184750D01*
X1002450Y185875*
Y178000*
X1005178Y184000D02*
Y184375D01*
X1005450Y185125*
X1005723Y185500*
X1006268Y185875*
X1007359*
X1007905Y185500*
X1008178Y185125*
X1008450Y184375*
Y183625*
X1008178Y182875*
X1007632Y181750*
X1004905Y178000*
X1008723*
X1011450Y184000D02*
Y184375D01*
X1011723Y185125*
X1011996Y185500*
X1012541Y185875*
X1013632*
X1014178Y185500*
X1014450Y185125*
X1014723Y184375*
Y183625*
X1014450Y182875*
X1013905Y181750*
X1011178Y178000*
X1014996*
X1039087Y184000D02*
X1051087D01*
X1045087Y178000D02*
Y190000D01*
X1071723Y185875D02*
X1073905Y182125D01*
Y178000*
X1076087Y185875D02*
X1073905Y182125D01*
X1078541Y185875D02*
Y178000D01*
Y185875D02*
X1082087D01*
X1078541Y182125D02*
X1080723D01*
X1078541Y178000D02*
X1082087D01*
X1088359Y184750D02*
X1087814Y185500D01*
X1086996Y185875*
X1085905*
X1085087Y185500*
X1084541Y184750*
Y184000*
X1084814Y183250*
X1085087Y182875*
X1085632Y182500*
X1087268Y181750*
X1087814Y181375*
X1088087Y181000*
X1088359Y180250*
Y179125*
X1087814Y178375*
X1086996Y178000*
X1085905*
X1085087Y178375*
X1084541Y179125*
X1124905Y184750D02*
Y178000D01*
X1122450Y181375D02*
X1127359D01*
X1134723Y187375D02*
X1129814Y175375D01*
X1137178Y181375D02*
X1142087D01*
X1146178Y185875D02*
X1145359Y185500D01*
X1144814Y184375*
X1144541Y182500*
Y181375*
X1144814Y179500*
X1145359Y178375*
X1146178Y178000*
X1146723*
X1147541Y178375*
X1148087Y179500*
X1148359Y181375*
Y182500*
X1148087Y184375*
X1147541Y185500*
X1146723Y185875*
X1146178*
X1151087Y178750D02*
X1150814Y178375D01*
X1151087Y178000*
X1151359Y178375*
X1151087Y178750*
X1155450Y185875D02*
X1154632Y185500D01*
X1154087Y184375*
X1153814Y182500*
Y181375*
X1154087Y179500*
X1154632Y178375*
X1155450Y178000*
X1155996*
X1156814Y178375*
X1157359Y179500*
X1157632Y181375*
Y182500*
X1157359Y184375*
X1156814Y185500*
X1155996Y185875*
X1155450*
X914723Y161875D02*
X913905Y161500D01*
X913359Y160375*
X913087Y158500*
Y157375*
X913359Y155500*
X913905Y154375*
X914723Y154000*
X915268*
X916087Y154375*
X916632Y155500*
X916905Y157375*
Y158500*
X916632Y160375*
X916087Y161500*
X915268Y161875*
X914723*
X919632Y154750D02*
X919359Y154375D01*
X919632Y154000*
X919905Y154375*
X919632Y154750*
X923723Y161875D02*
X922905Y161500D01*
X922632Y160750*
Y160000*
X922905Y159250*
X923450Y158875*
X924541Y158500*
X925359Y158125*
X925905Y157375*
X926178Y156625*
Y155500*
X925905Y154750*
X925632Y154375*
X924814Y154000*
X923723*
X922905Y154375*
X922632Y154750*
X922359Y155500*
Y156625*
X922632Y157375*
X923178Y158125*
X923996Y158500*
X925087Y158875*
X925632Y159250*
X925905Y160000*
Y160750*
X925632Y161500*
X924814Y161875*
X923723*
X1004359D02*
X1003541Y161500D01*
X1003268Y160750*
Y160000*
X1003541Y159250*
X1004087Y158875*
X1005178Y158500*
X1005996Y158125*
X1006541Y157375*
X1006814Y156625*
Y155500*
X1006541Y154750*
X1006268Y154375*
X1005450Y154000*
X1004359*
X1003541Y154375*
X1003268Y154750*
X1002996Y155500*
Y156625*
X1003268Y157375*
X1003814Y158125*
X1004632Y158500*
X1005723Y158875*
X1006268Y159250*
X1006541Y160000*
Y160750*
X1006268Y161500*
X1005450Y161875*
X1004359*
X1010905D02*
X1010087Y161500D01*
X1009541Y160375*
X1009268Y158500*
Y157375*
X1009541Y155500*
X1010087Y154375*
X1010905Y154000*
X1011450*
X1012268Y154375*
X1012814Y155500*
X1013087Y157375*
Y158500*
X1012814Y160375*
X1012268Y161500*
X1011450Y161875*
X1010905*
X1039087Y154000D02*
X1051087Y166000D01*
X1039087D02*
X1051087Y154000D01*
X1071723Y161875D02*
X1073905Y158125D01*
Y154000*
X1076087Y161875D02*
X1073905Y158125D01*
X1078541Y161875D02*
Y154000D01*
Y161875D02*
X1082087D01*
X1078541Y158125D02*
X1080723D01*
X1078541Y154000D02*
X1082087D01*
X1088359Y160750D02*
X1087814Y161500D01*
X1086996Y161875*
X1085905*
X1085087Y161500*
X1084541Y160750*
Y160000*
X1084814Y159250*
X1085087Y158875*
X1085632Y158500*
X1087268Y157750*
X1087814Y157375*
X1088087Y157000*
X1088359Y156250*
Y155125*
X1087814Y154375*
X1086996Y154000*
X1085905*
X1085087Y154375*
X1084541Y155125*
X1124905Y160750D02*
Y154000D01*
X1122450Y157375D02*
X1127359D01*
X1134723Y163375D02*
X1129814Y151375D01*
X1137178Y157375D02*
X1142087D01*
X1146178Y161875D02*
X1145359Y161500D01*
X1144814Y160375*
X1144541Y158500*
Y157375*
X1144814Y155500*
X1145359Y154375*
X1146178Y154000*
X1146723*
X1147541Y154375*
X1148087Y155500*
X1148359Y157375*
Y158500*
X1148087Y160375*
X1147541Y161500*
X1146723Y161875*
X1146178*
X1151087Y154750D02*
X1150814Y154375D01*
X1151087Y154000*
X1151359Y154375*
X1151087Y154750*
X1155450Y161875D02*
X1154632Y161500D01*
X1154087Y160375*
X1153814Y158500*
Y157375*
X1154087Y155500*
X1154632Y154375*
X1155450Y154000*
X1155996*
X1156814Y154375*
X1157359Y155500*
X1157632Y157375*
Y158500*
X1157359Y160375*
X1156814Y161500*
X1155996Y161875*
X1155450*
X914723Y137875D02*
X913905Y137500D01*
X913359Y136375*
X913087Y134500*
Y133375*
X913359Y131500*
X913905Y130375*
X914723Y130000*
X915268*
X916087Y130375*
X916632Y131500*
X916905Y133375*
Y134500*
X916632Y136375*
X916087Y137500*
X915268Y137875*
X914723*
X919632Y130750D02*
X919359Y130375D01*
X919632Y130000*
X919905Y130375*
X919632Y130750*
X925905Y137875D02*
X923178D01*
X922905Y134500*
X923178Y134875*
X923996Y135250*
X924814*
X925632Y134875*
X926178Y134125*
X926450Y133000*
X926178Y132250*
X925905Y131125*
X925359Y130375*
X924541Y130000*
X923723*
X922905Y130375*
X922632Y130750*
X922359Y131500*
X1006405Y136000D02*
Y136375D01*
X1006678Y137125*
X1006950Y137500*
X1007496Y137875*
X1008587*
X1009132Y137500*
X1009405Y137125*
X1009678Y136375*
Y135625*
X1009405Y134875*
X1008859Y133750*
X1006132Y130000*
X1009950*
X1039087D02*
X1051087D01*
Y142000*
X1039087*
Y130000*
X1045087Y136000D02*
Y142000D01*
X1071723Y137875D02*
X1073905Y134125D01*
Y130000*
X1076087Y137875D02*
X1073905Y134125D01*
X1078541Y137875D02*
Y130000D01*
Y137875D02*
X1082087D01*
X1078541Y134125D02*
X1080723D01*
X1078541Y130000D02*
X1082087D01*
X1088359Y136750D02*
X1087814Y137500D01*
X1086996Y137875*
X1085905*
X1085087Y137500*
X1084541Y136750*
Y136000*
X1084814Y135250*
X1085087Y134875*
X1085632Y134500*
X1087268Y133750*
X1087814Y133375*
X1088087Y133000*
X1088359Y132250*
Y131125*
X1087814Y130375*
X1086996Y130000*
X1085905*
X1085087Y130375*
X1084541Y131125*
X1124905Y136750D02*
Y130000D01*
X1122450Y133375D02*
X1127359D01*
X1134723Y139375D02*
X1129814Y127375D01*
X1137178Y133375D02*
X1142087D01*
X1146178Y137875D02*
X1145359Y137500D01*
X1144814Y136375*
X1144541Y134500*
Y133375*
X1144814Y131500*
X1145359Y130375*
X1146178Y130000*
X1146723*
X1147541Y130375*
X1148087Y131500*
X1148359Y133375*
Y134500*
X1148087Y136375*
X1147541Y137500*
X1146723Y137875*
X1146178*
X1151087Y130750D02*
X1150814Y130375D01*
X1151087Y130000*
X1151359Y130375*
X1151087Y130750*
X1155450Y137875D02*
X1154632Y137500D01*
X1154087Y136375*
X1153814Y134500*
Y133375*
X1154087Y131500*
X1154632Y130375*
X1155450Y130000*
X1155996*
X1156814Y130375*
X1157359Y131500*
X1157632Y133375*
Y134500*
X1157359Y136375*
X1156814Y137500*
X1155996Y137875*
X1155450*
X913087Y112375D02*
X913632Y112750D01*
X914450Y113875*
Y106000*
X917178Y106750D02*
X916905Y106375D01*
X917178Y106000*
X917450Y106375*
X917178Y106750*
X921541Y113875D02*
X920723Y113500D01*
X920178Y112375*
X919905Y110500*
Y109375*
X920178Y107500*
X920723Y106375*
X921541Y106000*
X922087*
X922905Y106375*
X923450Y107500*
X923723Y109375*
Y110500*
X923450Y112375*
X922905Y113500*
X922087Y113875*
X921541*
X926450Y112000D02*
Y112375D01*
X926723Y113125*
X926996Y113500*
X927541Y113875*
X928632*
X929178Y113500*
X929450Y113125*
X929723Y112375*
Y111625*
X929450Y110875*
X928905Y109750*
X926178Y106000*
X929996*
X1004223Y112375D02*
X1004768Y112750D01*
X1005587Y113875*
Y106000*
X1009678Y113875D02*
X1008859Y113500D01*
X1008314Y112375*
X1008041Y110500*
Y109375*
X1008314Y107500*
X1008859Y106375*
X1009678Y106000*
X1010223*
X1011041Y106375*
X1011587Y107500*
X1011859Y109375*
Y110500*
X1011587Y112375*
X1011041Y113500*
X1010223Y113875*
X1009678*
X1045087Y106000D02*
X1051087Y112000D01*
X1045087Y118000*
X1039087Y112000*
X1045087Y106000*
Y112000D02*
Y118000D01*
X1071723Y113875D02*
X1073905Y110125D01*
Y106000*
X1076087Y113875D02*
X1073905Y110125D01*
X1078541Y113875D02*
Y106000D01*
Y113875D02*
X1082087D01*
X1078541Y110125D02*
X1080723D01*
X1078541Y106000D02*
X1082087D01*
X1088359Y112750D02*
X1087814Y113500D01*
X1086996Y113875*
X1085905*
X1085087Y113500*
X1084541Y112750*
Y112000*
X1084814Y111250*
X1085087Y110875*
X1085632Y110500*
X1087268Y109750*
X1087814Y109375*
X1088087Y109000*
X1088359Y108250*
Y107125*
X1087814Y106375*
X1086996Y106000*
X1085905*
X1085087Y106375*
X1084541Y107125*
X1124905Y112750D02*
Y106000D01*
X1122450Y109375D02*
X1127359D01*
X1134723Y115375D02*
X1129814Y103375D01*
X1137178Y109375D02*
X1142087D01*
X1146178Y113875D02*
X1145359Y113500D01*
X1144814Y112375*
X1144541Y110500*
Y109375*
X1144814Y107500*
X1145359Y106375*
X1146178Y106000*
X1146723*
X1147541Y106375*
X1148087Y107500*
X1148359Y109375*
Y110500*
X1148087Y112375*
X1147541Y113500*
X1146723Y113875*
X1146178*
X1151087Y106750D02*
X1150814Y106375D01*
X1151087Y106000*
X1151359Y106375*
X1151087Y106750*
X1155450Y113875D02*
X1154632Y113500D01*
X1154087Y112375*
X1153814Y110500*
Y109375*
X1154087Y107500*
X1154632Y106375*
X1155450Y106000*
X1155996*
X1156814Y106375*
X1157359Y107500*
X1157632Y109375*
Y110500*
X1157359Y112375*
X1156814Y113500*
X1155996Y113875*
X1155450*
X0Y0D02*
M02*
