%
T1C.01181F0S0
X011969Y010394
X01228Y010709
X012559Y012756
X011772Y01315
X012559Y015118
X011811Y015906
X011772Y017087
X01228Y017531
X011772Y018661
X012846Y020075
X011772Y020236
X01285Y021531
X011969Y022205
X011969Y02311
X011969Y02378
X011969Y024567
X011969Y025354
X013937Y025354
X015461Y024362
X014161Y023728
X014252Y022925
X014906Y022681
X013634Y022303
X013925Y021717
X014406Y021598
X014909Y020965
X013921Y019846
X014669Y019488
X013957Y01876
X014921Y018169
X013957Y017339
X014661Y016
X014665Y015189
X015035Y014677
X015315Y012795
X014213Y012756
X014134Y010394
X016102Y010394
X016211Y010709
X017677Y012362
X016496Y012756
X015906Y014134
X017087Y014331
X017185Y015512
X016791Y017303
X017382Y017776
X01748Y018563
X01628Y019291
X01752Y019291
X017323Y019567
X016083Y019587
X01748Y019882
X01628Y019882
X016083Y020197
X017362Y020217
X016181Y020531
X01748Y020531
X015778Y021094
X016457Y021457
X017264Y021535
X017146Y022047
X015906Y025354
X020039Y025354
X018071Y025354
X018902Y022343
X020118Y022264
X019449Y022205
X018169Y020433
X020335Y020433
X019154Y020433
X020335Y01876
X018661Y017776
X019921Y017598
X018898Y016496
X020433Y016496
X019646Y016299
X018091Y016161
X019252Y015118
X019248Y014406
X020315Y013622
X019055Y012362
X018327Y012102
X020039Y010394
X022008Y010394
X02137Y011402
X020591Y012638
X02063Y013228
X021339Y013563
X020669Y014843
X021102Y015118
X021378Y015748
X022028Y016272
X020906Y016535
X022362Y016571
X022913Y016614
X021752Y016713
X021181Y016772
X02061Y018415
X021858Y018799
X022102Y019118
X02237Y019587
X0206Y020817
X021122Y021122
X021535Y021417
X022441Y021831
X022224Y022205
X021087Y02289
X021417Y02378
X022992Y025354
X021811Y025354
X023386Y024567
X023425Y022638
X023346Y021791
X023445Y021063
X02311Y019134
X023169Y018287
X023189Y01748
X023386Y015315
X023386Y014331
X023386Y013543
X023386Y012362
X023386Y010394
T2C.01969F0S0
X013839Y024547
X014331Y024547
T3C.0315F0S0
X010508Y010394
X011295Y010394
X010508Y011181
X011295Y011181
X010508Y011969
X011295Y011969
X010508Y012756
X011295Y012756
X010508Y013543
X011295Y013543
X010508Y014331
X011295Y014331
X010508Y015118
X011295Y015118
X010508Y015906
X011295Y015906
X010508Y016693
X011295Y016693
X010508Y01748
X011295Y01748
X010508Y018268
X011295Y018268
X010508Y019055
X011295Y019055
X010508Y019843
X011295Y019843
X010508Y02063
X011295Y02063
X010508Y021417
X011295Y021417
X010508Y022205
X011295Y022205
X010508Y022992
X011295Y022992
X010508Y02378
X011295Y02378
X010508Y024567
X011295Y024567
X010508Y025354
X011295Y025354
X024059Y025354
X024846Y025354
X024059Y024567
X024846Y024567
X024059Y02378
X024846Y02378
X024059Y022992
X024846Y022992
X024059Y022205
X024846Y022205
X024059Y021417
X024846Y021417
X024059Y02063
X024846Y02063
X024059Y019843
X024846Y019843
X024059Y019055
X024846Y019055
X024059Y018268
X024846Y018268
X024059Y01748
X024846Y01748
X024059Y016693
X024846Y016693
X024059Y015906
X024846Y015906
X024059Y015118
X024846Y015118
X024059Y014331
X024846Y014331
X024059Y013543
X024846Y013543
X024059Y012756
X024846Y012756
X024059Y011969
X024846Y011969
X024059Y011181
X024846Y011181
X024059Y010394
X024846Y010394
T4C.04016F0S0
X016569Y02388
X017569Y02388
X016569Y02488
X017569Y02488
X018569Y02488
X019569Y02488
X020569Y02488
X018569Y02388
X020569Y02388
X019569Y02388
M01
M02
M08
M30
