*
*
G04 PADS 9.5 Build Number: 522968 generated Gerber (RS-274-X) file*
G04 PC Version=2.1*
*
%IN "Plasma_LF_Gen_MCU_PCB_V"*%
*
%MOIN*%
*
%FSLAX35Y35*%
*
*
*
*
G04 PC Standard Apertures*
*
*
G04 Thermal Relief Aperture macro.*
%AMTER*
1,1,$1,0,0*
1,0,$1-$2,0,0*
21,0,$3,$4,0,0,45*
21,0,$3,$4,0,0,135*
%
*
*
G04 Annular Aperture macro.*
%AMANN*
1,1,$1,0,0*
1,0,$2,0,0*
%
*
*
G04 Odd Aperture macro.*
%AMODD*
1,1,$1,0,0*
1,0,$1-0.005,0,0*
%
*
*
G04 PC Custom Aperture Macros*
*
*
*
*
*
*
G04 PC Aperture Table*
*
%ADD010C,0.00004*%
%ADD028C,0.00787*%
%ADD030C,0.01181*%
%ADD031C,0.01969*%
%ADD033C,0.00394*%
%ADD052C,0.00984*%
%ADD053C,0.00591*%
%ADD054C,0.005*%
*
*
*
*
G04 PC Circuitry*
G04 Layer Name Plasma_LF_Gen_MCU_PCB_V - circuitry*
%LPD*%
*
*
G04 PC Custom Flashes*
G04 Layer Name Plasma_LF_Gen_MCU_PCB_V - flashes*
%LPD*%
*
*
G04 PC Circuitry*
G04 Layer Name Plasma_LF_Gen_MCU_PCB_V - circuitry*
%LPD*%
*
G54D10*
G54D28*
G01X208465Y174803D02*
X172244D01*
Y211024*
X208465*
Y174803*
G54D30*
X135472Y238543D02*
X133858D01*
X134685Y239921*
X135472Y238543*
G54D31*
X176772Y178346D02*
G75*
G03X176772I-985J0D01*
G54D33*
G01X125591Y188976D02*
X123228D01*
Y185827*
X125591*
X127165Y188976D02*
X129528D01*
Y185827*
X127165*
X222047Y182874D02*
Y180512D01*
X225197*
Y182874*
X222047Y184449D02*
Y186811D01*
X225197*
Y184449*
X161024Y172205D02*
Y174567D01*
X157874*
Y172205*
X161024Y170630D02*
Y168268D01*
X157874*
Y170630*
X168209Y163681D02*
X170571D01*
Y166831*
X168209*
X166634Y163681D02*
X164272D01*
Y166831*
X166634*
X208661Y162992D02*
X206299D01*
Y159843*
X208661*
X210236Y162992D02*
X212598D01*
Y159843*
X210236*
X174114Y224409D02*
Y222047D01*
X177264*
Y224409*
X174114Y225984D02*
Y228346D01*
X177264*
Y225984*
X222441Y209252D02*
X220079D01*
Y206102*
X222441*
X224016Y209252D02*
X226378D01*
Y206102*
X224016*
X172835Y107874D02*
Y105512D01*
X175984*
Y107874*
X172835Y109449D02*
Y111811D01*
X175984*
Y109449*
X135197Y220630D02*
X124173D01*
Y225354*
X135197*
Y220630*
X130000Y222205D02*
Y223780D01*
X129370Y222205D02*
Y223780D01*
X130866Y222992D02*
X130000D01*
X129370D02*
X128504D01*
X155315Y213780D02*
Y224803D01*
X160039*
Y213780*
X155315*
X156890Y218976D02*
X158465D01*
X156890Y219606D02*
X158465D01*
X157677Y218110D02*
Y218976D01*
Y219606D02*
Y220472D01*
X134252Y203346D02*
Y196654D01*
X126378Y203445D02*
X130315D01*
X122441Y203346D02*
Y196654D01*
X119291Y196457D02*
X121654Y194882D01*
X119291Y193307*
Y196457*
Y194882D02*
X121654D01*
X119291Y194488D02*
X121063D01*
X119291Y194094D02*
X120472D01*
X119291Y193701D02*
X119882D01*
X119291Y195276D02*
X121063D01*
X119291Y195669D02*
X120472D01*
X119291Y196063D02*
X119882D01*
X125591Y192126D02*
X123622D01*
X123228Y185827D02*
X129528D01*
Y182677*
X123228*
Y185827*
X137598Y182677D02*
X131299D01*
Y185827*
X137598*
Y182677*
X129134Y111811D02*
Y105512D01*
X125984*
Y111811*
X129134*
X133661Y219016D02*
X123819D01*
Y211142*
X133661*
Y219016*
X224213Y104921D02*
G03X225394Y106102I-0J1181D01*
G01X224213Y104921D02*
X202559D01*
X201378Y106102D02*
G03X202559Y104921I1181J0D01*
G01X201378Y106102D02*
Y118307D01*
X202559Y119488D02*
G03X201378Y118307I0J-1181D01*
G01X202559Y119488D02*
X224213D01*
X225394Y118307D02*
G03X224213Y119488I-1181J0D01*
G01X225394Y118307D02*
Y106102D01*
X165059Y153740D02*
X177657D01*
Y159646*
X165059*
Y153740*
X170571Y158268D02*
X172146D01*
Y155118*
X170571*
Y158268*
X169783D02*
Y155118D01*
X172933Y158268D02*
Y155118D01*
X169783Y156693D02*
X168996D01*
X172933D02*
X173720D01*
X166831Y150886D02*
X164469D01*
Y147736*
X166831*
X168406Y150886D02*
X170768D01*
Y147736*
X168406*
X175394D02*
X177756D01*
Y150886*
X175394*
X173819Y147736D02*
X171457D01*
Y150886*
X173819*
X199311Y142520D02*
X201673D01*
Y145669*
X199311*
X197736Y142520D02*
X195374D01*
Y145669*
X197736*
X184547D02*
X182185D01*
Y142520*
X184547*
X186122Y145669D02*
X188484D01*
Y142520*
X186122*
X158661Y111811D02*
Y105512D01*
X155512*
Y111811*
X158661*
X168504D02*
Y105512D01*
X165354*
Y111811*
X168504*
X148819Y111713D02*
Y105413D01*
X145669*
Y111713*
X148819*
X138976Y111811D02*
Y105512D01*
X135827*
Y111811*
X138976*
X129528Y123618D02*
Y113780D01*
X125587*
Y123618*
X129528*
X127559Y119173D02*
X128346Y117992D01*
X126772*
X127559Y119173*
X128346Y119370D02*
X126772D01*
X127559Y118701D02*
X127835Y118268D01*
X127283*
X127559Y118701*
X159055Y123618D02*
Y113780D01*
X155114*
Y123618*
X159055*
X157087Y119173D02*
X157874Y117992D01*
X156299*
X157087Y119173*
X157874Y119370D02*
X156299D01*
X157087Y118701D02*
X157362Y118268D01*
X156811*
X157087Y118701*
X168898Y123618D02*
Y113780D01*
X164957*
Y123618*
X168898*
X166929Y119173D02*
X167717Y117992D01*
X166142*
X166929Y119173*
X167717Y119370D02*
X166142D01*
X166929Y118701D02*
X167205Y118268D01*
X166654*
X166929Y118701*
X149213Y123618D02*
Y113780D01*
X145272*
Y123618*
X149213*
X147244Y119173D02*
X148031Y117992D01*
X146457*
X147244Y119173*
X148031Y119370D02*
X146457D01*
X147244Y118701D02*
X147520Y118268D01*
X146969*
X147244Y118701*
X139370Y123618D02*
Y113780D01*
X135429*
Y123618*
X139370*
X137402Y119173D02*
X138189Y117992D01*
X136614*
X137402Y119173*
X138189Y119370D02*
X136614D01*
X137402Y118701D02*
X137677Y118268D01*
X137126*
X137402Y118701*
X160969Y234083D02*
Y253480D01*
X210335*
Y234083*
X160969*
X153858Y201181D02*
X156220D01*
Y204331*
X153858*
X152283Y201181D02*
X149921D01*
Y204331*
X152283*
X153858Y193307D02*
X156220D01*
Y196457*
X153858*
X152283Y193307D02*
X149921D01*
Y196457*
X152283*
X153858Y185433D02*
X156220D01*
Y188583*
X153858*
X152283Y185433D02*
X149921D01*
Y188583*
X152283*
X222244Y129882D02*
X215945D01*
Y133031*
X222244*
Y129882*
Y133425D02*
X215945D01*
Y136575*
X222244*
Y133425*
X156220Y205118D02*
X149921D01*
Y208268*
X156220*
Y205118*
Y197244D02*
X149921D01*
Y200394*
X156220*
Y197244*
X228346Y137795D02*
X222047D01*
Y140945*
X228346*
Y137795*
Y145669D02*
X222047D01*
Y148819*
X228346*
Y145669*
Y141339D02*
X222047D01*
Y144488*
X228346*
Y141339*
Y149213D02*
X222047D01*
Y152362*
X228346*
Y149213*
X156220Y189370D02*
X149921D01*
Y192520*
X156220*
Y189370*
X144094Y167795D02*
Y161496D01*
X140945*
Y167795*
X144094*
X141142Y150394D02*
Y156693D01*
X144291*
Y150394*
X141142*
X136181Y238150D02*
X133150D01*
X134685Y240709*
X136181Y238150*
X149213Y253642D02*
X132480D01*
Y241043*
X149213*
Y253642*
X182185Y147736D02*
X201870D01*
Y160335*
X182185*
Y147736*
X190453Y157972D02*
X193602D01*
Y149311*
X190453*
Y157972*
X189665D02*
Y149311D01*
X194390Y157972D02*
Y149311D01*
X188091Y154035D02*
X189665D01*
X194390D02*
X195965D01*
X231693Y226969D02*
Y233661D01*
X226575*
Y226969*
X231693*
X226575Y248622D02*
Y241929D01*
X231693*
Y248622*
X226575*
X128150Y242717D02*
Y249409D01*
X123031*
Y242717*
X128150*
X225748Y130669D02*
Y123976D01*
X230866*
Y130669*
X225748*
X215748Y233071D02*
X222047D01*
Y229921*
X215748*
Y233071*
Y227953D02*
X222047D01*
Y224803*
X215748*
Y227953*
X179921Y111811D02*
Y105512D01*
X176772*
Y111811*
X179921*
X190059Y114173D02*
Y108661D01*
X181594*
Y114173*
X190059*
X185827Y113386D02*
Y111417D01*
X187795*
X183858D02*
X185827D01*
Y109449*
X125000Y176181D02*
X131693D01*
Y181299*
X125000*
Y176181*
X206299Y155512D02*
X212598D01*
Y152362*
X206299*
Y155512*
Y159055D02*
X212598D01*
Y155906*
X206299*
Y159055*
X118772Y188226D02*
X118683Y188472D01*
X118504Y188718*
X118325Y188841*
X117967*
X117788Y188718*
X117609Y188472*
X117520Y188226*
X117430Y187857*
Y187242*
X117520Y186873*
X117609Y186626*
X117788Y186380*
X117967Y186257*
X118325*
X118504Y186380*
X118683Y186626*
X118772Y186873*
X119578Y188349D02*
X119757Y188472D01*
X120025Y188841*
Y186257*
X121994Y188841D02*
X121099D01*
X121009Y187734*
X121099Y187857*
X121367Y187980*
X121636*
X121904Y187857*
X122083Y187611*
X122173Y187242*
X122083Y186996*
X121994Y186626*
X121815Y186380*
X121546Y186257*
X121278*
X121009Y186380*
X120920Y186503*
X120830Y186750*
X220706Y184977D02*
X220952Y185066D01*
X221198Y185245*
X221321Y185424*
Y185782*
X221198Y185961*
X220952Y186140*
X220706Y186229*
X220337Y186319*
X219722*
X219353Y186229*
X219107Y186140*
X218861Y185961*
X218738Y185782*
Y185424*
X218861Y185245*
X219107Y185066*
X219353Y184977*
X220829Y184171D02*
X220952Y183992D01*
X221321Y183724*
X218738*
X220460Y181756D02*
X220091Y181845D01*
X219845Y182024*
X219722Y182292*
Y182382*
X219845Y182650*
X220091Y182829*
X220460Y182919*
X220583*
X220952Y182829*
X221198Y182650*
X221321Y182382*
Y182292*
X221198Y182024*
X220952Y181845*
X220460Y181756*
X219845*
X219230Y181845*
X218861Y182024*
X218738Y182292*
Y182471*
X218861Y182740*
X219107Y182829*
X154884Y170057D02*
X154638Y169968D01*
X154392Y169789*
X154269Y169610*
Y169252*
X154392Y169073*
X154638Y168894*
X154884Y168805*
X155253Y168715*
X155869*
X156238Y168805*
X156484Y168894*
X156730Y169073*
X156853Y169252*
Y169610*
X156730Y169789*
X156484Y169968*
X156238Y170057*
X154761Y170863D02*
X154638Y171042D01*
X154269Y171310*
X156853*
X154269Y172652D02*
X154392Y172384D01*
X154761Y172205*
X155376Y172115*
X155746*
X156361Y172205*
X156730Y172384*
X156853Y172652*
Y172831*
X156730Y173099*
X156730D02*
X156361Y173278D01*
X155746Y173368*
X155376*
X154761Y173278*
X154392Y173099*
X154392D02*
X154269Y172831D01*
Y172652*
X159869Y165982D02*
X159780Y166228D01*
X159601Y166474*
X159422Y166597*
X159064*
X158885Y166474*
X158706Y166228*
X158617Y165982*
X158527Y165613*
Y164998*
X158617Y164628*
X158706Y164382*
X158885Y164136*
X159064Y164013*
X159422*
X159601Y164136*
X159780Y164382*
X159869Y164628*
X160675Y166105D02*
X160854Y166228D01*
X161122Y166597*
Y164013*
X161927Y166105D02*
X162106Y166228D01*
X162375Y166597*
Y164013*
X214816Y162084D02*
X214726Y162330D01*
X214547Y162576*
X214368Y162699*
X214010*
X213831Y162576*
X213652Y162330*
X213563Y162084*
X213474Y161715*
Y161100*
X213563Y160731*
X213652Y160485*
X213831Y160239*
X214010Y160116*
X214368*
X214547Y160239*
X214726Y160485*
X214816Y160731*
X215621Y162207D02*
X215800Y162330D01*
X216068Y162699*
Y160116*
X217768Y162699D02*
X216874Y160977D01*
X218216*
X217768Y162699D02*
Y160116D01*
X179958Y226754D02*
X180204Y226843D01*
X180450Y227022*
X180573Y227201*
Y227559*
X180450Y227738*
X180204Y227917*
X179958Y228006*
X179589Y228096*
X178974*
X178605Y228006*
X178359Y227917*
X178113Y227738*
X177990Y227559*
Y227201*
X178113Y227022*
X178359Y226843*
X178605Y226754*
X180081Y225948D02*
X180204Y225770D01*
X180573Y225501*
X177990*
X180573Y223443D02*
X177990Y224338D01*
X180573Y224696D02*
Y223443D01*
X222370Y212236D02*
X222281Y212482D01*
X222102Y212728*
X221923Y212851*
X221565*
X221386Y212728*
X221207Y212482*
X221117Y212236*
X221028Y211867*
Y211252*
X221117Y210883*
X221207Y210636*
X221386Y210390*
X221565Y210267*
X221923*
X222102Y210390*
X222281Y210636*
X222370Y210883*
X223175Y212359D02*
X223354Y212482D01*
X223623Y212851*
Y210267*
X224876Y212851D02*
X224607Y212728D01*
X224518Y212482*
Y212236*
X224607Y211990*
X224786Y211867*
X225144Y211744*
X225412Y211621*
X225591Y211375*
X225681Y211129*
Y210760*
X225591Y210513*
X225502Y210390*
X225233Y210267*
X224876*
X224607Y210390*
X224518Y210513*
X224428Y210760*
Y211129*
X224518Y211375*
X224697Y211621*
X224965Y211744*
X225323Y211867*
X225502Y211990*
X225591Y212236*
Y212482*
X225502Y212728*
X225233Y212851*
X224876*
X174998Y115143D02*
X175244Y115233D01*
X175490Y115412*
X175613Y115591*
Y115948*
X175490Y116127*
X175244Y116306*
X174998Y116396*
X174628Y116485*
X174013*
X173644Y116396*
X173398Y116306*
X173152Y116127*
X173029Y115948*
Y115591*
X173152Y115412*
X173398Y115233*
X173644Y115143*
X175613Y114159D02*
Y113175D01*
X174628Y113712*
Y113443*
X174505Y113264*
X174382Y113175*
X174013Y113085*
X173767*
X173398Y113175*
X173152Y113354*
X173029Y113622*
Y113890*
X173152Y114159*
X173275Y114248*
X173521Y114338*
X129157Y228602D02*
X129068Y228848D01*
X128889Y229094*
X128710Y229218*
X128352*
X128173Y229094*
X127994Y228848*
X127904Y228602*
X127815Y228233*
Y227618*
X127904Y227249*
X127994Y227003*
X128173Y226757*
X128352Y226634*
X128710*
X128889Y226757*
X129068Y227003*
X129157Y227249*
X129962Y228725D02*
X130141Y228848D01*
X130410Y229218*
Y226634*
X132289Y228848D02*
X132199Y229094D01*
X131931Y229218*
X131752*
X131484Y229094*
X131305Y228725*
X131215Y228110*
Y227495*
X131305Y227003*
X131484Y226757*
X131752Y226634*
X131841*
X132110Y226757*
X132289Y227003*
X132378Y227372*
Y227495*
X132289Y227864*
X132110Y228110*
X131841Y228233*
X131752*
X131484Y228110*
X131305Y227864*
X131215Y227495*
X162992Y220705D02*
X163238Y220795D01*
X163484Y220974*
X163607Y221152*
Y221510*
X163484Y221689*
X163238Y221868*
X162992Y221958*
X162623Y222047*
X162008*
X161639Y221958*
X161393Y221868*
X161147Y221689*
X161024Y221510*
Y221152*
X161147Y220974*
X161393Y220795*
X161639Y220705*
X163115Y219900D02*
X163238Y219721D01*
X163607Y219452*
X161024*
X163607Y218468D02*
Y217484D01*
X162623Y218021*
Y217752*
X162500Y217573*
X162377Y217484*
X162008Y217394*
X161762*
X161393Y217484*
X161147Y217663*
X161024Y217931*
Y218200*
X161147Y218468*
X161270Y218558*
X161516Y218647*
X136434Y201652D02*
Y199806D01*
X136524Y199437*
X136703Y199191*
X136971Y199068*
X137150*
X137419Y199191*
X137598Y199437*
X137687Y199806*
Y201652*
X138582Y201036D02*
Y201160D01*
X138671Y201406*
X138761Y201529*
X138940Y201652*
X139298*
X139477Y201529*
X139566Y201406*
X139656Y201160*
Y200913*
X139566Y200667*
X139387Y200298*
X138492Y199068*
X139745*
X118683Y185376D02*
Y182793D01*
Y185376D02*
X119488D01*
X119757Y185253*
X119846Y185130*
X119936Y184884*
Y184638*
X119846Y184392*
X119757Y184269*
X119488Y184146*
X118683*
X119309D02*
X119936Y182793D01*
X121815Y185007D02*
X121725Y185253D01*
X121457Y185376*
X121278*
X121009Y185253*
X120830Y184884*
X120741Y184269*
Y183654*
X120830Y183162*
X121009Y182916*
X121278Y182793*
X121367*
X121636Y182916*
X121815Y183162*
X121904Y183531*
Y183654*
X121815Y184023*
X121636Y184269*
X121367Y184392*
X121278*
X121009Y184269*
X120830Y184023*
X120741Y183654*
X138363Y185455D02*
Y182872D01*
Y185455D02*
X139168D01*
X139436Y185332*
X139526Y185209*
X139615Y184963*
Y184717*
X139526Y184471*
X139436Y184348*
X139168Y184225*
X138363*
X138989D02*
X139615Y182872D01*
X141673Y185455D02*
X140778Y182872D01*
X140421Y185455D02*
X141673D01*
X132542Y109601D02*
X129958D01*
X132542D02*
Y108796D01*
X132419Y108527*
X132296Y108438*
X132050Y108348*
X131804*
X131558Y108438*
X131435Y108527*
X131312Y108796*
Y109601*
Y108975D02*
X129958Y108348D01*
X132050Y107543D02*
X132173Y107364D01*
X132542Y107096*
X129958*
X136122Y215892D02*
Y213308D01*
X137196*
X138001Y215400D02*
X138180Y215523D01*
X138449Y215892*
Y213308*
X211528Y123553D02*
X211349Y123799D01*
X211081Y123922*
X210723*
X210455Y123799*
X210276Y123553*
Y123307*
X210365Y123061*
X210455Y122938*
X210634Y122815*
X210634D02*
X211170Y122569D01*
X211349Y122446*
X211439Y122323*
X211528Y122077*
Y121708*
X211349Y121462*
X211081Y121339*
X210723*
X210455Y121462*
X210276Y121708*
X212334Y123922D02*
X212781Y121339D01*
X213228Y123922D02*
X212781Y121339D01*
X213228Y123922D02*
X213676Y121339D01*
X214123Y123922D02*
X213676Y121339D01*
X214928Y123430D02*
X215107Y123553D01*
X215376Y123922*
Y121339*
X160236Y157702D02*
X161489Y155118D01*
Y157702D02*
X160236Y155118D01*
X162294Y157210D02*
X162473Y157333D01*
X162742Y157702*
Y155118*
X167233Y146297D02*
X167144Y146543D01*
X166965Y146789*
X166786Y146912*
X166428*
X166249Y146789*
X166070Y146543*
X165981Y146297*
X165891Y145928*
Y145312*
X165891D02*
X165981Y144943D01*
X166070Y144697*
X166249Y144451*
X166428Y144328*
X166786*
X166965Y144451*
X167144Y144697*
X167233Y144943*
X168933Y146912D02*
X168039Y145189D01*
X169381*
X168933Y146912D02*
Y144328D01*
X174025Y146297D02*
X173935Y146543D01*
X173756Y146789*
X173577Y146912*
X173219*
X173040Y146789*
X172861Y146543*
X172772Y146297*
X172683Y145928*
Y145312*
X172683D02*
X172772Y144943D01*
X172861Y144697*
X173040Y144451*
X173219Y144328*
X173577*
X173756Y144451*
X173935Y144697*
X174025Y144943*
X175993Y146912D02*
X175098D01*
X175009Y145805*
X175098Y145928*
X175367Y146051*
X175635*
X175904Y145928*
X176083Y145682*
X176172Y145312*
X176172D02*
X176083Y145066D01*
X175993Y144697*
X175814Y144451*
X175546Y144328*
X175277*
X175009Y144451*
X174919Y144574*
X174830Y144820*
X197691Y141375D02*
X197602Y141622D01*
X197423Y141868*
X197244Y141991*
X196886*
X196707Y141868*
X196528Y141622*
X196439Y141375*
X196349Y141006*
Y140391*
X196439Y140022*
X196528Y139776*
X196707Y139530*
X196886Y139407*
X197244*
X197423Y139530*
X197602Y139776*
X197691Y140022*
X198944Y141991D02*
X198676Y141868D01*
X198586Y141622*
Y141375*
X198676Y141129*
X198855Y141006*
X199213Y140883*
X199481Y140760*
X199660Y140514*
X199749Y140268*
Y139899*
X199660Y139653*
X199571Y139530*
X199302Y139407*
X198944*
X198676Y139530*
X198586Y139653*
X198497Y139899*
Y140268*
X198586Y140514*
X198765Y140760*
X199034Y140883*
X199392Y141006*
X199571Y141129*
X199660Y141375*
Y141622*
X199571Y141868*
X199302Y141991*
X198944*
X185290Y141277D02*
X185200Y141523D01*
X185021Y141769*
X184843Y141892*
X184485*
X184306Y141769*
X184127Y141523*
X184037Y141277*
X183948Y140908*
Y140293*
X184037Y139924*
X184127Y139678*
X184306Y139432*
X184485Y139309*
X184843*
X185021Y139432*
X185200Y139678*
X185290Y139924*
X187348Y141892D02*
X186453Y139309D01*
X186095Y141892D02*
X187348D01*
X161676Y110102D02*
X159092D01*
X161676D02*
Y109297D01*
X161553Y109028*
X161430Y108939*
X161184Y108849*
X160938*
X160938D02*
X160691Y108939D01*
X160568Y109028*
X160445Y109297*
Y110102*
Y109476D02*
X159092Y108849D01*
X161061Y107955D02*
X161184D01*
X161430Y107865*
X161553Y107776*
X161676Y107597*
Y107239*
X161553Y107060*
X161430Y106970*
X161184Y106881*
X160938*
X160938D02*
X160691Y106970D01*
X160322Y107149*
X159092Y108044*
Y106791*
X171518Y110102D02*
X168935D01*
X171518D02*
Y109297D01*
X171395Y109028*
X171272Y108939*
X171026Y108849*
X170780*
X170534Y108939*
X170411Y109028*
X170288Y109297*
Y110102*
Y109476D02*
X168935Y108849D01*
X171518Y107865D02*
Y106881D01*
X170534Y107418*
Y107149*
X170411Y106970*
X170288Y106881*
X169919Y106791*
X169673*
X169304Y106881*
X169058Y107060*
X168935Y107328*
Y107597*
X169058Y107865*
X169181Y107955*
X169427Y108044*
X151833Y110048D02*
X149250D01*
X151833D02*
Y109243D01*
X151710Y108975*
X151587Y108885*
X151341Y108796*
X151095*
X150849Y108885*
X150726Y108975*
X150603Y109243*
Y110048*
Y109422D02*
X149250Y108796D01*
X151833Y106827D02*
Y107722D01*
X150726Y107811*
X150849Y107722*
X150972Y107453*
Y107185*
X150849Y106917*
X150603Y106738*
X150234Y106648*
X149988Y106738*
X149619Y106827*
X149373Y107006*
X149250Y107275*
Y107543*
X149373Y107811*
X149496Y107901*
X149742Y107990*
X141991Y110147D02*
X139407D01*
X141991D02*
Y109341D01*
X141868Y109073*
X141745Y108984*
X141499Y108894*
X141252*
X141006Y108984*
X140883Y109073*
X140760Y109341*
Y110147*
Y109520D02*
X139407Y108894D01*
X141991Y107194D02*
X140268Y108089D01*
Y106747*
X141991Y107194D02*
X139407D01*
X133231Y123622D02*
X130906D01*
Y122548*
X133231Y121743D02*
X130906D01*
X133231D02*
Y120580D01*
X132124Y121743D02*
Y121027D01*
X130906Y121743D02*
Y120580D01*
X133231Y119775D02*
X130906D01*
X133231D02*
Y119148D01*
X133120Y118880*
X132899Y118701*
X132677Y118611*
X132345Y118522*
X131791*
X131459Y118611*
X131238Y118701*
X131016Y118880*
X130906Y119148*
Y119775*
X132788Y117717D02*
X132899Y117538D01*
X133231Y117269*
X130906*
X162955Y123425D02*
X160630D01*
Y122351*
X162955Y121546D02*
X160630D01*
X162955D02*
Y120383D01*
X161848Y121546D02*
Y120830D01*
X160630Y121546D02*
Y120383D01*
X162955Y119578D02*
X160630D01*
X162955D02*
Y118951D01*
X162844Y118683*
X162623Y118504*
X162402Y118414*
X162069Y118325*
X161516*
X161184Y118414*
X160962Y118504*
X160741Y118683*
X160630Y118951*
Y119578*
X162402Y117430D02*
X162512D01*
X162734Y117341*
X162844Y117251*
X162955Y117072*
Y116714*
X162844Y116535*
X162734Y116446*
X162512Y116356*
X162291*
X162069Y116446*
X161737Y116625*
X160630Y117520*
Y116267*
X172601Y123425D02*
X170276D01*
Y122351*
X172601Y121546D02*
X170276D01*
X172601D02*
Y120383D01*
X171494Y121546D02*
Y120830D01*
X170276Y121546D02*
Y120383D01*
X172601Y119578D02*
X170276D01*
X172601D02*
Y118951D01*
X172490Y118683*
X172269Y118504*
X172047Y118414*
X171715Y118325*
X171161*
X170829Y118414*
X170608Y118504*
X170386Y118683*
X170276Y118951*
Y119578*
X172601Y117341D02*
Y116356D01*
X171715Y116893*
Y116625*
X171604Y116446*
X171494Y116356*
X171161Y116267*
X170940*
X170608Y116356*
X170386Y116535*
X170276Y116804*
Y117072*
X170386Y117341*
X170497Y117430*
X170719Y117520*
X153113Y123622D02*
X150787D01*
Y122548*
X153113Y121743D02*
X150787D01*
X153113D02*
Y120580D01*
X152005Y121743D02*
Y121027D01*
X150787Y121743D02*
Y120580D01*
X153113Y119775D02*
X150787D01*
X153113D02*
Y119148D01*
X153002Y118880*
X152781Y118701*
X152559Y118611*
X152227Y118522*
X151673*
X151341Y118611*
X151120Y118701*
X150898Y118880*
X150787Y119148*
Y119775*
X153113Y116553D02*
Y117448D01*
X152116Y117538*
X152227Y117448*
X152338Y117180*
Y116911*
X152227Y116643*
X152005Y116464*
X151673Y116374*
X151452Y116464*
X151120Y116553*
X150898Y116732*
X150787Y117001*
Y117269*
X150898Y117538*
X151009Y117627*
X151230Y117717*
X143270Y123425D02*
X140945D01*
Y122351*
X143270Y121546D02*
X140945D01*
X143270D02*
Y120383D01*
X142163Y121546D02*
Y120830D01*
X140945Y121546D02*
Y120383D01*
X143270Y119578D02*
X140945D01*
X143270D02*
Y118951D01*
X143159Y118683*
X142938Y118504*
X142717Y118414*
X142384Y118325*
X141831*
X141499Y118414*
X141277Y118504*
X141056Y118683*
X140945Y118951*
Y119578*
X143270Y116625D02*
X141720Y117520D01*
Y116178*
X143270Y116625D02*
X140945D01*
X147137Y203284D02*
X147048Y203530D01*
X146869Y203776*
X146690Y203899*
X146332*
X146153Y203776*
X145974Y203530*
X145885Y203284*
X145795Y202915*
Y202300*
X145885Y201931*
X145974Y201685*
X146153Y201439*
X146332Y201316*
X146690*
X146869Y201439*
X147048Y201685*
X147137Y201931*
X147943Y203407D02*
X148122Y203530D01*
X148390Y203899*
Y201316*
X146520Y195766D02*
X146430Y196013D01*
X146251Y196259*
X146072Y196382*
X145714*
X145535Y196259*
X145356Y196013*
X145267Y195766*
X145177Y195397*
Y194782*
X145267Y194413*
X145356Y194167*
X145535Y193921*
X145714Y193798*
X146072*
X146251Y193921*
X146430Y194167*
X146520Y194413*
X147414Y195766D02*
Y195889D01*
X147504Y196136*
X147593Y196259*
X147772Y196382*
X148130*
X148309Y196259*
X148399Y196136*
X148488Y195889*
Y195643*
X148399Y195397*
X148220Y195028*
X147325Y193798*
X148578*
X146411Y187733D02*
X146321Y187979D01*
X146143Y188225*
X145964Y188348*
X145606*
X145427Y188225*
X145248Y187979*
X145158Y187733*
X145069Y187364*
Y186749*
X145158Y186379*
X145248Y186133*
X145427Y185887*
X145606Y185764*
X145964*
X146143Y185887*
X146321Y186133*
X146411Y186379*
X148290Y187979D02*
X148201Y188225D01*
X147932Y188348*
X147753*
X147485Y188225*
X147306Y187856*
X147216Y187241*
Y186626*
X147306Y186133*
X147485Y185887*
X147753Y185764*
X147843*
X148111Y185887*
X148290Y186133*
X148379Y186502*
Y186626*
X148290Y186995*
X148111Y187241*
X147843Y187364*
X147753*
X147485Y187241*
X147306Y186995*
X147216Y186626*
X209503Y132699D02*
Y130116D01*
Y132699D02*
X210308D01*
X210576Y132576*
X210666Y132453*
X210755Y132207*
Y131961*
X210666Y131715*
X210576Y131592*
X210308Y131469*
X209503*
X210129D02*
X210755Y130116D01*
X211560Y132207D02*
X211739Y132330D01*
X212008Y132699*
Y130116*
X213976Y132699D02*
X213082D01*
X212992Y131592*
X213082Y131715*
X213350Y131838*
X213618*
X213887Y131715*
X214066Y131469*
X214155Y131100*
X214066Y130854*
X213976Y130485*
X213797Y130239*
X213529Y130116*
X213261*
X212992Y130239*
X212903Y130362*
X212813Y130608*
X209828Y136400D02*
Y133816D01*
Y136400D02*
X210634D01*
X210634D02*
X210902Y136277D01*
X210991Y136154*
X211081Y135908*
Y135662*
X210991Y135416*
X210902Y135293*
X210634Y135170*
X210634D02*
X209828D01*
X210455D02*
X211081Y133816D01*
X211886Y135908D02*
X212065Y136031D01*
X212334Y136400*
Y133816*
X214213Y136031D02*
X214123Y136277D01*
X213855Y136400*
X213676*
X213407Y136277*
X213228Y135908*
X213139Y135293*
Y134678*
X213228Y134186*
X213407Y133939*
X213676Y133816*
X213765*
X214034Y133939*
X214213Y134186*
X214302Y134555*
Y134678*
X214213Y135047*
X214034Y135293*
X213765Y135416*
X213676*
X213407Y135293*
X213228Y135047*
X213139Y134678*
X144924Y207839D02*
Y205256D01*
Y207839D02*
X145729D01*
X145997Y207716*
X146087Y207593*
X146176Y207347*
Y207101*
X146087Y206855*
X145997Y206732*
X145729Y206609*
X144924*
X145550D02*
X146176Y205256D01*
X147429Y207839D02*
X147160Y207716D01*
X147071Y207470*
Y207224*
X147160Y206978*
X147339Y206855*
X147697Y206732*
X147966Y206609*
X148145Y206363*
X148234Y206117*
Y205748*
X148145Y205502*
X148055Y205379*
X147787Y205256*
X147429*
X147160Y205379*
X147071Y205502*
X146982Y205748*
Y206117*
X147071Y206363*
X147250Y206609*
X147518Y206732*
X147876Y206855*
X148055Y206978*
X148145Y207224*
Y207470*
X148055Y207716*
X147787Y207839*
X147429*
X144644Y200144D02*
Y197561D01*
Y200144D02*
X145449D01*
X145718Y200021*
X145807Y199898*
X145897Y199652*
Y199406*
X145807Y199160*
X145718Y199037*
X145449Y198914*
X144644*
X145270D02*
X145897Y197561D01*
X147865Y199283D02*
X147776Y198914D01*
X147597Y198668*
X147328Y198545*
X147239*
X146970Y198668*
X146791Y198914*
X146791D02*
X146702Y199283D01*
Y199406*
X146791Y199775*
X146791D02*
X146970Y200021D01*
X147239Y200144*
X147328*
X147597Y200021*
X147776Y199775*
X147865Y199283*
Y198668*
X147776Y198053*
X147597Y197684*
X147328Y197561*
X147149*
X146881Y197684*
X146791Y197930*
X229004Y140645D02*
Y138061D01*
Y140645D02*
X229809D01*
X230077Y140522*
X230167Y140399*
X230256Y140153*
Y139906*
X230167Y139660*
X230077Y139537*
X229809Y139414*
X229004*
X229630D02*
X230256Y138061D01*
X231062Y140153D02*
X231240Y140276D01*
X231509Y140645*
Y138061*
X233209Y140645D02*
X232314Y138922D01*
X233656*
X233209Y140645D02*
Y138061D01*
X228856Y148547D02*
Y145963D01*
Y148547D02*
X229662D01*
X229930Y148424*
X230019Y148301*
X230109Y148055*
Y147809*
X230019Y147563*
X229930Y147439*
X229930D02*
X229662Y147316D01*
X228856*
X229483D02*
X230109Y145963D01*
X230914Y148055D02*
X231093Y148178D01*
X231362Y148547*
Y145963*
X232346Y148547D02*
X233330D01*
X232793Y147563*
X233062*
X233241Y147439*
X233241D02*
X233330Y147316D01*
X233420Y146947*
Y146701*
X233330Y146332*
X233151Y146086*
X232883Y145963*
X232614*
X232346Y146086*
X232256Y146209*
X232167Y146455*
X228990Y144096D02*
Y141512D01*
Y144096D02*
X229795D01*
X230064Y143973*
X230153Y143850*
X230242Y143604*
Y143358*
X230153Y143112*
X230064Y142989*
X229795Y142866*
X228990*
X229616D02*
X230242Y141512D01*
X231048Y143604D02*
X231227Y143727D01*
X231495Y144096*
Y141512*
X233553Y144096D02*
X232658Y141512D01*
X232300Y144096D02*
X233553D01*
X228954Y152016D02*
Y149432D01*
Y152016D02*
X229759D01*
X230027Y151893*
X230027D02*
X230117Y151770D01*
X230206Y151524*
Y151278*
X230117Y151031*
X230027Y150908*
X230027D02*
X229759Y150785D01*
X228954*
X229580D02*
X230206Y149432D01*
X231012Y151524D02*
X231191Y151647D01*
X231459Y152016*
Y149432*
X232712Y152016D02*
X232443Y151893D01*
X232354Y151647*
Y151401*
X232443Y151154*
X232622Y151031*
X232980Y150908*
X233249Y150785*
X233428Y150539*
X233517Y150293*
Y149924*
X233428Y149678*
X233338Y149555*
X233070Y149432*
X232712*
X232443Y149555*
X232354Y149678*
X232264Y149924*
Y150293*
X232354Y150539*
X232533Y150785*
X232801Y150908*
X233159Y151031*
X233338Y151154*
X233428Y151401*
Y151647*
X233338Y151893*
X233070Y152016*
X232712*
X143626Y192382D02*
Y189799D01*
Y192382D02*
X144432D01*
X144700Y192259*
X144790Y192136*
X144879Y191890*
Y191644*
X144790Y191398*
X144700Y191275*
X144432Y191152*
X143626*
X144253D02*
X144879Y189799D01*
X145684Y191890D02*
X145863Y192013D01*
X146132Y192382*
Y189799*
X147474Y192382D02*
X147206Y192259D01*
X147027Y191890*
X146937Y191275*
Y190906*
X147027Y190291*
X147206Y189922*
X147474Y189799*
X147653*
X147921Y189922*
X148100Y190291*
X148190Y190906*
Y191275*
X148100Y191890*
X147921Y192259*
X147653Y192382*
X147474*
X147109Y166713D02*
X144525D01*
X147109D02*
Y165907D01*
X146986Y165639*
X146863Y165549*
X146617Y165460*
X146371*
X146125Y165549*
X146001Y165639*
X145878Y165907*
Y166713*
Y166086D02*
X144525Y165460D01*
X146617Y164655D02*
X146740Y164476D01*
X147109Y164207*
X144525*
X146494Y163312D02*
X146617D01*
X146863Y163223*
X146986Y163134*
X146986D02*
X147109Y162955D01*
Y162597*
X146986Y162418*
X146863Y162328*
X146617Y162239*
X146371*
X146125Y162328*
X145755Y162507*
X144525Y163402*
Y162149*
X147502Y155601D02*
X144919D01*
X147502D02*
Y154796D01*
X147379Y154528*
X147256Y154438*
X147010Y154349*
X146764*
X146518Y154438*
X146395Y154528*
X146272Y154796*
Y155601*
Y154975D02*
X144919Y154349D01*
X147010Y153543D02*
X147133Y153364D01*
X147502Y153096*
X144919*
X147010Y152291D02*
X147133Y152112D01*
X147502Y151843*
X144919*
X190669Y164828D02*
X191922Y162244D01*
Y164828D02*
X190669Y162244D01*
X192817Y164213D02*
Y164336D01*
X192906Y164582*
X192996Y164705*
X193175Y164828*
X193533*
X193712Y164705*
X193801Y164582*
X193890Y164336*
Y164090*
X193801Y163844*
X193622Y163474*
X192727Y162244*
X193980*
X210025Y232896D02*
Y230312D01*
Y232896D02*
X210830D01*
X211099Y232773*
X211188Y232650*
X211278Y232404*
Y232158*
X211188Y231912*
X211099Y231789*
X210830Y231666*
X210025*
X210651D02*
X211278Y230312D01*
X212083Y232404D02*
X212262Y232527D01*
X212530Y232896*
Y230312*
X214499Y232035D02*
X214409Y231666D01*
X214230Y231420*
X213962Y231297*
X213873*
X213604Y231420*
X213425Y231666*
X213336Y232035*
Y232158*
X213425Y232527*
X213604Y232773*
X213873Y232896*
X213962*
X214230Y232773*
X214409Y232527*
X214499Y232035*
Y231420*
X214409Y230805*
X214230Y230436*
X213962Y230312*
X213962D02*
X213783D01*
X213783D02*
X213515Y230436D01*
X213425Y230682*
X209578Y227621D02*
Y225037D01*
Y227621D02*
X210383D01*
X210651Y227498*
X210741Y227375*
X210830Y227128*
Y226882*
X210741Y226636*
X210651Y226513*
X210383Y226390*
X209578*
X210204D02*
X210830Y225037D01*
X211725Y227005D02*
Y227128D01*
X211815Y227375*
X211904Y227498*
X212083Y227621*
X212441*
X212620Y227498*
X212709Y227375*
X212799Y227128*
Y226882*
X212709Y226636*
X212530Y226267*
X211636Y225037*
X212888*
X214230Y227621D02*
X213962Y227498D01*
X213783Y227128*
X213694Y226513*
Y226144*
X213783Y225529*
X213962Y225160*
X214230Y225037*
X214409*
X214678Y225160*
X214857Y225529*
X214946Y226144*
Y226513*
X214857Y227128*
X214678Y227498*
X214409Y227621*
X214230*
X179589Y117303D02*
X177005D01*
X179589D02*
Y116498D01*
X179466Y116229*
X179343Y116140*
X179097Y116050*
X178851*
X178605Y116140*
X178482Y116229*
X178359Y116498*
Y117303*
Y116677D02*
X177005Y116050D01*
X178974Y115156D02*
X179097D01*
X179343Y115066*
X179466Y114977*
X179589Y114798*
Y114440*
X179466Y114261*
X179343Y114171*
X179097Y114082*
X178851*
X178605Y114171*
X178236Y114350*
X177005Y115245*
Y113992*
X179097Y113187D02*
X179220Y113008D01*
X179589Y112740*
X177005*
X213672Y155022D02*
Y152438D01*
Y155022D02*
X214477D01*
X214746Y154899*
X214835Y154776*
X214925Y154530*
Y154284*
X214835Y154038*
X214746Y153915*
X214477Y153792*
X213672*
X214298D02*
X214925Y152438D01*
X215820Y154407D02*
Y154530D01*
X215909Y154776*
X215999Y154899*
X216178Y155022*
X216535*
X216714Y154899*
X216804Y154776*
X216893Y154530*
Y154284*
X216804Y154038*
X216625Y153669*
X215730Y152438*
X216983*
X217878Y154407D02*
Y154530D01*
X217967Y154776*
X218057Y154899*
X218236Y155022*
X218593*
X218772Y154899*
X218862Y154776*
X218951Y154530*
Y154284*
X218862Y154038*
X218683Y153669*
X217788Y152438*
X219041*
X213751Y158684D02*
Y156100D01*
Y158684D02*
X214556D01*
X214825Y158561*
X214914Y158438*
X214914D02*
X215004Y158191D01*
Y157945*
X214914Y157699*
X214825Y157576*
X214556Y157453*
X213751*
X214377D02*
X215004Y156100D01*
X215898Y158068D02*
Y158191D01*
X215988Y158438*
X215988D02*
X216077Y158561D01*
X216256Y158684*
X216614*
X216793Y158561*
X216883Y158438*
X216883D02*
X216972Y158191D01*
Y157945*
X216883Y157699*
X216704Y157330*
X215809Y156100*
X217062*
X218046Y158684D02*
X219030D01*
X218493Y157699*
X218762*
X218941Y157576*
X219030Y157453*
X219120Y157084*
Y156838*
X219030Y156469*
X218851Y156223*
X218583Y156100*
X218314*
X218046Y156223*
X217956Y156346*
X217867Y156592*
X125608Y128593D02*
Y126378D01*
X124803Y127485D02*
X126414D01*
X128382Y128962D02*
X127487D01*
X127398Y127854*
X127487Y127977*
X127756Y128100*
X128024*
X128293Y127977*
X128472Y127731*
X128561Y127362*
X128472Y127116*
X128382Y126747*
X128203Y126501*
X127935Y126378*
X127666*
X127398Y126501*
X127309Y126624*
X127219Y126870*
X129366Y128962D02*
X130082Y126378D01*
X130798Y128962D02*
X130082Y126378D01*
X134646Y128962D02*
Y126378D01*
Y128962D02*
X135451D01*
X135719Y128839*
X135809Y128716*
X135898Y128469*
Y128100*
X135809Y127854*
X135719Y127731*
X135451Y127608*
X134646*
X136704Y128962D02*
X137151Y126378D01*
X137598Y128962D02*
X137151Y126378D01*
X137598Y128962D02*
X138046Y126378D01*
X138493Y128962D02*
X138046Y126378D01*
X139298Y128962D02*
Y126378D01*
Y128962D02*
X140104D01*
X140372Y128839*
X140462Y128716*
X140551Y128469*
Y128223*
X140462Y127977*
X140372Y127854*
X140104Y127731*
X139298*
X139925D02*
X140551Y126378D01*
X165748Y128962D02*
Y126378D01*
Y128962D02*
X166553D01*
X166822Y128839*
X166911Y128716*
X167001Y128469*
Y128223*
X166911Y127977*
X166822Y127854*
X166553Y127731*
X165748*
X166374D02*
X167001Y126378D01*
X167806Y128962D02*
X169059Y126378D01*
Y128962D02*
X167806Y126378D01*
X156335Y128765D02*
Y126181D01*
X155709Y128765D02*
X156961D01*
X157767D02*
X159019Y126181D01*
Y128765D02*
X157767Y126181D01*
X143307Y128765D02*
Y126181D01*
Y128765D02*
X144112D01*
X144381Y128642*
X144470Y128519*
X144560Y128273*
Y127904*
X144470Y127657*
X144381Y127534*
X144112Y127411*
X143307*
X145365Y128765D02*
Y126181D01*
X147244Y127904D02*
Y126181D01*
Y127534D02*
X147065Y127781D01*
X146886Y127904*
X146618*
X146439Y127781*
X146260Y127534*
X146170Y127165*
Y126919*
X146260Y126550*
X146439Y126304*
X146618Y126181*
X146886*
X147065Y126304*
X147244Y126550*
X149034Y127534D02*
X148944Y127781D01*
X148676Y127904*
X148407*
X148139Y127781*
X148049Y127534*
X148139Y127288*
X148318Y127165*
X148765Y127042*
X148944Y126919*
X149034Y126673*
Y126550*
X148944Y126304*
X148676Y126181*
X148407*
X148139Y126304*
X148049Y126550*
X149839Y127904D02*
Y126181D01*
Y127411D02*
X150107Y127781D01*
X150286Y127904*
X150555*
X150734Y127781*
X150823Y127411*
Y126181*
Y127411D02*
X151092Y127781D01*
X151271Y127904*
X151539*
X151718Y127781*
X151807Y127411*
Y126181*
X153686Y127904D02*
Y126181D01*
Y127534D02*
X153508Y127781D01*
X153329Y127904*
X153060*
X152881Y127781*
X152702Y127534*
X152613Y127165*
Y126919*
X152702Y126550*
X152881Y126304*
X153060Y126181*
X153329*
X153508Y126304*
X153686Y126550*
X100000Y100000D02*
X253543D01*
Y257480*
X100000*
Y100000*
G54D52*
X173524Y168504D02*
G03X173524I-493J0D01*
G54D53*
G01X166097Y171924D02*
Y169710D01*
X166204Y169267*
X166419Y168971*
X166741Y168824*
X166956*
X167278Y168971*
X167493Y169267*
X167600Y169710*
Y171924*
X168567Y171334D02*
X168781Y171481D01*
X169103Y171924*
Y168824*
G54D54*
X214640Y245486D02*
Y242986D01*
X214527Y242517*
X214413Y242361*
X214186Y242205*
X213958*
X213731Y242361*
X213618Y242517*
X213504Y242986*
Y243298*
X215663Y244861D02*
X215890Y245017D01*
X216231Y245486*
Y242205*
X140034Y239069D02*
Y236569D01*
X139920Y236100*
X139807Y235944*
X139579Y235787*
X139352*
X139125Y235944*
X139011Y236100*
X138898Y236569*
Y236881*
X141170Y238287D02*
Y238444D01*
X141284Y238756*
X141398Y238912*
X141625Y239069*
X142079*
X142307Y238912*
X142420Y238756*
X142534Y238444*
Y238131*
X142420Y237819*
X142193Y237350*
X141057Y235787*
X142648*
X225998Y231890D02*
X222717D01*
X225998D02*
Y231094D01*
X225842Y230753*
X225529Y230526*
X225217Y230412*
X224748Y230299*
X223967*
X223498Y230412*
X223185Y230526*
X222873Y230753*
X222717Y231094*
Y231890*
X225373Y229276D02*
X225529Y229049D01*
X225998Y228708*
X222717*
X225643Y246890D02*
X222362D01*
X225643D02*
Y246094D01*
X225487Y245753*
X225175Y245526*
X224862Y245412*
X224393Y245299*
X223612*
X223143Y245412*
X222831Y245526*
X222518Y245753*
X222362Y246094*
Y246890*
X225643Y244049D02*
Y242799D01*
X224393Y243481*
Y243140*
X224237Y242912*
X224081Y242799*
X223612Y242685*
X223300*
X222831Y242799*
X222518Y243026*
X222362Y243367*
Y243708*
X222518Y244049*
X222675Y244162*
X222987Y244276*
X121943Y247835D02*
X118661D01*
X121943D02*
Y247039D01*
X121786Y246698*
X121474Y246471*
X121161Y246357*
X120693Y246244*
X119911*
X119443Y246357*
X119130Y246471*
X118818Y246698*
X118661Y247039*
Y247835*
X121943Y244085D02*
X119755Y245221D01*
Y243516*
X121943Y244085D02*
X118661D01*
X235092Y129370D02*
X231811D01*
X235092D02*
Y128575D01*
X234936Y128234*
X234624Y128006*
X234311Y127893*
X233842Y127779*
X233061*
X232592Y127893*
X232280Y128006*
X231967Y128234*
X231811Y128575*
Y129370*
X235092Y125279D02*
Y126416D01*
X233686Y126529*
X233842Y126416*
X233999Y126075*
Y125734*
X233842Y125393*
X233530Y125166*
X233061Y125052*
X232749Y125166*
X232280Y125279*
X231967Y125506*
X231811Y125847*
Y126188*
X231967Y126529*
X232124Y126643*
X232436Y126756*
X185748Y122533D02*
Y120189D01*
X185862Y119721*
X186089Y119408*
X186430Y119252*
X186657*
X186998Y119408*
X187225Y119721*
X187339Y120189*
Y122533*
X189725Y122064D02*
X189612Y122377D01*
X189271Y122533*
X189043*
X188703Y122377*
X188475Y121908*
X188362Y121127*
Y120346*
X188475Y119721*
X188703Y119408*
X189043Y119252*
X189157*
X189498Y119408*
X189725Y119721*
X189839Y120189*
Y120346*
X189725Y120814*
X189498Y121127*
X189157Y121283*
X189043*
X188703Y121127*
X188475Y120814*
X188362Y120346*
X126693Y175289D02*
Y172008D01*
Y175289D02*
X127488D01*
X127829Y175133*
X128057Y174820*
X128170Y174508*
X128284Y174039*
Y173258*
X128170Y172789*
X128057Y172477*
X127829Y172164*
X127488Y172008*
X126693*
X129420Y174508D02*
Y174664D01*
X129534Y174977*
X129647Y175133*
X129875Y175289*
X130329*
X130557Y175133*
X130670Y174977*
X130784Y174664*
Y174352*
X130670Y174039*
X130443Y173570*
X129307Y172008*
X130897*
G74*
X0Y0D02*
M02*
