  0
SECTION
  2
HEADER
  9
$ACADVER
  1
AC1009
  9
$LIMMIN
 10
2.204166666666667
 20
1.979433333333334
  9
$LIMMAX
 10
10.53661666666667
 20
6.650000000000001
  9
$GRIDMODE
 70
220
  9
$GRIDUNIT
 10
0.1
 20
0.1
  9
$SNAPMODE
 70
1
  9
$SNAPSTYLE
 70
0
  9
$SNAPUNIT
 10
0.006250000000000001
 20
0.006250000000000001
  9
$FILLMODE
 70
1
  9
$CECOLOR
 62
256
  0
ENDSEC
  0
SECTION
  2
ENTITIES
  0
POLYLINE
  8
GND
 66
      1
 70
1
 40
0.1420
 41
0.1420
  0
VERTEX
  8
GND
 10
0.3000
 20
4.4960
 30
 0.0
 42
1.0
  0
VERTEX
  8
GND
 10
0.4420
 20
4.4960
 30
 0.0
 42
1.0
  0
SEQEND
  8
GND
  0
POLYLINE
  8
GND
 66
      1
 70
1
 40
0.1420
 41
0.1420
  0
VERTEX
  8
GND
 10
0.2870
 20
0.3460
 30
 0.0
 42
1.0
  0
VERTEX
  8
GND
 10
0.4290
 20
0.3460
 30
 0.0
 42
1.0
  0
SEQEND
  8
GND
  0
POLYLINE
  8
GND
 66
      1
 70
1
 40
0.1420
 41
0.1420
  0
VERTEX
  8
GND
 10
7.2000
 20
4.4960
 30
 0.0
 42
1.0
  0
VERTEX
  8
GND
 10
7.3420
 20
4.4960
 30
 0.0
 42
1.0
  0
SEQEND
  8
GND
  0
POLYLINE
  8
GND
 66
      1
 70
1
 40
0.1420
 41
0.1420
  0
VERTEX
  8
GND
 10
7.1750
 20
0.3460
 30
 0.0
 42
1.0
  0
VERTEX
  8
GND
 10
7.3170
 20
0.3460
 30
 0.0
 42
1.0
  0
SEQEND
  8
GND
  0
POLYLINE
  8
GND
 66
      1
 70
1
 40
0.0360
 41
0.0360
  0
VERTEX
  8
GND
 10
0.9530
 20
1.3210
 30
 0.0
 42
1.0
  0
VERTEX
  8
GND
 10
0.9890
 20
1.3210
 30
 0.0
 42
1.0
  0
SEQEND
  8
GND
  0
POLYLINE
  8
GND
 66
      1
 70
1
 40
0.0360
 41
0.0360
  0
VERTEX
  8
GND
 10
0.9530
 20
1.2210
 30
 0.0
 42
1.0
  0
VERTEX
  8
GND
 10
0.9890
 20
1.2210
 30
 0.0
 42
1.0
  0
SEQEND
  8
GND
  0
POLYLINE
  8
GND
 66
      1
 70
1
 40
0.0360
 41
0.0360
  0
VERTEX
  8
GND
 10
1.1780
 20
1.3210
 30
 0.0
 42
1.0
  0
VERTEX
  8
GND
 10
1.2140
 20
1.3210
 30
 0.0
 42
1.0
  0
SEQEND
  8
GND
  0
POLYLINE
  8
GND
 66
      1
 70
1
 40
0.0360
 41
0.0360
  0
VERTEX
  8
GND
 10
1.1780
 20
1.2210
 30
 0.0
 42
1.0
  0
VERTEX
  8
GND
 10
1.2140
 20
1.2210
 30
 0.0
 42
1.0
  0
SEQEND
  8
GND
  0
POLYLINE
  8
GND
 66
      1
 70
1
 40
0.0360
 41
0.0360
  0
VERTEX
  8
GND
 10
1.3530
 20
1.2710
 30
 0.0
 42
1.0
  0
VERTEX
  8
GND
 10
1.3890
 20
1.2710
 30
 0.0
 42
1.0
  0
SEQEND
  8
GND
  0
POLYLINE
  8
GND
 66
      1
 70
1
 40
0.0360
 41
0.0360
  0
VERTEX
  8
GND
 10
1.4530
 20
1.2710
 30
 0.0
 42
1.0
  0
VERTEX
  8
GND
 10
1.4890
 20
1.2710
 30
 0.0
 42
1.0
  0
SEQEND
  8
GND
  0
POLYLINE
  8
GND
 66
      1
 70
1
 40
0.0360
 41
0.0360
  0
VERTEX
  8
GND
 10
1.6280
 20
1.2210
 30
 0.0
 42
1.0
  0
VERTEX
  8
GND
 10
1.6640
 20
1.2210
 30
 0.0
 42
1.0
  0
SEQEND
  8
GND
  0
POLYLINE
  8
GND
 66
      1
 70
1
 40
0.0360
 41
0.0360
  0
VERTEX
  8
GND
 10
1.6280
 20
1.3210
 30
 0.0
 42
1.0
  0
VERTEX
  8
GND
 10
1.6640
 20
1.3210
 30
 0.0
 42
1.0
  0
SEQEND
  8
GND
  0
POLYLINE
  8
GND
 66
      1
 70
1
 40
0.0360
 41
0.0360
  0
VERTEX
  8
GND
 10
1.8030
 20
1.2710
 30
 0.0
 42
1.0
  0
VERTEX
  8
GND
 10
1.8390
 20
1.2710
 30
 0.0
 42
1.0
  0
SEQEND
  8
GND
  0
POLYLINE
  8
GND
 66
      1
 70
1
 40
0.0360
 41
0.0360
  0
VERTEX
  8
GND
 10
1.9030
 20
1.2710
 30
 0.0
 42
1.0
  0
VERTEX
  8
GND
 10
1.9390
 20
1.2710
 30
 0.0
 42
1.0
  0
SEQEND
  8
GND
  0
POLYLINE
  8
GND
 66
      1
 70
1
 40
0.0370
 41
0.0370
  0
VERTEX
  8
GND
 10
3.6780
 20
0.8210
 30
 0.0
 42
1.0
  0
VERTEX
  8
GND
 10
3.7140
 20
0.8210
 30
 0.0
 42
1.0
  0
SEQEND
  8
GND
  0
POLYLINE
  8
GND
 66
      1
 70
1
 40
0.0370
 41
0.0370
  0
VERTEX
  8
GND
 10
3.4780
 20
0.8210
 30
 0.0
 42
1.0
  0
VERTEX
  8
GND
 10
3.5140
 20
0.8210
 30
 0.0
 42
1.0
  0
SEQEND
  8
GND
  0
POLYLINE
  8
GND
 66
      1
 70
1
 40
0.0370
 41
0.0370
  0
VERTEX
  8
GND
 10
3.6780
 20
0.7210
 30
 0.0
 42
1.0
  0
VERTEX
  8
GND
 10
3.7140
 20
0.7210
 30
 0.0
 42
1.0
  0
SEQEND
  8
GND
  0
POLYLINE
  8
GND
 66
      1
 70
1
 40
0.0370
 41
0.0370
  0
VERTEX
  8
GND
 10
3.4780
 20
0.7210
 30
 0.0
 42
1.0
  0
VERTEX
  8
GND
 10
3.5140
 20
0.7210
 30
 0.0
 42
1.0
  0
SEQEND
  8
GND
  0
POLYLINE
  8
GND
 66
      1
 70
1
 40
0.0370
 41
0.0370
  0
VERTEX
  8
GND
 10
3.6780
 20
0.6210
 30
 0.0
 42
1.0
  0
VERTEX
  8
GND
 10
3.7140
 20
0.6210
 30
 0.0
 42
1.0
  0
SEQEND
  8
GND
  0
POLYLINE
  8
GND
 66
      1
 70
1
 40
0.0370
 41
0.0370
  0
VERTEX
  8
GND
 10
3.4780
 20
0.6210
 30
 0.0
 42
1.0
  0
VERTEX
  8
GND
 10
3.5140
 20
0.6210
 30
 0.0
 42
1.0
  0
SEQEND
  8
GND
  0
POLYLINE
  8
GND
 66
      1
 70
1
 40
0.0370
 41
0.0370
  0
VERTEX
  8
GND
 10
3.6780
 20
0.5210
 30
 0.0
 42
1.0
  0
VERTEX
  8
GND
 10
3.7140
 20
0.5210
 30
 0.0
 42
1.0
  0
SEQEND
  8
GND
  0
POLYLINE
  8
GND
 66
      1
 70
1
 40
0.0370
 41
0.0370
  0
VERTEX
  8
GND
 10
3.4780
 20
0.5210
 30
 0.0
 42
1.0
  0
VERTEX
  8
GND
 10
3.5140
 20
0.5210
 30
 0.0
 42
1.0
  0
SEQEND
  8
GND
  0
POLYLINE
  8
GND
 66
      1
 70
1
 40
0.0370
 41
0.0370
  0
VERTEX
  8
GND
 10
4.5280
 20
0.8210
 30
 0.0
 42
1.0
  0
VERTEX
  8
GND
 10
4.5640
 20
0.8210
 30
 0.0
 42
1.0
  0
SEQEND
  8
GND
  0
POLYLINE
  8
GND
 66
      1
 70
1
 40
0.0370
 41
0.0370
  0
VERTEX
  8
GND
 10
4.3280
 20
0.8210
 30
 0.0
 42
1.0
  0
VERTEX
  8
GND
 10
4.3640
 20
0.8210
 30
 0.0
 42
1.0
  0
SEQEND
  8
GND
  0
POLYLINE
  8
GND
 66
      1
 70
1
 40
0.0370
 41
0.0370
  0
VERTEX
  8
GND
 10
4.5280
 20
0.7210
 30
 0.0
 42
1.0
  0
VERTEX
  8
GND
 10
4.5640
 20
0.7210
 30
 0.0
 42
1.0
  0
SEQEND
  8
GND
  0
POLYLINE
  8
GND
 66
      1
 70
1
 40
0.0370
 41
0.0370
  0
VERTEX
  8
GND
 10
4.3280
 20
0.7210
 30
 0.0
 42
1.0
  0
VERTEX
  8
GND
 10
4.3640
 20
0.7210
 30
 0.0
 42
1.0
  0
SEQEND
  8
GND
  0
POLYLINE
  8
GND
 66
      1
 70
1
 40
0.0370
 41
0.0370
  0
VERTEX
  8
GND
 10
4.5280
 20
0.6210
 30
 0.0
 42
1.0
  0
VERTEX
  8
GND
 10
4.5640
 20
0.6210
 30
 0.0
 42
1.0
  0
SEQEND
  8
GND
  0
POLYLINE
  8
GND
 66
      1
 70
1
 40
0.0370
 41
0.0370
  0
VERTEX
  8
GND
 10
4.3280
 20
0.6210
 30
 0.0
 42
1.0
  0
VERTEX
  8
GND
 10
4.3640
 20
0.6210
 30
 0.0
 42
1.0
  0
SEQEND
  8
GND
  0
POLYLINE
  8
GND
 66
      1
 70
1
 40
0.0370
 41
0.0370
  0
VERTEX
  8
GND
 10
4.5280
 20
0.5210
 30
 0.0
 42
1.0
  0
VERTEX
  8
GND
 10
4.5640
 20
0.5210
 30
 0.0
 42
1.0
  0
SEQEND
  8
GND
  0
POLYLINE
  8
GND
 66
      1
 70
1
 40
0.0370
 41
0.0370
  0
VERTEX
  8
GND
 10
4.3280
 20
0.5210
 30
 0.0
 42
1.0
  0
VERTEX
  8
GND
 10
4.3640
 20
0.5210
 30
 0.0
 42
1.0
  0
SEQEND
  8
GND
  0
POLYLINE
  8
GND
 66
      1
 70
1
 40
0.0370
 41
0.0370
  0
VERTEX
  8
GND
 10
5.3780
 20
0.8210
 30
 0.0
 42
1.0
  0
VERTEX
  8
GND
 10
5.4140
 20
0.8210
 30
 0.0
 42
1.0
  0
SEQEND
  8
GND
  0
POLYLINE
  8
GND
 66
      1
 70
1
 40
0.0370
 41
0.0370
  0
VERTEX
  8
GND
 10
5.1780
 20
0.8210
 30
 0.0
 42
1.0
  0
VERTEX
  8
GND
 10
5.2140
 20
0.8210
 30
 0.0
 42
1.0
  0
SEQEND
  8
GND
  0
POLYLINE
  8
GND
 66
      1
 70
1
 40
0.0370
 41
0.0370
  0
VERTEX
  8
GND
 10
5.3780
 20
0.7210
 30
 0.0
 42
1.0
  0
VERTEX
  8
GND
 10
5.4140
 20
0.7210
 30
 0.0
 42
1.0
  0
SEQEND
  8
GND
  0
POLYLINE
  8
GND
 66
      1
 70
1
 40
0.0370
 41
0.0370
  0
VERTEX
  8
GND
 10
5.1780
 20
0.7210
 30
 0.0
 42
1.0
  0
VERTEX
  8
GND
 10
5.2140
 20
0.7210
 30
 0.0
 42
1.0
  0
SEQEND
  8
GND
  0
POLYLINE
  8
GND
 66
      1
 70
1
 40
0.0370
 41
0.0370
  0
VERTEX
  8
GND
 10
5.3780
 20
0.6210
 30
 0.0
 42
1.0
  0
VERTEX
  8
GND
 10
5.4140
 20
0.6210
 30
 0.0
 42
1.0
  0
SEQEND
  8
GND
  0
POLYLINE
  8
GND
 66
      1
 70
1
 40
0.0370
 41
0.0370
  0
VERTEX
  8
GND
 10
5.1780
 20
0.6210
 30
 0.0
 42
1.0
  0
VERTEX
  8
GND
 10
5.2140
 20
0.6210
 30
 0.0
 42
1.0
  0
SEQEND
  8
GND
  0
POLYLINE
  8
GND
 66
      1
 70
1
 40
0.0370
 41
0.0370
  0
VERTEX
  8
GND
 10
5.3780
 20
0.5210
 30
 0.0
 42
1.0
  0
VERTEX
  8
GND
 10
5.4140
 20
0.5210
 30
 0.0
 42
1.0
  0
SEQEND
  8
GND
  0
POLYLINE
  8
GND
 66
      1
 70
1
 40
0.0370
 41
0.0370
  0
VERTEX
  8
GND
 10
5.1780
 20
0.5210
 30
 0.0
 42
1.0
  0
VERTEX
  8
GND
 10
5.2140
 20
0.5210
 30
 0.0
 42
1.0
  0
SEQEND
  8
GND
  0
POLYLINE
  8
GND
 66
      1
 70
1
 40
0.0370
 41
0.0370
  0
VERTEX
  8
GND
 10
6.1780
 20
0.8210
 30
 0.0
 42
1.0
  0
VERTEX
  8
GND
 10
6.2140
 20
0.8210
 30
 0.0
 42
1.0
  0
SEQEND
  8
GND
  0
POLYLINE
  8
GND
 66
      1
 70
1
 40
0.0370
 41
0.0370
  0
VERTEX
  8
GND
 10
5.9780
 20
0.8210
 30
 0.0
 42
1.0
  0
VERTEX
  8
GND
 10
6.0140
 20
0.8210
 30
 0.0
 42
1.0
  0
SEQEND
  8
GND
  0
POLYLINE
  8
GND
 66
      1
 70
1
 40
0.0370
 41
0.0370
  0
VERTEX
  8
GND
 10
6.1780
 20
0.7210
 30
 0.0
 42
1.0
  0
VERTEX
  8
GND
 10
6.2140
 20
0.7210
 30
 0.0
 42
1.0
  0
SEQEND
  8
GND
  0
POLYLINE
  8
GND
 66
      1
 70
1
 40
0.0370
 41
0.0370
  0
VERTEX
  8
GND
 10
5.9780
 20
0.7210
 30
 0.0
 42
1.0
  0
VERTEX
  8
GND
 10
6.0140
 20
0.7210
 30
 0.0
 42
1.0
  0
SEQEND
  8
GND
  0
POLYLINE
  8
GND
 66
      1
 70
1
 40
0.0370
 41
0.0370
  0
VERTEX
  8
GND
 10
6.1780
 20
0.6210
 30
 0.0
 42
1.0
  0
VERTEX
  8
GND
 10
6.2140
 20
0.6210
 30
 0.0
 42
1.0
  0
SEQEND
  8
GND
  0
POLYLINE
  8
GND
 66
      1
 70
1
 40
0.0370
 41
0.0370
  0
VERTEX
  8
GND
 10
5.9780
 20
0.6210
 30
 0.0
 42
1.0
  0
VERTEX
  8
GND
 10
6.0140
 20
0.6210
 30
 0.0
 42
1.0
  0
SEQEND
  8
GND
  0
POLYLINE
  8
GND
 66
      1
 70
1
 40
0.0370
 41
0.0370
  0
VERTEX
  8
GND
 10
6.1780
 20
0.5210
 30
 0.0
 42
1.0
  0
VERTEX
  8
GND
 10
6.2140
 20
0.5210
 30
 0.0
 42
1.0
  0
SEQEND
  8
GND
  0
POLYLINE
  8
GND
 66
      1
 70
1
 40
0.0370
 41
0.0370
  0
VERTEX
  8
GND
 10
5.9780
 20
0.5210
 30
 0.0
 42
1.0
  0
VERTEX
  8
GND
 10
6.0140
 20
0.5210
 30
 0.0
 42
1.0
  0
SEQEND
  8
GND
  0
POLYLINE
  8
GND
 66
      1
 70
1
 40
0.0180
 41
0.0180
  0
VERTEX
  8
GND
 10
0.6370
 20
4.0710
 30
 0.0
 42
1.0
  0
VERTEX
  8
GND
 10
0.6550
 20
4.0710
 30
 0.0
 42
1.0
  0
SEQEND
  8
GND
  0
POLYLINE
  8
GND
 66
      1
 70
1
 40
0.0180
 41
0.0180
  0
VERTEX
  8
GND
 10
0.5370
 20
4.0710
 30
 0.0
 42
1.0
  0
VERTEX
  8
GND
 10
0.5550
 20
4.0710
 30
 0.0
 42
1.0
  0
SEQEND
  8
GND
  0
POLYLINE
  8
GND
 66
      1
 70
1
 40
0.0180
 41
0.0180
  0
VERTEX
  8
GND
 10
0.6370
 20
3.9710
 30
 0.0
 42
1.0
  0
VERTEX
  8
GND
 10
0.6550
 20
3.9710
 30
 0.0
 42
1.0
  0
SEQEND
  8
GND
  0
POLYLINE
  8
GND
 66
      1
 70
1
 40
0.0180
 41
0.0180
  0
VERTEX
  8
GND
 10
0.5370
 20
3.9710
 30
 0.0
 42
1.0
  0
VERTEX
  8
GND
 10
0.5550
 20
3.9710
 30
 0.0
 42
1.0
  0
SEQEND
  8
GND
  0
POLYLINE
  8
GND
 66
      1
 70
1
 40
0.0180
 41
0.0180
  0
VERTEX
  8
GND
 10
0.6370
 20
3.8710
 30
 0.0
 42
1.0
  0
VERTEX
  8
GND
 10
0.6550
 20
3.8710
 30
 0.0
 42
1.0
  0
SEQEND
  8
GND
  0
POLYLINE
  8
GND
 66
      1
 70
1
 40
0.0180
 41
0.0180
  0
VERTEX
  8
GND
 10
0.5370
 20
3.8710
 30
 0.0
 42
1.0
  0
VERTEX
  8
GND
 10
0.5550
 20
3.8710
 30
 0.0
 42
1.0
  0
SEQEND
  8
GND
  0
POLYLINE
  8
GND
 66
      1
 70
1
 40
0.0180
 41
0.0180
  0
VERTEX
  8
GND
 10
0.6370
 20
3.7710
 30
 0.0
 42
1.0
  0
VERTEX
  8
GND
 10
0.6550
 20
3.7710
 30
 0.0
 42
1.0
  0
SEQEND
  8
GND
  0
POLYLINE
  8
GND
 66
      1
 70
1
 40
0.0180
 41
0.0180
  0
VERTEX
  8
GND
 10
0.5370
 20
3.7710
 30
 0.0
 42
1.0
  0
VERTEX
  8
GND
 10
0.5550
 20
3.7710
 30
 0.0
 42
1.0
  0
SEQEND
  8
GND
  0
POLYLINE
  8
GND
 66
      1
 70
1
 40
0.0180
 41
0.0180
  0
VERTEX
  8
GND
 10
0.6370
 20
3.6710
 30
 0.0
 42
1.0
  0
VERTEX
  8
GND
 10
0.6550
 20
3.6710
 30
 0.0
 42
1.0
  0
SEQEND
  8
GND
  0
POLYLINE
  8
GND
 66
      1
 70
1
 40
0.0180
 41
0.0180
  0
VERTEX
  8
GND
 10
0.5370
 20
3.6710
 30
 0.0
 42
1.0
  0
VERTEX
  8
GND
 10
0.5550
 20
3.6710
 30
 0.0
 42
1.0
  0
SEQEND
  8
GND
  0
POLYLINE
  8
GND
 66
      1
 70
1
 40
0.0580
 41
0.0580
  0
VERTEX
  8
GND
 10
0.6170
 20
1.8710
 30
 0.0
 42
1.0
  0
VERTEX
  8
GND
 10
0.6750
 20
1.8710
 30
 0.0
 42
1.0
  0
SEQEND
  8
GND
  0
POLYLINE
  8
GND
 66
      1
 70
1
 40
0.0580
 41
0.0580
  0
VERTEX
  8
GND
 10
0.6170
 20
2.1710
 30
 0.0
 42
1.0
  0
VERTEX
  8
GND
 10
0.6750
 20
2.1710
 30
 0.0
 42
1.0
  0
SEQEND
  8
GND
  0
POLYLINE
  8
GND
 66
      1
 70
1
 40
0.0580
 41
0.0580
  0
VERTEX
  8
GND
 10
0.6170
 20
2.4710
 30
 0.0
 42
1.0
  0
VERTEX
  8
GND
 10
0.6750
 20
2.4710
 30
 0.0
 42
1.0
  0
SEQEND
  8
GND
  0
POLYLINE
  8
GND
 66
      1
 70
1
 40
0.0580
 41
0.0580
  0
VERTEX
  8
GND
 10
0.6170
 20
2.7710
 30
 0.0
 42
1.0
  0
VERTEX
  8
GND
 10
0.6750
 20
2.7710
 30
 0.0
 42
1.0
  0
SEQEND
  8
GND
  0
POLYLINE
  8
GND
 66
      1
 70
1
 40
0.0580
 41
0.0580
  0
VERTEX
  8
GND
 10
0.6170
 20
3.0710
 30
 0.0
 42
1.0
  0
VERTEX
  8
GND
 10
0.6750
 20
3.0710
 30
 0.0
 42
1.0
  0
SEQEND
  8
GND
  0
POLYLINE
  8
GND
 66
      1
 70
1
 40
0.0580
 41
0.0580
  0
VERTEX
  8
GND
 10
0.6170
 20
3.3710
 30
 0.0
 42
1.0
  0
VERTEX
  8
GND
 10
0.6750
 20
3.3710
 30
 0.0
 42
1.0
  0
SEQEND
  8
GND
  0
POLYLINE
  8
GND
 66
      1
 70
1
 40
0.0390
 41
0.0390
  0
VERTEX
  8
GND
 10
1.0270
 20
3.9710
 30
 0.0
 42
1.0
  0
VERTEX
  8
GND
 10
1.0650
 20
3.9710
 30
 0.0
 42
1.0
  0
SEQEND
  8
GND
  0
POLYLINE
  8
GND
 66
      1
 70
1
 40
0.0390
 41
0.0390
  0
VERTEX
  8
GND
 10
1.0270
 20
4.0710
 30
 0.0
 42
1.0
  0
VERTEX
  8
GND
 10
1.0650
 20
4.0710
 30
 0.0
 42
1.0
  0
SEQEND
  8
GND
  0
POLYLINE
  8
GND
 66
      1
 70
1
 40
0.0390
 41
0.0390
  0
VERTEX
  8
GND
 10
1.0270
 20
4.1710
 30
 0.0
 42
1.0
  0
VERTEX
  8
GND
 10
1.0650
 20
4.1710
 30
 0.0
 42
1.0
  0
SEQEND
  8
GND
  0
POLYLINE
  8
GND
 66
      1
 70
1
 40
0.0390
 41
0.0390
  0
VERTEX
  8
GND
 10
1.0270
 20
4.2710
 30
 0.0
 42
1.0
  0
VERTEX
  8
GND
 10
1.0650
 20
4.2710
 30
 0.0
 42
1.0
  0
SEQEND
  8
GND
  0
POLYLINE
  8
GND
 66
      1
 70
1
 40
0.0390
 41
0.0390
  0
VERTEX
  8
GND
 10
1.0270
 20
4.3710
 30
 0.0
 42
1.0
  0
VERTEX
  8
GND
 10
1.0650
 20
4.3710
 30
 0.0
 42
1.0
  0
SEQEND
  8
GND
 0
SOLID
  8
GND
 10
1.0070
 20
4.4320
 11
1.0850
 21
4.4320
 12
1.0070
 22
4.5100
 13
1.0850
 23
4.5100
  0
POLYLINE
  8
GND
 66
      1
 70
1
 40
0.0180
 41
0.0180
  0
VERTEX
  8
GND
 10
1.2370
 20
1.9210
 30
 0.0
 42
1.0
  0
VERTEX
  8
GND
 10
1.2550
 20
1.9210
 30
 0.0
 42
1.0
  0
SEQEND
  8
GND
  0
POLYLINE
  8
GND
 66
      1
 70
1
 40
0.0180
 41
0.0180
  0
VERTEX
  8
GND
 10
1.1370
 20
1.9210
 30
 0.0
 42
1.0
  0
VERTEX
  8
GND
 10
1.1550
 20
1.9210
 30
 0.0
 42
1.0
  0
SEQEND
  8
GND
  0
POLYLINE
  8
GND
 66
      1
 70
1
 40
0.0390
 41
0.0390
  0
VERTEX
  8
GND
 10
1.4270
 20
3.9710
 30
 0.0
 42
1.0
  0
VERTEX
  8
GND
 10
1.4650
 20
3.9710
 30
 0.0
 42
1.0
  0
SEQEND
  8
GND
  0
POLYLINE
  8
GND
 66
      1
 70
1
 40
0.0390
 41
0.0390
  0
VERTEX
  8
GND
 10
1.4270
 20
4.0710
 30
 0.0
 42
1.0
  0
VERTEX
  8
GND
 10
1.4650
 20
4.0710
 30
 0.0
 42
1.0
  0
SEQEND
  8
GND
  0
POLYLINE
  8
GND
 66
      1
 70
1
 40
0.0390
 41
0.0390
  0
VERTEX
  8
GND
 10
1.4270
 20
4.1710
 30
 0.0
 42
1.0
  0
VERTEX
  8
GND
 10
1.4650
 20
4.1710
 30
 0.0
 42
1.0
  0
SEQEND
  8
GND
  0
POLYLINE
  8
GND
 66
      1
 70
1
 40
0.0390
 41
0.0390
  0
VERTEX
  8
GND
 10
1.4270
 20
4.2710
 30
 0.0
 42
1.0
  0
VERTEX
  8
GND
 10
1.4650
 20
4.2710
 30
 0.0
 42
1.0
  0
SEQEND
  8
GND
  0
POLYLINE
  8
GND
 66
      1
 70
1
 40
0.0390
 41
0.0390
  0
VERTEX
  8
GND
 10
1.4270
 20
4.3710
 30
 0.0
 42
1.0
  0
VERTEX
  8
GND
 10
1.4650
 20
4.3710
 30
 0.0
 42
1.0
  0
SEQEND
  8
GND
 0
SOLID
  8
GND
 10
1.4070
 20
4.4320
 11
1.4850
 21
4.4320
 12
1.4070
 22
4.5100
 13
1.4850
 23
4.5100
  0
POLYLINE
  8
GND
 66
      1
 70
1
 40
0.0180
 41
0.0180
  0
VERTEX
  8
GND
 10
1.5870
 20
3.7210
 30
 0.0
 42
1.0
  0
VERTEX
  8
GND
 10
1.6050
 20
3.7210
 30
 0.0
 42
1.0
  0
SEQEND
  8
GND
  0
POLYLINE
  8
GND
 66
      1
 70
1
 40
0.0180
 41
0.0180
  0
VERTEX
  8
GND
 10
1.5870
 20
3.6210
 30
 0.0
 42
1.0
  0
VERTEX
  8
GND
 10
1.6050
 20
3.6210
 30
 0.0
 42
1.0
  0
SEQEND
  8
GND
  0
POLYLINE
  8
GND
 66
      1
 70
1
 40
0.0180
 41
0.0180
  0
VERTEX
  8
GND
 10
1.6870
 20
3.7210
 30
 0.0
 42
1.0
  0
VERTEX
  8
GND
 10
1.7050
 20
3.7210
 30
 0.0
 42
1.0
  0
SEQEND
  8
GND
  0
POLYLINE
  8
GND
 66
      1
 70
1
 40
0.0180
 41
0.0180
  0
VERTEX
  8
GND
 10
1.6870
 20
3.6210
 30
 0.0
 42
1.0
  0
VERTEX
  8
GND
 10
1.7050
 20
3.6210
 30
 0.0
 42
1.0
  0
SEQEND
  8
GND
  0
POLYLINE
  8
GND
 66
      1
 70
1
 40
0.0390
 41
0.0390
  0
VERTEX
  8
GND
 10
1.8270
 20
3.9710
 30
 0.0
 42
1.0
  0
VERTEX
  8
GND
 10
1.8650
 20
3.9710
 30
 0.0
 42
1.0
  0
SEQEND
  8
GND
  0
POLYLINE
  8
GND
 66
      1
 70
1
 40
0.0390
 41
0.0390
  0
VERTEX
  8
GND
 10
1.8270
 20
4.0710
 30
 0.0
 42
1.0
  0
VERTEX
  8
GND
 10
1.8650
 20
4.0710
 30
 0.0
 42
1.0
  0
SEQEND
  8
GND
  0
POLYLINE
  8
GND
 66
      1
 70
1
 40
0.0390
 41
0.0390
  0
VERTEX
  8
GND
 10
1.8270
 20
4.1710
 30
 0.0
 42
1.0
  0
VERTEX
  8
GND
 10
1.8650
 20
4.1710
 30
 0.0
 42
1.0
  0
SEQEND
  8
GND
  0
POLYLINE
  8
GND
 66
      1
 70
1
 40
0.0390
 41
0.0390
  0
VERTEX
  8
GND
 10
1.8270
 20
4.2710
 30
 0.0
 42
1.0
  0
VERTEX
  8
GND
 10
1.8650
 20
4.2710
 30
 0.0
 42
1.0
  0
SEQEND
  8
GND
  0
POLYLINE
  8
GND
 66
      1
 70
1
 40
0.0390
 41
0.0390
  0
VERTEX
  8
GND
 10
1.8270
 20
4.3710
 30
 0.0
 42
1.0
  0
VERTEX
  8
GND
 10
1.8650
 20
4.3710
 30
 0.0
 42
1.0
  0
SEQEND
  8
GND
 0
SOLID
  8
GND
 10
1.8070
 20
4.4320
 11
1.8850
 21
4.4320
 12
1.8070
 22
4.5100
 13
1.8850
 23
4.5100
  0
POLYLINE
  8
GND
 66
      1
 70
1
 40
0.0180
 41
0.0180
  0
VERTEX
  8
GND
 10
1.9370
 20
3.7210
 30
 0.0
 42
1.0
  0
VERTEX
  8
GND
 10
1.9550
 20
3.7210
 30
 0.0
 42
1.0
  0
SEQEND
  8
GND
  0
POLYLINE
  8
GND
 66
      1
 70
1
 40
0.0180
 41
0.0180
  0
VERTEX
  8
GND
 10
1.9370
 20
3.6210
 30
 0.0
 42
1.0
  0
VERTEX
  8
GND
 10
1.9550
 20
3.6210
 30
 0.0
 42
1.0
  0
SEQEND
  8
GND
  0
POLYLINE
  8
GND
 66
      1
 70
1
 40
0.0390
 41
0.0390
  0
VERTEX
  8
GND
 10
2.6230
 20
3.4990
 30
 0.0
 42
1.0
  0
VERTEX
  8
GND
 10
2.6610
 20
3.4990
 30
 0.0
 42
1.0
  0
SEQEND
  8
GND
  0
POLYLINE
  8
GND
 66
      1
 70
1
 40
0.0390
 41
0.0390
  0
VERTEX
  8
GND
 10
2.6230
 20
3.4210
 30
 0.0
 42
1.0
  0
VERTEX
  8
GND
 10
2.6610
 20
3.4210
 30
 0.0
 42
1.0
  0
SEQEND
  8
GND
  0
POLYLINE
  8
GND
 66
      1
 70
1
 40
0.0390
 41
0.0390
  0
VERTEX
  8
GND
 10
2.5440
 20
3.4990
 30
 0.0
 42
1.0
  0
VERTEX
  8
GND
 10
2.5820
 20
3.4990
 30
 0.0
 42
1.0
  0
SEQEND
  8
GND
  0
POLYLINE
  8
GND
 66
      1
 70
1
 40
0.0390
 41
0.0390
  0
VERTEX
  8
GND
 10
2.5440
 20
3.4210
 30
 0.0
 42
1.0
  0
VERTEX
  8
GND
 10
2.5820
 20
3.4210
 30
 0.0
 42
1.0
  0
SEQEND
  8
GND
  0
POLYLINE
  8
GND
 66
      1
 70
1
 40
0.0390
 41
0.0390
  0
VERTEX
  8
GND
 10
2.4650
 20
3.4990
 30
 0.0
 42
1.0
  0
VERTEX
  8
GND
 10
2.5030
 20
3.4990
 30
 0.0
 42
1.0
  0
SEQEND
  8
GND
  0
POLYLINE
  8
GND
 66
      1
 70
1
 40
0.0390
 41
0.0390
  0
VERTEX
  8
GND
 10
2.4650
 20
3.4210
 30
 0.0
 42
1.0
  0
VERTEX
  8
GND
 10
2.5030
 20
3.4210
 30
 0.0
 42
1.0
  0
SEQEND
  8
GND
  0
POLYLINE
  8
GND
 66
      1
 70
1
 40
0.0390
 41
0.0390
  0
VERTEX
  8
GND
 10
2.3870
 20
3.4990
 30
 0.0
 42
1.0
  0
VERTEX
  8
GND
 10
2.4250
 20
3.4990
 30
 0.0
 42
1.0
  0
SEQEND
  8
GND
  0
POLYLINE
  8
GND
 66
      1
 70
1
 40
0.0390
 41
0.0390
  0
VERTEX
  8
GND
 10
2.3870
 20
3.4210
 30
 0.0
 42
1.0
  0
VERTEX
  8
GND
 10
2.4250
 20
3.4210
 30
 0.0
 42
1.0
  0
SEQEND
  8
GND
  0
POLYLINE
  8
GND
 66
      1
 70
1
 40
0.0390
 41
0.0390
  0
VERTEX
  8
GND
 10
2.3080
 20
3.4990
 30
 0.0
 42
1.0
  0
VERTEX
  8
GND
 10
2.3460
 20
3.4990
 30
 0.0
 42
1.0
  0
SEQEND
  8
GND
  0
POLYLINE
  8
GND
 66
      1
 70
1
 40
0.0390
 41
0.0390
  0
VERTEX
  8
GND
 10
2.3080
 20
3.4210
 30
 0.0
 42
1.0
  0
VERTEX
  8
GND
 10
2.3460
 20
3.4210
 30
 0.0
 42
1.0
  0
SEQEND
  8
GND
 0
SOLID
  8
GND
 10
2.2090
 20
3.4600
 11
2.2870
 21
3.4600
 12
2.2090
 22
3.5380
 13
2.2870
 23
3.5380
  0
POLYLINE
  8
GND
 66
      1
 70
1
 40
0.0390
 41
0.0390
  0
VERTEX
  8
GND
 10
2.2290
 20
3.4210
 30
 0.0
 42
1.0
  0
VERTEX
  8
GND
 10
2.2670
 20
3.4210
 30
 0.0
 42
1.0
  0
SEQEND
  8
GND
  0
POLYLINE
  8
GND
 66
      1
 70
1
 40
0.0390
 41
0.0390
  0
VERTEX
  8
GND
 10
2.1500
 20
3.4990
 30
 0.0
 42
1.0
  0
VERTEX
  8
GND
 10
2.1880
 20
3.4990
 30
 0.0
 42
1.0
  0
SEQEND
  8
GND
  0
POLYLINE
  8
GND
 66
      1
 70
1
 40
0.0390
 41
0.0390
  0
VERTEX
  8
GND
 10
2.1500
 20
3.4210
 30
 0.0
 42
1.0
  0
VERTEX
  8
GND
 10
2.1880
 20
3.4210
 30
 0.0
 42
1.0
  0
SEQEND
  8
GND
  0
POLYLINE
  8
GND
 66
      1
 70
1
 40
0.0390
 41
0.0390
  0
VERTEX
  8
GND
 10
2.0720
 20
3.4990
 30
 0.0
 42
1.0
  0
VERTEX
  8
GND
 10
2.1100
 20
3.4990
 30
 0.0
 42
1.0
  0
SEQEND
  8
GND
  0
POLYLINE
  8
GND
 66
      1
 70
1
 40
0.0390
 41
0.0390
  0
VERTEX
  8
GND
 10
2.0720
 20
3.4210
 30
 0.0
 42
1.0
  0
VERTEX
  8
GND
 10
2.1100
 20
3.4210
 30
 0.0
 42
1.0
  0
SEQEND
  8
GND
  0
POLYLINE
  8
GND
 66
      1
 70
1
 40
0.0390
 41
0.0390
  0
VERTEX
  8
GND
 10
1.9930
 20
3.4990
 30
 0.0
 42
1.0
  0
VERTEX
  8
GND
 10
2.0310
 20
3.4990
 30
 0.0
 42
1.0
  0
SEQEND
  8
GND
  0
POLYLINE
  8
GND
 66
      1
 70
1
 40
0.0390
 41
0.0390
  0
VERTEX
  8
GND
 10
1.9930
 20
3.4210
 30
 0.0
 42
1.0
  0
VERTEX
  8
GND
 10
2.0310
 20
3.4210
 30
 0.0
 42
1.0
  0
SEQEND
  8
GND
  0
POLYLINE
  8
GND
 66
      1
 70
1
 40
0.0390
 41
0.0390
  0
VERTEX
  8
GND
 10
1.9140
 20
3.4990
 30
 0.0
 42
1.0
  0
VERTEX
  8
GND
 10
1.9520
 20
3.4990
 30
 0.0
 42
1.0
  0
SEQEND
  8
GND
  0
POLYLINE
  8
GND
 66
      1
 70
1
 40
0.0390
 41
0.0390
  0
VERTEX
  8
GND
 10
1.9140
 20
3.4210
 30
 0.0
 42
1.0
  0
VERTEX
  8
GND
 10
1.9520
 20
3.4210
 30
 0.0
 42
1.0
  0
SEQEND
  8
GND
 0
SOLID
  8
GND
 10
1.8150
 20
3.4600
 11
1.8930
 21
3.4600
 12
1.8150
 22
3.5380
 13
1.8930
 23
3.5380
  0
POLYLINE
  8
GND
 66
      1
 70
1
 40
0.0390
 41
0.0390
  0
VERTEX
  8
GND
 10
1.8350
 20
3.4210
 30
 0.0
 42
1.0
  0
VERTEX
  8
GND
 10
1.8730
 20
3.4210
 30
 0.0
 42
1.0
  0
SEQEND
  8
GND
  0
POLYLINE
  8
GND
 66
      1
 70
1
 40
0.0390
 41
0.0390
  0
VERTEX
  8
GND
 10
1.7570
 20
3.4990
 30
 0.0
 42
1.0
  0
VERTEX
  8
GND
 10
1.7950
 20
3.4990
 30
 0.0
 42
1.0
  0
SEQEND
  8
GND
  0
POLYLINE
  8
GND
 66
      1
 70
1
 40
0.0390
 41
0.0390
  0
VERTEX
  8
GND
 10
1.7570
 20
3.4210
 30
 0.0
 42
1.0
  0
VERTEX
  8
GND
 10
1.7950
 20
3.4210
 30
 0.0
 42
1.0
  0
SEQEND
  8
GND
  0
POLYLINE
  8
GND
 66
      1
 70
1
 40
0.0390
 41
0.0390
  0
VERTEX
  8
GND
 10
1.6780
 20
3.4990
 30
 0.0
 42
1.0
  0
VERTEX
  8
GND
 10
1.7160
 20
3.4990
 30
 0.0
 42
1.0
  0
SEQEND
  8
GND
  0
POLYLINE
  8
GND
 66
      1
 70
1
 40
0.0390
 41
0.0390
  0
VERTEX
  8
GND
 10
1.6780
 20
3.4210
 30
 0.0
 42
1.0
  0
VERTEX
  8
GND
 10
1.7160
 20
3.4210
 30
 0.0
 42
1.0
  0
SEQEND
  8
GND
  0
POLYLINE
  8
GND
 66
      1
 70
1
 40
0.0390
 41
0.0390
  0
VERTEX
  8
GND
 10
1.5990
 20
3.4990
 30
 0.0
 42
1.0
  0
VERTEX
  8
GND
 10
1.6370
 20
3.4990
 30
 0.0
 42
1.0
  0
SEQEND
  8
GND
  0
POLYLINE
  8
GND
 66
      1
 70
1
 40
0.0390
 41
0.0390
  0
VERTEX
  8
GND
 10
1.5990
 20
3.4210
 30
 0.0
 42
1.0
  0
VERTEX
  8
GND
 10
1.6370
 20
3.4210
 30
 0.0
 42
1.0
  0
SEQEND
  8
GND
  0
POLYLINE
  8
GND
 66
      1
 70
1
 40
0.0390
 41
0.0390
  0
VERTEX
  8
GND
 10
1.5200
 20
3.4990
 30
 0.0
 42
1.0
  0
VERTEX
  8
GND
 10
1.5580
 20
3.4990
 30
 0.0
 42
1.0
  0
SEQEND
  8
GND
  0
POLYLINE
  8
GND
 66
      1
 70
1
 40
0.0390
 41
0.0390
  0
VERTEX
  8
GND
 10
1.5200
 20
3.4210
 30
 0.0
 42
1.0
  0
VERTEX
  8
GND
 10
1.5580
 20
3.4210
 30
 0.0
 42
1.0
  0
SEQEND
  8
GND
 0
SOLID
  8
GND
 10
1.4220
 20
3.4600
 11
1.5000
 21
3.4600
 12
1.4220
 22
3.5380
 13
1.5000
 23
3.5380
  0
POLYLINE
  8
GND
 66
      1
 70
1
 40
0.0390
 41
0.0390
  0
VERTEX
  8
GND
 10
1.4420
 20
3.4210
 30
 0.0
 42
1.0
  0
VERTEX
  8
GND
 10
1.4800
 20
3.4210
 30
 0.0
 42
1.0
  0
SEQEND
  8
GND
  0
POLYLINE
  8
GND
 66
      1
 70
1
 40
0.0390
 41
0.0390
  0
VERTEX
  8
GND
 10
1.3630
 20
3.4990
 30
 0.0
 42
1.0
  0
VERTEX
  8
GND
 10
1.4010
 20
3.4990
 30
 0.0
 42
1.0
  0
SEQEND
  8
GND
  0
POLYLINE
  8
GND
 66
      1
 70
1
 40
0.0390
 41
0.0390
  0
VERTEX
  8
GND
 10
1.3630
 20
3.4210
 30
 0.0
 42
1.0
  0
VERTEX
  8
GND
 10
1.4010
 20
3.4210
 30
 0.0
 42
1.0
  0
SEQEND
  8
GND
  0
POLYLINE
  8
GND
 66
      1
 70
1
 40
0.0390
 41
0.0390
  0
VERTEX
  8
GND
 10
1.2840
 20
3.4990
 30
 0.0
 42
1.0
  0
VERTEX
  8
GND
 10
1.3220
 20
3.4990
 30
 0.0
 42
1.0
  0
SEQEND
  8
GND
  0
POLYLINE
  8
GND
 66
      1
 70
1
 40
0.0390
 41
0.0390
  0
VERTEX
  8
GND
 10
1.2840
 20
3.4210
 30
 0.0
 42
1.0
  0
VERTEX
  8
GND
 10
1.3220
 20
3.4210
 30
 0.0
 42
1.0
  0
SEQEND
  8
GND
  0
POLYLINE
  8
GND
 66
      1
 70
1
 40
0.0390
 41
0.0390
  0
VERTEX
  8
GND
 10
1.2060
 20
3.4990
 30
 0.0
 42
1.0
  0
VERTEX
  8
GND
 10
1.2440
 20
3.4990
 30
 0.0
 42
1.0
  0
SEQEND
  8
GND
  0
POLYLINE
  8
GND
 66
      1
 70
1
 40
0.0390
 41
0.0390
  0
VERTEX
  8
GND
 10
1.2060
 20
3.4210
 30
 0.0
 42
1.0
  0
VERTEX
  8
GND
 10
1.2440
 20
3.4210
 30
 0.0
 42
1.0
  0
SEQEND
  8
GND
  0
POLYLINE
  8
GND
 66
      1
 70
1
 40
0.0390
 41
0.0390
  0
VERTEX
  8
GND
 10
1.1270
 20
3.4990
 30
 0.0
 42
1.0
  0
VERTEX
  8
GND
 10
1.1650
 20
3.4990
 30
 0.0
 42
1.0
  0
SEQEND
  8
GND
 0
SOLID
  8
GND
 10
1.1070
 20
3.3820
 11
1.1850
 21
3.3820
 12
1.1070
 22
3.4600
 13
1.1850
 23
3.4600
  0
POLYLINE
  8
GND
 66
      1
 70
1
 40
0.0390
 41
0.0390
  0
VERTEX
  8
GND
 10
2.6230
 20
2.1440
 30
 0.0
 42
1.0
  0
VERTEX
  8
GND
 10
2.6610
 20
2.1440
 30
 0.0
 42
1.0
  0
SEQEND
  8
GND
  0
POLYLINE
  8
GND
 66
      1
 70
1
 40
0.0390
 41
0.0390
  0
VERTEX
  8
GND
 10
2.6230
 20
2.0660
 30
 0.0
 42
1.0
  0
VERTEX
  8
GND
 10
2.6610
 20
2.0660
 30
 0.0
 42
1.0
  0
SEQEND
  8
GND
  0
POLYLINE
  8
GND
 66
      1
 70
1
 40
0.0390
 41
0.0390
  0
VERTEX
  8
GND
 10
2.5440
 20
2.1440
 30
 0.0
 42
1.0
  0
VERTEX
  8
GND
 10
2.5820
 20
2.1440
 30
 0.0
 42
1.0
  0
SEQEND
  8
GND
  0
POLYLINE
  8
GND
 66
      1
 70
1
 40
0.0390
 41
0.0390
  0
VERTEX
  8
GND
 10
2.5440
 20
2.0660
 30
 0.0
 42
1.0
  0
VERTEX
  8
GND
 10
2.5820
 20
2.0660
 30
 0.0
 42
1.0
  0
SEQEND
  8
GND
  0
POLYLINE
  8
GND
 66
      1
 70
1
 40
0.0390
 41
0.0390
  0
VERTEX
  8
GND
 10
2.4650
 20
2.1440
 30
 0.0
 42
1.0
  0
VERTEX
  8
GND
 10
2.5030
 20
2.1440
 30
 0.0
 42
1.0
  0
SEQEND
  8
GND
  0
POLYLINE
  8
GND
 66
      1
 70
1
 40
0.0390
 41
0.0390
  0
VERTEX
  8
GND
 10
2.4650
 20
2.0660
 30
 0.0
 42
1.0
  0
VERTEX
  8
GND
 10
2.5030
 20
2.0660
 30
 0.0
 42
1.0
  0
SEQEND
  8
GND
  0
POLYLINE
  8
GND
 66
      1
 70
1
 40
0.0390
 41
0.0390
  0
VERTEX
  8
GND
 10
2.3870
 20
2.1440
 30
 0.0
 42
1.0
  0
VERTEX
  8
GND
 10
2.4250
 20
2.1440
 30
 0.0
 42
1.0
  0
SEQEND
  8
GND
  0
POLYLINE
  8
GND
 66
      1
 70
1
 40
0.0390
 41
0.0390
  0
VERTEX
  8
GND
 10
2.3870
 20
2.0660
 30
 0.0
 42
1.0
  0
VERTEX
  8
GND
 10
2.4250
 20
2.0660
 30
 0.0
 42
1.0
  0
SEQEND
  8
GND
  0
POLYLINE
  8
GND
 66
      1
 70
1
 40
0.0390
 41
0.0390
  0
VERTEX
  8
GND
 10
2.3080
 20
2.1440
 30
 0.0
 42
1.0
  0
VERTEX
  8
GND
 10
2.3460
 20
2.1440
 30
 0.0
 42
1.0
  0
SEQEND
  8
GND
  0
POLYLINE
  8
GND
 66
      1
 70
1
 40
0.0390
 41
0.0390
  0
VERTEX
  8
GND
 10
2.3080
 20
2.0660
 30
 0.0
 42
1.0
  0
VERTEX
  8
GND
 10
2.3460
 20
2.0660
 30
 0.0
 42
1.0
  0
SEQEND
  8
GND
 0
SOLID
  8
GND
 10
2.2090
 20
2.1050
 11
2.2870
 21
2.1050
 12
2.2090
 22
2.1830
 13
2.2870
 23
2.1830
  0
POLYLINE
  8
GND
 66
      1
 70
1
 40
0.0390
 41
0.0390
  0
VERTEX
  8
GND
 10
2.2290
 20
2.0660
 30
 0.0
 42
1.0
  0
VERTEX
  8
GND
 10
2.2670
 20
2.0660
 30
 0.0
 42
1.0
  0
SEQEND
  8
GND
  0
POLYLINE
  8
GND
 66
      1
 70
1
 40
0.0390
 41
0.0390
  0
VERTEX
  8
GND
 10
2.1500
 20
2.1440
 30
 0.0
 42
1.0
  0
VERTEX
  8
GND
 10
2.1880
 20
2.1440
 30
 0.0
 42
1.0
  0
SEQEND
  8
GND
  0
POLYLINE
  8
GND
 66
      1
 70
1
 40
0.0390
 41
0.0390
  0
VERTEX
  8
GND
 10
2.1500
 20
2.0660
 30
 0.0
 42
1.0
  0
VERTEX
  8
GND
 10
2.1880
 20
2.0660
 30
 0.0
 42
1.0
  0
SEQEND
  8
GND
  0
POLYLINE
  8
GND
 66
      1
 70
1
 40
0.0390
 41
0.0390
  0
VERTEX
  8
GND
 10
2.0720
 20
2.1440
 30
 0.0
 42
1.0
  0
VERTEX
  8
GND
 10
2.1100
 20
2.1440
 30
 0.0
 42
1.0
  0
SEQEND
  8
GND
  0
POLYLINE
  8
GND
 66
      1
 70
1
 40
0.0390
 41
0.0390
  0
VERTEX
  8
GND
 10
2.0720
 20
2.0660
 30
 0.0
 42
1.0
  0
VERTEX
  8
GND
 10
2.1100
 20
2.0660
 30
 0.0
 42
1.0
  0
SEQEND
  8
GND
  0
POLYLINE
  8
GND
 66
      1
 70
1
 40
0.0390
 41
0.0390
  0
VERTEX
  8
GND
 10
1.9930
 20
2.1440
 30
 0.0
 42
1.0
  0
VERTEX
  8
GND
 10
2.0310
 20
2.1440
 30
 0.0
 42
1.0
  0
SEQEND
  8
GND
  0
POLYLINE
  8
GND
 66
      1
 70
1
 40
0.0390
 41
0.0390
  0
VERTEX
  8
GND
 10
1.9930
 20
2.0660
 30
 0.0
 42
1.0
  0
VERTEX
  8
GND
 10
2.0310
 20
2.0660
 30
 0.0
 42
1.0
  0
SEQEND
  8
GND
  0
POLYLINE
  8
GND
 66
      1
 70
1
 40
0.0390
 41
0.0390
  0
VERTEX
  8
GND
 10
1.9140
 20
2.1440
 30
 0.0
 42
1.0
  0
VERTEX
  8
GND
 10
1.9520
 20
2.1440
 30
 0.0
 42
1.0
  0
SEQEND
  8
GND
  0
POLYLINE
  8
GND
 66
      1
 70
1
 40
0.0390
 41
0.0390
  0
VERTEX
  8
GND
 10
1.9140
 20
2.0660
 30
 0.0
 42
1.0
  0
VERTEX
  8
GND
 10
1.9520
 20
2.0660
 30
 0.0
 42
1.0
  0
SEQEND
  8
GND
 0
SOLID
  8
GND
 10
1.8150
 20
2.1050
 11
1.8930
 21
2.1050
 12
1.8150
 22
2.1830
 13
1.8930
 23
2.1830
  0
POLYLINE
  8
GND
 66
      1
 70
1
 40
0.0390
 41
0.0390
  0
VERTEX
  8
GND
 10
1.8350
 20
2.0660
 30
 0.0
 42
1.0
  0
VERTEX
  8
GND
 10
1.8730
 20
2.0660
 30
 0.0
 42
1.0
  0
SEQEND
  8
GND
  0
POLYLINE
  8
GND
 66
      1
 70
1
 40
0.0390
 41
0.0390
  0
VERTEX
  8
GND
 10
1.7570
 20
2.1440
 30
 0.0
 42
1.0
  0
VERTEX
  8
GND
 10
1.7950
 20
2.1440
 30
 0.0
 42
1.0
  0
SEQEND
  8
GND
  0
POLYLINE
  8
GND
 66
      1
 70
1
 40
0.0390
 41
0.0390
  0
VERTEX
  8
GND
 10
1.7570
 20
2.0660
 30
 0.0
 42
1.0
  0
VERTEX
  8
GND
 10
1.7950
 20
2.0660
 30
 0.0
 42
1.0
  0
SEQEND
  8
GND
  0
POLYLINE
  8
GND
 66
      1
 70
1
 40
0.0390
 41
0.0390
  0
VERTEX
  8
GND
 10
1.6780
 20
2.1440
 30
 0.0
 42
1.0
  0
VERTEX
  8
GND
 10
1.7160
 20
2.1440
 30
 0.0
 42
1.0
  0
SEQEND
  8
GND
  0
POLYLINE
  8
GND
 66
      1
 70
1
 40
0.0390
 41
0.0390
  0
VERTEX
  8
GND
 10
1.6780
 20
2.0660
 30
 0.0
 42
1.0
  0
VERTEX
  8
GND
 10
1.7160
 20
2.0660
 30
 0.0
 42
1.0
  0
SEQEND
  8
GND
  0
POLYLINE
  8
GND
 66
      1
 70
1
 40
0.0390
 41
0.0390
  0
VERTEX
  8
GND
 10
1.5990
 20
2.1440
 30
 0.0
 42
1.0
  0
VERTEX
  8
GND
 10
1.6370
 20
2.1440
 30
 0.0
 42
1.0
  0
SEQEND
  8
GND
  0
POLYLINE
  8
GND
 66
      1
 70
1
 40
0.0390
 41
0.0390
  0
VERTEX
  8
GND
 10
1.5990
 20
2.0660
 30
 0.0
 42
1.0
  0
VERTEX
  8
GND
 10
1.6370
 20
2.0660
 30
 0.0
 42
1.0
  0
SEQEND
  8
GND
  0
POLYLINE
  8
GND
 66
      1
 70
1
 40
0.0390
 41
0.0390
  0
VERTEX
  8
GND
 10
1.5200
 20
2.1440
 30
 0.0
 42
1.0
  0
VERTEX
  8
GND
 10
1.5580
 20
2.1440
 30
 0.0
 42
1.0
  0
SEQEND
  8
GND
  0
POLYLINE
  8
GND
 66
      1
 70
1
 40
0.0390
 41
0.0390
  0
VERTEX
  8
GND
 10
1.5200
 20
2.0660
 30
 0.0
 42
1.0
  0
VERTEX
  8
GND
 10
1.5580
 20
2.0660
 30
 0.0
 42
1.0
  0
SEQEND
  8
GND
 0
SOLID
  8
GND
 10
1.4220
 20
2.1050
 11
1.5000
 21
2.1050
 12
1.4220
 22
2.1830
 13
1.5000
 23
2.1830
  0
POLYLINE
  8
GND
 66
      1
 70
1
 40
0.0390
 41
0.0390
  0
VERTEX
  8
GND
 10
1.4420
 20
2.0660
 30
 0.0
 42
1.0
  0
VERTEX
  8
GND
 10
1.4800
 20
2.0660
 30
 0.0
 42
1.0
  0
SEQEND
  8
GND
  0
POLYLINE
  8
GND
 66
      1
 70
1
 40
0.0390
 41
0.0390
  0
VERTEX
  8
GND
 10
1.3630
 20
2.1440
 30
 0.0
 42
1.0
  0
VERTEX
  8
GND
 10
1.4010
 20
2.1440
 30
 0.0
 42
1.0
  0
SEQEND
  8
GND
  0
POLYLINE
  8
GND
 66
      1
 70
1
 40
0.0390
 41
0.0390
  0
VERTEX
  8
GND
 10
1.3630
 20
2.0660
 30
 0.0
 42
1.0
  0
VERTEX
  8
GND
 10
1.4010
 20
2.0660
 30
 0.0
 42
1.0
  0
SEQEND
  8
GND
  0
POLYLINE
  8
GND
 66
      1
 70
1
 40
0.0390
 41
0.0390
  0
VERTEX
  8
GND
 10
1.2840
 20
2.1440
 30
 0.0
 42
1.0
  0
VERTEX
  8
GND
 10
1.3220
 20
2.1440
 30
 0.0
 42
1.0
  0
SEQEND
  8
GND
  0
POLYLINE
  8
GND
 66
      1
 70
1
 40
0.0390
 41
0.0390
  0
VERTEX
  8
GND
 10
1.2840
 20
2.0660
 30
 0.0
 42
1.0
  0
VERTEX
  8
GND
 10
1.3220
 20
2.0660
 30
 0.0
 42
1.0
  0
SEQEND
  8
GND
  0
POLYLINE
  8
GND
 66
      1
 70
1
 40
0.0390
 41
0.0390
  0
VERTEX
  8
GND
 10
1.2060
 20
2.1440
 30
 0.0
 42
1.0
  0
VERTEX
  8
GND
 10
1.2440
 20
2.1440
 30
 0.0
 42
1.0
  0
SEQEND
  8
GND
  0
POLYLINE
  8
GND
 66
      1
 70
1
 40
0.0390
 41
0.0390
  0
VERTEX
  8
GND
 10
1.2060
 20
2.0660
 30
 0.0
 42
1.0
  0
VERTEX
  8
GND
 10
1.2440
 20
2.0660
 30
 0.0
 42
1.0
  0
SEQEND
  8
GND
  0
POLYLINE
  8
GND
 66
      1
 70
1
 40
0.0390
 41
0.0390
  0
VERTEX
  8
GND
 10
1.1270
 20
2.1440
 30
 0.0
 42
1.0
  0
VERTEX
  8
GND
 10
1.1650
 20
2.1440
 30
 0.0
 42
1.0
  0
SEQEND
  8
GND
 0
SOLID
  8
GND
 10
1.1070
 20
2.0270
 11
1.1850
 21
2.0270
 12
1.1070
 22
2.1050
 13
1.1850
 23
2.1050
  0
POLYLINE
  8
GND
 66
      1
 70
1
 40
0.0390
 41
0.0390
  0
VERTEX
  8
GND
 10
2.2270
 20
3.9710
 30
 0.0
 42
1.0
  0
VERTEX
  8
GND
 10
2.2650
 20
3.9710
 30
 0.0
 42
1.0
  0
SEQEND
  8
GND
  0
POLYLINE
  8
GND
 66
      1
 70
1
 40
0.0390
 41
0.0390
  0
VERTEX
  8
GND
 10
2.2270
 20
4.0710
 30
 0.0
 42
1.0
  0
VERTEX
  8
GND
 10
2.2650
 20
4.0710
 30
 0.0
 42
1.0
  0
SEQEND
  8
GND
  0
POLYLINE
  8
GND
 66
      1
 70
1
 40
0.0390
 41
0.0390
  0
VERTEX
  8
GND
 10
2.2270
 20
4.1710
 30
 0.0
 42
1.0
  0
VERTEX
  8
GND
 10
2.2650
 20
4.1710
 30
 0.0
 42
1.0
  0
SEQEND
  8
GND
  0
POLYLINE
  8
GND
 66
      1
 70
1
 40
0.0390
 41
0.0390
  0
VERTEX
  8
GND
 10
2.2270
 20
4.2710
 30
 0.0
 42
1.0
  0
VERTEX
  8
GND
 10
2.2650
 20
4.2710
 30
 0.0
 42
1.0
  0
SEQEND
  8
GND
  0
POLYLINE
  8
GND
 66
      1
 70
1
 40
0.0390
 41
0.0390
  0
VERTEX
  8
GND
 10
2.2270
 20
4.3710
 30
 0.0
 42
1.0
  0
VERTEX
  8
GND
 10
2.2650
 20
4.3710
 30
 0.0
 42
1.0
  0
SEQEND
  8
GND
 0
SOLID
  8
GND
 10
2.2070
 20
4.4320
 11
2.2850
 21
4.4320
 12
2.2070
 22
4.5100
 13
2.2850
 23
4.5100
  0
POLYLINE
  8
GND
 66
      1
 70
1
 40
0.0180
 41
0.0180
  0
VERTEX
  8
GND
 10
2.0370
 20
3.7210
 30
 0.0
 42
1.0
  0
VERTEX
  8
GND
 10
2.0550
 20
3.7210
 30
 0.0
 42
1.0
  0
SEQEND
  8
GND
  0
POLYLINE
  8
GND
 66
      1
 70
1
 40
0.0180
 41
0.0180
  0
VERTEX
  8
GND
 10
2.0370
 20
3.6210
 30
 0.0
 42
1.0
  0
VERTEX
  8
GND
 10
2.0550
 20
3.6210
 30
 0.0
 42
1.0
  0
SEQEND
  8
GND
  0
POLYLINE
  8
GND
 66
      1
 70
1
 40
0.0390
 41
0.0390
  0
VERTEX
  8
GND
 10
2.6270
 20
4.1710
 30
 0.0
 42
1.0
  0
VERTEX
  8
GND
 10
2.6650
 20
4.1710
 30
 0.0
 42
1.0
  0
SEQEND
  8
GND
  0
POLYLINE
  8
GND
 66
      1
 70
1
 40
0.0390
 41
0.0390
  0
VERTEX
  8
GND
 10
2.6270
 20
4.2710
 30
 0.0
 42
1.0
  0
VERTEX
  8
GND
 10
2.6650
 20
4.2710
 30
 0.0
 42
1.0
  0
SEQEND
  8
GND
  0
POLYLINE
  8
GND
 66
      1
 70
1
 40
0.0390
 41
0.0390
  0
VERTEX
  8
GND
 10
2.6270
 20
4.3710
 30
 0.0
 42
1.0
  0
VERTEX
  8
GND
 10
2.6650
 20
4.3710
 30
 0.0
 42
1.0
  0
SEQEND
  8
GND
 0
SOLID
  8
GND
 10
2.6070
 20
4.4320
 11
2.6850
 21
4.4320
 12
2.6070
 22
4.5100
 13
2.6850
 23
4.5100
  0
POLYLINE
  8
GND
 66
      1
 70
1
 40
0.0390
 41
0.0390
  0
VERTEX
  8
GND
 10
3.0270
 20
4.1710
 30
 0.0
 42
1.0
  0
VERTEX
  8
GND
 10
3.0650
 20
4.1710
 30
 0.0
 42
1.0
  0
SEQEND
  8
GND
  0
POLYLINE
  8
GND
 66
      1
 70
1
 40
0.0390
 41
0.0390
  0
VERTEX
  8
GND
 10
3.0270
 20
4.2710
 30
 0.0
 42
1.0
  0
VERTEX
  8
GND
 10
3.0650
 20
4.2710
 30
 0.0
 42
1.0
  0
SEQEND
  8
GND
  0
POLYLINE
  8
GND
 66
      1
 70
1
 40
0.0390
 41
0.0390
  0
VERTEX
  8
GND
 10
3.0270
 20
4.3710
 30
 0.0
 42
1.0
  0
VERTEX
  8
GND
 10
3.0650
 20
4.3710
 30
 0.0
 42
1.0
  0
SEQEND
  8
GND
 0
SOLID
  8
GND
 10
3.0070
 20
4.4320
 11
3.0850
 21
4.4320
 12
3.0070
 22
4.5100
 13
3.0850
 23
4.5100
  0
POLYLINE
  8
GND
 66
      1
 70
1
 40
0.0390
 41
0.0390
  0
VERTEX
  8
GND
 10
3.4270
 20
4.1710
 30
 0.0
 42
1.0
  0
VERTEX
  8
GND
 10
3.4650
 20
4.1710
 30
 0.0
 42
1.0
  0
SEQEND
  8
GND
  0
POLYLINE
  8
GND
 66
      1
 70
1
 40
0.0390
 41
0.0390
  0
VERTEX
  8
GND
 10
3.4270
 20
4.2710
 30
 0.0
 42
1.0
  0
VERTEX
  8
GND
 10
3.4650
 20
4.2710
 30
 0.0
 42
1.0
  0
SEQEND
  8
GND
  0
POLYLINE
  8
GND
 66
      1
 70
1
 40
0.0390
 41
0.0390
  0
VERTEX
  8
GND
 10
3.4270
 20
4.3710
 30
 0.0
 42
1.0
  0
VERTEX
  8
GND
 10
3.4650
 20
4.3710
 30
 0.0
 42
1.0
  0
SEQEND
  8
GND
 0
SOLID
  8
GND
 10
3.4070
 20
4.4320
 11
3.4850
 21
4.4320
 12
3.4070
 22
4.5100
 13
3.4850
 23
4.5100
  0
POLYLINE
  8
GND
 66
      1
 70
1
 40
0.0390
 41
0.0390
  0
VERTEX
  8
GND
 10
3.8270
 20
4.1710
 30
 0.0
 42
1.0
  0
VERTEX
  8
GND
 10
3.8650
 20
4.1710
 30
 0.0
 42
1.0
  0
SEQEND
  8
GND
  0
POLYLINE
  8
GND
 66
      1
 70
1
 40
0.0390
 41
0.0390
  0
VERTEX
  8
GND
 10
3.8270
 20
4.2710
 30
 0.0
 42
1.0
  0
VERTEX
  8
GND
 10
3.8650
 20
4.2710
 30
 0.0
 42
1.0
  0
SEQEND
  8
GND
  0
POLYLINE
  8
GND
 66
      1
 70
1
 40
0.0390
 41
0.0390
  0
VERTEX
  8
GND
 10
3.8270
 20
4.3710
 30
 0.0
 42
1.0
  0
VERTEX
  8
GND
 10
3.8650
 20
4.3710
 30
 0.0
 42
1.0
  0
SEQEND
  8
GND
 0
SOLID
  8
GND
 10
3.8070
 20
4.4320
 11
3.8850
 21
4.4320
 12
3.8070
 22
4.5100
 13
3.8850
 23
4.5100
  0
POLYLINE
  8
GND
 66
      1
 70
1
 40
0.0390
 41
0.0390
  0
VERTEX
  8
GND
 10
4.2270
 20
4.1710
 30
 0.0
 42
1.0
  0
VERTEX
  8
GND
 10
4.2650
 20
4.1710
 30
 0.0
 42
1.0
  0
SEQEND
  8
GND
  0
POLYLINE
  8
GND
 66
      1
 70
1
 40
0.0390
 41
0.0390
  0
VERTEX
  8
GND
 10
4.2270
 20
4.2710
 30
 0.0
 42
1.0
  0
VERTEX
  8
GND
 10
4.2650
 20
4.2710
 30
 0.0
 42
1.0
  0
SEQEND
  8
GND
  0
POLYLINE
  8
GND
 66
      1
 70
1
 40
0.0390
 41
0.0390
  0
VERTEX
  8
GND
 10
4.2270
 20
4.3710
 30
 0.0
 42
1.0
  0
VERTEX
  8
GND
 10
4.2650
 20
4.3710
 30
 0.0
 42
1.0
  0
SEQEND
  8
GND
 0
SOLID
  8
GND
 10
4.2070
 20
4.4320
 11
4.2850
 21
4.4320
 12
4.2070
 22
4.5100
 13
4.2850
 23
4.5100
  0
POLYLINE
  8
GND
 66
      1
 70
1
 40
0.0390
 41
0.0390
  0
VERTEX
  8
GND
 10
4.6270
 20
4.1710
 30
 0.0
 42
1.0
  0
VERTEX
  8
GND
 10
4.6650
 20
4.1710
 30
 0.0
 42
1.0
  0
SEQEND
  8
GND
  0
POLYLINE
  8
GND
 66
      1
 70
1
 40
0.0390
 41
0.0390
  0
VERTEX
  8
GND
 10
4.6270
 20
4.2710
 30
 0.0
 42
1.0
  0
VERTEX
  8
GND
 10
4.6650
 20
4.2710
 30
 0.0
 42
1.0
  0
SEQEND
  8
GND
  0
POLYLINE
  8
GND
 66
      1
 70
1
 40
0.0390
 41
0.0390
  0
VERTEX
  8
GND
 10
4.6270
 20
4.3710
 30
 0.0
 42
1.0
  0
VERTEX
  8
GND
 10
4.6650
 20
4.3710
 30
 0.0
 42
1.0
  0
SEQEND
  8
GND
 0
SOLID
  8
GND
 10
4.6070
 20
4.4320
 11
4.6850
 21
4.4320
 12
4.6070
 22
4.5100
 13
4.6850
 23
4.5100
  0
POLYLINE
  8
GND
 66
      1
 70
1
 40
0.0390
 41
0.0390
  0
VERTEX
  8
GND
 10
5.0270
 20
4.1710
 30
 0.0
 42
1.0
  0
VERTEX
  8
GND
 10
5.0650
 20
4.1710
 30
 0.0
 42
1.0
  0
SEQEND
  8
GND
  0
POLYLINE
  8
GND
 66
      1
 70
1
 40
0.0390
 41
0.0390
  0
VERTEX
  8
GND
 10
5.0270
 20
4.2710
 30
 0.0
 42
1.0
  0
VERTEX
  8
GND
 10
5.0650
 20
4.2710
 30
 0.0
 42
1.0
  0
SEQEND
  8
GND
  0
POLYLINE
  8
GND
 66
      1
 70
1
 40
0.0390
 41
0.0390
  0
VERTEX
  8
GND
 10
5.0270
 20
4.3710
 30
 0.0
 42
1.0
  0
VERTEX
  8
GND
 10
5.0650
 20
4.3710
 30
 0.0
 42
1.0
  0
SEQEND
  8
GND
 0
SOLID
  8
GND
 10
5.0070
 20
4.4320
 11
5.0850
 21
4.4320
 12
5.0070
 22
4.5100
 13
5.0850
 23
4.5100
  0
POLYLINE
  8
GND
 66
      1
 70
1
 40
0.0390
 41
0.0390
  0
VERTEX
  8
GND
 10
5.4270
 20
4.1710
 30
 0.0
 42
1.0
  0
VERTEX
  8
GND
 10
5.4650
 20
4.1710
 30
 0.0
 42
1.0
  0
SEQEND
  8
GND
  0
POLYLINE
  8
GND
 66
      1
 70
1
 40
0.0390
 41
0.0390
  0
VERTEX
  8
GND
 10
5.4270
 20
4.2710
 30
 0.0
 42
1.0
  0
VERTEX
  8
GND
 10
5.4650
 20
4.2710
 30
 0.0
 42
1.0
  0
SEQEND
  8
GND
  0
POLYLINE
  8
GND
 66
      1
 70
1
 40
0.0390
 41
0.0390
  0
VERTEX
  8
GND
 10
5.4270
 20
4.3710
 30
 0.0
 42
1.0
  0
VERTEX
  8
GND
 10
5.4650
 20
4.3710
 30
 0.0
 42
1.0
  0
SEQEND
  8
GND
 0
SOLID
  8
GND
 10
5.4070
 20
4.4320
 11
5.4850
 21
4.4320
 12
5.4070
 22
4.5100
 13
5.4850
 23
4.5100
  0
POLYLINE
  8
GND
 66
      1
 70
1
 40
0.0390
 41
0.0390
  0
VERTEX
  8
GND
 10
5.8270
 20
4.1710
 30
 0.0
 42
1.0
  0
VERTEX
  8
GND
 10
5.8650
 20
4.1710
 30
 0.0
 42
1.0
  0
SEQEND
  8
GND
  0
POLYLINE
  8
GND
 66
      1
 70
1
 40
0.0390
 41
0.0390
  0
VERTEX
  8
GND
 10
5.8270
 20
4.2710
 30
 0.0
 42
1.0
  0
VERTEX
  8
GND
 10
5.8650
 20
4.2710
 30
 0.0
 42
1.0
  0
SEQEND
  8
GND
  0
POLYLINE
  8
GND
 66
      1
 70
1
 40
0.0390
 41
0.0390
  0
VERTEX
  8
GND
 10
5.8270
 20
4.3710
 30
 0.0
 42
1.0
  0
VERTEX
  8
GND
 10
5.8650
 20
4.3710
 30
 0.0
 42
1.0
  0
SEQEND
  8
GND
 0
SOLID
  8
GND
 10
5.8070
 20
4.4320
 11
5.8850
 21
4.4320
 12
5.8070
 22
4.5100
 13
5.8850
 23
4.5100
  0
POLYLINE
  8
GND
 66
      1
 70
1
 40
0.0390
 41
0.0390
  0
VERTEX
  8
GND
 10
6.2270
 20
4.1710
 30
 0.0
 42
1.0
  0
VERTEX
  8
GND
 10
6.2650
 20
4.1710
 30
 0.0
 42
1.0
  0
SEQEND
  8
GND
  0
POLYLINE
  8
GND
 66
      1
 70
1
 40
0.0390
 41
0.0390
  0
VERTEX
  8
GND
 10
6.2270
 20
4.2710
 30
 0.0
 42
1.0
  0
VERTEX
  8
GND
 10
6.2650
 20
4.2710
 30
 0.0
 42
1.0
  0
SEQEND
  8
GND
  0
POLYLINE
  8
GND
 66
      1
 70
1
 40
0.0390
 41
0.0390
  0
VERTEX
  8
GND
 10
6.2270
 20
4.3710
 30
 0.0
 42
1.0
  0
VERTEX
  8
GND
 10
6.2650
 20
4.3710
 30
 0.0
 42
1.0
  0
SEQEND
  8
GND
 0
SOLID
  8
GND
 10
6.2070
 20
4.4320
 11
6.2850
 21
4.4320
 12
6.2070
 22
4.5100
 13
6.2850
 23
4.5100
  0
POLYLINE
  8
GND
 66
      1
 70
1
 40
0.0390
 41
0.0390
  0
VERTEX
  8
GND
 10
6.6270
 20
4.1710
 30
 0.0
 42
1.0
  0
VERTEX
  8
GND
 10
6.6650
 20
4.1710
 30
 0.0
 42
1.0
  0
SEQEND
  8
GND
  0
POLYLINE
  8
GND
 66
      1
 70
1
 40
0.0390
 41
0.0390
  0
VERTEX
  8
GND
 10
6.6270
 20
4.2710
 30
 0.0
 42
1.0
  0
VERTEX
  8
GND
 10
6.6650
 20
4.2710
 30
 0.0
 42
1.0
  0
SEQEND
  8
GND
  0
POLYLINE
  8
GND
 66
      1
 70
1
 40
0.0390
 41
0.0390
  0
VERTEX
  8
GND
 10
6.6270
 20
4.3710
 30
 0.0
 42
1.0
  0
VERTEX
  8
GND
 10
6.6650
 20
4.3710
 30
 0.0
 42
1.0
  0
SEQEND
  8
GND
 0
SOLID
  8
GND
 10
6.6070
 20
4.4320
 11
6.6850
 21
4.4320
 12
6.6070
 22
4.5100
 13
6.6850
 23
4.5100
  0
POLYLINE
  8
GND
 66
      1
 70
1
 40
0.0390
 41
0.0390
  0
VERTEX
  8
GND
 10
7.0270
 20
4.1710
 30
 0.0
 42
1.0
  0
VERTEX
  8
GND
 10
7.0650
 20
4.1710
 30
 0.0
 42
1.0
  0
SEQEND
  8
GND
  0
POLYLINE
  8
GND
 66
      1
 70
1
 40
0.0390
 41
0.0390
  0
VERTEX
  8
GND
 10
7.0270
 20
4.2710
 30
 0.0
 42
1.0
  0
VERTEX
  8
GND
 10
7.0650
 20
4.2710
 30
 0.0
 42
1.0
  0
SEQEND
  8
GND
  0
POLYLINE
  8
GND
 66
      1
 70
1
 40
0.0390
 41
0.0390
  0
VERTEX
  8
GND
 10
7.0270
 20
4.3710
 30
 0.0
 42
1.0
  0
VERTEX
  8
GND
 10
7.0650
 20
4.3710
 30
 0.0
 42
1.0
  0
SEQEND
  8
GND
 0
SOLID
  8
GND
 10
7.0070
 20
4.4320
 11
7.0850
 21
4.4320
 12
7.0070
 22
4.5100
 13
7.0850
 23
4.5100
  0
POLYLINE
  8
GND
 66
      1
 70
1
 40
0.0390
 41
0.0390
  0
VERTEX
  8
GND
 10
7.2270
 20
2.8710
 30
 0.0
 42
1.0
  0
VERTEX
  8
GND
 10
7.2650
 20
2.8710
 30
 0.0
 42
1.0
  0
SEQEND
  8
GND
  0
POLYLINE
  8
GND
 66
      1
 70
1
 40
0.0390
 41
0.0390
  0
VERTEX
  8
GND
 10
7.1270
 20
2.8710
 30
 0.0
 42
1.0
  0
VERTEX
  8
GND
 10
7.1650
 20
2.8710
 30
 0.0
 42
1.0
  0
SEQEND
  8
GND
  0
POLYLINE
  8
GND
 66
      1
 70
1
 40
0.0390
 41
0.0390
  0
VERTEX
  8
GND
 10
7.0270
 20
2.8710
 30
 0.0
 42
1.0
  0
VERTEX
  8
GND
 10
7.0650
 20
2.8710
 30
 0.0
 42
1.0
  0
SEQEND
  8
GND
 0
SOLID
  8
GND
 10
6.9070
 20
2.8320
 11
6.9850
 21
2.8320
 12
6.9070
 22
2.9100
 13
6.9850
 23
2.9100
  0
POLYLINE
  8
GND
 66
      1
 70
1
 40
0.0390
 41
0.0390
  0
VERTEX
  8
GND
 10
7.2270
 20
2.4710
 30
 0.0
 42
1.0
  0
VERTEX
  8
GND
 10
7.2650
 20
2.4710
 30
 0.0
 42
1.0
  0
SEQEND
  8
GND
  0
POLYLINE
  8
GND
 66
      1
 70
1
 40
0.0390
 41
0.0390
  0
VERTEX
  8
GND
 10
7.1270
 20
2.4710
 30
 0.0
 42
1.0
  0
VERTEX
  8
GND
 10
7.1650
 20
2.4710
 30
 0.0
 42
1.0
  0
SEQEND
  8
GND
  0
POLYLINE
  8
GND
 66
      1
 70
1
 40
0.0390
 41
0.0390
  0
VERTEX
  8
GND
 10
7.0270
 20
2.4710
 30
 0.0
 42
1.0
  0
VERTEX
  8
GND
 10
7.0650
 20
2.4710
 30
 0.0
 42
1.0
  0
SEQEND
  8
GND
 0
SOLID
  8
GND
 10
6.9070
 20
2.4320
 11
6.9850
 21
2.4320
 12
6.9070
 22
2.5100
 13
6.9850
 23
2.5100
  0
POLYLINE
  8
GND
 66
      1
 70
1
 40
0.0390
 41
0.0390
  0
VERTEX
  8
GND
 10
7.2270
 20
2.0710
 30
 0.0
 42
1.0
  0
VERTEX
  8
GND
 10
7.2650
 20
2.0710
 30
 0.0
 42
1.0
  0
SEQEND
  8
GND
  0
POLYLINE
  8
GND
 66
      1
 70
1
 40
0.0390
 41
0.0390
  0
VERTEX
  8
GND
 10
7.1270
 20
2.0710
 30
 0.0
 42
1.0
  0
VERTEX
  8
GND
 10
7.1650
 20
2.0710
 30
 0.0
 42
1.0
  0
SEQEND
  8
GND
  0
POLYLINE
  8
GND
 66
      1
 70
1
 40
0.0390
 41
0.0390
  0
VERTEX
  8
GND
 10
7.0270
 20
2.0710
 30
 0.0
 42
1.0
  0
VERTEX
  8
GND
 10
7.0650
 20
2.0710
 30
 0.0
 42
1.0
  0
SEQEND
  8
GND
 0
SOLID
  8
GND
 10
6.9070
 20
2.0320
 11
6.9850
 21
2.0320
 12
6.9070
 22
2.1100
 13
6.9850
 23
2.1100
  0
POLYLINE
  8
GND
 66
      1
 70
1
 40
0.0390
 41
0.0390
  0
VERTEX
  8
GND
 10
7.2270
 20
1.6710
 30
 0.0
 42
1.0
  0
VERTEX
  8
GND
 10
7.2650
 20
1.6710
 30
 0.0
 42
1.0
  0
SEQEND
  8
GND
  0
POLYLINE
  8
GND
 66
      1
 70
1
 40
0.0390
 41
0.0390
  0
VERTEX
  8
GND
 10
7.1270
 20
1.6710
 30
 0.0
 42
1.0
  0
VERTEX
  8
GND
 10
7.1650
 20
1.6710
 30
 0.0
 42
1.0
  0
SEQEND
  8
GND
  0
POLYLINE
  8
GND
 66
      1
 70
1
 40
0.0390
 41
0.0390
  0
VERTEX
  8
GND
 10
7.0270
 20
1.6710
 30
 0.0
 42
1.0
  0
VERTEX
  8
GND
 10
7.0650
 20
1.6710
 30
 0.0
 42
1.0
  0
SEQEND
  8
GND
 0
SOLID
  8
GND
 10
6.9070
 20
1.6320
 11
6.9850
 21
1.6320
 12
6.9070
 22
1.7100
 13
6.9850
 23
1.7100
  0
POLYLINE
  8
GND
 66
      1
 70
1
 40
0.0390
 41
0.0390
  0
VERTEX
  8
GND
 10
7.2270
 20
1.2710
 30
 0.0
 42
1.0
  0
VERTEX
  8
GND
 10
7.2650
 20
1.2710
 30
 0.0
 42
1.0
  0
SEQEND
  8
GND
  0
POLYLINE
  8
GND
 66
      1
 70
1
 40
0.0390
 41
0.0390
  0
VERTEX
  8
GND
 10
7.1270
 20
1.2710
 30
 0.0
 42
1.0
  0
VERTEX
  8
GND
 10
7.1650
 20
1.2710
 30
 0.0
 42
1.0
  0
SEQEND
  8
GND
  0
POLYLINE
  8
GND
 66
      1
 70
1
 40
0.0390
 41
0.0390
  0
VERTEX
  8
GND
 10
7.0270
 20
1.2710
 30
 0.0
 42
1.0
  0
VERTEX
  8
GND
 10
7.0650
 20
1.2710
 30
 0.0
 42
1.0
  0
SEQEND
  8
GND
 0
SOLID
  8
GND
 10
6.9070
 20
1.2320
 11
6.9850
 21
1.2320
 12
6.9070
 22
1.3100
 13
6.9850
 23
1.3100
  0
POLYLINE
  8
GND
 66
      1
 70
1
 40
0.0360
 41
0.0360
  0
VERTEX
  8
GND
 10
0.5280
 20
0.6710
 30
 0.0
 42
1.0
  0
VERTEX
  8
GND
 10
0.5640
 20
0.6710
 30
 0.0
 42
1.0
  0
SEQEND
  8
GND
  0
POLYLINE
  8
GND
 66
      1
 70
1
 40
0.0360
 41
0.0360
  0
VERTEX
  8
GND
 10
0.5280
 20
0.3710
 30
 0.0
 42
1.0
  0
VERTEX
  8
GND
 10
0.5640
 20
0.3710
 30
 0.0
 42
1.0
  0
SEQEND
  8
GND
  0
POLYLINE
  8
GND
 66
      1
 70
1
 40
0.0360
 41
0.0360
  0
VERTEX
  8
GND
 10
0.6280
 20
0.6710
 30
 0.0
 42
1.0
  0
VERTEX
  8
GND
 10
0.6640
 20
0.6710
 30
 0.0
 42
1.0
  0
SEQEND
  8
GND
  0
POLYLINE
  8
GND
 66
      1
 70
1
 40
0.0360
 41
0.0360
  0
VERTEX
  8
GND
 10
0.6280
 20
0.3710
 30
 0.0
 42
1.0
  0
VERTEX
  8
GND
 10
0.6640
 20
0.3710
 30
 0.0
 42
1.0
  0
SEQEND
  8
GND
  0
POLYLINE
  8
GND
 66
      1
 70
1
 40
0.0360
 41
0.0360
  0
VERTEX
  8
GND
 10
0.7280
 20
0.6710
 30
 0.0
 42
1.0
  0
VERTEX
  8
GND
 10
0.7640
 20
0.6710
 30
 0.0
 42
1.0
  0
SEQEND
  8
GND
  0
POLYLINE
  8
GND
 66
      1
 70
1
 40
0.0360
 41
0.0360
  0
VERTEX
  8
GND
 10
0.7280
 20
0.3710
 30
 0.0
 42
1.0
  0
VERTEX
  8
GND
 10
0.7640
 20
0.3710
 30
 0.0
 42
1.0
  0
SEQEND
  8
GND
  0
POLYLINE
  8
GND
 66
      1
 70
1
 40
0.0360
 41
0.0360
  0
VERTEX
  8
GND
 10
0.8280
 20
0.6710
 30
 0.0
 42
1.0
  0
VERTEX
  8
GND
 10
0.8640
 20
0.6710
 30
 0.0
 42
1.0
  0
SEQEND
  8
GND
  0
POLYLINE
  8
GND
 66
      1
 70
1
 40
0.0360
 41
0.0360
  0
VERTEX
  8
GND
 10
0.8280
 20
0.3710
 30
 0.0
 42
1.0
  0
VERTEX
  8
GND
 10
0.8640
 20
0.3710
 30
 0.0
 42
1.0
  0
SEQEND
  8
GND
  0
POLYLINE
  8
GND
 66
      1
 70
1
 40
0.0360
 41
0.0360
  0
VERTEX
  8
GND
 10
0.9280
 20
0.6710
 30
 0.0
 42
1.0
  0
VERTEX
  8
GND
 10
0.9640
 20
0.6710
 30
 0.0
 42
1.0
  0
SEQEND
  8
GND
  0
POLYLINE
  8
GND
 66
      1
 70
1
 40
0.0360
 41
0.0360
  0
VERTEX
  8
GND
 10
0.9280
 20
0.3710
 30
 0.0
 42
1.0
  0
VERTEX
  8
GND
 10
0.9640
 20
0.3710
 30
 0.0
 42
1.0
  0
SEQEND
  8
GND
  0
POLYLINE
  8
GND
 66
      1
 70
1
 40
0.0360
 41
0.0360
  0
VERTEX
  8
GND
 10
1.0280
 20
0.6710
 30
 0.0
 42
1.0
  0
VERTEX
  8
GND
 10
1.0640
 20
0.6710
 30
 0.0
 42
1.0
  0
SEQEND
  8
GND
  0
POLYLINE
  8
GND
 66
      1
 70
1
 40
0.0360
 41
0.0360
  0
VERTEX
  8
GND
 10
1.0280
 20
0.3710
 30
 0.0
 42
1.0
  0
VERTEX
  8
GND
 10
1.0640
 20
0.3710
 30
 0.0
 42
1.0
  0
SEQEND
  8
GND
  0
POLYLINE
  8
GND
 66
      1
 70
1
 40
0.0360
 41
0.0360
  0
VERTEX
  8
GND
 10
1.1280
 20
0.6710
 30
 0.0
 42
1.0
  0
VERTEX
  8
GND
 10
1.1640
 20
0.6710
 30
 0.0
 42
1.0
  0
SEQEND
  8
GND
  0
POLYLINE
  8
GND
 66
      1
 70
1
 40
0.0360
 41
0.0360
  0
VERTEX
  8
GND
 10
1.1280
 20
0.3710
 30
 0.0
 42
1.0
  0
VERTEX
  8
GND
 10
1.1640
 20
0.3710
 30
 0.0
 42
1.0
  0
SEQEND
  8
GND
  0
POLYLINE
  8
GND
 66
      1
 70
1
 40
0.0360
 41
0.0360
  0
VERTEX
  8
GND
 10
1.2280
 20
0.6710
 30
 0.0
 42
1.0
  0
VERTEX
  8
GND
 10
1.2640
 20
0.6710
 30
 0.0
 42
1.0
  0
SEQEND
  8
GND
  0
POLYLINE
  8
GND
 66
      1
 70
1
 40
0.0360
 41
0.0360
  0
VERTEX
  8
GND
 10
1.2280
 20
0.3710
 30
 0.0
 42
1.0
  0
VERTEX
  8
GND
 10
1.2640
 20
0.3710
 30
 0.0
 42
1.0
  0
SEQEND
  8
GND
  0
POLYLINE
  8
GND
 66
      1
 70
1
 40
0.0360
 41
0.0360
  0
VERTEX
  8
GND
 10
1.4280
 20
0.6710
 30
 0.0
 42
1.0
  0
VERTEX
  8
GND
 10
1.4640
 20
0.6710
 30
 0.0
 42
1.0
  0
SEQEND
  8
GND
  0
POLYLINE
  8
GND
 66
      1
 70
1
 40
0.0360
 41
0.0360
  0
VERTEX
  8
GND
 10
1.4280
 20
0.3710
 30
 0.0
 42
1.0
  0
VERTEX
  8
GND
 10
1.4640
 20
0.3710
 30
 0.0
 42
1.0
  0
SEQEND
  8
GND
  0
POLYLINE
  8
GND
 66
      1
 70
1
 40
0.0360
 41
0.0360
  0
VERTEX
  8
GND
 10
1.5280
 20
0.6710
 30
 0.0
 42
1.0
  0
VERTEX
  8
GND
 10
1.5640
 20
0.6710
 30
 0.0
 42
1.0
  0
SEQEND
  8
GND
  0
POLYLINE
  8
GND
 66
      1
 70
1
 40
0.0360
 41
0.0360
  0
VERTEX
  8
GND
 10
1.5280
 20
0.3710
 30
 0.0
 42
1.0
  0
VERTEX
  8
GND
 10
1.5640
 20
0.3710
 30
 0.0
 42
1.0
  0
SEQEND
  8
GND
  0
POLYLINE
  8
GND
 66
      1
 70
1
 40
0.0360
 41
0.0360
  0
VERTEX
  8
GND
 10
1.6280
 20
0.6710
 30
 0.0
 42
1.0
  0
VERTEX
  8
GND
 10
1.6640
 20
0.6710
 30
 0.0
 42
1.0
  0
SEQEND
  8
GND
  0
POLYLINE
  8
GND
 66
      1
 70
1
 40
0.0360
 41
0.0360
  0
VERTEX
  8
GND
 10
1.6280
 20
0.3710
 30
 0.0
 42
1.0
  0
VERTEX
  8
GND
 10
1.6640
 20
0.3710
 30
 0.0
 42
1.0
  0
SEQEND
  8
GND
  0
POLYLINE
  8
GND
 66
      1
 70
1
 40
0.0360
 41
0.0360
  0
VERTEX
  8
GND
 10
1.7280
 20
0.6710
 30
 0.0
 42
1.0
  0
VERTEX
  8
GND
 10
1.7640
 20
0.6710
 30
 0.0
 42
1.0
  0
SEQEND
  8
GND
  0
POLYLINE
  8
GND
 66
      1
 70
1
 40
0.0360
 41
0.0360
  0
VERTEX
  8
GND
 10
1.7280
 20
0.3710
 30
 0.0
 42
1.0
  0
VERTEX
  8
GND
 10
1.7640
 20
0.3710
 30
 0.0
 42
1.0
  0
SEQEND
  8
GND
  0
POLYLINE
  8
GND
 66
      1
 70
1
 40
0.0360
 41
0.0360
  0
VERTEX
  8
GND
 10
1.8280
 20
0.6710
 30
 0.0
 42
1.0
  0
VERTEX
  8
GND
 10
1.8640
 20
0.6710
 30
 0.0
 42
1.0
  0
SEQEND
  8
GND
  0
POLYLINE
  8
GND
 66
      1
 70
1
 40
0.0360
 41
0.0360
  0
VERTEX
  8
GND
 10
1.8280
 20
0.3710
 30
 0.0
 42
1.0
  0
VERTEX
  8
GND
 10
1.8640
 20
0.3710
 30
 0.0
 42
1.0
  0
SEQEND
  8
GND
  0
POLYLINE
  8
GND
 66
      1
 70
1
 40
0.0360
 41
0.0360
  0
VERTEX
  8
GND
 10
1.9280
 20
0.6710
 30
 0.0
 42
1.0
  0
VERTEX
  8
GND
 10
1.9640
 20
0.6710
 30
 0.0
 42
1.0
  0
SEQEND
  8
GND
  0
POLYLINE
  8
GND
 66
      1
 70
1
 40
0.0360
 41
0.0360
  0
VERTEX
  8
GND
 10
1.9280
 20
0.3710
 30
 0.0
 42
1.0
  0
VERTEX
  8
GND
 10
1.9640
 20
0.3710
 30
 0.0
 42
1.0
  0
SEQEND
  8
GND
  0
POLYLINE
  8
GND
 66
      1
 70
1
 40
0.0360
 41
0.0360
  0
VERTEX
  8
GND
 10
2.0280
 20
1.6710
 30
 0.0
 42
1.0
  0
VERTEX
  8
GND
 10
2.0640
 20
1.6710
 30
 0.0
 42
1.0
  0
SEQEND
  8
GND
  0
POLYLINE
  8
GND
 66
      1
 70
1
 40
0.0360
 41
0.0360
  0
VERTEX
  8
GND
 10
2.0280
 20
1.9710
 30
 0.0
 42
1.0
  0
VERTEX
  8
GND
 10
2.0640
 20
1.9710
 30
 0.0
 42
1.0
  0
SEQEND
  8
GND
  0
POLYLINE
  8
GND
 66
      1
 70
1
 40
0.0360
 41
0.0360
  0
VERTEX
  8
GND
 10
2.1280
 20
1.6710
 30
 0.0
 42
1.0
  0
VERTEX
  8
GND
 10
2.1640
 20
1.6710
 30
 0.0
 42
1.0
  0
SEQEND
  8
GND
  0
POLYLINE
  8
GND
 66
      1
 70
1
 40
0.0360
 41
0.0360
  0
VERTEX
  8
GND
 10
2.1280
 20
1.9710
 30
 0.0
 42
1.0
  0
VERTEX
  8
GND
 10
2.1640
 20
1.9710
 30
 0.0
 42
1.0
  0
SEQEND
  8
GND
  0
POLYLINE
  8
GND
 66
      1
 70
1
 40
0.0360
 41
0.0360
  0
VERTEX
  8
GND
 10
2.0280
 20
0.6710
 30
 0.0
 42
1.0
  0
VERTEX
  8
GND
 10
2.0640
 20
0.6710
 30
 0.0
 42
1.0
  0
SEQEND
  8
GND
  0
POLYLINE
  8
GND
 66
      1
 70
1
 40
0.0360
 41
0.0360
  0
VERTEX
  8
GND
 10
2.0280
 20
0.3710
 30
 0.0
 42
1.0
  0
VERTEX
  8
GND
 10
2.0640
 20
0.3710
 30
 0.0
 42
1.0
  0
SEQEND
  8
GND
  0
POLYLINE
  8
GND
 66
      1
 70
1
 40
0.0360
 41
0.0360
  0
VERTEX
  8
GND
 10
2.1280
 20
0.6710
 30
 0.0
 42
1.0
  0
VERTEX
  8
GND
 10
2.1640
 20
0.6710
 30
 0.0
 42
1.0
  0
SEQEND
  8
GND
  0
POLYLINE
  8
GND
 66
      1
 70
1
 40
0.0360
 41
0.0360
  0
VERTEX
  8
GND
 10
2.1280
 20
0.3710
 30
 0.0
 42
1.0
  0
VERTEX
  8
GND
 10
2.1640
 20
0.3710
 30
 0.0
 42
1.0
  0
SEQEND
  8
GND
  0
POLYLINE
  8
GND
 66
      1
 70
1
 40
0.0360
 41
0.0360
  0
VERTEX
  8
GND
 10
2.3280
 20
0.6710
 30
 0.0
 42
1.0
  0
VERTEX
  8
GND
 10
2.3640
 20
0.6710
 30
 0.0
 42
1.0
  0
SEQEND
  8
GND
  0
POLYLINE
  8
GND
 66
      1
 70
1
 40
0.0360
 41
0.0360
  0
VERTEX
  8
GND
 10
2.3280
 20
0.3710
 30
 0.0
 42
1.0
  0
VERTEX
  8
GND
 10
2.3640
 20
0.3710
 30
 0.0
 42
1.0
  0
SEQEND
  8
GND
  0
POLYLINE
  8
GND
 66
      1
 70
1
 40
0.0360
 41
0.0360
  0
VERTEX
  8
GND
 10
2.4280
 20
0.6710
 30
 0.0
 42
1.0
  0
VERTEX
  8
GND
 10
2.4640
 20
0.6710
 30
 0.0
 42
1.0
  0
SEQEND
  8
GND
  0
POLYLINE
  8
GND
 66
      1
 70
1
 40
0.0360
 41
0.0360
  0
VERTEX
  8
GND
 10
2.4280
 20
0.3710
 30
 0.0
 42
1.0
  0
VERTEX
  8
GND
 10
2.4640
 20
0.3710
 30
 0.0
 42
1.0
  0
SEQEND
  8
GND
  0
POLYLINE
  8
GND
 66
      1
 70
1
 40
0.0360
 41
0.0360
  0
VERTEX
  8
GND
 10
2.5280
 20
0.6710
 30
 0.0
 42
1.0
  0
VERTEX
  8
GND
 10
2.5640
 20
0.6710
 30
 0.0
 42
1.0
  0
SEQEND
  8
GND
  0
POLYLINE
  8
GND
 66
      1
 70
1
 40
0.0360
 41
0.0360
  0
VERTEX
  8
GND
 10
2.5280
 20
0.3710
 30
 0.0
 42
1.0
  0
VERTEX
  8
GND
 10
2.5640
 20
0.3710
 30
 0.0
 42
1.0
  0
SEQEND
  8
GND
  0
POLYLINE
  8
GND
 66
      1
 70
1
 40
0.0360
 41
0.0360
  0
VERTEX
  8
GND
 10
2.6280
 20
0.6710
 30
 0.0
 42
1.0
  0
VERTEX
  8
GND
 10
2.6640
 20
0.6710
 30
 0.0
 42
1.0
  0
SEQEND
  8
GND
  0
POLYLINE
  8
GND
 66
      1
 70
1
 40
0.0360
 41
0.0360
  0
VERTEX
  8
GND
 10
2.6280
 20
0.3710
 30
 0.0
 42
1.0
  0
VERTEX
  8
GND
 10
2.6640
 20
0.3710
 30
 0.0
 42
1.0
  0
SEQEND
  8
GND
  0
POLYLINE
  8
GND
 66
      1
 70
1
 40
0.0360
 41
0.0360
  0
VERTEX
  8
GND
 10
2.7280
 20
0.6710
 30
 0.0
 42
1.0
  0
VERTEX
  8
GND
 10
2.7640
 20
0.6710
 30
 0.0
 42
1.0
  0
SEQEND
  8
GND
  0
POLYLINE
  8
GND
 66
      1
 70
1
 40
0.0360
 41
0.0360
  0
VERTEX
  8
GND
 10
2.7280
 20
0.3710
 30
 0.0
 42
1.0
  0
VERTEX
  8
GND
 10
2.7640
 20
0.3710
 30
 0.0
 42
1.0
  0
SEQEND
  8
GND
  0
POLYLINE
  8
GND
 66
      1
 70
1
 40
0.0360
 41
0.0360
  0
VERTEX
  8
GND
 10
2.8280
 20
0.6710
 30
 0.0
 42
1.0
  0
VERTEX
  8
GND
 10
2.8640
 20
0.6710
 30
 0.0
 42
1.0
  0
SEQEND
  8
GND
  0
POLYLINE
  8
GND
 66
      1
 70
1
 40
0.0360
 41
0.0360
  0
VERTEX
  8
GND
 10
2.8280
 20
0.3710
 30
 0.0
 42
1.0
  0
VERTEX
  8
GND
 10
2.8640
 20
0.3710
 30
 0.0
 42
1.0
  0
SEQEND
  8
GND
  0
POLYLINE
  8
GND
 66
      1
 70
1
 40
0.0360
 41
0.0360
  0
VERTEX
  8
GND
 10
2.9280
 20
0.6710
 30
 0.0
 42
1.0
  0
VERTEX
  8
GND
 10
2.9640
 20
0.6710
 30
 0.0
 42
1.0
  0
SEQEND
  8
GND
  0
POLYLINE
  8
GND
 66
      1
 70
1
 40
0.0360
 41
0.0360
  0
VERTEX
  8
GND
 10
2.9280
 20
0.3710
 30
 0.0
 42
1.0
  0
VERTEX
  8
GND
 10
2.9640
 20
0.3710
 30
 0.0
 42
1.0
  0
SEQEND
  8
GND
  0
POLYLINE
  8
GND
 66
      1
 70
1
 40
0.0360
 41
0.0360
  0
VERTEX
  8
GND
 10
3.0280
 20
0.6710
 30
 0.0
 42
1.0
  0
VERTEX
  8
GND
 10
3.0640
 20
0.6710
 30
 0.0
 42
1.0
  0
SEQEND
  8
GND
  0
POLYLINE
  8
GND
 66
      1
 70
1
 40
0.0360
 41
0.0360
  0
VERTEX
  8
GND
 10
3.0280
 20
0.3710
 30
 0.0
 42
1.0
  0
VERTEX
  8
GND
 10
3.0640
 20
0.3710
 30
 0.0
 42
1.0
  0
SEQEND
  8
GND
  0
POLYLINE
  8
GND
 66
      1
 70
1
 40
0.0360
 41
0.0360
  0
VERTEX
  8
GND
 10
3.1780
 20
3.8710
 30
 0.0
 42
1.0
  0
VERTEX
  8
GND
 10
3.2140
 20
3.8710
 30
 0.0
 42
1.0
  0
SEQEND
  8
GND
  0
POLYLINE
  8
GND
 66
      1
 70
1
 40
0.0360
 41
0.0360
  0
VERTEX
  8
GND
 10
3.4780
 20
3.8710
 30
 0.0
 42
1.0
  0
VERTEX
  8
GND
 10
3.5140
 20
3.8710
 30
 0.0
 42
1.0
  0
SEQEND
  8
GND
  0
POLYLINE
  8
GND
 66
      1
 70
1
 40
0.0360
 41
0.0360
  0
VERTEX
  8
GND
 10
3.4780
 20
3.6710
 30
 0.0
 42
1.0
  0
VERTEX
  8
GND
 10
3.5140
 20
3.6710
 30
 0.0
 42
1.0
  0
SEQEND
  8
GND
  0
POLYLINE
  8
GND
 66
      1
 70
1
 40
0.0360
 41
0.0360
  0
VERTEX
  8
GND
 10
3.1780
 20
3.6710
 30
 0.0
 42
1.0
  0
VERTEX
  8
GND
 10
3.2140
 20
3.6710
 30
 0.0
 42
1.0
  0
SEQEND
  8
GND
  0
POLYLINE
  8
GND
 66
      1
 70
1
 40
0.0360
 41
0.0360
  0
VERTEX
  8
GND
 10
3.1780
 20
3.4210
 30
 0.0
 42
1.0
  0
VERTEX
  8
GND
 10
3.2140
 20
3.4210
 30
 0.0
 42
1.0
  0
SEQEND
  8
GND
  0
POLYLINE
  8
GND
 66
      1
 70
1
 40
0.0360
 41
0.0360
  0
VERTEX
  8
GND
 10
3.4780
 20
3.4210
 30
 0.0
 42
1.0
  0
VERTEX
  8
GND
 10
3.5140
 20
3.4210
 30
 0.0
 42
1.0
  0
SEQEND
  8
GND
  0
POLYLINE
  8
GND
 66
      1
 70
1
 40
0.0360
 41
0.0360
  0
VERTEX
  8
GND
 10
3.4780
 20
3.2210
 30
 0.0
 42
1.0
  0
VERTEX
  8
GND
 10
3.5140
 20
3.2210
 30
 0.0
 42
1.0
  0
SEQEND
  8
GND
  0
POLYLINE
  8
GND
 66
      1
 70
1
 40
0.0360
 41
0.0360
  0
VERTEX
  8
GND
 10
3.1780
 20
3.2210
 30
 0.0
 42
1.0
  0
VERTEX
  8
GND
 10
3.2140
 20
3.2210
 30
 0.0
 42
1.0
  0
SEQEND
  8
GND
  0
POLYLINE
  8
GND
 66
      1
 70
1
 40
0.0360
 41
0.0360
  0
VERTEX
  8
GND
 10
3.1780
 20
1.8210
 30
 0.0
 42
1.0
  0
VERTEX
  8
GND
 10
3.2140
 20
1.8210
 30
 0.0
 42
1.0
  0
SEQEND
  8
GND
  0
POLYLINE
  8
GND
 66
      1
 70
1
 40
0.0360
 41
0.0360
  0
VERTEX
  8
GND
 10
3.4780
 20
1.8210
 30
 0.0
 42
1.0
  0
VERTEX
  8
GND
 10
3.5140
 20
1.8210
 30
 0.0
 42
1.0
  0
SEQEND
  8
GND
  0
POLYLINE
  8
GND
 66
      1
 70
1
 40
0.0360
 41
0.0360
  0
VERTEX
  8
GND
 10
3.4780
 20
1.7210
 30
 0.0
 42
1.0
  0
VERTEX
  8
GND
 10
3.5140
 20
1.7210
 30
 0.0
 42
1.0
  0
SEQEND
  8
GND
  0
POLYLINE
  8
GND
 66
      1
 70
1
 40
0.0360
 41
0.0360
  0
VERTEX
  8
GND
 10
3.1780
 20
1.7210
 30
 0.0
 42
1.0
  0
VERTEX
  8
GND
 10
3.2140
 20
1.7210
 30
 0.0
 42
1.0
  0
SEQEND
  8
GND
  0
POLYLINE
  8
GND
 66
      1
 70
1
 40
0.0360
 41
0.0360
  0
VERTEX
  8
GND
 10
3.1780
 20
1.6210
 30
 0.0
 42
1.0
  0
VERTEX
  8
GND
 10
3.2140
 20
1.6210
 30
 0.0
 42
1.0
  0
SEQEND
  8
GND
  0
POLYLINE
  8
GND
 66
      1
 70
1
 40
0.0360
 41
0.0360
  0
VERTEX
  8
GND
 10
3.4780
 20
1.6210
 30
 0.0
 42
1.0
  0
VERTEX
  8
GND
 10
3.5140
 20
1.6210
 30
 0.0
 42
1.0
  0
SEQEND
  8
GND
  0
POLYLINE
  8
GND
 66
      1
 70
1
 40
0.0360
 41
0.0360
  0
VERTEX
  8
GND
 10
3.4780
 20
1.5210
 30
 0.0
 42
1.0
  0
VERTEX
  8
GND
 10
3.5140
 20
1.5210
 30
 0.0
 42
1.0
  0
SEQEND
  8
GND
  0
POLYLINE
  8
GND
 66
      1
 70
1
 40
0.0360
 41
0.0360
  0
VERTEX
  8
GND
 10
3.1780
 20
1.5210
 30
 0.0
 42
1.0
  0
VERTEX
  8
GND
 10
3.2140
 20
1.5210
 30
 0.0
 42
1.0
  0
SEQEND
  8
GND
  0
POLYLINE
  8
GND
 66
      1
 70
1
 40
0.0360
 41
0.0360
  0
VERTEX
  8
GND
 10
3.1780
 20
1.4210
 30
 0.0
 42
1.0
  0
VERTEX
  8
GND
 10
3.2140
 20
1.4210
 30
 0.0
 42
1.0
  0
SEQEND
  8
GND
  0
POLYLINE
  8
GND
 66
      1
 70
1
 40
0.0360
 41
0.0360
  0
VERTEX
  8
GND
 10
3.4780
 20
1.4210
 30
 0.0
 42
1.0
  0
VERTEX
  8
GND
 10
3.5140
 20
1.4210
 30
 0.0
 42
1.0
  0
SEQEND
  8
GND
  0
POLYLINE
  8
GND
 66
      1
 70
1
 40
0.0360
 41
0.0360
  0
VERTEX
  8
GND
 10
3.4780
 20
1.3210
 30
 0.0
 42
1.0
  0
VERTEX
  8
GND
 10
3.5140
 20
1.3210
 30
 0.0
 42
1.0
  0
SEQEND
  8
GND
  0
POLYLINE
  8
GND
 66
      1
 70
1
 40
0.0360
 41
0.0360
  0
VERTEX
  8
GND
 10
3.1780
 20
1.3210
 30
 0.0
 42
1.0
  0
VERTEX
  8
GND
 10
3.2140
 20
1.3210
 30
 0.0
 42
1.0
  0
SEQEND
  8
GND
  0
POLYLINE
  8
GND
 66
      1
 70
1
 40
0.0360
 41
0.0360
  0
VERTEX
  8
GND
 10
3.1780
 20
1.2210
 30
 0.0
 42
1.0
  0
VERTEX
  8
GND
 10
3.2140
 20
1.2210
 30
 0.0
 42
1.0
  0
SEQEND
  8
GND
  0
POLYLINE
  8
GND
 66
      1
 70
1
 40
0.0360
 41
0.0360
  0
VERTEX
  8
GND
 10
3.4780
 20
1.2210
 30
 0.0
 42
1.0
  0
VERTEX
  8
GND
 10
3.5140
 20
1.2210
 30
 0.0
 42
1.0
  0
SEQEND
  8
GND
  0
POLYLINE
  8
GND
 66
      1
 70
1
 40
0.0360
 41
0.0360
  0
VERTEX
  8
GND
 10
3.4780
 20
1.1210
 30
 0.0
 42
1.0
  0
VERTEX
  8
GND
 10
3.5140
 20
1.1210
 30
 0.0
 42
1.0
  0
SEQEND
  8
GND
  0
POLYLINE
  8
GND
 66
      1
 70
1
 40
0.0360
 41
0.0360
  0
VERTEX
  8
GND
 10
3.1780
 20
1.1210
 30
 0.0
 42
1.0
  0
VERTEX
  8
GND
 10
3.2140
 20
1.1210
 30
 0.0
 42
1.0
  0
SEQEND
  8
GND
  0
POLYLINE
  8
GND
 66
      1
 70
1
 40
0.0360
 41
0.0360
  0
VERTEX
  8
GND
 10
4.0780
 20
3.8710
 30
 0.0
 42
1.0
  0
VERTEX
  8
GND
 10
4.1140
 20
3.8710
 30
 0.0
 42
1.0
  0
SEQEND
  8
GND
  0
POLYLINE
  8
GND
 66
      1
 70
1
 40
0.0360
 41
0.0360
  0
VERTEX
  8
GND
 10
4.3780
 20
3.8710
 30
 0.0
 42
1.0
  0
VERTEX
  8
GND
 10
4.4140
 20
3.8710
 30
 0.0
 42
1.0
  0
SEQEND
  8
GND
  0
POLYLINE
  8
GND
 66
      1
 70
1
 40
0.0360
 41
0.0360
  0
VERTEX
  8
GND
 10
4.3780
 20
3.6710
 30
 0.0
 42
1.0
  0
VERTEX
  8
GND
 10
4.4140
 20
3.6710
 30
 0.0
 42
1.0
  0
SEQEND
  8
GND
  0
POLYLINE
  8
GND
 66
      1
 70
1
 40
0.0360
 41
0.0360
  0
VERTEX
  8
GND
 10
4.0780
 20
3.6710
 30
 0.0
 42
1.0
  0
VERTEX
  8
GND
 10
4.1140
 20
3.6710
 30
 0.0
 42
1.0
  0
SEQEND
  8
GND
  0
POLYLINE
  8
GND
 66
      1
 70
1
 40
0.0360
 41
0.0360
  0
VERTEX
  8
GND
 10
4.3780
 20
3.4210
 30
 0.0
 42
1.0
  0
VERTEX
  8
GND
 10
4.4140
 20
3.4210
 30
 0.0
 42
1.0
  0
SEQEND
  8
GND
  0
POLYLINE
  8
GND
 66
      1
 70
1
 40
0.0360
 41
0.0360
  0
VERTEX
  8
GND
 10
4.0780
 20
3.4210
 30
 0.0
 42
1.0
  0
VERTEX
  8
GND
 10
4.1140
 20
3.4210
 30
 0.0
 42
1.0
  0
SEQEND
  8
GND
  0
POLYLINE
  8
GND
 66
      1
 70
1
 40
0.0360
 41
0.0360
  0
VERTEX
  8
GND
 10
4.3780
 20
3.2210
 30
 0.0
 42
1.0
  0
VERTEX
  8
GND
 10
4.4140
 20
3.2210
 30
 0.0
 42
1.0
  0
SEQEND
  8
GND
  0
POLYLINE
  8
GND
 66
      1
 70
1
 40
0.0360
 41
0.0360
  0
VERTEX
  8
GND
 10
4.0780
 20
3.2210
 30
 0.0
 42
1.0
  0
VERTEX
  8
GND
 10
4.1140
 20
3.2210
 30
 0.0
 42
1.0
  0
SEQEND
  8
GND
  0
POLYLINE
  8
GND
 66
      1
 70
1
 40
0.0360
 41
0.0360
  0
VERTEX
  8
GND
 10
4.3780
 20
2.7210
 30
 0.0
 42
1.0
  0
VERTEX
  8
GND
 10
4.4140
 20
2.7210
 30
 0.0
 42
1.0
  0
SEQEND
  8
GND
  0
POLYLINE
  8
GND
 66
      1
 70
1
 40
0.0360
 41
0.0360
  0
VERTEX
  8
GND
 10
4.0780
 20
2.7210
 30
 0.0
 42
1.0
  0
VERTEX
  8
GND
 10
4.1140
 20
2.7210
 30
 0.0
 42
1.0
  0
SEQEND
  8
GND
  0
POLYLINE
  8
GND
 66
      1
 70
1
 40
0.0360
 41
0.0360
  0
VERTEX
  8
GND
 10
4.0780
 20
2.5210
 30
 0.0
 42
1.0
  0
VERTEX
  8
GND
 10
4.1140
 20
2.5210
 30
 0.0
 42
1.0
  0
SEQEND
  8
GND
  0
POLYLINE
  8
GND
 66
      1
 70
1
 40
0.0360
 41
0.0360
  0
VERTEX
  8
GND
 10
4.3780
 20
2.5210
 30
 0.0
 42
1.0
  0
VERTEX
  8
GND
 10
4.4140
 20
2.5210
 30
 0.0
 42
1.0
  0
SEQEND
  8
GND
  0
POLYLINE
  8
GND
 66
      1
 70
1
 40
0.0360
 41
0.0360
  0
VERTEX
  8
GND
 10
4.0780
 20
2.3210
 30
 0.0
 42
1.0
  0
VERTEX
  8
GND
 10
4.1140
 20
2.3210
 30
 0.0
 42
1.0
  0
SEQEND
  8
GND
  0
POLYLINE
  8
GND
 66
      1
 70
1
 40
0.0360
 41
0.0360
  0
VERTEX
  8
GND
 10
4.3780
 20
2.3210
 30
 0.0
 42
1.0
  0
VERTEX
  8
GND
 10
4.4140
 20
2.3210
 30
 0.0
 42
1.0
  0
SEQEND
  8
GND
  0
POLYLINE
  8
GND
 66
      1
 70
1
 40
0.0360
 41
0.0360
  0
VERTEX
  8
GND
 10
4.0780
 20
2.1210
 30
 0.0
 42
1.0
  0
VERTEX
  8
GND
 10
4.1140
 20
2.1210
 30
 0.0
 42
1.0
  0
SEQEND
  8
GND
  0
POLYLINE
  8
GND
 66
      1
 70
1
 40
0.0360
 41
0.0360
  0
VERTEX
  8
GND
 10
4.3780
 20
2.1210
 30
 0.0
 42
1.0
  0
VERTEX
  8
GND
 10
4.4140
 20
2.1210
 30
 0.0
 42
1.0
  0
SEQEND
  8
GND
  0
POLYLINE
  8
GND
 66
      1
 70
1
 40
0.0360
 41
0.0360
  0
VERTEX
  8
GND
 10
4.0780
 20
1.8210
 30
 0.0
 42
1.0
  0
VERTEX
  8
GND
 10
4.1140
 20
1.8210
 30
 0.0
 42
1.0
  0
SEQEND
  8
GND
  0
POLYLINE
  8
GND
 66
      1
 70
1
 40
0.0360
 41
0.0360
  0
VERTEX
  8
GND
 10
4.3780
 20
1.8210
 30
 0.0
 42
1.0
  0
VERTEX
  8
GND
 10
4.4140
 20
1.8210
 30
 0.0
 42
1.0
  0
SEQEND
  8
GND
  0
POLYLINE
  8
GND
 66
      1
 70
1
 40
0.0360
 41
0.0360
  0
VERTEX
  8
GND
 10
4.3780
 20
1.7210
 30
 0.0
 42
1.0
  0
VERTEX
  8
GND
 10
4.4140
 20
1.7210
 30
 0.0
 42
1.0
  0
SEQEND
  8
GND
  0
POLYLINE
  8
GND
 66
      1
 70
1
 40
0.0360
 41
0.0360
  0
VERTEX
  8
GND
 10
4.0780
 20
1.7210
 30
 0.0
 42
1.0
  0
VERTEX
  8
GND
 10
4.1140
 20
1.7210
 30
 0.0
 42
1.0
  0
SEQEND
  8
GND
  0
POLYLINE
  8
GND
 66
      1
 70
1
 40
0.0360
 41
0.0360
  0
VERTEX
  8
GND
 10
4.0780
 20
1.6210
 30
 0.0
 42
1.0
  0
VERTEX
  8
GND
 10
4.1140
 20
1.6210
 30
 0.0
 42
1.0
  0
SEQEND
  8
GND
  0
POLYLINE
  8
GND
 66
      1
 70
1
 40
0.0360
 41
0.0360
  0
VERTEX
  8
GND
 10
4.3780
 20
1.6210
 30
 0.0
 42
1.0
  0
VERTEX
  8
GND
 10
4.4140
 20
1.6210
 30
 0.0
 42
1.0
  0
SEQEND
  8
GND
  0
POLYLINE
  8
GND
 66
      1
 70
1
 40
0.0360
 41
0.0360
  0
VERTEX
  8
GND
 10
4.3780
 20
1.5210
 30
 0.0
 42
1.0
  0
VERTEX
  8
GND
 10
4.4140
 20
1.5210
 30
 0.0
 42
1.0
  0
SEQEND
  8
GND
  0
POLYLINE
  8
GND
 66
      1
 70
1
 40
0.0360
 41
0.0360
  0
VERTEX
  8
GND
 10
4.0780
 20
1.5210
 30
 0.0
 42
1.0
  0
VERTEX
  8
GND
 10
4.1140
 20
1.5210
 30
 0.0
 42
1.0
  0
SEQEND
  8
GND
  0
POLYLINE
  8
GND
 66
      1
 70
1
 40
0.0360
 41
0.0360
  0
VERTEX
  8
GND
 10
4.0780
 20
1.4210
 30
 0.0
 42
1.0
  0
VERTEX
  8
GND
 10
4.1140
 20
1.4210
 30
 0.0
 42
1.0
  0
SEQEND
  8
GND
  0
POLYLINE
  8
GND
 66
      1
 70
1
 40
0.0360
 41
0.0360
  0
VERTEX
  8
GND
 10
4.3780
 20
1.4210
 30
 0.0
 42
1.0
  0
VERTEX
  8
GND
 10
4.4140
 20
1.4210
 30
 0.0
 42
1.0
  0
SEQEND
  8
GND
  0
POLYLINE
  8
GND
 66
      1
 70
1
 40
0.0360
 41
0.0360
  0
VERTEX
  8
GND
 10
4.3780
 20
1.3210
 30
 0.0
 42
1.0
  0
VERTEX
  8
GND
 10
4.4140
 20
1.3210
 30
 0.0
 42
1.0
  0
SEQEND
  8
GND
  0
POLYLINE
  8
GND
 66
      1
 70
1
 40
0.0360
 41
0.0360
  0
VERTEX
  8
GND
 10
4.0780
 20
1.3210
 30
 0.0
 42
1.0
  0
VERTEX
  8
GND
 10
4.1140
 20
1.3210
 30
 0.0
 42
1.0
  0
SEQEND
  8
GND
  0
POLYLINE
  8
GND
 66
      1
 70
1
 40
0.0360
 41
0.0360
  0
VERTEX
  8
GND
 10
4.0780
 20
1.2210
 30
 0.0
 42
1.0
  0
VERTEX
  8
GND
 10
4.1140
 20
1.2210
 30
 0.0
 42
1.0
  0
SEQEND
  8
GND
  0
POLYLINE
  8
GND
 66
      1
 70
1
 40
0.0360
 41
0.0360
  0
VERTEX
  8
GND
 10
4.3780
 20
1.2210
 30
 0.0
 42
1.0
  0
VERTEX
  8
GND
 10
4.4140
 20
1.2210
 30
 0.0
 42
1.0
  0
SEQEND
  8
GND
  0
POLYLINE
  8
GND
 66
      1
 70
1
 40
0.0360
 41
0.0360
  0
VERTEX
  8
GND
 10
4.3780
 20
1.1210
 30
 0.0
 42
1.0
  0
VERTEX
  8
GND
 10
4.4140
 20
1.1210
 30
 0.0
 42
1.0
  0
SEQEND
  8
GND
  0
POLYLINE
  8
GND
 66
      1
 70
1
 40
0.0360
 41
0.0360
  0
VERTEX
  8
GND
 10
4.0780
 20
1.1210
 30
 0.0
 42
1.0
  0
VERTEX
  8
GND
 10
4.1140
 20
1.1210
 30
 0.0
 42
1.0
  0
SEQEND
  8
GND
  0
POLYLINE
  8
GND
 66
      1
 70
1
 40
0.0360
 41
0.0360
  0
VERTEX
  8
GND
 10
4.9780
 20
3.8710
 30
 0.0
 42
1.0
  0
VERTEX
  8
GND
 10
5.0140
 20
3.8710
 30
 0.0
 42
1.0
  0
SEQEND
  8
GND
  0
POLYLINE
  8
GND
 66
      1
 70
1
 40
0.0360
 41
0.0360
  0
VERTEX
  8
GND
 10
5.2780
 20
3.8710
 30
 0.0
 42
1.0
  0
VERTEX
  8
GND
 10
5.3140
 20
3.8710
 30
 0.0
 42
1.0
  0
SEQEND
  8
GND
  0
POLYLINE
  8
GND
 66
      1
 70
1
 40
0.0360
 41
0.0360
  0
VERTEX
  8
GND
 10
5.2780
 20
3.6710
 30
 0.0
 42
1.0
  0
VERTEX
  8
GND
 10
5.3140
 20
3.6710
 30
 0.0
 42
1.0
  0
SEQEND
  8
GND
  0
POLYLINE
  8
GND
 66
      1
 70
1
 40
0.0360
 41
0.0360
  0
VERTEX
  8
GND
 10
4.9780
 20
3.6710
 30
 0.0
 42
1.0
  0
VERTEX
  8
GND
 10
5.0140
 20
3.6710
 30
 0.0
 42
1.0
  0
SEQEND
  8
GND
  0
POLYLINE
  8
GND
 66
      1
 70
1
 40
0.0360
 41
0.0360
  0
VERTEX
  8
GND
 10
4.9780
 20
3.4210
 30
 0.0
 42
1.0
  0
VERTEX
  8
GND
 10
5.0140
 20
3.4210
 30
 0.0
 42
1.0
  0
SEQEND
  8
GND
  0
POLYLINE
  8
GND
 66
      1
 70
1
 40
0.0360
 41
0.0360
  0
VERTEX
  8
GND
 10
5.2780
 20
3.4210
 30
 0.0
 42
1.0
  0
VERTEX
  8
GND
 10
5.3140
 20
3.4210
 30
 0.0
 42
1.0
  0
SEQEND
  8
GND
  0
POLYLINE
  8
GND
 66
      1
 70
1
 40
0.0360
 41
0.0360
  0
VERTEX
  8
GND
 10
5.2780
 20
3.2210
 30
 0.0
 42
1.0
  0
VERTEX
  8
GND
 10
5.3140
 20
3.2210
 30
 0.0
 42
1.0
  0
SEQEND
  8
GND
  0
POLYLINE
  8
GND
 66
      1
 70
1
 40
0.0360
 41
0.0360
  0
VERTEX
  8
GND
 10
4.9780
 20
3.2210
 30
 0.0
 42
1.0
  0
VERTEX
  8
GND
 10
5.0140
 20
3.2210
 30
 0.0
 42
1.0
  0
SEQEND
  8
GND
  0
POLYLINE
  8
GND
 66
      1
 70
1
 40
0.0360
 41
0.0360
  0
VERTEX
  8
GND
 10
4.8780
 20
2.8210
 30
 0.0
 42
1.0
  0
VERTEX
  8
GND
 10
4.9140
 20
2.8210
 30
 0.0
 42
1.0
  0
SEQEND
  8
GND
  0
POLYLINE
  8
GND
 66
      1
 70
1
 40
0.0360
 41
0.0360
  0
VERTEX
  8
GND
 10
5.1780
 20
2.8210
 30
 0.0
 42
1.0
  0
VERTEX
  8
GND
 10
5.2140
 20
2.8210
 30
 0.0
 42
1.0
  0
SEQEND
  8
GND
  0
POLYLINE
  8
GND
 66
      1
 70
1
 40
0.0360
 41
0.0360
  0
VERTEX
  8
GND
 10
4.8780
 20
2.7210
 30
 0.0
 42
1.0
  0
VERTEX
  8
GND
 10
4.9140
 20
2.7210
 30
 0.0
 42
1.0
  0
SEQEND
  8
GND
  0
POLYLINE
  8
GND
 66
      1
 70
1
 40
0.0360
 41
0.0360
  0
VERTEX
  8
GND
 10
5.1780
 20
2.7210
 30
 0.0
 42
1.0
  0
VERTEX
  8
GND
 10
5.2140
 20
2.7210
 30
 0.0
 42
1.0
  0
SEQEND
  8
GND
  0
POLYLINE
  8
GND
 66
      1
 70
1
 40
0.0360
 41
0.0360
  0
VERTEX
  8
GND
 10
4.8780
 20
2.6210
 30
 0.0
 42
1.0
  0
VERTEX
  8
GND
 10
4.9140
 20
2.6210
 30
 0.0
 42
1.0
  0
SEQEND
  8
GND
  0
POLYLINE
  8
GND
 66
      1
 70
1
 40
0.0360
 41
0.0360
  0
VERTEX
  8
GND
 10
5.1780
 20
2.6210
 30
 0.0
 42
1.0
  0
VERTEX
  8
GND
 10
5.2140
 20
2.6210
 30
 0.0
 42
1.0
  0
SEQEND
  8
GND
  0
POLYLINE
  8
GND
 66
      1
 70
1
 40
0.0360
 41
0.0360
  0
VERTEX
  8
GND
 10
4.8780
 20
2.5210
 30
 0.0
 42
1.0
  0
VERTEX
  8
GND
 10
4.9140
 20
2.5210
 30
 0.0
 42
1.0
  0
SEQEND
  8
GND
  0
POLYLINE
  8
GND
 66
      1
 70
1
 40
0.0360
 41
0.0360
  0
VERTEX
  8
GND
 10
5.1780
 20
2.5210
 30
 0.0
 42
1.0
  0
VERTEX
  8
GND
 10
5.2140
 20
2.5210
 30
 0.0
 42
1.0
  0
SEQEND
  8
GND
  0
POLYLINE
  8
GND
 66
      1
 70
1
 40
0.0360
 41
0.0360
  0
VERTEX
  8
GND
 10
4.8780
 20
2.4210
 30
 0.0
 42
1.0
  0
VERTEX
  8
GND
 10
4.9140
 20
2.4210
 30
 0.0
 42
1.0
  0
SEQEND
  8
GND
  0
POLYLINE
  8
GND
 66
      1
 70
1
 40
0.0360
 41
0.0360
  0
VERTEX
  8
GND
 10
5.1780
 20
2.4210
 30
 0.0
 42
1.0
  0
VERTEX
  8
GND
 10
5.2140
 20
2.4210
 30
 0.0
 42
1.0
  0
SEQEND
  8
GND
  0
POLYLINE
  8
GND
 66
      1
 70
1
 40
0.0360
 41
0.0360
  0
VERTEX
  8
GND
 10
4.8780
 20
2.3210
 30
 0.0
 42
1.0
  0
VERTEX
  8
GND
 10
4.9140
 20
2.3210
 30
 0.0
 42
1.0
  0
SEQEND
  8
GND
  0
POLYLINE
  8
GND
 66
      1
 70
1
 40
0.0360
 41
0.0360
  0
VERTEX
  8
GND
 10
5.1780
 20
2.3210
 30
 0.0
 42
1.0
  0
VERTEX
  8
GND
 10
5.2140
 20
2.3210
 30
 0.0
 42
1.0
  0
SEQEND
  8
GND
  0
POLYLINE
  8
GND
 66
      1
 70
1
 40
0.0360
 41
0.0360
  0
VERTEX
  8
GND
 10
4.8780
 20
2.2210
 30
 0.0
 42
1.0
  0
VERTEX
  8
GND
 10
4.9140
 20
2.2210
 30
 0.0
 42
1.0
  0
SEQEND
  8
GND
  0
POLYLINE
  8
GND
 66
      1
 70
1
 40
0.0360
 41
0.0360
  0
VERTEX
  8
GND
 10
5.1780
 20
2.2210
 30
 0.0
 42
1.0
  0
VERTEX
  8
GND
 10
5.2140
 20
2.2210
 30
 0.0
 42
1.0
  0
SEQEND
  8
GND
  0
POLYLINE
  8
GND
 66
      1
 70
1
 40
0.0360
 41
0.0360
  0
VERTEX
  8
GND
 10
4.8780
 20
2.1210
 30
 0.0
 42
1.0
  0
VERTEX
  8
GND
 10
4.9140
 20
2.1210
 30
 0.0
 42
1.0
  0
SEQEND
  8
GND
  0
POLYLINE
  8
GND
 66
      1
 70
1
 40
0.0360
 41
0.0360
  0
VERTEX
  8
GND
 10
5.1780
 20
2.1210
 30
 0.0
 42
1.0
  0
VERTEX
  8
GND
 10
5.2140
 20
2.1210
 30
 0.0
 42
1.0
  0
SEQEND
  8
GND
  0
POLYLINE
  8
GND
 66
      1
 70
1
 40
0.0360
 41
0.0360
  0
VERTEX
  8
GND
 10
4.9780
 20
1.8210
 30
 0.0
 42
1.0
  0
VERTEX
  8
GND
 10
5.0140
 20
1.8210
 30
 0.0
 42
1.0
  0
SEQEND
  8
GND
  0
POLYLINE
  8
GND
 66
      1
 70
1
 40
0.0360
 41
0.0360
  0
VERTEX
  8
GND
 10
5.2780
 20
1.8210
 30
 0.0
 42
1.0
  0
VERTEX
  8
GND
 10
5.3140
 20
1.8210
 30
 0.0
 42
1.0
  0
SEQEND
  8
GND
  0
POLYLINE
  8
GND
 66
      1
 70
1
 40
0.0360
 41
0.0360
  0
VERTEX
  8
GND
 10
4.9780
 20
1.7210
 30
 0.0
 42
1.0
  0
VERTEX
  8
GND
 10
5.0140
 20
1.7210
 30
 0.0
 42
1.0
  0
SEQEND
  8
GND
  0
POLYLINE
  8
GND
 66
      1
 70
1
 40
0.0360
 41
0.0360
  0
VERTEX
  8
GND
 10
5.2780
 20
1.7210
 30
 0.0
 42
1.0
  0
VERTEX
  8
GND
 10
5.3140
 20
1.7210
 30
 0.0
 42
1.0
  0
SEQEND
  8
GND
  0
POLYLINE
  8
GND
 66
      1
 70
1
 40
0.0360
 41
0.0360
  0
VERTEX
  8
GND
 10
4.9780
 20
1.6210
 30
 0.0
 42
1.0
  0
VERTEX
  8
GND
 10
5.0140
 20
1.6210
 30
 0.0
 42
1.0
  0
SEQEND
  8
GND
  0
POLYLINE
  8
GND
 66
      1
 70
1
 40
0.0360
 41
0.0360
  0
VERTEX
  8
GND
 10
5.2780
 20
1.6210
 30
 0.0
 42
1.0
  0
VERTEX
  8
GND
 10
5.3140
 20
1.6210
 30
 0.0
 42
1.0
  0
SEQEND
  8
GND
  0
POLYLINE
  8
GND
 66
      1
 70
1
 40
0.0360
 41
0.0360
  0
VERTEX
  8
GND
 10
4.9780
 20
1.5210
 30
 0.0
 42
1.0
  0
VERTEX
  8
GND
 10
5.0140
 20
1.5210
 30
 0.0
 42
1.0
  0
SEQEND
  8
GND
  0
POLYLINE
  8
GND
 66
      1
 70
1
 40
0.0360
 41
0.0360
  0
VERTEX
  8
GND
 10
5.2780
 20
1.5210
 30
 0.0
 42
1.0
  0
VERTEX
  8
GND
 10
5.3140
 20
1.5210
 30
 0.0
 42
1.0
  0
SEQEND
  8
GND
  0
POLYLINE
  8
GND
 66
      1
 70
1
 40
0.0360
 41
0.0360
  0
VERTEX
  8
GND
 10
4.9780
 20
1.4210
 30
 0.0
 42
1.0
  0
VERTEX
  8
GND
 10
5.0140
 20
1.4210
 30
 0.0
 42
1.0
  0
SEQEND
  8
GND
  0
POLYLINE
  8
GND
 66
      1
 70
1
 40
0.0360
 41
0.0360
  0
VERTEX
  8
GND
 10
5.2780
 20
1.4210
 30
 0.0
 42
1.0
  0
VERTEX
  8
GND
 10
5.3140
 20
1.4210
 30
 0.0
 42
1.0
  0
SEQEND
  8
GND
  0
POLYLINE
  8
GND
 66
      1
 70
1
 40
0.0360
 41
0.0360
  0
VERTEX
  8
GND
 10
5.2780
 20
1.3210
 30
 0.0
 42
1.0
  0
VERTEX
  8
GND
 10
5.3140
 20
1.3210
 30
 0.0
 42
1.0
  0
SEQEND
  8
GND
  0
POLYLINE
  8
GND
 66
      1
 70
1
 40
0.0360
 41
0.0360
  0
VERTEX
  8
GND
 10
4.9780
 20
1.3210
 30
 0.0
 42
1.0
  0
VERTEX
  8
GND
 10
5.0140
 20
1.3210
 30
 0.0
 42
1.0
  0
SEQEND
  8
GND
  0
POLYLINE
  8
GND
 66
      1
 70
1
 40
0.0360
 41
0.0360
  0
VERTEX
  8
GND
 10
4.9780
 20
1.2210
 30
 0.0
 42
1.0
  0
VERTEX
  8
GND
 10
5.0140
 20
1.2210
 30
 0.0
 42
1.0
  0
SEQEND
  8
GND
  0
POLYLINE
  8
GND
 66
      1
 70
1
 40
0.0360
 41
0.0360
  0
VERTEX
  8
GND
 10
5.2780
 20
1.2210
 30
 0.0
 42
1.0
  0
VERTEX
  8
GND
 10
5.3140
 20
1.2210
 30
 0.0
 42
1.0
  0
SEQEND
  8
GND
  0
POLYLINE
  8
GND
 66
      1
 70
1
 40
0.0360
 41
0.0360
  0
VERTEX
  8
GND
 10
5.2780
 20
1.1210
 30
 0.0
 42
1.0
  0
VERTEX
  8
GND
 10
5.3140
 20
1.1210
 30
 0.0
 42
1.0
  0
SEQEND
  8
GND
  0
POLYLINE
  8
GND
 66
      1
 70
1
 40
0.0360
 41
0.0360
  0
VERTEX
  8
GND
 10
4.9780
 20
1.1210
 30
 0.0
 42
1.0
  0
VERTEX
  8
GND
 10
5.0140
 20
1.1210
 30
 0.0
 42
1.0
  0
SEQEND
  8
GND
  0
POLYLINE
  8
GND
 66
      1
 70
1
 40
0.0360
 41
0.0360
  0
VERTEX
  8
GND
 10
5.4780
 20
2.7210
 30
 0.0
 42
1.0
  0
VERTEX
  8
GND
 10
5.5140
 20
2.7210
 30
 0.0
 42
1.0
  0
SEQEND
  8
GND
  0
POLYLINE
  8
GND
 66
      1
 70
1
 40
0.0360
 41
0.0360
  0
VERTEX
  8
GND
 10
5.7780
 20
2.7210
 30
 0.0
 42
1.0
  0
VERTEX
  8
GND
 10
5.8140
 20
2.7210
 30
 0.0
 42
1.0
  0
SEQEND
  8
GND
  0
POLYLINE
  8
GND
 66
      1
 70
1
 40
0.0360
 41
0.0360
  0
VERTEX
  8
GND
 10
5.4780
 20
2.5210
 30
 0.0
 42
1.0
  0
VERTEX
  8
GND
 10
5.5140
 20
2.5210
 30
 0.0
 42
1.0
  0
SEQEND
  8
GND
  0
POLYLINE
  8
GND
 66
      1
 70
1
 40
0.0360
 41
0.0360
  0
VERTEX
  8
GND
 10
5.7780
 20
2.5210
 30
 0.0
 42
1.0
  0
VERTEX
  8
GND
 10
5.8140
 20
2.5210
 30
 0.0
 42
1.0
  0
SEQEND
  8
GND
  0
POLYLINE
  8
GND
 66
      1
 70
1
 40
0.0360
 41
0.0360
  0
VERTEX
  8
GND
 10
5.4780
 20
2.3210
 30
 0.0
 42
1.0
  0
VERTEX
  8
GND
 10
5.5140
 20
2.3210
 30
 0.0
 42
1.0
  0
SEQEND
  8
GND
  0
POLYLINE
  8
GND
 66
      1
 70
1
 40
0.0360
 41
0.0360
  0
VERTEX
  8
GND
 10
5.7780
 20
2.3210
 30
 0.0
 42
1.0
  0
VERTEX
  8
GND
 10
5.8140
 20
2.3210
 30
 0.0
 42
1.0
  0
SEQEND
  8
GND
  0
POLYLINE
  8
GND
 66
      1
 70
1
 40
0.0360
 41
0.0360
  0
VERTEX
  8
GND
 10
5.4780
 20
2.1210
 30
 0.0
 42
1.0
  0
VERTEX
  8
GND
 10
5.5140
 20
2.1210
 30
 0.0
 42
1.0
  0
SEQEND
  8
GND
  0
POLYLINE
  8
GND
 66
      1
 70
1
 40
0.0360
 41
0.0360
  0
VERTEX
  8
GND
 10
5.7780
 20
2.1210
 30
 0.0
 42
1.0
  0
VERTEX
  8
GND
 10
5.8140
 20
2.1210
 30
 0.0
 42
1.0
  0
SEQEND
  8
GND
  0
POLYLINE
  8
GND
 66
      1
 70
1
 40
0.0360
 41
0.0360
  0
VERTEX
  8
GND
 10
5.8780
 20
3.8710
 30
 0.0
 42
1.0
  0
VERTEX
  8
GND
 10
5.9140
 20
3.8710
 30
 0.0
 42
1.0
  0
SEQEND
  8
GND
  0
POLYLINE
  8
GND
 66
      1
 70
1
 40
0.0360
 41
0.0360
  0
VERTEX
  8
GND
 10
6.1780
 20
3.8710
 30
 0.0
 42
1.0
  0
VERTEX
  8
GND
 10
6.2140
 20
3.8710
 30
 0.0
 42
1.0
  0
SEQEND
  8
GND
  0
POLYLINE
  8
GND
 66
      1
 70
1
 40
0.0360
 41
0.0360
  0
VERTEX
  8
GND
 10
6.1780
 20
3.6710
 30
 0.0
 42
1.0
  0
VERTEX
  8
GND
 10
6.2140
 20
3.6710
 30
 0.0
 42
1.0
  0
SEQEND
  8
GND
  0
POLYLINE
  8
GND
 66
      1
 70
1
 40
0.0360
 41
0.0360
  0
VERTEX
  8
GND
 10
5.8780
 20
3.6710
 30
 0.0
 42
1.0
  0
VERTEX
  8
GND
 10
5.9140
 20
3.6710
 30
 0.0
 42
1.0
  0
SEQEND
  8
GND
  0
POLYLINE
  8
GND
 66
      1
 70
1
 40
0.0360
 41
0.0360
  0
VERTEX
  8
GND
 10
5.8780
 20
3.4210
 30
 0.0
 42
1.0
  0
VERTEX
  8
GND
 10
5.9140
 20
3.4210
 30
 0.0
 42
1.0
  0
SEQEND
  8
GND
  0
POLYLINE
  8
GND
 66
      1
 70
1
 40
0.0360
 41
0.0360
  0
VERTEX
  8
GND
 10
6.1780
 20
3.4210
 30
 0.0
 42
1.0
  0
VERTEX
  8
GND
 10
6.2140
 20
3.4210
 30
 0.0
 42
1.0
  0
SEQEND
  8
GND
  0
POLYLINE
  8
GND
 66
      1
 70
1
 40
0.0360
 41
0.0360
  0
VERTEX
  8
GND
 10
6.1780
 20
3.2210
 30
 0.0
 42
1.0
  0
VERTEX
  8
GND
 10
6.2140
 20
3.2210
 30
 0.0
 42
1.0
  0
SEQEND
  8
GND
  0
POLYLINE
  8
GND
 66
      1
 70
1
 40
0.0360
 41
0.0360
  0
VERTEX
  8
GND
 10
5.8780
 20
3.2210
 30
 0.0
 42
1.0
  0
VERTEX
  8
GND
 10
5.9140
 20
3.2210
 30
 0.0
 42
1.0
  0
SEQEND
  8
GND
  0
POLYLINE
  8
GND
 66
      1
 70
1
 40
0.0360
 41
0.0360
  0
VERTEX
  8
GND
 10
5.8780
 20
1.8210
 30
 0.0
 42
1.0
  0
VERTEX
  8
GND
 10
5.9140
 20
1.8210
 30
 0.0
 42
1.0
  0
SEQEND
  8
GND
  0
POLYLINE
  8
GND
 66
      1
 70
1
 40
0.0360
 41
0.0360
  0
VERTEX
  8
GND
 10
6.1780
 20
1.8210
 30
 0.0
 42
1.0
  0
VERTEX
  8
GND
 10
6.2140
 20
1.8210
 30
 0.0
 42
1.0
  0
SEQEND
  8
GND
  0
POLYLINE
  8
GND
 66
      1
 70
1
 40
0.0360
 41
0.0360
  0
VERTEX
  8
GND
 10
5.8780
 20
1.7210
 30
 0.0
 42
1.0
  0
VERTEX
  8
GND
 10
5.9140
 20
1.7210
 30
 0.0
 42
1.0
  0
SEQEND
  8
GND
  0
POLYLINE
  8
GND
 66
      1
 70
1
 40
0.0360
 41
0.0360
  0
VERTEX
  8
GND
 10
6.1780
 20
1.7210
 30
 0.0
 42
1.0
  0
VERTEX
  8
GND
 10
6.2140
 20
1.7210
 30
 0.0
 42
1.0
  0
SEQEND
  8
GND
  0
POLYLINE
  8
GND
 66
      1
 70
1
 40
0.0360
 41
0.0360
  0
VERTEX
  8
GND
 10
6.1780
 20
1.6210
 30
 0.0
 42
1.0
  0
VERTEX
  8
GND
 10
6.2140
 20
1.6210
 30
 0.0
 42
1.0
  0
SEQEND
  8
GND
  0
POLYLINE
  8
GND
 66
      1
 70
1
 40
0.0360
 41
0.0360
  0
VERTEX
  8
GND
 10
5.8780
 20
1.6210
 30
 0.0
 42
1.0
  0
VERTEX
  8
GND
 10
5.9140
 20
1.6210
 30
 0.0
 42
1.0
  0
SEQEND
  8
GND
  0
POLYLINE
  8
GND
 66
      1
 70
1
 40
0.0360
 41
0.0360
  0
VERTEX
  8
GND
 10
6.1780
 20
1.5210
 30
 0.0
 42
1.0
  0
VERTEX
  8
GND
 10
6.2140
 20
1.5210
 30
 0.0
 42
1.0
  0
SEQEND
  8
GND
  0
POLYLINE
  8
GND
 66
      1
 70
1
 40
0.0360
 41
0.0360
  0
VERTEX
  8
GND
 10
5.8780
 20
1.5210
 30
 0.0
 42
1.0
  0
VERTEX
  8
GND
 10
5.9140
 20
1.5210
 30
 0.0
 42
1.0
  0
SEQEND
  8
GND
  0
POLYLINE
  8
GND
 66
      1
 70
1
 40
0.0360
 41
0.0360
  0
VERTEX
  8
GND
 10
6.1780
 20
1.4210
 30
 0.0
 42
1.0
  0
VERTEX
  8
GND
 10
6.2140
 20
1.4210
 30
 0.0
 42
1.0
  0
SEQEND
  8
GND
  0
POLYLINE
  8
GND
 66
      1
 70
1
 40
0.0360
 41
0.0360
  0
VERTEX
  8
GND
 10
5.8780
 20
1.4210
 30
 0.0
 42
1.0
  0
VERTEX
  8
GND
 10
5.9140
 20
1.4210
 30
 0.0
 42
1.0
  0
SEQEND
  8
GND
  0
POLYLINE
  8
GND
 66
      1
 70
1
 40
0.0360
 41
0.0360
  0
VERTEX
  8
GND
 10
5.8780
 20
1.3210
 30
 0.0
 42
1.0
  0
VERTEX
  8
GND
 10
5.9140
 20
1.3210
 30
 0.0
 42
1.0
  0
SEQEND
  8
GND
  0
POLYLINE
  8
GND
 66
      1
 70
1
 40
0.0360
 41
0.0360
  0
VERTEX
  8
GND
 10
6.1780
 20
1.3210
 30
 0.0
 42
1.0
  0
VERTEX
  8
GND
 10
6.2140
 20
1.3210
 30
 0.0
 42
1.0
  0
SEQEND
  8
GND
  0
POLYLINE
  8
GND
 66
      1
 70
1
 40
0.0360
 41
0.0360
  0
VERTEX
  8
GND
 10
6.1780
 20
1.2210
 30
 0.0
 42
1.0
  0
VERTEX
  8
GND
 10
6.2140
 20
1.2210
 30
 0.0
 42
1.0
  0
SEQEND
  8
GND
  0
POLYLINE
  8
GND
 66
      1
 70
1
 40
0.0360
 41
0.0360
  0
VERTEX
  8
GND
 10
5.8780
 20
1.2210
 30
 0.0
 42
1.0
  0
VERTEX
  8
GND
 10
5.9140
 20
1.2210
 30
 0.0
 42
1.0
  0
SEQEND
  8
GND
  0
POLYLINE
  8
GND
 66
      1
 70
1
 40
0.0360
 41
0.0360
  0
VERTEX
  8
GND
 10
5.8780
 20
1.1210
 30
 0.0
 42
1.0
  0
VERTEX
  8
GND
 10
5.9140
 20
1.1210
 30
 0.0
 42
1.0
  0
SEQEND
  8
GND
  0
POLYLINE
  8
GND
 66
      1
 70
1
 40
0.0360
 41
0.0360
  0
VERTEX
  8
GND
 10
6.1780
 20
1.1210
 30
 0.0
 42
1.0
  0
VERTEX
  8
GND
 10
6.2140
 20
1.1210
 30
 0.0
 42
1.0
  0
SEQEND
  8
GND
  0
POLYLINE
  8
GND
 66
      1
 70
1
 40
0.0360
 41
0.0360
  0
VERTEX
  8
GND
 10
6.2780
 20
2.8210
 30
 0.0
 42
1.0
  0
VERTEX
  8
GND
 10
6.3140
 20
2.8210
 30
 0.0
 42
1.0
  0
SEQEND
  8
GND
  0
POLYLINE
  8
GND
 66
      1
 70
1
 40
0.0360
 41
0.0360
  0
VERTEX
  8
GND
 10
6.5780
 20
2.8210
 30
 0.0
 42
1.0
  0
VERTEX
  8
GND
 10
6.6140
 20
2.8210
 30
 0.0
 42
1.0
  0
SEQEND
  8
GND
  0
POLYLINE
  8
GND
 66
      1
 70
1
 40
0.0360
 41
0.0360
  0
VERTEX
  8
GND
 10
6.2780
 20
2.7210
 30
 0.0
 42
1.0
  0
VERTEX
  8
GND
 10
6.3140
 20
2.7210
 30
 0.0
 42
1.0
  0
SEQEND
  8
GND
  0
POLYLINE
  8
GND
 66
      1
 70
1
 40
0.0360
 41
0.0360
  0
VERTEX
  8
GND
 10
6.5780
 20
2.7210
 30
 0.0
 42
1.0
  0
VERTEX
  8
GND
 10
6.6140
 20
2.7210
 30
 0.0
 42
1.0
  0
SEQEND
  8
GND
  0
POLYLINE
  8
GND
 66
      1
 70
1
 40
0.0360
 41
0.0360
  0
VERTEX
  8
GND
 10
6.2780
 20
2.6210
 30
 0.0
 42
1.0
  0
VERTEX
  8
GND
 10
6.3140
 20
2.6210
 30
 0.0
 42
1.0
  0
SEQEND
  8
GND
  0
POLYLINE
  8
GND
 66
      1
 70
1
 40
0.0360
 41
0.0360
  0
VERTEX
  8
GND
 10
6.5780
 20
2.6210
 30
 0.0
 42
1.0
  0
VERTEX
  8
GND
 10
6.6140
 20
2.6210
 30
 0.0
 42
1.0
  0
SEQEND
  8
GND
  0
POLYLINE
  8
GND
 66
      1
 70
1
 40
0.0360
 41
0.0360
  0
VERTEX
  8
GND
 10
6.2780
 20
2.5210
 30
 0.0
 42
1.0
  0
VERTEX
  8
GND
 10
6.3140
 20
2.5210
 30
 0.0
 42
1.0
  0
SEQEND
  8
GND
  0
POLYLINE
  8
GND
 66
      1
 70
1
 40
0.0360
 41
0.0360
  0
VERTEX
  8
GND
 10
6.5780
 20
2.5210
 30
 0.0
 42
1.0
  0
VERTEX
  8
GND
 10
6.6140
 20
2.5210
 30
 0.0
 42
1.0
  0
SEQEND
  8
GND
  0
POLYLINE
  8
GND
 66
      1
 70
1
 40
0.0360
 41
0.0360
  0
VERTEX
  8
GND
 10
6.2780
 20
2.4210
 30
 0.0
 42
1.0
  0
VERTEX
  8
GND
 10
6.3140
 20
2.4210
 30
 0.0
 42
1.0
  0
SEQEND
  8
GND
  0
POLYLINE
  8
GND
 66
      1
 70
1
 40
0.0360
 41
0.0360
  0
VERTEX
  8
GND
 10
6.5780
 20
2.4210
 30
 0.0
 42
1.0
  0
VERTEX
  8
GND
 10
6.6140
 20
2.4210
 30
 0.0
 42
1.0
  0
SEQEND
  8
GND
  0
POLYLINE
  8
GND
 66
      1
 70
1
 40
0.0360
 41
0.0360
  0
VERTEX
  8
GND
 10
6.2780
 20
2.3210
 30
 0.0
 42
1.0
  0
VERTEX
  8
GND
 10
6.3140
 20
2.3210
 30
 0.0
 42
1.0
  0
SEQEND
  8
GND
  0
POLYLINE
  8
GND
 66
      1
 70
1
 40
0.0360
 41
0.0360
  0
VERTEX
  8
GND
 10
6.5780
 20
2.3210
 30
 0.0
 42
1.0
  0
VERTEX
  8
GND
 10
6.6140
 20
2.3210
 30
 0.0
 42
1.0
  0
SEQEND
  8
GND
  0
POLYLINE
  8
GND
 66
      1
 70
1
 40
0.0360
 41
0.0360
  0
VERTEX
  8
GND
 10
6.2780
 20
2.2210
 30
 0.0
 42
1.0
  0
VERTEX
  8
GND
 10
6.3140
 20
2.2210
 30
 0.0
 42
1.0
  0
SEQEND
  8
GND
  0
POLYLINE
  8
GND
 66
      1
 70
1
 40
0.0360
 41
0.0360
  0
VERTEX
  8
GND
 10
6.5780
 20
2.2210
 30
 0.0
 42
1.0
  0
VERTEX
  8
GND
 10
6.6140
 20
2.2210
 30
 0.0
 42
1.0
  0
SEQEND
  8
GND
  0
POLYLINE
  8
GND
 66
      1
 70
1
 40
0.0360
 41
0.0360
  0
VERTEX
  8
GND
 10
6.2780
 20
2.1210
 30
 0.0
 42
1.0
  0
VERTEX
  8
GND
 10
6.3140
 20
2.1210
 30
 0.0
 42
1.0
  0
SEQEND
  8
GND
  0
POLYLINE
  8
GND
 66
      1
 70
1
 40
0.0360
 41
0.0360
  0
VERTEX
  8
GND
 10
6.5780
 20
2.1210
 30
 0.0
 42
1.0
  0
VERTEX
  8
GND
 10
6.6140
 20
2.1210
 30
 0.0
 42
1.0
  0
SEQEND
  8
GND
  0
POLYLINE
  8
GND
 66
      1
 70
1
 40
0.0390
 41
0.0390
  0
VERTEX
  8
GND
 10
0.5270
 20
1.0710
 30
 0.0
 42
1.0
  0
VERTEX
  8
GND
 10
0.5650
 20
1.0710
 30
 0.0
 42
1.0
  0
SEQEND
  8
GND
  0
POLYLINE
  8
GND
 66
      1
 70
1
 40
0.0390
 41
0.0390
  0
VERTEX
  8
GND
 10
0.6270
 20
1.0710
 30
 0.0
 42
1.0
  0
VERTEX
  8
GND
 10
0.6650
 20
1.0710
 30
 0.0
 42
1.0
  0
SEQEND
  8
GND
  0
POLYLINE
  8
GND
 66
      1
 70
1
 40
0.0390
 41
0.0390
  0
VERTEX
  8
GND
 10
0.7270
 20
1.0710
 30
 0.0
 42
1.0
  0
VERTEX
  8
GND
 10
0.7650
 20
1.0710
 30
 0.0
 42
1.0
  0
SEQEND
  8
GND
  0
POLYLINE
  8
GND
 66
      1
 70
1
 40
0.0390
 41
0.0390
  0
VERTEX
  8
GND
 10
0.8270
 20
1.0710
 30
 0.0
 42
1.0
  0
VERTEX
  8
GND
 10
0.8650
 20
1.0710
 30
 0.0
 42
1.0
  0
SEQEND
  8
GND
  0
POLYLINE
  8
GND
 66
      1
 70
1
 40
0.0390
 41
0.0390
  0
VERTEX
  8
GND
 10
0.9270
 20
1.0710
 30
 0.0
 42
1.0
  0
VERTEX
  8
GND
 10
0.9650
 20
1.0710
 30
 0.0
 42
1.0
  0
SEQEND
  8
GND
  0
POLYLINE
  8
GND
 66
      1
 70
1
 40
0.0390
 41
0.0390
  0
VERTEX
  8
GND
 10
1.0270
 20
1.0710
 30
 0.0
 42
1.0
  0
VERTEX
  8
GND
 10
1.0650
 20
1.0710
 30
 0.0
 42
1.0
  0
SEQEND
  8
GND
  0
POLYLINE
  8
GND
 66
      1
 70
1
 40
0.0390
 41
0.0390
  0
VERTEX
  8
GND
 10
1.1270
 20
1.0710
 30
 0.0
 42
1.0
  0
VERTEX
  8
GND
 10
1.1650
 20
1.0710
 30
 0.0
 42
1.0
  0
SEQEND
  8
GND
  0
POLYLINE
  8
GND
 66
      1
 70
1
 40
0.0390
 41
0.0390
  0
VERTEX
  8
GND
 10
1.2270
 20
1.0710
 30
 0.0
 42
1.0
  0
VERTEX
  8
GND
 10
1.2650
 20
1.0710
 30
 0.0
 42
1.0
  0
SEQEND
  8
GND
  0
POLYLINE
  8
GND
 66
      1
 70
1
 40
0.0390
 41
0.0390
  0
VERTEX
  8
GND
 10
1.2270
 20
0.7710
 30
 0.0
 42
1.0
  0
VERTEX
  8
GND
 10
1.2650
 20
0.7710
 30
 0.0
 42
1.0
  0
SEQEND
  8
GND
  0
POLYLINE
  8
GND
 66
      1
 70
1
 40
0.0390
 41
0.0390
  0
VERTEX
  8
GND
 10
1.1270
 20
0.7710
 30
 0.0
 42
1.0
  0
VERTEX
  8
GND
 10
1.1650
 20
0.7710
 30
 0.0
 42
1.0
  0
SEQEND
  8
GND
  0
POLYLINE
  8
GND
 66
      1
 70
1
 40
0.0390
 41
0.0390
  0
VERTEX
  8
GND
 10
1.0270
 20
0.7710
 30
 0.0
 42
1.0
  0
VERTEX
  8
GND
 10
1.0650
 20
0.7710
 30
 0.0
 42
1.0
  0
SEQEND
  8
GND
  0
POLYLINE
  8
GND
 66
      1
 70
1
 40
0.0390
 41
0.0390
  0
VERTEX
  8
GND
 10
0.9270
 20
0.7710
 30
 0.0
 42
1.0
  0
VERTEX
  8
GND
 10
0.9650
 20
0.7710
 30
 0.0
 42
1.0
  0
SEQEND
  8
GND
  0
POLYLINE
  8
GND
 66
      1
 70
1
 40
0.0390
 41
0.0390
  0
VERTEX
  8
GND
 10
0.8270
 20
0.7710
 30
 0.0
 42
1.0
  0
VERTEX
  8
GND
 10
0.8650
 20
0.7710
 30
 0.0
 42
1.0
  0
SEQEND
  8
GND
  0
POLYLINE
  8
GND
 66
      1
 70
1
 40
0.0390
 41
0.0390
  0
VERTEX
  8
GND
 10
0.7270
 20
0.7710
 30
 0.0
 42
1.0
  0
VERTEX
  8
GND
 10
0.7650
 20
0.7710
 30
 0.0
 42
1.0
  0
SEQEND
  8
GND
  0
POLYLINE
  8
GND
 66
      1
 70
1
 40
0.0390
 41
0.0390
  0
VERTEX
  8
GND
 10
0.6270
 20
0.7710
 30
 0.0
 42
1.0
  0
VERTEX
  8
GND
 10
0.6650
 20
0.7710
 30
 0.0
 42
1.0
  0
SEQEND
  8
GND
 0
SOLID
  8
GND
 10
0.5070
 20
0.7320
 11
0.5850
 21
0.7320
 12
0.5070
 22
0.8100
 13
0.5850
 23
0.8100
  0
POLYLINE
  8
GND
 66
      1
 70
1
 40
0.0390
 41
0.0390
  0
VERTEX
  8
GND
 10
1.1270
 20
1.7710
 30
 0.0
 42
1.0
  0
VERTEX
  8
GND
 10
1.1650
 20
1.7710
 30
 0.0
 42
1.0
  0
SEQEND
  8
GND
  0
POLYLINE
  8
GND
 66
      1
 70
1
 40
0.0390
 41
0.0390
  0
VERTEX
  8
GND
 10
1.2270
 20
1.7710
 30
 0.0
 42
1.0
  0
VERTEX
  8
GND
 10
1.2650
 20
1.7710
 30
 0.0
 42
1.0
  0
SEQEND
  8
GND
  0
POLYLINE
  8
GND
 66
      1
 70
1
 40
0.0390
 41
0.0390
  0
VERTEX
  8
GND
 10
1.3270
 20
1.7710
 30
 0.0
 42
1.0
  0
VERTEX
  8
GND
 10
1.3650
 20
1.7710
 30
 0.0
 42
1.0
  0
SEQEND
  8
GND
  0
POLYLINE
  8
GND
 66
      1
 70
1
 40
0.0390
 41
0.0390
  0
VERTEX
  8
GND
 10
1.4270
 20
1.7710
 30
 0.0
 42
1.0
  0
VERTEX
  8
GND
 10
1.4650
 20
1.7710
 30
 0.0
 42
1.0
  0
SEQEND
  8
GND
  0
POLYLINE
  8
GND
 66
      1
 70
1
 40
0.0390
 41
0.0390
  0
VERTEX
  8
GND
 10
1.5270
 20
1.7710
 30
 0.0
 42
1.0
  0
VERTEX
  8
GND
 10
1.5650
 20
1.7710
 30
 0.0
 42
1.0
  0
SEQEND
  8
GND
  0
POLYLINE
  8
GND
 66
      1
 70
1
 40
0.0390
 41
0.0390
  0
VERTEX
  8
GND
 10
1.6270
 20
1.7710
 30
 0.0
 42
1.0
  0
VERTEX
  8
GND
 10
1.6650
 20
1.7710
 30
 0.0
 42
1.0
  0
SEQEND
  8
GND
  0
POLYLINE
  8
GND
 66
      1
 70
1
 40
0.0390
 41
0.0390
  0
VERTEX
  8
GND
 10
1.7270
 20
1.7710
 30
 0.0
 42
1.0
  0
VERTEX
  8
GND
 10
1.7650
 20
1.7710
 30
 0.0
 42
1.0
  0
SEQEND
  8
GND
  0
POLYLINE
  8
GND
 66
      1
 70
1
 40
0.0390
 41
0.0390
  0
VERTEX
  8
GND
 10
1.8270
 20
1.7710
 30
 0.0
 42
1.0
  0
VERTEX
  8
GND
 10
1.8650
 20
1.7710
 30
 0.0
 42
1.0
  0
SEQEND
  8
GND
  0
POLYLINE
  8
GND
 66
      1
 70
1
 40
0.0390
 41
0.0390
  0
VERTEX
  8
GND
 10
1.8270
 20
1.4710
 30
 0.0
 42
1.0
  0
VERTEX
  8
GND
 10
1.8650
 20
1.4710
 30
 0.0
 42
1.0
  0
SEQEND
  8
GND
  0
POLYLINE
  8
GND
 66
      1
 70
1
 40
0.0390
 41
0.0390
  0
VERTEX
  8
GND
 10
1.7270
 20
1.4710
 30
 0.0
 42
1.0
  0
VERTEX
  8
GND
 10
1.7650
 20
1.4710
 30
 0.0
 42
1.0
  0
SEQEND
  8
GND
  0
POLYLINE
  8
GND
 66
      1
 70
1
 40
0.0390
 41
0.0390
  0
VERTEX
  8
GND
 10
1.6270
 20
1.4710
 30
 0.0
 42
1.0
  0
VERTEX
  8
GND
 10
1.6650
 20
1.4710
 30
 0.0
 42
1.0
  0
SEQEND
  8
GND
  0
POLYLINE
  8
GND
 66
      1
 70
1
 40
0.0390
 41
0.0390
  0
VERTEX
  8
GND
 10
1.5270
 20
1.4710
 30
 0.0
 42
1.0
  0
VERTEX
  8
GND
 10
1.5650
 20
1.4710
 30
 0.0
 42
1.0
  0
SEQEND
  8
GND
  0
POLYLINE
  8
GND
 66
      1
 70
1
 40
0.0390
 41
0.0390
  0
VERTEX
  8
GND
 10
1.4270
 20
1.4710
 30
 0.0
 42
1.0
  0
VERTEX
  8
GND
 10
1.4650
 20
1.4710
 30
 0.0
 42
1.0
  0
SEQEND
  8
GND
  0
POLYLINE
  8
GND
 66
      1
 70
1
 40
0.0390
 41
0.0390
  0
VERTEX
  8
GND
 10
1.3270
 20
1.4710
 30
 0.0
 42
1.0
  0
VERTEX
  8
GND
 10
1.3650
 20
1.4710
 30
 0.0
 42
1.0
  0
SEQEND
  8
GND
  0
POLYLINE
  8
GND
 66
      1
 70
1
 40
0.0390
 41
0.0390
  0
VERTEX
  8
GND
 10
1.2270
 20
1.4710
 30
 0.0
 42
1.0
  0
VERTEX
  8
GND
 10
1.2650
 20
1.4710
 30
 0.0
 42
1.0
  0
SEQEND
  8
GND
 0
SOLID
  8
GND
 10
1.1070
 20
1.4320
 11
1.1850
 21
1.4320
 12
1.1070
 22
1.5100
 13
1.1850
 23
1.5100
  0
POLYLINE
  8
GND
 66
      1
 70
1
 40
0.0390
 41
0.0390
  0
VERTEX
  8
GND
 10
1.4270
 20
1.0710
 30
 0.0
 42
1.0
  0
VERTEX
  8
GND
 10
1.4650
 20
1.0710
 30
 0.0
 42
1.0
  0
SEQEND
  8
GND
  0
POLYLINE
  8
GND
 66
      1
 70
1
 40
0.0390
 41
0.0390
  0
VERTEX
  8
GND
 10
1.5270
 20
1.0710
 30
 0.0
 42
1.0
  0
VERTEX
  8
GND
 10
1.5650
 20
1.0710
 30
 0.0
 42
1.0
  0
SEQEND
  8
GND
  0
POLYLINE
  8
GND
 66
      1
 70
1
 40
0.0390
 41
0.0390
  0
VERTEX
  8
GND
 10
1.6270
 20
1.0710
 30
 0.0
 42
1.0
  0
VERTEX
  8
GND
 10
1.6650
 20
1.0710
 30
 0.0
 42
1.0
  0
SEQEND
  8
GND
  0
POLYLINE
  8
GND
 66
      1
 70
1
 40
0.0390
 41
0.0390
  0
VERTEX
  8
GND
 10
1.7270
 20
1.0710
 30
 0.0
 42
1.0
  0
VERTEX
  8
GND
 10
1.7650
 20
1.0710
 30
 0.0
 42
1.0
  0
SEQEND
  8
GND
  0
POLYLINE
  8
GND
 66
      1
 70
1
 40
0.0390
 41
0.0390
  0
VERTEX
  8
GND
 10
1.8270
 20
1.0710
 30
 0.0
 42
1.0
  0
VERTEX
  8
GND
 10
1.8650
 20
1.0710
 30
 0.0
 42
1.0
  0
SEQEND
  8
GND
  0
POLYLINE
  8
GND
 66
      1
 70
1
 40
0.0390
 41
0.0390
  0
VERTEX
  8
GND
 10
1.9270
 20
1.0710
 30
 0.0
 42
1.0
  0
VERTEX
  8
GND
 10
1.9650
 20
1.0710
 30
 0.0
 42
1.0
  0
SEQEND
  8
GND
  0
POLYLINE
  8
GND
 66
      1
 70
1
 40
0.0390
 41
0.0390
  0
VERTEX
  8
GND
 10
2.0270
 20
1.0710
 30
 0.0
 42
1.0
  0
VERTEX
  8
GND
 10
2.0650
 20
1.0710
 30
 0.0
 42
1.0
  0
SEQEND
  8
GND
  0
POLYLINE
  8
GND
 66
      1
 70
1
 40
0.0390
 41
0.0390
  0
VERTEX
  8
GND
 10
2.1270
 20
1.0710
 30
 0.0
 42
1.0
  0
VERTEX
  8
GND
 10
2.1650
 20
1.0710
 30
 0.0
 42
1.0
  0
SEQEND
  8
GND
  0
POLYLINE
  8
GND
 66
      1
 70
1
 40
0.0390
 41
0.0390
  0
VERTEX
  8
GND
 10
2.1270
 20
0.7710
 30
 0.0
 42
1.0
  0
VERTEX
  8
GND
 10
2.1650
 20
0.7710
 30
 0.0
 42
1.0
  0
SEQEND
  8
GND
  0
POLYLINE
  8
GND
 66
      1
 70
1
 40
0.0390
 41
0.0390
  0
VERTEX
  8
GND
 10
2.0270
 20
0.7710
 30
 0.0
 42
1.0
  0
VERTEX
  8
GND
 10
2.0650
 20
0.7710
 30
 0.0
 42
1.0
  0
SEQEND
  8
GND
  0
POLYLINE
  8
GND
 66
      1
 70
1
 40
0.0390
 41
0.0390
  0
VERTEX
  8
GND
 10
1.9270
 20
0.7710
 30
 0.0
 42
1.0
  0
VERTEX
  8
GND
 10
1.9650
 20
0.7710
 30
 0.0
 42
1.0
  0
SEQEND
  8
GND
  0
POLYLINE
  8
GND
 66
      1
 70
1
 40
0.0390
 41
0.0390
  0
VERTEX
  8
GND
 10
1.8270
 20
0.7710
 30
 0.0
 42
1.0
  0
VERTEX
  8
GND
 10
1.8650
 20
0.7710
 30
 0.0
 42
1.0
  0
SEQEND
  8
GND
  0
POLYLINE
  8
GND
 66
      1
 70
1
 40
0.0390
 41
0.0390
  0
VERTEX
  8
GND
 10
1.7270
 20
0.7710
 30
 0.0
 42
1.0
  0
VERTEX
  8
GND
 10
1.7650
 20
0.7710
 30
 0.0
 42
1.0
  0
SEQEND
  8
GND
  0
POLYLINE
  8
GND
 66
      1
 70
1
 40
0.0390
 41
0.0390
  0
VERTEX
  8
GND
 10
1.6270
 20
0.7710
 30
 0.0
 42
1.0
  0
VERTEX
  8
GND
 10
1.6650
 20
0.7710
 30
 0.0
 42
1.0
  0
SEQEND
  8
GND
  0
POLYLINE
  8
GND
 66
      1
 70
1
 40
0.0390
 41
0.0390
  0
VERTEX
  8
GND
 10
1.5270
 20
0.7710
 30
 0.0
 42
1.0
  0
VERTEX
  8
GND
 10
1.5650
 20
0.7710
 30
 0.0
 42
1.0
  0
SEQEND
  8
GND
 0
SOLID
  8
GND
 10
1.4070
 20
0.7320
 11
1.4850
 21
0.7320
 12
1.4070
 22
0.8100
 13
1.4850
 23
0.8100
  0
POLYLINE
  8
GND
 66
      1
 70
1
 40
0.0390
 41
0.0390
  0
VERTEX
  8
GND
 10
2.3270
 20
1.0710
 30
 0.0
 42
1.0
  0
VERTEX
  8
GND
 10
2.3650
 20
1.0710
 30
 0.0
 42
1.0
  0
SEQEND
  8
GND
  0
POLYLINE
  8
GND
 66
      1
 70
1
 40
0.0390
 41
0.0390
  0
VERTEX
  8
GND
 10
2.4270
 20
1.0710
 30
 0.0
 42
1.0
  0
VERTEX
  8
GND
 10
2.4650
 20
1.0710
 30
 0.0
 42
1.0
  0
SEQEND
  8
GND
  0
POLYLINE
  8
GND
 66
      1
 70
1
 40
0.0390
 41
0.0390
  0
VERTEX
  8
GND
 10
2.5270
 20
1.0710
 30
 0.0
 42
1.0
  0
VERTEX
  8
GND
 10
2.5650
 20
1.0710
 30
 0.0
 42
1.0
  0
SEQEND
  8
GND
  0
POLYLINE
  8
GND
 66
      1
 70
1
 40
0.0390
 41
0.0390
  0
VERTEX
  8
GND
 10
2.6270
 20
1.0710
 30
 0.0
 42
1.0
  0
VERTEX
  8
GND
 10
2.6650
 20
1.0710
 30
 0.0
 42
1.0
  0
SEQEND
  8
GND
  0
POLYLINE
  8
GND
 66
      1
 70
1
 40
0.0390
 41
0.0390
  0
VERTEX
  8
GND
 10
2.7270
 20
1.0710
 30
 0.0
 42
1.0
  0
VERTEX
  8
GND
 10
2.7650
 20
1.0710
 30
 0.0
 42
1.0
  0
SEQEND
  8
GND
  0
POLYLINE
  8
GND
 66
      1
 70
1
 40
0.0390
 41
0.0390
  0
VERTEX
  8
GND
 10
2.8270
 20
1.0710
 30
 0.0
 42
1.0
  0
VERTEX
  8
GND
 10
2.8650
 20
1.0710
 30
 0.0
 42
1.0
  0
SEQEND
  8
GND
  0
POLYLINE
  8
GND
 66
      1
 70
1
 40
0.0390
 41
0.0390
  0
VERTEX
  8
GND
 10
2.9270
 20
1.0710
 30
 0.0
 42
1.0
  0
VERTEX
  8
GND
 10
2.9650
 20
1.0710
 30
 0.0
 42
1.0
  0
SEQEND
  8
GND
  0
POLYLINE
  8
GND
 66
      1
 70
1
 40
0.0390
 41
0.0390
  0
VERTEX
  8
GND
 10
3.0270
 20
1.0710
 30
 0.0
 42
1.0
  0
VERTEX
  8
GND
 10
3.0650
 20
1.0710
 30
 0.0
 42
1.0
  0
SEQEND
  8
GND
  0
POLYLINE
  8
GND
 66
      1
 70
1
 40
0.0390
 41
0.0390
  0
VERTEX
  8
GND
 10
3.0270
 20
0.7710
 30
 0.0
 42
1.0
  0
VERTEX
  8
GND
 10
3.0650
 20
0.7710
 30
 0.0
 42
1.0
  0
SEQEND
  8
GND
  0
POLYLINE
  8
GND
 66
      1
 70
1
 40
0.0390
 41
0.0390
  0
VERTEX
  8
GND
 10
2.9270
 20
0.7710
 30
 0.0
 42
1.0
  0
VERTEX
  8
GND
 10
2.9650
 20
0.7710
 30
 0.0
 42
1.0
  0
SEQEND
  8
GND
  0
POLYLINE
  8
GND
 66
      1
 70
1
 40
0.0390
 41
0.0390
  0
VERTEX
  8
GND
 10
2.8270
 20
0.7710
 30
 0.0
 42
1.0
  0
VERTEX
  8
GND
 10
2.8650
 20
0.7710
 30
 0.0
 42
1.0
  0
SEQEND
  8
GND
  0
POLYLINE
  8
GND
 66
      1
 70
1
 40
0.0390
 41
0.0390
  0
VERTEX
  8
GND
 10
2.7270
 20
0.7710
 30
 0.0
 42
1.0
  0
VERTEX
  8
GND
 10
2.7650
 20
0.7710
 30
 0.0
 42
1.0
  0
SEQEND
  8
GND
  0
POLYLINE
  8
GND
 66
      1
 70
1
 40
0.0390
 41
0.0390
  0
VERTEX
  8
GND
 10
2.6270
 20
0.7710
 30
 0.0
 42
1.0
  0
VERTEX
  8
GND
 10
2.6650
 20
0.7710
 30
 0.0
 42
1.0
  0
SEQEND
  8
GND
  0
POLYLINE
  8
GND
 66
      1
 70
1
 40
0.0390
 41
0.0390
  0
VERTEX
  8
GND
 10
2.5270
 20
0.7710
 30
 0.0
 42
1.0
  0
VERTEX
  8
GND
 10
2.5650
 20
0.7710
 30
 0.0
 42
1.0
  0
SEQEND
  8
GND
  0
POLYLINE
  8
GND
 66
      1
 70
1
 40
0.0390
 41
0.0390
  0
VERTEX
  8
GND
 10
2.4270
 20
0.7710
 30
 0.0
 42
1.0
  0
VERTEX
  8
GND
 10
2.4650
 20
0.7710
 30
 0.0
 42
1.0
  0
SEQEND
  8
GND
 0
SOLID
  8
GND
 10
2.3070
 20
0.7320
 11
2.3850
 21
0.7320
 12
2.3070
 22
0.8100
 13
2.3850
 23
0.8100
  0
POLYLINE
  8
GND
 66
      1
 70
1
 40
0.0390
 41
0.0390
  0
VERTEX
  8
GND
 10
3.8770
 20
3.8710
 30
 0.0
 42
1.0
  0
VERTEX
  8
GND
 10
3.9150
 20
3.8710
 30
 0.0
 42
1.0
  0
SEQEND
  8
GND
  0
POLYLINE
  8
GND
 66
      1
 70
1
 40
0.0390
 41
0.0390
  0
VERTEX
  8
GND
 10
3.8770
 20
3.7710
 30
 0.0
 42
1.0
  0
VERTEX
  8
GND
 10
3.9150
 20
3.7710
 30
 0.0
 42
1.0
  0
SEQEND
  8
GND
  0
POLYLINE
  8
GND
 66
      1
 70
1
 40
0.0390
 41
0.0390
  0
VERTEX
  8
GND
 10
3.8770
 20
3.6710
 30
 0.0
 42
1.0
  0
VERTEX
  8
GND
 10
3.9150
 20
3.6710
 30
 0.0
 42
1.0
  0
SEQEND
  8
GND
  0
POLYLINE
  8
GND
 66
      1
 70
1
 40
0.0390
 41
0.0390
  0
VERTEX
  8
GND
 10
3.8770
 20
3.5710
 30
 0.0
 42
1.0
  0
VERTEX
  8
GND
 10
3.9150
 20
3.5710
 30
 0.0
 42
1.0
  0
SEQEND
  8
GND
  0
POLYLINE
  8
GND
 66
      1
 70
1
 40
0.0390
 41
0.0390
  0
VERTEX
  8
GND
 10
3.5770
 20
3.5710
 30
 0.0
 42
1.0
  0
VERTEX
  8
GND
 10
3.6150
 20
3.5710
 30
 0.0
 42
1.0
  0
SEQEND
  8
GND
  0
POLYLINE
  8
GND
 66
      1
 70
1
 40
0.0390
 41
0.0390
  0
VERTEX
  8
GND
 10
3.5770
 20
3.6710
 30
 0.0
 42
1.0
  0
VERTEX
  8
GND
 10
3.6150
 20
3.6710
 30
 0.0
 42
1.0
  0
SEQEND
  8
GND
  0
POLYLINE
  8
GND
 66
      1
 70
1
 40
0.0390
 41
0.0390
  0
VERTEX
  8
GND
 10
3.5770
 20
3.7710
 30
 0.0
 42
1.0
  0
VERTEX
  8
GND
 10
3.6150
 20
3.7710
 30
 0.0
 42
1.0
  0
SEQEND
  8
GND
 0
SOLID
  8
GND
 10
3.5570
 20
3.8320
 11
3.6350
 21
3.8320
 12
3.5570
 22
3.9100
 13
3.6350
 23
3.9100
  0
POLYLINE
  8
GND
 66
      1
 70
1
 40
0.0390
 41
0.0390
  0
VERTEX
  8
GND
 10
3.8770
 20
3.4210
 30
 0.0
 42
1.0
  0
VERTEX
  8
GND
 10
3.9150
 20
3.4210
 30
 0.0
 42
1.0
  0
SEQEND
  8
GND
  0
POLYLINE
  8
GND
 66
      1
 70
1
 40
0.0390
 41
0.0390
  0
VERTEX
  8
GND
 10
3.8770
 20
3.3210
 30
 0.0
 42
1.0
  0
VERTEX
  8
GND
 10
3.9150
 20
3.3210
 30
 0.0
 42
1.0
  0
SEQEND
  8
GND
  0
POLYLINE
  8
GND
 66
      1
 70
1
 40
0.0390
 41
0.0390
  0
VERTEX
  8
GND
 10
3.8770
 20
3.2210
 30
 0.0
 42
1.0
  0
VERTEX
  8
GND
 10
3.9150
 20
3.2210
 30
 0.0
 42
1.0
  0
SEQEND
  8
GND
  0
POLYLINE
  8
GND
 66
      1
 70
1
 40
0.0390
 41
0.0390
  0
VERTEX
  8
GND
 10
3.8770
 20
3.1210
 30
 0.0
 42
1.0
  0
VERTEX
  8
GND
 10
3.9150
 20
3.1210
 30
 0.0
 42
1.0
  0
SEQEND
  8
GND
  0
POLYLINE
  8
GND
 66
      1
 70
1
 40
0.0390
 41
0.0390
  0
VERTEX
  8
GND
 10
3.5770
 20
3.1210
 30
 0.0
 42
1.0
  0
VERTEX
  8
GND
 10
3.6150
 20
3.1210
 30
 0.0
 42
1.0
  0
SEQEND
  8
GND
  0
POLYLINE
  8
GND
 66
      1
 70
1
 40
0.0390
 41
0.0390
  0
VERTEX
  8
GND
 10
3.5770
 20
3.2210
 30
 0.0
 42
1.0
  0
VERTEX
  8
GND
 10
3.6150
 20
3.2210
 30
 0.0
 42
1.0
  0
SEQEND
  8
GND
  0
POLYLINE
  8
GND
 66
      1
 70
1
 40
0.0390
 41
0.0390
  0
VERTEX
  8
GND
 10
3.5770
 20
3.3210
 30
 0.0
 42
1.0
  0
VERTEX
  8
GND
 10
3.6150
 20
3.3210
 30
 0.0
 42
1.0
  0
SEQEND
  8
GND
 0
SOLID
  8
GND
 10
3.5570
 20
3.3820
 11
3.6350
 21
3.3820
 12
3.5570
 22
3.4600
 13
3.6350
 23
3.4600
  0
POLYLINE
  8
GND
 66
      1
 70
1
 40
0.0390
 41
0.0390
  0
VERTEX
  8
GND
 10
3.8770
 20
1.8210
 30
 0.0
 42
1.0
  0
VERTEX
  8
GND
 10
3.9150
 20
1.8210
 30
 0.0
 42
1.0
  0
SEQEND
  8
GND
  0
POLYLINE
  8
GND
 66
      1
 70
1
 40
0.0390
 41
0.0390
  0
VERTEX
  8
GND
 10
3.8770
 20
1.7210
 30
 0.0
 42
1.0
  0
VERTEX
  8
GND
 10
3.9150
 20
1.7210
 30
 0.0
 42
1.0
  0
SEQEND
  8
GND
  0
POLYLINE
  8
GND
 66
      1
 70
1
 40
0.0390
 41
0.0390
  0
VERTEX
  8
GND
 10
3.8770
 20
1.6210
 30
 0.0
 42
1.0
  0
VERTEX
  8
GND
 10
3.9150
 20
1.6210
 30
 0.0
 42
1.0
  0
SEQEND
  8
GND
  0
POLYLINE
  8
GND
 66
      1
 70
1
 40
0.0390
 41
0.0390
  0
VERTEX
  8
GND
 10
3.8770
 20
1.5210
 30
 0.0
 42
1.0
  0
VERTEX
  8
GND
 10
3.9150
 20
1.5210
 30
 0.0
 42
1.0
  0
SEQEND
  8
GND
  0
POLYLINE
  8
GND
 66
      1
 70
1
 40
0.0390
 41
0.0390
  0
VERTEX
  8
GND
 10
3.8770
 20
1.4210
 30
 0.0
 42
1.0
  0
VERTEX
  8
GND
 10
3.9150
 20
1.4210
 30
 0.0
 42
1.0
  0
SEQEND
  8
GND
  0
POLYLINE
  8
GND
 66
      1
 70
1
 40
0.0390
 41
0.0390
  0
VERTEX
  8
GND
 10
3.8770
 20
1.3210
 30
 0.0
 42
1.0
  0
VERTEX
  8
GND
 10
3.9150
 20
1.3210
 30
 0.0
 42
1.0
  0
SEQEND
  8
GND
  0
POLYLINE
  8
GND
 66
      1
 70
1
 40
0.0390
 41
0.0390
  0
VERTEX
  8
GND
 10
3.8770
 20
1.2210
 30
 0.0
 42
1.0
  0
VERTEX
  8
GND
 10
3.9150
 20
1.2210
 30
 0.0
 42
1.0
  0
SEQEND
  8
GND
  0
POLYLINE
  8
GND
 66
      1
 70
1
 40
0.0390
 41
0.0390
  0
VERTEX
  8
GND
 10
3.5770
 20
1.2210
 30
 0.0
 42
1.0
  0
VERTEX
  8
GND
 10
3.6150
 20
1.2210
 30
 0.0
 42
1.0
  0
SEQEND
  8
GND
  0
POLYLINE
  8
GND
 66
      1
 70
1
 40
0.0390
 41
0.0390
  0
VERTEX
  8
GND
 10
3.5770
 20
1.3210
 30
 0.0
 42
1.0
  0
VERTEX
  8
GND
 10
3.6150
 20
1.3210
 30
 0.0
 42
1.0
  0
SEQEND
  8
GND
  0
POLYLINE
  8
GND
 66
      1
 70
1
 40
0.0390
 41
0.0390
  0
VERTEX
  8
GND
 10
3.5770
 20
1.4210
 30
 0.0
 42
1.0
  0
VERTEX
  8
GND
 10
3.6150
 20
1.4210
 30
 0.0
 42
1.0
  0
SEQEND
  8
GND
  0
POLYLINE
  8
GND
 66
      1
 70
1
 40
0.0390
 41
0.0390
  0
VERTEX
  8
GND
 10
3.5770
 20
1.5210
 30
 0.0
 42
1.0
  0
VERTEX
  8
GND
 10
3.6150
 20
1.5210
 30
 0.0
 42
1.0
  0
SEQEND
  8
GND
  0
POLYLINE
  8
GND
 66
      1
 70
1
 40
0.0390
 41
0.0390
  0
VERTEX
  8
GND
 10
3.5770
 20
1.6210
 30
 0.0
 42
1.0
  0
VERTEX
  8
GND
 10
3.6150
 20
1.6210
 30
 0.0
 42
1.0
  0
SEQEND
  8
GND
  0
POLYLINE
  8
GND
 66
      1
 70
1
 40
0.0390
 41
0.0390
  0
VERTEX
  8
GND
 10
3.5770
 20
1.7210
 30
 0.0
 42
1.0
  0
VERTEX
  8
GND
 10
3.6150
 20
1.7210
 30
 0.0
 42
1.0
  0
SEQEND
  8
GND
 0
SOLID
  8
GND
 10
3.5570
 20
1.7820
 11
3.6350
 21
1.7820
 12
3.5570
 22
1.8600
 13
3.6350
 23
1.8600
  0
POLYLINE
  8
GND
 66
      1
 70
1
 40
0.0390
 41
0.0390
  0
VERTEX
  8
GND
 10
4.0770
 20
0.8210
 30
 0.0
 42
1.0
  0
VERTEX
  8
GND
 10
4.1150
 20
0.8210
 30
 0.0
 42
1.0
  0
SEQEND
  8
GND
  0
POLYLINE
  8
GND
 66
      1
 70
1
 40
0.0390
 41
0.0390
  0
VERTEX
  8
GND
 10
4.0770
 20
0.7210
 30
 0.0
 42
1.0
  0
VERTEX
  8
GND
 10
4.1150
 20
0.7210
 30
 0.0
 42
1.0
  0
SEQEND
  8
GND
  0
POLYLINE
  8
GND
 66
      1
 70
1
 40
0.0390
 41
0.0390
  0
VERTEX
  8
GND
 10
4.0770
 20
0.6210
 30
 0.0
 42
1.0
  0
VERTEX
  8
GND
 10
4.1150
 20
0.6210
 30
 0.0
 42
1.0
  0
SEQEND
  8
GND
  0
POLYLINE
  8
GND
 66
      1
 70
1
 40
0.0390
 41
0.0390
  0
VERTEX
  8
GND
 10
4.0770
 20
0.5210
 30
 0.0
 42
1.0
  0
VERTEX
  8
GND
 10
4.1150
 20
0.5210
 30
 0.0
 42
1.0
  0
SEQEND
  8
GND
  0
POLYLINE
  8
GND
 66
      1
 70
1
 40
0.0390
 41
0.0390
  0
VERTEX
  8
GND
 10
3.7770
 20
0.5210
 30
 0.0
 42
1.0
  0
VERTEX
  8
GND
 10
3.8150
 20
0.5210
 30
 0.0
 42
1.0
  0
SEQEND
  8
GND
  0
POLYLINE
  8
GND
 66
      1
 70
1
 40
0.0390
 41
0.0390
  0
VERTEX
  8
GND
 10
3.7770
 20
0.6210
 30
 0.0
 42
1.0
  0
VERTEX
  8
GND
 10
3.8150
 20
0.6210
 30
 0.0
 42
1.0
  0
SEQEND
  8
GND
  0
POLYLINE
  8
GND
 66
      1
 70
1
 40
0.0390
 41
0.0390
  0
VERTEX
  8
GND
 10
3.7770
 20
0.7210
 30
 0.0
 42
1.0
  0
VERTEX
  8
GND
 10
3.8150
 20
0.7210
 30
 0.0
 42
1.0
  0
SEQEND
  8
GND
 0
SOLID
  8
GND
 10
3.7570
 20
0.7820
 11
3.8350
 21
0.7820
 12
3.7570
 22
0.8600
 13
3.8350
 23
0.8600
  0
POLYLINE
  8
GND
 66
      1
 70
1
 40
0.0390
 41
0.0390
  0
VERTEX
  8
GND
 10
4.7770
 20
3.8710
 30
 0.0
 42
1.0
  0
VERTEX
  8
GND
 10
4.8150
 20
3.8710
 30
 0.0
 42
1.0
  0
SEQEND
  8
GND
  0
POLYLINE
  8
GND
 66
      1
 70
1
 40
0.0390
 41
0.0390
  0
VERTEX
  8
GND
 10
4.7770
 20
3.7710
 30
 0.0
 42
1.0
  0
VERTEX
  8
GND
 10
4.8150
 20
3.7710
 30
 0.0
 42
1.0
  0
SEQEND
  8
GND
  0
POLYLINE
  8
GND
 66
      1
 70
1
 40
0.0390
 41
0.0390
  0
VERTEX
  8
GND
 10
4.7770
 20
3.6710
 30
 0.0
 42
1.0
  0
VERTEX
  8
GND
 10
4.8150
 20
3.6710
 30
 0.0
 42
1.0
  0
SEQEND
  8
GND
  0
POLYLINE
  8
GND
 66
      1
 70
1
 40
0.0390
 41
0.0390
  0
VERTEX
  8
GND
 10
4.7770
 20
3.5710
 30
 0.0
 42
1.0
  0
VERTEX
  8
GND
 10
4.8150
 20
3.5710
 30
 0.0
 42
1.0
  0
SEQEND
  8
GND
  0
POLYLINE
  8
GND
 66
      1
 70
1
 40
0.0390
 41
0.0390
  0
VERTEX
  8
GND
 10
4.4770
 20
3.5710
 30
 0.0
 42
1.0
  0
VERTEX
  8
GND
 10
4.5150
 20
3.5710
 30
 0.0
 42
1.0
  0
SEQEND
  8
GND
  0
POLYLINE
  8
GND
 66
      1
 70
1
 40
0.0390
 41
0.0390
  0
VERTEX
  8
GND
 10
4.4770
 20
3.6710
 30
 0.0
 42
1.0
  0
VERTEX
  8
GND
 10
4.5150
 20
3.6710
 30
 0.0
 42
1.0
  0
SEQEND
  8
GND
  0
POLYLINE
  8
GND
 66
      1
 70
1
 40
0.0390
 41
0.0390
  0
VERTEX
  8
GND
 10
4.4770
 20
3.7710
 30
 0.0
 42
1.0
  0
VERTEX
  8
GND
 10
4.5150
 20
3.7710
 30
 0.0
 42
1.0
  0
SEQEND
  8
GND
 0
SOLID
  8
GND
 10
4.4570
 20
3.8320
 11
4.5350
 21
3.8320
 12
4.4570
 22
3.9100
 13
4.5350
 23
3.9100
  0
POLYLINE
  8
GND
 66
      1
 70
1
 40
0.0390
 41
0.0390
  0
VERTEX
  8
GND
 10
4.7770
 20
3.4210
 30
 0.0
 42
1.0
  0
VERTEX
  8
GND
 10
4.8150
 20
3.4210
 30
 0.0
 42
1.0
  0
SEQEND
  8
GND
  0
POLYLINE
  8
GND
 66
      1
 70
1
 40
0.0390
 41
0.0390
  0
VERTEX
  8
GND
 10
4.7770
 20
3.3210
 30
 0.0
 42
1.0
  0
VERTEX
  8
GND
 10
4.8150
 20
3.3210
 30
 0.0
 42
1.0
  0
SEQEND
  8
GND
  0
POLYLINE
  8
GND
 66
      1
 70
1
 40
0.0390
 41
0.0390
  0
VERTEX
  8
GND
 10
4.7770
 20
3.2210
 30
 0.0
 42
1.0
  0
VERTEX
  8
GND
 10
4.8150
 20
3.2210
 30
 0.0
 42
1.0
  0
SEQEND
  8
GND
  0
POLYLINE
  8
GND
 66
      1
 70
1
 40
0.0390
 41
0.0390
  0
VERTEX
  8
GND
 10
4.7770
 20
3.1210
 30
 0.0
 42
1.0
  0
VERTEX
  8
GND
 10
4.8150
 20
3.1210
 30
 0.0
 42
1.0
  0
SEQEND
  8
GND
  0
POLYLINE
  8
GND
 66
      1
 70
1
 40
0.0390
 41
0.0390
  0
VERTEX
  8
GND
 10
4.4770
 20
3.1210
 30
 0.0
 42
1.0
  0
VERTEX
  8
GND
 10
4.5150
 20
3.1210
 30
 0.0
 42
1.0
  0
SEQEND
  8
GND
  0
POLYLINE
  8
GND
 66
      1
 70
1
 40
0.0390
 41
0.0390
  0
VERTEX
  8
GND
 10
4.4770
 20
3.2210
 30
 0.0
 42
1.0
  0
VERTEX
  8
GND
 10
4.5150
 20
3.2210
 30
 0.0
 42
1.0
  0
SEQEND
  8
GND
  0
POLYLINE
  8
GND
 66
      1
 70
1
 40
0.0390
 41
0.0390
  0
VERTEX
  8
GND
 10
4.4770
 20
3.3210
 30
 0.0
 42
1.0
  0
VERTEX
  8
GND
 10
4.5150
 20
3.3210
 30
 0.0
 42
1.0
  0
SEQEND
  8
GND
 0
SOLID
  8
GND
 10
4.4570
 20
3.3820
 11
4.5350
 21
3.3820
 12
4.4570
 22
3.4600
 13
4.5350
 23
3.4600
  0
POLYLINE
  8
GND
 66
      1
 70
1
 40
0.0390
 41
0.0390
  0
VERTEX
  8
GND
 10
4.7770
 20
2.8210
 30
 0.0
 42
1.0
  0
VERTEX
  8
GND
 10
4.8150
 20
2.8210
 30
 0.0
 42
1.0
  0
SEQEND
  8
GND
  0
POLYLINE
  8
GND
 66
      1
 70
1
 40
0.0390
 41
0.0390
  0
VERTEX
  8
GND
 10
4.7770
 20
2.7210
 30
 0.0
 42
1.0
  0
VERTEX
  8
GND
 10
4.8150
 20
2.7210
 30
 0.0
 42
1.0
  0
SEQEND
  8
GND
  0
POLYLINE
  8
GND
 66
      1
 70
1
 40
0.0390
 41
0.0390
  0
VERTEX
  8
GND
 10
4.7770
 20
2.6210
 30
 0.0
 42
1.0
  0
VERTEX
  8
GND
 10
4.8150
 20
2.6210
 30
 0.0
 42
1.0
  0
SEQEND
  8
GND
  0
POLYLINE
  8
GND
 66
      1
 70
1
 40
0.0390
 41
0.0390
  0
VERTEX
  8
GND
 10
4.7770
 20
2.5210
 30
 0.0
 42
1.0
  0
VERTEX
  8
GND
 10
4.8150
 20
2.5210
 30
 0.0
 42
1.0
  0
SEQEND
  8
GND
  0
POLYLINE
  8
GND
 66
      1
 70
1
 40
0.0390
 41
0.0390
  0
VERTEX
  8
GND
 10
4.7770
 20
2.4210
 30
 0.0
 42
1.0
  0
VERTEX
  8
GND
 10
4.8150
 20
2.4210
 30
 0.0
 42
1.0
  0
SEQEND
  8
GND
  0
POLYLINE
  8
GND
 66
      1
 70
1
 40
0.0390
 41
0.0390
  0
VERTEX
  8
GND
 10
4.7770
 20
2.3210
 30
 0.0
 42
1.0
  0
VERTEX
  8
GND
 10
4.8150
 20
2.3210
 30
 0.0
 42
1.0
  0
SEQEND
  8
GND
  0
POLYLINE
  8
GND
 66
      1
 70
1
 40
0.0390
 41
0.0390
  0
VERTEX
  8
GND
 10
4.7770
 20
2.2210
 30
 0.0
 42
1.0
  0
VERTEX
  8
GND
 10
4.8150
 20
2.2210
 30
 0.0
 42
1.0
  0
SEQEND
  8
GND
  0
POLYLINE
  8
GND
 66
      1
 70
1
 40
0.0390
 41
0.0390
  0
VERTEX
  8
GND
 10
4.7770
 20
2.1210
 30
 0.0
 42
1.0
  0
VERTEX
  8
GND
 10
4.8150
 20
2.1210
 30
 0.0
 42
1.0
  0
SEQEND
  8
GND
  0
POLYLINE
  8
GND
 66
      1
 70
1
 40
0.0390
 41
0.0390
  0
VERTEX
  8
GND
 10
4.4770
 20
2.1210
 30
 0.0
 42
1.0
  0
VERTEX
  8
GND
 10
4.5150
 20
2.1210
 30
 0.0
 42
1.0
  0
SEQEND
  8
GND
  0
POLYLINE
  8
GND
 66
      1
 70
1
 40
0.0390
 41
0.0390
  0
VERTEX
  8
GND
 10
4.4770
 20
2.2210
 30
 0.0
 42
1.0
  0
VERTEX
  8
GND
 10
4.5150
 20
2.2210
 30
 0.0
 42
1.0
  0
SEQEND
  8
GND
  0
POLYLINE
  8
GND
 66
      1
 70
1
 40
0.0390
 41
0.0390
  0
VERTEX
  8
GND
 10
4.4770
 20
2.3210
 30
 0.0
 42
1.0
  0
VERTEX
  8
GND
 10
4.5150
 20
2.3210
 30
 0.0
 42
1.0
  0
SEQEND
  8
GND
  0
POLYLINE
  8
GND
 66
      1
 70
1
 40
0.0390
 41
0.0390
  0
VERTEX
  8
GND
 10
4.4770
 20
2.4210
 30
 0.0
 42
1.0
  0
VERTEX
  8
GND
 10
4.5150
 20
2.4210
 30
 0.0
 42
1.0
  0
SEQEND
  8
GND
  0
POLYLINE
  8
GND
 66
      1
 70
1
 40
0.0390
 41
0.0390
  0
VERTEX
  8
GND
 10
4.4770
 20
2.5210
 30
 0.0
 42
1.0
  0
VERTEX
  8
GND
 10
4.5150
 20
2.5210
 30
 0.0
 42
1.0
  0
SEQEND
  8
GND
  0
POLYLINE
  8
GND
 66
      1
 70
1
 40
0.0390
 41
0.0390
  0
VERTEX
  8
GND
 10
4.4770
 20
2.6210
 30
 0.0
 42
1.0
  0
VERTEX
  8
GND
 10
4.5150
 20
2.6210
 30
 0.0
 42
1.0
  0
SEQEND
  8
GND
  0
POLYLINE
  8
GND
 66
      1
 70
1
 40
0.0390
 41
0.0390
  0
VERTEX
  8
GND
 10
4.4770
 20
2.7210
 30
 0.0
 42
1.0
  0
VERTEX
  8
GND
 10
4.5150
 20
2.7210
 30
 0.0
 42
1.0
  0
SEQEND
  8
GND
 0
SOLID
  8
GND
 10
4.4570
 20
2.7820
 11
4.5350
 21
2.7820
 12
4.4570
 22
2.8600
 13
4.5350
 23
2.8600
  0
POLYLINE
  8
GND
 66
      1
 70
1
 40
0.0390
 41
0.0390
  0
VERTEX
  8
GND
 10
4.7770
 20
1.8210
 30
 0.0
 42
1.0
  0
VERTEX
  8
GND
 10
4.8150
 20
1.8210
 30
 0.0
 42
1.0
  0
SEQEND
  8
GND
  0
POLYLINE
  8
GND
 66
      1
 70
1
 40
0.0390
 41
0.0390
  0
VERTEX
  8
GND
 10
4.7770
 20
1.7210
 30
 0.0
 42
1.0
  0
VERTEX
  8
GND
 10
4.8150
 20
1.7210
 30
 0.0
 42
1.0
  0
SEQEND
  8
GND
  0
POLYLINE
  8
GND
 66
      1
 70
1
 40
0.0390
 41
0.0390
  0
VERTEX
  8
GND
 10
4.7770
 20
1.6210
 30
 0.0
 42
1.0
  0
VERTEX
  8
GND
 10
4.8150
 20
1.6210
 30
 0.0
 42
1.0
  0
SEQEND
  8
GND
  0
POLYLINE
  8
GND
 66
      1
 70
1
 40
0.0390
 41
0.0390
  0
VERTEX
  8
GND
 10
4.7770
 20
1.5210
 30
 0.0
 42
1.0
  0
VERTEX
  8
GND
 10
4.8150
 20
1.5210
 30
 0.0
 42
1.0
  0
SEQEND
  8
GND
  0
POLYLINE
  8
GND
 66
      1
 70
1
 40
0.0390
 41
0.0390
  0
VERTEX
  8
GND
 10
4.7770
 20
1.4210
 30
 0.0
 42
1.0
  0
VERTEX
  8
GND
 10
4.8150
 20
1.4210
 30
 0.0
 42
1.0
  0
SEQEND
  8
GND
  0
POLYLINE
  8
GND
 66
      1
 70
1
 40
0.0390
 41
0.0390
  0
VERTEX
  8
GND
 10
4.7770
 20
1.3210
 30
 0.0
 42
1.0
  0
VERTEX
  8
GND
 10
4.8150
 20
1.3210
 30
 0.0
 42
1.0
  0
SEQEND
  8
GND
  0
POLYLINE
  8
GND
 66
      1
 70
1
 40
0.0390
 41
0.0390
  0
VERTEX
  8
GND
 10
4.7770
 20
1.2210
 30
 0.0
 42
1.0
  0
VERTEX
  8
GND
 10
4.8150
 20
1.2210
 30
 0.0
 42
1.0
  0
SEQEND
  8
GND
  0
POLYLINE
  8
GND
 66
      1
 70
1
 40
0.0390
 41
0.0390
  0
VERTEX
  8
GND
 10
4.4770
 20
1.2210
 30
 0.0
 42
1.0
  0
VERTEX
  8
GND
 10
4.5150
 20
1.2210
 30
 0.0
 42
1.0
  0
SEQEND
  8
GND
  0
POLYLINE
  8
GND
 66
      1
 70
1
 40
0.0390
 41
0.0390
  0
VERTEX
  8
GND
 10
4.4770
 20
1.3210
 30
 0.0
 42
1.0
  0
VERTEX
  8
GND
 10
4.5150
 20
1.3210
 30
 0.0
 42
1.0
  0
SEQEND
  8
GND
  0
POLYLINE
  8
GND
 66
      1
 70
1
 40
0.0390
 41
0.0390
  0
VERTEX
  8
GND
 10
4.4770
 20
1.4210
 30
 0.0
 42
1.0
  0
VERTEX
  8
GND
 10
4.5150
 20
1.4210
 30
 0.0
 42
1.0
  0
SEQEND
  8
GND
  0
POLYLINE
  8
GND
 66
      1
 70
1
 40
0.0390
 41
0.0390
  0
VERTEX
  8
GND
 10
4.4770
 20
1.5210
 30
 0.0
 42
1.0
  0
VERTEX
  8
GND
 10
4.5150
 20
1.5210
 30
 0.0
 42
1.0
  0
SEQEND
  8
GND
  0
POLYLINE
  8
GND
 66
      1
 70
1
 40
0.0390
 41
0.0390
  0
VERTEX
  8
GND
 10
4.4770
 20
1.6210
 30
 0.0
 42
1.0
  0
VERTEX
  8
GND
 10
4.5150
 20
1.6210
 30
 0.0
 42
1.0
  0
SEQEND
  8
GND
  0
POLYLINE
  8
GND
 66
      1
 70
1
 40
0.0390
 41
0.0390
  0
VERTEX
  8
GND
 10
4.4770
 20
1.7210
 30
 0.0
 42
1.0
  0
VERTEX
  8
GND
 10
4.5150
 20
1.7210
 30
 0.0
 42
1.0
  0
SEQEND
  8
GND
 0
SOLID
  8
GND
 10
4.4570
 20
1.7820
 11
4.5350
 21
1.7820
 12
4.4570
 22
1.8600
 13
4.5350
 23
1.8600
  0
POLYLINE
  8
GND
 66
      1
 70
1
 40
0.0390
 41
0.0390
  0
VERTEX
  8
GND
 10
4.9270
 20
0.8210
 30
 0.0
 42
1.0
  0
VERTEX
  8
GND
 10
4.9650
 20
0.8210
 30
 0.0
 42
1.0
  0
SEQEND
  8
GND
  0
POLYLINE
  8
GND
 66
      1
 70
1
 40
0.0390
 41
0.0390
  0
VERTEX
  8
GND
 10
4.9270
 20
0.7210
 30
 0.0
 42
1.0
  0
VERTEX
  8
GND
 10
4.9650
 20
0.7210
 30
 0.0
 42
1.0
  0
SEQEND
  8
GND
  0
POLYLINE
  8
GND
 66
      1
 70
1
 40
0.0390
 41
0.0390
  0
VERTEX
  8
GND
 10
4.9270
 20
0.6210
 30
 0.0
 42
1.0
  0
VERTEX
  8
GND
 10
4.9650
 20
0.6210
 30
 0.0
 42
1.0
  0
SEQEND
  8
GND
  0
POLYLINE
  8
GND
 66
      1
 70
1
 40
0.0390
 41
0.0390
  0
VERTEX
  8
GND
 10
4.9270
 20
0.5210
 30
 0.0
 42
1.0
  0
VERTEX
  8
GND
 10
4.9650
 20
0.5210
 30
 0.0
 42
1.0
  0
SEQEND
  8
GND
  0
POLYLINE
  8
GND
 66
      1
 70
1
 40
0.0390
 41
0.0390
  0
VERTEX
  8
GND
 10
4.6270
 20
0.5210
 30
 0.0
 42
1.0
  0
VERTEX
  8
GND
 10
4.6650
 20
0.5210
 30
 0.0
 42
1.0
  0
SEQEND
  8
GND
  0
POLYLINE
  8
GND
 66
      1
 70
1
 40
0.0390
 41
0.0390
  0
VERTEX
  8
GND
 10
4.6270
 20
0.6210
 30
 0.0
 42
1.0
  0
VERTEX
  8
GND
 10
4.6650
 20
0.6210
 30
 0.0
 42
1.0
  0
SEQEND
  8
GND
  0
POLYLINE
  8
GND
 66
      1
 70
1
 40
0.0390
 41
0.0390
  0
VERTEX
  8
GND
 10
4.6270
 20
0.7210
 30
 0.0
 42
1.0
  0
VERTEX
  8
GND
 10
4.6650
 20
0.7210
 30
 0.0
 42
1.0
  0
SEQEND
  8
GND
 0
SOLID
  8
GND
 10
4.6070
 20
0.7820
 11
4.6850
 21
0.7820
 12
4.6070
 22
0.8600
 13
4.6850
 23
0.8600
  0
POLYLINE
  8
GND
 66
      1
 70
1
 40
0.0390
 41
0.0390
  0
VERTEX
  8
GND
 10
5.6770
 20
3.8710
 30
 0.0
 42
1.0
  0
VERTEX
  8
GND
 10
5.7150
 20
3.8710
 30
 0.0
 42
1.0
  0
SEQEND
  8
GND
  0
POLYLINE
  8
GND
 66
      1
 70
1
 40
0.0390
 41
0.0390
  0
VERTEX
  8
GND
 10
5.6770
 20
3.7710
 30
 0.0
 42
1.0
  0
VERTEX
  8
GND
 10
5.7150
 20
3.7710
 30
 0.0
 42
1.0
  0
SEQEND
  8
GND
  0
POLYLINE
  8
GND
 66
      1
 70
1
 40
0.0390
 41
0.0390
  0
VERTEX
  8
GND
 10
5.6770
 20
3.6710
 30
 0.0
 42
1.0
  0
VERTEX
  8
GND
 10
5.7150
 20
3.6710
 30
 0.0
 42
1.0
  0
SEQEND
  8
GND
  0
POLYLINE
  8
GND
 66
      1
 70
1
 40
0.0390
 41
0.0390
  0
VERTEX
  8
GND
 10
5.6770
 20
3.5710
 30
 0.0
 42
1.0
  0
VERTEX
  8
GND
 10
5.7150
 20
3.5710
 30
 0.0
 42
1.0
  0
SEQEND
  8
GND
  0
POLYLINE
  8
GND
 66
      1
 70
1
 40
0.0390
 41
0.0390
  0
VERTEX
  8
GND
 10
5.3770
 20
3.5710
 30
 0.0
 42
1.0
  0
VERTEX
  8
GND
 10
5.4150
 20
3.5710
 30
 0.0
 42
1.0
  0
SEQEND
  8
GND
  0
POLYLINE
  8
GND
 66
      1
 70
1
 40
0.0390
 41
0.0390
  0
VERTEX
  8
GND
 10
5.3770
 20
3.6710
 30
 0.0
 42
1.0
  0
VERTEX
  8
GND
 10
5.4150
 20
3.6710
 30
 0.0
 42
1.0
  0
SEQEND
  8
GND
  0
POLYLINE
  8
GND
 66
      1
 70
1
 40
0.0390
 41
0.0390
  0
VERTEX
  8
GND
 10
5.3770
 20
3.7710
 30
 0.0
 42
1.0
  0
VERTEX
  8
GND
 10
5.4150
 20
3.7710
 30
 0.0
 42
1.0
  0
SEQEND
  8
GND
 0
SOLID
  8
GND
 10
5.3570
 20
3.8320
 11
5.4350
 21
3.8320
 12
5.3570
 22
3.9100
 13
5.4350
 23
3.9100
  0
POLYLINE
  8
GND
 66
      1
 70
1
 40
0.0390
 41
0.0390
  0
VERTEX
  8
GND
 10
5.6770
 20
3.4210
 30
 0.0
 42
1.0
  0
VERTEX
  8
GND
 10
5.7150
 20
3.4210
 30
 0.0
 42
1.0
  0
SEQEND
  8
GND
  0
POLYLINE
  8
GND
 66
      1
 70
1
 40
0.0390
 41
0.0390
  0
VERTEX
  8
GND
 10
5.6770
 20
3.3210
 30
 0.0
 42
1.0
  0
VERTEX
  8
GND
 10
5.7150
 20
3.3210
 30
 0.0
 42
1.0
  0
SEQEND
  8
GND
  0
POLYLINE
  8
GND
 66
      1
 70
1
 40
0.0390
 41
0.0390
  0
VERTEX
  8
GND
 10
5.6770
 20
3.2210
 30
 0.0
 42
1.0
  0
VERTEX
  8
GND
 10
5.7150
 20
3.2210
 30
 0.0
 42
1.0
  0
SEQEND
  8
GND
  0
POLYLINE
  8
GND
 66
      1
 70
1
 40
0.0390
 41
0.0390
  0
VERTEX
  8
GND
 10
5.6770
 20
3.1210
 30
 0.0
 42
1.0
  0
VERTEX
  8
GND
 10
5.7150
 20
3.1210
 30
 0.0
 42
1.0
  0
SEQEND
  8
GND
  0
POLYLINE
  8
GND
 66
      1
 70
1
 40
0.0390
 41
0.0390
  0
VERTEX
  8
GND
 10
5.3770
 20
3.1210
 30
 0.0
 42
1.0
  0
VERTEX
  8
GND
 10
5.4150
 20
3.1210
 30
 0.0
 42
1.0
  0
SEQEND
  8
GND
  0
POLYLINE
  8
GND
 66
      1
 70
1
 40
0.0390
 41
0.0390
  0
VERTEX
  8
GND
 10
5.3770
 20
3.2210
 30
 0.0
 42
1.0
  0
VERTEX
  8
GND
 10
5.4150
 20
3.2210
 30
 0.0
 42
1.0
  0
SEQEND
  8
GND
  0
POLYLINE
  8
GND
 66
      1
 70
1
 40
0.0390
 41
0.0390
  0
VERTEX
  8
GND
 10
5.3770
 20
3.3210
 30
 0.0
 42
1.0
  0
VERTEX
  8
GND
 10
5.4150
 20
3.3210
 30
 0.0
 42
1.0
  0
SEQEND
  8
GND
 0
SOLID
  8
GND
 10
5.3570
 20
3.3820
 11
5.4350
 21
3.3820
 12
5.3570
 22
3.4600
 13
5.4350
 23
3.4600
  0
POLYLINE
  8
GND
 66
      1
 70
1
 40
0.0390
 41
0.0390
  0
VERTEX
  8
GND
 10
5.6770
 20
1.8210
 30
 0.0
 42
1.0
  0
VERTEX
  8
GND
 10
5.7150
 20
1.8210
 30
 0.0
 42
1.0
  0
SEQEND
  8
GND
  0
POLYLINE
  8
GND
 66
      1
 70
1
 40
0.0390
 41
0.0390
  0
VERTEX
  8
GND
 10
5.6770
 20
1.7210
 30
 0.0
 42
1.0
  0
VERTEX
  8
GND
 10
5.7150
 20
1.7210
 30
 0.0
 42
1.0
  0
SEQEND
  8
GND
  0
POLYLINE
  8
GND
 66
      1
 70
1
 40
0.0390
 41
0.0390
  0
VERTEX
  8
GND
 10
5.6770
 20
1.6210
 30
 0.0
 42
1.0
  0
VERTEX
  8
GND
 10
5.7150
 20
1.6210
 30
 0.0
 42
1.0
  0
SEQEND
  8
GND
  0
POLYLINE
  8
GND
 66
      1
 70
1
 40
0.0390
 41
0.0390
  0
VERTEX
  8
GND
 10
5.6770
 20
1.5210
 30
 0.0
 42
1.0
  0
VERTEX
  8
GND
 10
5.7150
 20
1.5210
 30
 0.0
 42
1.0
  0
SEQEND
  8
GND
  0
POLYLINE
  8
GND
 66
      1
 70
1
 40
0.0390
 41
0.0390
  0
VERTEX
  8
GND
 10
5.6770
 20
1.4210
 30
 0.0
 42
1.0
  0
VERTEX
  8
GND
 10
5.7150
 20
1.4210
 30
 0.0
 42
1.0
  0
SEQEND
  8
GND
  0
POLYLINE
  8
GND
 66
      1
 70
1
 40
0.0390
 41
0.0390
  0
VERTEX
  8
GND
 10
5.6770
 20
1.3210
 30
 0.0
 42
1.0
  0
VERTEX
  8
GND
 10
5.7150
 20
1.3210
 30
 0.0
 42
1.0
  0
SEQEND
  8
GND
  0
POLYLINE
  8
GND
 66
      1
 70
1
 40
0.0390
 41
0.0390
  0
VERTEX
  8
GND
 10
5.6770
 20
1.2210
 30
 0.0
 42
1.0
  0
VERTEX
  8
GND
 10
5.7150
 20
1.2210
 30
 0.0
 42
1.0
  0
SEQEND
  8
GND
  0
POLYLINE
  8
GND
 66
      1
 70
1
 40
0.0390
 41
0.0390
  0
VERTEX
  8
GND
 10
5.3770
 20
1.2210
 30
 0.0
 42
1.0
  0
VERTEX
  8
GND
 10
5.4150
 20
1.2210
 30
 0.0
 42
1.0
  0
SEQEND
  8
GND
  0
POLYLINE
  8
GND
 66
      1
 70
1
 40
0.0390
 41
0.0390
  0
VERTEX
  8
GND
 10
5.3770
 20
1.3210
 30
 0.0
 42
1.0
  0
VERTEX
  8
GND
 10
5.4150
 20
1.3210
 30
 0.0
 42
1.0
  0
SEQEND
  8
GND
  0
POLYLINE
  8
GND
 66
      1
 70
1
 40
0.0390
 41
0.0390
  0
VERTEX
  8
GND
 10
5.3770
 20
1.4210
 30
 0.0
 42
1.0
  0
VERTEX
  8
GND
 10
5.4150
 20
1.4210
 30
 0.0
 42
1.0
  0
SEQEND
  8
GND
  0
POLYLINE
  8
GND
 66
      1
 70
1
 40
0.0390
 41
0.0390
  0
VERTEX
  8
GND
 10
5.3770
 20
1.5210
 30
 0.0
 42
1.0
  0
VERTEX
  8
GND
 10
5.4150
 20
1.5210
 30
 0.0
 42
1.0
  0
SEQEND
  8
GND
  0
POLYLINE
  8
GND
 66
      1
 70
1
 40
0.0390
 41
0.0390
  0
VERTEX
  8
GND
 10
5.3770
 20
1.6210
 30
 0.0
 42
1.0
  0
VERTEX
  8
GND
 10
5.4150
 20
1.6210
 30
 0.0
 42
1.0
  0
SEQEND
  8
GND
  0
POLYLINE
  8
GND
 66
      1
 70
1
 40
0.0390
 41
0.0390
  0
VERTEX
  8
GND
 10
5.3770
 20
1.7210
 30
 0.0
 42
1.0
  0
VERTEX
  8
GND
 10
5.4150
 20
1.7210
 30
 0.0
 42
1.0
  0
SEQEND
  8
GND
 0
SOLID
  8
GND
 10
5.3570
 20
1.7820
 11
5.4350
 21
1.7820
 12
5.3570
 22
1.8600
 13
5.4350
 23
1.8600
  0
POLYLINE
  8
GND
 66
      1
 70
1
 40
0.0390
 41
0.0390
  0
VERTEX
  8
GND
 10
5.7770
 20
0.8210
 30
 0.0
 42
1.0
  0
VERTEX
  8
GND
 10
5.8150
 20
0.8210
 30
 0.0
 42
1.0
  0
SEQEND
  8
GND
  0
POLYLINE
  8
GND
 66
      1
 70
1
 40
0.0390
 41
0.0390
  0
VERTEX
  8
GND
 10
5.7770
 20
0.7210
 30
 0.0
 42
1.0
  0
VERTEX
  8
GND
 10
5.8150
 20
0.7210
 30
 0.0
 42
1.0
  0
SEQEND
  8
GND
  0
POLYLINE
  8
GND
 66
      1
 70
1
 40
0.0390
 41
0.0390
  0
VERTEX
  8
GND
 10
5.7770
 20
0.6210
 30
 0.0
 42
1.0
  0
VERTEX
  8
GND
 10
5.8150
 20
0.6210
 30
 0.0
 42
1.0
  0
SEQEND
  8
GND
  0
POLYLINE
  8
GND
 66
      1
 70
1
 40
0.0390
 41
0.0390
  0
VERTEX
  8
GND
 10
5.7770
 20
0.5210
 30
 0.0
 42
1.0
  0
VERTEX
  8
GND
 10
5.8150
 20
0.5210
 30
 0.0
 42
1.0
  0
SEQEND
  8
GND
  0
POLYLINE
  8
GND
 66
      1
 70
1
 40
0.0390
 41
0.0390
  0
VERTEX
  8
GND
 10
5.4770
 20
0.5210
 30
 0.0
 42
1.0
  0
VERTEX
  8
GND
 10
5.5150
 20
0.5210
 30
 0.0
 42
1.0
  0
SEQEND
  8
GND
  0
POLYLINE
  8
GND
 66
      1
 70
1
 40
0.0390
 41
0.0390
  0
VERTEX
  8
GND
 10
5.4770
 20
0.6210
 30
 0.0
 42
1.0
  0
VERTEX
  8
GND
 10
5.5150
 20
0.6210
 30
 0.0
 42
1.0
  0
SEQEND
  8
GND
  0
POLYLINE
  8
GND
 66
      1
 70
1
 40
0.0390
 41
0.0390
  0
VERTEX
  8
GND
 10
5.4770
 20
0.7210
 30
 0.0
 42
1.0
  0
VERTEX
  8
GND
 10
5.5150
 20
0.7210
 30
 0.0
 42
1.0
  0
SEQEND
  8
GND
 0
SOLID
  8
GND
 10
5.4570
 20
0.7820
 11
5.5350
 21
0.7820
 12
5.4570
 22
0.8600
 13
5.5350
 23
0.8600
  0
POLYLINE
  8
GND
 66
      1
 70
1
 40
0.0390
 41
0.0390
  0
VERTEX
  8
GND
 10
6.1770
 20
2.8210
 30
 0.0
 42
1.0
  0
VERTEX
  8
GND
 10
6.2150
 20
2.8210
 30
 0.0
 42
1.0
  0
SEQEND
  8
GND
  0
POLYLINE
  8
GND
 66
      1
 70
1
 40
0.0390
 41
0.0390
  0
VERTEX
  8
GND
 10
6.1770
 20
2.7210
 30
 0.0
 42
1.0
  0
VERTEX
  8
GND
 10
6.2150
 20
2.7210
 30
 0.0
 42
1.0
  0
SEQEND
  8
GND
  0
POLYLINE
  8
GND
 66
      1
 70
1
 40
0.0390
 41
0.0390
  0
VERTEX
  8
GND
 10
6.1770
 20
2.6210
 30
 0.0
 42
1.0
  0
VERTEX
  8
GND
 10
6.2150
 20
2.6210
 30
 0.0
 42
1.0
  0
SEQEND
  8
GND
  0
POLYLINE
  8
GND
 66
      1
 70
1
 40
0.0390
 41
0.0390
  0
VERTEX
  8
GND
 10
6.1770
 20
2.5210
 30
 0.0
 42
1.0
  0
VERTEX
  8
GND
 10
6.2150
 20
2.5210
 30
 0.0
 42
1.0
  0
SEQEND
  8
GND
  0
POLYLINE
  8
GND
 66
      1
 70
1
 40
0.0390
 41
0.0390
  0
VERTEX
  8
GND
 10
6.1770
 20
2.4210
 30
 0.0
 42
1.0
  0
VERTEX
  8
GND
 10
6.2150
 20
2.4210
 30
 0.0
 42
1.0
  0
SEQEND
  8
GND
  0
POLYLINE
  8
GND
 66
      1
 70
1
 40
0.0390
 41
0.0390
  0
VERTEX
  8
GND
 10
6.1770
 20
2.3210
 30
 0.0
 42
1.0
  0
VERTEX
  8
GND
 10
6.2150
 20
2.3210
 30
 0.0
 42
1.0
  0
SEQEND
  8
GND
  0
POLYLINE
  8
GND
 66
      1
 70
1
 40
0.0390
 41
0.0390
  0
VERTEX
  8
GND
 10
6.1770
 20
2.2210
 30
 0.0
 42
1.0
  0
VERTEX
  8
GND
 10
6.2150
 20
2.2210
 30
 0.0
 42
1.0
  0
SEQEND
  8
GND
  0
POLYLINE
  8
GND
 66
      1
 70
1
 40
0.0390
 41
0.0390
  0
VERTEX
  8
GND
 10
6.1770
 20
2.1210
 30
 0.0
 42
1.0
  0
VERTEX
  8
GND
 10
6.2150
 20
2.1210
 30
 0.0
 42
1.0
  0
SEQEND
  8
GND
  0
POLYLINE
  8
GND
 66
      1
 70
1
 40
0.0390
 41
0.0390
  0
VERTEX
  8
GND
 10
5.8770
 20
2.1210
 30
 0.0
 42
1.0
  0
VERTEX
  8
GND
 10
5.9150
 20
2.1210
 30
 0.0
 42
1.0
  0
SEQEND
  8
GND
  0
POLYLINE
  8
GND
 66
      1
 70
1
 40
0.0390
 41
0.0390
  0
VERTEX
  8
GND
 10
5.8770
 20
2.2210
 30
 0.0
 42
1.0
  0
VERTEX
  8
GND
 10
5.9150
 20
2.2210
 30
 0.0
 42
1.0
  0
SEQEND
  8
GND
  0
POLYLINE
  8
GND
 66
      1
 70
1
 40
0.0390
 41
0.0390
  0
VERTEX
  8
GND
 10
5.8770
 20
2.3210
 30
 0.0
 42
1.0
  0
VERTEX
  8
GND
 10
5.9150
 20
2.3210
 30
 0.0
 42
1.0
  0
SEQEND
  8
GND
  0
POLYLINE
  8
GND
 66
      1
 70
1
 40
0.0390
 41
0.0390
  0
VERTEX
  8
GND
 10
5.8770
 20
2.4210
 30
 0.0
 42
1.0
  0
VERTEX
  8
GND
 10
5.9150
 20
2.4210
 30
 0.0
 42
1.0
  0
SEQEND
  8
GND
  0
POLYLINE
  8
GND
 66
      1
 70
1
 40
0.0390
 41
0.0390
  0
VERTEX
  8
GND
 10
5.8770
 20
2.5210
 30
 0.0
 42
1.0
  0
VERTEX
  8
GND
 10
5.9150
 20
2.5210
 30
 0.0
 42
1.0
  0
SEQEND
  8
GND
  0
POLYLINE
  8
GND
 66
      1
 70
1
 40
0.0390
 41
0.0390
  0
VERTEX
  8
GND
 10
5.8770
 20
2.6210
 30
 0.0
 42
1.0
  0
VERTEX
  8
GND
 10
5.9150
 20
2.6210
 30
 0.0
 42
1.0
  0
SEQEND
  8
GND
  0
POLYLINE
  8
GND
 66
      1
 70
1
 40
0.0390
 41
0.0390
  0
VERTEX
  8
GND
 10
5.8770
 20
2.7210
 30
 0.0
 42
1.0
  0
VERTEX
  8
GND
 10
5.9150
 20
2.7210
 30
 0.0
 42
1.0
  0
SEQEND
  8
GND
 0
SOLID
  8
GND
 10
5.8570
 20
2.7820
 11
5.9350
 21
2.7820
 12
5.8570
 22
2.8600
 13
5.9350
 23
2.8600
  0
POLYLINE
  8
GND
 66
      1
 70
1
 40
0.0390
 41
0.0390
  0
VERTEX
  8
GND
 10
6.5770
 20
3.8710
 30
 0.0
 42
1.0
  0
VERTEX
  8
GND
 10
6.6150
 20
3.8710
 30
 0.0
 42
1.0
  0
SEQEND
  8
GND
  0
POLYLINE
  8
GND
 66
      1
 70
1
 40
0.0390
 41
0.0390
  0
VERTEX
  8
GND
 10
6.5770
 20
3.7710
 30
 0.0
 42
1.0
  0
VERTEX
  8
GND
 10
6.6150
 20
3.7710
 30
 0.0
 42
1.0
  0
SEQEND
  8
GND
  0
POLYLINE
  8
GND
 66
      1
 70
1
 40
0.0390
 41
0.0390
  0
VERTEX
  8
GND
 10
6.5770
 20
3.6710
 30
 0.0
 42
1.0
  0
VERTEX
  8
GND
 10
6.6150
 20
3.6710
 30
 0.0
 42
1.0
  0
SEQEND
  8
GND
  0
POLYLINE
  8
GND
 66
      1
 70
1
 40
0.0390
 41
0.0390
  0
VERTEX
  8
GND
 10
6.5770
 20
3.5710
 30
 0.0
 42
1.0
  0
VERTEX
  8
GND
 10
6.6150
 20
3.5710
 30
 0.0
 42
1.0
  0
SEQEND
  8
GND
  0
POLYLINE
  8
GND
 66
      1
 70
1
 40
0.0390
 41
0.0390
  0
VERTEX
  8
GND
 10
6.2770
 20
3.5710
 30
 0.0
 42
1.0
  0
VERTEX
  8
GND
 10
6.3150
 20
3.5710
 30
 0.0
 42
1.0
  0
SEQEND
  8
GND
  0
POLYLINE
  8
GND
 66
      1
 70
1
 40
0.0390
 41
0.0390
  0
VERTEX
  8
GND
 10
6.2770
 20
3.6710
 30
 0.0
 42
1.0
  0
VERTEX
  8
GND
 10
6.3150
 20
3.6710
 30
 0.0
 42
1.0
  0
SEQEND
  8
GND
  0
POLYLINE
  8
GND
 66
      1
 70
1
 40
0.0390
 41
0.0390
  0
VERTEX
  8
GND
 10
6.2770
 20
3.7710
 30
 0.0
 42
1.0
  0
VERTEX
  8
GND
 10
6.3150
 20
3.7710
 30
 0.0
 42
1.0
  0
SEQEND
  8
GND
 0
SOLID
  8
GND
 10
6.2570
 20
3.8320
 11
6.3350
 21
3.8320
 12
6.2570
 22
3.9100
 13
6.3350
 23
3.9100
  0
POLYLINE
  8
GND
 66
      1
 70
1
 40
0.0390
 41
0.0390
  0
VERTEX
  8
GND
 10
6.5770
 20
3.4210
 30
 0.0
 42
1.0
  0
VERTEX
  8
GND
 10
6.6150
 20
3.4210
 30
 0.0
 42
1.0
  0
SEQEND
  8
GND
  0
POLYLINE
  8
GND
 66
      1
 70
1
 40
0.0390
 41
0.0390
  0
VERTEX
  8
GND
 10
6.5770
 20
3.3210
 30
 0.0
 42
1.0
  0
VERTEX
  8
GND
 10
6.6150
 20
3.3210
 30
 0.0
 42
1.0
  0
SEQEND
  8
GND
  0
POLYLINE
  8
GND
 66
      1
 70
1
 40
0.0390
 41
0.0390
  0
VERTEX
  8
GND
 10
6.5770
 20
3.2210
 30
 0.0
 42
1.0
  0
VERTEX
  8
GND
 10
6.6150
 20
3.2210
 30
 0.0
 42
1.0
  0
SEQEND
  8
GND
  0
POLYLINE
  8
GND
 66
      1
 70
1
 40
0.0390
 41
0.0390
  0
VERTEX
  8
GND
 10
6.5770
 20
3.1210
 30
 0.0
 42
1.0
  0
VERTEX
  8
GND
 10
6.6150
 20
3.1210
 30
 0.0
 42
1.0
  0
SEQEND
  8
GND
  0
POLYLINE
  8
GND
 66
      1
 70
1
 40
0.0390
 41
0.0390
  0
VERTEX
  8
GND
 10
6.2770
 20
3.1210
 30
 0.0
 42
1.0
  0
VERTEX
  8
GND
 10
6.3150
 20
3.1210
 30
 0.0
 42
1.0
  0
SEQEND
  8
GND
  0
POLYLINE
  8
GND
 66
      1
 70
1
 40
0.0390
 41
0.0390
  0
VERTEX
  8
GND
 10
6.2770
 20
3.2210
 30
 0.0
 42
1.0
  0
VERTEX
  8
GND
 10
6.3150
 20
3.2210
 30
 0.0
 42
1.0
  0
SEQEND
  8
GND
  0
POLYLINE
  8
GND
 66
      1
 70
1
 40
0.0390
 41
0.0390
  0
VERTEX
  8
GND
 10
6.2770
 20
3.3210
 30
 0.0
 42
1.0
  0
VERTEX
  8
GND
 10
6.3150
 20
3.3210
 30
 0.0
 42
1.0
  0
SEQEND
  8
GND
 0
SOLID
  8
GND
 10
6.2570
 20
3.3820
 11
6.3350
 21
3.3820
 12
6.2570
 22
3.4600
 13
6.3350
 23
3.4600
  0
POLYLINE
  8
GND
 66
      1
 70
1
 40
0.0390
 41
0.0390
  0
VERTEX
  8
GND
 10
6.5770
 20
1.8210
 30
 0.0
 42
1.0
  0
VERTEX
  8
GND
 10
6.6150
 20
1.8210
 30
 0.0
 42
1.0
  0
SEQEND
  8
GND
  0
POLYLINE
  8
GND
 66
      1
 70
1
 40
0.0390
 41
0.0390
  0
VERTEX
  8
GND
 10
6.5770
 20
1.7210
 30
 0.0
 42
1.0
  0
VERTEX
  8
GND
 10
6.6150
 20
1.7210
 30
 0.0
 42
1.0
  0
SEQEND
  8
GND
  0
POLYLINE
  8
GND
 66
      1
 70
1
 40
0.0390
 41
0.0390
  0
VERTEX
  8
GND
 10
6.5770
 20
1.6210
 30
 0.0
 42
1.0
  0
VERTEX
  8
GND
 10
6.6150
 20
1.6210
 30
 0.0
 42
1.0
  0
SEQEND
  8
GND
  0
POLYLINE
  8
GND
 66
      1
 70
1
 40
0.0390
 41
0.0390
  0
VERTEX
  8
GND
 10
6.5770
 20
1.5210
 30
 0.0
 42
1.0
  0
VERTEX
  8
GND
 10
6.6150
 20
1.5210
 30
 0.0
 42
1.0
  0
SEQEND
  8
GND
  0
POLYLINE
  8
GND
 66
      1
 70
1
 40
0.0390
 41
0.0390
  0
VERTEX
  8
GND
 10
6.5770
 20
1.4210
 30
 0.0
 42
1.0
  0
VERTEX
  8
GND
 10
6.6150
 20
1.4210
 30
 0.0
 42
1.0
  0
SEQEND
  8
GND
  0
POLYLINE
  8
GND
 66
      1
 70
1
 40
0.0390
 41
0.0390
  0
VERTEX
  8
GND
 10
6.5770
 20
1.3210
 30
 0.0
 42
1.0
  0
VERTEX
  8
GND
 10
6.6150
 20
1.3210
 30
 0.0
 42
1.0
  0
SEQEND
  8
GND
  0
POLYLINE
  8
GND
 66
      1
 70
1
 40
0.0390
 41
0.0390
  0
VERTEX
  8
GND
 10
6.5770
 20
1.2210
 30
 0.0
 42
1.0
  0
VERTEX
  8
GND
 10
6.6150
 20
1.2210
 30
 0.0
 42
1.0
  0
SEQEND
  8
GND
  0
POLYLINE
  8
GND
 66
      1
 70
1
 40
0.0390
 41
0.0390
  0
VERTEX
  8
GND
 10
6.2770
 20
1.2210
 30
 0.0
 42
1.0
  0
VERTEX
  8
GND
 10
6.3150
 20
1.2210
 30
 0.0
 42
1.0
  0
SEQEND
  8
GND
  0
POLYLINE
  8
GND
 66
      1
 70
1
 40
0.0390
 41
0.0390
  0
VERTEX
  8
GND
 10
6.2770
 20
1.3210
 30
 0.0
 42
1.0
  0
VERTEX
  8
GND
 10
6.3150
 20
1.3210
 30
 0.0
 42
1.0
  0
SEQEND
  8
GND
  0
POLYLINE
  8
GND
 66
      1
 70
1
 40
0.0390
 41
0.0390
  0
VERTEX
  8
GND
 10
6.2770
 20
1.4210
 30
 0.0
 42
1.0
  0
VERTEX
  8
GND
 10
6.3150
 20
1.4210
 30
 0.0
 42
1.0
  0
SEQEND
  8
GND
  0
POLYLINE
  8
GND
 66
      1
 70
1
 40
0.0390
 41
0.0390
  0
VERTEX
  8
GND
 10
6.2770
 20
1.5210
 30
 0.0
 42
1.0
  0
VERTEX
  8
GND
 10
6.3150
 20
1.5210
 30
 0.0
 42
1.0
  0
SEQEND
  8
GND
  0
POLYLINE
  8
GND
 66
      1
 70
1
 40
0.0390
 41
0.0390
  0
VERTEX
  8
GND
 10
6.2770
 20
1.6210
 30
 0.0
 42
1.0
  0
VERTEX
  8
GND
 10
6.3150
 20
1.6210
 30
 0.0
 42
1.0
  0
SEQEND
  8
GND
  0
POLYLINE
  8
GND
 66
      1
 70
1
 40
0.0390
 41
0.0390
  0
VERTEX
  8
GND
 10
6.2770
 20
1.7210
 30
 0.0
 42
1.0
  0
VERTEX
  8
GND
 10
6.3150
 20
1.7210
 30
 0.0
 42
1.0
  0
SEQEND
  8
GND
 0
SOLID
  8
GND
 10
6.2570
 20
1.7820
 11
6.3350
 21
1.7820
 12
6.2570
 22
1.8600
 13
6.3350
 23
1.8600
  0
POLYLINE
  8
GND
 66
      1
 70
1
 40
0.0390
 41
0.0390
  0
VERTEX
  8
GND
 10
6.5770
 20
0.8210
 30
 0.0
 42
1.0
  0
VERTEX
  8
GND
 10
6.6150
 20
0.8210
 30
 0.0
 42
1.0
  0
SEQEND
  8
GND
  0
POLYLINE
  8
GND
 66
      1
 70
1
 40
0.0390
 41
0.0390
  0
VERTEX
  8
GND
 10
6.5770
 20
0.7210
 30
 0.0
 42
1.0
  0
VERTEX
  8
GND
 10
6.6150
 20
0.7210
 30
 0.0
 42
1.0
  0
SEQEND
  8
GND
  0
POLYLINE
  8
GND
 66
      1
 70
1
 40
0.0390
 41
0.0390
  0
VERTEX
  8
GND
 10
6.5770
 20
0.6210
 30
 0.0
 42
1.0
  0
VERTEX
  8
GND
 10
6.6150
 20
0.6210
 30
 0.0
 42
1.0
  0
SEQEND
  8
GND
  0
POLYLINE
  8
GND
 66
      1
 70
1
 40
0.0390
 41
0.0390
  0
VERTEX
  8
GND
 10
6.5770
 20
0.5210
 30
 0.0
 42
1.0
  0
VERTEX
  8
GND
 10
6.6150
 20
0.5210
 30
 0.0
 42
1.0
  0
SEQEND
  8
GND
  0
POLYLINE
  8
GND
 66
      1
 70
1
 40
0.0390
 41
0.0390
  0
VERTEX
  8
GND
 10
6.2770
 20
0.5210
 30
 0.0
 42
1.0
  0
VERTEX
  8
GND
 10
6.3150
 20
0.5210
 30
 0.0
 42
1.0
  0
SEQEND
  8
GND
  0
POLYLINE
  8
GND
 66
      1
 70
1
 40
0.0390
 41
0.0390
  0
VERTEX
  8
GND
 10
6.2770
 20
0.6210
 30
 0.0
 42
1.0
  0
VERTEX
  8
GND
 10
6.3150
 20
0.6210
 30
 0.0
 42
1.0
  0
SEQEND
  8
GND
  0
POLYLINE
  8
GND
 66
      1
 70
1
 40
0.0390
 41
0.0390
  0
VERTEX
  8
GND
 10
6.2770
 20
0.7210
 30
 0.0
 42
1.0
  0
VERTEX
  8
GND
 10
6.3150
 20
0.7210
 30
 0.0
 42
1.0
  0
SEQEND
  8
GND
 0
SOLID
  8
GND
 10
6.2570
 20
0.7820
 11
6.3350
 21
0.7820
 12
6.2570
 22
0.8600
 13
6.3350
 23
0.8600
  0
POLYLINE
  8
0
 66
      1
 70
1
 40
0.0500
 41
0.0500
  0
VERTEX
  8
0
 10
0.1960
 20
0.1710
 30
 0.0
  0
VERTEX
  8
0
 10
0.1960
 20
4.6710
 30
 0.0
  0
VERTEX
  8
0
 10
7.4210
 20
4.6710
 30
 0.0
  0
VERTEX
  8
0
 10
7.4210
 20
0.1710
 30
 0.0
  0
VERTEX
  8
0
 10
0.1960
 20
0.1710
 30
 0.0
  0
SEQEND
  8
0
  0
POLYLINE
  8
0
 66
      1
 70
1
 40
0.0250
 41
0.0250
  0
VERTEX
  8
0
 10
0.1835
 20
0.1710
 30
 0.0
 42
1.0
  0
VERTEX
  8
0
 10
0.2085
 20
0.1710
 30
 0.0
 42
1.0
  0
SEQEND
  8
0
  0
POLYLINE
  8
0
 66
      1
 70
1
 40
0.0250
 41
0.0250
  0
VERTEX
  8
0
 10
0.1835
 20
4.6710
 30
 0.0
 42
1.0
  0
VERTEX
  8
0
 10
0.2085
 20
4.6710
 30
 0.0
 42
1.0
  0
SEQEND
  8
0
  0
POLYLINE
  8
0
 66
      1
 70
1
 40
0.0250
 41
0.0250
  0
VERTEX
  8
0
 10
7.4085
 20
4.6710
 30
 0.0
 42
1.0
  0
VERTEX
  8
0
 10
7.4335
 20
4.6710
 30
 0.0
 42
1.0
  0
SEQEND
  8
0
  0
POLYLINE
  8
0
 66
      1
 70
1
 40
0.0250
 41
0.0250
  0
VERTEX
  8
0
 10
7.4085
 20
0.1710
 30
 0.0
 42
1.0
  0
VERTEX
  8
0
 10
7.4335
 20
0.1710
 30
 0.0
 42
1.0
  0
SEQEND
  8
0
  0
POLYLINE
  8
0
 66
      1
 70
1
 40
0.0250
 41
0.0250
  0
VERTEX
  8
0
 10
0.1835
 20
0.1710
 30
 0.0
 42
1.0
  0
VERTEX
  8
0
 10
0.2085
 20
0.1710
 30
 0.0
 42
1.0
  0
SEQEND
  8
0
  0
POLYLINE
  8
GND
 66
      1
 70
1
 40
0.0180
 41
0.0180
  0
VERTEX
  8
GND
 10
1.3370
 20
1.9460
 30
 0.0
 42
1.0
  0
VERTEX
  8
GND
 10
1.3550
 20
1.9460
 30
 0.0
 42
1.0
  0
SEQEND
  8
GND
  0
POLYLINE
  8
GND
 66
      1
 70
1
 40
0.0180
 41
0.0180
  0
VERTEX
  8
GND
 10
2.2370
 20
1.4960
 30
 0.0
 42
1.0
  0
VERTEX
  8
GND
 10
2.2550
 20
1.4960
 30
 0.0
 42
1.0
  0
SEQEND
  8
GND
  0
POLYLINE
  8
GND
 66
      1
 70
1
 40
0.0180
 41
0.0180
  0
VERTEX
  8
GND
 10
6.4120
 20
0.9960
 30
 0.0
 42
1.0
  0
VERTEX
  8
GND
 10
6.4300
 20
0.9960
 30
 0.0
 42
1.0
  0
SEQEND
  8
GND
  0
POLYLINE
  8
GND
 66
      1
 70
1
 40
0.0180
 41
0.0180
  0
VERTEX
  8
GND
 10
2.9870
 20
3.5210
 30
 0.0
 42
1.0
  0
VERTEX
  8
GND
 10
3.0050
 20
3.5210
 30
 0.0
 42
1.0
  0
SEQEND
  8
GND
  0
POLYLINE
  8
GND
 66
      1
 70
1
 40
0.0180
 41
0.0180
  0
VERTEX
  8
GND
 10
2.9120
 20
1.1960
 30
 0.0
 42
1.0
  0
VERTEX
  8
GND
 10
2.9300
 20
1.1960
 30
 0.0
 42
1.0
  0
SEQEND
  8
GND
  0
POLYLINE
  8
GND
 66
      1
 70
1
 40
0.0180
 41
0.0180
  0
VERTEX
  8
GND
 10
2.5120
 20
2.8210
 30
 0.0
 42
1.0
  0
VERTEX
  8
GND
 10
2.5300
 20
2.8210
 30
 0.0
 42
1.0
  0
SEQEND
  8
GND
  0
POLYLINE
  8
GND
 66
      1
 70
1
 40
0.0180
 41
0.0180
  0
VERTEX
  8
GND
 10
4.2120
 20
0.4210
 30
 0.0
 42
1.0
  0
VERTEX
  8
GND
 10
4.2300
 20
0.4210
 30
 0.0
 42
1.0
  0
SEQEND
  8
GND
  0
POLYLINE
  8
GND
 66
      1
 70
1
 40
0.0180
 41
0.0180
  0
VERTEX
  8
GND
 10
1.2870
 20
0.3210
 30
 0.0
 42
1.0
  0
VERTEX
  8
GND
 10
1.3050
 20
0.3210
 30
 0.0
 42
1.0
  0
SEQEND
  8
GND
  0
POLYLINE
  8
GND
 66
      1
 70
1
 40
0.0180
 41
0.0180
  0
VERTEX
  8
GND
 10
0.8370
 20
3.3960
 30
 0.0
 42
1.0
  0
VERTEX
  8
GND
 10
0.8550
 20
3.3960
 30
 0.0
 42
1.0
  0
SEQEND
  8
GND
  0
POLYLINE
  8
GND
 66
      1
 70
1
 40
0.0180
 41
0.0180
  0
VERTEX
  8
GND
 10
0.9620
 20
1.7210
 30
 0.0
 42
1.0
  0
VERTEX
  8
GND
 10
0.9800
 20
1.7210
 30
 0.0
 42
1.0
  0
SEQEND
  8
GND
  0
POLYLINE
  8
GND
 66
      1
 70
1
 40
0.0180
 41
0.0180
  0
VERTEX
  8
GND
 10
1.3870
 20
2.3210
 30
 0.0
 42
1.0
  0
VERTEX
  8
GND
 10
1.4050
 20
2.3210
 30
 0.0
 42
1.0
  0
SEQEND
  8
GND
  0
POLYLINE
  8
GND
 66
      1
 70
1
 40
0.0180
 41
0.0180
  0
VERTEX
  8
GND
 10
3.3620
 20
2.4960
 30
 0.0
 42
1.0
  0
VERTEX
  8
GND
 10
3.3800
 20
2.4960
 30
 0.0
 42
1.0
  0
SEQEND
  8
GND
  0
POLYLINE
  8
GND
 66
      1
 70
1
 40
0.0180
 41
0.0180
  0
VERTEX
  8
GND
 10
3.3620
 20
2.0960
 30
 0.0
 42
1.0
  0
VERTEX
  8
GND
 10
3.3800
 20
2.0960
 30
 0.0
 42
1.0
  0
SEQEND
  8
GND
  0
POLYLINE
  8
GND
 66
      1
 70
1
 40
0.0180
 41
0.0180
  0
VERTEX
  8
GND
 10
4.3370
 20
3.1710
 30
 0.0
 42
1.0
  0
VERTEX
  8
GND
 10
4.3550
 20
3.1710
 30
 0.0
 42
1.0
  0
SEQEND
  8
GND
  0
POLYLINE
  8
GND
 66
      1
 70
1
 40
0.0180
 41
0.0180
  0
VERTEX
  8
GND
 10
0.8870
 20
1.3960
 30
 0.0
 42
1.0
  0
VERTEX
  8
GND
 10
0.9050
 20
1.3960
 30
 0.0
 42
1.0
  0
SEQEND
  8
GND
  0
POLYLINE
  8
GND
 66
      1
 70
1
 40
0.0180
 41
0.0180
  0
VERTEX
  8
GND
 10
1.7870
 20
1.5960
 30
 0.0
 42
1.0
  0
VERTEX
  8
GND
 10
1.8050
 20
1.5960
 30
 0.0
 42
1.0
  0
SEQEND
  8
GND
  0
POLYLINE
  8
GND
 66
      1
 70
1
 40
0.0180
 41
0.0180
  0
VERTEX
  8
GND
 10
3.4620
 20
0.9210
 30
 0.0
 42
1.0
  0
VERTEX
  8
GND
 10
3.4800
 20
0.9210
 30
 0.0
 42
1.0
  0
SEQEND
  8
GND
  0
POLYLINE
  8
GND
 66
      1
 70
1
 40
0.0180
 41
0.0180
  0
VERTEX
  8
GND
 10
2.1120
 20
1.3210
 30
 0.0
 42
1.0
  0
VERTEX
  8
GND
 10
2.1300
 20
1.3210
 30
 0.0
 42
1.0
  0
SEQEND
  8
GND
  0
POLYLINE
  8
GND
 66
      1
 70
1
 40
0.0180
 41
0.0180
  0
VERTEX
  8
GND
 10
2.1120
 20
1.5210
 30
 0.0
 42
1.0
  0
VERTEX
  8
GND
 10
2.1300
 20
1.5210
 30
 0.0
 42
1.0
  0
SEQEND
  8
GND
  0
POLYLINE
  8
GND
 66
      1
 70
1
 40
0.0180
 41
0.0180
  0
VERTEX
  8
GND
 10
0.8370
 20
1.5960
 30
 0.0
 42
1.0
  0
VERTEX
  8
GND
 10
0.8550
 20
1.5960
 30
 0.0
 42
1.0
  0
SEQEND
  8
GND
  0
POLYLINE
  8
GND
 66
      1
 70
1
 40
0.0180
 41
0.0180
  0
VERTEX
  8
GND
 10
0.9620
 20
3.4460
 30
 0.0
 42
1.0
  0
VERTEX
  8
GND
 10
0.9800
 20
3.4460
 30
 0.0
 42
1.0
  0
SEQEND
  8
GND
  0
POLYLINE
  8
GND
 66
      1
 70
1
 40
0.0180
 41
0.0180
  0
VERTEX
  8
GND
 10
6.4370
 20
0.9210
 30
 0.0
 42
1.0
  0
VERTEX
  8
GND
 10
6.4550
 20
0.9210
 30
 0.0
 42
1.0
  0
SEQEND
  8
GND
  0
POLYLINE
  8
GND
 66
      1
 70
1
 40
0.0180
 41
0.0180
  0
VERTEX
  8
GND
 10
5.1370
 20
0.9210
 30
 0.0
 42
1.0
  0
VERTEX
  8
GND
 10
5.1550
 20
0.9210
 30
 0.0
 42
1.0
  0
SEQEND
  8
GND
  0
POLYLINE
  8
GND
 66
      1
 70
1
 40
0.0180
 41
0.0180
  0
VERTEX
  8
GND
 10
3.1120
 20
2.2210
 30
 0.0
 42
1.0
  0
VERTEX
  8
GND
 10
3.1300
 20
2.2210
 30
 0.0
 42
1.0
  0
SEQEND
  8
GND
  0
POLYLINE
  8
GND
 66
      1
 70
1
 40
0.0180
 41
0.0180
  0
VERTEX
  8
GND
 10
6.7620
 20
2.6460
 30
 0.0
 42
1.0
  0
VERTEX
  8
GND
 10
6.7800
 20
2.6460
 30
 0.0
 42
1.0
  0
SEQEND
  8
GND
  0
POLYLINE
  8
GND
 66
      1
 70
1
 40
0.0180
 41
0.0180
  0
VERTEX
  8
GND
 10
4.9370
 20
3.2710
 30
 0.0
 42
1.0
  0
VERTEX
  8
GND
 10
4.9550
 20
3.2710
 30
 0.0
 42
1.0
  0
SEQEND
  8
GND
  0
POLYLINE
  8
GND
 66
      1
 70
1
 40
0.0180
 41
0.0180
  0
VERTEX
  8
GND
 10
1.4870
 20
0.2710
 30
 0.0
 42
1.0
  0
VERTEX
  8
GND
 10
1.5050
 20
0.2710
 30
 0.0
 42
1.0
  0
SEQEND
  8
GND
  0
POLYLINE
  8
GND
 66
      1
 70
1
 40
0.0180
 41
0.0180
  0
VERTEX
  8
GND
 10
6.9620
 20
0.5460
 30
 0.0
 42
1.0
  0
VERTEX
  8
GND
 10
6.9800
 20
0.5460
 30
 0.0
 42
1.0
  0
SEQEND
  8
GND
  0
POLYLINE
  8
GND
 66
      1
 70
1
 40
0.0180
 41
0.0180
  0
VERTEX
  8
GND
 10
6.8870
 20
3.2710
 30
 0.0
 42
1.0
  0
VERTEX
  8
GND
 10
6.9050
 20
3.2710
 30
 0.0
 42
1.0
  0
SEQEND
  8
GND
  0
POLYLINE
  8
GND
 66
      1
 70
1
 40
0.0180
 41
0.0180
  0
VERTEX
  8
GND
 10
4.9370
 20
3.2710
 30
 0.0
 42
1.0
  0
VERTEX
  8
GND
 10
4.9550
 20
3.2710
 30
 0.0
 42
1.0
  0
SEQEND
  8
GND
  0
POLYLINE
  8
GND
 66
      1
 70
1
 40
0.0180
 41
0.0180
  0
VERTEX
  8
GND
 10
0.8620
 20
1.5210
 30
 0.0
 42
1.0
  0
VERTEX
  8
GND
 10
0.8800
 20
1.5210
 30
 0.0
 42
1.0
  0
SEQEND
  8
GND
  0
POLYLINE
  8
GND
 66
      1
 70
1
 40
0.0180
 41
0.0180
  0
VERTEX
  8
GND
 10
5.3870
 20
1.1210
 30
 0.0
 42
1.0
  0
VERTEX
  8
GND
 10
5.4050
 20
1.1210
 30
 0.0
 42
1.0
  0
SEQEND
  8
GND
  0
POLYLINE
  8
GND
 66
      1
 70
1
 40
0.0180
 41
0.0180
  0
VERTEX
  8
GND
 10
5.5620
 20
1.3210
 30
 0.0
 42
1.0
  0
VERTEX
  8
GND
 10
5.5800
 20
1.3210
 30
 0.0
 42
1.0
  0
SEQEND
  8
GND
  0
POLYLINE
  8
GND
 66
      1
 70
1
 40
0.0180
 41
0.0180
  0
VERTEX
  8
GND
 10
0.9620
 20
2.9960
 30
 0.0
 42
1.0
  0
VERTEX
  8
GND
 10
0.9800
 20
2.9960
 30
 0.0
 42
1.0
  0
SEQEND
  8
GND
  0
POLYLINE
  8
GND
 66
      1
 70
1
 40
0.0180
 41
0.0180
  0
VERTEX
  8
GND
 10
3.6120
 20
2.9710
 30
 0.0
 42
1.0
  0
VERTEX
  8
GND
 10
3.6300
 20
2.9710
 30
 0.0
 42
1.0
  0
SEQEND
  8
GND
  0
POLYLINE
  8
GND
 66
      1
 70
1
 40
0.0180
 41
0.0180
  0
VERTEX
  8
GND
 10
4.2620
 20
2.3960
 30
 0.0
 42
1.0
  0
VERTEX
  8
GND
 10
4.2800
 20
2.3960
 30
 0.0
 42
1.0
  0
SEQEND
  8
GND
  0
POLYLINE
  8
GND
 66
      1
 70
1
 40
0.0180
 41
0.0180
  0
VERTEX
  8
GND
 10
3.1120
 20
2.5210
 30
 0.0
 42
1.0
  0
VERTEX
  8
GND
 10
3.1300
 20
2.5210
 30
 0.0
 42
1.0
  0
SEQEND
  8
GND
  0
POLYLINE
  8
GND
 66
      1
 70
1
 40
0.0180
 41
0.0180
  0
VERTEX
  8
GND
 10
1.3120
 20
2.2960
 30
 0.0
 42
1.0
  0
VERTEX
  8
GND
 10
1.3300
 20
2.2960
 30
 0.0
 42
1.0
  0
SEQEND
  8
GND
  0
POLYLINE
  8
GND
 66
      1
 70
1
 40
0.0180
 41
0.0180
  0
VERTEX
  8
GND
 10
6.9120
 20
1.1710
 30
 0.0
 42
1.0
  0
VERTEX
  8
GND
 10
6.9300
 20
1.1710
 30
 0.0
 42
1.0
  0
SEQEND
  8
GND
  0
POLYLINE
  8
GND
 66
      1
 70
1
 40
0.0180
 41
0.0180
  0
VERTEX
  8
GND
 10
4.6120
 20
2.4960
 30
 0.0
 42
1.0
  0
VERTEX
  8
GND
 10
4.6300
 20
2.4960
 30
 0.0
 42
1.0
  0
SEQEND
  8
GND
  0
POLYLINE
  8
GND
 66
      1
 70
1
 40
0.0180
 41
0.0180
  0
VERTEX
  8
GND
 10
5.3120
 20
0.4210
 30
 0.0
 42
1.0
  0
VERTEX
  8
GND
 10
5.3300
 20
0.4210
 30
 0.0
 42
1.0
  0
SEQEND
  8
GND
  0
POLYLINE
  8
GND
 66
      1
 70
1
 40
0.0180
 41
0.0180
  0
VERTEX
  8
GND
 10
4.7870
 20
0.3960
 30
 0.0
 42
1.0
  0
VERTEX
  8
GND
 10
4.8050
 20
0.3960
 30
 0.0
 42
1.0
  0
SEQEND
  8
GND
  0
POLYLINE
  8
GND
 66
      1
 70
1
 40
0.0180
 41
0.0180
  0
VERTEX
  8
GND
 10
3.9620
 20
0.4710
 30
 0.0
 42
1.0
  0
VERTEX
  8
GND
 10
3.9800
 20
0.4710
 30
 0.0
 42
1.0
  0
SEQEND
  8
GND
  0
POLYLINE
  8
GND
 66
      1
 70
1
 40
0.0180
 41
0.0180
  0
VERTEX
  8
GND
 10
6.7370
 20
0.5710
 30
 0.0
 42
1.0
  0
VERTEX
  8
GND
 10
6.7550
 20
0.5710
 30
 0.0
 42
1.0
  0
SEQEND
  8
GND
  0
POLYLINE
  8
GND
 66
      1
 70
1
 40
0.0180
 41
0.0180
  0
VERTEX
  8
GND
 10
3.1620
 20
0.3710
 30
 0.0
 42
1.0
  0
VERTEX
  8
GND
 10
3.1800
 20
0.3710
 30
 0.0
 42
1.0
  0
SEQEND
  8
GND
  0
POLYLINE
  8
GND
 66
      1
 70
1
 40
0.0180
 41
0.0180
  0
VERTEX
  8
GND
 10
3.0620
 20
0.9710
 30
 0.0
 42
1.0
  0
VERTEX
  8
GND
 10
3.0800
 20
0.9710
 30
 0.0
 42
1.0
  0
SEQEND
  8
GND
  0
POLYLINE
  8
GND
 66
      1
 70
1
 40
0.0180
 41
0.0180
  0
VERTEX
  8
GND
 10
6.1370
 20
4.5460
 30
 0.0
 42
1.0
  0
VERTEX
  8
GND
 10
6.1550
 20
4.5460
 30
 0.0
 42
1.0
  0
SEQEND
  8
GND
  0
POLYLINE
  8
GND
 66
      1
 70
1
 40
0.0180
 41
0.0180
  0
VERTEX
  8
GND
 10
1.3870
 20
1.5710
 30
 0.0
 42
1.0
  0
VERTEX
  8
GND
 10
1.4050
 20
1.5710
 30
 0.0
 42
1.0
  0
SEQEND
  8
GND
  0
POLYLINE
  8
GND
 66
      1
 70
1
 40
0.0180
 41
0.0180
  0
VERTEX
  8
GND
 10
2.9620
 20
2.7210
 30
 0.0
 42
1.0
  0
VERTEX
  8
GND
 10
2.9800
 20
2.7210
 30
 0.0
 42
1.0
  0
SEQEND
  8
GND
  0
POLYLINE
  8
GND
 66
      1
 70
1
 40
0.0180
 41
0.0180
  0
VERTEX
  8
GND
 10
0.3870
 20
0.6210
 30
 0.0
 42
1.0
  0
VERTEX
  8
GND
 10
0.4050
 20
0.6210
 30
 0.0
 42
1.0
  0
SEQEND
  8
GND
  0
POLYLINE
  8
GND
 66
      1
 70
1
 40
0.0180
 41
0.0180
  0
VERTEX
  8
GND
 10
0.7370
 20
3.3460
 30
 0.0
 42
1.0
  0
VERTEX
  8
GND
 10
0.7550
 20
3.3460
 30
 0.0
 42
1.0
  0
SEQEND
  8
GND
  0
POLYLINE
  8
GND
 66
      1
 70
1
 40
0.0180
 41
0.0180
  0
VERTEX
  8
GND
 10
2.3370
 20
2.8460
 30
 0.0
 42
1.0
  0
VERTEX
  8
GND
 10
2.3550
 20
2.8460
 30
 0.0
 42
1.0
  0
SEQEND
  8
GND
  0
POLYLINE
  8
GND
 66
      1
 70
1
 40
0.0180
 41
0.0180
  0
VERTEX
  8
GND
 10
3.2870
 20
3.4710
 30
 0.0
 42
1.0
  0
VERTEX
  8
GND
 10
3.3050
 20
3.4710
 30
 0.0
 42
1.0
  0
SEQEND
  8
GND
  0
POLYLINE
  8
GND
 66
      1
 70
1
 40
0.0180
 41
0.0180
  0
VERTEX
  8
GND
 10
3.2870
 20
3.5710
 30
 0.0
 42
1.0
  0
VERTEX
  8
GND
 10
3.3050
 20
3.5710
 30
 0.0
 42
1.0
  0
SEQEND
  8
GND
  0
POLYLINE
  8
GND
 66
      1
 70
1
 40
0.0180
 41
0.0180
  0
VERTEX
  8
GND
 10
3.3870
 20
3.6960
 30
 0.0
 42
1.0
  0
VERTEX
  8
GND
 10
3.4050
 20
3.6960
 30
 0.0
 42
1.0
  0
SEQEND
  8
GND
  0
POLYLINE
  8
GND
 66
      1
 70
1
 40
0.0180
 41
0.0180
  0
VERTEX
  8
GND
 10
1.8120
 20
3.7960
 30
 0.0
 42
1.0
  0
VERTEX
  8
GND
 10
1.8300
 20
3.7960
 30
 0.0
 42
1.0
  0
SEQEND
  8
GND
  0
POLYLINE
  8
GND
 66
      1
 70
1
 40
0.0180
 41
0.0180
  0
VERTEX
  8
GND
 10
1.6620
 20
2.2960
 30
 0.0
 42
1.0
  0
VERTEX
  8
GND
 10
1.6800
 20
2.2960
 30
 0.0
 42
1.0
  0
SEQEND
  8
GND
  0
POLYLINE
  8
GND
 66
      1
 70
1
 40
0.0180
 41
0.0180
  0
VERTEX
  8
GND
 10
3.2370
 20
2.4210
 30
 0.0
 42
1.0
  0
VERTEX
  8
GND
 10
3.2550
 20
2.4210
 30
 0.0
 42
1.0
  0
SEQEND
  8
GND
  0
POLYLINE
  8
GND
 66
      1
 70
1
 40
0.0180
 41
0.0180
  0
VERTEX
  8
GND
 10
3.1870
 20
1.0210
 30
 0.0
 42
1.0
  0
VERTEX
  8
GND
 10
3.2050
 20
1.0210
 30
 0.0
 42
1.0
  0
SEQEND
  8
GND
  0
POLYLINE
  8
GND
 66
      1
 70
1
 40
0.0180
 41
0.0180
  0
VERTEX
  8
GND
 10
1.2370
 20
2.3460
 30
 0.0
 42
1.0
  0
VERTEX
  8
GND
 10
1.2550
 20
2.3460
 30
 0.0
 42
1.0
  0
SEQEND
  8
GND
  0
POLYLINE
  8
GND
 66
      1
 70
1
 40
0.0180
 41
0.0180
  0
VERTEX
  8
GND
 10
3.1620
 20
2.5710
 30
 0.0
 42
1.0
  0
VERTEX
  8
GND
 10
3.1800
 20
2.5710
 30
 0.0
 42
1.0
  0
SEQEND
  8
GND
  0
POLYLINE
  8
GND
 66
      1
 70
1
 40
0.0180
 41
0.0180
  0
VERTEX
  8
GND
 10
6.9870
 20
3.4710
 30
 0.0
 42
1.0
  0
VERTEX
  8
GND
 10
7.0050
 20
3.4710
 30
 0.0
 42
1.0
  0
SEQEND
  8
GND
  0
POLYLINE
  8
GND
 66
      1
 70
1
 40
0.0180
 41
0.0180
  0
VERTEX
  8
GND
 10
5.6370
 20
2.9710
 30
 0.0
 42
1.0
  0
VERTEX
  8
GND
 10
5.6550
 20
2.9710
 30
 0.0
 42
1.0
  0
SEQEND
  8
GND
  0
POLYLINE
  8
GND
 66
      1
 70
1
 40
0.0180
 41
0.0180
  0
VERTEX
  8
GND
 10
1.6370
 20
3.1710
 30
 0.0
 42
1.0
  0
VERTEX
  8
GND
 10
1.6550
 20
3.1710
 30
 0.0
 42
1.0
  0
SEQEND
  8
GND
  0
POLYLINE
  8
GND
 66
      1
 70
1
 40
0.0180
 41
0.0180
  0
VERTEX
  8
GND
 10
3.0870
 20
3.1960
 30
 0.0
 42
1.0
  0
VERTEX
  8
GND
 10
3.1050
 20
3.1960
 30
 0.0
 42
1.0
  0
SEQEND
  8
GND
  0
POLYLINE
  8
GND
 66
      1
 70
1
 40
0.0180
 41
0.0180
  0
VERTEX
  8
GND
 10
2.7620
 20
4.0960
 30
 0.0
 42
1.0
  0
VERTEX
  8
GND
 10
2.7800
 20
4.0960
 30
 0.0
 42
1.0
  0
SEQEND
  8
GND
  0
POLYLINE
  8
GND
 66
      1
 70
1
 40
0.0180
 41
0.0180
  0
VERTEX
  8
GND
 10
4.0370
 20
4.0960
 30
 0.0
 42
1.0
  0
VERTEX
  8
GND
 10
4.0550
 20
4.0960
 30
 0.0
 42
1.0
  0
SEQEND
  8
GND
  0
POLYLINE
  8
GND
 66
      1
 70
1
 40
0.0180
 41
0.0180
  0
VERTEX
  8
GND
 10
3.9370
 20
1.9710
 30
 0.0
 42
1.0
  0
VERTEX
  8
GND
 10
3.9550
 20
1.9710
 30
 0.0
 42
1.0
  0
SEQEND
  8
GND
  0
POLYLINE
  8
GND
 66
      1
 70
1
 40
0.0180
 41
0.0180
  0
VERTEX
  8
GND
 10
1.7870
 20
1.4210
 30
 0.0
 42
1.0
  0
VERTEX
  8
GND
 10
1.8050
 20
1.4210
 30
 0.0
 42
1.0
  0
SEQEND
  8
GND
  0
POLYLINE
  8
GND
 66
      1
 70
1
 40
0.0180
 41
0.0180
  0
VERTEX
  8
GND
 10
3.5620
 20
2.0460
 30
 0.0
 42
1.0
  0
VERTEX
  8
GND
 10
3.5800
 20
2.0460
 30
 0.0
 42
1.0
  0
SEQEND
  8
GND
  0
POLYLINE
  8
GND
 66
      1
 70
1
 40
0.0180
 41
0.0180
  0
VERTEX
  8
GND
 10
3.3620
 20
4.0210
 30
 0.0
 42
1.0
  0
VERTEX
  8
GND
 10
3.3800
 20
4.0210
 30
 0.0
 42
1.0
  0
SEQEND
  8
GND
  0
POLYLINE
  8
GND
 66
      1
 70
1
 40
0.0180
 41
0.0180
  0
VERTEX
  8
GND
 10
2.6870
 20
4.0460
 30
 0.0
 42
1.0
  0
VERTEX
  8
GND
 10
2.7050
 20
4.0460
 30
 0.0
 42
1.0
  0
SEQEND
  8
GND
  0
POLYLINE
  8
GND
 66
      1
 70
1
 40
0.0180
 41
0.0180
  0
VERTEX
  8
GND
 10
2.4870
 20
3.7210
 30
 0.0
 42
1.0
  0
VERTEX
  8
GND
 10
2.5050
 20
3.7210
 30
 0.0
 42
1.0
  0
SEQEND
  8
GND
  0
POLYLINE
  8
GND
 66
      1
 70
1
 40
0.0180
 41
0.0180
  0
VERTEX
  8
GND
 10
2.8370
 20
3.7460
 30
 0.0
 42
1.0
  0
VERTEX
  8
GND
 10
2.8550
 20
3.7460
 30
 0.0
 42
1.0
  0
SEQEND
  8
GND
  0
POLYLINE
  8
GND
 66
      1
 70
1
 40
0.0180
 41
0.0180
  0
VERTEX
  8
GND
 10
2.8870
 20
1.8460
 30
 0.0
 42
1.0
  0
VERTEX
  8
GND
 10
2.9050
 20
1.8460
 30
 0.0
 42
1.0
  0
SEQEND
  8
GND
  0
POLYLINE
  8
GND
 66
      1
 70
1
 40
0.0180
 41
0.0180
  0
VERTEX
  8
GND
 10
5.1870
 20
1.4210
 30
 0.0
 42
1.0
  0
VERTEX
  8
GND
 10
5.2050
 20
1.4210
 30
 0.0
 42
1.0
  0
SEQEND
  8
GND
  0
POLYLINE
  8
GND
 66
      1
 70
1
 40
0.0180
 41
0.0180
  0
VERTEX
  8
GND
 10
0.3120
 20
1.6710
 30
 0.0
 42
1.0
  0
VERTEX
  8
GND
 10
0.3300
 20
1.6710
 30
 0.0
 42
1.0
  0
SEQEND
  8
GND
  0
POLYLINE
  8
GND
 66
      1
 70
1
 40
0.0180
 41
0.0180
  0
VERTEX
  8
GND
 10
6.4120
 20
0.8210
 30
 0.0
 42
1.0
  0
VERTEX
  8
GND
 10
6.4300
 20
0.8210
 30
 0.0
 42
1.0
  0
SEQEND
  8
GND
  0
POLYLINE
  8
GND
 66
      1
 70
1
 40
0.0180
 41
0.0180
  0
VERTEX
  8
GND
 10
6.7620
 20
2.9460
 30
 0.0
 42
1.0
  0
VERTEX
  8
GND
 10
6.7800
 20
2.9460
 30
 0.0
 42
1.0
  0
SEQEND
  8
GND
  0
POLYLINE
  8
GND
 66
      1
 70
1
 40
0.0180
 41
0.0180
  0
VERTEX
  8
GND
 10
5.0370
 20
2.8710
 30
 0.0
 42
1.0
  0
VERTEX
  8
GND
 10
5.0550
 20
2.8710
 30
 0.0
 42
1.0
  0
SEQEND
  8
GND
  0
POLYLINE
  8
GND
 66
      1
 70
1
 40
0.0180
 41
0.0180
  0
VERTEX
  8
GND
 10
4.2620
 20
2.5710
 30
 0.0
 42
1.0
  0
VERTEX
  8
GND
 10
4.2800
 20
2.5710
 30
 0.0
 42
1.0
  0
SEQEND
  8
GND
  0
POLYLINE
  8
GND
 66
      1
 70
1
 40
0.0180
 41
0.0180
  0
VERTEX
  8
GND
 10
1.4620
 20
2.4460
 30
 0.0
 42
1.0
  0
VERTEX
  8
GND
 10
1.4800
 20
2.4460
 30
 0.0
 42
1.0
  0
SEQEND
  8
GND
  0
POLYLINE
  8
GND
 66
      1
 70
1
 40
0.0180
 41
0.0180
  0
VERTEX
  8
GND
 10
1.0870
 20
3.7710
 30
 0.0
 42
1.0
  0
VERTEX
  8
GND
 10
1.1050
 20
3.7710
 30
 0.0
 42
1.0
  0
SEQEND
  8
GND
  0
POLYLINE
  8
GND
 66
      1
 70
1
 40
0.0180
 41
0.0180
  0
VERTEX
  8
GND
 10
0.8620
 20
2.8210
 30
 0.0
 42
1.0
  0
VERTEX
  8
GND
 10
0.8800
 20
2.8210
 30
 0.0
 42
1.0
  0
SEQEND
  8
GND
  0
POLYLINE
  8
GND
 66
      1
 70
1
 40
0.0180
 41
0.0180
  0
VERTEX
  8
GND
 10
3.4120
 20
2.1460
 30
 0.0
 42
1.0
  0
VERTEX
  8
GND
 10
3.4300
 20
2.1460
 30
 0.0
 42
1.0
  0
SEQEND
  8
GND
  0
POLYLINE
  8
GND
 66
      1
 70
1
 40
0.0180
 41
0.0180
  0
VERTEX
  8
GND
 10
5.1370
 20
1.8960
 30
 0.0
 42
1.0
  0
VERTEX
  8
GND
 10
5.1550
 20
1.8960
 30
 0.0
 42
1.0
  0
SEQEND
  8
GND
  0
POLYLINE
  8
GND
 66
      1
 70
1
 40
0.0180
 41
0.0180
  0
VERTEX
  8
GND
 10
4.1370
 20
0.2710
 30
 0.0
 42
1.0
  0
VERTEX
  8
GND
 10
4.1550
 20
0.2710
 30
 0.0
 42
1.0
  0
SEQEND
  8
GND
  0
POLYLINE
  8
GND
 66
      1
 70
1
 40
0.0180
 41
0.0180
  0
VERTEX
  8
GND
 10
6.9120
 20
0.2960
 30
 0.0
 42
1.0
  0
VERTEX
  8
GND
 10
6.9300
 20
0.2960
 30
 0.0
 42
1.0
  0
SEQEND
  8
GND
  0
POLYLINE
  8
GND
 66
      1
 70
1
 40
0.0180
 41
0.0180
  0
VERTEX
  8
GND
 10
2.8620
 20
1.2460
 30
 0.0
 42
1.0
  0
VERTEX
  8
GND
 10
2.8800
 20
1.2460
 30
 0.0
 42
1.0
  0
SEQEND
  8
GND
  0
POLYLINE
  8
GND
 66
      1
 70
1
 40
0.0180
 41
0.0180
  0
VERTEX
  8
GND
 10
2.8870
 20
3.4210
 30
 0.0
 42
1.0
  0
VERTEX
  8
GND
 10
2.9050
 20
3.4210
 30
 0.0
 42
1.0
  0
SEQEND
  8
GND
  0
POLYLINE
  8
GND
 66
      1
 70
1
 40
0.0180
 41
0.0180
  0
VERTEX
  8
GND
 10
2.6370
 20
4.5710
 30
 0.0
 42
1.0
  0
VERTEX
  8
GND
 10
2.6550
 20
4.5710
 30
 0.0
 42
1.0
  0
SEQEND
  8
GND
  0
POLYLINE
  8
GND
 66
      1
 70
1
 40
0.0180
 41
0.0180
  0
VERTEX
  8
GND
 10
5.1370
 20
4.5210
 30
 0.0
 42
1.0
  0
VERTEX
  8
GND
 10
5.1550
 20
4.5210
 30
 0.0
 42
1.0
  0
SEQEND
  8
GND
  0
POLYLINE
  8
GND
 66
      1
 70
1
 40
0.0180
 41
0.0180
  0
VERTEX
  8
GND
 10
3.0620
 20
2.3460
 30
 0.0
 42
1.0
  0
VERTEX
  8
GND
 10
3.0800
 20
2.3460
 30
 0.0
 42
1.0
  0
SEQEND
  8
GND
  0
POLYLINE
  8
GND
 66
      1
 70
1
 40
0.0180
 41
0.0180
  0
VERTEX
  8
GND
 10
2.7620
 20
3.3710
 30
 0.0
 42
1.0
  0
VERTEX
  8
GND
 10
2.7800
 20
3.3710
 30
 0.0
 42
1.0
  0
SEQEND
  8
GND
  0
POLYLINE
  8
GND
 66
      1
 70
1
 40
0.0180
 41
0.0180
  0
VERTEX
  8
GND
 10
2.7120
 20
1.2210
 30
 0.0
 42
1.0
  0
VERTEX
  8
GND
 10
2.7300
 20
1.2210
 30
 0.0
 42
1.0
  0
SEQEND
  8
GND
  0
POLYLINE
  8
GND
 66
      1
 70
1
 40
0.0180
 41
0.0180
  0
VERTEX
  8
GND
 10
3.9120
 20
0.6210
 30
 0.0
 42
1.0
  0
VERTEX
  8
GND
 10
3.9300
 20
0.6210
 30
 0.0
 42
1.0
  0
SEQEND
  8
GND
  0
POLYLINE
  8
GND
 66
      1
 70
1
 40
0.0180
 41
0.0180
  0
VERTEX
  8
GND
 10
3.2870
 20
0.6210
 30
 0.0
 42
1.0
  0
VERTEX
  8
GND
 10
3.3050
 20
0.6210
 30
 0.0
 42
1.0
  0
SEQEND
  8
GND
  0
POLYLINE
  8
GND
 66
      1
 70
1
 40
0.0180
 41
0.0180
  0
VERTEX
  8
GND
 10
3.4870
 20
3.9460
 30
 0.0
 42
1.0
  0
VERTEX
  8
GND
 10
3.5050
 20
3.9460
 30
 0.0
 42
1.0
  0
SEQEND
  8
GND
  0
POLYLINE
  8
GND
 66
      1
 70
1
 40
0.0180
 41
0.0180
  0
VERTEX
  8
GND
 10
3.3370
 20
3.3460
 30
 0.0
 42
1.0
  0
VERTEX
  8
GND
 10
3.3550
 20
3.3460
 30
 0.0
 42
1.0
  0
SEQEND
  8
GND
  0
POLYLINE
  8
GND
 66
      1
 70
1
 40
0.0180
 41
0.0180
  0
VERTEX
  8
GND
 10
3.0870
 20
2.9710
 30
 0.0
 42
1.0
  0
VERTEX
  8
GND
 10
3.1050
 20
2.9710
 30
 0.0
 42
1.0
  0
SEQEND
  8
GND
  0
POLYLINE
  8
GND
 66
      1
 70
1
 40
0.0180
 41
0.0180
  0
VERTEX
  8
GND
 10
5.6370
 20
2.9710
 30
 0.0
 42
1.0
  0
VERTEX
  8
GND
 10
5.6550
 20
2.9710
 30
 0.0
 42
1.0
  0
SEQEND
  8
GND
  0
POLYLINE
  8
GND
 66
      1
 70
1
 40
0.0180
 41
0.0180
  0
VERTEX
  8
GND
 10
3.2370
 20
3.6210
 30
 0.0
 42
1.0
  0
VERTEX
  8
GND
 10
3.2550
 20
3.6210
 30
 0.0
 42
1.0
  0
SEQEND
  8
GND
  0
POLYLINE
  8
GND
 66
      1
 70
1
 40
0.0180
 41
0.0180
  0
VERTEX
  8
GND
 10
1.8620
 20
3.0460
 30
 0.0
 42
1.0
  0
VERTEX
  8
GND
 10
1.8800
 20
3.0460
 30
 0.0
 42
1.0
  0
SEQEND
  8
GND
  0
POLYLINE
  8
GND
 66
      1
 70
1
 40
0.0180
 41
0.0180
  0
VERTEX
  8
GND
 10
4.0620
 20
3.0460
 30
 0.0
 42
1.0
  0
VERTEX
  8
GND
 10
4.0800
 20
3.0460
 30
 0.0
 42
1.0
  0
SEQEND
  8
GND
  0
POLYLINE
  8
GND
 66
      1
 70
1
 40
0.0180
 41
0.0180
  0
VERTEX
  8
GND
 10
6.3870
 20
1.9960
 30
 0.0
 42
1.0
  0
VERTEX
  8
GND
 10
6.4050
 20
1.9960
 30
 0.0
 42
1.0
  0
SEQEND
  8
GND
  0
POLYLINE
  8
GND
 66
      1
 70
1
 40
0.0180
 41
0.0180
  0
VERTEX
  8
GND
 10
5.7120
 20
2.9710
 30
 0.0
 42
1.0
  0
VERTEX
  8
GND
 10
5.7300
 20
2.9710
 30
 0.0
 42
1.0
  0
SEQEND
  8
GND
  0
POLYLINE
  8
GND
 66
      1
 70
1
 40
0.0180
 41
0.0180
  0
VERTEX
  8
GND
 10
7.0870
 20
3.0210
 30
 0.0
 42
1.0
  0
VERTEX
  8
GND
 10
7.1050
 20
3.0210
 30
 0.0
 42
1.0
  0
SEQEND
  8
GND
  0
POLYLINE
  8
GND
 66
      1
 70
1
 40
0.0180
 41
0.0180
  0
VERTEX
  8
GND
 10
3.0120
 20
2.8960
 30
 0.0
 42
1.0
  0
VERTEX
  8
GND
 10
3.0300
 20
2.8960
 30
 0.0
 42
1.0
  0
SEQEND
  8
GND
  0
POLYLINE
  8
GND
 66
      1
 70
1
 40
0.0180
 41
0.0180
  0
VERTEX
  8
GND
 10
5.7120
 20
2.9710
 30
 0.0
 42
1.0
  0
VERTEX
  8
GND
 10
5.7300
 20
2.9710
 30
 0.0
 42
1.0
  0
SEQEND
  8
GND
  0
POLYLINE
  8
GND
 66
      1
 70
1
 40
0.0180
 41
0.0180
  0
VERTEX
  8
GND
 10
5.2870
 20
0.8210
 30
 0.0
 42
1.0
  0
VERTEX
  8
GND
 10
5.3050
 20
0.8210
 30
 0.0
 42
1.0
  0
SEQEND
  8
GND
  0
POLYLINE
  8
GND
 66
      1
 70
1
 40
0.0180
 41
0.0180
  0
VERTEX
  8
GND
 10
1.7620
 20
3.2460
 30
 0.0
 42
1.0
  0
VERTEX
  8
GND
 10
1.7800
 20
3.2460
 30
 0.0
 42
1.0
  0
SEQEND
  8
GND
  0
POLYLINE
  8
GND
 66
      1
 70
1
 40
0.0180
 41
0.0180
  0
VERTEX
  8
GND
 10
2.7620
 20
2.8210
 30
 0.0
 42
1.0
  0
VERTEX
  8
GND
 10
2.7800
 20
2.8210
 30
 0.0
 42
1.0
  0
SEQEND
  8
GND
  0
POLYLINE
  8
GND
 66
      1
 70
1
 40
0.0180
 41
0.0180
  0
VERTEX
  8
GND
 10
0.8370
 20
3.7710
 30
 0.0
 42
1.0
  0
VERTEX
  8
GND
 10
0.8550
 20
3.7710
 30
 0.0
 42
1.0
  0
SEQEND
  8
GND
  0
POLYLINE
  8
GND
 66
      1
 70
1
 40
0.0180
 41
0.0180
  0
VERTEX
  8
GND
 10
6.9870
 20
1.0460
 30
 0.0
 42
1.0
  0
VERTEX
  8
GND
 10
7.0050
 20
1.0460
 30
 0.0
 42
1.0
  0
SEQEND
  8
GND
  0
POLYLINE
  8
GND
 66
      1
 70
1
 40
0.0180
 41
0.0180
  0
VERTEX
  8
GND
 10
4.5370
 20
1.1710
 30
 0.0
 42
1.0
  0
VERTEX
  8
GND
 10
4.5550
 20
1.1710
 30
 0.0
 42
1.0
  0
SEQEND
  8
GND
  0
POLYLINE
  8
GND
 66
      1
 70
1
 40
0.0180
 41
0.0180
  0
VERTEX
  8
GND
 10
0.8870
 20
3.2460
 30
 0.0
 42
1.0
  0
VERTEX
  8
GND
 10
0.9050
 20
3.2460
 30
 0.0
 42
1.0
  0
SEQEND
  8
GND
  0
POLYLINE
  8
GND
 66
      1
 70
1
 40
0.0180
 41
0.0180
  0
VERTEX
  8
GND
 10
6.8370
 20
3.3710
 30
 0.0
 42
1.0
  0
VERTEX
  8
GND
 10
6.8550
 20
3.3710
 30
 0.0
 42
1.0
  0
SEQEND
  8
GND
  0
POLYLINE
  8
GND
 66
      1
 70
1
 40
0.0180
 41
0.0180
  0
VERTEX
  8
GND
 10
6.8370
 20
0.2460
 30
 0.0
 42
1.0
  0
VERTEX
  8
GND
 10
6.8550
 20
0.2460
 30
 0.0
 42
1.0
  0
SEQEND
  8
GND
  0
POLYLINE
  8
GND
 66
      1
 70
1
 40
0.0180
 41
0.0180
  0
VERTEX
  8
GND
 10
1.9870
 20
0.2460
 30
 0.0
 42
1.0
  0
VERTEX
  8
GND
 10
2.0050
 20
0.2460
 30
 0.0
 42
1.0
  0
SEQEND
  8
GND
  0
POLYLINE
  8
GND
 66
      1
 70
1
 40
0.0180
 41
0.0180
  0
VERTEX
  8
GND
 10
5.9370
 20
3.0960
 30
 0.0
 42
1.0
  0
VERTEX
  8
GND
 10
5.9550
 20
3.0960
 30
 0.0
 42
1.0
  0
SEQEND
  8
GND
  0
POLYLINE
  8
GND
 66
      1
 70
1
 40
0.0180
 41
0.0180
  0
VERTEX
  8
GND
 10
2.5120
 20
2.9460
 30
 0.0
 42
1.0
  0
VERTEX
  8
GND
 10
2.5300
 20
2.9460
 30
 0.0
 42
1.0
  0
SEQEND
  8
GND
  0
POLYLINE
  8
GND
 66
      1
 70
1
 40
0.0180
 41
0.0180
  0
VERTEX
  8
GND
 10
2.2370
 20
0.4210
 30
 0.0
 42
1.0
  0
VERTEX
  8
GND
 10
2.2550
 20
0.4210
 30
 0.0
 42
1.0
  0
SEQEND
  8
GND
  0
POLYLINE
  8
GND
 66
      1
 70
1
 40
0.0180
 41
0.0180
  0
VERTEX
  8
GND
 10
6.8370
 20
0.5960
 30
 0.0
 42
1.0
  0
VERTEX
  8
GND
 10
6.8550
 20
0.5960
 30
 0.0
 42
1.0
  0
SEQEND
  8
GND
  0
POLYLINE
  8
GND
 66
      1
 70
1
 40
0.0180
 41
0.0180
  0
VERTEX
  8
GND
 10
6.7620
 20
3.0710
 30
 0.0
 42
1.0
  0
VERTEX
  8
GND
 10
6.7800
 20
3.0710
 30
 0.0
 42
1.0
  0
SEQEND
  8
GND
  0
POLYLINE
  8
GND
 66
      1
 70
1
 40
0.0180
 41
0.0180
  0
VERTEX
  8
GND
 10
5.9370
 20
3.0960
 30
 0.0
 42
1.0
  0
VERTEX
  8
GND
 10
5.9550
 20
3.0960
 30
 0.0
 42
1.0
  0
SEQEND
  8
GND
  0
POLYLINE
  8
GND
 66
      1
 70
1
 40
0.0180
 41
0.0180
  0
VERTEX
  8
GND
 10
1.0370
 20
3.5710
 30
 0.0
 42
1.0
  0
VERTEX
  8
GND
 10
1.0550
 20
3.5710
 30
 0.0
 42
1.0
  0
SEQEND
  8
GND
  0
POLYLINE
  8
GND
 66
      1
 70
1
 40
0.0180
 41
0.0180
  0
VERTEX
  8
GND
 10
0.6870
 20
3.1710
 30
 0.0
 42
1.0
  0
VERTEX
  8
GND
 10
0.7050
 20
3.1710
 30
 0.0
 42
1.0
  0
SEQEND
  8
GND
  0
POLYLINE
  8
GND
 66
      1
 70
1
 40
0.0180
 41
0.0180
  0
VERTEX
  8
GND
 10
1.0620
 20
3.1960
 30
 0.0
 42
1.0
  0
VERTEX
  8
GND
 10
1.0800
 20
3.1960
 30
 0.0
 42
1.0
  0
SEQEND
  8
GND
  0
POLYLINE
  8
GND
 66
      1
 70
1
 40
0.0180
 41
0.0180
  0
VERTEX
  8
GND
 10
1.0620
 20
2.7710
 30
 0.0
 42
1.0
  0
VERTEX
  8
GND
 10
1.0800
 20
2.7710
 30
 0.0
 42
1.0
  0
SEQEND
  8
GND
  0
POLYLINE
  8
GND
 66
      1
 70
1
 40
0.0180
 41
0.0180
  0
VERTEX
  8
GND
 10
0.7620
 20
2.7460
 30
 0.0
 42
1.0
  0
VERTEX
  8
GND
 10
0.7800
 20
2.7460
 30
 0.0
 42
1.0
  0
SEQEND
  8
GND
  0
POLYLINE
  8
GND
 66
      1
 70
1
 40
0.0180
 41
0.0180
  0
VERTEX
  8
GND
 10
5.6620
 20
1.9460
 30
 0.0
 42
1.0
  0
VERTEX
  8
GND
 10
5.6800
 20
1.9460
 30
 0.0
 42
1.0
  0
SEQEND
  8
GND
  0
POLYLINE
  8
GND
 66
      1
 70
1
 40
0.0180
 41
0.0180
  0
VERTEX
  8
GND
 10
5.5370
 20
3.0710
 30
 0.0
 42
1.0
  0
VERTEX
  8
GND
 10
5.5550
 20
3.0710
 30
 0.0
 42
1.0
  0
SEQEND
  8
GND
  0
POLYLINE
  8
GND
 66
      1
 70
1
 40
0.0180
 41
0.0180
  0
VERTEX
  8
GND
 10
2.7620
 20
3.0460
 30
 0.0
 42
1.0
  0
VERTEX
  8
GND
 10
2.7800
 20
3.0460
 30
 0.0
 42
1.0
  0
SEQEND
  8
GND
  0
POLYLINE
  8
GND
 66
      1
 70
1
 40
0.0180
 41
0.0180
  0
VERTEX
  8
GND
 10
2.5870
 20
3.0210
 30
 0.0
 42
1.0
  0
VERTEX
  8
GND
 10
2.6050
 20
3.0210
 30
 0.0
 42
1.0
  0
SEQEND
  8
GND
  0
POLYLINE
  8
GND
 66
      1
 70
1
 40
0.0180
 41
0.0180
  0
VERTEX
  8
GND
 10
0.8620
 20
2.6460
 30
 0.0
 42
1.0
  0
VERTEX
  8
GND
 10
0.8800
 20
2.6460
 30
 0.0
 42
1.0
  0
SEQEND
  8
GND
  0
POLYLINE
  8
GND
 66
      1
 70
1
 40
0.0180
 41
0.0180
  0
VERTEX
  8
GND
 10
1.4620
 20
2.6960
 30
 0.0
 42
1.0
  0
VERTEX
  8
GND
 10
1.4800
 20
2.6960
 30
 0.0
 42
1.0
  0
SEQEND
  8
GND
  0
POLYLINE
  8
GND
 66
      1
 70
1
 40
0.0180
 41
0.0180
  0
VERTEX
  8
GND
 10
2.8620
 20
4.4210
 30
 0.0
 42
1.0
  0
VERTEX
  8
GND
 10
2.8800
 20
4.4210
 30
 0.0
 42
1.0
  0
SEQEND
  8
GND
  0
POLYLINE
  8
GND
 66
      1
 70
1
 40
0.0180
 41
0.0180
  0
VERTEX
  8
GND
 10
2.2370
 20
0.8210
 30
 0.0
 42
1.0
  0
VERTEX
  8
GND
 10
2.2550
 20
0.8210
 30
 0.0
 42
1.0
  0
SEQEND
  8
GND
  0
POLYLINE
  8
GND
 66
      1
 70
1
 40
0.0180
 41
0.0180
  0
VERTEX
  8
GND
 10
2.6120
 20
2.9210
 30
 0.0
 42
1.0
  0
VERTEX
  8
GND
 10
2.6300
 20
2.9210
 30
 0.0
 42
1.0
  0
SEQEND
  8
GND
  0
POLYLINE
  8
GND
 66
      1
 70
1
 40
0.0180
 41
0.0180
  0
VERTEX
  8
GND
 10
1.8120
 20
2.8960
 30
 0.0
 42
1.0
  0
VERTEX
  8
GND
 10
1.8300
 20
2.8960
 30
 0.0
 42
1.0
  0
SEQEND
  8
GND
  0
POLYLINE
  8
GND
 66
      1
 70
1
 40
0.0180
 41
0.0180
  0
VERTEX
  8
GND
 10
5.9870
 20
1.2460
 30
 0.0
 42
1.0
  0
VERTEX
  8
GND
 10
6.0050
 20
1.2460
 30
 0.0
 42
1.0
  0
SEQEND
  8
GND
  0
POLYLINE
  8
GND
 66
      1
 70
1
 40
0.0180
 41
0.0180
  0
VERTEX
  8
GND
 10
5.9870
 20
1.0460
 30
 0.0
 42
1.0
  0
VERTEX
  8
GND
 10
6.0050
 20
1.0460
 30
 0.0
 42
1.0
  0
SEQEND
  8
GND
  0
POLYLINE
  8
GND
 66
      1
 70
1
 40
0.0180
 41
0.0180
  0
VERTEX
  8
GND
 10
6.3120
 20
1.0710
 30
 0.0
 42
1.0
  0
VERTEX
  8
GND
 10
6.3300
 20
1.0710
 30
 0.0
 42
1.0
  0
SEQEND
  8
GND
  0
POLYLINE
  8
GND
 66
      1
 70
1
 40
0.0180
 41
0.0180
  0
VERTEX
  8
GND
 10
3.5370
 20
2.3460
 30
 0.0
 42
1.0
  0
VERTEX
  8
GND
 10
3.5550
 20
2.3460
 30
 0.0
 42
1.0
  0
SEQEND
  8
GND
  0
POLYLINE
  8
GND
 66
      1
 70
1
 40
0.0180
 41
0.0180
  0
VERTEX
  8
GND
 10
3.4870
 20
2.0460
 30
 0.0
 42
1.0
  0
VERTEX
  8
GND
 10
3.5050
 20
2.0460
 30
 0.0
 42
1.0
  0
SEQEND
  8
GND
  0
POLYLINE
  8
GND
 66
      1
 70
1
 40
0.0180
 41
0.0180
  0
VERTEX
  8
GND
 10
2.2620
 20
1.9210
 30
 0.0
 42
1.0
  0
VERTEX
  8
GND
 10
2.2800
 20
1.9210
 30
 0.0
 42
1.0
  0
SEQEND
  8
GND
  0
POLYLINE
  8
GND
 66
      1
 70
1
 40
0.0180
 41
0.0180
  0
VERTEX
  8
GND
 10
5.2120
 20
1.8960
 30
 0.0
 42
1.0
  0
VERTEX
  8
GND
 10
5.2300
 20
1.8960
 30
 0.0
 42
1.0
  0
SEQEND
  8
GND
  0
POLYLINE
  8
GND
 66
      1
 70
1
 40
0.0180
 41
0.0180
  0
VERTEX
  8
GND
 10
2.9370
 20
1.6460
 30
 0.0
 42
1.0
  0
VERTEX
  8
GND
 10
2.9550
 20
1.6460
 30
 0.0
 42
1.0
  0
SEQEND
  8
GND
  0
POLYLINE
  8
GND
 66
      1
 70
1
 40
0.0180
 41
0.0180
  0
VERTEX
  8
GND
 10
2.8120
 20
4.4710
 30
 0.0
 42
1.0
  0
VERTEX
  8
GND
 10
2.8300
 20
4.4710
 30
 0.0
 42
1.0
  0
SEQEND
  8
GND
  0
POLYLINE
  8
GND
 66
      1
 70
1
 40
0.0180
 41
0.0180
  0
VERTEX
  8
GND
 10
2.0620
 20
3.8710
 30
 0.0
 42
1.0
  0
VERTEX
  8
GND
 10
2.0800
 20
3.8710
 30
 0.0
 42
1.0
  0
SEQEND
  8
GND
  0
POLYLINE
  8
GND
 66
      1
 70
1
 40
0.0180
 41
0.0180
  0
VERTEX
  8
GND
 10
6.1620
 20
3.7960
 30
 0.0
 42
1.0
  0
VERTEX
  8
GND
 10
6.1800
 20
3.7960
 30
 0.0
 42
1.0
  0
SEQEND
  8
GND
  0
POLYLINE
  8
GND
 66
      1
 70
1
 40
0.0180
 41
0.0180
  0
VERTEX
  8
GND
 10
6.4120
 20
1.1960
 30
 0.0
 42
1.0
  0
VERTEX
  8
GND
 10
6.4300
 20
1.1960
 30
 0.0
 42
1.0
  0
SEQEND
  8
GND
  0
POLYLINE
  8
GND
 66
      1
 70
1
 40
0.0180
 41
0.0180
  0
VERTEX
  8
GND
 10
2.7370
 20
2.7210
 30
 0.0
 42
1.0
  0
VERTEX
  8
GND
 10
2.7550
 20
2.7210
 30
 0.0
 42
1.0
  0
SEQEND
  8
GND
  0
POLYLINE
  8
GND
 66
      1
 70
1
 40
0.0180
 41
0.0180
  0
VERTEX
  8
GND
 10
6.2870
 20
1.9960
 30
 0.0
 42
1.0
  0
VERTEX
  8
GND
 10
6.3050
 20
1.9960
 30
 0.0
 42
1.0
  0
SEQEND
  8
GND
  0
POLYLINE
  8
GND
 66
      1
 70
1
 40
0.0180
 41
0.0180
  0
VERTEX
  8
GND
 10
5.4870
 20
1.9710
 30
 0.0
 42
1.0
  0
VERTEX
  8
GND
 10
5.5050
 20
1.9710
 30
 0.0
 42
1.0
  0
SEQEND
  8
GND
  0
POLYLINE
  8
GND
 66
      1
 70
1
 40
0.0180
 41
0.0180
  0
VERTEX
  8
GND
 10
6.5870
 20
1.1210
 30
 0.0
 42
1.0
  0
VERTEX
  8
GND
 10
6.6050
 20
1.1210
 30
 0.0
 42
1.0
  0
SEQEND
  8
GND
  0
POLYLINE
  8
GND
 66
      1
 70
1
 40
0.0180
 41
0.0180
  0
VERTEX
  8
GND
 10
5.1120
 20
4.0460
 30
 0.0
 42
1.0
  0
VERTEX
  8
GND
 10
5.1300
 20
4.0460
 30
 0.0
 42
1.0
  0
SEQEND
  8
GND
  0
POLYLINE
  8
GND
 66
      1
 70
1
 40
0.0180
 41
0.0180
  0
VERTEX
  8
GND
 10
2.8120
 20
3.9960
 30
 0.0
 42
1.0
  0
VERTEX
  8
GND
 10
2.8300
 20
3.9960
 30
 0.0
 42
1.0
  0
SEQEND
  8
GND
  0
POLYLINE
  8
GND
 66
      1
 70
1
 40
0.0180
 41
0.0180
  0
VERTEX
  8
GND
 10
1.8120
 20
2.8960
 30
 0.0
 42
1.0
  0
VERTEX
  8
GND
 10
1.8300
 20
2.8960
 30
 0.0
 42
1.0
  0
SEQEND
  8
GND
  0
POLYLINE
  8
GND
 66
      1
 70
1
 40
0.0180
 41
0.0180
  0
VERTEX
  8
GND
 10
4.2620
 20
2.8960
 30
 0.0
 42
1.0
  0
VERTEX
  8
GND
 10
4.2800
 20
2.8960
 30
 0.0
 42
1.0
  0
SEQEND
  8
GND
  0
POLYLINE
  8
GND
 66
      1
 70
1
 40
0.0180
 41
0.0180
  0
VERTEX
  8
GND
 10
1.0870
 20
3.7710
 30
 0.0
 42
1.0
  0
VERTEX
  8
GND
 10
1.1050
 20
3.7710
 30
 0.0
 42
1.0
  0
SEQEND
  8
GND
  0
POLYLINE
  8
GND
 66
      1
 70
1
 40
0.0180
 41
0.0180
  0
VERTEX
  8
GND
 10
1.6370
 20
3.1710
 30
 0.0
 42
1.0
  0
VERTEX
  8
GND
 10
1.6550
 20
3.1710
 30
 0.0
 42
1.0
  0
SEQEND
  8
GND
  0
POLYLINE
  8
GND
 66
      1
 70
1
 40
0.0180
 41
0.0180
  0
VERTEX
  8
GND
 10
0.8370
 20
3.0710
 30
 0.0
 42
1.0
  0
VERTEX
  8
GND
 10
0.8550
 20
3.0710
 30
 0.0
 42
1.0
  0
SEQEND
  8
GND
  0
POLYLINE
  8
GND
 66
      1
 70
1
 40
0.0180
 41
0.0180
  0
VERTEX
  8
GND
 10
3.7870
 20
1.9710
 30
 0.0
 42
1.0
  0
VERTEX
  8
GND
 10
3.8050
 20
1.9710
 30
 0.0
 42
1.0
  0
SEQEND
  8
GND
  0
POLYLINE
  8
GND
 66
      1
 70
1
 40
0.0180
 41
0.0180
  0
VERTEX
  8
GND
 10
3.7370
 20
3.0460
 30
 0.0
 42
1.0
  0
VERTEX
  8
GND
 10
3.7550
 20
3.0460
 30
 0.0
 42
1.0
  0
SEQEND
  8
GND
  0
POLYLINE
  8
GND
 66
      1
 70
1
 40
0.0180
 41
0.0180
  0
VERTEX
  8
GND
 10
0.9370
 20
3.0710
 30
 0.0
 42
1.0
  0
VERTEX
  8
GND
 10
0.9550
 20
3.0710
 30
 0.0
 42
1.0
  0
SEQEND
  8
GND
  0
POLYLINE
  8
GND
 66
      1
 70
1
 40
0.0180
 41
0.0180
  0
VERTEX
  8
GND
 10
2.8120
 20
3.2710
 30
 0.0
 42
1.0
  0
VERTEX
  8
GND
 10
2.8300
 20
3.2710
 30
 0.0
 42
1.0
  0
SEQEND
  8
GND
  0
POLYLINE
  8
GND
 66
      1
 70
1
 40
0.0180
 41
0.0180
  0
VERTEX
  8
GND
 10
2.7870
 20
0.8960
 30
 0.0
 42
1.0
  0
VERTEX
  8
GND
 10
2.8050
 20
0.8960
 30
 0.0
 42
1.0
  0
SEQEND
  8
GND
  0
POLYLINE
  8
GND
 66
      1
 70
1
 40
0.0180
 41
0.0180
  0
VERTEX
  8
GND
 10
1.7120
 20
3.2960
 30
 0.0
 42
1.0
  0
VERTEX
  8
GND
 10
1.7300
 20
3.2960
 30
 0.0
 42
1.0
  0
SEQEND
  8
GND
  0
POLYLINE
  8
GND
 66
      1
 70
1
 40
0.0180
 41
0.0180
  0
VERTEX
  8
GND
 10
0.8120
 20
3.2710
 30
 0.0
 42
1.0
  0
VERTEX
  8
GND
 10
0.8300
 20
3.2710
 30
 0.0
 42
1.0
  0
SEQEND
  8
GND
  0
POLYLINE
  8
GND
 66
      1
 70
1
 40
0.0180
 41
0.0180
  0
VERTEX
  8
GND
 10
2.6370
 20
4.5710
 30
 0.0
 42
1.0
  0
VERTEX
  8
GND
 10
2.6550
 20
4.5710
 30
 0.0
 42
1.0
  0
SEQEND
  8
GND
  0
POLYLINE
  8
GND
 66
      1
 70
1
 40
0.0180
 41
0.0180
  0
VERTEX
  8
GND
 10
4.6870
 20
3.9210
 30
 0.0
 42
1.0
  0
VERTEX
  8
GND
 10
4.7050
 20
3.9210
 30
 0.0
 42
1.0
  0
SEQEND
  8
GND
  0
POLYLINE
  8
GND
 66
      1
 70
1
 40
0.0180
 41
0.0180
  0
VERTEX
  8
GND
 10
4.6870
 20
3.9210
 30
 0.0
 42
1.0
  0
VERTEX
  8
GND
 10
4.7050
 20
3.9210
 30
 0.0
 42
1.0
  0
SEQEND
  8
GND
  0
POLYLINE
  8
GND
 66
      1
 70
1
 40
0.0180
 41
0.0180
  0
VERTEX
  8
GND
 10
3.7870
 20
3.8710
 30
 0.0
 42
1.0
  0
VERTEX
  8
GND
 10
3.8050
 20
3.8710
 30
 0.0
 42
1.0
  0
SEQEND
  8
GND
  0
POLYLINE
  8
GND
 66
      1
 70
1
 40
0.0180
 41
0.0180
  0
VERTEX
  8
GND
 10
4.1370
 20
2.5710
 30
 0.0
 42
1.0
  0
VERTEX
  8
GND
 10
4.1550
 20
2.5710
 30
 0.0
 42
1.0
  0
SEQEND
  8
GND
  0
POLYLINE
  8
GND
 66
      1
 70
1
 40
0.0180
 41
0.0180
  0
VERTEX
  8
GND
 10
0.9870
 20
1.3960
 30
 0.0
 42
1.0
  0
VERTEX
  8
GND
 10
1.0050
 20
1.3960
 30
 0.0
 42
1.0
  0
SEQEND
  8
GND
  0
POLYLINE
  8
GND
 66
      1
 70
1
 40
0.0180
 41
0.0180
  0
VERTEX
  8
GND
 10
5.1120
 20
2.3210
 30
 0.0
 42
1.0
  0
VERTEX
  8
GND
 10
5.1300
 20
2.3210
 30
 0.0
 42
1.0
  0
SEQEND
  8
GND
  0
POLYLINE
  8
GND
 66
      1
 70
1
 40
0.0180
 41
0.0180
  0
VERTEX
  8
GND
 10
3.2620
 20
3.9710
 30
 0.0
 42
1.0
  0
VERTEX
  8
GND
 10
3.2800
 20
3.9710
 30
 0.0
 42
1.0
  0
SEQEND
  8
GND
  0
POLYLINE
  8
GND
 66
      1
 70
1
 40
0.0180
 41
0.0180
  0
VERTEX
  8
GND
 10
3.2620
 20
0.9960
 30
 0.0
 42
1.0
  0
VERTEX
  8
GND
 10
3.2800
 20
0.9960
 30
 0.0
 42
1.0
  0
SEQEND
  8
GND
  0
POLYLINE
  8
GND
 66
      1
 70
1
 40
0.0180
 41
0.0180
  0
VERTEX
  8
GND
 10
3.4370
 20
0.9960
 30
 0.0
 42
1.0
  0
VERTEX
  8
GND
 10
3.4550
 20
0.9960
 30
 0.0
 42
1.0
  0
SEQEND
  8
GND
  0
POLYLINE
  8
GND
 66
      1
 70
1
 40
0.0180
 41
0.0180
  0
VERTEX
  8
GND
 10
3.1870
 20
2.0710
 30
 0.0
 42
1.0
  0
VERTEX
  8
GND
 10
3.2050
 20
2.0710
 30
 0.0
 42
1.0
  0
SEQEND
  8
GND
  0
ENDSEC
  0
EOF
