*
G04 Mass Parameters ***
*
G04 Image ***
*
%INZ:\CONTROLBOARD_PROJECT\CAD\CONTROLBOARD_CAD-20.BOT*%
%ICAS*%
%MOIN*%
%IPPOS*%
%ASAXBY*%
G74*%FSLAN2X34Y34*%
*
G04 Aperture Definitions ***
*
%ADD10C,0.0550*%
%ADD11C,0.0520*%
%ADD12C,0.0580*%
%ADD13R,0.0580X0.0580*%
%ADD14C,0.1100*%
%ADD15C,0.0620*%
%ADD16C,0.0450*%
%ADD17C,0.2047*%
%ADD18C,0.0010*%
%ADD19C,0.0120*%
%ADD20C,0.0500*%
%ADD21C,0.0500*%
%ADD22C,0.0800*%
%ADD23C,0.0500*%
%ADD24C,0.0550*%
%ADD25C,0.0520*%
%ADD26C,0.0580*%
%ADD27R,0.0580X0.0580*%
%ADD28C,0.1100*%
%ADD29C,0.0620*%
%ADD30C,0.0450*%
%ADD31C,0.2047*%
%ADD32C,0.0500*%
*
G04 Plot Data ***
*
G54D19*
G01X0068500Y0042000D02*
X0069000Y0041500D01*
Y0028500D01*
X0055250Y0028000D02*
Y0023000D01*
X0055750Y0022500D01*
X0057000D01*
X0055750D01*
X0055250Y0023000D01*
Y0028000D01*
X0028250Y0027250D02*
Y0019500D01*
X0028500Y0019250D01*
Y0010250D01*
X0027750Y0009500D01*
Y0009250D01*
X0027500Y0009000D01*
X0053000Y0003500D02*
X0052500Y0003000D01*
X0051750D01*
X0051250Y0002500D01*
X0046000Y0002250D02*
Y0001000D01*
X0045500Y0000500D01*
X0039250D01*
X0039000Y0000750D01*
Y0002500D01*
X0038500Y0003000D01*
X0037750D01*
X0034000Y0010500D02*
Y0011500D01*
X0010500Y0006000D02*
Y0005000D01*
X0036000Y0003500D02*
X0035250Y0002750D01*
X0032250D01*
X0031750Y0003250D01*
Y0005250D01*
X0031500Y0005500D01*
Y0009000D01*
X0031250Y0009250D01*
Y0023500D01*
X0031000Y0023750D01*
Y0032250D01*
X0031500Y0032750D01*
Y0034250D01*
X0031250Y0034500D01*
X0030500D01*
X0009500Y0006000D02*
Y0005000D01*
X0027500Y0006000D02*
Y0005000D01*
X0008500Y0006000D02*
Y0005000D01*
X0028500Y0006000D02*
Y0005000D01*
X0026500Y0006000D02*
Y0005000D01*
X0012500Y0006000D02*
Y0005000D01*
X0018500Y0006000D02*
Y0005000D01*
X0030000Y0032500D02*
X0029000Y0031500D01*
Y0030250D01*
X0014500Y0030000D02*
Y0031750D01*
X0014250Y0032000D01*
X0014224D01*
Y0032500D01*
X0017500Y0006000D02*
Y0005000D01*
X0016500Y0006000D02*
Y0005000D01*
X0015500Y0006000D02*
Y0005000D01*
X0014500Y0006000D02*
Y0005000D01*
X0013500Y0006000D02*
Y0005000D01*
X0007500Y0006000D02*
Y0005000D01*
X0024500Y0006000D02*
Y0005000D01*
X0006500Y0006000D02*
Y0005000D01*
X0003500Y0006000D02*
Y0005000D01*
X0005500Y0006000D02*
Y0005000D01*
X0004500Y0006000D02*
Y0005000D01*
X0046000Y0011500D02*
Y0010500D01*
X0025500Y0006000D02*
Y0005000D01*
X0031000Y0033000D02*
Y0034000D01*
X0048000Y0014500D02*
Y0013500D01*
X0041500Y0003500D02*
X0042250Y0002750D01*
X0045000D01*
X0045500Y0003250D01*
X0046750D01*
X0047250Y0002750D01*
X0047500D01*
X0048000Y0003250D01*
Y0004000D01*
X0047500Y0004500D01*
X0048750Y0005750D01*
Y0008250D01*
X0049250Y0008750D01*
X0051000D01*
X0051500Y0009250D01*
Y0009750D01*
X0051750Y0010000D01*
X0052500D01*
X0053000Y0009500D01*
X0055750D01*
X0056000Y0009750D01*
Y0016500D01*
X0055500Y0017000D01*
X0054750D01*
X0054500Y0016750D01*
Y0015000D01*
X0055000Y0014500D01*
X0025250Y0010500D02*
X0025500Y0010750D01*
Y0012750D01*
X0025750Y0013000D01*
Y0021750D01*
X0025250Y0022250D01*
Y0022750D01*
X0025000Y0023000D01*
Y0031000D01*
X0025750Y0031750D01*
Y0032000D01*
X0031500Y0031750D02*
X0031750Y0032000D01*
Y0034750D01*
X0031250Y0035250D01*
Y0036750D01*
X0030250Y0037750D01*
Y0039000D01*
X0031750Y0040500D01*
X0032750D01*
X0033000Y0040250D01*
Y0037750D01*
X0059500Y0043750D02*
X0059000Y0043250D01*
Y0029000D01*
X0058500Y0028500D01*
X0057000D01*
X0056500Y0028000D01*
Y0025000D01*
X0057000Y0024500D01*
X0027750Y0025500D02*
X0028000Y0025250D01*
Y0019250D01*
X0028250Y0019000D01*
Y0010500D01*
X0027500Y0009750D01*
X0027250D01*
X0026500Y0009000D01*
X0060500Y0040000D02*
X0062750Y0037750D01*
Y0030750D01*
X0064000Y0029500D01*
X0030000Y0011500D02*
Y0012500D01*
X0029500Y0013000D01*
Y0020000D01*
X0029750Y0020250D01*
Y0021000D01*
X0029500Y0021250D01*
Y0023250D01*
X0029250Y0023500D01*
X0011250Y0021250D02*
Y0020250D01*
X0011075D01*
Y0019737D01*
X0016500Y0009000D02*
X0017000Y0009500D01*
X0018750D01*
X0019000Y0009250D01*
Y0008750D01*
X0020000Y0007750D01*
Y0003000D01*
X0020500Y0002500D01*
X0066500Y0004250D02*
X0066250Y0004500D01*
Y0016250D01*
X0066500Y0016500D01*
Y0025250D01*
X0066250Y0025500D01*
Y0028500D01*
X0065750Y0029000D01*
X0057500Y0029250D02*
Y0035500D01*
X0057000Y0036000D01*
Y0037000D01*
X0022885Y0032500D02*
Y0032000D01*
X0023000D01*
X0023250Y0031750D01*
Y0027750D01*
X0057500Y0029250D02*
Y0035500D01*
X0057000Y0036000D01*
Y0037000D01*
Y0016500D02*
Y0015500D01*
X0006500Y0032250D02*
Y0032000D01*
X0005750Y0031250D01*
Y0027500D01*
X0006250Y0027000D01*
X0007000D01*
X0007250Y0026750D01*
Y0018000D01*
X0006250Y0017000D01*
Y0016250D01*
X0005000Y0015000D01*
Y0001750D01*
X0005250Y0001500D01*
X0011000D01*
X0040250Y0002500D02*
Y0003500D01*
X0040750Y0004000D01*
X0041750D01*
X0042750Y0003000D01*
X0043750D01*
X0044000Y0003250D01*
Y0005000D01*
X0044500Y0005500D01*
X0060500Y0042000D02*
X0063250Y0039250D01*
Y0032250D01*
X0064000Y0031500D01*
X0036000Y0018000D02*
Y0028250D01*
X0035500Y0028750D01*
X0007500Y0029000D02*
Y0031500D01*
X0007000Y0032000D01*
Y0038250D01*
X0007750Y0039000D01*
X0008500D01*
X0019500Y0006000D02*
Y0005000D01*
X0018161Y0033287D02*
X0018250D01*
Y0033750D01*
X0018500Y0034000D01*
Y0034500D01*
X0017500Y0009000D02*
Y0008000D01*
X0018000Y0007500D01*
Y0000750D01*
X0066500D02*
Y0002250D01*
X0067000Y0002750D01*
Y0004500D01*
X0066500Y0005000D01*
Y0016000D01*
X0066750Y0016250D01*
Y0025750D01*
X0066500Y0026000D01*
Y0032000D01*
X0027250Y0010250D02*
X0028000Y0011000D01*
Y0018750D01*
X0027750Y0019000D01*
Y0024500D01*
X0027250Y0025000D01*
Y0027750D01*
X0027750Y0028250D01*
Y0033250D01*
X0028000Y0033500D01*
X0060500Y0041000D02*
X0063000Y0038500D01*
Y0031500D01*
X0064000Y0030500D01*
X0026750Y0010750D02*
Y0015750D01*
X0027500Y0016500D01*
Y0017250D01*
X0027250Y0017500D01*
Y0023250D01*
X0026750Y0023750D01*
Y0030000D01*
X0027000Y0030250D01*
Y0032500D01*
X0069500Y0023000D02*
Y0021500D01*
X0069000Y0021000D01*
Y0003750D01*
X0067250Y0002000D01*
Y0001250D01*
X0039500Y0001000D02*
Y0003750D01*
X0039250Y0004000D01*
X0038750D01*
X0038500Y0004250D01*
Y0004750D01*
X0038750Y0005000D01*
X0039250D01*
X0042500Y0008250D01*
X0044750D01*
X0045250Y0008750D01*
Y0011750D01*
X0046000Y0012500D01*
X0039000Y0015500D02*
Y0016500D01*
X0016000Y0014250D02*
Y0017250D01*
X0015250Y0018000D01*
X0012750D01*
X0011862Y0018950D01*
X0026250Y0031000D02*
Y0022750D01*
X0026500Y0022500D01*
Y0012250D01*
X0026250Y0012000D01*
Y0009500D01*
X0026000Y0009250D01*
Y0007250D01*
X0039000Y0013500D02*
Y0014500D01*
X0031750Y0019250D02*
Y0023250D01*
X0012000Y0021500D02*
Y0020250D01*
X0011862D01*
Y0019737D01*
X0061000Y0021500D02*
X0062500Y0020000D01*
Y0013750D01*
X0061750Y0013000D01*
Y0010000D01*
X0062250Y0009500D01*
Y0008250D01*
X0020500Y0013250D02*
X0021250Y0014000D01*
Y0017750D01*
X0020750Y0018250D01*
X0020523D01*
Y0018950D01*
X0048000Y0037000D02*
Y0036000D01*
X0047500Y0035500D01*
Y0031000D01*
X0034000Y0011500D02*
X0034500Y0012000D01*
Y0012750D01*
X0034250Y0013000D01*
X0033750D01*
X0033500Y0013250D01*
Y0014000D01*
X0033000Y0014500D01*
X0064000Y0004500D02*
X0064500Y0005000D01*
Y0008000D01*
X0064750Y0008250D01*
Y0013750D01*
X0064000Y0014500D01*
X0046000Y0029500D02*
X0044500Y0028000D01*
Y0026500D01*
X0044000Y0026000D01*
X0042500D01*
Y0028250D01*
X0041000Y0029750D01*
Y0039250D01*
X0041250Y0039500D01*
Y0040250D01*
X0040500Y0041000D01*
X0050000Y0003500D02*
Y0002500D01*
X0050500Y0002000D01*
X0056000D01*
X0056500Y0002500D01*
Y0004000D01*
X0056000Y0004500D01*
X0050000Y0003500D02*
X0049500Y0004000D01*
Y0007500D01*
X0062500D02*
X0062250Y0007750D01*
X0062000D01*
X0061750Y0008000D01*
Y0009500D01*
X0061500Y0009750D01*
Y0012000D01*
X0061000Y0012500D01*
X0033750Y0018750D02*
Y0019250D01*
X0034000Y0019500D01*
Y0022000D01*
X0032500Y0023500D01*
Y0035500D01*
X0031750Y0036250D01*
Y0038500D01*
X0025000Y0038750D02*
X0023750Y0040000D01*
Y0042500D01*
X0023250Y0043000D01*
X0020500D01*
X0019500Y0009000D02*
X0025000Y0014500D01*
Y0020250D01*
X0023750Y0021500D01*
Y0028250D01*
X0024000Y0028500D01*
X0060000Y0014500D02*
Y0013500D01*
X0008500Y0034000D02*
X0008750Y0033750D01*
Y0031750D01*
X0009750D01*
X0010000Y0031500D01*
X0012000D01*
X0012250Y0031750D01*
X0012750D01*
Y0032000D01*
X0012937D01*
X0013437Y0032500D01*
X0034000Y0014500D02*
X0035000Y0015500D01*
Y0027250D01*
X0034250Y0028000D01*
X0007750Y0028250D02*
X0008000Y0028500D01*
Y0030500D01*
X0007750Y0030750D01*
Y0031750D01*
X0007250Y0032250D01*
Y0037500D01*
X0008250Y0038500D01*
X0008750D01*
X0009000Y0038750D01*
Y0042500D01*
X0008500Y0043000D01*
X0055000Y0016500D02*
X0055750Y0015750D01*
Y0010000D01*
X0055500Y0009750D01*
X0053500D01*
X0052250Y0011000D01*
X0050750D01*
X0050500Y0011250D01*
Y0012000D01*
X0050000Y0012500D01*
X0018500Y0018000D02*
X0018250Y0018250D01*
X0018161D01*
Y0018950D01*
X0054750Y0017750D02*
X0054000Y0018500D01*
Y0028500D01*
X0053500Y0029000D01*
X0025750Y0028750D02*
Y0031250D01*
X0026250Y0031750D01*
Y0035250D01*
X0022500Y0039000D01*
X0020500D01*
X0046000Y0016500D02*
Y0015500D01*
X0048000Y0016500D02*
Y0015500D01*
X0007750D02*
X0008500Y0016250D01*
Y0024500D01*
X0009750Y0025750D01*
Y0030500D01*
X0009000Y0031250D01*
X0008250D01*
Y0033000D01*
X0007500Y0033750D01*
Y0036250D01*
X0008000Y0036750D01*
X0017250D01*
X0018500Y0035500D01*
X0014500Y0013000D02*
X0014000Y0012500D01*
Y0011500D01*
X0064000Y0012500D02*
X0063500Y0012000D01*
Y0009000D01*
X0064000Y0008500D01*
Y0006500D01*
X0062250D02*
X0061750Y0007000D01*
X0060500D01*
Y0003250D01*
X0060250Y0003000D01*
X0059500D01*
X0058000Y0004500D01*
X0048500Y0042000D02*
X0048000D01*
X0047500Y0041500D01*
Y0036000D01*
X0047250Y0035750D01*
Y0033750D01*
X0047000Y0033500D01*
Y0028250D01*
X0044250Y0025500D01*
Y0025000D01*
X0043750Y0024500D01*
X0043000D01*
X0025500Y0025500D02*
Y0022500D01*
X0026000Y0022000D01*
Y0012750D01*
X0025750Y0012500D01*
Y0010250D01*
X0025500Y0010000D01*
X0023000D01*
X0022500Y0009500D01*
Y0009000D01*
X0021500Y0006000D02*
Y0005000D01*
X0055000Y0010500D02*
X0054250Y0011250D01*
Y0011750D01*
X0053500Y0012500D01*
Y0013000D01*
X0051750D01*
X0051500Y0013250D01*
Y0015750D01*
X0051250Y0016000D01*
X0049500D01*
X0049000Y0015500D01*
Y0013500D01*
X0048500Y0013000D01*
X0047750D01*
X0047500Y0012750D01*
Y0011000D01*
X0048000Y0010500D01*
X0009000Y0036000D02*
Y0032000D01*
X0010000D01*
X0010250Y0031750D01*
X0011750D01*
X0012649Y0032500D01*
X0013500Y0013000D02*
Y0012000D01*
X0012500Y0011000D01*
X0011500Y0016000D02*
Y0017750D01*
X0037000Y0034000D02*
X0037750Y0034750D01*
Y0036250D01*
X0038000Y0036500D01*
Y0037500D01*
X0037500Y0038000D01*
X0037000D01*
X0033000Y0042000D01*
Y0042250D01*
X0032750Y0042500D01*
X0032250D01*
X0030750Y0041000D01*
X0028500D01*
X0068500D02*
X0068000Y0040500D01*
Y0033000D01*
X0054500Y0028000D02*
Y0021000D01*
X0055000Y0020500D01*
X0057000D01*
X0023500Y0009000D02*
X0024000Y0009500D01*
X0024750D01*
X0025000Y0009250D01*
Y0007500D01*
X0025750Y0006750D01*
X0027500D01*
X0028000Y0007250D01*
Y0009250D01*
X0028750Y0010000D01*
Y0019750D01*
X0028500Y0020000D01*
Y0021500D01*
X0028750Y0021750D01*
X0015799Y0032500D02*
Y0032000D01*
X0016000D01*
X0016250Y0031750D01*
Y0027250D01*
X0024250Y0027500D02*
X0024500Y0027250D01*
Y0021250D01*
X0025250Y0020500D01*
Y0014000D01*
X0020750Y0009500D01*
Y0006750D01*
X0020500Y0006500D01*
X0015799Y0032500D02*
Y0032000D01*
X0016000D01*
X0016250Y0031750D01*
Y0027250D01*
X0040750D02*
X0038750D01*
X0038250Y0027750D01*
Y0031250D01*
X0038500Y0031500D01*
Y0035250D01*
X0039000Y0035750D01*
Y0037000D01*
X0058000Y0010750D02*
Y0008750D01*
X0061250Y0009000D02*
X0061000Y0009250D01*
Y0010500D01*
X0036000Y0004500D02*
X0035500Y0004000D01*
X0034500D01*
X0033500Y0005000D01*
X0032750D01*
X0032250Y0005500D01*
Y0005750D01*
X0032000Y0006000D01*
Y0009500D01*
X0031750Y0009750D01*
Y0018000D01*
X0032500Y0018750D01*
Y0019250D01*
X0032750Y0019500D01*
Y0020250D01*
X0032250Y0020750D01*
Y0023750D01*
X0032000Y0024000D01*
Y0035250D01*
X0016250Y0036250D02*
Y0036000D01*
X0015750Y0035500D01*
X0015000D01*
X0039000Y0035000D02*
X0039500Y0034500D01*
Y0029500D01*
X0038750Y0028750D01*
X0016750D02*
Y0032000D01*
X0016586D01*
Y0032500D01*
X0026250Y0043000D02*
Y0039250D01*
X0027500Y0038000D01*
Y0030000D01*
X0027000Y0029500D01*
Y0024750D01*
X0027500Y0024250D01*
Y0018500D01*
X0027750Y0018250D01*
Y0015000D01*
X0027500Y0014750D01*
X0046000Y0036000D02*
X0046750Y0036750D01*
Y0042000D01*
X0046250Y0042500D01*
Y0043250D01*
X0045750Y0043750D01*
X0043500D01*
X0041250Y0041500D01*
X0040250D01*
X0039250Y0040500D01*
X0036250D01*
X0036000Y0040750D01*
Y0042500D01*
X0036500Y0043000D01*
X0010500Y0013000D02*
X0010000Y0012500D01*
Y0011500D01*
X0037000Y0029500D02*
X0035750D01*
X0035250Y0030000D01*
Y0038500D01*
X0033000Y0040750D01*
X0032750D01*
X0032500Y0041000D01*
X0062250Y0010250D02*
Y0012750D01*
X0062750Y0013250D01*
Y0020750D01*
X0062000Y0021500D01*
Y0026500D01*
X0059500Y0029000D01*
Y0036000D01*
X0059750Y0036250D01*
X0018750Y0037000D02*
X0016750D01*
X0014750Y0039000D01*
X0012500D01*
X0024500Y0009000D02*
Y0007000D01*
X0025000Y0006500D01*
X0027750D01*
X0028250Y0007000D01*
Y0008250D01*
X0028500Y0008500D01*
X0028750D01*
X0029250Y0009000D01*
Y0020500D01*
X0065750Y0024750D02*
X0065500Y0025000D01*
Y0027000D01*
X0065250Y0027250D01*
Y0041250D01*
X0064500Y0042000D01*
X0037000Y0011500D02*
Y0010500D01*
X0046000Y0034000D02*
X0046750Y0034750D01*
Y0036250D01*
X0047000Y0036500D01*
Y0043000D01*
X0046000Y0044000D01*
X0043250D01*
X0041750Y0042500D01*
X0040250D01*
X0038750Y0041000D01*
X0036500D01*
X0027000Y0016750D02*
Y0023000D01*
X0026500Y0023500D01*
Y0030500D01*
X0026750Y0030750D01*
Y0031500D01*
X0026500Y0031750D01*
Y0035750D01*
X0023000Y0035500D02*
X0022500Y0035000D01*
X0018000D01*
X0017500Y0035500D01*
X0061000Y0005500D02*
X0061750Y0004750D01*
Y0002750D01*
X0062250Y0002250D01*
X0065500D01*
X0066000Y0002750D01*
Y0019000D01*
X0066250Y0019250D01*
Y0025000D01*
X0066000Y0025250D01*
Y0027500D01*
X0065750Y0027750D01*
X0048500Y0027000D02*
X0048250D01*
X0047250Y0026000D01*
X0045750D01*
X0043750Y0024000D01*
X0040750D01*
X0012750Y0022750D02*
X0012250Y0023250D01*
Y0028500D01*
X0009250Y0031500D01*
X0008500D01*
Y0033250D01*
X0008000Y0033750D01*
Y0035750D01*
X0008750Y0036500D01*
X0010750D01*
X0011250Y0036000D01*
Y0034000D01*
X0011075D01*
Y0033287D01*
X0040500Y0043000D02*
X0041750Y0044250D01*
X0046750D01*
X0047250Y0043750D01*
Y0036250D01*
X0047000Y0036000D01*
Y0034250D01*
X0046750Y0034000D01*
Y0032250D01*
X0046000Y0031500D01*
X0033000Y0004500D02*
X0032500D01*
X0032000Y0005000D01*
Y0005500D01*
X0031750Y0005750D01*
Y0009250D01*
X0031500Y0009500D01*
Y0018250D01*
X0032250Y0019000D01*
Y0019750D01*
X0049500Y0017250D02*
X0050000Y0017750D01*
X0051750D01*
X0052500Y0017000D01*
Y0015000D01*
X0052000Y0014500D01*
X0017500Y0034500D02*
Y0034000D01*
X0017373D01*
Y0033287D01*
X0057000Y0020500D02*
X0055000D01*
X0054500Y0021000D01*
Y0028000D01*
X0029000D02*
Y0027750D01*
X0028750Y0027500D01*
Y0022500D01*
X0029250Y0022000D01*
Y0021500D01*
X0028750Y0021000D01*
Y0020250D01*
X0029000Y0020000D01*
Y0009500D01*
X0028500Y0009000D01*
X0050000Y0004500D02*
X0051500Y0006000D01*
Y0006750D01*
X0051750Y0007000D01*
X0054000D01*
X0054500Y0006500D01*
X0056000D01*
X0056500Y0007000D01*
Y0013750D01*
X0056750Y0014000D01*
X0057750D01*
X0059750Y0016000D01*
X0060250D01*
X0060500Y0015750D01*
Y0015000D01*
X0061000Y0014500D01*
X0051000Y0009500D02*
Y0010500D01*
X0039000Y0009500D02*
Y0010500D01*
X0016000Y0012500D02*
X0016750D01*
X0017000Y0012750D01*
Y0017000D01*
X0015750Y0018250D01*
X0013250D01*
X0012649Y0018950D01*
X0018500Y0009000D02*
Y0008000D01*
X0019000Y0007500D01*
Y0003250D01*
X0020250Y0002000D01*
X0020750D01*
X0021000Y0002250D01*
Y0009250D01*
X0024000Y0012250D01*
X0024750D01*
X0025000Y0012500D01*
Y0013250D01*
X0025500Y0013750D01*
Y0021500D01*
X0025000Y0022000D01*
Y0022250D01*
X0024750Y0022500D01*
Y0031250D01*
X0025250Y0031750D01*
Y0034000D01*
X0024750Y0034500D01*
X0022000D01*
X0021750Y0034250D01*
X0021500D01*
X0020523Y0033287D01*
X0014224D02*
X0014000D01*
Y0034500D01*
X0052500Y0043000D02*
X0054000Y0041500D01*
Y0034000D01*
X0055000Y0033000D01*
Y0032500D01*
X0011500Y0011000D02*
Y0011500D01*
X0012500Y0012500D01*
Y0013000D01*
X0031000Y0004500D02*
Y0002750D01*
X0031500Y0002250D01*
X0036250D01*
X0036750Y0002750D01*
Y0004000D01*
X0037250Y0004500D01*
X0034000Y0015500D02*
Y0016500D01*
X0055000Y0029500D02*
X0053250Y0031250D01*
Y0035750D01*
X0052500Y0036500D01*
Y0040000D01*
X0030000Y0013500D02*
Y0014500D01*
X0021310Y0033287D02*
X0022250Y0034250D01*
X0024500D01*
X0025000Y0033750D01*
Y0032250D01*
X0024000Y0031250D01*
Y0028500D01*
X0055000Y0030500D02*
X0053500Y0032000D01*
Y0040000D01*
X0052500Y0041000D01*
Y0042000D02*
X0053750Y0040750D01*
Y0032750D01*
X0055000Y0031500D01*
X0030000Y0014500D02*
X0030500Y0015000D01*
Y0020750D01*
X0029750Y0021500D01*
Y0024000D01*
X0010500Y0021750D02*
Y0020250D01*
X0010287D01*
Y0019737D01*
X0039000Y0011500D02*
Y0012500D01*
X0057000Y0009500D02*
Y0010500D01*
X0055000Y0034000D02*
X0054250Y0034750D01*
Y0043000D01*
X0053750Y0043500D01*
X0052000D01*
Y0041500D01*
X0051500Y0041000D01*
X0048500D01*
X0064000Y0009500D02*
X0064500Y0010000D01*
Y0011000D01*
X0064000Y0011500D01*
X0043000Y0015500D02*
Y0016500D01*
Y0022500D02*
X0045000D01*
X0045500Y0023000D01*
X0047250D01*
X0047750Y0023500D01*
Y0025500D01*
X0049000Y0026750D01*
Y0037750D01*
X0048000Y0038750D01*
Y0041250D01*
X0048250Y0041500D01*
X0048750D01*
X0049000Y0041750D01*
Y0043000D01*
X0049500Y0043500D01*
X0030000Y0009500D02*
Y0010500D01*
X0012000Y0014000D02*
Y0018000D01*
X0011750Y0018250D01*
X0011075D01*
Y0018950D01*
X0061000Y0004500D02*
X0061500Y0004000D01*
Y0003250D01*
X0061000Y0002750D01*
X0057750D01*
X0057250Y0003250D01*
Y0005500D01*
X0056750Y0006000D01*
X0055500D01*
X0054000Y0004500D01*
X0053000D01*
X0012500Y0009000D02*
Y0007750D01*
X0013000Y0007250D01*
Y0001000D01*
X0067750Y0003750D02*
X0067250Y0004250D01*
Y0005000D01*
X0066750Y0005500D01*
Y0015750D01*
X0067000Y0016000D01*
Y0031000D01*
X0047500D02*
Y0035500D01*
X0048000Y0036000D01*
Y0037000D01*
X0016586Y0032500D02*
Y0032000D01*
X0016750D01*
Y0022750D01*
X0016250Y0022250D01*
X0009250D01*
X0008750Y0021750D01*
Y0015750D01*
X0007500Y0014500D01*
Y0013250D01*
X0007000Y0012750D01*
Y0012250D01*
X0044500Y0042000D02*
X0044000Y0041500D01*
Y0035750D01*
X0044250Y0035500D01*
Y0028750D01*
X0043000Y0027500D01*
Y0026500D01*
X0060000Y0013500D02*
X0059500Y0013000D01*
Y0012250D01*
X0059750Y0012000D01*
X0060500D01*
X0061000Y0011500D01*
X0025750Y0026500D02*
X0026000Y0026250D01*
Y0022500D01*
X0026250Y0022250D01*
Y0012500D01*
X0026000Y0012250D01*
Y0010000D01*
X0025750Y0009750D01*
X0023500D01*
X0023000Y0009250D01*
Y0008750D01*
X0022750Y0008500D01*
X0022000D01*
X0021500Y0009000D01*
X0030000Y0008500D02*
X0030750Y0009250D01*
Y0022250D01*
X0030500Y0022500D01*
X0014750Y0021250D02*
Y0021000D01*
X0014250Y0020500D01*
X0013500D01*
X0012649Y0019737D01*
X0060000Y0012500D02*
X0060500Y0013000D01*
X0061250D01*
X0062250Y0014000D01*
Y0018000D01*
X0062000Y0018250D01*
X0009500Y0019737D02*
Y0019500D01*
X0009000D01*
Y0018500D01*
X0009250Y0018250D01*
Y0017750D01*
X0009500Y0017500D01*
X0037000Y0012500D02*
X0036500Y0012000D01*
Y0003000D01*
X0036000Y0002500D01*
X0032000D01*
X0031500Y0003000D01*
Y0005000D01*
X0031250Y0005250D01*
Y0008750D01*
X0031000Y0009000D01*
Y0023250D01*
X0030500Y0023750D01*
Y0033250D01*
X0029500Y0034250D01*
Y0036500D01*
X0026500Y0039500D01*
Y0042250D01*
X0026750Y0042500D01*
X0055000Y0010500D02*
X0054250Y0011250D01*
Y0011750D01*
X0053500Y0012500D01*
Y0018250D01*
X0053000Y0018750D01*
X0048500D01*
X0048000Y0019250D01*
Y0024750D01*
X0049250Y0026000D01*
Y0038750D01*
X0026250Y0038250D02*
X0024250D01*
X0023000Y0039500D01*
X0020250D01*
X0019750Y0039000D01*
X0016500D01*
X0043000Y0010500D02*
Y0011500D01*
X0042500Y0012000D01*
Y0014000D01*
X0042000Y0014500D01*
X0023500Y0006000D02*
Y0005000D01*
X0014224Y0032500D02*
Y0032000D01*
X0014250D01*
X0014500Y0031750D01*
Y0030000D01*
X0006500Y0029000D02*
X0006750Y0028750D01*
Y0028000D01*
X0007250Y0027500D01*
X0007500D01*
X0007750Y0027250D01*
Y0017250D01*
X0006750Y0016250D01*
Y0015750D01*
X0005750Y0014750D01*
Y0010750D01*
X0007000Y0009500D01*
Y0008750D01*
X0006750Y0008500D01*
X0006000D01*
X0005500Y0009000D01*
X0015750Y0030750D02*
X0015250Y0031250D01*
Y0032000D01*
X0015011D01*
Y0032500D01*
Y0032000D01*
X0015250D01*
Y0031250D01*
X0006250Y0031000D02*
X0006000Y0030750D01*
Y0028250D01*
X0007000Y0027250D01*
X0007250D01*
X0007500Y0027000D01*
Y0017500D01*
X0006500Y0016500D01*
Y0016000D01*
X0005500Y0015000D01*
Y0010000D01*
X0006500Y0009000D01*
X0043000Y0012500D02*
X0043500Y0012000D01*
Y0010000D01*
X0068000Y0008750D02*
Y0020500D01*
X0067500Y0021000D01*
Y0023000D01*
X0051000Y0011500D02*
X0051250Y0011750D01*
X0051000Y0012000D01*
Y0012500D01*
Y0011500D02*
X0051500Y0012000D01*
X0052250D01*
X0054250Y0010000D01*
X0055250D01*
X0055500Y0010250D01*
Y0015000D01*
X0055000Y0015500D01*
X0064500Y0041000D02*
X0062000Y0043500D01*
X0060000D01*
X0059250Y0042750D01*
Y0028750D01*
X0057000Y0026500D01*
X0064500Y0041000D02*
X0064000Y0040500D01*
Y0039500D01*
X0064500Y0039000D01*
Y0027250D01*
X0065250Y0026500D01*
Y0024000D01*
X0065750Y0023500D01*
Y0021750D01*
X0066000Y0021500D01*
Y0019500D01*
X0065750Y0019250D01*
Y0004250D01*
X0065500Y0004000D01*
X0029750Y0002000D02*
X0029250Y0002500D01*
Y0007500D01*
X0028750Y0008000D01*
X0067250Y0010000D02*
X0067000Y0010250D01*
Y0015500D01*
X0067500Y0016000D01*
Y0019000D01*
X0028500Y0043000D02*
X0028000D01*
X0026750Y0041750D01*
Y0039750D01*
X0027250Y0039250D01*
X0030000D01*
X0032250Y0041500D01*
X0032750D01*
X0036500Y0037750D01*
X0037250D01*
X0037750Y0037250D01*
Y0036750D01*
X0037000Y0036000D01*
X0006750Y0026500D02*
Y0025500D01*
X0006250Y0025000D01*
Y0018000D01*
X0005750Y0017500D01*
Y0017000D01*
X0003500Y0014750D01*
Y0009000D01*
X0041500Y0004500D02*
X0042500Y0005500D01*
Y0007250D01*
X0043000Y0007750D01*
X0045250D01*
X0046500Y0006500D01*
X0047500D01*
X0022500Y0006000D02*
Y0005000D01*
X0013437Y0032500D02*
X0012937Y0032000D01*
X0012750D01*
Y0025250D01*
X0006750Y0024750D02*
X0006500Y0024500D01*
Y0017750D01*
X0006000Y0017250D01*
Y0016750D01*
X0004500Y0015250D01*
Y0009000D01*
X0030000Y0016500D02*
Y0015500D01*
X0015000Y0034500D02*
Y0033287D01*
X0015011D01*
X0030000Y0016500D02*
Y0019000D01*
X0002000Y0004500D02*
X0002250Y0004750D01*
Y0022500D01*
X0005250Y0025500D01*
Y0029500D01*
X0005500Y0029750D01*
Y0031750D01*
X0021500Y0026750D02*
Y0020250D01*
X0021310D01*
Y0019737D01*
X0057000Y0011500D02*
Y0012500D01*
X0006750Y0013500D02*
X0006500Y0013250D01*
Y0012000D01*
X0008000Y0010500D01*
X0039000Y0004500D02*
X0039500D01*
X0039750Y0004250D01*
Y0002250D01*
X0040000Y0002000D01*
X0044750D01*
X0045750Y0003000D01*
X0046000D01*
X0046500Y0002500D01*
X0048500D01*
X0049000Y0003000D01*
Y0007750D01*
X0049250Y0008000D01*
X0051250D01*
X0052000Y0008750D01*
Y0009500D01*
X0053750Y0011500D02*
X0052750Y0012500D01*
X0052000D01*
X0032500Y0043000D02*
X0033000D01*
X0033250Y0042750D01*
Y0042250D01*
X0037250Y0038250D01*
X0037750D01*
X0038250Y0037750D01*
Y0036250D01*
X0038000Y0036000D01*
Y0034500D01*
X0037750Y0034250D01*
Y0032250D01*
X0037000Y0031500D01*
X0037500Y0018000D02*
Y0018250D01*
X0038000Y0018750D01*
Y0034000D01*
X0038250Y0034250D01*
Y0035750D01*
X0038500Y0036000D01*
Y0039250D01*
X0025750D02*
Y0040750D01*
X0024500Y0042000D01*
X0051000Y0006500D02*
Y0007000D01*
X0053250Y0009250D01*
X0056000D01*
X0056250Y0009500D01*
Y0016750D01*
X0055750Y0017250D01*
X0054500D01*
X0054250Y0017000D01*
Y0013250D01*
X0055000Y0012500D01*
X0019735Y0018950D02*
X0019500D01*
Y0018000D01*
X0051250Y0002500D02*
X0051500Y0002750D01*
X0052250D01*
X0053000Y0003500D01*
X0037000Y0016500D02*
Y0015500D01*
X0033500Y0021750D02*
X0033000Y0021250D01*
Y0018750D01*
X0020750Y0017500D02*
X0020500Y0017250D01*
Y0014000D01*
X0019750Y0013250D01*
Y0011250D01*
X0019000Y0010500D01*
X0015250D01*
X0015000Y0010750D01*
Y0013500D01*
X0012500Y0016000D01*
X0037000Y0015500D02*
X0036250Y0014750D01*
Y0010500D01*
X0035750Y0010000D01*
X0033750D01*
X0033500Y0010250D01*
Y0012000D01*
X0033000Y0012500D01*
X0046000Y0025500D02*
X0046500Y0025000D01*
Y0024250D01*
X0046250Y0024000D01*
X0045000D01*
X0044250Y0023250D01*
X0042000Y0032500D02*
X0041500Y0032000D01*
Y0030000D01*
X0007000Y0030750D02*
Y0028250D01*
X0007500Y0027750D01*
X0007750D01*
X0008000Y0027500D01*
Y0016750D01*
X0007500Y0016250D01*
X0007250D01*
X0007000Y0016000D01*
Y0015500D01*
X0006000Y0014500D01*
Y0011000D01*
X0007250Y0009750D01*
X0008750D01*
X0009500Y0009000D01*
X0007750Y0032750D02*
X0008000Y0032500D01*
Y0031000D01*
X0008250Y0030750D01*
Y0016500D01*
X0007750Y0016000D01*
X0007500D01*
X0007250Y0015750D01*
Y0014750D01*
X0006750Y0014250D01*
X0006500D01*
X0019250Y0013500D02*
Y0011500D01*
X0032750Y0007500D02*
X0034500Y0005750D01*
Y0005250D01*
X0034750Y0005000D01*
X0035500D01*
X0036000Y0005500D01*
X0023250Y0026500D02*
Y0020500D01*
X0023500Y0020250D01*
X0023672D01*
Y0019737D01*
X0060500Y0043000D02*
X0063500Y0040000D01*
Y0033750D01*
X0064000Y0033250D01*
Y0032500D01*
X0046000Y0023500D02*
X0045250D01*
X0044500Y0022750D01*
X0043750D01*
X0043500Y0023000D01*
X0041250D01*
X0040750Y0022500D01*
Y0022250D01*
G54D21*
G01X0003500Y0035000D02*
Y0031500D01*
X0005000Y0030000D01*
X0008750Y0030250D02*
Y0026000D01*
X0005750Y0025750D02*
Y0019250D01*
X0004500Y0018000D01*
Y0017000D01*
X0008000Y0012250D02*
Y0014000D01*
X0009250Y0015250D01*
X0009500D01*
Y0016000D01*
X0050000Y0022500D02*
X0050750Y0023250D01*
Y0023750D01*
X0050000Y0024500D01*
X0041500Y0006500D02*
Y0005500D01*
X0033000D02*
Y0006500D01*
X0050000Y0005500D02*
Y0006500D01*
Y0022500D02*
X0049250Y0021750D01*
Y0021500D01*
X0050000Y0024500D02*
X0050750Y0025250D01*
Y0025750D01*
X0050000Y0026500D01*
X0064000Y0024500D02*
X0064750Y0025250D01*
Y0025750D01*
X0064000Y0026500D01*
X0068500Y0019000D02*
Y0023000D01*
X0060000Y0006500D02*
Y0005500D01*
X0056000Y0003500D02*
X0055250Y0004250D01*
Y0004750D01*
X0056000Y0005500D01*
X0043500Y0006500D02*
Y0007250D01*
X0044875D01*
X0045375Y0006750D01*
Y0006000D01*
X0045875Y0005500D01*
X0047500D01*
X0033000Y0009500D02*
X0033625Y0008875D01*
X0033125D01*
X0032500Y0008250D01*
X0043500Y0006500D02*
Y0005500D01*
X0060000Y0004500D02*
Y0003500D01*
X0064000Y0005500D02*
X0063250Y0004750D01*
Y0004250D01*
X0064000Y0003500D01*
X0035000Y0006500D02*
Y0007000D01*
X0033125Y0008875D01*
X0033625D01*
X0033000Y0009500D01*
X0032250Y0010250D01*
Y0010750D01*
X0033000Y0011500D01*
X0042000Y0009500D02*
X0041250Y0010250D01*
Y0010750D01*
X0042000Y0011500D01*
X0047500Y0005500D02*
X0048250Y0006250D01*
Y0007500D01*
X0048000Y0007750D01*
Y0009500D01*
X0033000Y0011500D02*
X0032250D01*
Y0013500D01*
X0033000D01*
Y0015500D02*
X0032250D01*
Y0013500D01*
X0033000D01*
X0042000Y0011500D02*
X0041250Y0012250D01*
Y0012750D01*
X0042000Y0013500D01*
Y0015500D02*
X0041250Y0014750D01*
Y0014250D01*
X0042000Y0013500D01*
X0043500Y0004500D02*
Y0003500D01*
X0039000Y0005500D02*
X0038250D01*
X0038000Y0005250D01*
Y0003750D01*
X0038250Y0003500D01*
X0039000D01*
X0060000Y0009500D02*
X0059250Y0010250D01*
Y0010750D01*
X0060000Y0011500D01*
X0048000D02*
X0050000Y0013500D01*
X0051000D01*
X0048000Y0011500D02*
X0048750Y0010750D01*
Y0010250D01*
X0048000Y0009500D01*
X0060000Y0011500D02*
X0059000D01*
X0057000Y0013500D01*
X0004500Y0017000D02*
X0002750Y0015250D01*
Y0004000D01*
X0003500Y0003250D01*
Y0002000D01*
X0010500Y0017500D02*
Y0016000D01*
X0068500Y0015000D02*
Y0019000D01*
X0050000Y0023500D02*
X0048500Y0022000D01*
Y0021000D01*
X0050000Y0019500D01*
X0070500Y0023000D02*
Y0024500D01*
X0069500Y0025500D01*
Y0027000D01*
X0034000Y0029500D02*
X0034750Y0030250D01*
Y0031500D01*
X0034000D01*
X0050000Y0021500D02*
X0052000Y0023500D01*
Y0029500D01*
X0064000Y0023500D02*
X0062500Y0025000D01*
Y0028000D01*
X0061000Y0029500D01*
X0043000Y0031500D02*
X0043750D01*
Y0033000D01*
X0043500Y0033250D01*
X0043000D01*
Y0034000D01*
Y0036000D02*
X0043750Y0035250D01*
Y0034750D01*
X0043000Y0034000D01*
X0034000Y0031500D02*
X0034750D01*
Y0033000D01*
X0034500Y0033250D01*
X0034000D01*
Y0034000D01*
X0043000Y0031500D02*
X0043750D01*
Y0030250D01*
X0043000Y0029500D01*
X0052000Y0031500D02*
X0052750D01*
Y0033000D01*
X0052500Y0033250D01*
X0052000D01*
Y0034000D01*
X0052750Y0034750D01*
Y0035250D01*
X0052000Y0036000D01*
X0050000Y0023500D02*
X0049250Y0024250D01*
Y0024750D01*
X0050000Y0025500D01*
X0052000Y0031500D02*
X0052750D01*
Y0030250D01*
X0052000Y0029500D01*
X0061000Y0031500D02*
X0061750D01*
Y0033000D01*
X0061500Y0033250D01*
X0061000D01*
Y0034000D01*
X0061750Y0034750D01*
Y0035250D01*
X0061000Y0036000D01*
X0064000Y0023500D02*
X0063250Y0024250D01*
Y0024750D01*
X0064000Y0025500D01*
X0061000Y0031500D02*
X0061750D01*
Y0030250D01*
X0061000Y0029500D01*
X0051000Y0013500D02*
X0050250Y0014250D01*
Y0014750D01*
X0051000Y0015500D01*
X0050000Y0021500D02*
X0050750Y0020750D01*
Y0020250D01*
X0050000Y0019500D01*
X0010500Y0016000D02*
Y0015250D01*
X0008750Y0013500D01*
Y0010500D01*
X0009500Y0009750D01*
X0012500D01*
X0013250Y0010500D01*
X0014000D01*
X0064000Y0023500D02*
X0063250Y0022750D01*
Y0020250D01*
X0064000Y0019500D01*
X0034000Y0034000D02*
X0034750Y0034750D01*
Y0035250D01*
X0034000Y0036000D01*
X0047500Y0003500D02*
X0046750Y0004250D01*
Y0004750D01*
X0047500Y0005500D01*
X0052000Y0004500D02*
Y0005500D01*
X0064000Y0021500D02*
X0064750Y0020750D01*
Y0020250D01*
X0064000Y0019500D01*
X0052000Y0004500D02*
Y0003500D01*
X0027500Y0002000D02*
X0028500D01*
X0060000Y0011500D02*
X0059250D01*
X0059000Y0011750D01*
Y0014500D01*
X0060000Y0015500D01*
Y0004500D02*
Y0005500D01*
Y0006500D02*
Y0009500D01*
X0030750Y0008250D02*
Y0008000D01*
X0030000Y0007250D01*
Y0002750D01*
X0030500Y0002250D01*
Y0001750D01*
X0030000Y0001250D01*
X0029500D01*
X0028750Y0002000D01*
X0027500D01*
X0068500Y0011000D02*
Y0015000D01*
X0035000Y0005500D02*
Y0006500D01*
X0043500Y0004500D02*
Y0005500D01*
X0043000Y0013500D02*
X0043750Y0014250D01*
Y0017750D01*
X0043250Y0017250D01*
X0036750D01*
X0036250Y0016750D01*
Y0015750D01*
X0034000Y0013500D01*
X0052000D02*
X0053000Y0014500D01*
Y0018000D01*
X0061000Y0018250D02*
Y0017750D01*
X0061750Y0017000D01*
Y0014250D01*
X0061000Y0013500D01*
X0003500Y0038000D02*
X0001250D01*
X0000750Y0037500D01*
Y0026500D01*
X0002875Y0024375D01*
X0004500Y0026000D01*
X0052000Y0013500D02*
X0053000Y0014500D01*
Y0017750D01*
X0052500Y0018250D01*
X0044250D01*
X0043750Y0017750D01*
Y0014250D01*
X0043000Y0013500D01*
X0052000Y0005500D02*
Y0006500D01*
X0064000Y0024500D02*
X0064750Y0023750D01*
Y0023250D01*
X0064000Y0022500D01*
X0016586Y0018950D02*
Y0018250D01*
X0017000D01*
X0017500Y0017750D01*
Y0011750D01*
X0016250D01*
X0015500Y0011000D01*
X0058000Y0005500D02*
Y0006500D01*
X0050250Y0017250D02*
Y0017000D01*
X0049750Y0016500D01*
X0049000D01*
X0048250Y0017250D01*
X0047750D01*
X0047250Y0016750D01*
Y0014750D01*
X0046000Y0013500D01*
X0070500Y0015000D02*
Y0011000D01*
X0034000Y0036000D02*
X0033125D01*
X0032375Y0036750D01*
Y0039000D01*
X0032125Y0039250D01*
X0031500D01*
X0031000Y0038750D01*
Y0038250D01*
X0030750Y0038000D01*
X0012500Y0002000D02*
X0011500Y0003000D01*
Y0009750D01*
X0012500D01*
X0013250Y0010500D01*
X0014000D01*
X0046000Y0013500D02*
X0044250Y0011750D01*
Y0009250D01*
X0043750Y0008750D01*
X0038750D01*
X0038250Y0009250D01*
Y0012250D01*
X0037000Y0013500D01*
X0004500Y0036000D02*
Y0035000D01*
X0001250Y0015000D02*
Y0022750D01*
X0004500Y0026000D01*
X0018500Y0015000D02*
Y0012250D01*
X0017500D01*
Y0011750D01*
X0016250D01*
X0015500Y0011000D01*
X0064000Y0005500D02*
X0063250Y0006250D01*
Y0008500D01*
X0063000Y0008750D01*
Y0012500D01*
X0063250Y0012750D01*
Y0017500D01*
X0064000Y0018250D01*
Y0019500D01*
X0061000Y0006500D02*
X0062500Y0005000D01*
Y0003250D01*
X0063000Y0002750D01*
X0064250D01*
X0064750Y0003250D01*
Y0004500D01*
X0065250Y0005000D01*
Y0019750D01*
X0065500Y0020000D01*
Y0021250D01*
X0065250Y0021500D01*
Y0023250D01*
X0064000Y0024500D01*
X0008500Y0041000D02*
X0006500Y0039000D01*
Y0036000D01*
X0032500Y0008250D02*
Y0010000D01*
X0032250Y0010250D01*
Y0016750D01*
X0033500Y0018000D01*
X0034000D01*
X0034500Y0018500D01*
Y0022250D01*
X0033500Y0023250D01*
Y0028250D01*
X0034000Y0028750D01*
Y0029500D01*
X0004500Y0039000D02*
Y0038000D01*
G54D22*
G01X0046000Y0032500D02*
X0045000D01*
Y0035000D01*
X0046000D01*
X0037000Y0037000D02*
X0036000D01*
Y0035000D01*
X0037000D01*
X0046000Y0037000D02*
X0045250Y0037750D01*
X0055000Y0035000D02*
X0056000D01*
Y0037000D01*
X0055000D01*
X0024500Y0043000D02*
Y0044000D01*
X0037000Y0037000D02*
X0036000D01*
X0045000D02*
X0046000D01*
X0004500Y0032000D02*
Y0033250D01*
X0005500Y0034250D01*
Y0039500D01*
X0005000Y0040000D01*
X0003500D01*
Y0039000D01*
X0046000Y0035000D02*
X0045000D01*
Y0037000D01*
X0046000D01*
X0004500Y0029000D02*
X0002500Y0031000D01*
Y0036000D01*
X0003500D01*
X0042000Y0025500D02*
X0041250D01*
X0041750Y0026000D01*
Y0027750D01*
X0040250Y0029250D01*
Y0039750D01*
X0040500Y0040000D01*
X0039000Y0021500D02*
Y0023000D01*
X0039500Y0023500D01*
X0039000D01*
X0053000D02*
Y0025500D01*
X0039000Y0019500D02*
Y0021500D01*
X0053000Y0019500D02*
Y0021500D01*
Y0023500D02*
Y0021500D01*
X0028500Y0042000D02*
X0028250D01*
X0027500Y0041250D01*
Y0040000D01*
X0028500D01*
X0039000Y0023500D02*
Y0024500D01*
X0039500Y0024000D01*
X0039000Y0023500D02*
X0039750Y0024250D01*
Y0025000D01*
X0040250Y0025500D01*
X0042000D01*
X0046000Y0037000D02*
Y0041250D01*
X0045500Y0041750D01*
Y0043000D01*
X0044500D01*
X0037000Y0032500D02*
X0036000D01*
Y0035000D01*
X0037000D01*
X0046000Y0032500D02*
X0045000D01*
Y0030500D01*
X0046000D01*
X0037000Y0032500D02*
X0036000D01*
Y0030500D01*
X0037000D01*
X0024500Y0044000D02*
Y0043000D01*
G54D20*
X0005000Y0030000D03*
X0008750Y0030250D03*
Y0026000D03*
X0005750Y0025750D03*
X0045250Y0037750D03*
X0036000Y0037000D03*
X0045000D03*
X0008000Y0012250D03*
X0049250Y0021500D03*
X0030750Y0008250D03*
X0069000Y0028500D03*
X0055250Y0028000D03*
X0028250Y0027250D03*
X0053000Y0018000D03*
X0061000Y0018250D03*
X0046000Y0002250D03*
X0037750Y0003000D03*
X0030500Y0034500D03*
X0029000Y0030250D03*
X0031000Y0033000D03*
Y0034000D03*
X0025250Y0010500D03*
X0025750Y0032000D03*
X0031500Y0031750D03*
X0033000Y0037750D03*
X0059500Y0043750D03*
X0027750Y0025500D03*
X0029250Y0023500D03*
X0011250Y0021250D03*
X0020500Y0002500D03*
X0066500Y0004250D03*
X0065750Y0029000D03*
X0023250Y0027750D03*
X0057500Y0029250D03*
X0006500Y0032250D03*
X0011000Y0001500D03*
X0040250Y0002500D03*
X0036000Y0018000D03*
X0035500Y0028750D03*
X0007500Y0029000D03*
X0018000Y0000750D03*
X0066500D03*
Y0032000D03*
X0027250Y0010250D03*
X0028000Y0033500D03*
X0026750Y0010750D03*
X0027000Y0032500D03*
X0067250Y0001250D03*
X0039500Y0001000D03*
X0016000Y0014250D03*
X0026250Y0031000D03*
X0026000Y0007250D03*
X0031750Y0019250D03*
Y0023250D03*
X0012000Y0021500D03*
X0062250Y0008250D03*
X0020500Y0013250D03*
X0049500Y0007500D03*
X0062500D03*
X0033750Y0018750D03*
X0031750Y0038500D03*
X0025000Y0038750D03*
X0008500Y0034000D03*
X0034250Y0028000D03*
X0007750Y0028250D03*
X0050250Y0017250D03*
X0050000Y0012500D03*
X0054750Y0017750D03*
X0053500Y0029000D03*
X0025750Y0028750D03*
X0007750Y0015500D03*
X0062250Y0006500D03*
X0025500Y0025500D03*
X0009000Y0036000D03*
X0011500Y0017750D03*
X0068000Y0033000D03*
X0028750Y0021750D03*
X0024250Y0027500D03*
X0020500Y0006500D03*
X0016250Y0027250D03*
X0040750D03*
X0058000Y0010750D03*
Y0008750D03*
X0061250Y0009000D03*
X0032000Y0035250D03*
X0016250Y0036250D03*
X0038750Y0028750D03*
X0016750D03*
X0026250Y0043000D03*
X0027500Y0014750D03*
X0062250Y0010250D03*
X0059750Y0036250D03*
X0018750Y0037000D03*
X0029250Y0020500D03*
X0065750Y0024750D03*
X0027000Y0016750D03*
X0026500Y0035750D03*
X0023000Y0035500D03*
X0065750Y0027750D03*
X0048500Y0027000D03*
X0040750Y0024000D03*
X0012750Y0022750D03*
X0032250Y0019750D03*
X0049500Y0017250D03*
X0054500Y0028000D03*
X0029000D03*
X0016000Y0012500D03*
X0031000Y0004500D03*
X0037250D03*
X0030750Y0038000D03*
X0024000Y0028500D03*
X0029750Y0024000D03*
X0010500Y0021750D03*
X0064000Y0009500D03*
X0049500Y0043500D03*
X0012000Y0014000D03*
X0001250Y0015000D03*
X0013000Y0001000D03*
X0067750Y0003750D03*
X0067000Y0031000D03*
X0047500D03*
X0007000Y0012250D03*
X0039500Y0024000D03*
X0025750Y0026500D03*
X0006500Y0036000D03*
X0030000Y0008500D03*
X0030500Y0022500D03*
X0014750Y0021250D03*
X0032500Y0008250D03*
X0062000Y0018250D03*
X0026750Y0042500D03*
X0049250Y0038750D03*
X0026250Y0038250D03*
X0024500Y0044000D03*
X0014500Y0030000D03*
X0006500Y0029000D03*
X0015750Y0030750D03*
X0015250Y0031250D03*
X0006250Y0031000D03*
X0043500Y0010000D03*
X0068000Y0008750D03*
X0065500Y0004000D03*
X0029750Y0002000D03*
X0028750Y0008000D03*
X0067250Y0010000D03*
X0006750Y0026500D03*
X0012750Y0025250D03*
X0006750Y0024750D03*
X0030000Y0019000D03*
X0002000Y0004500D03*
X0005500Y0031750D03*
X0021500Y0026750D03*
X0006750Y0013500D03*
X0052000Y0009500D03*
X0053750Y0011500D03*
X0037500Y0018000D03*
X0038500Y0039250D03*
X0025750D03*
X0051000Y0006500D03*
X0051250Y0002500D03*
X0033500Y0021750D03*
X0033000Y0018750D03*
X0020750Y0017500D03*
X0044250Y0023250D03*
X0041500Y0030000D03*
X0007000Y0030750D03*
X0007750Y0032750D03*
X0006500Y0014250D03*
X0019250Y0013500D03*
Y0011500D03*
X0032750Y0007500D03*
X0023250Y0026500D03*
G54D24*
X0058000Y0004500D03*
X0060000D03*
X0058000Y0003500D03*
X0060000D03*
X0058000Y0005500D03*
X0060000D03*
X0058000Y0006500D03*
X0060000D03*
X0050000Y0004500D03*
X0052000D03*
X0050000Y0003500D03*
X0052000D03*
X0050000Y0005500D03*
X0052000D03*
X0050000Y0006500D03*
X0052000D03*
X0041500Y0004500D03*
X0043500D03*
X0041500Y0003500D03*
X0043500D03*
X0041500Y0005500D03*
X0043500D03*
X0041500Y0006500D03*
X0043500D03*
X0033000Y0004500D03*
X0035000D03*
X0033000Y0003500D03*
X0035000D03*
X0033000Y0005500D03*
X0035000D03*
X0033000Y0006500D03*
X0035000D03*
G54D25*
X0014000Y0011500D03*
Y0010500D03*
X0012500Y0011000D03*
X0011500D03*
X0008000Y0010500D03*
Y0011500D03*
X0016500Y0011000D03*
X0015500D03*
X0010000Y0010500D03*
Y0011500D03*
G54D26*
X0010500Y0013000D03*
X0011500D03*
X0012500D03*
X0013500D03*
X0014500D03*
X0015500D03*
X0016500D03*
Y0016000D03*
X0015500D03*
X0014500D03*
X0013500D03*
X0012500D03*
X0011500D03*
X0010500D03*
X0009500D03*
X0061000Y0031500D03*
Y0030500D03*
Y0029500D03*
X0064000D03*
Y0030500D03*
Y0031500D03*
Y0032500D03*
X0061000Y0005500D03*
Y0004500D03*
Y0003500D03*
X0064000D03*
Y0004500D03*
Y0005500D03*
Y0006500D03*
X0061000Y0036000D03*
Y0035000D03*
Y0034000D03*
X0064000D03*
Y0035000D03*
Y0036000D03*
Y0037000D03*
X0053000Y0005500D03*
Y0004500D03*
Y0003500D03*
X0056000D03*
Y0004500D03*
Y0005500D03*
Y0006500D03*
X0052000Y0031500D03*
Y0030500D03*
Y0029500D03*
X0055000D03*
Y0030500D03*
Y0031500D03*
Y0032500D03*
X0061000Y0015500D03*
Y0014500D03*
Y0013500D03*
Y0012500D03*
Y0011500D03*
Y0010500D03*
X0064000D03*
Y0011500D03*
Y0012500D03*
Y0013500D03*
Y0014500D03*
Y0015500D03*
Y0016500D03*
X0052000Y0036000D03*
Y0035000D03*
Y0034000D03*
X0055000D03*
Y0035000D03*
Y0036000D03*
Y0037000D03*
X0044500Y0005500D03*
Y0004500D03*
Y0003500D03*
X0047500D03*
Y0004500D03*
Y0005500D03*
Y0006500D03*
X0043000Y0031500D03*
Y0030500D03*
Y0029500D03*
X0046000D03*
Y0030500D03*
Y0031500D03*
Y0032500D03*
X0052000Y0015500D03*
Y0014500D03*
Y0013500D03*
Y0012500D03*
Y0011500D03*
Y0010500D03*
X0055000D03*
Y0011500D03*
Y0012500D03*
Y0013500D03*
Y0014500D03*
Y0015500D03*
Y0016500D03*
X0036000Y0005500D03*
Y0004500D03*
Y0003500D03*
X0039000D03*
Y0004500D03*
Y0005500D03*
Y0006500D03*
X0043000Y0036000D03*
Y0035000D03*
Y0034000D03*
X0046000D03*
Y0035000D03*
Y0036000D03*
Y0037000D03*
X0034000Y0031500D03*
Y0030500D03*
Y0029500D03*
X0037000D03*
Y0030500D03*
Y0031500D03*
Y0032500D03*
X0034000Y0036000D03*
Y0035000D03*
Y0034000D03*
X0037000D03*
Y0035000D03*
Y0036000D03*
Y0037000D03*
X0057000Y0025500D03*
Y0024500D03*
Y0023500D03*
Y0022500D03*
Y0021500D03*
Y0020500D03*
Y0019500D03*
X0060000D03*
Y0020500D03*
Y0021500D03*
Y0022500D03*
Y0023500D03*
Y0024500D03*
Y0025500D03*
Y0026500D03*
X0034000Y0015500D03*
Y0014500D03*
Y0013500D03*
Y0012500D03*
Y0011500D03*
Y0010500D03*
X0037000D03*
Y0011500D03*
Y0012500D03*
Y0013500D03*
Y0014500D03*
Y0015500D03*
Y0016500D03*
X0043000Y0015500D03*
Y0014500D03*
Y0013500D03*
Y0012500D03*
Y0011500D03*
Y0010500D03*
X0046000D03*
Y0011500D03*
Y0012500D03*
Y0013500D03*
Y0014500D03*
Y0015500D03*
Y0016500D03*
X0043000Y0025500D03*
Y0024500D03*
Y0023500D03*
Y0022500D03*
Y0021500D03*
Y0020500D03*
Y0019500D03*
X0046000D03*
Y0020500D03*
Y0021500D03*
Y0022500D03*
Y0023500D03*
Y0024500D03*
Y0025500D03*
Y0026500D03*
X0022500Y0006000D03*
X0023500D03*
X0024500D03*
X0025500D03*
X0026500D03*
X0027500D03*
X0028500D03*
Y0009000D03*
X0027500D03*
X0026500D03*
X0025500D03*
X0024500D03*
X0023500D03*
X0022500D03*
X0021500D03*
X0013500Y0006000D03*
X0014500D03*
X0015500D03*
X0016500D03*
X0017500D03*
X0018500D03*
X0019500D03*
Y0009000D03*
X0018500D03*
X0017500D03*
X0016500D03*
X0015500D03*
X0014500D03*
X0013500D03*
X0012500D03*
X0004500Y0006000D03*
X0005500D03*
X0006500D03*
X0007500D03*
X0008500D03*
X0009500D03*
X0010500D03*
Y0009000D03*
X0009500D03*
X0008500D03*
X0007500D03*
X0006500D03*
X0005500D03*
X0004500D03*
X0003500D03*
X0009500Y0033287D03*
X0010287Y0032500D03*
Y0033287D03*
X0011075Y0032500D03*
Y0033287D03*
X0011862Y0032500D03*
Y0033287D03*
X0012649Y0032500D03*
X0013437D03*
Y0033287D03*
X0014224Y0032500D03*
Y0033287D03*
X0015011Y0032500D03*
Y0033287D03*
X0015799Y0032500D03*
Y0033287D03*
X0016586Y0032500D03*
X0017373D03*
Y0033287D03*
X0018161Y0032500D03*
Y0033287D03*
X0018948Y0032500D03*
Y0033287D03*
X0019735Y0032500D03*
Y0033287D03*
X0020523Y0032500D03*
X0021310D03*
Y0033287D03*
X0022097Y0032500D03*
Y0033287D03*
X0022885Y0032500D03*
Y0033287D03*
X0023672Y0032500D03*
Y0033287D03*
X0024459Y0032500D03*
Y0033287D03*
X0009500Y0019737D03*
X0010287Y0018950D03*
Y0019737D03*
X0011075Y0018950D03*
Y0019737D03*
X0011862Y0018950D03*
Y0019737D03*
X0012649Y0018950D03*
X0013437D03*
Y0019737D03*
X0014224Y0018950D03*
Y0019737D03*
X0015011Y0018950D03*
Y0019737D03*
X0015799Y0018950D03*
Y0019737D03*
X0016586Y0018950D03*
X0017373D03*
Y0019737D03*
X0018161Y0018950D03*
Y0019737D03*
X0018948Y0018950D03*
Y0019737D03*
X0019735Y0018950D03*
Y0019737D03*
X0020523Y0018950D03*
X0021310D03*
Y0019737D03*
X0022097Y0018950D03*
Y0019737D03*
X0022885Y0018950D03*
Y0019737D03*
X0023672Y0018950D03*
Y0019737D03*
X0024459Y0018950D03*
Y0019737D03*
X0068500Y0027000D03*
X0069500D03*
X0070500D03*
X0020500Y0042000D03*
Y0041000D03*
Y0040000D03*
Y0039000D03*
Y0038000D03*
X0068500Y0042000D03*
Y0041000D03*
Y0040000D03*
X0024500Y0042000D03*
Y0041000D03*
Y0040000D03*
X0016500Y0042000D03*
Y0041000D03*
Y0040000D03*
Y0039000D03*
Y0038000D03*
X0068500Y0011000D03*
X0069500D03*
X0070500D03*
X0064500Y0042000D03*
Y0041000D03*
Y0040000D03*
X0040500Y0042000D03*
Y0041000D03*
Y0040000D03*
X0012500Y0042000D03*
Y0041000D03*
Y0040000D03*
Y0039000D03*
Y0038000D03*
X0068500Y0015000D03*
X0069500D03*
X0070500D03*
X0060500Y0042000D03*
Y0041000D03*
Y0040000D03*
X0036500Y0042000D03*
Y0041000D03*
Y0040000D03*
X0008500Y0042000D03*
Y0041000D03*
Y0040000D03*
Y0039000D03*
Y0038000D03*
X0068500Y0019000D03*
X0069500D03*
X0070500D03*
X0056500Y0042000D03*
Y0041000D03*
Y0040000D03*
X0032500Y0042000D03*
Y0041000D03*
Y0040000D03*
X0048500Y0042000D03*
Y0041000D03*
Y0040000D03*
X0068500Y0023000D03*
X0069500D03*
X0070500D03*
X0052500Y0042000D03*
Y0041000D03*
Y0040000D03*
X0028500Y0042000D03*
Y0041000D03*
Y0040000D03*
X0044500Y0042000D03*
Y0041000D03*
Y0040000D03*
G54D27*
X0009500Y0013000D03*
X0061000Y0032500D03*
Y0006500D03*
Y0037000D03*
X0053000Y0006500D03*
X0052000Y0032500D03*
X0061000Y0016500D03*
X0052000Y0037000D03*
X0044500Y0006500D03*
X0043000Y0032500D03*
X0052000Y0016500D03*
X0036000Y0006500D03*
X0043000Y0037000D03*
X0034000Y0032500D03*
Y0037000D03*
X0057000Y0026500D03*
X0034000Y0016500D03*
X0043000D03*
Y0026500D03*
X0021500Y0006000D03*
X0012500D03*
X0003500D03*
X0009500Y0032500D03*
X0012649Y0033287D03*
X0016586D03*
X0020523D03*
X0009500Y0018950D03*
X0012649Y0019737D03*
X0016586D03*
X0020523D03*
X0067500Y0027000D03*
X0020500Y0043000D03*
X0068500D03*
X0024500D03*
X0016500D03*
X0067500Y0011000D03*
X0064500Y0043000D03*
X0040500D03*
X0012500D03*
X0067500Y0015000D03*
X0060500Y0043000D03*
X0036500D03*
X0008500D03*
X0067500Y0019000D03*
X0056500Y0043000D03*
X0032500D03*
X0048500D03*
X0067500Y0023000D03*
X0052500Y0043000D03*
X0028500D03*
X0044500D03*
G54D28*
X0004500Y0032000D03*
Y0029000D03*
Y0026000D03*
Y0023000D03*
Y0020000D03*
Y0017000D03*
G54D29*
X0009500Y0017500D03*
X0010500D03*
X0018500Y0034500D03*
Y0035500D03*
X0017500Y0034500D03*
Y0035500D03*
X0015000Y0034500D03*
Y0035500D03*
X0014000Y0034500D03*
Y0035500D03*
X0003500Y0037000D03*
X0004500D03*
X0003500Y0035000D03*
X0004500D03*
X0003500Y0036000D03*
X0004500D03*
X0003500Y0038000D03*
X0004500D03*
X0003500Y0039000D03*
X0004500D03*
G54D30*
X0019500Y0018000D03*
Y0015000D03*
X0018500Y0018000D03*
Y0015000D03*
X0057000Y0030500D03*
X0060000D03*
Y0032500D03*
X0057000D03*
Y0035000D03*
X0060000D03*
Y0011500D03*
X0057000D03*
X0060000Y0009500D03*
X0057000D03*
Y0013500D03*
X0060000D03*
Y0015500D03*
X0057000D03*
X0060000Y0037000D03*
X0057000D03*
Y0010500D03*
X0060000D03*
X0057000Y0014500D03*
X0060000D03*
X0048000Y0030500D03*
X0051000D03*
Y0032500D03*
X0048000D03*
X0057000Y0012500D03*
X0060000D03*
Y0016500D03*
X0057000D03*
X0048000Y0035000D03*
X0051000D03*
Y0037000D03*
X0048000D03*
X0039000Y0030500D03*
X0042000D03*
X0039000Y0032500D03*
X0042000D03*
X0048000Y0011500D03*
X0051000D03*
X0048000Y0009500D03*
X0051000D03*
Y0013500D03*
X0048000D03*
X0051000Y0015500D03*
X0048000D03*
X0051000Y0010500D03*
X0048000D03*
X0051000Y0014500D03*
X0048000D03*
X0039000Y0035000D03*
X0042000D03*
Y0037000D03*
X0039000D03*
X0051000Y0016500D03*
X0048000D03*
X0051000Y0012500D03*
X0048000D03*
X0030000Y0030500D03*
X0033000D03*
Y0032500D03*
X0030000D03*
Y0035000D03*
X0033000D03*
X0039000Y0009500D03*
X0042000D03*
X0039000Y0013500D03*
X0042000D03*
X0030000Y0009500D03*
X0033000D03*
X0030000Y0013500D03*
X0033000D03*
Y0037000D03*
X0030000D03*
X0042000Y0010500D03*
X0039000D03*
X0042000Y0014500D03*
X0039000D03*
X0033000Y0010500D03*
X0030000D03*
X0033000Y0014500D03*
X0030000D03*
X0064000Y0019500D03*
X0061000D03*
X0056000D03*
X0053000D03*
X0064000Y0020500D03*
X0061000D03*
X0039000Y0011500D03*
X0042000D03*
X0039000Y0015500D03*
X0042000D03*
X0030000Y0011500D03*
X0033000D03*
X0030000Y0015500D03*
X0033000D03*
X0064000Y0021500D03*
X0061000D03*
X0056000D03*
X0053000D03*
X0064000Y0022500D03*
X0061000D03*
X0064000Y0023500D03*
X0061000D03*
X0056000D03*
X0053000D03*
X0064000Y0024500D03*
X0061000D03*
X0064000Y0026500D03*
X0061000D03*
X0042000Y0016500D03*
X0039000D03*
X0056000Y0025500D03*
X0053000D03*
X0042000Y0012500D03*
X0039000D03*
X0033000D03*
X0030000D03*
X0064000Y0025500D03*
X0061000D03*
X0033000Y0016500D03*
X0030000D03*
X0050000Y0019500D03*
X0047000D03*
X0042000D03*
X0039000D03*
X0050000Y0020500D03*
X0047000D03*
X0050000Y0021500D03*
X0047000D03*
X0042000D03*
X0039000D03*
X0050000Y0022500D03*
X0047000D03*
X0050000Y0023500D03*
X0047000D03*
X0042000D03*
X0039000D03*
X0050000Y0024500D03*
X0047000D03*
X0050000Y0025500D03*
X0047000D03*
X0050000Y0026500D03*
X0047000D03*
X0039000Y0025500D03*
X0042000D03*
X0028500Y0002000D03*
Y0005000D03*
X0027500Y0002000D03*
Y0005000D03*
X0026500Y0002000D03*
Y0005000D03*
X0025500Y0002000D03*
Y0005000D03*
X0024500Y0002000D03*
Y0005000D03*
X0023500Y0002000D03*
Y0005000D03*
X0022500Y0002000D03*
Y0005000D03*
X0021500Y0002000D03*
Y0005000D03*
X0019500Y0002000D03*
Y0005000D03*
X0018500Y0002000D03*
Y0005000D03*
X0017500Y0002000D03*
Y0005000D03*
X0016500Y0002000D03*
Y0005000D03*
X0015500Y0002000D03*
Y0005000D03*
X0014500Y0002000D03*
Y0005000D03*
X0013500Y0002000D03*
Y0005000D03*
X0012500Y0002000D03*
Y0005000D03*
X0010500Y0002000D03*
Y0005000D03*
X0009500Y0002000D03*
Y0005000D03*
X0008500Y0002000D03*
Y0005000D03*
X0007500Y0002000D03*
Y0005000D03*
X0006500Y0002000D03*
Y0005000D03*
X0005500Y0002000D03*
Y0005000D03*
X0004500Y0002000D03*
Y0005000D03*
X0003500Y0002000D03*
Y0005000D03*
G54D31*
X0070750Y0043500D03*
Y0001450D03*
X0001450D03*
Y0043550D03*
G54D32*
X0040750Y0022250D03*
M02*
