  0
SECTION
  2
HEADER
  9
$ACADVER
  1
AC1004
  9
$INSBASE
 10
0.0
 20
0.0
  9
$EXTMIN
 10
0.0
 20
0.0
  9
$EXTMAX
 10
32.767
 20
32.767
  9
$LIMMIN
 10
0.0
 20
0.0
  9
$LIMMAX
 10
32.767
 20
32.767
  9
$SNAPMODE
 70
     1
  9
$SNAPUNIT
 10
0.001
 20
0.001
  9
$SNAPBASE
 10
0.0
 20
0.0
  9
$SNAPANG
 50
0.0
  9
$SNAPSTYLE
 70
     0
  9
$SNAPISOPAIR
 70
     1
  9
$GRIDMODE
 70
     0
  9
$GRIDUNIT
 10
0.0
 20
0.0
  9
$ORTHOMODE
 70
     0
  9
$REGENMODE
 70
     1
  9
$FILLMODE
 70
     1
  9
$QTEXTMODE
 70
     0
  9
$DRAGMODE
 70
     2
  9
$LTSCALE
 40
25.0
  9
$OSMODE
 70
     0
  9
$ATTMODE
 70
     1
  9
$TEXTSIZE
 40
3.0
  9
$TRACEWID
 40
10.0
  9
$TEXTSTYLE
  7
STANDARD
  9
$CLAYER
  8
0
  9
$CELTYPE
  6
BYBLOCK
  9
$CECOLOR
 62
     0
  9
$DIMSCALE
 40
1.0
  9
$DIMASZ
 40
3.0
  9
$DIMEXO
 40
2.5
  9
$DIMDLI
 40
10.0
  9
$DIMRND
 40
0.0
  9
$DIMDLE
 40
1.25
  9
$DIMEXE
 40
2.5
  9
$DIMTP
 40
0.0
  9
$DIMTM
 40
0.0
  9
$DIMTXT
 40
3.0
  9
$DIMCEN
 40
-3.0
  9
$DIMTSZ
 40
0.0
  9
$DIMTOL
 70
     0
  9
$DIMLIM
 70
     0
  9
$DIMTIH
 70
     0
  9
$DIMTOH
 70
     0
  9
$DIMSE1
 70
     0
  9
$DIMSE2
 70
     0
  9
$DIMTAD
 70
     1
  9
$DIMZIN
 70
     1
  9
$DIMBLK
  1

  9
$DIMASO
 70
     1
  9
$DIMSHO
 70
     0
  9
$DIMPOST
  1

  9
$DIMAPOST
  1

  9
$DIMALT
 70
     0
  9
$DIMALTD
 70
     2
  9
$DIMALTF
 40
0.03937
  9
$DIMLFAC
 40
1.0
  9
$LUNITS
 70
     2
  9
$LUPREC
 70
     3
  9
$AXISMODE
 70
     0
  9
$AXISUNIT
 10
0.0
 20
0.0
  9
$SKETCHINC
 40
1.0
  9
$FILLETRAD
 40
0.0
  9
$AUNITS
 70
     0
  9
$AUPREC
 70
     4
  9
$MENU
  1
acad
  9
$ELEVATION
 40
0.0
  9
$THICKNESS
 40
0.0
  9
$VIEWDIR
 10
0.0
 20
0.0
 30
1.0
  9
$LIMCHECK
 70
     0
  9
$BLIPMODE
 70
     1
  9
$CHAMFERA
 40
0.0
  9
$CHAMFERB
 40
0.0
  9
$FASTZOOM
 70
     1
  9
$SKPOLY
 70
     1
  9
$TDCREATE
 40
2447273.4679753473
  9
$TDUPDATE
 40
2447273.4679753473
  9
$TDINDWG
 40
0.0000000000
  9
$TDUSRTIMER
 40
0.0000000000
  9
$USRTIMER
 70
     1
  9
$ANGBASE
 50
0.0
  9
$ANGDIR
 70
     0
  9
$PDMODE
 70
     0
  9
$PDSIZE
 40
0.0
  9
$PLINEWID
 40
0.0
  9
$COORDS
 70
     2
  9
$SPLFRAME
 70
     0
  9
$SPLINESEGS
 70
     8
  9
$ATTDIA
 70
     0
  9
$ATTREQ
 70
     1
  9
$USERI1
 70
     0
  9
$USERI2
 70
     1
  9
$USERI3
 70
     0
  9
$USERI4
 70
     0
  9
$USERI5
 70
     0
  9
$USERR1
 40
900.0
  9
$USERR2
 40
900.0
  9
$USERR3
 40
50.0
  9
$USERR4
 40
0.0
  9
$USERR5
 40
3600.0
  0
ENDSEC
  0
SECTION
  2
TABLES
  0
TABLE
  2
LTYPE
 70
     1
  0
LTYPE
  2
CONTINUOUS
 70
    64
  3
Solid line
 72
    65
 73
     0
 40
0.0
  0
ENDTAB
  0
TABLE
  2
LAYER
 70
     1
  0
LAYER
  2
0
 70
     0
 62
     7
  6
CONTINUOUS
  0
ENDTAB
  0
TABLE
  2
STYLE
 70
     1
  0
STYLE
  2
STANDARD
 70
     0
 40
0.0
 41
1.0
 50
0.0
 71
     0
 42
3.0
  3
simplex
  4

  0
ENDTAB
  0
TABLE
  2
VIEW
 70
     0
  0
ENDTAB
  0
ENDSEC
  0
SECTION
  2
BLOCKS
  0
BLOCK
  8
0
  2
DISC
  70
0
  10
0.0
  20
0.0
  0
POLYLINE
  8
0
  66
1
  70
1
  40
0.5
  41
0.5
  62
0
  0
VERTEX
  8
0
  10
0.0
  20
0.25
  42
1.0
  0
VERTEX
  8
0
  10
0.0
  20
-0.25
  42
1.0
  0
SEQEND
  8
0
  0
ENDBLK
  8
0
  0
BLOCK
  8
0
  2
SQUARE
  70
0
  10
0.0
  20
0.0
  0
SOLID
  8
0
  62
0
  10
-0.5
  20
-0.5
  11
 0.5
  21
-0.5
  13
 0.5
  23
 0.5
  12
-0.5
  22
 0.5
  0
ENDBLK
  8
0
  0
BLOCK
  8
0
  2
DIAMOND
  70
0
  10
0.0
  20
0.0
  0
INSERT
  8
0
  2
SQUARE
  10
0.0
  20
0.0
  50
45.0
  0
ENDBLK
  8
0
  0
BLOCK
  8
0
  2
TRIANGLE
  70
0
  10
0.0
  20
0.0
  0
SOLID
  8
0
  62
0
  10
 0.0
  20
-0.5
  11
 1.0
  21
 0.0
  13
 0.0
  23
 0.5
  12
 0.0
  22
 0.5
  0
ENDBLK
  8
0
  0
BLOCK
  8
0
  2
OCTAGON
  70
0
  10
0.0
  20
0.0
  0
SOLID
  8
0
  62
0
  10
-0.5
  20
-0.2
  11
-0.2
  21
-0.5
  13
 0.2
  23
-0.5
  12
 0.5
  22
-0.2
  0
SOLID
  8
0
  62
0
  10
-0.5
  20
 0.2
  11
 0.5
  21
 0.2
  13
 0.5
  23
-0.2
  12
-0.5
  22
-0.2
  0
SOLID
  8
0
  62
0
  10
-0.5
  20
 0.2
  11
-0.2
  21
 0.5
  13
 0.2
  23
 0.5
  12
 0.5
  22
 0.2
  0
ENDBLK
  8
0
   0  
ENDSEC
   0  
SECTION
   2  
ENTITIES
  0
POLYLINE
  8
0
   66 
1
   70 
0
 62
1
   40
0.0254
   41
0.0254
  0
VERTEX
  8
0
   10
3.5560
   20
8.7630
  0
VERTEX
  8
0
   10
222.5040
   20
8.7630
  0
VERTEX
  8
0
   10
222.5040
   20
140.0810
  0
VERTEX
  8
0
   10
3.5560
   20
140.0810
  0
VERTEX
  8
0
   10
3.5560
   20
8.7630
   0  
SEQEND
  0
POLYLINE
  8
0
   66 
1
   70 
0
 62
1
   40
0.0254
   41
0.0254
  0
VERTEX
  8
0
   10
99.3140
   20
89.9160
   42 
1.180
  0
VERTEX
  8
0
   10
100.8380
   20
89.9160
  0
VERTEX
  8
0
   10
100.8380
   20
109.9820
   42 
0.999
  0
VERTEX
  8
0
   10
99.3140
   20
109.9820
  0
VERTEX
  8
0
   10
99.3140
   20
89.9160
   0  
SEQEND
  0
POLYLINE
  8
0
   66 
1
   70 
0
 62
1
   40
0.0254
   41
0.0254
  0
VERTEX
  8
0
   10
99.3140
   20
67.4370
  0
VERTEX
  8
0
   10
109.6010
   20
57.1500
  0
VERTEX
  8
0
   10
160.2740
   20
57.1500
   42 
1.166
  0
VERTEX
  8
0
   10
160.2740
   20
58.6740
  0
VERTEX
  8
0
   10
110.2360
   20
58.6740
  0
VERTEX
  8
0
   10
100.8380
   20
68.0720
  0
VERTEX
  8
0
   10
100.8380
   20
86.6140
   42 
1.166
  0
VERTEX
  8
0
   10
99.3140
   20
86.6140
  0
VERTEX
  8
0
   10
99.3140
   20
67.4370
   0  
SEQEND
  0
POLYLINE
  8
0
   66 
1
   70 
0
 62
1
   40
0.0254
   41
0.0254
  0
VERTEX
  8
0
   10
103.1240
   20
80.7720
   42 
0.999
  0
VERTEX
  8
0
   10
104.6480
   20
80.7720
  0
VERTEX
  8
0
   10
104.6480
   20
95.7580
   42 
0.999
  0
VERTEX
  8
0
   10
103.1240
   20
95.7580
  0
VERTEX
  8
0
   10
103.1240
   20
80.7720
   0  
SEQEND
  0
POLYLINE
  8
0
   66 
1
   70 
0
 62
1
   40
0.0254
   41
0.0254
  0
VERTEX
  8
0
   10
189.6110
   20
39.8780
   42 
0.847
  0
VERTEX
  8
0
   10
192.6590
   20
39.8780
  0
VERTEX
  8
0
   10
192.6590
   20
66.4210
   42 
0.920
  0
VERTEX
  8
0
   10
189.6110
   20
66.4210
  0
VERTEX
  8
0
   10
189.6110
   20
39.8780
   0  
SEQEND
  0
POLYLINE
  8
0
   66 
1
   70 
0
 62
1
   40
0.0254
   41
0.0254
  0
VERTEX
  8
0
   10
162.5600
   20
57.1500
  0
VERTEX
  8
0
   10
162.5600
   20
42.7990
  0
VERTEX
  8
0
   10
178.5620
   20
26.7970
  0
VERTEX
  8
0
   10
216.7890
   20
26.7970
   42 
1.166
  0
VERTEX
  8
0
   10
216.7890
   20
28.3210
  0
VERTEX
  8
0
   10
179.3240
   20
28.3210
  0
VERTEX
  8
0
   10
164.2110
   20
43.4340
  0
VERTEX
  8
0
   10
164.2110
   20
57.1500
   42 
0.926
  0
VERTEX
  8
0
   10
162.5600
   20
57.1500
   0  
SEQEND
  0
POLYLINE
  8
0
   66 
1
   70 
0
 62
1
   40
0.0254
   41
0.0254
  0
VERTEX
  8
0
   10
11.8110
   20
92.9640
  0
VERTEX
  8
0
   10
43.9420
   20
92.9640
  0
VERTEX
  8
0
   10
48.2600
   20
97.2820
  0
VERTEX
  8
0
   10
48.2600
   20
110.7440
  0
VERTEX
  8
0
   10
53.2130
   20
115.6970
  0
VERTEX
  8
0
   10
57.0230
   20
115.6970
   42 
-0.999
  0
VERTEX
  8
0
   10
57.0230
   20
114.1730
  0
VERTEX
  8
0
   10
53.8480
   20
114.1730
  0
VERTEX
  8
0
   10
49.7840
   20
110.1090
  0
VERTEX
  8
0
   10
49.7840
   20
96.5200
  0
VERTEX
  8
0
   10
44.7040
   20
91.4400
  0
VERTEX
  8
0
   10
11.8110
   20
91.4400
   42 
-1.166
  0
VERTEX
  8
0
   10
11.8110
   20
92.9640
   0  
SEQEND
  0
POLYLINE
  8
0
   66 
1
   70 
0
 62
1
   40
0.0254
   41
0.0254
  0
VERTEX
  8
0
   10
66.4210
   20
115.6970
   42 
1.013
  0
VERTEX
  8
0
   10
66.4210
   20
114.1730
  0
VERTEX
  8
0
   10
68.0720
   20
114.1730
  0
VERTEX
  8
0
   10
73.6600
   20
108.5850
  0
VERTEX
  8
0
   10
96.7740
   20
108.5850
   42 
0.999
  0
VERTEX
  8
0
   10
96.7740
   20
110.1090
  0
VERTEX
  8
0
   10
74.4220
   20
110.1090
  0
VERTEX
  8
0
   10
68.8340
   20
115.6970
  0
VERTEX
  8
0
   10
66.4210
   20
115.6970
   0  
SEQEND
  0
POLYLINE
  8
0
   66 
1
   70 
0
 62
1
   40
0.1270
   41
0.1270
  0
VERTEX
  8
0
   10
11.9380
   20
22.7330
   42 
-1.000
  0
VERTEX
  8
0
   10
11.9380
   20
24.0030
   42 
-1.000
  0
VERTEX
  8
0
   10
11.9380
   20
22.7330
   0  
SEQEND
  0
POLYLINE
  8
0
   66 
1
   70 
0
 62
1
   40
0.1270
   41
0.1270
  0
VERTEX
  8
0
   10
11.6612
   20
22.7965
  0
VERTEX
  8
0
   10
12.2148
   20
22.7965
   0  
SEQEND
  0
POLYLINE
  8
0
   66 
1
   70 
0
 62
1
   40
0.1270
   41
0.1270
  0
VERTEX
  8
0
   10
11.4845
   20
22.9235
  0
VERTEX
  8
0
   10
12.3915
   20
22.9235
   0  
SEQEND
  0
POLYLINE
  8
0
   66 
1
   70 
0
 62
1
   40
0.1270
   41
0.1270
  0
VERTEX
  8
0
   10
11.3881
   20
23.0505
  0
VERTEX
  8
0
   10
12.4879
   20
23.0505
   0  
SEQEND
  0
POLYLINE
  8
0
   66 
1
   70 
0
 62
1
   40
0.1270
   41
0.1270
  0
VERTEX
  8
0
   10
11.3323
   20
23.1775
  0
VERTEX
  8
0
   10
12.5437
   20
23.1775
   0  
SEQEND
  0
POLYLINE
  8
0
   66 
1
   70 
0
 62
1
   40
0.1270
   41
0.1270
  0
VERTEX
  8
0
   10
11.3062
   20
23.3045
  0
VERTEX
  8
0
   10
12.5698
   20
23.3045
   0  
SEQEND
  0
POLYLINE
  8
0
   66 
1
   70 
0
 62
1
   40
0.1270
   41
0.1270
  0
VERTEX
  8
0
   10
11.3062
   20
23.4315
  0
VERTEX
  8
0
   10
12.5698
   20
23.4315
   0  
SEQEND
  0
POLYLINE
  8
0
   66 
1
   70 
0
 62
1
   40
0.1270
   41
0.1270
  0
VERTEX
  8
0
   10
11.3323
   20
23.5585
  0
VERTEX
  8
0
   10
12.5437
   20
23.5585
   0  
SEQEND
  0
POLYLINE
  8
0
   66 
1
   70 
0
 62
1
   40
0.1270
   41
0.1270
  0
VERTEX
  8
0
   10
11.3881
   20
23.6855
  0
VERTEX
  8
0
   10
12.4879
   20
23.6855
   0  
SEQEND
  0
POLYLINE
  8
0
   66 
1
   70 
0
 62
1
   40
0.1270
   41
0.1270
  0
VERTEX
  8
0
   10
11.4845
   20
23.8125
  0
VERTEX
  8
0
   10
12.3915
   20
23.8125
   0  
SEQEND
  0
POLYLINE
  8
0
   66 
1
   70 
0
 62
1
   40
0.1270
   41
0.1270
  0
VERTEX
  8
0
   10
11.6612
   20
23.9395
  0
VERTEX
  8
0
   10
12.2148
   20
23.9395
   0  
SEQEND
  0
POLYLINE
  8
0
   66 
1
   70 
0
 62
1
   40
0.0762
   41
0.0762
  0
VERTEX
  8
0
   10
9.3980
   20
25.9080
   42 
-1.000
  0
VERTEX
  8
0
   10
14.4780
   20
25.9080
   42 
-1.000
  0
VERTEX
  8
0
   10
9.3980
   20
25.9080
   0  
SEQEND
   0  
ENDSEC
   0  
SECTION
   2  
TABLES
   0  
TABLE
   2  
STYLE
   0  
STYLE
   2  
Text_50_1
   70 
0
   40 
0
   41 
1
   50 
0
   71 
0
   42
0.7620
   3  
txt
   0  
ENDTAB
   0  
ENDSEC
   0  
SECTION
   2  
ENTITIES
  0
TEXT
  8
0
   10
6.9850
   20
25.5270
   11
6.9850
   21
25.5270
   73 
1
   30 
0
   40
0.6325
   7  
Text_50/1
   1  
C22
  0
POLYLINE
  8
0
   66 
1
   70 
0
 62
1
   40
0.1270
   41
0.1270
  0
VERTEX
  8
0
   10
45.8470
   20
20.3200
  0
VERTEX
  8
0
   10
15.2400
   20
20.3200
  0
VERTEX
  8
0
   10
15.2400
   20
9.5250
  0
VERTEX
  8
0
   10
45.8470
   20
9.5250
  0
VERTEX
  8
0
   10
45.8470
   20
20.3200
   0  
SEQEND
  0
TEXT
  8
0
   10
24.2570
   20
21.3360
   11
24.2570
   21
21.3360
   73 
1
   30 
0
   40
0.6325
   7  
Text_50/1
   1  
1
 50
270.0000
  0
TEXT
  8
0
   10
25.6540
   20
14.6050
   11
25.6540
   21
14.6050
   73 
1
   30 
0
   40
0.6325
   7  
Text_50/1
   1  
6
 50
270.0000
  0
TEXT
  8
0
   10
35.1790
   20
21.4630
   11
35.1790
   21
21.4630
   73 
1
   30 
0
   40
0.6325
   7  
Text_50/1
   1  
5
 50
270.0000
  0
TEXT
  8
0
   10
33.9090
   20
14.6050
   11
33.9090
   21
14.6050
   73 
1
   30 
0
   40
0.6325
   7  
Text_50/1
   1  
9
 50
270.0000
  0
TEXT
  8
0
   10
28.7020
   20
20.9550
   11
28.7020
   21
20.9550
   73 
1
   30 
0
   40
0.6325
   7  
Text_50/1
   1  
RS232
  0
POLYLINE
  8
0
   66 
1
   70 
0
 62
1
   40
0.1270
   41
0.1270
  0
VERTEX
  8
0
   10
67.3100
   20
79.8830
  0
VERTEX
  8
0
   10
67.3100
   20
69.7230
  0
VERTEX
  8
0
   10
72.6440
   20
69.7230
  0
VERTEX
  8
0
   10
72.6440
   20
79.8830
  0
VERTEX
  8
0
   10
67.3100
   20
79.8830
   0  
SEQEND
  0
POLYLINE
  8
0
   66 
1
   70 
0
 62
1
   40
0.1270
   41
0.1270
  0
VERTEX
  8
0
   10
67.3100
   20
79.8830
  0
VERTEX
  8
0
   10
67.3100
   20
69.7230
  0
VERTEX
  8
0
   10
72.6440
   20
69.7230
  0
VERTEX
  8
0
   10
72.6440
   20
79.8830
  0
VERTEX
  8
0
   10
67.3100
   20
79.8830
   0  
SEQEND
  0
POLYLINE
  8
0
   66 
1
   70 
0
 62
1
   40
0.1270
   41
0.1270
  0
VERTEX
  8
0
   10
69.2150
   20
79.8830
  0
VERTEX
  8
0
   10
69.2150
   20
78.3590
  0
VERTEX
  8
0
   10
70.7390
   20
78.3590
  0
VERTEX
  8
0
   10
70.7390
   20
79.8830
   0  
SEQEND
  0
POLYLINE
  8
0
   66 
1
   70 
0
 62
1
   40
0.1270
   41
0.1270
  0
VERTEX
  8
0
   10
69.2150
   20
79.8830
  0
VERTEX
  8
0
   10
69.2150
   20
78.3590
  0
VERTEX
  8
0
   10
70.7390
   20
78.3590
  0
VERTEX
  8
0
   10
70.7390
   20
79.8830
   0  
SEQEND
  0
TEXT
  8
0
   10
69.0880
   20
80.7720
   11
69.0880
   21
80.7720
   73 
1
   30 
0
   40
0.6325
   7  
Text_50/1
   1  
U2
  0
POLYLINE
  8
0
   66 
1
   70 
0
 62
1
   40
0.1270
   41
0.1270
  0
VERTEX
  8
0
   10
59.1820
   20
18.7960
  0
VERTEX
  8
0
   10
59.1820
   20
59.9440
  0
VERTEX
  8
0
   10
55.1180
   20
59.9440
  0
VERTEX
  8
0
   10
55.1180
   20
18.7960
  0
VERTEX
  8
0
   10
59.1820
   20
18.7960
   0  
SEQEND
  0
POLYLINE
  8
0
   66 
1
   70 
0
 62
1
   40
0.1270
   41
0.1270
  0
VERTEX
  8
0
   10
58.5470
   20
18.7960
  0
VERTEX
  8
0
   10
59.1820
   20
18.7960
  0
VERTEX
  8
0
   10
59.1820
   20
19.4310
  0
VERTEX
  8
0
   10
58.5470
   20
18.7960
   0  
SEQEND
  0
TEXT
  8
0
   10
56.2610
   20
60.4520
   11
56.2610
   21
60.4520
   73 
1
   30 
0
   40
0.6325
   7  
Text_50/1
   1  
J10
  0
TEXT
  8
0
   10
218.8210
   20
12.4460
   11
218.8210
   21
12.4460
   73 
1
   30 
0
   40
0.6325
   7  
Text_50/1
   1  
H3
  0
POLYLINE
  8
0
   66 
1
   70 
0
 62
1
   40
0.1270
   41
0.1270
  0
VERTEX
  8
0
   10
110.4900
   20
84.0740
  0
VERTEX
  8
0
   10
110.4900
   20
78.9940
  0
VERTEX
  8
0
   10
113.0300
   20
78.9940
  0
VERTEX
  8
0
   10
113.0300
   20
84.0740
  0
VERTEX
  8
0
   10
110.4900
   20
84.0740
   0  
SEQEND
  0
POLYLINE
  8
0
   66 
1
   70 
0
 62
1
   40
0.1270
   41
0.1270
  0
VERTEX
  8
0
   10
111.1250
   20
84.0740
  0
VERTEX
  8
0
   10
110.4900
   20
84.0740
  0
VERTEX
  8
0
   10
110.4900
   20
83.4390
  0
VERTEX
  8
0
   10
111.1250
   20
84.0740
   0  
SEQEND
  0
TEXT
  8
0
   10
111.3790
   20
78.4860
   11
111.3790
   21
78.4860
   73 
1
   30 
0
   40
0.6325
   7  
Text_50/1
   1  
J8
 50
270.0000
  0
POLYLINE
  8
0
   66 
1
   70 
0
 62
1
   40
0.1270
   41
0.1270
  0
VERTEX
  8
0
   10
113.0300
   20
102.1080
  0
VERTEX
  8
0
   10
113.0300
   20
107.1880
  0
VERTEX
  8
0
   10
110.4900
   20
107.1880
  0
VERTEX
  8
0
   10
110.4900
   20
102.1080
  0
VERTEX
  8
0
   10
113.0300
   20
102.1080
   0  
SEQEND
  0
POLYLINE
  8
0
   66 
1
   70 
0
 62
1
   40
0.1270
   41
0.1270
  0
VERTEX
  8
0
   10
112.3950
   20
102.1080
  0
VERTEX
  8
0
   10
113.0300
   20
102.1080
  0
VERTEX
  8
0
   10
113.0300
   20
102.7430
  0
VERTEX
  8
0
   10
112.3950
   20
102.1080
   0  
SEQEND
  0
TEXT
  8
0
   10
111.2520
   20
107.6960
   11
111.2520
   21
107.6960
   73 
1
   30 
0
   40
0.6325
   7  
Text_50/1
   1  
J7
  0
POLYLINE
  8
0
   66 
1
   70 
0
 62
1
   40
0.1270
   41
0.1270
  0
VERTEX
  8
0
   10
65.1510
   20
108.0770
  0
VERTEX
  8
0
   10
65.1510
   20
113.1570
  0
VERTEX
  8
0
   10
62.6110
   20
113.1570
  0
VERTEX
  8
0
   10
62.6110
   20
108.0770
  0
VERTEX
  8
0
   10
65.1510
   20
108.0770
   0  
SEQEND
  0
POLYLINE
  8
0
   66 
1
   70 
0
 62
1
   40
0.1270
   41
0.1270
  0
VERTEX
  8
0
   10
64.5160
   20
108.0770
  0
VERTEX
  8
0
   10
65.1510
   20
108.0770
  0
VERTEX
  8
0
   10
65.1510
   20
108.7120
  0
VERTEX
  8
0
   10
64.5160
   20
108.0770
   0  
SEQEND
  0
TEXT
  8
0
   10
62.9920
   20
106.8070
   11
62.9920
   21
106.8070
   73 
1
   30 
0
   40
0.6325
   7  
Text_50/1
   1  
J16
  0
POLYLINE
  8
0
   66 
1
   70 
0
 62
1
   40
0.1270
   41
0.1270
  0
VERTEX
  8
0
   10
37.0840
   20
122.3518
  0
VERTEX
  8
0
   10
35.3060
   20
122.3518
  0
VERTEX
  8
0
   10
37.0840
   20
124.6378
  0
VERTEX
  8
0
   10
35.3060
   20
124.6378
   0  
SEQEND
  0
POLYLINE
  8
0
   66 
1
   70 
0
 62
1
   40
0.1270
   41
0.1270
  0
VERTEX
  8
0
   10
36.1950
   20
122.2248
  0
VERTEX
  8
0
   10
36.1950
   20
119.6848
   0  
SEQEND
  0
POLYLINE
  8
0
   66 
1
   70 
0
 62
1
   40
0.1270
   41
0.1270
  0
VERTEX
  8
0
   10
36.1950
   20
124.6378
  0
VERTEX
  8
0
   10
36.1950
   20
127.8128
   0  
SEQEND
  0
POLYLINE
  8
0
   66 
1
   70 
0
 62
1
   40
0.1270
   41
0.1270
  0
VERTEX
  8
0
   10
37.2110
   20
118.6688
   42 
0.414
  0
VERTEX
  8
0
   10
37.8460
   20
119.3038
  0
VERTEX
  8
0
   10
37.8460
   20
128.1938
   42 
0.414
  0
VERTEX
  8
0
   10
37.2110
   20
128.8288
  0
VERTEX
  8
0
   10
35.1790
   20
128.8288
   42 
0.414
  0
VERTEX
  8
0
   10
34.5440
   20
128.1938
  0
VERTEX
  8
0
   10
34.5440
   20
119.3038
   42 
0.414
  0
VERTEX
  8
0
   10
35.1790
   20
118.6688
  0
VERTEX
  8
0
   10
37.2110
   20
118.6688
   0  
SEQEND
  0
TEXT
  8
0
   10
35.5244
   20
117.1042
   11
35.5244
   21
117.1042
   73 
1
   30 
0
   40
0.6325
   7  
Text_50/1
   1  
Z1
  0
POLYLINE
  8
0
   66 
1
   70 
0
 62
1
   40
0.1270
   41
0.1270
  0
VERTEX
  8
0
   10
81.0260
   20
123.8250
  0
VERTEX
  8
0
   10
81.0260
   20
116.5860
  0
VERTEX
  8
0
   10
83.3120
   20
116.5860
  0
VERTEX
  8
0
   10
83.3120
   20
123.8250
  0
VERTEX
  8
0
   10
81.0260
   20
123.8250
   0  
SEQEND
  0
TEXT
  8
0
   10
81.2800
   20
115.1890
   11
81.2800
   21
115.1890
   73 
1
   30 
0
   40
0.6325
   7  
Text_50/1
   1  
C4
  0
POLYLINE
  8
0
   66 
1
   70 
0
 62
1
   40
0.1270
   41
0.1270
  0
VERTEX
  8
0
   10
77.2160
   20
100.2030
   42 
0.414
  0
VERTEX
  8
0
   10
76.3270
   20
99.3140
  0
VERTEX
  8
0
   10
76.3270
   20
93.4720
   42 
0.414
  0
VERTEX
  8
0
   10
77.2160
   20
92.5830
  0
VERTEX
  8
0
   10
77.9780
   20
92.5830
   42 
0.414
  0
VERTEX
  8
0
   10
78.8670
   20
93.4720
  0
VERTEX
  8
0
   10
78.8670
   20
99.3140
   42 
0.414
  0
VERTEX
  8
0
   10
77.9780
   20
100.2030
  0
VERTEX
  8
0
   10
77.2160
   20
100.2030
   0  
SEQEND
  0
POLYLINE
  8
0
   66 
1
   70 
0
 62
1
   40
0.1270
   41
0.1270
  0
VERTEX
  8
0
   10
77.2160
   20
100.2030
   42 
0.414
  0
VERTEX
  8
0
   10
76.3270
   20
99.3140
  0
VERTEX
  8
0
   10
76.3270
   20
93.4720
   42 
0.414
  0
VERTEX
  8
0
   10
77.2160
   20
92.5830
  0
VERTEX
  8
0
   10
77.9780
   20
92.5830
   42 
0.414
  0
VERTEX
  8
0
   10
78.8670
   20
93.4720
  0
VERTEX
  8
0
   10
78.8670
   20
99.3140
   42 
0.414
  0
VERTEX
  8
0
   10
77.9780
   20
100.2030
  0
VERTEX
  8
0
   10
77.2160
   20
100.2030
   0  
SEQEND
  0
TEXT
  8
0
   10
76.5810
   20
91.1860
   11
76.5810
   21
91.1860
   73 
1
   30 
0
   40
0.6325
   7  
Text_50/1
   1  
C11
  0
POLYLINE
  8
0
   66 
1
   70 
0
 62
1
   40
0.1270
   41
0.1270
  0
VERTEX
  8
0
   10
77.2160
   20
77.3430
   42 
0.414
  0
VERTEX
  8
0
   10
76.3270
   20
76.4540
  0
VERTEX
  8
0
   10
76.3270
   20
70.6120
   42 
0.414
  0
VERTEX
  8
0
   10
77.2160
   20
69.7230
  0
VERTEX
  8
0
   10
77.9780
   20
69.7230
   42 
0.414
  0
VERTEX
  8
0
   10
78.8670
   20
70.6120
  0
VERTEX
  8
0
   10
78.8670
   20
76.4540
   42 
0.414
  0
VERTEX
  8
0
   10
77.9780
   20
77.3430
  0
VERTEX
  8
0
   10
77.2160
   20
77.3430
   0  
SEQEND
  0
POLYLINE
  8
0
   66 
1
   70 
0
 62
1
   40
0.1270
   41
0.1270
  0
VERTEX
  8
0
   10
77.2160
   20
77.3430
   42 
0.414
  0
VERTEX
  8
0
   10
76.3270
   20
76.4540
  0
VERTEX
  8
0
   10
76.3270
   20
70.6120
   42 
0.414
  0
VERTEX
  8
0
   10
77.2160
   20
69.7230
  0
VERTEX
  8
0
   10
77.9780
   20
69.7230
   42 
0.414
  0
VERTEX
  8
0
   10
78.8670
   20
70.6120
  0
VERTEX
  8
0
   10
78.8670
   20
76.4540
   42 
0.414
  0
VERTEX
  8
0
   10
77.9780
   20
77.3430
  0
VERTEX
  8
0
   10
77.2160
   20
77.3430
   0  
SEQEND
  0
TEXT
  8
0
   10
76.5810
   20
68.3260
   11
76.5810
   21
68.3260
   73 
1
   30 
0
   40
0.6325
   7  
Text_50/1
   1  
C12
  0
POLYLINE
  8
0
   66 
1
   70 
0
 62
1
   40
0.1270
   41
0.1270
  0
VERTEX
  8
0
   10
54.8640
   20
70.8660
  0
VERTEX
  8
0
   10
62.4840
   20
70.8660
  0
VERTEX
  8
0
   10
62.4840
   20
73.4060
  0
VERTEX
  8
0
   10
54.8640
   20
73.4060
  0
VERTEX
  8
0
   10
54.8640
   20
70.8660
   0  
SEQEND
  0
POLYLINE
  8
0
   66 
1
   70 
0
 62
1
   40
0.1270
   41
0.1270
  0
VERTEX
  8
0
   10
54.8640
   20
70.8660
  0
VERTEX
  8
0
   10
62.4840
   20
70.8660
  0
VERTEX
  8
0
   10
62.4840
   20
73.4060
  0
VERTEX
  8
0
   10
54.8640
   20
73.4060
  0
VERTEX
  8
0
   10
54.8640
   20
70.8660
   0  
SEQEND
  0
TEXT
  8
0
   10
58.0390
   20
69.5960
   11
58.0390
   21
69.5960
   73 
1
   30 
0
   40
0.6325
   7  
Text_50/1
   1  
R2
  0
POLYLINE
  8
0
   66 
1
   70 
0
 62
1
   40
0.1270
   41
0.1270
  0
VERTEX
  8
0
   10
56.1340
   20
74.8030
  0
VERTEX
  8
0
   10
61.2140
   20
74.8030
  0
VERTEX
  8
0
   10
61.2140
   20
77.3430
  0
VERTEX
  8
0
   10
56.1340
   20
77.3430
  0
VERTEX
  8
0
   10
56.1340
   20
74.8030
   0  
SEQEND
  0
POLYLINE
  8
0
   66 
1
   70 
0
 62
1
   40
0.1270
   41
0.1270
  0
VERTEX
  8
0
   10
56.1340
   20
75.4380
  0
VERTEX
  8
0
   10
56.1340
   20
74.8030
  0
VERTEX
  8
0
   10
56.7690
   20
74.8030
  0
VERTEX
  8
0
   10
56.1340
   20
75.4380
   0  
SEQEND
  0
TEXT
  8
0
   10
54.4830
   20
75.6920
   11
54.4830
   21
75.6920
   73 
1
   30 
0
   40
0.6325
   7  
Text_50/1
   1  
J4
  0
POLYLINE
  8
0
   66 
1
   70 
0
 62
1
   40
0.0762
   41
0.0762
  0
VERTEX
  8
0
   10
17.9070
   20
115.1890
  0
VERTEX
  8
0
   10
17.9070
   20
138.0490
  0
VERTEX
  8
0
   10
27.5590
   20
138.0490
  0
VERTEX
  8
0
   10
27.5590
   20
115.1890
  0
VERTEX
  8
0
   10
17.9070
   20
115.1890
   0  
SEQEND
  0
POLYLINE
  8
0
   66 
1
   70 
0
 62
1
   40
0.1270
   41
0.1270
  0
VERTEX
  8
0
   10
23.3680
   20
122.0470
   42 
-1.000
  0
VERTEX
  8
0
   10
22.0980
   20
122.0470
   42 
-1.000
  0
VERTEX
  8
0
   10
23.3680
   20
122.0470
   0  
SEQEND
  0
POLYLINE
  8
0
   66 
1
   70 
0
 62
1
   40
0.1270
   41
0.1270
  0
VERTEX
  8
0
   10
23.3680
   20
131.1910
   42 
-1.000
  0
VERTEX
  8
0
   10
22.0980
   20
131.1910
   42 
-1.000
  0
VERTEX
  8
0
   10
23.3680
   20
131.1910
   0  
SEQEND
  0
POLYLINE
  8
0
   66 
1
   70 
0
 62
1
   40
0.1270
   41
0.1270
  0
VERTEX
  8
0
   10
22.7330
   20
122.6820
   42 
0.666
  0
VERTEX
  8
0
   10
22.7330
   20
126.4920
   0  
SEQEND
  0
POLYLINE
  8
0
   66 
1
   70 
0
 62
1
   40
0.1270
   41
0.1270
  0
VERTEX
  8
0
   10
22.7330
   20
130.5560
   42 
0.626
  0
VERTEX
  8
0
   10
22.7330
   20
126.4920
   0  
SEQEND
  0
POLYLINE
  8
0
   66 
1
   70 
0
 62
1
   40
0.1270
   41
0.1270
  0
VERTEX
  8
0
   10
22.7330
   20
121.4120
  0
VERTEX
  8
0
   10
22.7330
   20
117.2210
   0  
SEQEND
  0
POLYLINE
  8
0
   66 
1
   70 
0
 62
1
   40
0.1270
   41
0.1270
  0
VERTEX
  8
0
   10
22.7330
   20
131.8260
  0
VERTEX
  8
0
   10
22.7330
   20
136.0170
   0  
SEQEND
  0
TEXT
  8
0
   10
28.3210
   20
136.2710
   11
28.3210
   21
136.2710
   73 
1
   30 
0
   40
0.6325
   7  
Text_50/1
   1  
F1
  0
POLYLINE
  8
0
   66 
1
   70 
0
 62
1
   40
0.1270
   41
0.1270
  0
VERTEX
  8
0
   10
70.4850
   20
138.7348
  0
VERTEX
  8
0
   10
70.4850
   20
111.6838
  0
VERTEX
  8
0
   10
79.1210
   20
111.6838
  0
VERTEX
  8
0
   10
79.1210
   20
138.7348
  0
VERTEX
  8
0
   10
70.4850
   20
138.7348
   0  
SEQEND
  0
TEXT
  8
0
   10
75.3110
   20
110.4900
   11
75.3110
   21
110.4900
   73 
1
   30 
0
   40
0.6325
   7  
Text_50/1
   1  
C2
  0
POLYLINE
  8
0
   66 
1
   70 
0
 62
1
   40
0.1270
   41
0.1270
  0
VERTEX
  8
0
   10
84.8360
   20
101.8540
   42 
-1.000
  0
VERTEX
  8
0
   10
84.8360
   20
103.1240
   42 
-1.000
  0
VERTEX
  8
0
   10
84.8360
   20
101.8540
   0  
SEQEND
  0
POLYLINE
  8
0
   66 
1
   70 
0
 62
1
   40
0.1270
   41
0.1270
  0
VERTEX
  8
0
   10
84.5592
   20
101.9175
  0
VERTEX
  8
0
   10
85.1128
   20
101.9175
   0  
SEQEND
  0
POLYLINE
  8
0
   66 
1
   70 
0
 62
1
   40
0.1270
   41
0.1270
  0
VERTEX
  8
0
   10
84.3825
   20
102.0445
  0
VERTEX
  8
0
   10
85.2895
   20
102.0445
   0  
SEQEND
  0
POLYLINE
  8
0
   66 
1
   70 
0
 62
1
   40
0.1270
   41
0.1270
  0
VERTEX
  8
0
   10
84.2861
   20
102.1715
  0
VERTEX
  8
0
   10
85.3859
   20
102.1715
   0  
SEQEND
  0
POLYLINE
  8
0
   66 
1
   70 
0
 62
1
   40
0.1270
   41
0.1270
  0
VERTEX
  8
0
   10
84.2302
   20
102.2985
  0
VERTEX
  8
0
   10
85.4417
   20
102.2985
   0  
SEQEND
  0
POLYLINE
  8
0
   66 
1
   70 
0
 62
1
   40
0.1270
   41
0.1270
  0
VERTEX
  8
0
   10
84.2042
   20
102.4255
  0
VERTEX
  8
0
   10
85.4678
   20
102.4255
   0  
SEQEND
  0
POLYLINE
  8
0
   66 
1
   70 
0
 62
1
   40
0.1270
   41
0.1270
  0
VERTEX
  8
0
   10
84.2042
   20
102.5525
  0
VERTEX
  8
0
   10
85.4678
   20
102.5525
   0  
SEQEND
  0
POLYLINE
  8
0
   66 
1
   70 
0
 62
1
   40
0.1270
   41
0.1270
  0
VERTEX
  8
0
   10
84.2302
   20
102.6795
  0
VERTEX
  8
0
   10
85.4417
   20
102.6795
   0  
SEQEND
  0
POLYLINE
  8
0
   66 
1
   70 
0
 62
1
   40
0.1270
   41
0.1270
  0
VERTEX
  8
0
   10
84.2861
   20
102.8065
  0
VERTEX
  8
0
   10
85.3859
   20
102.8065
   0  
SEQEND
  0
POLYLINE
  8
0
   66 
1
   70 
0
 62
1
   40
0.1270
   41
0.1270
  0
VERTEX
  8
0
   10
84.3825
   20
102.9335
  0
VERTEX
  8
0
   10
85.2895
   20
102.9335
   0  
SEQEND
  0
POLYLINE
  8
0
   66 
1
   70 
0
 62
1
   40
0.1270
   41
0.1270
  0
VERTEX
  8
0
   10
84.5592
   20
103.0605
  0
VERTEX
  8
0
   10
85.1128
   20
103.0605
   0  
SEQEND
  0
POLYLINE
  8
0
   66 
1
   70 
0
 62
1
   40
0.0762
   41
0.0762
  0
VERTEX
  8
0
   10
82.2960
   20
105.0290
   42 
-1.000
  0
VERTEX
  8
0
   10
87.3760
   20
105.0290
   42 
-1.000
  0
VERTEX
  8
0
   10
82.2960
   20
105.0290
   0  
SEQEND
  0
TEXT
  8
0
   10
80.8990
   20
106.9340
   11
80.8990
   21
106.9340
   73 
1
   30 
0
   40
0.6325
   7  
Text_50/1
   1  
C15
  0
POLYLINE
  8
0
   66 
1
   70 
0
 62
1
   40
0.0762
   41
0.0762
  0
VERTEX
  8
0
   10
89.9160
   20
78.3590
  0
VERTEX
  8
0
   10
89.1540
   20
77.9780
  0
VERTEX
  8
0
   10
89.1540
   20
72.3900
  0
VERTEX
  8
0
   10
89.9160
   20
72.0090
   0  
SEQEND
  0
POLYLINE
  8
0
   66 
1
   70 
0
 62
1
   40
0.0762
   41
0.0762
  0
VERTEX
  8
0
   10
91.1860
   20
78.3590
   42 
-0.759
  0
VERTEX
  8
0
   10
91.1860
   20
72.0090
   0  
SEQEND
  0
TEXT
  8
0
   10
90.2970
   20
70.6120
   11
90.2970
   21
70.6120
   73 
1
   30 
0
   40
0.6325
   7  
Text_50/1
   1  
Q4
  0
POLYLINE
  8
0
   66 
1
   70 
0
 62
1
   40
0.1270
   41
0.1270
  0
VERTEX
  8
0
   10
79.6290
   20
100.9650
  0
VERTEX
  8
0
   10
79.6290
   20
93.3450
  0
VERTEX
  8
0
   10
82.1690
   20
93.3450
  0
VERTEX
  8
0
   10
82.1690
   20
100.9650
  0
VERTEX
  8
0
   10
79.6290
   20
100.9650
   0  
SEQEND
  0
POLYLINE
  8
0
   66 
1
   70 
0
 62
1
   40
0.1270
   41
0.1270
  0
VERTEX
  8
0
   10
79.6290
   20
100.9650
  0
VERTEX
  8
0
   10
79.6290
   20
93.3450
  0
VERTEX
  8
0
   10
82.1690
   20
93.3450
  0
VERTEX
  8
0
   10
82.1690
   20
100.9650
  0
VERTEX
  8
0
   10
79.6290
   20
100.9650
   0  
SEQEND
  0
TEXT
  8
0
   10
80.2640
   20
89.9160
   11
80.2640
   21
89.9160
   73 
1
   30 
0
   40
0.6325
   7  
Text_50/1
   1  
R3
  0
POLYLINE
  8
0
   66 
1
   70 
0
 62
1
   40
0.1270
   41
0.1270
  0
VERTEX
  8
0
   10
81.0260
   20
132.2070
  0
VERTEX
  8
0
   10
81.0260
   20
124.9680
  0
VERTEX
  8
0
   10
83.3120
   20
124.9680
  0
VERTEX
  8
0
   10
83.3120
   20
132.2070
  0
VERTEX
  8
0
   10
81.0260
   20
132.2070
   0  
SEQEND
  0
TEXT
  8
0
   10
81.5340
   20
132.5880
   11
81.5340
   21
132.5880
   73 
1
   30 
0
   40
0.6325
   7  
Text_50/1
   1  
C3
  0
POLYLINE
  8
0
   66 
1
   70 
0
 62
1
   40
0.1270
   41
0.1270
  0
VERTEX
  8
0
   10
99.1870
   20
89.2810
  0
VERTEX
  8
0
   10
99.1870
   20
110.1090
  0
VERTEX
  8
0
   10
104.7750
   20
110.1090
  0
VERTEX
  8
0
   10
104.7750
   20
89.2810
  0
VERTEX
  8
0
   10
99.1870
   20
89.2810
   0  
SEQEND
  0
POLYLINE
  8
0
   66 
1
   70 
0
 62
1
   40
0.1270
   41
0.1270
  0
VERTEX
  8
0
   10
96.2660
   20
92.2020
   42 
-0.414
  0
VERTEX
  8
0
   10
94.9960
   20
93.4720
  0
VERTEX
  8
0
   10
94.9960
   20
105.9180
   42 
-0.414
  0
VERTEX
  8
0
   10
96.2660
   20
107.1880
  0
VERTEX
  8
0
   10
99.1870
   20
107.1880
  0
VERTEX
  8
0
   10
99.1870
   20
92.2020
  0
VERTEX
  8
0
   10
96.2660
   20
92.2020
   0  
SEQEND
  0
POLYLINE
  8
0
   66 
1
   70 
0
 62
1
   40
0.1270
   41
0.1270
  0
VERTEX
  8
0
   10
104.7750
   20
92.2020
  0
VERTEX
  8
0
   10
104.7750
   20
107.1880
  0
VERTEX
  8
0
   10
107.6960
   20
107.1880
   42 
-0.414
  0
VERTEX
  8
0
   10
108.9660
   20
105.9180
  0
VERTEX
  8
0
   10
108.9660
   20
93.4720
   42 
-0.414
  0
VERTEX
  8
0
   10
107.6960
   20
92.2020
  0
VERTEX
  8
0
   10
104.7750
   20
92.2020
   0  
SEQEND
  0
TEXT
  8
0
   10
101.0920
   20
110.7440
   11
101.0920
   21
110.7440
   73 
1
   30 
0
   40
0.6325
   7  
Text_50/1
   1  
TX1
  0
POLYLINE
  8
0
   66 
1
   70 
0
 62
1
   40
0.1270
   41
0.1270
  0
VERTEX
  8
0
   10
40.0050
   20
138.7348
  0
VERTEX
  8
0
   10
40.0050
   20
111.6838
  0
VERTEX
  8
0
   10
48.6410
   20
111.6838
  0
VERTEX
  8
0
   10
48.6410
   20
138.7348
  0
VERTEX
  8
0
   10
40.0050
   20
138.7348
   0  
SEQEND
  0
TEXT
  8
0
   10
43.6880
   20
110.1090
   11
43.6880
   21
110.1090
   73 
1
   30 
0
   40
0.6325
   7  
Text_50/1
   1  
C1
  0
POLYLINE
  8
0
   66 
1
   70 
0
 62
1
   40
0.1270
   41
0.1270
  0
VERTEX
  8
0
   10
180.4670
   20
131.8260
  0
VERTEX
  8
0
   10
180.4670
   20
115.3160
  0
VERTEX
  8
0
   10
186.0550
   20
115.3160
  0
VERTEX
  8
0
   10
186.0550
   20
131.8260
  0
VERTEX
  8
0
   10
180.4670
   20
131.8260
   0  
SEQEND
  0
POLYLINE
  8
0
   66 
1
   70 
0
 62
1
   40
0.1270
   41
0.1270
  0
VERTEX
  8
0
   10
180.4670
   20
131.8260
  0
VERTEX
  8
0
   10
180.4670
   20
115.3160
  0
VERTEX
  8
0
   10
186.0550
   20
115.3160
  0
VERTEX
  8
0
   10
186.0550
   20
131.8260
  0
VERTEX
  8
0
   10
180.4670
   20
131.8260
   0  
SEQEND
  0
TEXT
  8
0
   10
182.6260
   20
135.2550
   11
182.6260
   21
135.2550
   73 
1
   30 
0
   40
0.6325
   7  
Text_50/1
   1  
R9
  0
POLYLINE
  8
0
   66 
1
   70 
0
 62
1
   40
0.1270
   41
0.1270
  0
VERTEX
  8
0
   10
171.9580
   20
136.5250
   42 
0.414
  0
VERTEX
  8
0
   10
169.4180
   20
133.9850
  0
VERTEX
  8
0
   10
169.4180
   20
113.0300
   42 
0.414
  0
VERTEX
  8
0
   10
171.9580
   20
110.4900
  0
VERTEX
  8
0
   10
175.7680
   20
110.4900
   42 
0.414
  0
VERTEX
  8
0
   10
178.3080
   20
113.0300
  0
VERTEX
  8
0
   10
178.3080
   20
133.9850
   42 
0.414
  0
VERTEX
  8
0
   10
175.7680
   20
136.5250
  0
VERTEX
  8
0
   10
171.9580
   20
136.5250
   0  
SEQEND
  0
TEXT
  8
0
   10
172.8470
   20
138.1760
   11
172.8470
   21
138.1760
   73 
1
   30 
0
   40
0.6325
   7  
Text_50/1
   1  
C17
  0
TEXT
  8
0
   10
218.8210
   20
136.3980
   11
218.8210
   21
136.3980
   73 
1
   30 
0
   40
0.6325
   7  
Text_50/1
   1  
H4
  0
TEXT
  8
0
   10
135.5090
   20
136.3980
   11
135.5090
   21
136.3980
   73 
1
   30 
0
   40
0.6325
   7  
Text_50/1
   1  
H6
  0
POLYLINE
  8
0
   66 
1
   70 
0
 62
1
   40
0.1270
   41
0.1270
  0
VERTEX
  8
0
   10
118.4910
   20
110.9980
   42 
-1.000
  0
VERTEX
  8
0
   10
118.4910
   20
136.1440
   42 
-1.000
  0
VERTEX
  8
0
   10
118.4910
   20
110.9980
   0  
SEQEND
  0
POLYLINE
  8
0
   66 
1
   70 
0
 62
1
   40
0.1270
   41
0.1270
  0
VERTEX
  8
0
   10
118.4910
   20
108.3310
   42 
-1.000
  0
VERTEX
  8
0
   10
118.4910
   20
138.8110
   42 
-1.000
  0
VERTEX
  8
0
   10
118.4910
   20
108.3310
   0  
SEQEND
  0
POLYLINE
  8
0
   66 
1
   70 
0
 62
1
   40
0.1270
   41
0.1270
  0
VERTEX
  8
0
   10
118.4910
   20
105.1560
   42 
-1.000
  0
VERTEX
  8
0
   10
118.4910
   20
112.7760
   42 
-1.000
  0
VERTEX
  8
0
   10
118.4910
   20
105.1560
   0  
SEQEND
  0
POLYLINE
  8
0
   66 
1
   70 
0
 62
1
   40
0.1270
   41
0.1270
  0
VERTEX
  8
0
   10
117.7983
   20
105.2195
  0
VERTEX
  8
0
   10
119.1837
   20
105.2195
   0  
SEQEND
  0
POLYLINE
  8
0
   66 
1
   70 
0
 62
1
   40
0.1270
   41
0.1270
  0
VERTEX
  8
0
   10
117.3013
   20
105.3465
  0
VERTEX
  8
0
   10
119.6807
   20
105.3465
   0  
SEQEND
  0
POLYLINE
  8
0
   66 
1
   70 
0
 62
1
   40
0.1270
   41
0.1270
  0
VERTEX
  8
0
   10
116.9683
   20
105.4735
  0
VERTEX
  8
0
   10
120.0137
   20
105.4735
   0  
SEQEND
  0
POLYLINE
  8
0
   66 
1
   70 
0
 62
1
   40
0.1270
   41
0.1270
  0
VERTEX
  8
0
   10
116.7051
   20
105.6005
  0
VERTEX
  8
0
   10
120.2769
   20
105.6005
   0  
SEQEND
  0
POLYLINE
  8
0
   66 
1
   70 
0
 62
1
   40
0.1270
   41
0.1270
  0
VERTEX
  8
0
   10
116.4840
   20
105.7275
  0
VERTEX
  8
0
   10
120.4980
   20
105.7275
   0  
SEQEND
  0
POLYLINE
  8
0
   66 
1
   70 
0
 62
1
   40
0.1270
   41
0.1270
  0
VERTEX
  8
0
   10
116.2922
   20
105.8545
  0
VERTEX
  8
0
   10
120.6898
   20
105.8545
   0  
SEQEND
  0
POLYLINE
  8
0
   66 
1
   70 
0
 62
1
   40
0.1270
   41
0.1270
  0
VERTEX
  8
0
   10
116.1227
   20
105.9815
  0
VERTEX
  8
0
   10
120.8593
   20
105.9815
   0  
SEQEND
  0
POLYLINE
  8
0
   66 
1
   70 
0
 62
1
   40
0.1270
   41
0.1270
  0
VERTEX
  8
0
   10
115.9709
   20
106.1085
  0
VERTEX
  8
0
   10
121.0111
   20
106.1085
   0  
SEQEND
  0
POLYLINE
  8
0
   66 
1
   70 
0
 62
1
   40
0.1270
   41
0.1270
  0
VERTEX
  8
0
   10
115.8338
   20
106.2355
  0
VERTEX
  8
0
   10
121.1482
   20
106.2355
   0  
SEQEND
  0
POLYLINE
  8
0
   66 
1
   70 
0
 62
1
   40
0.1270
   41
0.1270
  0
VERTEX
  8
0
   10
115.7093
   20
106.3625
  0
VERTEX
  8
0
   10
121.2727
   20
106.3625
   0  
SEQEND
  0
POLYLINE
  8
0
   66 
1
   70 
0
 62
1
   40
0.1270
   41
0.1270
  0
VERTEX
  8
0
   10
115.5957
   20
106.4895
  0
VERTEX
  8
0
   10
121.3863
   20
106.4895
   0  
SEQEND
  0
POLYLINE
  8
0
   66 
1
   70 
0
 62
1
   40
0.1270
   41
0.1270
  0
VERTEX
  8
0
   10
115.4917
   20
106.6165
  0
VERTEX
  8
0
   10
121.4903
   20
106.6165
   0  
SEQEND
  0
POLYLINE
  8
0
   66 
1
   70 
0
 62
1
   40
0.1270
   41
0.1270
  0
VERTEX
  8
0
   10
115.3964
   20
106.7435
  0
VERTEX
  8
0
   10
121.5856
   20
106.7435
   0  
SEQEND
  0
POLYLINE
  8
0
   66 
1
   70 
0
 62
1
   40
0.1270
   41
0.1270
  0
VERTEX
  8
0
   10
115.3090
   20
106.8705
  0
VERTEX
  8
0
   10
121.6730
   20
106.8705
   0  
SEQEND
  0
POLYLINE
  8
0
   66 
1
   70 
0
 62
1
   40
0.1270
   41
0.1270
  0
VERTEX
  8
0
   10
115.2289
   20
106.9975
  0
VERTEX
  8
0
   10
121.7531
   20
106.9975
   0  
SEQEND
  0
POLYLINE
  8
0
   66 
1
   70 
0
 62
1
   40
0.1270
   41
0.1270
  0
VERTEX
  8
0
   10
115.1556
   20
107.1245
  0
VERTEX
  8
0
   10
121.8264
   20
107.1245
   0  
SEQEND
  0
POLYLINE
  8
0
   66 
1
   70 
0
 62
1
   40
0.1270
   41
0.1270
  0
VERTEX
  8
0
   10
115.0886
   20
107.2515
  0
VERTEX
  8
0
   10
121.8934
   20
107.2515
   0  
SEQEND
  0
POLYLINE
  8
0
   66 
1
   70 
0
 62
1
   40
0.1270
   41
0.1270
  0
VERTEX
  8
0
   10
115.0275
   20
107.3785
  0
VERTEX
  8
0
   10
121.9545
   20
107.3785
   0  
SEQEND
  0
POLYLINE
  8
0
   66 
1
   70 
0
 62
1
   40
0.1270
   41
0.1270
  0
VERTEX
  8
0
   10
114.9720
   20
107.5055
  0
VERTEX
  8
0
   10
122.0100
   20
107.5055
   0  
SEQEND
  0
POLYLINE
  8
0
   66 
1
   70 
0
 62
1
   40
0.1270
   41
0.1270
  0
VERTEX
  8
0
   10
114.9220
   20
107.6325
  0
VERTEX
  8
0
   10
122.0600
   20
107.6325
   0  
SEQEND
  0
POLYLINE
  8
0
   66 
1
   70 
0
 62
1
   40
0.1270
   41
0.1270
  0
VERTEX
  8
0
   10
114.8771
   20
107.7595
  0
VERTEX
  8
0
   10
122.1049
   20
107.7595
   0  
SEQEND
  0
POLYLINE
  8
0
   66 
1
   70 
0
 62
1
   40
0.1270
   41
0.1270
  0
VERTEX
  8
0
   10
114.8371
   20
107.8865
  0
VERTEX
  8
0
   10
122.1449
   20
107.8865
   0  
SEQEND
  0
POLYLINE
  8
0
   66 
1
   70 
0
 62
1
   40
0.1270
   41
0.1270
  0
VERTEX
  8
0
   10
114.8020
   20
108.0135
  0
VERTEX
  8
0
   10
122.1800
   20
108.0135
   0  
SEQEND
  0
POLYLINE
  8
0
   66 
1
   70 
0
 62
1
   40
0.1270
   41
0.1270
  0
VERTEX
  8
0
   10
114.7715
   20
108.1405
  0
VERTEX
  8
0
   10
122.2105
   20
108.1405
   0  
SEQEND
  0
POLYLINE
  8
0
   66 
1
   70 
0
 62
1
   40
0.1270
   41
0.1270
  0
VERTEX
  8
0
   10
114.7456
   20
108.2675
  0
VERTEX
  8
0
   10
122.2364
   20
108.2675
   0  
SEQEND
  0
POLYLINE
  8
0
   66 
1
   70 
0
 62
1
   40
0.1270
   41
0.1270
  0
VERTEX
  8
0
   10
114.7241
   20
108.3945
  0
VERTEX
  8
0
   10
122.2579
   20
108.3945
   0  
SEQEND
  0
POLYLINE
  8
0
   66 
1
   70 
0
 62
1
   40
0.1270
   41
0.1270
  0
VERTEX
  8
0
   10
114.7070
   20
108.5215
  0
VERTEX
  8
0
   10
122.2750
   20
108.5215
   0  
SEQEND
  0
POLYLINE
  8
0
   66 
1
   70 
0
 62
1
   40
0.1270
   41
0.1270
  0
VERTEX
  8
0
   10
114.6942
   20
108.6485
  0
VERTEX
  8
0
   10
122.2878
   20
108.6485
   0  
SEQEND
  0
POLYLINE
  8
0
   66 
1
   70 
0
 62
1
   40
0.1270
   41
0.1270
  0
VERTEX
  8
0
   10
114.6858
   20
108.7755
  0
VERTEX
  8
0
   10
122.2962
   20
108.7755
   0  
SEQEND
  0
POLYLINE
  8
0
   66 
1
   70 
0
 62
1
   40
0.1270
   41
0.1270
  0
VERTEX
  8
0
   10
114.6815
   20
108.9025
  0
VERTEX
  8
0
   10
122.3005
   20
108.9025
   0  
SEQEND
  0
POLYLINE
  8
0
   66 
1
   70 
0
 62
1
   40
0.1270
   41
0.1270
  0
VERTEX
  8
0
   10
114.6815
   20
109.0295
  0
VERTEX
  8
0
   10
122.3005
   20
109.0295
   0  
SEQEND
  0
POLYLINE
  8
0
   66 
1
   70 
0
 62
1
   40
0.1270
   41
0.1270
  0
VERTEX
  8
0
   10
114.6858
   20
109.1565
  0
VERTEX
  8
0
   10
122.2962
   20
109.1565
   0  
SEQEND
  0
POLYLINE
  8
0
   66 
1
   70 
0
 62
1
   40
0.1270
   41
0.1270
  0
VERTEX
  8
0
   10
114.6942
   20
109.2835
  0
VERTEX
  8
0
   10
122.2878
   20
109.2835
   0  
SEQEND
  0
POLYLINE
  8
0
   66 
1
   70 
0
 62
1
   40
0.1270
   41
0.1270
  0
VERTEX
  8
0
   10
114.7070
   20
109.4105
  0
VERTEX
  8
0
   10
122.2750
   20
109.4105
   0  
SEQEND
  0
POLYLINE
  8
0
   66 
1
   70 
0
 62
1
   40
0.1270
   41
0.1270
  0
VERTEX
  8
0
   10
114.7241
   20
109.5375
  0
VERTEX
  8
0
   10
122.2579
   20
109.5375
   0  
SEQEND
  0
POLYLINE
  8
0
   66 
1
   70 
0
 62
1
   40
0.1270
   41
0.1270
  0
VERTEX
  8
0
   10
114.7456
   20
109.6645
  0
VERTEX
  8
0
   10
122.2364
   20
109.6645
   0  
SEQEND
  0
POLYLINE
  8
0
   66 
1
   70 
0
 62
1
   40
0.1270
   41
0.1270
  0
VERTEX
  8
0
   10
114.7715
   20
109.7915
  0
VERTEX
  8
0
   10
122.2105
   20
109.7915
   0  
SEQEND
  0
POLYLINE
  8
0
   66 
1
   70 
0
 62
1
   40
0.1270
   41
0.1270
  0
VERTEX
  8
0
   10
114.8020
   20
109.9185
  0
VERTEX
  8
0
   10
122.1800
   20
109.9185
   0  
SEQEND
  0
POLYLINE
  8
0
   66 
1
   70 
0
 62
1
   40
0.1270
   41
0.1270
  0
VERTEX
  8
0
   10
114.8371
   20
110.0455
  0
VERTEX
  8
0
   10
122.1449
   20
110.0455
   0  
SEQEND
  0
POLYLINE
  8
0
   66 
1
   70 
0
 62
1
   40
0.1270
   41
0.1270
  0
VERTEX
  8
0
   10
114.8771
   20
110.1725
  0
VERTEX
  8
0
   10
122.1049
   20
110.1725
   0  
SEQEND
  0
POLYLINE
  8
0
   66 
1
   70 
0
 62
1
   40
0.1270
   41
0.1270
  0
VERTEX
  8
0
   10
114.9220
   20
110.2995
  0
VERTEX
  8
0
   10
122.0600
   20
110.2995
   0  
SEQEND
  0
POLYLINE
  8
0
   66 
1
   70 
0
 62
1
   40
0.1270
   41
0.1270
  0
VERTEX
  8
0
   10
114.9720
   20
110.4265
  0
VERTEX
  8
0
   10
122.0100
   20
110.4265
   0  
SEQEND
  0
POLYLINE
  8
0
   66 
1
   70 
0
 62
1
   40
0.1270
   41
0.1270
  0
VERTEX
  8
0
   10
115.0275
   20
110.5535
  0
VERTEX
  8
0
   10
121.9545
   20
110.5535
   0  
SEQEND
  0
POLYLINE
  8
0
   66 
1
   70 
0
 62
1
   40
0.1270
   41
0.1270
  0
VERTEX
  8
0
   10
115.0886
   20
110.6805
  0
VERTEX
  8
0
   10
121.8934
   20
110.6805
   0  
SEQEND
  0
POLYLINE
  8
0
   66 
1
   70 
0
 62
1
   40
0.1270
   41
0.1270
  0
VERTEX
  8
0
   10
115.1556
   20
110.8075
  0
VERTEX
  8
0
   10
121.8264
   20
110.8075
   0  
SEQEND
  0
POLYLINE
  8
0
   66 
1
   70 
0
 62
1
   40
0.1270
   41
0.1270
  0
VERTEX
  8
0
   10
115.2289
   20
110.9345
  0
VERTEX
  8
0
   10
121.7531
   20
110.9345
   0  
SEQEND
  0
POLYLINE
  8
0
   66 
1
   70 
0
 62
1
   40
0.1270
   41
0.1270
  0
VERTEX
  8
0
   10
115.3090
   20
111.0615
  0
VERTEX
  8
0
   10
121.6730
   20
111.0615
   0  
SEQEND
  0
POLYLINE
  8
0
   66 
1
   70 
0
 62
1
   40
0.1270
   41
0.1270
  0
VERTEX
  8
0
   10
115.3964
   20
111.1885
  0
VERTEX
  8
0
   10
121.5856
   20
111.1885
   0  
SEQEND
  0
POLYLINE
  8
0
   66 
1
   70 
0
 62
1
   40
0.1270
   41
0.1270
  0
VERTEX
  8
0
   10
115.4917
   20
111.3155
  0
VERTEX
  8
0
   10
121.4903
   20
111.3155
   0  
SEQEND
  0
POLYLINE
  8
0
   66 
1
   70 
0
 62
1
   40
0.1270
   41
0.1270
  0
VERTEX
  8
0
   10
115.5957
   20
111.4425
  0
VERTEX
  8
0
   10
121.3863
   20
111.4425
   0  
SEQEND
  0
POLYLINE
  8
0
   66 
1
   70 
0
 62
1
   40
0.1270
   41
0.1270
  0
VERTEX
  8
0
   10
115.7093
   20
111.5695
  0
VERTEX
  8
0
   10
121.2727
   20
111.5695
   0  
SEQEND
  0
POLYLINE
  8
0
   66 
1
   70 
0
 62
1
   40
0.1270
   41
0.1270
  0
VERTEX
  8
0
   10
115.8338
   20
111.6965
  0
VERTEX
  8
0
   10
121.1482
   20
111.6965
   0  
SEQEND
  0
POLYLINE
  8
0
   66 
1
   70 
0
 62
1
   40
0.1270
   41
0.1270
  0
VERTEX
  8
0
   10
115.9709
   20
111.8235
  0
VERTEX
  8
0
   10
121.0111
   20
111.8235
   0  
SEQEND
  0
POLYLINE
  8
0
   66 
1
   70 
0
 62
1
   40
0.1270
   41
0.1270
  0
VERTEX
  8
0
   10
116.1227
   20
111.9505
  0
VERTEX
  8
0
   10
120.8593
   20
111.9505
   0  
SEQEND
  0
POLYLINE
  8
0
   66 
1
   70 
0
 62
1
   40
0.1270
   41
0.1270
  0
VERTEX
  8
0
   10
116.2922
   20
112.0775
  0
VERTEX
  8
0
   10
120.6898
   20
112.0775
   0  
SEQEND
  0
POLYLINE
  8
0
   66 
1
   70 
0
 62
1
   40
0.1270
   41
0.1270
  0
VERTEX
  8
0
   10
116.4840
   20
112.2045
  0
VERTEX
  8
0
   10
120.4980
   20
112.2045
   0  
SEQEND
  0
POLYLINE
  8
0
   66 
1
   70 
0
 62
1
   40
0.1270
   41
0.1270
  0
VERTEX
  8
0
   10
116.7051
   20
112.3315
  0
VERTEX
  8
0
   10
120.2769
   20
112.3315
   0  
SEQEND
  0
POLYLINE
  8
0
   66 
1
   70 
0
 62
1
   40
0.1270
   41
0.1270
  0
VERTEX
  8
0
   10
116.9683
   20
112.4585
  0
VERTEX
  8
0
   10
120.0137
   20
112.4585
   0  
SEQEND
  0
POLYLINE
  8
0
   66 
1
   70 
0
 62
1
   40
0.1270
   41
0.1270
  0
VERTEX
  8
0
   10
117.3013
   20
112.5855
  0
VERTEX
  8
0
   10
119.6807
   20
112.5855
   0  
SEQEND
  0
POLYLINE
  8
0
   66 
1
   70 
0
 62
1
   40
0.1270
   41
0.1270
  0
VERTEX
  8
0
   10
117.7983
   20
112.7125
  0
VERTEX
  8
0
   10
119.1837
   20
112.7125
   0  
SEQEND
  0
TEXT
  8
0
   10
106.9340
   20
136.2710
   11
106.9340
   21
136.2710
   73 
1
   30 
0
   40
0.6325
   7  
Text_50/1
   1  
C7
  0
POLYLINE
  8
0
   66 
1
   70 
0
 62
1
   40
0.1270
   41
0.1270
  0
VERTEX
  8
0
   10
54.8640
   20
93.7260
  0
VERTEX
  8
0
   10
62.4840
   20
93.7260
  0
VERTEX
  8
0
   10
62.4840
   20
96.2660
  0
VERTEX
  8
0
   10
54.8640
   20
96.2660
  0
VERTEX
  8
0
   10
54.8640
   20
93.7260
   0  
SEQEND
  0
POLYLINE
  8
0
   66 
1
   70 
0
 62
1
   40
0.1270
   41
0.1270
  0
VERTEX
  8
0
   10
54.8640
   20
93.7260
  0
VERTEX
  8
0
   10
62.4840
   20
93.7260
  0
VERTEX
  8
0
   10
62.4840
   20
96.2660
  0
VERTEX
  8
0
   10
54.8640
   20
96.2660
  0
VERTEX
  8
0
   10
54.8640
   20
93.7260
   0  
SEQEND
  0
TEXT
  8
0
   10
58.1660
   20
92.3290
   11
58.1660
   21
92.3290
   73 
1
   30 
0
   40
0.6325
   7  
Text_50/1
   1  
R1
 50
180.0000
  0
POLYLINE
  8
0
   66 
1
   70 
0
 62
1
   40
0.1270
   41
0.1270
  0
VERTEX
  8
0
   10
87.7570
   20
65.4050
   42 
-1.000
  0
VERTEX
  8
0
   10
87.7570
   20
66.6750
   42 
-1.000
  0
VERTEX
  8
0
   10
87.7570
   20
65.4050
   0  
SEQEND
  0
POLYLINE
  8
0
   66 
1
   70 
0
 62
1
   40
0.1270
   41
0.1270
  0
VERTEX
  8
0
   10
87.4802
   20
65.4685
  0
VERTEX
  8
0
   10
88.0338
   20
65.4685
   0  
SEQEND
  0
POLYLINE
  8
0
   66 
1
   70 
0
 62
1
   40
0.1270
   41
0.1270
  0
VERTEX
  8
0
   10
87.3035
   20
65.5955
  0
VERTEX
  8
0
   10
88.2105
   20
65.5955
   0  
SEQEND
  0
POLYLINE
  8
0
   66 
1
   70 
0
 62
1
   40
0.1270
   41
0.1270
  0
VERTEX
  8
0
   10
87.2071
   20
65.7225
  0
VERTEX
  8
0
   10
88.3069
   20
65.7225
   0  
SEQEND
  0
POLYLINE
  8
0
   66 
1
   70 
0
 62
1
   40
0.1270
   41
0.1270
  0
VERTEX
  8
0
   10
87.1513
   20
65.8495
  0
VERTEX
  8
0
   10
88.3628
   20
65.8495
   0  
SEQEND
  0
POLYLINE
  8
0
   66 
1
   70 
0
 62
1
   40
0.1270
   41
0.1270
  0
VERTEX
  8
0
   10
87.1252
   20
65.9765
  0
VERTEX
  8
0
   10
88.3888
   20
65.9765
   0  
SEQEND
  0
POLYLINE
  8
0
   66 
1
   70 
0
 62
1
   40
0.1270
   41
0.1270
  0
VERTEX
  8
0
   10
87.1252
   20
66.1035
  0
VERTEX
  8
0
   10
88.3888
   20
66.1035
   0  
SEQEND
  0
POLYLINE
  8
0
   66 
1
   70 
0
 62
1
   40
0.1270
   41
0.1270
  0
VERTEX
  8
0
   10
87.1513
   20
66.2305
  0
VERTEX
  8
0
   10
88.3628
   20
66.2305
   0  
SEQEND
  0
POLYLINE
  8
0
   66 
1
   70 
0
 62
1
   40
0.1270
   41
0.1270
  0
VERTEX
  8
0
   10
87.2071
   20
66.3575
  0
VERTEX
  8
0
   10
88.3069
   20
66.3575
   0  
SEQEND
  0
POLYLINE
  8
0
   66 
1
   70 
0
 62
1
   40
0.1270
   41
0.1270
  0
VERTEX
  8
0
   10
87.3035
   20
66.4845
  0
VERTEX
  8
0
   10
88.2105
   20
66.4845
   0  
SEQEND
  0
POLYLINE
  8
0
   66 
1
   70 
0
 62
1
   40
0.1270
   41
0.1270
  0
VERTEX
  8
0
   10
87.4802
   20
66.6115
  0
VERTEX
  8
0
   10
88.0338
   20
66.6115
   0  
SEQEND
  0
POLYLINE
  8
0
   66 
1
   70 
0
 62
1
   40
0.0762
   41
0.0762
  0
VERTEX
  8
0
   10
85.2170
   20
68.5800
   42 
-1.000
  0
VERTEX
  8
0
   10
90.2970
   20
68.5800
   42 
-1.000
  0
VERTEX
  8
0
   10
85.2170
   20
68.5800
   0  
SEQEND
  0
TEXT
  8
0
   10
90.5510
   20
68.0720
   11
90.5510
   21
68.0720
   73 
1
   30 
0
   40
0.6325
   7  
Text_50/1
   1  
C14
  0
POLYLINE
  8
0
   66 
1
   70 
0
 62
1
   40
0.1270
   41
0.1270
  0
VERTEX
  8
0
   10
86.1060
   20
113.7158
  0
VERTEX
  8
0
   10
92.8370
   20
113.7158
  0
VERTEX
  8
0
   10
92.8370
   20
136.7028
  0
VERTEX
  8
0
   10
86.1060
   20
136.7028
  0
VERTEX
  8
0
   10
86.1060
   20
113.7158
   0  
SEQEND
  0
POLYLINE
  8
0
   66 
1
   70 
0
 62
1
   40
0.1270
   41
0.1270
  0
VERTEX
  8
0
   10
86.2330
   20
134.5438
  0
VERTEX
  8
0
   10
86.2330
   20
135.5598
  0
VERTEX
  8
0
   10
92.8370
   20
135.5598
  0
VERTEX
  8
0
   10
92.8370
   20
134.5438
  0
VERTEX
  8
0
   10
86.2330
   20
134.5438
   0  
SEQEND
  0
TEXT
  8
0
   10
88.9000
   20
132.0038
   11
88.9000
   21
132.0038
   73 
1
 62
1
   40
1.5812
   41 
1.000
   39
0.3048
   1  
+
 50
90.0000
  0
TEXT
  8
0
   10
88.9000
   20
117.1448
   11
88.9000
   21
117.1448
   73 
1
 62
1
   40
1.5812
   41 
1.000
   39
0.3048
   1  
-
 50
90.0000
  0
TEXT
  8
0
   10
89.1540
   20
123.7488
   11
89.1540
   21
123.7488
   73 
1
 62
1
   40
1.5812
   41 
1.000
   39
0.3048
   1  
AC
 50
90.0000
  0
TEXT
  8
0
   10
88.6460
   20
137.2108
   11
88.6460
   21
137.2108
   73 
1
   30 
0
   40
0.6325
   7  
Text_50/1
   1  
BD1
  0
POLYLINE
  8
0
   66 
1
   70 
0
 62
1
   40
0.1270
   41
0.1270
  0
VERTEX
  8
0
   10
118.8720
   20
95.2500
  0
VERTEX
  8
0
   10
118.8720
   20
99.0600
   0  
SEQEND
  0
POLYLINE
  8
0
   66 
1
   70 
0
 62
1
   40
0.1270
   41
0.1270
  0
VERTEX
  8
0
   10
118.8720
   20
93.3450
  0
VERTEX
  8
0
   10
118.8720
   20
88.9000
   0  
SEQEND
  0
POLYLINE
  8
0
   66 
1
   70 
0
 62
1
   40
0.1270
   41
0.1270
  0
VERTEX
  8
0
   10
117.9830
   20
94.6150
  0
VERTEX
  8
0
   10
117.9830
   20
95.2500
  0
VERTEX
  8
0
   10
119.7610
   20
95.2500
  0
VERTEX
  8
0
   10
119.7610
   20
95.8850
   0  
SEQEND
  0
POLYLINE
  8
0
   66 
1
   70 
0
 62
1
   40
0.1270
   41
0.1270
  0
VERTEX
  8
0
   10
118.8720
   20
95.2500
  0
VERTEX
  8
0
   10
117.9830
   20
93.3450
  0
VERTEX
  8
0
   10
119.7610
   20
93.3450
  0
VERTEX
  8
0
   10
118.8720
   20
95.2500
   0  
SEQEND
  0
TEXT
  8
0
   10
118.2370
   20
86.6140
   11
118.2370
   21
86.6140
   73 
1
   30 
0
   40
0.6325
   7  
Text_50/1
   1  
D1
  0
POLYLINE
  8
0
   66 
1
   70 
0
 62
1
   40
0.1270
   41
0.1270
  0
VERTEX
  8
0
   10
121.7930
   20
95.2500
  0
VERTEX
  8
0
   10
121.7930
   20
99.0600
   0  
SEQEND
  0
POLYLINE
  8
0
   66 
1
   70 
0
 62
1
   40
0.1270
   41
0.1270
  0
VERTEX
  8
0
   10
121.7930
   20
93.3450
  0
VERTEX
  8
0
   10
121.7930
   20
88.9000
   0  
SEQEND
  0
POLYLINE
  8
0
   66 
1
   70 
0
 62
1
   40
0.1270
   41
0.1270
  0
VERTEX
  8
0
   10
120.9040
   20
94.6150
  0
VERTEX
  8
0
   10
120.9040
   20
95.2500
  0
VERTEX
  8
0
   10
122.6820
   20
95.2500
  0
VERTEX
  8
0
   10
122.6820
   20
95.8850
   0  
SEQEND
  0
POLYLINE
  8
0
   66 
1
   70 
0
 62
1
   40
0.1270
   41
0.1270
  0
VERTEX
  8
0
   10
121.7930
   20
95.2500
  0
VERTEX
  8
0
   10
120.9040
   20
93.3450
  0
VERTEX
  8
0
   10
122.6820
   20
93.3450
  0
VERTEX
  8
0
   10
121.7930
   20
95.2500
   0  
SEQEND
  0
TEXT
  8
0
   10
121.0310
   20
86.6140
   11
121.0310
   21
86.6140
   73 
1
   30 
0
   40
0.6325
   7  
Text_50/1
   1  
D3
  0
POLYLINE
  8
0
   66 
1
   70 
0
 62
1
   40
0.1270
   41
0.1270
  0
VERTEX
  8
0
   10
113.5380
   20
104.1400
  0
VERTEX
  8
0
   10
113.5380
   20
90.9320
  0
VERTEX
  8
0
   10
117.6020
   20
90.9320
  0
VERTEX
  8
0
   10
117.6020
   20
104.1400
  0
VERTEX
  8
0
   10
113.5380
   20
104.1400
   0  
SEQEND
  0
TEXT
  8
0
   10
114.9350
   20
86.6140
   11
114.9350
   21
86.6140
   73 
1
   30 
0
   40
0.6325
   7  
Text_50/1
   1  
R5
  0
POLYLINE
  8
0
   66 
1
   70 
0
 62
1
   40
0.1270
   41
0.1270
  0
VERTEX
  8
0
   10
129.5400
   20
72.6440
  0
VERTEX
  8
0
   10
129.5400
   20
72.1360
  0
VERTEX
  8
0
   10
134.6200
   20
72.1360
  0
VERTEX
  8
0
   10
134.6200
   20
72.6440
  0
VERTEX
  8
0
   10
129.5400
   20
72.6440
   0  
SEQEND
  0
POLYLINE
  8
0
   66 
1
   70 
0
 62
1
   40
0.1270
   41
0.1270
  0
VERTEX
  8
0
   10
129.5400
   20
67.1830
  0
VERTEX
  8
0
   10
129.5400
   20
66.6750
  0
VERTEX
  8
0
   10
134.6200
   20
66.6750
  0
VERTEX
  8
0
   10
134.6200
   20
67.1830
  0
VERTEX
  8
0
   10
129.5400
   20
67.1830
   0  
SEQEND
  0
POLYLINE
  8
0
   66 
1
   70 
0
 62
1
   40
0.1270
   41
0.1270
  0
VERTEX
  8
0
   10
129.5400
   20
61.7220
  0
VERTEX
  8
0
   10
129.5400
   20
61.2140
  0
VERTEX
  8
0
   10
134.6200
   20
61.2140
  0
VERTEX
  8
0
   10
134.6200
   20
61.7220
  0
VERTEX
  8
0
   10
129.5400
   20
61.7220
   0  
SEQEND
  0
POLYLINE
  8
0
   66 
1
   70 
0
 62
1
   40
0.1270
   41
0.1270
  0
VERTEX
  8
0
   10
134.6200
   20
74.5490
  0
VERTEX
  8
0
   10
134.6200
   20
59.3090
  0
VERTEX
  8
0
   10
152.6540
   20
59.3090
  0
VERTEX
  8
0
   10
154.6860
   20
61.3410
  0
VERTEX
  8
0
   10
154.6860
   20
72.5170
  0
VERTEX
  8
0
   10
152.6540
   20
74.5490
  0
VERTEX
  8
0
   10
134.6200
   20
74.5490
   0  
SEQEND
  0
TEXT
  8
0
   10
129.6670
   20
75.0570
   11
129.6670
   21
75.0570
   73 
1
   30 
0
   40
0.6325
   7  
Text_50/1
   1  
Q6
  0
POLYLINE
  8
0
   66 
1
   70 
0
 62
1
   40
0.1270
   41
0.1270
  0
VERTEX
  8
0
   10
118.8720
   20
70.4850
  0
VERTEX
  8
0
   10
118.8720
   20
74.2950
   0  
SEQEND
  0
POLYLINE
  8
0
   66 
1
   70 
0
 62
1
   40
0.1270
   41
0.1270
  0
VERTEX
  8
0
   10
118.8720
   20
68.5800
  0
VERTEX
  8
0
   10
118.8720
   20
64.1350
   0  
SEQEND
  0
POLYLINE
  8
0
   66 
1
   70 
0
 62
1
   40
0.1270
   41
0.1270
  0
VERTEX
  8
0
   10
117.9830
   20
69.8500
  0
VERTEX
  8
0
   10
117.9830
   20
70.4850
  0
VERTEX
  8
0
   10
119.7610
   20
70.4850
  0
VERTEX
  8
0
   10
119.7610
   20
71.1200
   0  
SEQEND
  0
POLYLINE
  8
0
   66 
1
   70 
0
 62
1
   40
0.1270
   41
0.1270
  0
VERTEX
  8
0
   10
118.8720
   20
70.4850
  0
VERTEX
  8
0
   10
117.9830
   20
68.5800
  0
VERTEX
  8
0
   10
119.7610
   20
68.5800
  0
VERTEX
  8
0
   10
118.8720
   20
70.4850
   0  
SEQEND
  0
TEXT
  8
0
   10
118.2370
   20
75.5650
   11
118.2370
   21
75.5650
   73 
1
   30 
0
   40
0.6325
   7  
Text_50/1
   1  
D2
  0
POLYLINE
  8
0
   66 
1
   70 
0
 62
1
   40
0.1270
   41
0.1270
  0
VERTEX
  8
0
   10
151.5110
   20
110.9980
   42 
-1.000
  0
VERTEX
  8
0
   10
151.5110
   20
136.1440
   42 
-1.000
  0
VERTEX
  8
0
   10
151.5110
   20
110.9980
   0  
SEQEND
  0
POLYLINE
  8
0
   66 
1
   70 
0
 62
1
   40
0.1270
   41
0.1270
  0
VERTEX
  8
0
   10
151.5110
   20
108.3310
   42 
-1.000
  0
VERTEX
  8
0
   10
151.5110
   20
138.8110
   42 
-1.000
  0
VERTEX
  8
0
   10
151.5110
   20
108.3310
   0  
SEQEND
  0
POLYLINE
  8
0
   66 
1
   70 
0
 62
1
   40
0.1270
   41
0.1270
  0
VERTEX
  8
0
   10
151.5110
   20
105.1560
   42 
-1.000
  0
VERTEX
  8
0
   10
151.5110
   20
112.7760
   42 
-1.000
  0
VERTEX
  8
0
   10
151.5110
   20
105.1560
   0  
SEQEND
  0
POLYLINE
  8
0
   66 
1
   70 
0
 62
1
   40
0.1270
   41
0.1270
  0
VERTEX
  8
0
   10
150.8183
   20
105.2195
  0
VERTEX
  8
0
   10
152.2037
   20
105.2195
   0  
SEQEND
  0
POLYLINE
  8
0
   66 
1
   70 
0
 62
1
   40
0.1270
   41
0.1270
  0
VERTEX
  8
0
   10
150.3213
   20
105.3465
  0
VERTEX
  8
0
   10
152.7007
   20
105.3465
   0  
SEQEND
  0
POLYLINE
  8
0
   66 
1
   70 
0
 62
1
   40
0.1270
   41
0.1270
  0
VERTEX
  8
0
   10
149.9883
   20
105.4735
  0
VERTEX
  8
0
   10
153.0337
   20
105.4735
   0  
SEQEND
  0
POLYLINE
  8
0
   66 
1
   70 
0
 62
1
   40
0.1270
   41
0.1270
  0
VERTEX
  8
0
   10
149.7251
   20
105.6005
  0
VERTEX
  8
0
   10
153.2969
   20
105.6005
   0  
SEQEND
  0
POLYLINE
  8
0
   66 
1
   70 
0
 62
1
   40
0.1270
   41
0.1270
  0
VERTEX
  8
0
   10
149.5040
   20
105.7275
  0
VERTEX
  8
0
   10
153.5180
   20
105.7275
   0  
SEQEND
  0
POLYLINE
  8
0
   66 
1
   70 
0
 62
1
   40
0.1270
   41
0.1270
  0
VERTEX
  8
0
   10
149.3122
   20
105.8545
  0
VERTEX
  8
0
   10
153.7098
   20
105.8545
   0  
SEQEND
  0
POLYLINE
  8
0
   66 
1
   70 
0
 62
1
   40
0.1270
   41
0.1270
  0
VERTEX
  8
0
   10
149.1427
   20
105.9815
  0
VERTEX
  8
0
   10
153.8793
   20
105.9815
   0  
SEQEND
  0
POLYLINE
  8
0
   66 
1
   70 
0
 62
1
   40
0.1270
   41
0.1270
  0
VERTEX
  8
0
   10
148.9909
   20
106.1085
  0
VERTEX
  8
0
   10
154.0311
   20
106.1085
   0  
SEQEND
  0
POLYLINE
  8
0
   66 
1
   70 
0
 62
1
   40
0.1270
   41
0.1270
  0
VERTEX
  8
0
   10
148.8538
   20
106.2355
  0
VERTEX
  8
0
   10
154.1681
   20
106.2355
   0  
SEQEND
  0
POLYLINE
  8
0
   66 
1
   70 
0
 62
1
   40
0.1270
   41
0.1270
  0
VERTEX
  8
0
   10
148.7293
   20
106.3625
  0
VERTEX
  8
0
   10
154.2927
   20
106.3625
   0  
SEQEND
  0
POLYLINE
  8
0
   66 
1
   70 
0
 62
1
   40
0.1270
   41
0.1270
  0
VERTEX
  8
0
   10
148.6156
   20
106.4895
  0
VERTEX
  8
0
   10
154.4064
   20
106.4895
   0  
SEQEND
  0
POLYLINE
  8
0
   66 
1
   70 
0
 62
1
   40
0.1270
   41
0.1270
  0
VERTEX
  8
0
   10
148.5117
   20
106.6165
  0
VERTEX
  8
0
   10
154.5103
   20
106.6165
   0  
SEQEND
  0
POLYLINE
  8
0
   66 
1
   70 
0
 62
1
   40
0.1270
   41
0.1270
  0
VERTEX
  8
0
   10
148.4164
   20
106.7435
  0
VERTEX
  8
0
   10
154.6056
   20
106.7435
   0  
SEQEND
  0
POLYLINE
  8
0
   66 
1
   70 
0
 62
1
   40
0.1270
   41
0.1270
  0
VERTEX
  8
0
   10
148.3290
   20
106.8705
  0
VERTEX
  8
0
   10
154.6930
   20
106.8705
   0  
SEQEND
  0
POLYLINE
  8
0
   66 
1
   70 
0
 62
1
   40
0.1270
   41
0.1270
  0
VERTEX
  8
0
   10
148.2489
   20
106.9975
  0
VERTEX
  8
0
   10
154.7731
   20
106.9975
   0  
SEQEND
  0
POLYLINE
  8
0
   66 
1
   70 
0
 62
1
   40
0.1270
   41
0.1270
  0
VERTEX
  8
0
   10
148.1756
   20
107.1245
  0
VERTEX
  8
0
   10
154.8464
   20
107.1245
   0  
SEQEND
  0
POLYLINE
  8
0
   66 
1
   70 
0
 62
1
   40
0.1270
   41
0.1270
  0
VERTEX
  8
0
   10
148.1086
   20
107.2515
  0
VERTEX
  8
0
   10
154.9134
   20
107.2515
   0  
SEQEND
  0
POLYLINE
  8
0
   66 
1
   70 
0
 62
1
   40
0.1270
   41
0.1270
  0
VERTEX
  8
0
   10
148.0475
   20
107.3785
  0
VERTEX
  8
0
   10
154.9745
   20
107.3785
   0  
SEQEND
  0
POLYLINE
  8
0
   66 
1
   70 
0
 62
1
   40
0.1270
   41
0.1270
  0
VERTEX
  8
0
   10
147.9921
   20
107.5055
  0
VERTEX
  8
0
   10
155.0300
   20
107.5055
   0  
SEQEND
  0
POLYLINE
  8
0
   66 
1
   70 
0
 62
1
   40
0.1270
   41
0.1270
  0
VERTEX
  8
0
   10
147.9420
   20
107.6325
  0
VERTEX
  8
0
   10
155.0800
   20
107.6325
   0  
SEQEND
  0
POLYLINE
  8
0
   66 
1
   70 
0
 62
1
   40
0.1270
   41
0.1270
  0
VERTEX
  8
0
   10
147.8971
   20
107.7595
  0
VERTEX
  8
0
   10
155.1249
   20
107.7595
   0  
SEQEND
  0
POLYLINE
  8
0
   66 
1
   70 
0
 62
1
   40
0.1270
   41
0.1270
  0
VERTEX
  8
0
   10
147.8571
   20
107.8865
  0
VERTEX
  8
0
   10
155.1649
   20
107.8865
   0  
SEQEND
  0
POLYLINE
  8
0
   66 
1
   70 
0
 62
1
   40
0.1270
   41
0.1270
  0
VERTEX
  8
0
   10
147.8220
   20
108.0135
  0
VERTEX
  8
0
   10
155.2000
   20
108.0135
   0  
SEQEND
  0
POLYLINE
  8
0
   66 
1
   70 
0
 62
1
   40
0.1270
   41
0.1270
  0
VERTEX
  8
0
   10
147.7915
   20
108.1405
  0
VERTEX
  8
0
   10
155.2305
   20
108.1405
   0  
SEQEND
  0
POLYLINE
  8
0
   66 
1
   70 
0
 62
1
   40
0.1270
   41
0.1270
  0
VERTEX
  8
0
   10
147.7656
   20
108.2675
  0
VERTEX
  8
0
   10
155.2564
   20
108.2675
   0  
SEQEND
  0
POLYLINE
  8
0
   66 
1
   70 
0
 62
1
   40
0.1270
   41
0.1270
  0
VERTEX
  8
0
   10
147.7441
   20
108.3945
  0
VERTEX
  8
0
   10
155.2779
   20
108.3945
   0  
SEQEND
  0
POLYLINE
  8
0
   66 
1
   70 
0
 62
1
   40
0.1270
   41
0.1270
  0
VERTEX
  8
0
   10
147.7270
   20
108.5215
  0
VERTEX
  8
0
   10
155.2950
   20
108.5215
   0  
SEQEND
  0
POLYLINE
  8
0
   66 
1
   70 
0
 62
1
   40
0.1270
   41
0.1270
  0
VERTEX
  8
0
   10
147.7142
   20
108.6485
  0
VERTEX
  8
0
   10
155.3077
   20
108.6485
   0  
SEQEND
  0
POLYLINE
  8
0
   66 
1
   70 
0
 62
1
   40
0.1270
   41
0.1270
  0
VERTEX
  8
0
   10
147.7058
   20
108.7755
  0
VERTEX
  8
0
   10
155.3162
   20
108.7755
   0  
SEQEND
  0
POLYLINE
  8
0
   66 
1
   70 
0
 62
1
   40
0.1270
   41
0.1270
  0
VERTEX
  8
0
   10
147.7015
   20
108.9025
  0
VERTEX
  8
0
   10
155.3205
   20
108.9025
   0  
SEQEND
  0
POLYLINE
  8
0
   66 
1
   70 
0
 62
1
   40
0.1270
   41
0.1270
  0
VERTEX
  8
0
   10
147.7015
   20
109.0295
  0
VERTEX
  8
0
   10
155.3205
   20
109.0295
   0  
SEQEND
  0
POLYLINE
  8
0
   66 
1
   70 
0
 62
1
   40
0.1270
   41
0.1270
  0
VERTEX
  8
0
   10
147.7058
   20
109.1565
  0
VERTEX
  8
0
   10
155.3162
   20
109.1565
   0  
SEQEND
  0
POLYLINE
  8
0
   66 
1
   70 
0
 62
1
   40
0.1270
   41
0.1270
  0
VERTEX
  8
0
   10
147.7142
   20
109.2835
  0
VERTEX
  8
0
   10
155.3077
   20
109.2835
   0  
SEQEND
  0
POLYLINE
  8
0
   66 
1
   70 
0
 62
1
   40
0.1270
   41
0.1270
  0
VERTEX
  8
0
   10
147.7270
   20
109.4105
  0
VERTEX
  8
0
   10
155.2950
   20
109.4105
   0  
SEQEND
  0
POLYLINE
  8
0
   66 
1
   70 
0
 62
1
   40
0.1270
   41
0.1270
  0
VERTEX
  8
0
   10
147.7441
   20
109.5375
  0
VERTEX
  8
0
   10
155.2779
   20
109.5375
   0  
SEQEND
  0
POLYLINE
  8
0
   66 
1
   70 
0
 62
1
   40
0.1270
   41
0.1270
  0
VERTEX
  8
0
   10
147.7656
   20
109.6645
  0
VERTEX
  8
0
   10
155.2564
   20
109.6645
   0  
SEQEND
  0
POLYLINE
  8
0
   66 
1
   70 
0
 62
1
   40
0.1270
   41
0.1270
  0
VERTEX
  8
0
   10
147.7915
   20
109.7915
  0
VERTEX
  8
0
   10
155.2305
   20
109.7915
   0  
SEQEND
  0
POLYLINE
  8
0
   66 
1
   70 
0
 62
1
   40
0.1270
   41
0.1270
  0
VERTEX
  8
0
   10
147.8220
   20
109.9185
  0
VERTEX
  8
0
   10
155.2000
   20
109.9185
   0  
SEQEND
  0
POLYLINE
  8
0
   66 
1
   70 
0
 62
1
   40
0.1270
   41
0.1270
  0
VERTEX
  8
0
   10
147.8571
   20
110.0455
  0
VERTEX
  8
0
   10
155.1649
   20
110.0455
   0  
SEQEND
  0
POLYLINE
  8
0
   66 
1
   70 
0
 62
1
   40
0.1270
   41
0.1270
  0
VERTEX
  8
0
   10
147.8971
   20
110.1725
  0
VERTEX
  8
0
   10
155.1249
   20
110.1725
   0  
SEQEND
  0
POLYLINE
  8
0
   66 
1
   70 
0
 62
1
   40
0.1270
   41
0.1270
  0
VERTEX
  8
0
   10
147.9420
   20
110.2995
  0
VERTEX
  8
0
   10
155.0800
   20
110.2995
   0  
SEQEND
  0
POLYLINE
  8
0
   66 
1
   70 
0
 62
1
   40
0.1270
   41
0.1270
  0
VERTEX
  8
0
   10
147.9921
   20
110.4265
  0
VERTEX
  8
0
   10
155.0300
   20
110.4265
   0  
SEQEND
  0
POLYLINE
  8
0
   66 
1
   70 
0
 62
1
   40
0.1270
   41
0.1270
  0
VERTEX
  8
0
   10
148.0475
   20
110.5535
  0
VERTEX
  8
0
   10
154.9745
   20
110.5535
   0  
SEQEND
  0
POLYLINE
  8
0
   66 
1
   70 
0
 62
1
   40
0.1270
   41
0.1270
  0
VERTEX
  8
0
   10
148.1086
   20
110.6805
  0
VERTEX
  8
0
   10
154.9134
   20
110.6805
   0  
SEQEND
  0
POLYLINE
  8
0
   66 
1
   70 
0
 62
1
   40
0.1270
   41
0.1270
  0
VERTEX
  8
0
   10
148.1756
   20
110.8075
  0
VERTEX
  8
0
   10
154.8464
   20
110.8075
   0  
SEQEND
  0
POLYLINE
  8
0
   66 
1
   70 
0
 62
1
   40
0.1270
   41
0.1270
  0
VERTEX
  8
0
   10
148.2489
   20
110.9345
  0
VERTEX
  8
0
   10
154.7731
   20
110.9345
   0  
SEQEND
  0
POLYLINE
  8
0
   66 
1
   70 
0
 62
1
   40
0.1270
   41
0.1270
  0
VERTEX
  8
0
   10
148.3290
   20
111.0615
  0
VERTEX
  8
0
   10
154.6930
   20
111.0615
   0  
SEQEND
  0
POLYLINE
  8
0
   66 
1
   70 
0
 62
1
   40
0.1270
   41
0.1270
  0
VERTEX
  8
0
   10
148.4164
   20
111.1885
  0
VERTEX
  8
0
   10
154.6056
   20
111.1885
   0  
SEQEND
  0
POLYLINE
  8
0
   66 
1
   70 
0
 62
1
   40
0.1270
   41
0.1270
  0
VERTEX
  8
0
   10
148.5117
   20
111.3155
  0
VERTEX
  8
0
   10
154.5103
   20
111.3155
   0  
SEQEND
  0
POLYLINE
  8
0
   66 
1
   70 
0
 62
1
   40
0.1270
   41
0.1270
  0
VERTEX
  8
0
   10
148.6156
   20
111.4425
  0
VERTEX
  8
0
   10
154.4064
   20
111.4425
   0  
SEQEND
  0
POLYLINE
  8
0
   66 
1
   70 
0
 62
1
   40
0.1270
   41
0.1270
  0
VERTEX
  8
0
   10
148.7293
   20
111.5695
  0
VERTEX
  8
0
   10
154.2927
   20
111.5695
   0  
SEQEND
  0
POLYLINE
  8
0
   66 
1
   70 
0
 62
1
   40
0.1270
   41
0.1270
  0
VERTEX
  8
0
   10
148.8538
   20
111.6965
  0
VERTEX
  8
0
   10
154.1681
   20
111.6965
   0  
SEQEND
  0
POLYLINE
  8
0
   66 
1
   70 
0
 62
1
   40
0.1270
   41
0.1270
  0
VERTEX
  8
0
   10
148.9909
   20
111.8235
  0
VERTEX
  8
0
   10
154.0311
   20
111.8235
   0  
SEQEND
  0
POLYLINE
  8
0
   66 
1
   70 
0
 62
1
   40
0.1270
   41
0.1270
  0
VERTEX
  8
0
   10
149.1427
   20
111.9505
  0
VERTEX
  8
0
   10
153.8793
   20
111.9505
   0  
SEQEND
  0
POLYLINE
  8
0
   66 
1
   70 
0
 62
1
   40
0.1270
   41
0.1270
  0
VERTEX
  8
0
   10
149.3122
   20
112.0775
  0
VERTEX
  8
0
   10
153.7098
   20
112.0775
   0  
SEQEND
  0
POLYLINE
  8
0
   66 
1
   70 
0
 62
1
   40
0.1270
   41
0.1270
  0
VERTEX
  8
0
   10
149.5040
   20
112.2045
  0
VERTEX
  8
0
   10
153.5180
   20
112.2045
   0  
SEQEND
  0
POLYLINE
  8
0
   66 
1
   70 
0
 62
1
   40
0.1270
   41
0.1270
  0
VERTEX
  8
0
   10
149.7251
   20
112.3315
  0
VERTEX
  8
0
   10
153.2969
   20
112.3315
   0  
SEQEND
  0
POLYLINE
  8
0
   66 
1
   70 
0
 62
1
   40
0.1270
   41
0.1270
  0
VERTEX
  8
0
   10
149.9883
   20
112.4585
  0
VERTEX
  8
0
   10
153.0337
   20
112.4585
   0  
SEQEND
  0
POLYLINE
  8
0
   66 
1
   70 
0
 62
1
   40
0.1270
   41
0.1270
  0
VERTEX
  8
0
   10
150.3213
   20
112.5855
  0
VERTEX
  8
0
   10
152.7007
   20
112.5855
   0  
SEQEND
  0
POLYLINE
  8
0
   66 
1
   70 
0
 62
1
   40
0.1270
   41
0.1270
  0
VERTEX
  8
0
   10
150.8183
   20
112.7125
  0
VERTEX
  8
0
   10
152.2037
   20
112.7125
   0  
SEQEND
  0
TEXT
  8
0
   10
161.1630
   20
136.6520
   11
161.1630
   21
136.6520
   73 
1
   30 
0
   40
0.6325
   7  
Text_50/1
   1  
C8
  0
POLYLINE
  8
0
   66 
1
   70 
0
 62
1
   40
0.1270
   41
0.1270
  0
VERTEX
  8
0
   10
7.1120
   20
33.0200
   42 
-1.000
  0
VERTEX
  8
0
   10
7.1120
   20
34.2900
   42 
-1.000
  0
VERTEX
  8
0
   10
7.1120
   20
33.0200
   0  
SEQEND
  0
POLYLINE
  8
0
   66 
1
   70 
0
 62
1
   40
0.1270
   41
0.1270
  0
VERTEX
  8
0
   10
6.8352
   20
33.0835
  0
VERTEX
  8
0
   10
7.3888
   20
33.0835
   0  
SEQEND
  0
POLYLINE
  8
0
   66 
1
   70 
0
 62
1
   40
0.1270
   41
0.1270
  0
VERTEX
  8
0
   10
6.6585
   20
33.2105
  0
VERTEX
  8
0
   10
7.5655
   20
33.2105
   0  
SEQEND
  0
POLYLINE
  8
0
   66 
1
   70 
0
 62
1
   40
0.1270
   41
0.1270
  0
VERTEX
  8
0
   10
6.5621
   20
33.3375
  0
VERTEX
  8
0
   10
7.6619
   20
33.3375
   0  
SEQEND
  0
POLYLINE
  8
0
   66 
1
   70 
0
 62
1
   40
0.1270
   41
0.1270
  0
VERTEX
  8
0
   10
6.5062
   20
33.4645
  0
VERTEX
  8
0
   10
7.7177
   20
33.4645
   0  
SEQEND
  0
POLYLINE
  8
0
   66 
1
   70 
0
 62
1
   40
0.1270
   41
0.1270
  0
VERTEX
  8
0
   10
6.4802
   20
33.5915
  0
VERTEX
  8
0
   10
7.7438
   20
33.5915
   0  
SEQEND
  0
POLYLINE
  8
0
   66 
1
   70 
0
 62
1
   40
0.1270
   41
0.1270
  0
VERTEX
  8
0
   10
6.4802
   20
33.7185
  0
VERTEX
  8
0
   10
7.7438
   20
33.7185
   0  
SEQEND
  0
POLYLINE
  8
0
   66 
1
   70 
0
 62
1
   40
0.1270
   41
0.1270
  0
VERTEX
  8
0
   10
6.5062
   20
33.8455
  0
VERTEX
  8
0
   10
7.7177
   20
33.8455
   0  
SEQEND
  0
POLYLINE
  8
0
   66 
1
   70 
0
 62
1
   40
0.1270
   41
0.1270
  0
VERTEX
  8
0
   10
6.5621
   20
33.9725
  0
VERTEX
  8
0
   10
7.6619
   20
33.9725
   0  
SEQEND
  0
POLYLINE
  8
0
   66 
1
   70 
0
 62
1
   40
0.1270
   41
0.1270
  0
VERTEX
  8
0
   10
6.6585
   20
34.0995
  0
VERTEX
  8
0
   10
7.5655
   20
34.0995
   0  
SEQEND
  0
POLYLINE
  8
0
   66 
1
   70 
0
 62
1
   40
0.1270
   41
0.1270
  0
VERTEX
  8
0
   10
6.8352
   20
34.2265
  0
VERTEX
  8
0
   10
7.3888
   20
34.2265
   0  
SEQEND
  0
POLYLINE
  8
0
   66 
1
   70 
0
 62
1
   40
0.0762
   41
0.0762
  0
VERTEX
  8
0
   10
4.5720
   20
36.1950
   42 
-1.000
  0
VERTEX
  8
0
   10
9.6520
   20
36.1950
   42 
-1.000
  0
VERTEX
  8
0
   10
4.5720
   20
36.1950
   0  
SEQEND
  0
TEXT
  8
0
   10
6.0960
   20
38.9890
   11
6.0960
   21
38.9890
   73 
1
   30 
0
   40
0.6325
   7  
Text_50/1
   1  
C19
  0
POLYLINE
  8
0
   66 
1
   70 
0
 62
1
   40
0.0762
   41
0.0762
  0
VERTEX
  8
0
   10
84.0740
   20
101.2190
  0
VERTEX
  8
0
   10
83.3120
   20
100.8380
  0
VERTEX
  8
0
   10
83.3120
   20
95.2500
  0
VERTEX
  8
0
   10
84.0740
   20
94.8690
   0  
SEQEND
  0
POLYLINE
  8
0
   66 
1
   70 
0
 62
1
   40
0.0762
   41
0.0762
  0
VERTEX
  8
0
   10
85.3440
   20
101.2190
   42 
-0.759
  0
VERTEX
  8
0
   10
85.3440
   20
94.8690
   0  
SEQEND
  0
TEXT
  8
0
   10
83.5660
   20
93.4720
   11
83.5660
   21
93.4720
   73 
1
   30 
0
   40
0.6325
   7  
Text_50/1
   1  
Q1
  0
POLYLINE
  8
0
   66 
1
   70 
0
 62
1
   40
0.1270
   41
0.1270
  0
VERTEX
  8
0
   10
11.9380
   20
36.8300
   42 
-1.000
  0
VERTEX
  8
0
   10
11.9380
   20
38.1000
   42 
-1.000
  0
VERTEX
  8
0
   10
11.9380
   20
36.8300
   0  
SEQEND
  0
POLYLINE
  8
0
   66 
1
   70 
0
 62
1
   40
0.1270
   41
0.1270
  0
VERTEX
  8
0
   10
11.6612
   20
36.8935
  0
VERTEX
  8
0
   10
12.2148
   20
36.8935
   0  
SEQEND
  0
POLYLINE
  8
0
   66 
1
   70 
0
 62
1
   40
0.1270
   41
0.1270
  0
VERTEX
  8
0
   10
11.4845
   20
37.0205
  0
VERTEX
  8
0
   10
12.3915
   20
37.0205
   0  
SEQEND
  0
POLYLINE
  8
0
   66 
1
   70 
0
 62
1
   40
0.1270
   41
0.1270
  0
VERTEX
  8
0
   10
11.3881
   20
37.1475
  0
VERTEX
  8
0
   10
12.4879
   20
37.1475
   0  
SEQEND
  0
POLYLINE
  8
0
   66 
1
   70 
0
 62
1
   40
0.1270
   41
0.1270
  0
VERTEX
  8
0
   10
11.3323
   20
37.2745
  0
VERTEX
  8
0
   10
12.5437
   20
37.2745
   0  
SEQEND
  0
POLYLINE
  8
0
   66 
1
   70 
0
 62
1
   40
0.1270
   41
0.1270
  0
VERTEX
  8
0
   10
11.3062
   20
37.4015
  0
VERTEX
  8
0
   10
12.5698
   20
37.4015
   0  
SEQEND
  0
POLYLINE
  8
0
   66 
1
   70 
0
 62
1
   40
0.1270
   41
0.1270
  0
VERTEX
  8
0
   10
11.3062
   20
37.5285
  0
VERTEX
  8
0
   10
12.5698
   20
37.5285
   0  
SEQEND
  0
POLYLINE
  8
0
   66 
1
   70 
0
 62
1
   40
0.1270
   41
0.1270
  0
VERTEX
  8
0
   10
11.3323
   20
37.6555
  0
VERTEX
  8
0
   10
12.5437
   20
37.6555
   0  
SEQEND
  0
POLYLINE
  8
0
   66 
1
   70 
0
 62
1
   40
0.1270
   41
0.1270
  0
VERTEX
  8
0
   10
11.3881
   20
37.7825
  0
VERTEX
  8
0
   10
12.4879
   20
37.7825
   0  
SEQEND
  0
POLYLINE
  8
0
   66 
1
   70 
0
 62
1
   40
0.1270
   41
0.1270
  0
VERTEX
  8
0
   10
11.4845
   20
37.9095
  0
VERTEX
  8
0
   10
12.3915
   20
37.9095
   0  
SEQEND
  0
POLYLINE
  8
0
   66 
1
   70 
0
 62
1
   40
0.1270
   41
0.1270
  0
VERTEX
  8
0
   10
11.6612
   20
38.0365
  0
VERTEX
  8
0
   10
12.2148
   20
38.0365
   0  
SEQEND
  0
POLYLINE
  8
0
   66 
1
   70 
0
 62
1
   40
0.0762
   41
0.0762
  0
VERTEX
  8
0
   10
9.3980
   20
40.0050
   42 
-1.000
  0
VERTEX
  8
0
   10
14.4780
   20
40.0050
   42 
-1.000
  0
VERTEX
  8
0
   10
9.3980
   20
40.0050
   0  
SEQEND
  0
TEXT
  8
0
   10
10.9220
   20
42.7990
   11
10.9220
   21
42.7990
   73 
1
   30 
0
   40
0.6325
   7  
Text_50/1
   1  
C21
  0
POLYLINE
  8
0
   66 
1
   70 
0
 62
1
   40
0.1270
   41
0.1270
  0
VERTEX
  8
0
   10
95.8850
   20
39.6240
  0
VERTEX
  8
0
   10
95.8850
   20
47.2440
  0
VERTEX
  8
0
   10
93.3450
   20
47.2440
  0
VERTEX
  8
0
   10
93.3450
   20
39.6240
  0
VERTEX
  8
0
   10
95.8850
   20
39.6240
   0  
SEQEND
  0
POLYLINE
  8
0
   66 
1
   70 
0
 62
1
   40
0.1270
   41
0.1270
  0
VERTEX
  8
0
   10
95.8850
   20
39.6240
  0
VERTEX
  8
0
   10
95.8850
   20
47.2440
  0
VERTEX
  8
0
   10
93.3450
   20
47.2440
  0
VERTEX
  8
0
   10
93.3450
   20
39.6240
  0
VERTEX
  8
0
   10
95.8850
   20
39.6240
   0  
SEQEND
  0
TEXT
  8
0
   10
93.5990
   20
49.6570
   11
93.5990
   21
49.6570
   73 
1
   30 
0
   40
0.6325
   7  
Text_50/1
   1  
R13
  0
POLYLINE
  8
0
   66 
1
   70 
0
 62
1
   40
0.1270
   41
0.1270
  0
VERTEX
  8
0
   10
93.0910
   20
39.6240
  0
VERTEX
  8
0
   10
93.0910
   20
47.2440
  0
VERTEX
  8
0
   10
90.5510
   20
47.2440
  0
VERTEX
  8
0
   10
90.5510
   20
39.6240
  0
VERTEX
  8
0
   10
93.0910
   20
39.6240
   0  
SEQEND
  0
POLYLINE
  8
0
   66 
1
   70 
0
 62
1
   40
0.1270
   41
0.1270
  0
VERTEX
  8
0
   10
93.0910
   20
39.6240
  0
VERTEX
  8
0
   10
93.0910
   20
47.2440
  0
VERTEX
  8
0
   10
90.5510
   20
47.2440
  0
VERTEX
  8
0
   10
90.5510
   20
39.6240
  0
VERTEX
  8
0
   10
93.0910
   20
39.6240
   0  
SEQEND
  0
TEXT
  8
0
   10
90.6780
   20
49.6570
   11
90.6780
   21
49.6570
   73 
1
   30 
0
   40
0.6325
   7  
Text_50/1
   1  
R14
  0
POLYLINE
  8
0
   66 
1
   70 
0
 62
1
   40
0.1270
   41
0.1270
  0
VERTEX
  8
0
   10
91.4400
   20
14.7320
  0
VERTEX
  8
0
   10
96.5200
   20
14.7320
  0
VERTEX
  8
0
   10
96.5200
   20
17.2720
  0
VERTEX
  8
0
   10
91.4400
   20
17.2720
  0
VERTEX
  8
0
   10
91.4400
   20
14.7320
   0  
SEQEND
  0
POLYLINE
  8
0
   66 
1
   70 
0
 62
1
   40
0.1270
   41
0.1270
  0
VERTEX
  8
0
   10
91.4400
   20
15.3670
  0
VERTEX
  8
0
   10
91.4400
   20
14.7320
  0
VERTEX
  8
0
   10
92.0750
   20
14.7320
  0
VERTEX
  8
0
   10
91.4400
   20
15.3670
   0  
SEQEND
  0
TEXT
  8
0
   10
89.1540
   20
15.6210
   11
89.1540
   21
15.6210
   73 
1
   30 
0
   40
0.6325
   7  
Text_50/1
   1  
J13
  0
POLYLINE
  8
0
   66 
1
   70 
0
 62
1
   40
0.1270
   41
0.1270
  0
VERTEX
  8
0
   10
91.4400
   20
12.1920
  0
VERTEX
  8
0
   10
96.5200
   20
12.1920
  0
VERTEX
  8
0
   10
96.5200
   20
14.7320
  0
VERTEX
  8
0
   10
91.4400
   20
14.7320
  0
VERTEX
  8
0
   10
91.4400
   20
12.1920
   0  
SEQEND
  0
POLYLINE
  8
0
   66 
1
   70 
0
 62
1
   40
0.1270
   41
0.1270
  0
VERTEX
  8
0
   10
91.4400
   20
12.8270
  0
VERTEX
  8
0
   10
91.4400
   20
12.1920
  0
VERTEX
  8
0
   10
92.0750
   20
12.1920
  0
VERTEX
  8
0
   10
91.4400
   20
12.8270
   0  
SEQEND
  0
TEXT
  8
0
   10
89.1540
   20
13.0810
   11
89.1540
   21
13.0810
   73 
1
   30 
0
   40
0.6325
   7  
Text_50/1
   1  
J17
  0
POLYLINE
  8
0
   66 
1
   70 
0
 62
1
   40
0.1270
   41
0.1270
  0
VERTEX
  8
0
   10
31.4960
   20
29.8450
  0
VERTEX
  8
0
   10
26.4160
   20
29.8450
  0
VERTEX
  8
0
   10
26.4160
   20
27.3050
  0
VERTEX
  8
0
   10
31.4960
   20
27.3050
  0
VERTEX
  8
0
   10
31.4960
   20
29.8450
   0  
SEQEND
  0
POLYLINE
  8
0
   66 
1
   70 
0
 62
1
   40
0.1270
   41
0.1270
  0
VERTEX
  8
0
   10
31.4960
   20
29.2100
  0
VERTEX
  8
0
   10
31.4960
   20
29.8450
  0
VERTEX
  8
0
   10
30.8610
   20
29.8450
  0
VERTEX
  8
0
   10
31.4960
   20
29.2100
   0  
SEQEND
  0
TEXT
  8
0
   10
31.8770
   20
28.0670
   11
31.8770
   21
28.0670
   73 
1
   30 
0
   40
0.6325
   7  
Text_50/1
   1  
J11
  0
POLYLINE
  8
0
   66 
1
   70 
0
 62
1
   40
0.1270
   41
0.1270
  0
VERTEX
  8
0
   10
31.4960
   20
32.3850
  0
VERTEX
  8
0
   10
26.4160
   20
32.3850
  0
VERTEX
  8
0
   10
26.4160
   20
29.8450
  0
VERTEX
  8
0
   10
31.4960
   20
29.8450
  0
VERTEX
  8
0
   10
31.4960
   20
32.3850
   0  
SEQEND
  0
POLYLINE
  8
0
   66 
1
   70 
0
 62
1
   40
0.1270
   41
0.1270
  0
VERTEX
  8
0
   10
31.4960
   20
31.7500
  0
VERTEX
  8
0
   10
31.4960
   20
32.3850
  0
VERTEX
  8
0
   10
30.8610
   20
32.3850
  0
VERTEX
  8
0
   10
31.4960
   20
31.7500
   0  
SEQEND
  0
TEXT
  8
0
   10
31.8770
   20
30.6070
   11
31.8770
   21
30.6070
   73 
1
   30 
0
   40
0.6325
   7  
Text_50/1
   1  
J12
  0
POLYLINE
  8
0
   66 
1
   70 
0
 62
1
   40
0.1270
   41
0.1270
  0
VERTEX
  8
0
   10
29.4640
   20
36.8300
   42 
-1.000
  0
VERTEX
  8
0
   10
29.4640
   20
38.1000
   42 
-1.000
  0
VERTEX
  8
0
   10
29.4640
   20
36.8300
   0  
SEQEND
  0
POLYLINE
  8
0
   66 
1
   70 
0
 62
1
   40
0.1270
   41
0.1270
  0
VERTEX
  8
0
   10
29.1872
   20
36.8935
  0
VERTEX
  8
0
   10
29.7408
   20
36.8935
   0  
SEQEND
  0
POLYLINE
  8
0
   66 
1
   70 
0
 62
1
   40
0.1270
   41
0.1270
  0
VERTEX
  8
0
   10
29.0105
   20
37.0205
  0
VERTEX
  8
0
   10
29.9175
   20
37.0205
   0  
SEQEND
  0
POLYLINE
  8
0
   66 
1
   70 
0
 62
1
   40
0.1270
   41
0.1270
  0
VERTEX
  8
0
   10
28.9141
   20
37.1475
  0
VERTEX
  8
0
   10
30.0139
   20
37.1475
   0  
SEQEND
  0
POLYLINE
  8
0
   66 
1
   70 
0
 62
1
   40
0.1270
   41
0.1270
  0
VERTEX
  8
0
   10
28.8583
   20
37.2745
  0
VERTEX
  8
0
   10
30.0697
   20
37.2745
   0  
SEQEND
  0
POLYLINE
  8
0
   66 
1
   70 
0
 62
1
   40
0.1270
   41
0.1270
  0
VERTEX
  8
0
   10
28.8322
   20
37.4015
  0
VERTEX
  8
0
   10
30.0958
   20
37.4015
   0  
SEQEND
  0
POLYLINE
  8
0
   66 
1
   70 
0
 62
1
   40
0.1270
   41
0.1270
  0
VERTEX
  8
0
   10
28.8322
   20
37.5285
  0
VERTEX
  8
0
   10
30.0958
   20
37.5285
   0  
SEQEND
  0
POLYLINE
  8
0
   66 
1
   70 
0
 62
1
   40
0.1270
   41
0.1270
  0
VERTEX
  8
0
   10
28.8583
   20
37.6555
  0
VERTEX
  8
0
   10
30.0697
   20
37.6555
   0  
SEQEND
  0
POLYLINE
  8
0
   66 
1
   70 
0
 62
1
   40
0.1270
   41
0.1270
  0
VERTEX
  8
0
   10
28.9141
   20
37.7825
  0
VERTEX
  8
0
   10
30.0139
   20
37.7825
   0  
SEQEND
  0
POLYLINE
  8
0
   66 
1
   70 
0
 62
1
   40
0.1270
   41
0.1270
  0
VERTEX
  8
0
   10
29.0105
   20
37.9095
  0
VERTEX
  8
0
   10
29.9175
   20
37.9095
   0  
SEQEND
  0
POLYLINE
  8
0
   66 
1
   70 
0
 62
1
   40
0.1270
   41
0.1270
  0
VERTEX
  8
0
   10
29.1872
   20
38.0365
  0
VERTEX
  8
0
   10
29.7408
   20
38.0365
   0  
SEQEND
  0
POLYLINE
  8
0
   66 
1
   70 
0
 62
1
   40
0.0762
   41
0.0762
  0
VERTEX
  8
0
   10
26.9240
   20
40.0050
   42 
-1.000
  0
VERTEX
  8
0
   10
32.0040
   20
40.0050
   42 
-1.000
  0
VERTEX
  8
0
   10
26.9240
   20
40.0050
   0  
SEQEND
  0
TEXT
  8
0
   10
28.4480
   20
42.9260
   11
28.4480
   21
42.9260
   73 
1
   30 
0
   40
0.6325
   7  
Text_50/1
   1  
C23
  0
POLYLINE
  8
0
   66 
1
   70 
0
 62
1
   40
0.1270
   41
0.1270
  0
VERTEX
  8
0
   10
166.1160
   20
100.7110
  0
VERTEX
  8
0
   10
166.1160
   20
60.0710
  0
VERTEX
  8
0
   10
215.6460
   20
60.0710
  0
VERTEX
  8
0
   10
215.6460
   20
100.7110
  0
VERTEX
  8
0
   10
166.1160
   20
100.7110
   0  
SEQEND
  0
POLYLINE
  8
0
   66 
1
   70 
0
 62
1
   40
0.1270
   41
0.1270
  0
VERTEX
  8
0
   10
166.1160
   20
96.2660
  0
VERTEX
  8
0
   10
166.1160
   20
64.5160
  0
VERTEX
  8
0
   10
215.6460
   20
64.5160
  0
VERTEX
  8
0
   10
215.6460
   20
96.2660
  0
VERTEX
  8
0
   10
166.1160
   20
96.2660
   0  
SEQEND
  0
POLYLINE
  8
0
   66 
1
   70 
0
 62
1
   40
0.1270
   41
0.1270
  0
VERTEX
  8
0
   10
165.8620
   20
105.7910
  0
VERTEX
  8
0
   10
165.8620
   20
54.9910
  0
VERTEX
  8
0
   10
215.9000
   20
54.9910
  0
VERTEX
  8
0
   10
215.9000
   20
103.2510
  0
VERTEX
  8
0
   10
213.3600
   20
105.7910
  0
VERTEX
  8
0
   10
165.8620
   20
105.7910
   0  
SEQEND
  0
TEXT
  8
0
   10
186.5630
   20
106.5530
   11
186.5630
   21
106.5530
   73 
1
   30 
0
   40
0.6325
   7  
Text_50/1
   1  
TX3
  0
POLYLINE
  8
0
   66 
1
   70 
0
 62
1
   40
0.1270
   41
0.1270
  0
VERTEX
  8
0
   10
67.3100
   20
102.7430
  0
VERTEX
  8
0
   10
67.3100
   20
92.5830
  0
VERTEX
  8
0
   10
72.6440
   20
92.5830
  0
VERTEX
  8
0
   10
72.6440
   20
102.7430
  0
VERTEX
  8
0
   10
67.3100
   20
102.7430
   0  
SEQEND
  0
POLYLINE
  8
0
   66 
1
   70 
0
 62
1
   40
0.1270
   41
0.1270
  0
VERTEX
  8
0
   10
67.3100
   20
102.7430
  0
VERTEX
  8
0
   10
67.3100
   20
92.5830
  0
VERTEX
  8
0
   10
72.6440
   20
92.5830
  0
VERTEX
  8
0
   10
72.6440
   20
102.7430
  0
VERTEX
  8
0
   10
67.3100
   20
102.7430
   0  
SEQEND
  0
POLYLINE
  8
0
   66 
1
   70 
0
 62
1
   40
0.1270
   41
0.1270
  0
VERTEX
  8
0
   10
69.2150
   20
102.7430
  0
VERTEX
  8
0
   10
69.2150
   20
101.2190
  0
VERTEX
  8
0
   10
70.7390
   20
101.2190
  0
VERTEX
  8
0
   10
70.7390
   20
102.7430
   0  
SEQEND
  0
POLYLINE
  8
0
   66 
1
   70 
0
 62
1
   40
0.1270
   41
0.1270
  0
VERTEX
  8
0
   10
69.2150
   20
102.7430
  0
VERTEX
  8
0
   10
69.2150
   20
101.2190
  0
VERTEX
  8
0
   10
70.7390
   20
101.2190
  0
VERTEX
  8
0
   10
70.7390
   20
102.7430
   0  
SEQEND
  0
TEXT
  8
0
   10
69.0880
   20
103.6320
   11
69.0880
   21
103.6320
   73 
1
   30 
0
   40
0.6325
   7  
Text_50/1
   1  
U1
  0
TEXT
  8
0
   10
7.3660
   20
136.3980
   11
7.3660
   21
136.3980
   73 
1
   30 
0
   40
0.6325
   7  
Text_50/1
   1  
H2
  0
TEXT
  8
0
   10
127.3810
   20
12.4460
   11
127.3810
   21
12.4460
   73 
1
   30 
0
   40
0.6325
   7  
Text_50/1
   1  
H5
  0
POLYLINE
  8
0
   66 
1
   70 
0
 62
1
   40
0.1270
   41
0.1270
  0
VERTEX
  8
0
   10
142.1130
   20
12.8270
  0
VERTEX
  8
0
   10
149.7330
   20
12.8270
  0
VERTEX
  8
0
   10
149.7330
   20
15.3670
  0
VERTEX
  8
0
   10
142.1130
   20
15.3670
  0
VERTEX
  8
0
   10
142.1130
   20
12.8270
   0  
SEQEND
  0
POLYLINE
  8
0
   66 
1
   70 
0
 62
1
   40
0.1270
   41
0.1270
  0
VERTEX
  8
0
   10
142.1130
   20
12.8270
  0
VERTEX
  8
0
   10
149.7330
   20
12.8270
  0
VERTEX
  8
0
   10
149.7330
   20
15.3670
  0
VERTEX
  8
0
   10
142.1130
   20
15.3670
  0
VERTEX
  8
0
   10
142.1130
   20
12.8270
   0  
SEQEND
  0
TEXT
  8
0
   10
137.4140
   20
13.7160
   11
137.4140
   21
13.7160
   73 
1
   30 
0
   40
0.6325
   7  
Text_50/1
   1  
R17
  0
POLYLINE
  8
0
   66 
1
   70 
0
 62
1
   40
0.1270
   41
0.1270
  0
VERTEX
  8
0
   10
211.0740
   20
52.0700
  0
VERTEX
  8
0
   10
197.8660
   20
52.0700
  0
VERTEX
  8
0
   10
197.8660
   20
48.0060
  0
VERTEX
  8
0
   10
211.0740
   20
48.0060
  0
VERTEX
  8
0
   10
211.0740
   20
52.0700
   0  
SEQEND
  0
TEXT
  8
0
   10
202.8190
   20
52.7050
   11
202.8190
   21
52.7050
   73 
1
   30 
0
   40
0.6325
   7  
Text_50/1
   1  
R19
  0
POLYLINE
  8
0
   66 
1
   70 
0
 62
1
   40
0.1270
   41
0.1270
  0
VERTEX
  8
0
   10
142.1130
   20
15.7480
  0
VERTEX
  8
0
   10
149.7330
   20
15.7480
  0
VERTEX
  8
0
   10
149.7330
   20
18.2880
  0
VERTEX
  8
0
   10
142.1130
   20
18.2880
  0
VERTEX
  8
0
   10
142.1130
   20
15.7480
   0  
SEQEND
  0
POLYLINE
  8
0
   66 
1
   70 
0
 62
1
   40
0.1270
   41
0.1270
  0
VERTEX
  8
0
   10
142.1130
   20
15.7480
  0
VERTEX
  8
0
   10
149.7330
   20
15.7480
  0
VERTEX
  8
0
   10
149.7330
   20
18.2880
  0
VERTEX
  8
0
   10
142.1130
   20
18.2880
  0
VERTEX
  8
0
   10
142.1130
   20
15.7480
   0  
SEQEND
  0
TEXT
  8
0
   10
137.4140
   20
16.5100
   11
137.4140
   21
16.5100
   73 
1
   30 
0
   40
0.6325
   7  
Text_50/1
   1  
R15
  0
TEXT
  8
0
   10
215.5190
   20
43.5610
   11
215.5190
   21
43.5610
   73 
1
   30 
0
   40
0.6325
   7  
Text_50/1
   1  
HV
  0
POLYLINE
  8
0
   66 
1
   70 
0
 62
1
   40
0.1270
   41
0.1270
  0
VERTEX
  8
0
   10
171.4500
   20
48.0060
  0
VERTEX
  8
0
   10
184.6580
   20
48.0060
  0
VERTEX
  8
0
   10
184.6580
   20
52.0700
  0
VERTEX
  8
0
   10
171.4500
   20
52.0700
  0
VERTEX
  8
0
   10
171.4500
   20
48.0060
   0  
SEQEND
  0
TEXT
  8
0
   10
176.2760
   20
52.5780
   11
176.2760
   21
52.5780
   73 
1
   30 
0
   40
0.6325
   7  
Text_50/1
   1  
R11
  0
POLYLINE
  8
0
   66 
1
   70 
0
 62
1
   40
0.1270
   41
0.1270
  0
VERTEX
  8
0
   10
184.6580
   20
42.6720
  0
VERTEX
  8
0
   10
197.8660
   20
42.6720
  0
VERTEX
  8
0
   10
197.8660
   20
46.7360
  0
VERTEX
  8
0
   10
184.6580
   20
46.7360
  0
VERTEX
  8
0
   10
184.6580
   20
42.6720
   0  
SEQEND
  0
TEXT
  8
0
   10
185.2930
   20
41.2750
   11
185.2930
   21
41.2750
   73 
1
   30 
0
   40
0.6325
   7  
Text_50/1
   1  
R12
  0
POLYLINE
  8
0
   66 
1
   70 
0
 62
1
   40
0.1270
   41
0.1270
  0
VERTEX
  8
0
   10
165.6080
   20
31.1150
  0
VERTEX
  8
0
   10
165.6080
   20
23.8760
  0
VERTEX
  8
0
   10
167.8940
   20
23.8760
  0
VERTEX
  8
0
   10
167.8940
   20
31.1150
  0
VERTEX
  8
0
   10
165.6080
   20
31.1150
   0  
SEQEND
  0
TEXT
  8
0
   10
165.9890
   20
31.4960
   11
165.9890
   21
31.4960
   73 
1
   30 
0
   40
0.6325
   7  
Text_50/1
   1  
C6
  0
POLYLINE
  8
0
   66 
1
   70 
0
 62
1
   40
0.1270
   41
0.1270
  0
VERTEX
  8
0
   10
171.0690
   20
33.9090
   42 
0.414
  0
VERTEX
  8
0
   10
169.7990
   20
32.6390
  0
VERTEX
  8
0
   10
169.7990
   20
22.4790
   42 
0.414
  0
VERTEX
  8
0
   10
171.0690
   20
21.2090
  0
VERTEX
  8
0
   10
191.6430
   20
21.2090
  0
VERTEX
  8
0
   10
191.6430
   20
33.9090
  0
VERTEX
  8
0
   10
171.0690
   20
33.9090
   0  
SEQEND
  0
TEXT
  8
0
   10
174.4980
   20
19.4310
   11
174.4980
   21
19.4310
   73 
1
   30 
0
   40
0.6325
   7  
Text_50/1
   1  
U4
  0
TEXT
  8
0
   10
187.9600
   20
11.0490
   11
187.9600
   21
11.0490
   73 
1
   30 
0
   40
0.6325
   7  
Text_50/1
   1  
HVRTN
  0
POLYLINE
  8
0
   66 
1
   70 
0
 62
1
   40
0.1270
   41
0.1270
  0
VERTEX
  8
0
   10
57.5310
   20
108.0770
  0
VERTEX
  8
0
   10
57.5310
   20
113.1570
  0
VERTEX
  8
0
   10
54.9910
   20
113.1570
  0
VERTEX
  8
0
   10
54.9910
   20
108.0770
  0
VERTEX
  8
0
   10
57.5310
   20
108.0770
   0  
SEQEND
  0
POLYLINE
  8
0
   66 
1
   70 
0
 62
1
   40
0.1270
   41
0.1270
  0
VERTEX
  8
0
   10
56.8960
   20
108.0770
  0
VERTEX
  8
0
   10
57.5310
   20
108.0770
  0
VERTEX
  8
0
   10
57.5310
   20
108.7120
  0
VERTEX
  8
0
   10
56.8960
   20
108.0770
   0  
SEQEND
  0
TEXT
  8
0
   10
55.3720
   20
106.8070
   11
55.3720
   21
106.8070
   73 
1
   30 
0
   40
0.6325
   7  
Text_50/1
   1  
J14
  0
POLYLINE
  8
0
   66 
1
   70 
0
 62
1
   40
0.0762
   41
0.0762
  0
VERTEX
  8
0
   10
89.9160
   20
101.2190
  0
VERTEX
  8
0
   10
89.1540
   20
100.8380
  0
VERTEX
  8
0
   10
89.1540
   20
95.2500
  0
VERTEX
  8
0
   10
89.9160
   20
94.8690
   0  
SEQEND
  0
POLYLINE
  8
0
   66 
1
   70 
0
 62
1
   40
0.0762
   41
0.0762
  0
VERTEX
  8
0
   10
91.1860
   20
101.2190
   42 
-0.759
  0
VERTEX
  8
0
   10
91.1860
   20
94.8690
   0  
SEQEND
  0
TEXT
  8
0
   10
90.0430
   20
93.4720
   11
90.0430
   21
93.4720
   73 
1
   30 
0
   40
0.6325
   7  
Text_50/1
   1  
Q3
  0
POLYLINE
  8
0
   66 
1
   70 
0
 62
1
   40
0.1270
   41
0.1270
  0
VERTEX
  8
0
   10
84.8360
   20
78.9940
   42 
-1.000
  0
VERTEX
  8
0
   10
84.8360
   20
80.2640
   42 
-1.000
  0
VERTEX
  8
0
   10
84.8360
   20
78.9940
   0  
SEQEND
  0
POLYLINE
  8
0
   66 
1
   70 
0
 62
1
   40
0.1270
   41
0.1270
  0
VERTEX
  8
0
   10
84.5592
   20
79.0575
  0
VERTEX
  8
0
   10
85.1128
   20
79.0575
   0  
SEQEND
  0
POLYLINE
  8
0
   66 
1
   70 
0
 62
1
   40
0.1270
   41
0.1270
  0
VERTEX
  8
0
   10
84.3825
   20
79.1845
  0
VERTEX
  8
0
   10
85.2895
   20
79.1845
   0  
SEQEND
  0
POLYLINE
  8
0
   66 
1
   70 
0
 62
1
   40
0.1270
   41
0.1270
  0
VERTEX
  8
0
   10
84.2861
   20
79.3115
  0
VERTEX
  8
0
   10
85.3859
   20
79.3115
   0  
SEQEND
  0
POLYLINE
  8
0
   66 
1
   70 
0
 62
1
   40
0.1270
   41
0.1270
  0
VERTEX
  8
0
   10
84.2302
   20
79.4385
  0
VERTEX
  8
0
   10
85.4417
   20
79.4385
   0  
SEQEND
  0
POLYLINE
  8
0
   66 
1
   70 
0
 62
1
   40
0.1270
   41
0.1270
  0
VERTEX
  8
0
   10
84.2042
   20
79.5655
  0
VERTEX
  8
0
   10
85.4678
   20
79.5655
   0  
SEQEND
  0
POLYLINE
  8
0
   66 
1
   70 
0
 62
1
   40
0.1270
   41
0.1270
  0
VERTEX
  8
0
   10
84.2042
   20
79.6925
  0
VERTEX
  8
0
   10
85.4678
   20
79.6925
   0  
SEQEND
  0
POLYLINE
  8
0
   66 
1
   70 
0
 62
1
   40
0.1270
   41
0.1270
  0
VERTEX
  8
0
   10
84.2302
   20
79.8195
  0
VERTEX
  8
0
   10
85.4417
   20
79.8195
   0  
SEQEND
  0
POLYLINE
  8
0
   66 
1
   70 
0
 62
1
   40
0.1270
   41
0.1270
  0
VERTEX
  8
0
   10
84.2861
   20
79.9465
  0
VERTEX
  8
0
   10
85.3859
   20
79.9465
   0  
SEQEND
  0
POLYLINE
  8
0
   66 
1
   70 
0
 62
1
   40
0.1270
   41
0.1270
  0
VERTEX
  8
0
   10
84.3825
   20
80.0735
  0
VERTEX
  8
0
   10
85.2895
   20
80.0735
   0  
SEQEND
  0
POLYLINE
  8
0
   66 
1
   70 
0
 62
1
   40
0.1270
   41
0.1270
  0
VERTEX
  8
0
   10
84.5592
   20
80.2005
  0
VERTEX
  8
0
   10
85.1128
   20
80.2005
   0  
SEQEND
  0
POLYLINE
  8
0
   66 
1
   70 
0
 62
1
   40
0.0762
   41
0.0762
  0
VERTEX
  8
0
   10
82.2960
   20
82.1690
   42 
-1.000
  0
VERTEX
  8
0
   10
87.3760
   20
82.1690
   42 
-1.000
  0
VERTEX
  8
0
   10
82.2960
   20
82.1690
   0  
SEQEND
  0
TEXT
  8
0
   10
83.8200
   20
85.0900
   11
83.8200
   21
85.0900
   73 
1
   30 
0
   40
0.6325
   7  
Text_50/1
   1  
C16
  0
POLYLINE
  8
0
   66 
1
   70 
0
 62
1
   40
0.1270
   41
0.1270
  0
VERTEX
  8
0
   10
88.3920
   20
79.6290
  0
VERTEX
  8
0
   10
93.4720
   20
79.6290
  0
VERTEX
  8
0
   10
93.4720
   20
82.1690
  0
VERTEX
  8
0
   10
88.3920
   20
82.1690
  0
VERTEX
  8
0
   10
88.3920
   20
79.6290
   0  
SEQEND
  0
POLYLINE
  8
0
   66 
1
   70 
0
 62
1
   40
0.1270
   41
0.1270
  0
VERTEX
  8
0
   10
88.3920
   20
80.2640
  0
VERTEX
  8
0
   10
88.3920
   20
79.6290
  0
VERTEX
  8
0
   10
89.0270
   20
79.6290
  0
VERTEX
  8
0
   10
88.3920
   20
80.2640
   0  
SEQEND
  0
TEXT
  8
0
   10
92.0750
   20
78.4860
   11
92.0750
   21
78.4860
   73 
1
   30 
0
   40
0.6325
   7  
Text_50/1
   1  
J6
  0
POLYLINE
  8
0
   66 
1
   70 
0
 62
1
   40
0.1270
   41
0.1270
  0
VERTEX
  8
0
   10
79.6290
   20
78.1050
  0
VERTEX
  8
0
   10
79.6290
   20
70.4850
  0
VERTEX
  8
0
   10
82.1690
   20
70.4850
  0
VERTEX
  8
0
   10
82.1690
   20
78.1050
  0
VERTEX
  8
0
   10
79.6290
   20
78.1050
   0  
SEQEND
  0
POLYLINE
  8
0
   66 
1
   70 
0
 62
1
   40
0.1270
   41
0.1270
  0
VERTEX
  8
0
   10
79.6290
   20
78.1050
  0
VERTEX
  8
0
   10
79.6290
   20
70.4850
  0
VERTEX
  8
0
   10
82.1690
   20
70.4850
  0
VERTEX
  8
0
   10
82.1690
   20
78.1050
  0
VERTEX
  8
0
   10
79.6290
   20
78.1050
   0  
SEQEND
  0
TEXT
  8
0
   10
80.2640
   20
67.0560
   11
80.2640
   21
67.0560
   73 
1
   30 
0
   40
0.6325
   7  
Text_50/1
   1  
R4
  0
POLYLINE
  8
0
   66 
1
   70 
0
 62
1
   40
0.1270
   41
0.1270
  0
VERTEX
  8
0
   10
77.4700
   20
101.8540
   42 
-1.000
  0
VERTEX
  8
0
   10
77.4700
   20
103.1240
   42 
-1.000
  0
VERTEX
  8
0
   10
77.4700
   20
101.8540
   0  
SEQEND
  0
POLYLINE
  8
0
   66 
1
   70 
0
 62
1
   40
0.1270
   41
0.1270
  0
VERTEX
  8
0
   10
77.1932
   20
101.9175
  0
VERTEX
  8
0
   10
77.7468
   20
101.9175
   0  
SEQEND
  0
POLYLINE
  8
0
   66 
1
   70 
0
 62
1
   40
0.1270
   41
0.1270
  0
VERTEX
  8
0
   10
77.0165
   20
102.0445
  0
VERTEX
  8
0
   10
77.9235
   20
102.0445
   0  
SEQEND
  0
POLYLINE
  8
0
   66 
1
   70 
0
 62
1
   40
0.1270
   41
0.1270
  0
VERTEX
  8
0
   10
76.9201
   20
102.1715
  0
VERTEX
  8
0
   10
78.0199
   20
102.1715
   0  
SEQEND
  0
POLYLINE
  8
0
   66 
1
   70 
0
 62
1
   40
0.1270
   41
0.1270
  0
VERTEX
  8
0
   10
76.8642
   20
102.2985
  0
VERTEX
  8
0
   10
78.0757
   20
102.2985
   0  
SEQEND
  0
POLYLINE
  8
0
   66 
1
   70 
0
 62
1
   40
0.1270
   41
0.1270
  0
VERTEX
  8
0
   10
76.8382
   20
102.4255
  0
VERTEX
  8
0
   10
78.1018
   20
102.4255
   0  
SEQEND
  0
POLYLINE
  8
0
   66 
1
   70 
0
 62
1
   40
0.1270
   41
0.1270
  0
VERTEX
  8
0
   10
76.8382
   20
102.5525
  0
VERTEX
  8
0
   10
78.1018
   20
102.5525
   0  
SEQEND
  0
POLYLINE
  8
0
   66 
1
   70 
0
 62
1
   40
0.1270
   41
0.1270
  0
VERTEX
  8
0
   10
76.8642
   20
102.6795
  0
VERTEX
  8
0
   10
78.0757
   20
102.6795
   0  
SEQEND
  0
POLYLINE
  8
0
   66 
1
   70 
0
 62
1
   40
0.1270
   41
0.1270
  0
VERTEX
  8
0
   10
76.9201
   20
102.8065
  0
VERTEX
  8
0
   10
78.0199
   20
102.8065
   0  
SEQEND
  0
POLYLINE
  8
0
   66 
1
   70 
0
 62
1
   40
0.1270
   41
0.1270
  0
VERTEX
  8
0
   10
77.0165
   20
102.9335
  0
VERTEX
  8
0
   10
77.9235
   20
102.9335
   0  
SEQEND
  0
POLYLINE
  8
0
   66 
1
   70 
0
 62
1
   40
0.1270
   41
0.1270
  0
VERTEX
  8
0
   10
77.1932
   20
103.0605
  0
VERTEX
  8
0
   10
77.7468
   20
103.0605
   0  
SEQEND
  0
POLYLINE
  8
0
   66 
1
   70 
0
 62
1
   40
0.0762
   41
0.0762
  0
VERTEX
  8
0
   10
74.9300
   20
105.0290
   42 
-1.000
  0
VERTEX
  8
0
   10
80.0100
   20
105.0290
   42 
-1.000
  0
VERTEX
  8
0
   10
74.9300
   20
105.0290
   0  
SEQEND
  0
TEXT
  8
0
   10
74.0410
   20
106.9340
   11
74.0410
   21
106.9340
   73 
1
   30 
0
   40
0.6325
   7  
Text_50/1
   1  
C9
  0
POLYLINE
  8
0
   66 
1
   70 
0
 62
1
   40
0.1270
   41
0.1270
  0
VERTEX
  8
0
   10
56.1340
   20
97.6630
  0
VERTEX
  8
0
   10
61.2140
   20
97.6630
  0
VERTEX
  8
0
   10
61.2140
   20
100.2030
  0
VERTEX
  8
0
   10
56.1340
   20
100.2030
  0
VERTEX
  8
0
   10
56.1340
   20
97.6630
   0  
SEQEND
  0
POLYLINE
  8
0
   66 
1
   70 
0
 62
1
   40
0.1270
   41
0.1270
  0
VERTEX
  8
0
   10
56.1340
   20
98.2980
  0
VERTEX
  8
0
   10
56.1340
   20
97.6630
  0
VERTEX
  8
0
   10
56.7690
   20
97.6630
  0
VERTEX
  8
0
   10
56.1340
   20
98.2980
   0  
SEQEND
  0
TEXT
  8
0
   10
54.4830
   20
98.5520
   11
54.4830
   21
98.5520
   73 
1
   30 
0
   40
0.6325
   7  
Text_50/1
   1  
J3
  0
POLYLINE
  8
0
   66 
1
   70 
0
 62
1
   40
0.1270
   41
0.1270
  0
VERTEX
  8
0
   10
24.1300
   20
110.7948
  0
VERTEX
  8
0
   10
26.1620
   20
110.7948
   0  
SEQEND
  0
POLYLINE
  8
0
   66 
1
   70 
0
 62
1
   40
0.1270
   41
0.1270
  0
VERTEX
  8
0
   10
21.4630
   20
110.7948
  0
VERTEX
  8
0
   10
21.7170
   20
110.1598
  0
VERTEX
  8
0
   10
22.0980
   20
111.4298
  0
VERTEX
  8
0
   10
22.4790
   20
110.1598
  0
VERTEX
  8
0
   10
22.9870
   20
111.4298
  0
VERTEX
  8
0
   10
23.3680
   20
110.1598
  0
VERTEX
  8
0
   10
23.8760
   20
111.4298
  0
VERTEX
  8
0
   10
24.1300
   20
110.7948
   0  
SEQEND
  0
POLYLINE
  8
0
   66 
1
   70 
0
 62
1
   40
0.1270
   41
0.1270
  0
VERTEX
  8
0
   10
21.4630
   20
110.7948
  0
VERTEX
  8
0
   10
19.8120
   20
110.7948
   0  
SEQEND
  0
POLYLINE
  8
0
   66 
1
   70 
0
 62
1
   40
0.1270
   41
0.1270
  0
VERTEX
  8
0
   10
21.7170
   20
109.5248
   42 
-0.414
  0
VERTEX
  8
0
   10
21.0820
   20
110.1598
  0
VERTEX
  8
0
   10
21.0820
   20
111.4298
   42 
-0.414
  0
VERTEX
  8
0
   10
21.7170
   20
112.0648
  0
VERTEX
  8
0
   10
24.0030
   20
112.0648
   42 
-0.414
  0
VERTEX
  8
0
   10
24.6380
   20
111.4298
  0
VERTEX
  8
0
   10
24.6380
   20
110.1598
   42 
-0.414
  0
VERTEX
  8
0
   10
24.0030
   20
109.5248
  0
VERTEX
  8
0
   10
21.7170
   20
109.5248
   0  
SEQEND
  0
POLYLINE
  8
0
   66 
1
   70 
0
 62
1
   40
0.1270
   41
0.1270
  0
VERTEX
  8
0
   10
18.4150
   20
108.5088
  0
VERTEX
  8
0
   10
27.4320
   20
108.5088
  0
VERTEX
  8
0
   10
27.4320
   20
112.9538
  0
VERTEX
  8
0
   10
18.4150
   20
112.9538
  0
VERTEX
  8
0
   10
18.4150
   20
108.5088
   0  
SEQEND
  0
TEXT
  8
0
   10
21.9710
   20
106.7308
   11
21.9710
   21
106.7308
   73 
1
   30 
0
   40
0.6325
   7  
Text_50/1
   1  
RT1
  0
POLYLINE
  8
0
   66 
1
   70 
0
 62
1
   40
0.1270
   41
0.1270
  0
VERTEX
  8
0
   10
29.3370
   20
131.4958
  0
VERTEX
  8
0
   10
29.3370
   20
118.2878
  0
VERTEX
  8
0
   10
33.4010
   20
118.2878
  0
VERTEX
  8
0
   10
33.4010
   20
131.4958
  0
VERTEX
  8
0
   10
29.3370
   20
131.4958
   0  
SEQEND
  0
TEXT
  8
0
   10
30.3530
   20
113.7920
   11
30.3530
   21
113.7920
   73 
1
   30 
0
   40
0.6325
   7  
Text_50/1
   1  
R20
  0
POLYLINE
  8
0
   66 
1
   70 
0
 62
1
   40
0.1270
   41
0.1270
  0
VERTEX
  8
0
   10
87.2490
   20
88.3920
   42 
-1.000
  0
VERTEX
  8
0
   10
87.2490
   20
89.6620
   42 
-1.000
  0
VERTEX
  8
0
   10
87.2490
   20
88.3920
   0  
SEQEND
  0
POLYLINE
  8
0
   66 
1
   70 
0
 62
1
   40
0.1270
   41
0.1270
  0
VERTEX
  8
0
   10
86.9722
   20
88.4555
  0
VERTEX
  8
0
   10
87.5258
   20
88.4555
   0  
SEQEND
  0
POLYLINE
  8
0
   66 
1
   70 
0
 62
1
   40
0.1270
   41
0.1270
  0
VERTEX
  8
0
   10
86.7955
   20
88.5825
  0
VERTEX
  8
0
   10
87.7025
   20
88.5825
   0  
SEQEND
  0
POLYLINE
  8
0
   66 
1
   70 
0
 62
1
   40
0.1270
   41
0.1270
  0
VERTEX
  8
0
   10
86.6991
   20
88.7095
  0
VERTEX
  8
0
   10
87.7989
   20
88.7095
   0  
SEQEND
  0
POLYLINE
  8
0
   66 
1
   70 
0
 62
1
   40
0.1270
   41
0.1270
  0
VERTEX
  8
0
   10
86.6432
   20
88.8365
  0
VERTEX
  8
0
   10
87.8547
   20
88.8365
   0  
SEQEND
  0
POLYLINE
  8
0
   66 
1
   70 
0
 62
1
   40
0.1270
   41
0.1270
  0
VERTEX
  8
0
   10
86.6172
   20
88.9635
  0
VERTEX
  8
0
   10
87.8808
   20
88.9635
   0  
SEQEND
  0
POLYLINE
  8
0
   66 
1
   70 
0
 62
1
   40
0.1270
   41
0.1270
  0
VERTEX
  8
0
   10
86.6172
   20
89.0905
  0
VERTEX
  8
0
   10
87.8808
   20
89.0905
   0  
SEQEND
  0
POLYLINE
  8
0
   66 
1
   70 
0
 62
1
   40
0.1270
   41
0.1270
  0
VERTEX
  8
0
   10
86.6432
   20
89.2175
  0
VERTEX
  8
0
   10
87.8547
   20
89.2175
   0  
SEQEND
  0
POLYLINE
  8
0
   66 
1
   70 
0
 62
1
   40
0.1270
   41
0.1270
  0
VERTEX
  8
0
   10
86.6991
   20
89.3445
  0
VERTEX
  8
0
   10
87.7989
   20
89.3445
   0  
SEQEND
  0
POLYLINE
  8
0
   66 
1
   70 
0
 62
1
   40
0.1270
   41
0.1270
  0
VERTEX
  8
0
   10
86.7955
   20
89.4715
  0
VERTEX
  8
0
   10
87.7025
   20
89.4715
   0  
SEQEND
  0
POLYLINE
  8
0
   66 
1
   70 
0
 62
1
   40
0.1270
   41
0.1270
  0
VERTEX
  8
0
   10
86.9722
   20
89.5985
  0
VERTEX
  8
0
   10
87.5258
   20
89.5985
   0  
SEQEND
  0
POLYLINE
  8
0
   66 
1
   70 
0
 62
1
   40
0.0762
   41
0.0762
  0
VERTEX
  8
0
   10
84.7090
   20
91.5670
   42 
-1.000
  0
VERTEX
  8
0
   10
89.7890
   20
91.5670
   42 
-1.000
  0
VERTEX
  8
0
   10
84.7090
   20
91.5670
   0  
SEQEND
  0
TEXT
  8
0
   10
90.1700
   20
90.8050
   11
90.1700
   21
90.8050
   73 
1
   30 
0
   40
0.6325
   7  
Text_50/1
   1  
C13
  0
POLYLINE
  8
0
   66 
1
   70 
0
 62
1
   40
0.1270
   41
0.1270
  0
VERTEX
  8
0
   10
88.3920
   20
102.4890
  0
VERTEX
  8
0
   10
93.4720
   20
102.4890
  0
VERTEX
  8
0
   10
93.4720
   20
105.0290
  0
VERTEX
  8
0
   10
88.3920
   20
105.0290
  0
VERTEX
  8
0
   10
88.3920
   20
102.4890
   0  
SEQEND
  0
POLYLINE
  8
0
   66 
1
   70 
0
 62
1
   40
0.1270
   41
0.1270
  0
VERTEX
  8
0
   10
88.3920
   20
103.1240
  0
VERTEX
  8
0
   10
88.3920
   20
102.4890
  0
VERTEX
  8
0
   10
89.0270
   20
102.4890
  0
VERTEX
  8
0
   10
88.3920
   20
103.1240
   0  
SEQEND
  0
TEXT
  8
0
   10
92.2020
   20
101.2190
   11
92.2020
   21
101.2190
   73 
1
   30 
0
   40
0.6325
   7  
Text_50/1
   1  
J5
  0
POLYLINE
  8
0
   66 
1
   70 
0
 62
1
   40
0.0762
   41
0.0762
  0
VERTEX
  8
0
   10
84.0740
   20
78.3590
  0
VERTEX
  8
0
   10
83.3120
   20
77.9780
  0
VERTEX
  8
0
   10
83.3120
   20
72.3900
  0
VERTEX
  8
0
   10
84.0740
   20
72.0090
   0  
SEQEND
  0
POLYLINE
  8
0
   66 
1
   70 
0
 62
1
   40
0.0762
   41
0.0762
  0
VERTEX
  8
0
   10
85.3440
   20
78.3590
   42 
-0.759
  0
VERTEX
  8
0
   10
85.3440
   20
72.0090
   0  
SEQEND
  0
TEXT
  8
0
   10
83.8200
   20
70.6120
   11
83.8200
   21
70.6120
   73 
1
   30 
0
   40
0.6325
   7  
Text_50/1
   1  
Q2
  0
POLYLINE
  8
0
   66 
1
   70 
0
 62
1
   40
0.1270
   41
0.1270
  0
VERTEX
  8
0
   10
52.4510
   20
118.8720
   42 
-0.414
  0
VERTEX
  8
0
   10
51.1810
   20
120.1420
  0
VERTEX
  8
0
   10
51.1810
   20
134.3660
   42 
-0.414
  0
VERTEX
  8
0
   10
52.4510
   20
135.6360
  0
VERTEX
  8
0
   10
66.6750
   20
135.6360
   42 
-0.414
  0
VERTEX
  8
0
   10
67.9450
   20
134.3660
  0
VERTEX
  8
0
   10
67.9450
   20
120.1420
   42 
-0.414
  0
VERTEX
  8
0
   10
66.6750
   20
118.8720
  0
VERTEX
  8
0
   10
52.4510
   20
118.8720
   0  
SEQEND
  0
POLYLINE
  8
0
   66 
1
   70 
0
 62
1
   40
0.0762
   41
0.0762
  0
VERTEX
  8
0
   10
57.7850
   20
124.7140
   42 
-1.999
  0
VERTEX
  8
0
   10
59.0550
   20
124.7140
   0  
SEQEND
  0
POLYLINE
  8
0
   66 
1
   70 
0
 62
1
   40
0.0762
   41
0.0762
  0
VERTEX
  8
0
   10
59.0550
   20
124.7140
   42 
-1.999
  0
VERTEX
  8
0
   10
60.3250
   20
124.7140
   0  
SEQEND
  0
POLYLINE
  8
0
   66 
1
   70 
0
 62
1
   40
0.0762
   41
0.0762
  0
VERTEX
  8
0
   10
60.3250
   20
124.7140
   42 
-1.999
  0
VERTEX
  8
0
   10
61.5950
   20
124.7140
   0  
SEQEND
  0
POLYLINE
  8
0
   66 
1
   70 
0
 62
1
   40
0.0762
   41
0.0762
  0
VERTEX
  8
0
   10
57.7850
   20
124.7140
  0
VERTEX
  8
0
   10
54.4830
   20
124.7140
  0
VERTEX
  8
0
   10
54.4830
   20
122.0470
   0  
SEQEND
  0
POLYLINE
  8
0
   66 
1
   70 
0
 62
1
   40
0.0762
   41
0.0762
  0
VERTEX
  8
0
   10
61.5950
   20
124.7140
  0
VERTEX
  8
0
   10
64.6430
   20
124.7140
  0
VERTEX
  8
0
   10
64.6430
   20
121.9200
   0  
SEQEND
  0
POLYLINE
  8
0
   66 
1
   70 
0
 62
1
   40
0.0762
   41
0.0762
  0
VERTEX
  8
0
   10
60.3250
   20
129.7940
   42 
-1.999
  0
VERTEX
  8
0
   10
59.0550
   20
129.7940
   0  
SEQEND
  0
POLYLINE
  8
0
   66 
1
   70 
0
 62
1
   40
0.0762
   41
0.0762
  0
VERTEX
  8
0
   10
59.0550
   20
129.7940
   42 
-1.999
  0
VERTEX
  8
0
   10
57.7850
   20
129.7940
   0  
SEQEND
  0
POLYLINE
  8
0
   66 
1
   70 
0
 62
1
   40
0.0762
   41
0.0762
  0
VERTEX
  8
0
   10
61.5950
   20
129.7940
   42 
-1.999
  0
VERTEX
  8
0
   10
60.3250
   20
129.7940
   0  
SEQEND
  0
POLYLINE
  8
0
   66 
1
   70 
0
 62
1
   40
0.0762
   41
0.0762
  0
VERTEX
  8
0
   10
57.7850
   20
129.7940
  0
VERTEX
  8
0
   10
54.4830
   20
129.7940
  0
VERTEX
  8
0
   10
54.4830
   20
132.4610
   0  
SEQEND
  0
POLYLINE
  8
0
   66 
1
   70 
0
 62
1
   40
0.0762
   41
0.0762
  0
VERTEX
  8
0
   10
61.4680
   20
129.7940
  0
VERTEX
  8
0
   10
64.6430
   20
129.7940
  0
VERTEX
  8
0
   10
64.6430
   20
132.4610
   0  
SEQEND
  0
POLYLINE
  8
0
   66 
1
   70 
0
 62
1
   40
0.0762
   41
0.0762
  0
VERTEX
  8
0
   10
54.4830
   20
126.6190
  0
VERTEX
  8
0
   10
64.6430
   20
126.6190
   0  
SEQEND
  0
POLYLINE
  8
0
   66 
1
   70 
0
 62
1
   40
0.0762
   41
0.0762
  0
VERTEX
  8
0
   10
54.4830
   20
127.8890
  0
VERTEX
  8
0
   10
64.6430
   20
127.8890
   0  
SEQEND
  0
TEXT
  8
0
   10
58.1660
   20
136.7790
   11
58.1660
   21
136.7790
   73 
1
   30 
0
   40
0.6325
   7  
Text_50/1
   1  
LF1
  0
POLYLINE
  8
0
   66 
1
   70 
0
 62
1
   40
0.1270
   41
0.1270
  0
VERTEX
  8
0
   10
96.5200
   20
133.9088
   42 
0.414
  0
VERTEX
  8
0
   10
94.4880
   20
131.8768
  0
VERTEX
  8
0
   10
94.4880
   20
118.2878
   42 
0.414
  0
VERTEX
  8
0
   10
96.3930
   20
116.3828
  0
VERTEX
  8
0
   10
97.6630
   20
116.3828
   42 
0.414
  0
VERTEX
  8
0
   10
99.5680
   20
118.2878
  0
VERTEX
  8
0
   10
99.5680
   20
131.8768
   42 
0.414
  0
VERTEX
  8
0
   10
97.5360
   20
133.9088
  0
VERTEX
  8
0
   10
96.5200
   20
133.9088
   0  
SEQEND
  0
TEXT
  8
0
   10
96.3930
   20
114.6810
   11
96.3930
   21
114.6810
   73 
1
   30 
0
   40
0.6325
   7  
Text_50/1
   1  
C5
  0
POLYLINE
  8
0
   66 
1
   70 
0
 62
1
   40
0.1270
   41
0.1270
  0
VERTEX
  8
0
   10
61.3410
   20
108.0770
  0
VERTEX
  8
0
   10
61.3410
   20
113.1570
  0
VERTEX
  8
0
   10
58.8010
   20
113.1570
  0
VERTEX
  8
0
   10
58.8010
   20
108.0770
  0
VERTEX
  8
0
   10
61.3410
   20
108.0770
   0  
SEQEND
  0
POLYLINE
  8
0
   66 
1
   70 
0
 62
1
   40
0.1270
   41
0.1270
  0
VERTEX
  8
0
   10
60.7060
   20
108.0770
  0
VERTEX
  8
0
   10
61.3410
   20
108.0770
  0
VERTEX
  8
0
   10
61.3410
   20
108.7120
  0
VERTEX
  8
0
   10
60.7060
   20
108.0770
   0  
SEQEND
  0
TEXT
  8
0
   10
59.1820
   20
106.8070
   11
59.1820
   21
106.8070
   73 
1
   30 
0
   40
0.6325
   7  
Text_50/1
   1  
J15
  0
POLYLINE
  8
0
   66 
1
   70 
0
 62
1
   40
0.1270
   41
0.1270
  0
VERTEX
  8
0
   10
200.2790
   20
131.8260
  0
VERTEX
  8
0
   10
200.2790
   20
115.3160
  0
VERTEX
  8
0
   10
205.8670
   20
115.3160
  0
VERTEX
  8
0
   10
205.8670
   20
131.8260
  0
VERTEX
  8
0
   10
200.2790
   20
131.8260
   0  
SEQEND
  0
POLYLINE
  8
0
   66 
1
   70 
0
 62
1
   40
0.1270
   41
0.1270
  0
VERTEX
  8
0
   10
200.2790
   20
131.8260
  0
VERTEX
  8
0
   10
200.2790
   20
115.3160
  0
VERTEX
  8
0
   10
205.8670
   20
115.3160
  0
VERTEX
  8
0
   10
205.8670
   20
131.8260
  0
VERTEX
  8
0
   10
200.2790
   20
131.8260
   0  
SEQEND
  0
TEXT
  8
0
   10
202.0570
   20
135.2550
   11
202.0570
   21
135.2550
   73 
1
   30 
0
   40
0.6325
   7  
Text_50/1
   1  
R10
  0
POLYLINE
  8
0
   66 
1
   70 
0
 62
1
   40
0.1270
   41
0.1270
  0
VERTEX
  8
0
   10
191.7700
   20
136.5250
   42 
0.414
  0
VERTEX
  8
0
   10
189.2300
   20
133.9850
  0
VERTEX
  8
0
   10
189.2300
   20
113.0300
   42 
0.414
  0
VERTEX
  8
0
   10
191.7700
   20
110.4900
  0
VERTEX
  8
0
   10
195.5800
   20
110.4900
   42 
0.414
  0
VERTEX
  8
0
   10
198.1200
   20
113.0300
  0
VERTEX
  8
0
   10
198.1200
   20
133.9850
   42 
0.414
  0
VERTEX
  8
0
   10
195.5800
   20
136.5250
  0
VERTEX
  8
0
   10
191.7700
   20
136.5250
   0  
SEQEND
  0
TEXT
  8
0
   10
192.4050
   20
138.3030
   11
192.4050
   21
138.3030
   73 
1
   30 
0
   40
0.6325
   7  
Text_50/1
   1  
C18
  0
POLYLINE
  8
0
   66 
1
   70 
0
 62
1
   40
0.1270
   41
0.1270
  0
VERTEX
  8
0
   10
123.8250
   20
97.7900
  0
VERTEX
  8
0
   10
123.8250
   20
90.1700
  0
VERTEX
  8
0
   10
126.3650
   20
90.1700
  0
VERTEX
  8
0
   10
126.3650
   20
97.7900
  0
VERTEX
  8
0
   10
123.8250
   20
97.7900
   0  
SEQEND
  0
POLYLINE
  8
0
   66 
1
   70 
0
 62
1
   40
0.1270
   41
0.1270
  0
VERTEX
  8
0
   10
123.8250
   20
97.7900
  0
VERTEX
  8
0
   10
123.8250
   20
90.1700
  0
VERTEX
  8
0
   10
126.3650
   20
90.1700
  0
VERTEX
  8
0
   10
126.3650
   20
97.7900
  0
VERTEX
  8
0
   10
123.8250
   20
97.7900
   0  
SEQEND
  0
TEXT
  8
0
   10
124.4600
   20
86.6140
   11
124.4600
   21
86.6140
   73 
1
   30 
0
   40
0.6325
   7  
Text_50/1
   1  
R7
  0
POLYLINE
  8
0
   66 
1
   70 
0
 62
1
   40
0.1270
   41
0.1270
  0
VERTEX
  8
0
   10
127.7620
   20
105.5370
  0
VERTEX
  8
0
   10
132.8420
   20
105.5370
  0
VERTEX
  8
0
   10
132.8420
   20
108.0770
  0
VERTEX
  8
0
   10
127.7620
   20
108.0770
  0
VERTEX
  8
0
   10
127.7620
   20
105.5370
   0  
SEQEND
  0
POLYLINE
  8
0
   66 
1
   70 
0
 62
1
   40
0.1270
   41
0.1270
  0
VERTEX
  8
0
   10
127.7620
   20
106.1720
  0
VERTEX
  8
0
   10
127.7620
   20
105.5370
  0
VERTEX
  8
0
   10
128.3970
   20
105.5370
  0
VERTEX
  8
0
   10
127.7620
   20
106.1720
   0  
SEQEND
  0
TEXT
  8
0
   10
126.1110
   20
106.4260
   11
126.1110
   21
106.4260
   73 
1
   30 
0
   40
0.6325
   7  
Text_50/1
   1  
J1
  0
POLYLINE
  8
0
   66 
1
   70 
0
 62
1
   40
0.1270
   41
0.1270
  0
VERTEX
  8
0
   10
220.4720
   20
108.3310
  0
VERTEX
  8
0
   10
210.8200
   20
108.3310
  0
VERTEX
  8
0
   10
210.8200
   20
129.4130
  0
VERTEX
  8
0
   10
220.4720
   20
129.4130
  0
VERTEX
  8
0
   10
220.4720
   20
108.3310
   0  
SEQEND
  0
POLYLINE
  8
0
   66 
1
   70 
0
 62
1
   40
0.1270
   41
0.1270
  0
VERTEX
  8
0
   10
220.4720
   20
108.3310
  0
VERTEX
  8
0
   10
218.8210
   20
108.3310
  0
VERTEX
  8
0
   10
218.8210
   20
129.4130
  0
VERTEX
  8
0
   10
220.4720
   20
129.4130
  0
VERTEX
  8
0
   10
220.4720
   20
108.3310
   0  
SEQEND
  0
TEXT
  8
0
   10
215.1380
   20
130.3020
   11
215.1380
   21
130.3020
   73 
1
   30 
0
   40
0.6325
   7  
Text_50/1
   1  
P2
  0
POLYLINE
  8
0
   66 
1
   70 
0
 62
1
   40
0.1270
   41
0.1270
  0
VERTEX
  8
0
   10
49.9110
   20
103.5050
  0
VERTEX
  8
0
   10
49.9110
   20
47.6250
  0
VERTEX
  8
0
   10
47.8790
   20
45.5930
  0
VERTEX
  8
0
   10
4.8260
   20
45.5930
  0
VERTEX
  8
0
   10
4.8260
   20
103.5050
  0
VERTEX
  8
0
   10
49.9110
   20
103.5050
   0  
SEQEND
  0
TEXT
  8
0
   10
21.2090
   20
47.8790
   11
21.2090
   21
47.8790
   73 
1
 62
1
   40
1.0541
   41 
1.000
   39
0.2032
   1  
GND
 50
180.0000
  0
TEXT
  8
0
   10
12.3190
   20
47.8790
   11
12.3190
   21
47.8790
   73 
1
 62
1
   40
1.0541
   41 
1.000
   39
0.2032
   1  
O1
 50
180.0000
  0
TEXT
  8
0
   10
41.5290
   20
84.3280
   11
41.5290
   21
84.3280
   73 
1
 62
1
   40
1.5812
   41 
1.000
   39
0.3048
   1  
FSD10-TRIPLE
 50
270.0000
  0
TEXT
  8
0
   10
46.6090
   20
102.7430
   11
46.6090
   21
102.7430
   73 
1
 62
1
   40
1.0541
   41 
1.000
   39
0.2032
   1  
FG
 50
180.0000
  0
TEXT
  8
0
   10
11.9380
   20
102.7430
   11
11.9380
   21
102.7430
   73 
1
 62
1
   40
1.0541
   41 
1.000
   39
0.2032
   1  
AC(L)
 50
180.0000
  0
TEXT
  8
0
   10
29.5910
   20
102.7430
   11
29.5910
   21
102.7430
   73 
1
 62
1
   40
1.0541
   41 
1.000
   39
0.2032
   1  
AC(N)
 50
180.0000
  0
TEXT
  8
0
   10
28.4480
   20
47.8790
   11
28.4480
   21
47.8790
   73 
1
 62
1
   40
1.0541
   41 
1.000
   39
0.2032
   1  
O2
 50
180.0000
  0
TEXT
  8
0
   10
37.2110
   20
47.8790
   11
37.2110
   21
47.8790
   73 
1
 62
1
   40
1.0541
   41 
1.000
   39
0.2032
   1  
GND
 50
180.0000
  0
TEXT
  8
0
   10
44.4500
   20
47.8790
   11
44.4500
   21
47.8790
   73 
1
 62
1
   40
1.0541
   41 
1.000
   39
0.2032
   1  
O3
 50
180.0000
  0
TEXT
  8
0
   10
38.4810
   20
43.4340
   11
38.4810
   21
43.4340
   73 
1
   30 
0
   40
0.6325
   7  
Text_50/1
   1  
SMPS
  0
POLYLINE
  8
0
   66 
1
   70 
0
 62
1
   40
0.1270
   41
0.1270
  0
VERTEX
  8
0
   10
77.4700
   20
78.9940
   42 
-1.000
  0
VERTEX
  8
0
   10
77.4700
   20
80.2640
   42 
-1.000
  0
VERTEX
  8
0
   10
77.4700
   20
78.9940
   0  
SEQEND
  0
POLYLINE
  8
0
   66 
1
   70 
0
 62
1
   40
0.1270
   41
0.1270
  0
VERTEX
  8
0
   10
77.1932
   20
79.0575
  0
VERTEX
  8
0
   10
77.7468
   20
79.0575
   0  
SEQEND
  0
POLYLINE
  8
0
   66 
1
   70 
0
 62
1
   40
0.1270
   41
0.1270
  0
VERTEX
  8
0
   10
77.0165
   20
79.1845
  0
VERTEX
  8
0
   10
77.9235
   20
79.1845
   0  
SEQEND
  0
POLYLINE
  8
0
   66 
1
   70 
0
 62
1
   40
0.1270
   41
0.1270
  0
VERTEX
  8
0
   10
76.9201
   20
79.3115
  0
VERTEX
  8
0
   10
78.0199
   20
79.3115
   0  
SEQEND
  0
POLYLINE
  8
0
   66 
1
   70 
0
 62
1
   40
0.1270
   41
0.1270
  0
VERTEX
  8
0
   10
76.8642
   20
79.4385
  0
VERTEX
  8
0
   10
78.0757
   20
79.4385
   0  
SEQEND
  0
POLYLINE
  8
0
   66 
1
   70 
0
 62
1
   40
0.1270
   41
0.1270
  0
VERTEX
  8
0
   10
76.8382
   20
79.5655
  0
VERTEX
  8
0
   10
78.1018
   20
79.5655
   0  
SEQEND
  0
POLYLINE
  8
0
   66 
1
   70 
0
 62
1
   40
0.1270
   41
0.1270
  0
VERTEX
  8
0
   10
76.8382
   20
79.6925
  0
VERTEX
  8
0
   10
78.1018
   20
79.6925
   0  
SEQEND
  0
POLYLINE
  8
0
   66 
1
   70 
0
 62
1
   40
0.1270
   41
0.1270
  0
VERTEX
  8
0
   10
76.8642
   20
79.8195
  0
VERTEX
  8
0
   10
78.0757
   20
79.8195
   0  
SEQEND
  0
POLYLINE
  8
0
   66 
1
   70 
0
 62
1
   40
0.1270
   41
0.1270
  0
VERTEX
  8
0
   10
76.9201
   20
79.9465
  0
VERTEX
  8
0
   10
78.0199
   20
79.9465
   0  
SEQEND
  0
POLYLINE
  8
0
   66 
1
   70 
0
 62
1
   40
0.1270
   41
0.1270
  0
VERTEX
  8
0
   10
77.0165
   20
80.0735
  0
VERTEX
  8
0
   10
77.9235
   20
80.0735
   0  
SEQEND
  0
POLYLINE
  8
0
   66 
1
   70 
0
 62
1
   40
0.1270
   41
0.1270
  0
VERTEX
  8
0
   10
77.1932
   20
80.2005
  0
VERTEX
  8
0
   10
77.7468
   20
80.2005
   0  
SEQEND
  0
POLYLINE
  8
0
   66 
1
   70 
0
 62
1
   40
0.0762
   41
0.0762
  0
VERTEX
  8
0
   10
74.9300
   20
82.1690
   42 
-1.000
  0
VERTEX
  8
0
   10
80.0100
   20
82.1690
   42 
-1.000
  0
VERTEX
  8
0
   10
74.9300
   20
82.1690
   0  
SEQEND
  0
TEXT
  8
0
   10
76.4540
   20
85.0900
   11
76.4540
   21
85.0900
   73 
1
   30 
0
   40
0.6325
   7  
Text_50/1
   1  
C10
  0
POLYLINE
  8
0
   66 
1
   70 
0
 62
1
   40
0.1270
   41
0.1270
  0
VERTEX
  8
0
   10
99.1870
   20
66.4210
  0
VERTEX
  8
0
   10
99.1870
   20
87.2490
  0
VERTEX
  8
0
   10
104.7750
   20
87.2490
  0
VERTEX
  8
0
   10
104.7750
   20
66.4210
  0
VERTEX
  8
0
   10
99.1870
   20
66.4210
   0  
SEQEND
  0
POLYLINE
  8
0
   66 
1
   70 
0
 62
1
   40
0.1270
   41
0.1270
  0
VERTEX
  8
0
   10
96.2660
   20
69.3420
   42 
-0.414
  0
VERTEX
  8
0
   10
94.9960
   20
70.6120
  0
VERTEX
  8
0
   10
94.9960
   20
83.0580
   42 
-0.414
  0
VERTEX
  8
0
   10
96.2660
   20
84.3280
  0
VERTEX
  8
0
   10
99.1870
   20
84.3280
  0
VERTEX
  8
0
   10
99.1870
   20
69.3420
  0
VERTEX
  8
0
   10
96.2660
   20
69.3420
   0  
SEQEND
  0
POLYLINE
  8
0
   66 
1
   70 
0
 62
1
   40
0.1270
   41
0.1270
  0
VERTEX
  8
0
   10
104.7750
   20
69.3420
  0
VERTEX
  8
0
   10
104.7750
   20
84.3280
  0
VERTEX
  8
0
   10
107.6960
   20
84.3280
   42 
-0.414
  0
VERTEX
  8
0
   10
108.9660
   20
83.0580
  0
VERTEX
  8
0
   10
108.9660
   20
70.6120
   42 
-0.414
  0
VERTEX
  8
0
   10
107.6960
   20
69.3420
  0
VERTEX
  8
0
   10
104.7750
   20
69.3420
   0  
SEQEND
  0
TEXT
  8
0
   10
105.0290
   20
65.0240
   11
105.0290
   21
65.0240
   73 
1
   30 
0
   40
0.6325
   7  
Text_50/1
   1  
TX2
  0
POLYLINE
  8
0
   66 
1
   70 
0
 62
1
   40
0.1270
   41
0.1270
  0
VERTEX
  8
0
   10
113.5380
   20
79.3750
  0
VERTEX
  8
0
   10
113.5380
   20
66.1670
  0
VERTEX
  8
0
   10
117.6020
   20
66.1670
  0
VERTEX
  8
0
   10
117.6020
   20
79.3750
  0
VERTEX
  8
0
   10
113.5380
   20
79.3750
   0  
SEQEND
  0
TEXT
  8
0
   10
114.9350
   20
82.4230
   11
114.9350
   21
82.4230
   73 
1
   30 
0
   40
0.6325
   7  
Text_50/1
   1  
R6
  0
POLYLINE
  8
0
   66 
1
   70 
0
 62
1
   40
0.1270
   41
0.1270
  0
VERTEX
  8
0
   10
152.4000
   20
12.1920
  0
VERTEX
  8
0
   10
162.5600
   20
12.1920
  0
VERTEX
  8
0
   10
162.5600
   20
17.5260
  0
VERTEX
  8
0
   10
152.4000
   20
17.5260
  0
VERTEX
  8
0
   10
152.4000
   20
12.1920
   0  
SEQEND
  0
POLYLINE
  8
0
   66 
1
   70 
0
 62
1
   40
0.1270
   41
0.1270
  0
VERTEX
  8
0
   10
152.4000
   20
12.1920
  0
VERTEX
  8
0
   10
162.5600
   20
12.1920
  0
VERTEX
  8
0
   10
162.5600
   20
17.5260
  0
VERTEX
  8
0
   10
152.4000
   20
17.5260
  0
VERTEX
  8
0
   10
152.4000
   20
12.1920
   0  
SEQEND
  0
POLYLINE
  8
0
   66 
1
   70 
0
 62
1
   40
0.1270
   41
0.1270
  0
VERTEX
  8
0
   10
152.4000
   20
14.0970
  0
VERTEX
  8
0
   10
153.9240
   20
14.0970
  0
VERTEX
  8
0
   10
153.9240
   20
15.6210
  0
VERTEX
  8
0
   10
152.4000
   20
15.6210
   0  
SEQEND
  0
POLYLINE
  8
0
   66 
1
   70 
0
 62
1
   40
0.1270
   41
0.1270
  0
VERTEX
  8
0
   10
152.4000
   20
14.0970
  0
VERTEX
  8
0
   10
153.9240
   20
14.0970
  0
VERTEX
  8
0
   10
153.9240
   20
15.6210
  0
VERTEX
  8
0
   10
152.4000
   20
15.6210
   0  
SEQEND
  0
TEXT
  8
0
   10
154.1780
   20
19.5580
   11
154.1780
   21
19.5580
   73 
1
   30 
0
   40
0.6325
   7  
Text_50/1
   1  
U5
  0
POLYLINE
  8
0
   66 
1
   70 
0
 62
1
   40
0.1270
   41
0.1270
  0
VERTEX
  8
0
   10
121.7930
   20
70.4850
  0
VERTEX
  8
0
   10
121.7930
   20
74.2950
   0  
SEQEND
  0
POLYLINE
  8
0
   66 
1
   70 
0
 62
1
   40
0.1270
   41
0.1270
  0
VERTEX
  8
0
   10
121.7930
   20
68.5800
  0
VERTEX
  8
0
   10
121.7930
   20
64.1350
   0  
SEQEND
  0
POLYLINE
  8
0
   66 
1
   70 
0
 62
1
   40
0.1270
   41
0.1270
  0
VERTEX
  8
0
   10
120.9040
   20
69.8500
  0
VERTEX
  8
0
   10
120.9040
   20
70.4850
  0
VERTEX
  8
0
   10
122.6820
   20
70.4850
  0
VERTEX
  8
0
   10
122.6820
   20
71.1200
   0  
SEQEND
  0
POLYLINE
  8
0
   66 
1
   70 
0
 62
1
   40
0.1270
   41
0.1270
  0
VERTEX
  8
0
   10
121.7930
   20
70.4850
  0
VERTEX
  8
0
   10
120.9040
   20
68.5800
  0
VERTEX
  8
0
   10
122.6820
   20
68.5800
  0
VERTEX
  8
0
   10
121.7930
   20
70.4850
   0  
SEQEND
  0
TEXT
  8
0
   10
121.1580
   20
75.5650
   11
121.1580
   21
75.5650
   73 
1
   30 
0
   40
0.6325
   7  
Text_50/1
   1  
D4
  0
POLYLINE
  8
0
   66 
1
   70 
0
 62
1
   40
0.1270
   41
0.1270
  0
VERTEX
  8
0
   10
129.5400
   20
99.3140
  0
VERTEX
  8
0
   10
129.5400
   20
98.8060
  0
VERTEX
  8
0
   10
134.6200
   20
98.8060
  0
VERTEX
  8
0
   10
134.6200
   20
99.3140
  0
VERTEX
  8
0
   10
129.5400
   20
99.3140
   0  
SEQEND
  0
POLYLINE
  8
0
   66 
1
   70 
0
 62
1
   40
0.1270
   41
0.1270
  0
VERTEX
  8
0
   10
129.5400
   20
93.8530
  0
VERTEX
  8
0
   10
129.5400
   20
93.3450
  0
VERTEX
  8
0
   10
134.6200
   20
93.3450
  0
VERTEX
  8
0
   10
134.6200
   20
93.8530
  0
VERTEX
  8
0
   10
129.5400
   20
93.8530
   0  
SEQEND
  0
POLYLINE
  8
0
   66 
1
   70 
0
 62
1
   40
0.1270
   41
0.1270
  0
VERTEX
  8
0
   10
129.5400
   20
88.3920
  0
VERTEX
  8
0
   10
129.5400
   20
87.8840
  0
VERTEX
  8
0
   10
134.6200
   20
87.8840
  0
VERTEX
  8
0
   10
134.6200
   20
88.3920
  0
VERTEX
  8
0
   10
129.5400
   20
88.3920
   0  
SEQEND
  0
POLYLINE
  8
0
   66 
1
   70 
0
 62
1
   40
0.1270
   41
0.1270
  0
VERTEX
  8
0
   10
134.6200
   20
101.2190
  0
VERTEX
  8
0
   10
134.6200
   20
85.9790
  0
VERTEX
  8
0
   10
152.6540
   20
85.9790
  0
VERTEX
  8
0
   10
154.6860
   20
88.0110
  0
VERTEX
  8
0
   10
154.6860
   20
99.1870
  0
VERTEX
  8
0
   10
152.6540
   20
101.2190
  0
VERTEX
  8
0
   10
134.6200
   20
101.2190
   0  
SEQEND
  0
TEXT
  8
0
   10
141.9860
   20
102.1080
   11
141.9860
   21
102.1080
   73 
1
   30 
0
   40
0.6325
   7  
Text_50/1
   1  
Q5
  0
POLYLINE
  8
0
   66 
1
   70 
0
 62
1
   40
0.1270
   41
0.1270
  0
VERTEX
  8
0
   10
123.8250
   20
73.0250
  0
VERTEX
  8
0
   10
123.8250
   20
65.4050
  0
VERTEX
  8
0
   10
126.3650
   20
65.4050
  0
VERTEX
  8
0
   10
126.3650
   20
73.0250
  0
VERTEX
  8
0
   10
123.8250
   20
73.0250
   0  
SEQEND
  0
POLYLINE
  8
0
   66 
1
   70 
0
 62
1
   40
0.1270
   41
0.1270
  0
VERTEX
  8
0
   10
123.8250
   20
73.0250
  0
VERTEX
  8
0
   10
123.8250
   20
65.4050
  0
VERTEX
  8
0
   10
126.3650
   20
65.4050
  0
VERTEX
  8
0
   10
126.3650
   20
73.0250
  0
VERTEX
  8
0
   10
123.8250
   20
73.0250
   0  
SEQEND
  0
TEXT
  8
0
   10
124.3330
   20
75.5650
   11
124.3330
   21
75.5650
   73 
1
   30 
0
   40
0.6325
   7  
Text_50/1
   1  
R8
  0
POLYLINE
  8
0
   66 
1
   70 
0
 62
1
   40
0.1270
   41
0.1270
  0
VERTEX
  8
0
   10
89.6620
   20
18.7960
  0
VERTEX
  8
0
   10
89.6620
   20
59.9440
  0
VERTEX
  8
0
   10
85.5980
   20
59.9440
  0
VERTEX
  8
0
   10
85.5980
   20
18.7960
  0
VERTEX
  8
0
   10
89.6620
   20
18.7960
   0  
SEQEND
  0
POLYLINE
  8
0
   66 
1
   70 
0
 62
1
   40
0.1270
   41
0.1270
  0
VERTEX
  8
0
   10
89.0270
   20
18.7960
  0
VERTEX
  8
0
   10
89.6620
   20
18.7960
  0
VERTEX
  8
0
   10
89.6620
   20
19.4310
  0
VERTEX
  8
0
   10
89.0270
   20
18.7960
   0  
SEQEND
  0
TEXT
  8
0
   10
86.8680
   20
60.5790
   11
86.8680
   21
60.5790
   73 
1
   30 
0
   40
0.6325
   7  
Text_50/1
   1  
J9
  0
POLYLINE
  8
0
   66 
1
   70 
0
 62
1
   40
0.1270
   41
0.1270
  0
VERTEX
  8
0
   10
11.9380
   20
29.2100
   42 
-1.000
  0
VERTEX
  8
0
   10
11.9380
   20
30.4800
   42 
-1.000
  0
VERTEX
  8
0
   10
11.9380
   20
29.2100
   0  
SEQEND
  0
POLYLINE
  8
0
   66 
1
   70 
0
 62
1
   40
0.1270
   41
0.1270
  0
VERTEX
  8
0
   10
11.6612
   20
29.2735
  0
VERTEX
  8
0
   10
12.2148
   20
29.2735
   0  
SEQEND
  0
POLYLINE
  8
0
   66 
1
   70 
0
 62
1
   40
0.1270
   41
0.1270
  0
VERTEX
  8
0
   10
11.4845
   20
29.4005
  0
VERTEX
  8
0
   10
12.3915
   20
29.4005
   0  
SEQEND
  0
POLYLINE
  8
0
   66 
1
   70 
0
 62
1
   40
0.1270
   41
0.1270
  0
VERTEX
  8
0
   10
11.3881
   20
29.5275
  0
VERTEX
  8
0
   10
12.4879
   20
29.5275
   0  
SEQEND
  0
POLYLINE
  8
0
   66 
1
   70 
0
 62
1
   40
0.1270
   41
0.1270
  0
VERTEX
  8
0
   10
11.3323
   20
29.6545
  0
VERTEX
  8
0
   10
12.5437
   20
29.6545
   0  
SEQEND
  0
POLYLINE
  8
0
   66 
1
   70 
0
 62
1
   40
0.1270
   41
0.1270
  0
VERTEX
  8
0
   10
11.3062
   20
29.7815
  0
VERTEX
  8
0
   10
12.5698
   20
29.7815
   0  
SEQEND
  0
POLYLINE
  8
0
   66 
1
   70 
0
 62
1
   40
0.1270
   41
0.1270
  0
VERTEX
  8
0
   10
11.3062
   20
29.9085
  0
VERTEX
  8
0
   10
12.5698
   20
29.9085
   0  
SEQEND
  0
POLYLINE
  8
0
   66 
1
   70 
0
 62
1
   40
0.1270
   41
0.1270
  0
VERTEX
  8
0
   10
11.3323
   20
30.0355
  0
VERTEX
  8
0
   10
12.5437
   20
30.0355
   0  
SEQEND
  0
POLYLINE
  8
0
   66 
1
   70 
0
 62
1
   40
0.1270
   41
0.1270
  0
VERTEX
  8
0
   10
11.3881
   20
30.1625
  0
VERTEX
  8
0
   10
12.4879
   20
30.1625
   0  
SEQEND
  0
POLYLINE
  8
0
   66 
1
   70 
0
 62
1
   40
0.1270
   41
0.1270
  0
VERTEX
  8
0
   10
11.4845
   20
30.2895
  0
VERTEX
  8
0
   10
12.3915
   20
30.2895
   0  
SEQEND
  0
POLYLINE
  8
0
   66 
1
   70 
0
 62
1
   40
0.1270
   41
0.1270
  0
VERTEX
  8
0
   10
11.6612
   20
30.4165
  0
VERTEX
  8
0
   10
12.2148
   20
30.4165
   0  
SEQEND
  0
POLYLINE
  8
0
   66 
1
   70 
0
 62
1
   40
0.0762
   41
0.0762
  0
VERTEX
  8
0
   10
9.3980
   20
32.3850
   42 
-1.000
  0
VERTEX
  8
0
   10
14.4780
   20
32.3850
   42 
-1.000
  0
VERTEX
  8
0
   10
9.3980
   20
32.3850
   0  
SEQEND
  0
TEXT
  8
0
   10
7.1120
   20
31.4960
   11
7.1120
   21
31.4960
   73 
1
   30 
0
   40
0.6325
   7  
Text_50/1
   1  
C20
  0
POLYLINE
  8
0
   66 
1
   70 
0
 62
1
   40
0.1270
   41
0.1270
  0
VERTEX
  8
0
   10
5.5880
   20
131.6990
  0
VERTEX
  8
0
   10
15.2400
   20
131.6990
  0
VERTEX
  8
0
   10
15.2400
   20
106.9340
  0
VERTEX
  8
0
   10
5.5880
   20
106.9340
  0
VERTEX
  8
0
   10
5.5880
   20
131.6990
   0  
SEQEND
  0
POLYLINE
  8
0
   66 
1
   70 
0
 62
1
   40
0.1270
   41
0.1270
  0
VERTEX
  8
0
   10
5.5880
   20
131.6990
  0
VERTEX
  8
0
   10
7.2390
   20
131.6990
  0
VERTEX
  8
0
   10
7.2390
   20
106.9340
  0
VERTEX
  8
0
   10
5.5880
   20
106.9340
  0
VERTEX
  8
0
   10
5.5880
   20
131.6990
   0  
SEQEND
  0
TEXT
  8
0
   10
12.1920
   20
105.4100
   11
12.1920
   21
105.4100
   73 
1
   30 
0
   40
0.6325
   7  
Text_50/1
   1  
P1
  0
POLYLINE
  8
0
   66 
1
   70 
0
 62
1
   40
0.1270
   41
0.1270
  0
VERTEX
  8
0
   10
18.1610
   20
42.5450
  0
VERTEX
  8
0
   10
18.1610
   20
22.2250
  0
VERTEX
  8
0
   10
23.4950
   20
22.2250
  0
VERTEX
  8
0
   10
23.4950
   20
42.5450
  0
VERTEX
  8
0
   10
18.1610
   20
42.5450
   0  
SEQEND
  0
POLYLINE
  8
0
   66 
1
   70 
0
 62
1
   40
0.1270
   41
0.1270
  0
VERTEX
  8
0
   10
18.1610
   20
42.5450
  0
VERTEX
  8
0
   10
18.1610
   20
22.2250
  0
VERTEX
  8
0
   10
23.4950
   20
22.2250
  0
VERTEX
  8
0
   10
23.4950
   20
42.5450
  0
VERTEX
  8
0
   10
18.1610
   20
42.5450
   0  
SEQEND
  0
POLYLINE
  8
0
   66 
1
   70 
0
 62
1
   40
0.1270
   41
0.1270
  0
VERTEX
  8
0
   10
20.0660
   20
42.5450
  0
VERTEX
  8
0
   10
20.0660
   20
41.0210
  0
VERTEX
  8
0
   10
21.5900
   20
41.0210
  0
VERTEX
  8
0
   10
21.5900
   20
42.5450
   0  
SEQEND
  0
POLYLINE
  8
0
   66 
1
   70 
0
 62
1
   40
0.1270
   41
0.1270
  0
VERTEX
  8
0
   10
20.0660
   20
42.5450
  0
VERTEX
  8
0
   10
20.0660
   20
41.0210
  0
VERTEX
  8
0
   10
21.5900
   20
41.0210
  0
VERTEX
  8
0
   10
21.5900
   20
42.5450
   0  
SEQEND
  0
TEXT
  8
0
   10
20.1930
   20
42.9260
   11
20.1930
   21
42.9260
   73 
1
   30 
0
   40
0.6325
   7  
Text_50/1
   1  
U3
  0
POLYLINE
  8
0
   66 
1
   70 
0
 62
1
   40
0.1270
   41
0.1270
  0
VERTEX
  8
0
   10
164.0840
   20
11.3030
  0
VERTEX
  8
0
   10
170.9420
   20
11.3030
  0
VERTEX
  8
0
   10
170.9420
   20
18.1610
  0
VERTEX
  8
0
   10
164.0840
   20
18.1610
  0
VERTEX
  8
0
   10
164.0840
   20
11.3030
   0  
SEQEND
  0
POLYLINE
  8
0
   66 
1
   70 
0
 62
1
   40
0.0762
   41
0.0762
  0
VERTEX
  8
0
   10
169.4180
   20
14.7320
   42 
-1.000
  0
VERTEX
  8
0
   10
165.6080
   20
14.7320
   42 
-1.000
  0
VERTEX
  8
0
   10
169.4180
   20
14.7320
   0  
SEQEND
  0
POLYLINE
  8
0
   66 
1
   70 
0
 62
1
   40
0.0762
   41
0.0762
  0
VERTEX
  8
0
   10
165.6080
   20
12.8270
  0
VERTEX
  8
0
   10
166.1160
   20
13.3350
   0  
SEQEND
  0
POLYLINE
  8
0
   66 
1
   70 
0
 62
1
   40
0.0762
   41
0.0762
  0
VERTEX
  8
0
   10
169.4180
   20
12.8270
  0
VERTEX
  8
0
   10
168.9100
   20
13.3350
   0  
SEQEND
  0
POLYLINE
  8
0
   66 
1
   70 
0
 62
1
   40
0.0762
   41
0.0762
  0
VERTEX
  8
0
   10
167.5130
   20
14.4780
  0
VERTEX
  8
0
   10
167.5130
   20
14.9860
   0  
SEQEND
  0
POLYLINE
  8
0
   66 
1
   70 
0
 62
1
   40
0.0762
   41
0.0762
  0
VERTEX
  8
0
   10
167.2590
   20
14.7320
  0
VERTEX
  8
0
   10
167.7670
   20
14.7320
   0  
SEQEND
  0
POLYLINE
  8
0
   66 
1
   70 
0
 62
1
   40
0.0762
   41
0.0762
  0
VERTEX
  8
0
   10
167.5130
   20
14.7320
  0
VERTEX
  8
0
   10
166.2430
   20
13.4620
  0
VERTEX
  8
0
   10
166.6240
   20
13.4620
  0
VERTEX
  8
0
   10
166.2430
   20
13.8430
  0
VERTEX
  8
0
   10
166.2430
   20
13.4620
   0  
SEQEND
  0
POLYLINE
  8
0
   66 
1
   70 
0
 62
1
   40
0.0762
   41
0.0762
  0
VERTEX
  8
0
   10
167.7670
   20
14.7320
   42 
-1.000
  0
VERTEX
  8
0
   10
167.2590
   20
14.7320
   42 
-1.000
  0
VERTEX
  8
0
   10
167.7670
   20
14.7320
   0  
SEQEND
  0
POLYLINE
  8
0
   66 
1
   70 
0
 62
1
   40
0.0762
   41
0.0762
  0
VERTEX
  8
0
   10
169.4180
   20
11.8110
  0
VERTEX
  8
0
   10
169.4180
   20
12.5730
   0  
SEQEND
  0
POLYLINE
  8
0
   66 
1
   70 
0
 62
1
   40
0.0762
   41
0.0762
  0
VERTEX
  8
0
   10
170.0530
   20
11.8110
  0
VERTEX
  8
0
   10
170.0530
   20
12.5730
   0  
SEQEND
  0
POLYLINE
  8
0
   66 
1
   70 
0
 62
1
   40
0.0762
   41
0.0762
  0
VERTEX
  8
0
   10
169.4180
   20
12.1920
  0
VERTEX
  8
0
   10
170.0530
   20
12.1920
   0  
SEQEND
  0
POLYLINE
  8
0
   66 
1
   70 
0
 62
1
   40
0.0762
   41
0.0762
  0
VERTEX
  8
0
   10
164.9730
   20
12.5730
  0
VERTEX
  8
0
   10
164.9730
   20
11.8110
  0
VERTEX
  8
0
   10
165.6080
   20
11.8110
   0  
SEQEND
  0
TEXT
  8
0
   10
166.4970
   20
10.0330
   11
166.4970
   21
10.0330
   73 
1
   30 
0
   40
0.6325
   7  
Text_50/1
   1  
R16
  0
TEXT
  8
0
   10
7.3660
   20
12.4460
   11
7.3660
   21
12.4460
   73 
1
   30 
0
   40
0.6325
   7  
Text_50/1
   1  
H1
   0  
ENDSEC
   0  
SECTION
   2  
TABLES
   0  
TABLE
   2  
STYLE
   0  
STYLE
   2  
Text_Size_50_10
   70 
0
   40 
0
   41 
1
   50 
0
   71 
0
   42
1.2700
   3  
txt
   0  
ENDTAB
   0  
ENDSEC
   0  
SECTION
   2  
ENTITIES
  0
TEXT
  8
0
   10
126.6190
   20
103.6320
   11
126.6190
   21
103.6320
   73 
1
   30 
0
   40
1.0541
   7  
Text_Size_50/10
   1  
PWR IN
  0
TEXT
  8
0
   10
208.5340
   20
109.9820
   11
208.5340
   21
109.9820
   73 
1
   30 
0
   40
1.0541
   7  
Text_Size_50/10
   1  
1
  0
TEXT
  8
0
   10
12.8270
   20
132.2070
   11
12.8270
   21
132.2070
   73 
1
   30 
0
   40
1.0541
   7  
Text_Size_50/10
   1  
1
  0
TEXT
  8
0
   10
56.0070
   20
77.8510
   11
56.0070
   21
77.8510
   73 
1
   30 
0
   40
1.0541
   7  
Text_Size_50/10
   1  
POW2
  0
TEXT
  8
0
   10
88.3920
   20
105.5370
   11
88.3920
   21
105.5370
   73 
1
   30 
0
   40
1.0541
   7  
Text_Size_50/10
   1  
POW1
  0
TEXT
  8
0
   10
56.0070
   20
100.7110
   11
56.0070
   21
100.7110
   73 
1
   30 
0
   40
1.0541
   7  
Text_Size_50/10
   1  
POW1
  0
TEXT
  8
0
   10
88.2650
   20
82.5500
   11
88.2650
   21
82.5500
   73 
1
   30 
0
   40
1.0541
   7  
Text_Size_50/10
   1  
POW2
  0
TEXT
  8
0
   10
110.9980
   20
91.0590
   11
110.9980
   21
91.0590
   73 
1
   30 
0
   40
1.0541
   7  
Text_Size_50/10
   1  
GATE2
 50
270.0000
  0
TEXT
  8
0
   10
110.9980
   20
101.6000
   11
110.9980
   21
101.6000
   73 
1
   30 
0
   40
1.0541
   7  
Text_Size_50/10
   1  
GATE1
 50
270.0000
  0
TEXT
  8
0
   10
97.0280
   20
15.1130
   11
97.0280
   21
15.1130
   73 
1
   30 
0
   40
1.0541
   7  
Text_Size_50/10
   1  
G17
  0
TEXT
  8
0
   10
70.2310
   20
10.5410
   11
70.2310
   21
10.5410
   73 
1
   30 
0
   40
1.0541
   7  
Text_Size_50/10
   1  
Ver1.5
   0  
ENDSEC
   0  
SECTION
   2  
TABLES
   0  
TABLE
   2  
STYLE
   0  
STYLE
   2  
Text_Size_100_15
   70 
0
   40 
0
   41 
1
   50 
0
   71 
0
   42
2.5400
   3  
txt
   0  
ENDTAB
   0  
ENDSEC
   0  
SECTION
   2  
ENTITIES
  0
TEXT
  8
0
   10
50.5460
   20
13.3350
   11
50.5460
   21
13.3350
   73 
1
   30 
0
   40
2.1082
   7  
Text_Size_100/15
   1  
Femto Science
  0
TEXT
  8
0
   10
90.5510
   20
19.1770
   11
90.5510
   21
19.1770
   73 
1
   30 
0
   40
1.0541
   7  
Text_Size_50/10
   1  
1
  0
TEXT
  8
0
   10
60.0710
   20
19.0500
   11
60.0710
   21
19.0500
   73 
1
   30 
0
   40
1.0541
   7  
Text_Size_50/10
   1  
1
  0
TEXT
  8
0
   10
25.9080
   20
25.4000
   11
25.9080
   21
25.4000
   73 
1
   30 
0
   40
1.0541
   7  
Text_Size_50/10
   1  
SCITXB
  0
TEXT
  8
0
   10
26.1620
   20
32.7660
   11
26.1620
   21
32.7660
   73 
1
   30 
0
   40
1.0541
   7  
Text_Size_50/10
   1  
SCIRXB
  0
TEXT
  8
0
   10
97.1550
   20
12.8270
   11
97.1550
   21
12.8270
   73 
1
   30 
0
   40
1.0541
   7  
Text_Size_50/10
   1  
Jumper
   0  
ENDSEC
   0  
EOF
