*
G04 Mass Parameters ***
*
G04 Image ***
*
%INZ:\CONTROLBOARD_PROJECT\CAD\CONTROLBOARD_CAD-24.TOP*%
%ICAS*%
%MOIN*%
%IPPOS*%
%ASAXBY*%
G74*%FSLAN2X34Y34*%
*
G04 Aperture Definitions ***
*
%ADD10C,0.0520*%
%ADD11C,0.0550*%
%ADD12C,0.0620*%
%ADD13C,0.1100*%
%ADD14C,0.0580*%
%ADD15R,0.0580X0.0580*%
%ADD16C,0.2450*%
%ADD17C,0.0010*%
%ADD18C,0.0120*%
%ADD19C,0.0250*%
%ADD20C,0.0800*%
%ADD21C,0.0500*%
%ADD22C,0.0250*%
*
G04 Plot Data ***
*
G54D17*
G01X0064697Y0005750D02*
Y0005250D01*
X0064688Y0005750D02*
Y0005250D01*
X0064679Y0005750D02*
Y0005250D01*
X0064670Y0005750D02*
Y0005250D01*
X0064661Y0005750D02*
Y0005250D01*
X0064652Y0005750D02*
Y0005250D01*
X0064643Y0005750D02*
Y0005250D01*
X0064634Y0005750D02*
Y0005250D01*
X0064625Y0005750D02*
Y0005250D01*
X0064616Y0005750D02*
Y0005250D01*
X0064607Y0005750D02*
Y0005250D01*
X0064598Y0005750D02*
Y0005250D01*
X0064589Y0005750D02*
Y0005250D01*
X0064580Y0005750D02*
Y0005250D01*
X0064571Y0005750D02*
Y0005250D01*
X0064562Y0005750D02*
Y0005250D01*
X0064553Y0005750D02*
Y0005250D01*
X0064544Y0005750D02*
Y0005250D01*
X0064535Y0005750D02*
Y0005250D01*
X0064526Y0005750D02*
Y0005250D01*
X0064517Y0005750D02*
Y0005250D01*
X0064508Y0005750D02*
Y0005250D01*
X0064499Y0005750D02*
Y0005250D01*
X0064490Y0005750D02*
Y0005250D01*
X0064481Y0005750D02*
Y0005250D01*
X0064472Y0005750D02*
Y0005250D01*
X0064463Y0005750D02*
Y0005250D01*
X0064454Y0005750D02*
Y0005250D01*
X0064445Y0005750D02*
Y0005250D01*
X0064436Y0005750D02*
Y0005250D01*
X0064427Y0005750D02*
Y0005250D01*
X0064418Y0005750D02*
Y0005250D01*
X0064409Y0005750D02*
Y0005250D01*
X0064400Y0005750D02*
Y0005250D01*
X0064391Y0005750D02*
Y0005250D01*
X0064382Y0005750D02*
Y0005250D01*
X0064373Y0005750D02*
Y0005250D01*
X0064364Y0005750D02*
Y0005250D01*
X0064355Y0005750D02*
Y0005250D01*
X0064346Y0005750D02*
Y0005250D01*
X0064337Y0005750D02*
Y0005250D01*
X0064328Y0005750D02*
Y0005250D01*
X0064319Y0005750D02*
Y0005250D01*
X0064310Y0005750D02*
Y0005250D01*
X0064301Y0005750D02*
Y0005250D01*
X0064292Y0005750D02*
Y0005250D01*
X0064283Y0005750D02*
Y0005250D01*
X0064274Y0005750D02*
Y0005250D01*
X0064265Y0005750D02*
Y0005250D01*
X0064256Y0005750D02*
Y0005250D01*
X0064247Y0005750D02*
Y0005250D01*
X0064238Y0005750D02*
Y0005250D01*
X0064229Y0005750D02*
Y0005250D01*
X0064220Y0005750D02*
Y0005250D01*
X0064211Y0005750D02*
Y0005250D01*
X0064202Y0005750D02*
Y0005250D01*
X0064193Y0005750D02*
Y0005250D01*
X0064184Y0005750D02*
Y0005250D01*
X0064175Y0005750D02*
Y0005250D01*
X0064166Y0005750D02*
Y0005250D01*
X0064157Y0005750D02*
Y0005250D01*
X0064148Y0005750D02*
Y0005250D01*
X0064139Y0005750D02*
Y0005250D01*
X0064130Y0005750D02*
Y0005250D01*
X0064121Y0005750D02*
Y0005250D01*
X0064112Y0005750D02*
Y0005250D01*
X0064103Y0005750D02*
Y0005250D01*
X0064094Y0005750D02*
Y0005250D01*
X0064085Y0005750D02*
Y0005250D01*
X0064076Y0005750D02*
Y0005250D01*
X0064067Y0005750D02*
Y0005250D01*
X0064058Y0005750D02*
Y0005250D01*
X0064049Y0005750D02*
Y0005250D01*
X0064040Y0005750D02*
Y0005250D01*
X0064031Y0005750D02*
Y0005250D01*
X0064022Y0005750D02*
Y0005250D01*
X0064013Y0005750D02*
Y0005250D01*
X0069000Y0011239D02*
X0068500D01*
X0069000Y0011230D02*
X0068500D01*
X0069000Y0011221D02*
X0068500D01*
X0069000Y0011212D02*
X0068500D01*
X0069000Y0011203D02*
X0068500D01*
X0069000Y0011194D02*
X0068500D01*
X0069000Y0011185D02*
X0068500D01*
X0069000Y0011176D02*
X0068500D01*
X0069000Y0011167D02*
X0068500D01*
X0069000Y0011158D02*
X0068500D01*
X0069000Y0011149D02*
X0068500D01*
X0069000Y0011140D02*
X0068500D01*
X0069000Y0011131D02*
X0068500D01*
X0069000Y0011122D02*
X0068500D01*
X0069000Y0011113D02*
X0068500D01*
X0069000Y0011104D02*
X0068500D01*
X0069000Y0011095D02*
X0068500D01*
X0069000Y0011086D02*
X0068500D01*
X0069000Y0011077D02*
X0068500D01*
X0069000Y0011068D02*
X0068500D01*
X0069000Y0011059D02*
X0068500D01*
X0069000Y0011050D02*
X0068500D01*
X0069000Y0011041D02*
X0068500D01*
X0069000Y0011032D02*
X0068500D01*
X0069000Y0011023D02*
X0068500D01*
X0069000Y0011014D02*
X0068500D01*
X0069000Y0011005D02*
X0068500D01*
X0069000Y0010996D02*
X0068500D01*
X0069000Y0010987D02*
X0068500D01*
X0069000Y0010978D02*
X0068500D01*
X0069000Y0010969D02*
X0068500D01*
X0069000Y0010960D02*
X0068500D01*
X0069000Y0010951D02*
X0068500D01*
X0069000Y0010942D02*
X0068500D01*
X0069000Y0010933D02*
X0068500D01*
X0069000Y0010924D02*
X0068500D01*
X0069000Y0010915D02*
X0068500D01*
X0069000Y0010906D02*
X0068500D01*
X0069000Y0010897D02*
X0068500D01*
X0069000Y0010888D02*
X0068500D01*
X0069000Y0010879D02*
X0068500D01*
X0069000Y0010870D02*
X0068500D01*
X0069000Y0010861D02*
X0068500D01*
X0069000Y0010852D02*
X0068500D01*
X0069000Y0010843D02*
X0068500D01*
X0069000Y0010834D02*
X0068500D01*
X0069000Y0010825D02*
X0068500D01*
X0069000Y0010816D02*
X0068500D01*
X0069000Y0010807D02*
X0068500D01*
X0069000Y0010798D02*
X0068500D01*
X0069000Y0010789D02*
X0068500D01*
X0069000Y0010780D02*
X0068500D01*
X0069000Y0010771D02*
X0068500D01*
X0069000Y0010762D02*
X0068500D01*
X0069000Y0010753D02*
X0068500D01*
X0069000Y0010744D02*
X0068500D01*
X0069000Y0010735D02*
X0068500D01*
X0069000Y0010726D02*
X0068500D01*
X0069000Y0010717D02*
X0068500D01*
X0069000Y0010708D02*
X0068500D01*
X0069000Y0010699D02*
X0068500D01*
X0069000Y0010690D02*
X0068500D01*
X0069000Y0010681D02*
X0068500D01*
X0069000Y0010672D02*
X0068500D01*
X0069000Y0010663D02*
X0068500D01*
X0069000Y0010654D02*
X0068500D01*
X0069000Y0010645D02*
X0068500D01*
X0069000Y0010636D02*
X0068500D01*
X0069000Y0010627D02*
X0068500D01*
X0069000Y0010618D02*
X0068500D01*
X0069000Y0010609D02*
X0068500D01*
X0069000Y0010600D02*
X0068500D01*
X0069000Y0010591D02*
X0068500D01*
X0069000Y0010582D02*
X0068500D01*
X0069000Y0010573D02*
X0068500D01*
X0069000Y0010564D02*
X0068500D01*
X0069000Y0010555D02*
X0068500D01*
X0069000Y0010546D02*
X0068500D01*
X0069000Y0010537D02*
X0068500D01*
X0069000Y0010528D02*
X0068500D01*
X0069000Y0010519D02*
X0068500D01*
X0069000Y0010510D02*
X0068500D01*
X0069000Y0010501D02*
X0068500D01*
X0069000Y0010492D02*
X0068500D01*
X0069000Y0010483D02*
X0068500D01*
X0069000Y0010474D02*
X0068500D01*
X0069000Y0010465D02*
X0068500D01*
X0069000Y0010456D02*
X0068500D01*
X0069000Y0010447D02*
X0068500D01*
X0069000Y0010438D02*
X0068500D01*
X0069000Y0010429D02*
X0068500D01*
X0069000Y0010420D02*
X0068500D01*
X0069000Y0010411D02*
X0068500D01*
X0069000Y0010402D02*
X0068500D01*
X0069000Y0010393D02*
X0068500D01*
X0069000Y0010384D02*
X0068500D01*
X0069000Y0010375D02*
X0068500D01*
X0069000Y0010366D02*
X0068500D01*
X0069000Y0010357D02*
X0068500D01*
X0069000Y0010348D02*
X0068500D01*
X0069000Y0010339D02*
X0068500D01*
X0069000Y0010330D02*
X0068500D01*
X0069000Y0010321D02*
X0068500D01*
X0069000Y0010312D02*
X0068500D01*
X0069000Y0010303D02*
X0068500D01*
X0069000Y0010294D02*
X0068500D01*
X0069000Y0010285D02*
X0068500D01*
X0069000Y0010276D02*
X0068500D01*
X0069000Y0010267D02*
X0068500D01*
X0069000Y0010258D02*
X0068500D01*
X0069000Y0010249D02*
X0068500D01*
X0069000Y0010240D02*
X0068500D01*
X0069000Y0010231D02*
X0068500D01*
X0069000Y0010222D02*
X0068500D01*
X0069000Y0010213D02*
X0068500D01*
X0069000Y0010204D02*
X0068500D01*
X0069000Y0010195D02*
X0068500D01*
X0069000Y0010186D02*
X0068500D01*
X0069000Y0010177D02*
X0068500D01*
X0069000Y0010168D02*
X0068500D01*
X0069000Y0010159D02*
X0068500D01*
X0069000Y0010150D02*
X0068500D01*
X0069000Y0010141D02*
X0068500D01*
X0069000Y0010132D02*
X0068500D01*
X0069000Y0010123D02*
X0068500D01*
X0069000Y0010114D02*
X0068500D01*
X0069000Y0010105D02*
X0068500D01*
X0069000Y0010096D02*
X0068500D01*
X0069000Y0010087D02*
X0068500D01*
X0069000Y0010078D02*
X0068500D01*
X0069000Y0010069D02*
X0068500D01*
X0069000Y0010060D02*
X0068500D01*
X0069000Y0010051D02*
X0068500D01*
X0069000Y0010042D02*
X0068500D01*
X0069000Y0010033D02*
X0068500D01*
X0069000Y0010024D02*
X0068500D01*
X0069000Y0010015D02*
X0068500D01*
X0069000Y0010006D02*
X0068500D01*
X0069000Y0009997D02*
X0068500D01*
X0069000Y0009988D02*
X0068500D01*
X0069000Y0009979D02*
X0068500D01*
X0069000Y0009970D02*
X0068500D01*
X0069000Y0009961D02*
X0068500D01*
X0069000Y0009952D02*
X0068500D01*
X0069000Y0009943D02*
X0068500D01*
X0069000Y0009934D02*
X0068500D01*
X0069000Y0009925D02*
X0068500D01*
X0069000Y0009916D02*
X0068500D01*
X0069000Y0009907D02*
X0068500D01*
X0069000Y0009898D02*
X0068500D01*
X0069000Y0009889D02*
X0068500D01*
X0069000Y0009880D02*
X0068500D01*
X0069000Y0009871D02*
X0068500D01*
X0069000Y0009862D02*
X0068500D01*
X0069000Y0009853D02*
X0068500D01*
X0069000Y0009844D02*
X0068500D01*
X0069000Y0009835D02*
X0068500D01*
X0069000Y0009826D02*
X0068500D01*
X0069000Y0009817D02*
X0068500D01*
X0069000Y0009808D02*
X0068500D01*
X0069000Y0009799D02*
X0068500D01*
X0069000Y0009790D02*
X0068500D01*
X0069000Y0009781D02*
X0068500D01*
X0069000Y0009772D02*
X0068500D01*
X0069000Y0009763D02*
X0068500D01*
X0069000Y0009754D02*
X0068500D01*
X0069000Y0009745D02*
X0068500D01*
X0069000Y0009736D02*
X0068500D01*
X0069000Y0009727D02*
X0068500D01*
X0069000Y0009718D02*
X0068500D01*
X0069000Y0009709D02*
X0068500D01*
X0069000Y0009700D02*
X0068500D01*
X0069000Y0009691D02*
X0068500D01*
X0069000Y0009682D02*
X0068500D01*
X0069000Y0009673D02*
X0068500D01*
X0069000Y0009664D02*
X0068500D01*
X0069000Y0009655D02*
X0068500D01*
X0069000Y0009646D02*
X0068500D01*
X0069000Y0009637D02*
X0068500D01*
X0069000Y0009628D02*
X0068500D01*
X0069000Y0009619D02*
X0068500D01*
X0069000Y0009610D02*
X0068500D01*
X0069000Y0009601D02*
X0068500D01*
X0069000Y0009592D02*
X0068500D01*
X0069000Y0009583D02*
X0068500D01*
X0069000Y0009574D02*
X0068500D01*
X0069000Y0009565D02*
X0068500D01*
X0069000Y0009556D02*
X0068500D01*
X0069000Y0009547D02*
X0068500D01*
X0069000Y0009538D02*
X0068500D01*
X0069000Y0009529D02*
X0068500D01*
X0069000Y0009520D02*
X0068500D01*
X0069000Y0009511D02*
X0068500D01*
X0069000Y0009502D02*
X0068500D01*
X0069000Y0009493D02*
X0068500D01*
X0069000Y0009484D02*
X0068500D01*
X0069000Y0009475D02*
X0068500D01*
X0069000Y0009466D02*
X0068500D01*
X0069000Y0009457D02*
X0068500D01*
X0069000Y0009448D02*
X0068500D01*
X0069000Y0009439D02*
X0068500D01*
X0069000Y0009430D02*
X0068500D01*
X0069000Y0009421D02*
X0068500D01*
X0069000Y0009412D02*
X0068500D01*
X0069000Y0009403D02*
X0068500D01*
X0069000Y0009394D02*
X0068500D01*
X0069000Y0009385D02*
X0068500D01*
X0069000Y0009376D02*
X0068500D01*
X0069000Y0009367D02*
X0068500D01*
X0069000Y0009358D02*
X0068500D01*
X0069000Y0009349D02*
X0068500D01*
X0069000Y0009340D02*
X0068500D01*
X0069000Y0009331D02*
X0068500D01*
X0069000Y0009322D02*
X0068500D01*
X0069000Y0009313D02*
X0068500D01*
X0069000Y0009304D02*
X0068500D01*
X0069000Y0009295D02*
X0068500D01*
X0069000Y0009286D02*
X0068500D01*
X0069000Y0009277D02*
X0068500D01*
X0069000Y0009268D02*
X0068500D01*
X0069000Y0009259D02*
X0068500D01*
X0069000Y0009250D02*
X0068500D01*
X0069000Y0009241D02*
X0068500D01*
X0069000Y0009232D02*
X0068500D01*
X0069000Y0009223D02*
X0068500D01*
X0069000Y0009214D02*
X0068500D01*
X0069000Y0009205D02*
X0068500D01*
X0069000Y0009196D02*
X0068500D01*
X0069000Y0009187D02*
X0068500D01*
X0069000Y0009178D02*
X0068500D01*
X0069000Y0009169D02*
X0068500D01*
X0069000Y0009160D02*
X0068500D01*
X0069000Y0009151D02*
X0068500D01*
X0069000Y0009142D02*
X0068500D01*
X0069000Y0009133D02*
X0068500D01*
X0069000Y0009124D02*
X0068500D01*
X0069000Y0009115D02*
X0068500D01*
X0069000Y0009106D02*
X0068500D01*
X0069000Y0009097D02*
X0068500D01*
X0069000Y0009088D02*
X0068500D01*
X0069000Y0009079D02*
X0068500D01*
X0069000Y0009070D02*
X0068500D01*
X0069000Y0009061D02*
X0068500D01*
X0069000Y0009052D02*
X0068500D01*
X0069000Y0009043D02*
X0068500D01*
X0069000Y0009034D02*
X0068500D01*
X0069000Y0009025D02*
X0068500D01*
X0069000Y0009016D02*
X0068500D01*
X0069000Y0009007D02*
X0068500D01*
X0069000Y0008998D02*
X0068500D01*
X0069000Y0008989D02*
X0068500D01*
X0069000Y0008980D02*
X0068500D01*
X0069000Y0008971D02*
X0068500D01*
X0069000Y0008962D02*
X0068500D01*
X0069000Y0008953D02*
X0068500D01*
X0069000Y0008944D02*
X0068500D01*
X0069000Y0008935D02*
X0068500D01*
X0069000Y0008926D02*
X0068500D01*
X0069000Y0008917D02*
X0068500D01*
X0069000Y0008908D02*
X0068500D01*
X0069000Y0008899D02*
X0068500D01*
X0069000Y0008890D02*
X0068500D01*
X0069000Y0008881D02*
X0068500D01*
X0069000Y0008872D02*
X0068500D01*
X0069000Y0008863D02*
X0068500D01*
X0069000Y0008854D02*
X0068500D01*
X0069000Y0008845D02*
X0068500D01*
X0069000Y0008836D02*
X0068500D01*
X0069000Y0008827D02*
X0068500D01*
X0069000Y0008818D02*
X0068500D01*
X0069000Y0008809D02*
X0068500D01*
X0069000Y0008800D02*
X0068500D01*
X0069000Y0008791D02*
X0068500D01*
X0069000Y0008782D02*
X0068500D01*
X0069000Y0008773D02*
X0068500D01*
X0069000Y0008764D02*
X0068500D01*
X0069000Y0008755D02*
X0068500D01*
X0069000Y0008746D02*
X0068500D01*
X0069000Y0008737D02*
X0068500D01*
X0069000Y0008728D02*
X0068500D01*
X0069000Y0008719D02*
X0068500D01*
X0069000Y0008710D02*
X0068500D01*
X0069000Y0008701D02*
X0068500D01*
X0069000Y0008692D02*
X0068500D01*
X0069000Y0008683D02*
X0068500D01*
X0069000Y0008674D02*
X0068500D01*
X0069000Y0008665D02*
X0068500D01*
X0069000Y0008656D02*
X0068500D01*
X0069000Y0008647D02*
X0068500D01*
X0069000Y0008638D02*
X0068500D01*
X0069000Y0008629D02*
X0068500D01*
X0069000Y0008620D02*
X0068500D01*
X0069000Y0008611D02*
X0068500D01*
X0069000Y0008602D02*
X0068500D01*
X0069000Y0008593D02*
X0068500D01*
X0069000Y0008584D02*
X0068500D01*
X0069000Y0008575D02*
X0068500D01*
X0069000Y0008566D02*
X0068500D01*
X0069000Y0008557D02*
X0068500D01*
X0069000Y0008548D02*
X0068500D01*
X0069000Y0008539D02*
X0068500D01*
X0069000Y0008530D02*
X0068500D01*
X0069000Y0008521D02*
X0068500D01*
X0069000Y0008512D02*
X0068500D01*
X0069000Y0008503D02*
X0068500D01*
X0069000Y0008494D02*
X0068500D01*
X0069000Y0008485D02*
X0068500D01*
X0069000Y0008476D02*
X0068500D01*
X0069000Y0008467D02*
X0068500D01*
X0069000Y0008458D02*
X0068500D01*
X0069000Y0008449D02*
X0068500D01*
X0069000Y0008440D02*
X0068500D01*
X0069000Y0008431D02*
X0068500D01*
X0069000Y0008422D02*
X0068500D01*
X0069000Y0008413D02*
X0068500D01*
X0069000Y0008404D02*
X0068500D01*
X0069000Y0008395D02*
X0068500D01*
X0069000Y0008386D02*
X0068500D01*
X0069000Y0008377D02*
X0068500D01*
X0069000Y0008368D02*
X0068500D01*
X0069000Y0008359D02*
X0068500D01*
X0069000Y0008350D02*
X0068500D01*
X0069000Y0008341D02*
X0068500D01*
X0069000Y0008332D02*
X0068500D01*
X0069000Y0008323D02*
X0068500D01*
X0069000Y0008314D02*
X0068500D01*
X0069000Y0008305D02*
X0068500D01*
X0069000Y0008296D02*
X0068500D01*
X0069000Y0008287D02*
X0068500D01*
X0069000Y0008278D02*
X0068500D01*
X0069000Y0008269D02*
X0068500D01*
X0069000Y0008260D02*
X0068500D01*
X0069000Y0008251D02*
X0068500D01*
X0069000Y0008242D02*
X0068500D01*
X0069000Y0008233D02*
X0068500D01*
X0069000Y0008224D02*
X0068500D01*
X0069000Y0008215D02*
X0068500D01*
X0069000Y0008206D02*
X0068500D01*
X0069000Y0008197D02*
X0068500D01*
X0069000Y0008188D02*
X0068500D01*
X0069000Y0008179D02*
X0068500D01*
X0069000Y0008170D02*
X0068500D01*
X0069000Y0008161D02*
X0068500D01*
X0069000Y0008152D02*
X0068500D01*
X0069000Y0008143D02*
X0068500D01*
X0069000Y0008134D02*
X0068500D01*
X0069000Y0008125D02*
X0068500D01*
X0069000Y0008116D02*
X0068500D01*
X0069000Y0008107D02*
X0068500D01*
X0069000Y0008098D02*
X0068500D01*
X0069000Y0008089D02*
X0068500D01*
X0069000Y0008080D02*
X0068500D01*
X0069000Y0008071D02*
X0068500D01*
X0069000Y0008062D02*
X0068500D01*
X0069000Y0008053D02*
X0068500D01*
X0069000Y0008044D02*
X0068500D01*
X0069000Y0008035D02*
X0068500D01*
X0069000Y0008026D02*
X0068500D01*
X0069000Y0008017D02*
X0068500D01*
X0069000Y0008008D02*
X0068500D01*
X0069000Y0007999D02*
X0068500D01*
X0069000Y0007990D02*
X0068500D01*
X0069000Y0007981D02*
X0068500D01*
X0069000Y0007972D02*
X0068500D01*
X0069000Y0007963D02*
X0068500D01*
X0069000Y0007954D02*
X0068500D01*
X0069000Y0007945D02*
X0068500D01*
X0069000Y0007936D02*
X0068500D01*
X0069000Y0007927D02*
X0068500D01*
X0069000Y0007918D02*
X0068500D01*
X0069000Y0007909D02*
X0068500D01*
X0069000Y0007900D02*
X0068500D01*
X0069000Y0007891D02*
X0068500D01*
X0069000Y0007882D02*
X0068500D01*
X0069000Y0007873D02*
X0068500D01*
X0069000Y0007864D02*
X0068500D01*
X0069000Y0007855D02*
X0068500D01*
X0069000Y0007846D02*
X0068500D01*
X0069000Y0007837D02*
X0068500D01*
X0069000Y0007828D02*
X0068500D01*
X0069000Y0007819D02*
X0068500D01*
X0069000Y0007810D02*
X0068500D01*
X0069000Y0007801D02*
X0068500D01*
X0069000Y0007792D02*
X0068500D01*
X0069000Y0007783D02*
X0068500D01*
X0069000Y0007774D02*
X0068500D01*
X0069000Y0007765D02*
X0068500D01*
X0069000Y0007756D02*
X0068500D01*
X0069000Y0007747D02*
X0068500D01*
X0069000Y0007738D02*
X0068500D01*
X0069000Y0007729D02*
X0068500D01*
X0069000Y0007720D02*
X0068500D01*
X0069000Y0007711D02*
X0068500D01*
X0069000Y0007702D02*
X0068500D01*
X0069000Y0007693D02*
X0068500D01*
X0069000Y0007684D02*
X0068500D01*
X0069000Y0007675D02*
X0068500D01*
X0069000Y0007666D02*
X0068500D01*
X0069000Y0007657D02*
X0068500D01*
X0069000Y0007648D02*
X0068500D01*
X0069000Y0007639D02*
X0068500D01*
X0069000Y0007630D02*
X0068500D01*
X0069000Y0007621D02*
X0068500D01*
X0069000Y0007612D02*
X0068500D01*
X0069000Y0007603D02*
X0068500D01*
X0069000Y0007594D02*
X0068500D01*
X0069000Y0007585D02*
X0068500D01*
X0069000Y0007576D02*
X0068500D01*
X0069000Y0007567D02*
X0068500D01*
X0069000Y0007558D02*
X0068500D01*
X0069000Y0007549D02*
X0068500D01*
X0069000Y0007540D02*
X0068500D01*
X0069000Y0007531D02*
X0068500D01*
X0069000Y0007522D02*
X0068500D01*
X0069000Y0007513D02*
X0068500D01*
X0069000Y0007504D02*
X0068500D01*
X0069000Y0007495D02*
X0068500D01*
X0069000Y0007486D02*
X0068500D01*
X0069000Y0007477D02*
X0068500D01*
X0069000Y0007468D02*
X0068500D01*
X0069000Y0007459D02*
X0068500D01*
X0069000Y0007450D02*
X0068500D01*
X0069000Y0007441D02*
X0068500D01*
X0069000Y0007432D02*
X0068500D01*
X0069000Y0007423D02*
X0068500D01*
X0069000Y0007414D02*
X0068500D01*
X0069000Y0007405D02*
X0068500D01*
X0069000Y0007396D02*
X0068500D01*
X0069000Y0007387D02*
X0068500D01*
X0069000Y0007378D02*
X0068500D01*
X0069000Y0007369D02*
X0068500D01*
X0069000Y0007360D02*
X0068500D01*
X0069000Y0007351D02*
X0068500D01*
X0069000Y0007342D02*
X0068500D01*
X0069000Y0007333D02*
X0068500D01*
X0069000Y0007324D02*
X0068500D01*
X0069000Y0007315D02*
X0068500D01*
X0069000Y0007306D02*
X0068500D01*
X0069000Y0007297D02*
X0068500D01*
X0069000Y0007288D02*
X0068500D01*
X0069000Y0007279D02*
X0068500D01*
X0069000Y0007270D02*
X0068500D01*
X0069000Y0007261D02*
X0068500D01*
X0069000Y0007252D02*
X0068500D01*
X0069000Y0007243D02*
X0068500D01*
X0069000Y0007234D02*
X0068500D01*
X0069000Y0007225D02*
X0068500D01*
X0069000Y0007216D02*
X0068500D01*
X0069000Y0007207D02*
X0068500D01*
X0069000Y0007198D02*
X0068500D01*
X0069000Y0007189D02*
X0068500D01*
X0069000Y0007180D02*
X0068500D01*
X0069000Y0007171D02*
X0068500D01*
X0069000Y0007162D02*
X0068500D01*
X0069000Y0007153D02*
X0068500D01*
X0069000Y0007144D02*
X0068500D01*
X0069000Y0007135D02*
X0068500D01*
X0069000Y0007126D02*
X0068500D01*
X0069000Y0007117D02*
X0068500D01*
X0069000Y0007108D02*
X0068500D01*
X0069000Y0007099D02*
X0068500D01*
X0069000Y0007090D02*
X0068500D01*
X0069000Y0007081D02*
X0068500D01*
X0069000Y0007072D02*
X0068500D01*
X0069000Y0007063D02*
X0068500D01*
X0069000Y0007054D02*
X0068500D01*
X0069000Y0007045D02*
X0068500D01*
X0069000Y0007036D02*
X0068500D01*
X0069000Y0007027D02*
X0068500D01*
X0069000Y0007018D02*
X0068500D01*
X0069000Y0007009D02*
X0068500D01*
X0069000Y0007000D02*
X0068500D01*
X0069000Y0006991D02*
X0068500D01*
X0069000Y0006982D02*
X0068500D01*
X0069000Y0006973D02*
X0068500D01*
X0069000Y0006964D02*
X0068500D01*
X0069000Y0006955D02*
X0068500D01*
X0069000Y0006946D02*
X0068500D01*
X0069000Y0006937D02*
X0068500D01*
X0069000Y0006928D02*
X0068500D01*
X0069000Y0006919D02*
X0068500D01*
X0069000Y0006910D02*
X0068500D01*
X0069000Y0006901D02*
X0068500D01*
X0069000Y0006892D02*
X0068500D01*
X0069000Y0006883D02*
X0068500D01*
X0069000Y0006874D02*
X0068500D01*
X0069000Y0006865D02*
X0068500D01*
X0069000Y0006856D02*
X0068500D01*
X0069000Y0006847D02*
X0068500D01*
X0069000Y0006838D02*
X0068500D01*
X0069000Y0006829D02*
X0068500D01*
X0069000Y0006820D02*
X0068500D01*
X0069000Y0006811D02*
X0068500D01*
X0069000Y0006802D02*
X0068500D01*
X0069000Y0006793D02*
X0068500D01*
X0069000Y0006784D02*
X0068500D01*
X0069000Y0006775D02*
X0068500D01*
X0069000Y0006766D02*
X0068500D01*
X0069000Y0006757D02*
X0068500D01*
X0069000Y0006748D02*
X0068498D01*
X0069000Y0006739D02*
X0068489D01*
X0069000Y0006730D02*
X0068480D01*
X0069000Y0006721D02*
X0068471D01*
X0069000Y0006712D02*
X0068462D01*
X0069000Y0006703D02*
X0068453D01*
X0069000Y0006694D02*
X0068444D01*
X0069000Y0006685D02*
X0068435D01*
X0069000Y0006676D02*
X0068426D01*
X0069000Y0006667D02*
X0068417D01*
X0069000Y0006658D02*
X0068408D01*
X0069000Y0006649D02*
X0068399D01*
X0069000Y0006640D02*
X0068390D01*
X0069000Y0006631D02*
X0068381D01*
X0069000Y0006622D02*
X0068372D01*
X0069000Y0006613D02*
X0068363D01*
X0069000Y0006604D02*
X0068354D01*
X0069000Y0006595D02*
X0068345D01*
X0069000Y0006586D02*
X0068336D01*
X0069000Y0006577D02*
X0068327D01*
X0069000Y0006568D02*
X0068318D01*
X0069000Y0006559D02*
X0068309D01*
X0069000Y0006550D02*
X0068300D01*
X0069000Y0006541D02*
X0068291D01*
X0069000Y0006532D02*
X0068282D01*
X0069000Y0006523D02*
X0068273D01*
X0069000Y0006514D02*
X0068264D01*
X0069000Y0006505D02*
X0068255D01*
X0068996Y0006496D02*
X0068246D01*
X0068987Y0006487D02*
X0068237D01*
X0068978Y0006478D02*
X0068228D01*
X0068969Y0006469D02*
X0068219D01*
X0068960Y0006460D02*
X0068210D01*
X0068951Y0006451D02*
X0068201D01*
X0068942Y0006442D02*
X0068192D01*
X0068933Y0006433D02*
X0068183D01*
X0068924Y0006424D02*
X0068174D01*
X0068915Y0006415D02*
X0068165D01*
X0068906Y0006406D02*
X0068156D01*
X0068897Y0006397D02*
X0068147D01*
X0068888Y0006388D02*
X0068138D01*
X0068879Y0006379D02*
X0068129D01*
X0068870Y0006370D02*
X0068120D01*
X0068861Y0006361D02*
X0068111D01*
X0068852Y0006352D02*
X0068102D01*
X0068843Y0006343D02*
X0068093D01*
X0068834Y0006334D02*
X0068084D01*
X0068825Y0006325D02*
X0068075D01*
X0068816Y0006316D02*
X0068066D01*
X0068807Y0006307D02*
X0068057D01*
X0068798Y0006298D02*
X0068048D01*
X0068789Y0006289D02*
X0068039D01*
X0068780Y0006280D02*
X0068030D01*
X0068771Y0006271D02*
X0068021D01*
X0068762Y0006262D02*
X0068012D01*
X0068753Y0006253D02*
X0068003D01*
X0068744Y0006244D02*
X0067994D01*
X0068735Y0006235D02*
X0067985D01*
X0068726Y0006226D02*
X0067976D01*
X0068717Y0006217D02*
X0067967D01*
X0068708Y0006208D02*
X0067958D01*
X0068699Y0006199D02*
X0067949D01*
X0068690Y0006190D02*
X0067940D01*
X0068681Y0006181D02*
X0067931D01*
X0068672Y0006172D02*
X0067922D01*
X0068663Y0006163D02*
X0067913D01*
X0068654Y0006154D02*
X0067904D01*
X0068645Y0006145D02*
X0067895D01*
X0068636Y0006136D02*
X0067886D01*
X0068627Y0006127D02*
X0067877D01*
X0068618Y0006118D02*
X0067868D01*
X0068609Y0006109D02*
X0067859D01*
X0068600Y0006100D02*
X0067850D01*
X0068591Y0006091D02*
X0067841D01*
X0068582Y0006082D02*
X0067832D01*
X0068573Y0006073D02*
X0067823D01*
X0068564Y0006064D02*
X0067814D01*
X0068555Y0006055D02*
X0067805D01*
X0068546Y0006046D02*
X0067796D01*
X0068537Y0006037D02*
X0067787D01*
X0068528Y0006028D02*
X0067778D01*
X0068519Y0006019D02*
X0067769D01*
X0068510Y0006010D02*
X0067760D01*
X0068501Y0006001D02*
X0067751D01*
X0068492Y0005992D02*
X0067742D01*
X0068483Y0005983D02*
X0067733D01*
X0068474Y0005974D02*
X0067724D01*
X0068465Y0005965D02*
X0067715D01*
X0068456Y0005956D02*
X0067706D01*
X0068447Y0005947D02*
X0067697D01*
X0068438Y0005938D02*
X0067688D01*
X0068429Y0005929D02*
X0067679D01*
X0068420Y0005920D02*
X0067670D01*
X0068411Y0005911D02*
X0067661D01*
X0068402Y0005902D02*
X0067652D01*
X0068393Y0005893D02*
X0067643D01*
X0068384Y0005884D02*
X0067634D01*
X0068375Y0005875D02*
X0067625D01*
X0068366Y0005866D02*
X0067616D01*
X0068357Y0005857D02*
X0067607D01*
X0068348Y0005848D02*
X0067598D01*
X0068339Y0005839D02*
X0067589D01*
X0068330Y0005830D02*
X0067580D01*
X0068321Y0005821D02*
X0067571D01*
X0068312Y0005812D02*
X0067562D01*
X0068303Y0005803D02*
X0067553D01*
X0068294Y0005794D02*
X0067544D01*
X0068285Y0005785D02*
X0067535D01*
X0068276Y0005776D02*
X0067526D01*
X0068267Y0005767D02*
X0067517D01*
X0068258Y0005758D02*
X0067508D01*
X0068249Y0005749D02*
X0067499D01*
X0068240Y0005740D02*
X0064000D01*
X0068231Y0005731D02*
X0064000D01*
X0068222Y0005722D02*
X0064000D01*
X0068213Y0005713D02*
X0064000D01*
X0068204Y0005704D02*
X0064000D01*
X0068195Y0005695D02*
X0064000D01*
X0068186Y0005686D02*
X0064000D01*
X0068177Y0005677D02*
X0064000D01*
X0068168Y0005668D02*
X0064000D01*
X0068159Y0005659D02*
X0064000D01*
X0068150Y0005650D02*
X0064000D01*
X0068141Y0005641D02*
X0064000D01*
X0068132Y0005632D02*
X0064000D01*
X0068123Y0005623D02*
X0064000D01*
X0068114Y0005614D02*
X0064000D01*
X0068105Y0005605D02*
X0064000D01*
X0068096Y0005596D02*
X0064000D01*
X0068087Y0005587D02*
X0064000D01*
X0068078Y0005578D02*
X0064000D01*
X0068069Y0005569D02*
X0064000D01*
X0068060Y0005560D02*
X0064000D01*
X0068051Y0005551D02*
X0064000D01*
X0068042Y0005542D02*
X0064000D01*
X0068033Y0005533D02*
X0064000D01*
X0068024Y0005524D02*
X0064000D01*
X0068015Y0005515D02*
X0064000D01*
X0068006Y0005506D02*
X0064000D01*
X0067997Y0005497D02*
X0064000D01*
X0067988Y0005488D02*
X0064000D01*
X0067979Y0005479D02*
X0064000D01*
X0067970Y0005470D02*
X0064000D01*
X0067961Y0005461D02*
X0064000D01*
X0067952Y0005452D02*
X0064000D01*
X0067943Y0005443D02*
X0064000D01*
X0067934Y0005434D02*
X0064000D01*
X0067925Y0005425D02*
X0064000D01*
X0067916Y0005416D02*
X0064000D01*
X0067907Y0005407D02*
X0064000D01*
X0067898Y0005398D02*
X0064000D01*
X0067889Y0005389D02*
X0064000D01*
X0067880Y0005380D02*
X0064000D01*
X0067871Y0005371D02*
X0064000D01*
X0067862Y0005362D02*
X0064000D01*
X0067853Y0005353D02*
X0064000D01*
X0067844Y0005344D02*
X0064000D01*
X0067835Y0005335D02*
X0064000D01*
X0067826Y0005326D02*
X0064000D01*
X0067817Y0005317D02*
X0064000D01*
X0067808Y0005308D02*
X0064000D01*
X0067799Y0005299D02*
X0064000D01*
X0067790Y0005290D02*
X0064000D01*
X0067781Y0005281D02*
X0064000D01*
X0067772Y0005272D02*
X0064000D01*
X0067763Y0005263D02*
X0064000D01*
X0067500Y0005750D02*
X0064000D01*
X0068500Y0006750D02*
X0067500Y0005750D01*
X0068500Y0011250D02*
Y0006750D01*
X0069000Y0011250D02*
X0068500D01*
X0069000D02*
Y0006500D01*
X0067750Y0005250D01*
X0064000D01*
Y0005750D02*
Y0005250D01*
X0068990Y0011250D02*
Y0006490D01*
X0068981Y0011250D02*
Y0006481D01*
X0068972Y0011250D02*
Y0006472D01*
X0068963Y0011250D02*
Y0006463D01*
X0068954Y0011250D02*
Y0006454D01*
X0068945Y0011250D02*
Y0006445D01*
X0068936Y0011250D02*
Y0006436D01*
X0068927Y0011250D02*
Y0006427D01*
X0068918Y0011250D02*
Y0006418D01*
X0068909Y0011250D02*
Y0006409D01*
X0068900Y0011250D02*
Y0006400D01*
X0068891Y0011250D02*
Y0006391D01*
X0068882Y0011250D02*
Y0006382D01*
X0068873Y0011250D02*
Y0006373D01*
X0068864Y0011250D02*
Y0006364D01*
X0068855Y0011250D02*
Y0006355D01*
X0068846Y0011250D02*
Y0006346D01*
X0068837Y0011250D02*
Y0006337D01*
X0068828Y0011250D02*
Y0006328D01*
X0068819Y0011250D02*
Y0006319D01*
X0068810Y0011250D02*
Y0006310D01*
X0068801Y0011250D02*
Y0006301D01*
X0068792Y0011250D02*
Y0006292D01*
X0068783Y0011250D02*
Y0006283D01*
X0068774Y0011250D02*
Y0006274D01*
X0068765Y0011250D02*
Y0006265D01*
X0068756Y0011250D02*
Y0006256D01*
X0068747Y0011250D02*
Y0006247D01*
X0068738Y0011250D02*
Y0006238D01*
X0068729Y0011250D02*
Y0006229D01*
X0068720Y0011250D02*
Y0006220D01*
X0068711Y0011250D02*
Y0006211D01*
X0068702Y0011250D02*
Y0006202D01*
X0068693Y0011250D02*
Y0006193D01*
X0068684Y0011250D02*
Y0006184D01*
X0068675Y0011250D02*
Y0006175D01*
X0068666Y0011250D02*
Y0006166D01*
X0068657Y0011250D02*
Y0006157D01*
X0068648Y0011250D02*
Y0006148D01*
X0068639Y0011250D02*
Y0006139D01*
X0068630Y0011250D02*
Y0006130D01*
X0068621Y0011250D02*
Y0006121D01*
X0068612Y0011250D02*
Y0006112D01*
X0068603Y0011250D02*
Y0006103D01*
X0068594Y0011250D02*
Y0006094D01*
X0068585Y0011250D02*
Y0006085D01*
X0068576Y0011250D02*
Y0006076D01*
X0068567Y0011250D02*
Y0006067D01*
X0068558Y0011250D02*
Y0006058D01*
X0068549Y0011250D02*
Y0006049D01*
X0068540Y0011250D02*
Y0006040D01*
X0068531Y0011250D02*
Y0006031D01*
X0068522Y0011250D02*
Y0006022D01*
X0068513Y0011250D02*
Y0006013D01*
X0068504Y0011250D02*
Y0006004D01*
X0068495Y0006745D02*
Y0005995D01*
X0068486Y0006736D02*
Y0005986D01*
X0068477Y0006727D02*
Y0005977D01*
X0068468Y0006718D02*
Y0005968D01*
X0068459Y0006709D02*
Y0005959D01*
X0068450Y0006700D02*
Y0005950D01*
X0068441Y0006691D02*
Y0005941D01*
X0068432Y0006682D02*
Y0005932D01*
X0068423Y0006673D02*
Y0005923D01*
X0068414Y0006664D02*
Y0005914D01*
X0068405Y0006655D02*
Y0005905D01*
X0068396Y0006646D02*
Y0005896D01*
X0068387Y0006637D02*
Y0005887D01*
X0068378Y0006628D02*
Y0005878D01*
X0068369Y0006619D02*
Y0005869D01*
X0068360Y0006610D02*
Y0005860D01*
X0068351Y0006601D02*
Y0005851D01*
X0068342Y0006592D02*
Y0005842D01*
X0068333Y0006583D02*
Y0005833D01*
X0068324Y0006574D02*
Y0005824D01*
X0068315Y0006565D02*
Y0005815D01*
X0068306Y0006556D02*
Y0005806D01*
X0068297Y0006547D02*
Y0005797D01*
X0068288Y0006538D02*
Y0005788D01*
X0068279Y0006529D02*
Y0005779D01*
X0068270Y0006520D02*
Y0005770D01*
X0068261Y0006511D02*
Y0005761D01*
X0068252Y0006502D02*
Y0005752D01*
X0068243Y0006493D02*
Y0005743D01*
X0068234Y0006484D02*
Y0005734D01*
X0068225Y0006475D02*
Y0005725D01*
X0068216Y0006466D02*
Y0005716D01*
X0068207Y0006457D02*
Y0005707D01*
X0068198Y0006448D02*
Y0005698D01*
X0068189Y0006439D02*
Y0005689D01*
X0068180Y0006430D02*
Y0005680D01*
X0068171Y0006421D02*
Y0005671D01*
X0068162Y0006412D02*
Y0005662D01*
X0068153Y0006403D02*
Y0005653D01*
X0068144Y0006394D02*
Y0005644D01*
X0068135Y0006385D02*
Y0005635D01*
X0068126Y0006376D02*
Y0005626D01*
X0068117Y0006367D02*
Y0005617D01*
X0068108Y0006358D02*
Y0005608D01*
X0068099Y0006349D02*
Y0005599D01*
X0068090Y0006340D02*
Y0005590D01*
X0068081Y0006331D02*
Y0005581D01*
X0068072Y0006322D02*
Y0005572D01*
X0068063Y0006313D02*
Y0005563D01*
X0068054Y0006304D02*
Y0005554D01*
X0068045Y0006295D02*
Y0005545D01*
X0068036Y0006286D02*
Y0005536D01*
X0068027Y0006277D02*
Y0005527D01*
X0068018Y0006268D02*
Y0005518D01*
X0068009Y0006259D02*
Y0005509D01*
X0068000Y0006250D02*
Y0005500D01*
X0067991Y0006241D02*
Y0005491D01*
X0067982Y0006232D02*
Y0005482D01*
X0067973Y0006223D02*
Y0005473D01*
X0067964Y0006214D02*
Y0005464D01*
X0067955Y0006205D02*
Y0005455D01*
X0067946Y0006196D02*
Y0005446D01*
X0067937Y0006187D02*
Y0005437D01*
X0067928Y0006178D02*
Y0005428D01*
X0067919Y0006169D02*
Y0005419D01*
X0067910Y0006160D02*
Y0005410D01*
X0067901Y0006151D02*
Y0005401D01*
X0067892Y0006142D02*
Y0005392D01*
X0067883Y0006133D02*
Y0005383D01*
X0067874Y0006124D02*
Y0005374D01*
X0067865Y0006115D02*
Y0005365D01*
X0067856Y0006106D02*
Y0005356D01*
X0067847Y0006097D02*
Y0005347D01*
X0067838Y0006088D02*
Y0005338D01*
X0067829Y0006079D02*
Y0005329D01*
X0067820Y0006070D02*
Y0005320D01*
X0067811Y0006061D02*
Y0005311D01*
X0067802Y0006052D02*
Y0005302D01*
X0067793Y0006043D02*
Y0005293D01*
X0067784Y0006034D02*
Y0005284D01*
X0067775Y0006025D02*
Y0005275D01*
X0067766Y0006016D02*
Y0005266D01*
X0067757Y0006007D02*
Y0005257D01*
X0067748Y0005998D02*
Y0005250D01*
X0067739Y0005989D02*
Y0005250D01*
X0067730Y0005980D02*
Y0005250D01*
X0067721Y0005971D02*
Y0005250D01*
X0067712Y0005962D02*
Y0005250D01*
X0067703Y0005953D02*
Y0005250D01*
X0067694Y0005944D02*
Y0005250D01*
X0067685Y0005935D02*
Y0005250D01*
X0067676Y0005926D02*
Y0005250D01*
X0067667Y0005917D02*
Y0005250D01*
X0067658Y0005908D02*
Y0005250D01*
X0067649Y0005899D02*
Y0005250D01*
X0067640Y0005890D02*
Y0005250D01*
X0067631Y0005881D02*
Y0005250D01*
X0067622Y0005872D02*
Y0005250D01*
X0067613Y0005863D02*
Y0005250D01*
X0067604Y0005854D02*
Y0005250D01*
X0067595Y0005845D02*
Y0005250D01*
X0067586Y0005836D02*
Y0005250D01*
X0067577Y0005827D02*
Y0005250D01*
X0067568Y0005818D02*
Y0005250D01*
X0067559Y0005809D02*
Y0005250D01*
X0067550Y0005800D02*
Y0005250D01*
X0067541Y0005791D02*
Y0005250D01*
X0067532Y0005782D02*
Y0005250D01*
X0067523Y0005773D02*
Y0005250D01*
X0067514Y0005764D02*
Y0005250D01*
X0067505Y0005755D02*
Y0005250D01*
X0067496Y0005750D02*
Y0005250D01*
X0067487Y0005750D02*
Y0005250D01*
X0067478Y0005750D02*
Y0005250D01*
X0067469Y0005750D02*
Y0005250D01*
X0067460Y0005750D02*
Y0005250D01*
X0067451Y0005750D02*
Y0005250D01*
X0067442Y0005750D02*
Y0005250D01*
X0067433Y0005750D02*
Y0005250D01*
X0067424Y0005750D02*
Y0005250D01*
X0067415Y0005750D02*
Y0005250D01*
X0067406Y0005750D02*
Y0005250D01*
X0067397Y0005750D02*
Y0005250D01*
X0067388Y0005750D02*
Y0005250D01*
X0067379Y0005750D02*
Y0005250D01*
X0067370Y0005750D02*
Y0005250D01*
X0067361Y0005750D02*
Y0005250D01*
X0067352Y0005750D02*
Y0005250D01*
X0067343Y0005750D02*
Y0005250D01*
X0067334Y0005750D02*
Y0005250D01*
X0067325Y0005750D02*
Y0005250D01*
X0067316Y0005750D02*
Y0005250D01*
X0067307Y0005750D02*
Y0005250D01*
X0067298Y0005750D02*
Y0005250D01*
X0067289Y0005750D02*
Y0005250D01*
X0067280Y0005750D02*
Y0005250D01*
X0067271Y0005750D02*
Y0005250D01*
X0067262Y0005750D02*
Y0005250D01*
X0067253Y0005750D02*
Y0005250D01*
X0067244Y0005750D02*
Y0005250D01*
X0067235Y0005750D02*
Y0005250D01*
X0067226Y0005750D02*
Y0005250D01*
X0067217Y0005750D02*
Y0005250D01*
X0067208Y0005750D02*
Y0005250D01*
X0067199Y0005750D02*
Y0005250D01*
X0067190Y0005750D02*
Y0005250D01*
X0067181Y0005750D02*
Y0005250D01*
X0067172Y0005750D02*
Y0005250D01*
X0067163Y0005750D02*
Y0005250D01*
X0067154Y0005750D02*
Y0005250D01*
X0067145Y0005750D02*
Y0005250D01*
X0067136Y0005750D02*
Y0005250D01*
X0067127Y0005750D02*
Y0005250D01*
X0067118Y0005750D02*
Y0005250D01*
X0067109Y0005750D02*
Y0005250D01*
X0067100Y0005750D02*
Y0005250D01*
X0067091Y0005750D02*
Y0005250D01*
X0067082Y0005750D02*
Y0005250D01*
X0067073Y0005750D02*
Y0005250D01*
X0067064Y0005750D02*
Y0005250D01*
X0067055Y0005750D02*
Y0005250D01*
X0067046Y0005750D02*
Y0005250D01*
X0067037Y0005750D02*
Y0005250D01*
X0067028Y0005750D02*
Y0005250D01*
X0067019Y0005750D02*
Y0005250D01*
X0067010Y0005750D02*
Y0005250D01*
X0067001Y0005750D02*
Y0005250D01*
X0066992Y0005750D02*
Y0005250D01*
X0066983Y0005750D02*
Y0005250D01*
X0066974Y0005750D02*
Y0005250D01*
X0066965Y0005750D02*
Y0005250D01*
X0066956Y0005750D02*
Y0005250D01*
X0066947Y0005750D02*
Y0005250D01*
X0066938Y0005750D02*
Y0005250D01*
X0066929Y0005750D02*
Y0005250D01*
X0066920Y0005750D02*
Y0005250D01*
X0066911Y0005750D02*
Y0005250D01*
X0066902Y0005750D02*
Y0005250D01*
X0066893Y0005750D02*
Y0005250D01*
X0066884Y0005750D02*
Y0005250D01*
X0066875Y0005750D02*
Y0005250D01*
X0066866Y0005750D02*
Y0005250D01*
X0066857Y0005750D02*
Y0005250D01*
X0066848Y0005750D02*
Y0005250D01*
X0066839Y0005750D02*
Y0005250D01*
X0066830Y0005750D02*
Y0005250D01*
X0066821Y0005750D02*
Y0005250D01*
X0066812Y0005750D02*
Y0005250D01*
X0066803Y0005750D02*
Y0005250D01*
X0066794Y0005750D02*
Y0005250D01*
X0066785Y0005750D02*
Y0005250D01*
X0066776Y0005750D02*
Y0005250D01*
X0066767Y0005750D02*
Y0005250D01*
X0066758Y0005750D02*
Y0005250D01*
X0066749Y0005750D02*
Y0005250D01*
X0066740Y0005750D02*
Y0005250D01*
X0066731Y0005750D02*
Y0005250D01*
X0066722Y0005750D02*
Y0005250D01*
X0066713Y0005750D02*
Y0005250D01*
X0066704Y0005750D02*
Y0005250D01*
X0066695Y0005750D02*
Y0005250D01*
X0066686Y0005750D02*
Y0005250D01*
X0066677Y0005750D02*
Y0005250D01*
X0066668Y0005750D02*
Y0005250D01*
X0066659Y0005750D02*
Y0005250D01*
X0066650Y0005750D02*
Y0005250D01*
X0066641Y0005750D02*
Y0005250D01*
X0066632Y0005750D02*
Y0005250D01*
X0066623Y0005750D02*
Y0005250D01*
X0066614Y0005750D02*
Y0005250D01*
X0066605Y0005750D02*
Y0005250D01*
X0066596Y0005750D02*
Y0005250D01*
X0066587Y0005750D02*
Y0005250D01*
X0066578Y0005750D02*
Y0005250D01*
X0066569Y0005750D02*
Y0005250D01*
X0066560Y0005750D02*
Y0005250D01*
X0066551Y0005750D02*
Y0005250D01*
X0066542Y0005750D02*
Y0005250D01*
X0066533Y0005750D02*
Y0005250D01*
X0066524Y0005750D02*
Y0005250D01*
X0066515Y0005750D02*
Y0005250D01*
X0066506Y0005750D02*
Y0005250D01*
X0066497Y0005750D02*
Y0005250D01*
X0066488Y0005750D02*
Y0005250D01*
X0066479Y0005750D02*
Y0005250D01*
X0066470Y0005750D02*
Y0005250D01*
X0066461Y0005750D02*
Y0005250D01*
X0066452Y0005750D02*
Y0005250D01*
X0066443Y0005750D02*
Y0005250D01*
X0066434Y0005750D02*
Y0005250D01*
X0066425Y0005750D02*
Y0005250D01*
X0066416Y0005750D02*
Y0005250D01*
X0066407Y0005750D02*
Y0005250D01*
X0066398Y0005750D02*
Y0005250D01*
X0066389Y0005750D02*
Y0005250D01*
X0066380Y0005750D02*
Y0005250D01*
X0066371Y0005750D02*
Y0005250D01*
X0066362Y0005750D02*
Y0005250D01*
X0066353Y0005750D02*
Y0005250D01*
X0066344Y0005750D02*
Y0005250D01*
X0066335Y0005750D02*
Y0005250D01*
X0066326Y0005750D02*
Y0005250D01*
X0066317Y0005750D02*
Y0005250D01*
X0066308Y0005750D02*
Y0005250D01*
X0066299Y0005750D02*
Y0005250D01*
X0066290Y0005750D02*
Y0005250D01*
X0066281Y0005750D02*
Y0005250D01*
X0066272Y0005750D02*
Y0005250D01*
X0066263Y0005750D02*
Y0005250D01*
X0066254Y0005750D02*
Y0005250D01*
X0066245Y0005750D02*
Y0005250D01*
X0066236Y0005750D02*
Y0005250D01*
X0066227Y0005750D02*
Y0005250D01*
X0066218Y0005750D02*
Y0005250D01*
X0066209Y0005750D02*
Y0005250D01*
X0066200Y0005750D02*
Y0005250D01*
X0066191Y0005750D02*
Y0005250D01*
X0066182Y0005750D02*
Y0005250D01*
X0066173Y0005750D02*
Y0005250D01*
X0066164Y0005750D02*
Y0005250D01*
X0066155Y0005750D02*
Y0005250D01*
X0066146Y0005750D02*
Y0005250D01*
X0066137Y0005750D02*
Y0005250D01*
X0066128Y0005750D02*
Y0005250D01*
X0066119Y0005750D02*
Y0005250D01*
X0066110Y0005750D02*
Y0005250D01*
X0066101Y0005750D02*
Y0005250D01*
X0066092Y0005750D02*
Y0005250D01*
X0066083Y0005750D02*
Y0005250D01*
X0066074Y0005750D02*
Y0005250D01*
X0066065Y0005750D02*
Y0005250D01*
X0066056Y0005750D02*
Y0005250D01*
X0066047Y0005750D02*
Y0005250D01*
X0066038Y0005750D02*
Y0005250D01*
X0066029Y0005750D02*
Y0005250D01*
X0066020Y0005750D02*
Y0005250D01*
X0066011Y0005750D02*
Y0005250D01*
X0066002Y0005750D02*
Y0005250D01*
X0065993Y0005750D02*
Y0005250D01*
X0065984Y0005750D02*
Y0005250D01*
X0065975Y0005750D02*
Y0005250D01*
X0065966Y0005750D02*
Y0005250D01*
X0065957Y0005750D02*
Y0005250D01*
X0065948Y0005750D02*
Y0005250D01*
X0065939Y0005750D02*
Y0005250D01*
X0065930Y0005750D02*
Y0005250D01*
X0065921Y0005750D02*
Y0005250D01*
X0065912Y0005750D02*
Y0005250D01*
X0065903Y0005750D02*
Y0005250D01*
X0065894Y0005750D02*
Y0005250D01*
X0065885Y0005750D02*
Y0005250D01*
X0065876Y0005750D02*
Y0005250D01*
X0065867Y0005750D02*
Y0005250D01*
X0065858Y0005750D02*
Y0005250D01*
X0065849Y0005750D02*
Y0005250D01*
X0065840Y0005750D02*
Y0005250D01*
X0065831Y0005750D02*
Y0005250D01*
X0065822Y0005750D02*
Y0005250D01*
X0065813Y0005750D02*
Y0005250D01*
X0065804Y0005750D02*
Y0005250D01*
X0065795Y0005750D02*
Y0005250D01*
X0065786Y0005750D02*
Y0005250D01*
X0065777Y0005750D02*
Y0005250D01*
X0065768Y0005750D02*
Y0005250D01*
X0065759Y0005750D02*
Y0005250D01*
X0065750Y0005750D02*
Y0005250D01*
X0065741Y0005750D02*
Y0005250D01*
X0065732Y0005750D02*
Y0005250D01*
X0065723Y0005750D02*
Y0005250D01*
X0065714Y0005750D02*
Y0005250D01*
X0065705Y0005750D02*
Y0005250D01*
X0065696Y0005750D02*
Y0005250D01*
X0065687Y0005750D02*
Y0005250D01*
X0065678Y0005750D02*
Y0005250D01*
X0065669Y0005750D02*
Y0005250D01*
X0065660Y0005750D02*
Y0005250D01*
X0065651Y0005750D02*
Y0005250D01*
X0065642Y0005750D02*
Y0005250D01*
X0065633Y0005750D02*
Y0005250D01*
X0065624Y0005750D02*
Y0005250D01*
X0065615Y0005750D02*
Y0005250D01*
X0065606Y0005750D02*
Y0005250D01*
X0065597Y0005750D02*
Y0005250D01*
X0065588Y0005750D02*
Y0005250D01*
X0065579Y0005750D02*
Y0005250D01*
X0065570Y0005750D02*
Y0005250D01*
X0065561Y0005750D02*
Y0005250D01*
X0065552Y0005750D02*
Y0005250D01*
X0065543Y0005750D02*
Y0005250D01*
X0065534Y0005750D02*
Y0005250D01*
X0065525Y0005750D02*
Y0005250D01*
X0065516Y0005750D02*
Y0005250D01*
X0065507Y0005750D02*
Y0005250D01*
X0065498Y0005750D02*
Y0005250D01*
X0065489Y0005750D02*
Y0005250D01*
X0065480Y0005750D02*
Y0005250D01*
X0065471Y0005750D02*
Y0005250D01*
X0065462Y0005750D02*
Y0005250D01*
X0065453Y0005750D02*
Y0005250D01*
X0065444Y0005750D02*
Y0005250D01*
X0065435Y0005750D02*
Y0005250D01*
X0065426Y0005750D02*
Y0005250D01*
X0065417Y0005750D02*
Y0005250D01*
X0065408Y0005750D02*
Y0005250D01*
X0065399Y0005750D02*
Y0005250D01*
X0065390Y0005750D02*
Y0005250D01*
X0065381Y0005750D02*
Y0005250D01*
X0065372Y0005750D02*
Y0005250D01*
X0065363Y0005750D02*
Y0005250D01*
X0065354Y0005750D02*
Y0005250D01*
X0065345Y0005750D02*
Y0005250D01*
X0065336Y0005750D02*
Y0005250D01*
X0065327Y0005750D02*
Y0005250D01*
X0065318Y0005750D02*
Y0005250D01*
X0065309Y0005750D02*
Y0005250D01*
X0065300Y0005750D02*
Y0005250D01*
X0065291Y0005750D02*
Y0005250D01*
X0065282Y0005750D02*
Y0005250D01*
X0065273Y0005750D02*
Y0005250D01*
X0065264Y0005750D02*
Y0005250D01*
X0065255Y0005750D02*
Y0005250D01*
X0065246Y0005750D02*
Y0005250D01*
X0065237Y0005750D02*
Y0005250D01*
X0065228Y0005750D02*
Y0005250D01*
X0065219Y0005750D02*
Y0005250D01*
X0065210Y0005750D02*
Y0005250D01*
X0065201Y0005750D02*
Y0005250D01*
X0065192Y0005750D02*
Y0005250D01*
X0065183Y0005750D02*
Y0005250D01*
X0065174Y0005750D02*
Y0005250D01*
X0065165Y0005750D02*
Y0005250D01*
X0065156Y0005750D02*
Y0005250D01*
X0065147Y0005750D02*
Y0005250D01*
X0065138Y0005750D02*
Y0005250D01*
X0065129Y0005750D02*
Y0005250D01*
X0065120Y0005750D02*
Y0005250D01*
X0065111Y0005750D02*
Y0005250D01*
X0065102Y0005750D02*
Y0005250D01*
X0065093Y0005750D02*
Y0005250D01*
X0065084Y0005750D02*
Y0005250D01*
X0065075Y0005750D02*
Y0005250D01*
X0065066Y0005750D02*
Y0005250D01*
X0065057Y0005750D02*
Y0005250D01*
X0065048Y0005750D02*
Y0005250D01*
X0065039Y0005750D02*
Y0005250D01*
X0065030Y0005750D02*
Y0005250D01*
X0065021Y0005750D02*
Y0005250D01*
X0065012Y0005750D02*
Y0005250D01*
X0065003Y0005750D02*
Y0005250D01*
X0064994Y0005750D02*
Y0005250D01*
X0064985Y0005750D02*
Y0005250D01*
X0064976Y0005750D02*
Y0005250D01*
X0064967Y0005750D02*
Y0005250D01*
X0064958Y0005750D02*
Y0005250D01*
X0064949Y0005750D02*
Y0005250D01*
X0064940Y0005750D02*
Y0005250D01*
X0064931Y0005750D02*
Y0005250D01*
X0064922Y0005750D02*
Y0005250D01*
X0064913Y0005750D02*
Y0005250D01*
X0064904Y0005750D02*
Y0005250D01*
X0064895Y0005750D02*
Y0005250D01*
X0064886Y0005750D02*
Y0005250D01*
X0064877Y0005750D02*
Y0005250D01*
X0064868Y0005750D02*
Y0005250D01*
X0064859Y0005750D02*
Y0005250D01*
X0064850Y0005750D02*
Y0005250D01*
X0064841Y0005750D02*
Y0005250D01*
X0064832Y0005750D02*
Y0005250D01*
X0064823Y0005750D02*
Y0005250D01*
X0064814Y0005750D02*
Y0005250D01*
X0064805Y0005750D02*
Y0005250D01*
X0064796Y0005750D02*
Y0005250D01*
X0064787Y0005750D02*
Y0005250D01*
X0064778Y0005750D02*
Y0005250D01*
X0064769Y0005750D02*
Y0005250D01*
X0064760Y0005750D02*
Y0005250D01*
X0064751Y0005750D02*
Y0005250D01*
X0064742Y0005750D02*
Y0005250D01*
X0064733Y0005750D02*
Y0005250D01*
X0064724Y0005750D02*
Y0005250D01*
X0064715Y0005750D02*
Y0005250D01*
X0064706Y0005750D02*
Y0005250D01*
X0057699Y0031750D02*
Y0031300D01*
X0057690Y0031750D02*
Y0031300D01*
X0057681Y0031750D02*
Y0031300D01*
X0057672Y0031750D02*
Y0031300D01*
X0057663Y0031750D02*
Y0031300D01*
X0057654Y0031750D02*
Y0031300D01*
X0057645Y0031750D02*
Y0031300D01*
X0057636Y0031750D02*
Y0031300D01*
X0057627Y0031750D02*
Y0031300D01*
X0057618Y0031750D02*
Y0031300D01*
X0057609Y0031750D02*
Y0031300D01*
X0057600Y0031750D02*
Y0031300D01*
X0057591Y0031750D02*
Y0031300D01*
X0057582Y0031750D02*
Y0031300D01*
X0057573Y0031750D02*
Y0031300D01*
X0057564Y0031750D02*
Y0031300D01*
X0057555Y0031750D02*
Y0031300D01*
X0057546Y0031750D02*
Y0031300D01*
X0057537Y0031750D02*
Y0031300D01*
X0057528Y0031750D02*
Y0031300D01*
X0057519Y0031750D02*
Y0031300D01*
X0057510Y0031750D02*
Y0031300D01*
X0057501Y0031750D02*
Y0031300D01*
X0057492Y0031750D02*
Y0031300D01*
X0057483Y0031750D02*
Y0031300D01*
X0057474Y0031750D02*
Y0031300D01*
X0057465Y0031750D02*
Y0031300D01*
X0057456Y0031750D02*
Y0031300D01*
X0057447Y0031750D02*
Y0031300D01*
X0057438Y0031750D02*
Y0031300D01*
X0057429Y0031750D02*
Y0031300D01*
X0057420Y0031750D02*
Y0031300D01*
X0057411Y0031750D02*
Y0031300D01*
X0057402Y0031750D02*
Y0031300D01*
X0057393Y0031750D02*
Y0031300D01*
X0057384Y0031750D02*
Y0031300D01*
X0057375Y0031750D02*
Y0031300D01*
X0057366Y0031750D02*
Y0031300D01*
X0057357Y0031750D02*
Y0031300D01*
X0057348Y0031750D02*
Y0031300D01*
X0057339Y0031750D02*
Y0031300D01*
X0057330Y0031750D02*
Y0031300D01*
X0057321Y0031750D02*
Y0031300D01*
X0057312Y0031750D02*
Y0031300D01*
X0057303Y0031750D02*
Y0031300D01*
X0057294Y0031750D02*
Y0031300D01*
X0057285Y0031750D02*
Y0031300D01*
X0057276Y0031750D02*
Y0031300D01*
X0057267Y0031750D02*
Y0031300D01*
X0057258Y0031750D02*
Y0031300D01*
X0057249Y0031750D02*
Y0031300D01*
X0057240Y0031750D02*
Y0031300D01*
X0057231Y0031750D02*
Y0031300D01*
X0057222Y0031750D02*
Y0031300D01*
X0057213Y0031750D02*
Y0031300D01*
X0057204Y0031750D02*
Y0031300D01*
X0057195Y0031750D02*
Y0031300D01*
X0057186Y0031750D02*
Y0031300D01*
X0057177Y0031750D02*
Y0031300D01*
X0057168Y0031750D02*
Y0031300D01*
X0057159Y0031750D02*
Y0031300D01*
X0057150Y0031750D02*
Y0031300D01*
X0057141Y0031750D02*
Y0031300D01*
X0057132Y0031750D02*
Y0031300D01*
X0057123Y0031750D02*
Y0031300D01*
X0057114Y0031750D02*
Y0031300D01*
X0057105Y0031750D02*
Y0031300D01*
X0057096Y0031750D02*
Y0031300D01*
X0057087Y0031750D02*
Y0031300D01*
X0057078Y0031750D02*
Y0031300D01*
X0057069Y0031750D02*
Y0031300D01*
X0057060Y0031750D02*
Y0031300D01*
X0057051Y0031750D02*
Y0031300D01*
X0057042Y0031750D02*
Y0031300D01*
X0057033Y0031750D02*
Y0031300D01*
X0057024Y0031750D02*
Y0031300D01*
X0057015Y0031750D02*
Y0031300D01*
X0057006Y0031750D02*
Y0031300D01*
X0056997Y0031750D02*
Y0031300D01*
X0056988Y0031750D02*
Y0031300D01*
X0056979Y0031750D02*
Y0031300D01*
X0056970Y0031750D02*
Y0031300D01*
X0056961Y0031750D02*
Y0031300D01*
X0056952Y0031750D02*
Y0031300D01*
X0056943Y0031750D02*
Y0031300D01*
X0056934Y0031750D02*
Y0031300D01*
X0056925Y0031750D02*
Y0031300D01*
X0056916Y0031750D02*
Y0031300D01*
X0056907Y0031750D02*
Y0031300D01*
X0056898Y0031750D02*
Y0031300D01*
X0056889Y0031750D02*
Y0031300D01*
X0056880Y0031750D02*
Y0031300D01*
X0056871Y0031750D02*
Y0031300D01*
X0056862Y0031750D02*
Y0031300D01*
X0056853Y0031750D02*
Y0031300D01*
X0056844Y0031750D02*
Y0031300D01*
X0056835Y0031750D02*
Y0031300D01*
X0056826Y0031750D02*
Y0031300D01*
X0056817Y0031750D02*
Y0031300D01*
X0056808Y0031750D02*
Y0031300D01*
X0056799Y0031750D02*
Y0031300D01*
X0056790Y0031750D02*
Y0031300D01*
X0056781Y0031750D02*
Y0031300D01*
X0056772Y0031750D02*
Y0031300D01*
X0056763Y0031750D02*
Y0031300D01*
X0056754Y0031750D02*
Y0031300D01*
X0056745Y0031750D02*
Y0031300D01*
X0056736Y0031750D02*
Y0031300D01*
X0056727Y0031750D02*
Y0031300D01*
X0056718Y0031750D02*
Y0031300D01*
X0056709Y0031750D02*
Y0031300D01*
X0056700Y0031750D02*
Y0031300D01*
X0056691Y0031750D02*
Y0031300D01*
X0056682Y0031750D02*
Y0031300D01*
X0056673Y0031750D02*
Y0031300D01*
X0056664Y0031750D02*
Y0031300D01*
X0056655Y0031750D02*
Y0031300D01*
X0056646Y0031750D02*
Y0031300D01*
X0056637Y0031750D02*
Y0031300D01*
X0056628Y0031750D02*
Y0031300D01*
X0056619Y0031750D02*
Y0031300D01*
X0056610Y0031750D02*
Y0031300D01*
X0056601Y0031750D02*
Y0031300D01*
X0056592Y0031750D02*
Y0031300D01*
X0056583Y0031750D02*
Y0031300D01*
X0056574Y0031750D02*
Y0031300D01*
X0056565Y0031750D02*
Y0031300D01*
X0056556Y0031750D02*
Y0031300D01*
X0056547Y0031750D02*
Y0031300D01*
X0056538Y0031750D02*
Y0031300D01*
X0056529Y0031750D02*
Y0031300D01*
X0056520Y0031750D02*
Y0031300D01*
X0056511Y0031750D02*
Y0031300D01*
X0056502Y0031750D02*
Y0031300D01*
X0056493Y0031750D02*
Y0031300D01*
X0056484Y0031750D02*
Y0031300D01*
X0056475Y0031750D02*
Y0031300D01*
X0056466Y0031750D02*
Y0031300D01*
X0056457Y0031750D02*
Y0031300D01*
X0056448Y0031750D02*
Y0031300D01*
X0056439Y0031750D02*
Y0031300D01*
X0056430Y0031750D02*
Y0031300D01*
X0056421Y0031750D02*
Y0031300D01*
X0056412Y0031750D02*
Y0031300D01*
X0056403Y0031750D02*
Y0031300D01*
X0056394Y0031750D02*
Y0031300D01*
X0056385Y0031750D02*
Y0031300D01*
X0056376Y0031750D02*
Y0031300D01*
X0056367Y0031750D02*
Y0031300D01*
X0056358Y0031750D02*
Y0031300D01*
X0056349Y0031750D02*
Y0031300D01*
X0056340Y0031750D02*
Y0031300D01*
X0056331Y0031750D02*
Y0031300D01*
X0056322Y0031750D02*
Y0031300D01*
X0056313Y0031750D02*
Y0031300D01*
X0056304Y0031750D02*
Y0031300D01*
X0056295Y0031750D02*
Y0031300D01*
X0056286Y0031750D02*
Y0031300D01*
X0056277Y0031750D02*
Y0031300D01*
X0056268Y0031750D02*
Y0031300D01*
X0056259Y0031750D02*
Y0031300D01*
X0056250Y0031750D02*
Y0031300D01*
X0056241Y0031750D02*
Y0031300D01*
X0056232Y0031750D02*
Y0031300D01*
X0056223Y0031750D02*
Y0031300D01*
X0056214Y0031750D02*
Y0031300D01*
X0056205Y0031750D02*
Y0031300D01*
X0056196Y0031750D02*
Y0031300D01*
X0056187Y0031750D02*
Y0031300D01*
X0056178Y0031750D02*
Y0031300D01*
X0056169Y0031750D02*
Y0031300D01*
X0056160Y0031750D02*
Y0031300D01*
X0056151Y0031750D02*
Y0031300D01*
X0056142Y0031750D02*
Y0031300D01*
X0056133Y0031750D02*
Y0031300D01*
X0056124Y0031750D02*
Y0031300D01*
X0056115Y0031750D02*
Y0031300D01*
X0056106Y0031750D02*
Y0031300D01*
X0056097Y0031750D02*
Y0031300D01*
X0056088Y0031750D02*
Y0031300D01*
X0056079Y0031750D02*
Y0031300D01*
X0056070Y0031750D02*
Y0031300D01*
X0056061Y0031750D02*
Y0031300D01*
X0056052Y0031750D02*
Y0031300D01*
X0056043Y0031750D02*
Y0031300D01*
X0056034Y0031750D02*
Y0031300D01*
X0056025Y0031750D02*
Y0031300D01*
X0056016Y0031750D02*
Y0031300D01*
X0056007Y0031750D02*
Y0031300D01*
X0055998Y0031752D02*
Y0031300D01*
X0055989Y0031761D02*
Y0031300D01*
X0055980Y0031770D02*
Y0031300D01*
X0055971Y0031779D02*
Y0031300D01*
X0055962Y0031788D02*
Y0031300D01*
X0055953Y0031797D02*
Y0031300D01*
X0055944Y0031806D02*
Y0031306D01*
X0055935Y0031815D02*
Y0031315D01*
X0055926Y0031824D02*
Y0031324D01*
X0055917Y0031833D02*
Y0031333D01*
X0055908Y0031842D02*
Y0031342D01*
X0055899Y0031851D02*
Y0031351D01*
X0055890Y0031860D02*
Y0031360D01*
X0055881Y0031869D02*
Y0031369D01*
X0055872Y0031878D02*
Y0031378D01*
X0055863Y0031887D02*
Y0031387D01*
X0055854Y0031896D02*
Y0031396D01*
X0055845Y0031905D02*
Y0031405D01*
X0055836Y0031914D02*
Y0031414D01*
X0055827Y0031923D02*
Y0031423D01*
X0055818Y0031932D02*
Y0031432D01*
X0055809Y0031941D02*
Y0031441D01*
X0055800Y0031950D02*
Y0031450D01*
X0055791Y0031959D02*
Y0031459D01*
X0055782Y0031968D02*
Y0031468D01*
X0055773Y0031977D02*
Y0031477D01*
X0055764Y0031986D02*
Y0031486D01*
X0055755Y0031995D02*
Y0031495D01*
X0055746Y0032004D02*
Y0031504D01*
X0055737Y0032013D02*
Y0031513D01*
X0055728Y0032022D02*
Y0031522D01*
X0055719Y0032031D02*
Y0031531D01*
X0055710Y0032040D02*
Y0031540D01*
X0055701Y0032049D02*
Y0031549D01*
X0055692Y0032058D02*
Y0031558D01*
X0055683Y0032067D02*
Y0031567D01*
X0055674Y0032076D02*
Y0031576D01*
X0055665Y0032085D02*
Y0031585D01*
X0055656Y0032094D02*
Y0031594D01*
X0055647Y0032100D02*
Y0031603D01*
X0055638Y0032100D02*
Y0031612D01*
X0055629Y0032100D02*
Y0031621D01*
X0055620Y0032100D02*
Y0031630D01*
X0055611Y0032100D02*
Y0031639D01*
X0055602Y0032100D02*
Y0031648D01*
X0055593Y0032100D02*
Y0031657D01*
X0055584Y0032100D02*
Y0031666D01*
X0055575Y0032100D02*
Y0031675D01*
X0055566Y0032100D02*
Y0031684D01*
X0055557Y0032100D02*
Y0031693D01*
X0055548Y0032100D02*
Y0031702D01*
X0055539Y0032100D02*
Y0031711D01*
X0055530Y0032100D02*
Y0031720D01*
X0055521Y0032100D02*
Y0031729D01*
X0055512Y0032100D02*
Y0031738D01*
X0055503Y0032100D02*
Y0031747D01*
X0055494Y0032100D02*
Y0031756D01*
X0055485Y0032100D02*
Y0031765D01*
X0055476Y0032100D02*
Y0031774D01*
X0055467Y0032100D02*
Y0031783D01*
X0055458Y0032100D02*
Y0031792D01*
X0055449Y0032100D02*
Y0031801D01*
X0055440Y0032100D02*
Y0031810D01*
X0055431Y0032100D02*
Y0031819D01*
X0055422Y0032100D02*
Y0031828D01*
X0055413Y0032100D02*
Y0031837D01*
X0055404Y0032100D02*
Y0031846D01*
X0055395Y0032100D02*
Y0031855D01*
X0055386Y0032100D02*
Y0031864D01*
X0055377Y0032100D02*
Y0031873D01*
X0055368Y0032100D02*
Y0031882D01*
X0055359Y0032100D02*
Y0031891D01*
X0055350Y0032100D02*
Y0031900D01*
X0055341Y0032100D02*
Y0031909D01*
X0055332Y0032100D02*
Y0031918D01*
X0055323Y0032100D02*
Y0031927D01*
X0055314Y0032100D02*
Y0031936D01*
X0055305Y0032100D02*
Y0031945D01*
X0055296Y0032100D02*
Y0031950D01*
X0055287Y0032100D02*
Y0031950D01*
X0055278Y0032100D02*
Y0031950D01*
X0055269Y0032100D02*
Y0031950D01*
X0055260Y0032100D02*
Y0031950D01*
X0055251Y0032100D02*
Y0031950D01*
X0055242Y0032100D02*
Y0031950D01*
X0055233Y0032100D02*
Y0031950D01*
X0055224Y0032100D02*
Y0031950D01*
X0055215Y0032100D02*
Y0031950D01*
X0055206Y0032100D02*
Y0031950D01*
X0055197Y0032100D02*
Y0031950D01*
X0055188Y0032100D02*
Y0031950D01*
X0055179Y0032100D02*
Y0031950D01*
X0055170Y0032100D02*
Y0031950D01*
X0055161Y0032100D02*
Y0031950D01*
X0055152Y0032100D02*
Y0031950D01*
X0055143Y0032100D02*
Y0031950D01*
X0055134Y0032100D02*
Y0031950D01*
X0055125Y0032100D02*
Y0031950D01*
X0055116Y0032100D02*
Y0031950D01*
X0055107Y0032100D02*
Y0031950D01*
X0055098Y0032100D02*
Y0031950D01*
X0055089Y0032100D02*
Y0031950D01*
X0055080Y0032100D02*
Y0031950D01*
X0055071Y0032100D02*
Y0031950D01*
X0055062Y0032100D02*
Y0031950D01*
X0055053Y0032100D02*
Y0031950D01*
X0055044Y0032100D02*
Y0031950D01*
X0055035Y0032100D02*
Y0031950D01*
X0055026Y0032100D02*
Y0031950D01*
X0055017Y0032100D02*
Y0031950D01*
X0055008Y0032100D02*
Y0031950D01*
X0054999Y0032100D02*
Y0031950D01*
X0054990Y0032100D02*
Y0031950D01*
X0054981Y0032100D02*
Y0031950D01*
X0054972Y0032100D02*
Y0031950D01*
X0054963Y0032100D02*
Y0031950D01*
X0054954Y0032100D02*
Y0031950D01*
X0054945Y0032100D02*
Y0031950D01*
X0054936Y0032100D02*
Y0031950D01*
X0054927Y0032100D02*
Y0031950D01*
X0054918Y0032100D02*
Y0031950D01*
X0054909Y0032100D02*
Y0031950D01*
X0054900Y0032100D02*
Y0031950D01*
X0054891Y0032100D02*
Y0031950D01*
X0054882Y0032100D02*
Y0031950D01*
X0054873Y0032100D02*
Y0031950D01*
X0054864Y0032100D02*
Y0031950D01*
X0054855Y0032100D02*
Y0031950D01*
X0054846Y0032100D02*
Y0031950D01*
X0054837Y0032100D02*
Y0031950D01*
X0054828Y0032100D02*
Y0031950D01*
X0054819Y0032100D02*
Y0031950D01*
X0054810Y0032100D02*
Y0031950D01*
X0054801Y0032100D02*
Y0031950D01*
X0054792Y0032100D02*
Y0031950D01*
X0054783Y0032100D02*
Y0031950D01*
X0054774Y0032100D02*
Y0031950D01*
X0054765Y0032100D02*
Y0031950D01*
X0054756Y0032100D02*
Y0031950D01*
X0054747Y0032100D02*
Y0031950D01*
X0054738Y0032100D02*
Y0031950D01*
X0054729Y0032100D02*
Y0031950D01*
X0054720Y0032100D02*
Y0031950D01*
X0054711Y0032100D02*
Y0031950D01*
X0054702Y0032100D02*
Y0031950D01*
X0054693Y0032100D02*
Y0031950D01*
X0054684Y0032100D02*
Y0031950D01*
X0054675Y0032100D02*
Y0031950D01*
X0054666Y0032100D02*
Y0031950D01*
X0054657Y0032100D02*
Y0031950D01*
X0054648Y0032100D02*
Y0031950D01*
X0054639Y0032100D02*
Y0031950D01*
X0054630Y0032100D02*
Y0031950D01*
X0054621Y0032100D02*
Y0031950D01*
X0054612Y0032100D02*
Y0031950D01*
X0054603Y0032100D02*
Y0031950D01*
X0054594Y0032100D02*
Y0031950D01*
X0054585Y0032100D02*
Y0031950D01*
X0054576Y0032100D02*
Y0031950D01*
X0054567Y0032100D02*
Y0031950D01*
X0054558Y0032100D02*
Y0031950D01*
X0054549Y0032100D02*
Y0031950D01*
X0054540Y0032100D02*
Y0031950D01*
X0054531Y0032100D02*
Y0031950D01*
X0054522Y0032100D02*
Y0031950D01*
X0054513Y0032100D02*
Y0031950D01*
X0054504Y0032100D02*
Y0031950D01*
X0054495Y0032100D02*
Y0031950D01*
X0054486Y0032100D02*
Y0031950D01*
X0054477Y0032100D02*
Y0031950D01*
X0054468Y0032100D02*
Y0031950D01*
X0054459Y0032100D02*
Y0031950D01*
X0054450Y0032100D02*
Y0031950D01*
X0054441Y0032100D02*
Y0031950D01*
X0054432Y0032100D02*
Y0031950D01*
X0054423Y0032100D02*
Y0031950D01*
X0054414Y0032100D02*
Y0031950D01*
X0054405Y0032100D02*
Y0031950D01*
X0054396Y0032100D02*
Y0031950D01*
X0054387Y0032100D02*
Y0031950D01*
X0054378Y0032100D02*
Y0031950D01*
X0054369Y0032100D02*
Y0031950D01*
X0054360Y0032100D02*
Y0031950D01*
X0054351Y0032100D02*
Y0031950D01*
X0054342Y0032100D02*
Y0031950D01*
X0054333Y0032100D02*
Y0031950D01*
X0054324Y0032100D02*
Y0031950D01*
X0054315Y0032100D02*
Y0031950D01*
X0054306Y0032100D02*
Y0031950D01*
X0054297Y0032100D02*
Y0031950D01*
X0054288Y0032100D02*
Y0031950D01*
X0054279Y0032100D02*
Y0031950D01*
X0054270Y0032100D02*
Y0031950D01*
X0054261Y0032100D02*
Y0031950D01*
X0054252Y0032100D02*
Y0031950D01*
X0054243Y0032100D02*
Y0031950D01*
X0054234Y0032100D02*
Y0031950D01*
X0054225Y0032100D02*
Y0031950D01*
X0054216Y0032100D02*
Y0031950D01*
X0054207Y0032100D02*
Y0031950D01*
X0054198Y0032100D02*
Y0031950D01*
X0054189Y0032100D02*
Y0031950D01*
X0054180Y0032100D02*
Y0031950D01*
X0054171Y0032100D02*
Y0031950D01*
X0054162Y0032100D02*
Y0031950D01*
X0054153Y0032100D02*
Y0031950D01*
X0054144Y0032100D02*
Y0031950D01*
X0054135Y0032100D02*
Y0031950D01*
X0054126Y0032100D02*
Y0031950D01*
X0054117Y0032100D02*
Y0031950D01*
X0054108Y0032100D02*
Y0031950D01*
X0054099Y0032100D02*
Y0031950D01*
X0054090Y0032100D02*
Y0031950D01*
X0054081Y0032100D02*
Y0031950D01*
X0054072Y0032100D02*
Y0031950D01*
X0054063Y0032100D02*
Y0031950D01*
X0054054Y0032100D02*
Y0031950D01*
X0054045Y0032100D02*
Y0031950D01*
X0054036Y0032100D02*
Y0031950D01*
X0054027Y0032100D02*
Y0031950D01*
X0054018Y0032100D02*
Y0031950D01*
X0054009Y0032100D02*
Y0031950D01*
X0054000Y0032100D02*
Y0031950D01*
X0053991Y0032100D02*
Y0031950D01*
X0053982Y0032100D02*
Y0031950D01*
X0053973Y0032100D02*
Y0031950D01*
X0053964Y0032100D02*
Y0031950D01*
X0053955Y0032100D02*
Y0031950D01*
X0053946Y0032100D02*
Y0031950D01*
X0053937Y0032100D02*
Y0031950D01*
X0053928Y0032100D02*
Y0031950D01*
X0053919Y0032100D02*
Y0031950D01*
X0053910Y0032100D02*
Y0031950D01*
X0053901Y0032100D02*
Y0031950D01*
X0053892Y0032100D02*
Y0031950D01*
X0053883Y0032100D02*
Y0031950D01*
X0053874Y0032100D02*
Y0031950D01*
X0053865Y0032100D02*
Y0031950D01*
X0053856Y0032100D02*
Y0031950D01*
X0053847Y0032100D02*
Y0031950D01*
X0053838Y0032100D02*
Y0031950D01*
X0053829Y0032100D02*
Y0031950D01*
X0053820Y0032100D02*
Y0031950D01*
X0053811Y0032100D02*
Y0031950D01*
X0053802Y0032100D02*
Y0031950D01*
X0053793Y0032100D02*
Y0031950D01*
X0053784Y0032100D02*
Y0031950D01*
X0053775Y0032100D02*
Y0031950D01*
X0053766Y0032100D02*
Y0031950D01*
X0053757Y0032100D02*
Y0031950D01*
X0053748Y0032100D02*
Y0031950D01*
X0053739Y0032100D02*
Y0031950D01*
X0053730Y0032100D02*
Y0031950D01*
X0053721Y0032100D02*
Y0031950D01*
X0053712Y0032100D02*
Y0031950D01*
X0053703Y0032100D02*
Y0031950D01*
X0053694Y0032100D02*
Y0031950D01*
X0053685Y0032100D02*
Y0031950D01*
X0053676Y0032100D02*
Y0031950D01*
X0053667Y0032100D02*
Y0031950D01*
X0053658Y0032100D02*
Y0031950D01*
X0053649Y0032100D02*
Y0031950D01*
X0053640Y0032100D02*
Y0031950D01*
X0053631Y0032100D02*
Y0031950D01*
X0053622Y0032100D02*
Y0031950D01*
X0053613Y0032100D02*
Y0031950D01*
X0053604Y0032100D02*
Y0031950D01*
X0053595Y0032100D02*
Y0031950D01*
X0053586Y0032100D02*
Y0031950D01*
X0053577Y0032100D02*
Y0031950D01*
X0053568Y0032100D02*
Y0031950D01*
X0053559Y0032100D02*
Y0031950D01*
X0053550Y0032100D02*
Y0031950D01*
X0053541Y0032100D02*
Y0031950D01*
X0053532Y0032100D02*
Y0031950D01*
X0053523Y0032100D02*
Y0031950D01*
X0053514Y0032100D02*
Y0031950D01*
X0053505Y0032100D02*
Y0031950D01*
X0053496Y0032100D02*
Y0031950D01*
X0053487Y0032100D02*
Y0031950D01*
X0053478Y0032100D02*
Y0031950D01*
X0053469Y0032100D02*
Y0031950D01*
X0053460Y0032100D02*
Y0031950D01*
X0053451Y0032100D02*
Y0031950D01*
X0053442Y0032100D02*
Y0031950D01*
X0053433Y0032100D02*
Y0031950D01*
X0053424Y0032100D02*
Y0031950D01*
X0053415Y0032100D02*
Y0031950D01*
X0053406Y0032100D02*
Y0031950D01*
X0053397Y0032100D02*
Y0031950D01*
X0053388Y0032100D02*
Y0031950D01*
X0053379Y0032100D02*
Y0031950D01*
X0053370Y0032100D02*
Y0031950D01*
X0053361Y0032100D02*
Y0031950D01*
X0053352Y0032100D02*
Y0031950D01*
X0053343Y0032100D02*
Y0031950D01*
X0053334Y0032100D02*
Y0031950D01*
X0053325Y0032100D02*
Y0031950D01*
X0053316Y0032100D02*
Y0031950D01*
X0053307Y0032100D02*
Y0031950D01*
X0053298Y0032100D02*
Y0031950D01*
X0053289Y0032100D02*
Y0031950D01*
X0053280Y0032100D02*
Y0031950D01*
X0053271Y0032100D02*
Y0031950D01*
X0053262Y0032100D02*
Y0031950D01*
X0053253Y0032100D02*
Y0031950D01*
X0053244Y0032100D02*
Y0031950D01*
X0053235Y0032100D02*
Y0031950D01*
X0053226Y0032100D02*
Y0031950D01*
X0053217Y0032100D02*
Y0031950D01*
X0053208Y0032100D02*
Y0031950D01*
X0053199Y0032100D02*
Y0031950D01*
X0053190Y0032100D02*
Y0031950D01*
X0053181Y0032100D02*
Y0031950D01*
X0053172Y0032100D02*
Y0031950D01*
X0053163Y0032100D02*
Y0031950D01*
X0053154Y0032100D02*
Y0031950D01*
X0053145Y0032100D02*
Y0031950D01*
X0053136Y0032100D02*
Y0031950D01*
X0053127Y0032100D02*
Y0031950D01*
X0053118Y0032100D02*
Y0031950D01*
X0053109Y0032100D02*
Y0031950D01*
X0053100Y0032100D02*
Y0031950D01*
X0053091Y0032100D02*
Y0031950D01*
X0053082Y0032100D02*
Y0031950D01*
X0053073Y0032100D02*
Y0031950D01*
X0053064Y0032100D02*
Y0031950D01*
X0053055Y0032100D02*
Y0031950D01*
X0053046Y0032100D02*
Y0031950D01*
X0053037Y0032100D02*
Y0031950D01*
X0053028Y0032100D02*
Y0031950D01*
X0053019Y0032100D02*
Y0031950D01*
X0053010Y0032100D02*
Y0031950D01*
X0053001Y0032100D02*
Y0031951D01*
X0052992Y0032100D02*
Y0031942D01*
X0052983Y0032100D02*
Y0031933D01*
X0052974Y0032100D02*
Y0031924D01*
X0052965Y0032100D02*
Y0031915D01*
X0052956Y0032100D02*
Y0031906D01*
X0052947Y0032100D02*
Y0031897D01*
X0052938Y0032100D02*
Y0031888D01*
X0052929Y0032100D02*
Y0031879D01*
X0052920Y0032100D02*
Y0031870D01*
X0052911Y0032100D02*
Y0031861D01*
X0052902Y0032100D02*
Y0031852D01*
X0052893Y0032100D02*
Y0031843D01*
X0052884Y0032100D02*
Y0031834D01*
X0052875Y0032100D02*
Y0031825D01*
X0052866Y0032100D02*
Y0031816D01*
X0052857Y0032100D02*
Y0031807D01*
X0052848Y0032100D02*
Y0031798D01*
X0052839Y0032100D02*
Y0031789D01*
X0052830Y0032100D02*
Y0031780D01*
X0052821Y0032100D02*
Y0031771D01*
X0052812Y0032100D02*
Y0031762D01*
X0052803Y0032100D02*
Y0031753D01*
X0052794Y0032100D02*
Y0031744D01*
X0052785Y0032100D02*
Y0031735D01*
X0052776Y0032100D02*
Y0031726D01*
X0052767Y0032100D02*
Y0031717D01*
X0052758Y0032100D02*
Y0031708D01*
X0052749Y0032100D02*
Y0031699D01*
X0052740Y0032100D02*
Y0031690D01*
X0052731Y0032100D02*
Y0031681D01*
X0052722Y0032100D02*
Y0031672D01*
X0052713Y0032100D02*
Y0031663D01*
X0052704Y0032100D02*
Y0031654D01*
X0052695Y0032100D02*
Y0031645D01*
X0052686Y0032100D02*
Y0031636D01*
X0052677Y0032100D02*
Y0031627D01*
X0052668Y0032100D02*
Y0031618D01*
X0052659Y0032100D02*
Y0031609D01*
X0052650Y0032100D02*
Y0031600D01*
X0052641Y0032100D02*
Y0031591D01*
X0052632Y0032100D02*
Y0031582D01*
X0052623Y0032100D02*
Y0031573D01*
X0052614Y0032100D02*
Y0031564D01*
X0052605Y0032100D02*
Y0031555D01*
X0052596Y0032100D02*
Y0031546D01*
X0052587Y0032100D02*
Y0031537D01*
X0052578Y0032100D02*
Y0031528D01*
X0052569Y0032100D02*
Y0031519D01*
X0052560Y0032100D02*
Y0031510D01*
X0052551Y0032100D02*
Y0031501D01*
X0052542Y0032100D02*
Y0031492D01*
X0052533Y0032100D02*
Y0031483D01*
X0052524Y0032100D02*
Y0031474D01*
X0052515Y0032100D02*
Y0031465D01*
X0052506Y0032100D02*
Y0031456D01*
X0052497Y0032097D02*
Y0031447D01*
X0052488Y0032088D02*
Y0031438D01*
X0052479Y0032079D02*
Y0031429D01*
X0052470Y0032070D02*
Y0031420D01*
X0052461Y0032061D02*
Y0031411D01*
X0052452Y0032052D02*
Y0031402D01*
X0052443Y0032043D02*
Y0031400D01*
X0052434Y0032034D02*
Y0031400D01*
X0052425Y0032025D02*
Y0031400D01*
X0052416Y0032016D02*
Y0031400D01*
X0052407Y0032007D02*
Y0031400D01*
X0052398Y0031998D02*
Y0031400D01*
X0052389Y0031989D02*
Y0031400D01*
X0052380Y0031980D02*
Y0031400D01*
X0052371Y0031971D02*
Y0031400D01*
X0052362Y0031962D02*
Y0031400D01*
X0052353Y0031953D02*
Y0031400D01*
X0052344Y0031944D02*
Y0031400D01*
X0052335Y0031935D02*
Y0031400D01*
X0052326Y0031926D02*
Y0031400D01*
X0052317Y0031917D02*
Y0031400D01*
X0052308Y0031908D02*
Y0031400D01*
X0052299Y0031899D02*
Y0031400D01*
X0052290Y0031890D02*
Y0031400D01*
X0052281Y0031881D02*
Y0031400D01*
X0052272Y0031872D02*
Y0031400D01*
X0052263Y0031863D02*
Y0031400D01*
X0052254Y0031854D02*
Y0031400D01*
X0052245Y0031845D02*
Y0031400D01*
X0052236Y0031836D02*
Y0031400D01*
X0052227Y0031827D02*
Y0031400D01*
X0052218Y0031818D02*
Y0031400D01*
X0052209Y0031809D02*
Y0031400D01*
X0052200Y0031800D02*
Y0031400D01*
X0052191Y0031791D02*
Y0031400D01*
X0052182Y0031782D02*
Y0031400D01*
X0052173Y0031773D02*
Y0031400D01*
X0052164Y0031764D02*
Y0031400D01*
X0052155Y0031755D02*
Y0031400D01*
X0052146Y0031746D02*
Y0031400D01*
X0052137Y0031737D02*
Y0031400D01*
X0052128Y0031728D02*
Y0031400D01*
X0052119Y0031719D02*
Y0031400D01*
X0052110Y0031710D02*
Y0031400D01*
X0052101Y0031701D02*
Y0031400D01*
X0052092Y0031692D02*
Y0031400D01*
X0052083Y0031683D02*
Y0031400D01*
X0052074Y0031674D02*
Y0031400D01*
X0052065Y0031665D02*
Y0031400D01*
X0052056Y0031656D02*
Y0031400D01*
X0052047Y0031647D02*
Y0031400D01*
X0052038Y0031638D02*
Y0031400D01*
X0052029Y0031629D02*
Y0031400D01*
X0052020Y0031620D02*
Y0031400D01*
X0052011Y0031611D02*
Y0031400D01*
X0052002Y0031602D02*
Y0031400D01*
X0051993Y0031593D02*
Y0031400D01*
X0051984Y0031584D02*
Y0031400D01*
X0051975Y0031575D02*
Y0031400D01*
X0051966Y0031566D02*
Y0031400D01*
X0051957Y0031557D02*
Y0031400D01*
X0051948Y0031548D02*
Y0031400D01*
X0051939Y0031539D02*
Y0031400D01*
X0051930Y0031530D02*
Y0031400D01*
X0051921Y0031521D02*
Y0031400D01*
X0051912Y0031512D02*
Y0031400D01*
X0051903Y0031503D02*
Y0031400D01*
X0051894Y0031494D02*
Y0031400D01*
X0051885Y0031485D02*
Y0031400D01*
X0051876Y0031476D02*
Y0031400D01*
X0051867Y0031467D02*
Y0031400D01*
X0051858Y0031458D02*
Y0031400D01*
X0051849Y0031449D02*
Y0031400D01*
X0051840Y0031440D02*
Y0031400D01*
X0051831Y0031431D02*
Y0031400D01*
X0051822Y0031422D02*
Y0031400D01*
X0051813Y0031413D02*
Y0031400D01*
X0055663Y0032087D02*
X0052487D01*
X0055672Y0032078D02*
X0052478D01*
X0055681Y0032069D02*
X0052469D01*
X0055690Y0032060D02*
X0052460D01*
X0055699Y0032051D02*
X0052451D01*
X0055708Y0032042D02*
X0052442D01*
X0055717Y0032033D02*
X0052433D01*
X0055726Y0032024D02*
X0052424D01*
X0055735Y0032015D02*
X0052415D01*
X0055744Y0032006D02*
X0052406D01*
X0055753Y0031997D02*
X0052397D01*
X0055762Y0031988D02*
X0052388D01*
X0055771Y0031979D02*
X0052379D01*
X0055780Y0031970D02*
X0052370D01*
X0055789Y0031961D02*
X0052361D01*
X0055798Y0031952D02*
X0052352D01*
X0052993Y0031943D02*
X0052343D01*
X0052984Y0031934D02*
X0052334D01*
X0052975Y0031925D02*
X0052325D01*
X0052966Y0031916D02*
X0052316D01*
X0052957Y0031907D02*
X0052307D01*
X0052948Y0031898D02*
X0052298D01*
X0052939Y0031889D02*
X0052289D01*
X0052930Y0031880D02*
X0052280D01*
X0052921Y0031871D02*
X0052271D01*
X0052912Y0031862D02*
X0052262D01*
X0052903Y0031853D02*
X0052253D01*
X0052894Y0031844D02*
X0052244D01*
X0052885Y0031835D02*
X0052235D01*
X0052876Y0031826D02*
X0052226D01*
X0052867Y0031817D02*
X0052217D01*
X0052858Y0031808D02*
X0052208D01*
X0052849Y0031799D02*
X0052199D01*
X0052840Y0031790D02*
X0052190D01*
X0052831Y0031781D02*
X0052181D01*
X0052822Y0031772D02*
X0052172D01*
X0052813Y0031763D02*
X0052163D01*
X0052804Y0031754D02*
X0052154D01*
X0052795Y0031745D02*
X0052145D01*
X0052786Y0031736D02*
X0052136D01*
X0052777Y0031727D02*
X0052127D01*
X0052768Y0031718D02*
X0052118D01*
X0061000D02*
X0055532D01*
X0052750Y0031700D02*
X0052100D01*
X0052741Y0031691D02*
X0052091D01*
X0052732Y0031682D02*
X0052082D01*
X0052723Y0031673D02*
X0052073D01*
X0052714Y0031664D02*
X0052064D01*
X0052705Y0031655D02*
X0052055D01*
X0052696Y0031646D02*
X0052046D01*
X0052687Y0031637D02*
X0052037D01*
X0052678Y0031628D02*
X0052028D01*
X0052669Y0031619D02*
X0052019D01*
X0052660Y0031610D02*
X0052010D01*
X0052651Y0031601D02*
X0052001D01*
X0052642Y0031592D02*
X0051992D01*
X0052633Y0031583D02*
X0051983D01*
X0052624Y0031574D02*
X0051974D01*
X0052615Y0031565D02*
X0051965D01*
X0052606Y0031556D02*
X0051956D01*
X0052597Y0031547D02*
X0051947D01*
X0052588Y0031538D02*
X0051938D01*
X0052579Y0031529D02*
X0051929D01*
X0052570Y0031520D02*
X0051920D01*
X0052561Y0031511D02*
X0051911D01*
X0052552Y0031502D02*
X0051902D01*
X0052543Y0031493D02*
X0051893D01*
X0052534Y0031484D02*
X0051884D01*
X0052525Y0031475D02*
X0051875D01*
X0052516Y0031466D02*
X0051866D01*
X0052507Y0031457D02*
X0051857D01*
X0052498Y0031448D02*
X0051848D01*
X0052489Y0031439D02*
X0051839D01*
X0052480Y0031430D02*
X0051830D01*
X0052471Y0031421D02*
X0051821D01*
X0052462Y0031412D02*
X0051812D01*
X0061000Y0031403D02*
X0055847D01*
X0061000Y0031394D02*
X0055856D01*
X0061000Y0031385D02*
X0055865D01*
X0061000Y0031376D02*
X0055874D01*
X0061000Y0031367D02*
X0055883D01*
X0061000Y0031358D02*
X0055892D01*
X0061000Y0031349D02*
X0055901D01*
X0061000Y0031340D02*
X0055910D01*
X0061000Y0031331D02*
X0055919D01*
X0061000Y0031322D02*
X0055928D01*
X0061000Y0031313D02*
X0055937D01*
X0055807Y0031943D02*
X0055307D01*
X0055816Y0031934D02*
X0055316D01*
X0055825Y0031925D02*
X0055325D01*
X0055834Y0031916D02*
X0055334D01*
X0055843Y0031907D02*
X0055343D01*
X0055852Y0031898D02*
X0055352D01*
X0055861Y0031889D02*
X0055361D01*
X0055870Y0031880D02*
X0055370D01*
X0055879Y0031871D02*
X0055379D01*
X0055888Y0031862D02*
X0055388D01*
X0055897Y0031853D02*
X0055397D01*
X0055906Y0031844D02*
X0055406D01*
X0055915Y0031835D02*
X0055415D01*
X0055924Y0031826D02*
X0055424D01*
X0055933Y0031817D02*
X0055433D01*
X0055942Y0031808D02*
X0055442D01*
X0055951Y0031799D02*
X0055451D01*
X0055960Y0031790D02*
X0055460D01*
X0055969Y0031781D02*
X0055469D01*
X0055978Y0031772D02*
X0055478D01*
X0055987Y0031763D02*
X0055487D01*
X0055996Y0031754D02*
X0055496D01*
X0061000Y0031745D02*
X0055505D01*
X0061000Y0031736D02*
X0055514D01*
X0061000Y0031727D02*
X0055523D01*
X0061000Y0031700D02*
X0055550D01*
X0061000Y0031691D02*
X0055559D01*
X0061000Y0031682D02*
X0055568D01*
X0061000Y0031673D02*
X0055577D01*
X0061000Y0031664D02*
X0055586D01*
X0061000Y0031655D02*
X0055595D01*
X0061000Y0031646D02*
X0055604D01*
X0061000Y0031637D02*
X0055613D01*
X0061000Y0031628D02*
X0055622D01*
X0061000Y0031619D02*
X0055631D01*
X0061000Y0031610D02*
X0055640D01*
X0061000Y0031601D02*
X0055649D01*
X0061000Y0031592D02*
X0055658D01*
X0061000Y0031583D02*
X0055667D01*
X0061000Y0031574D02*
X0055676D01*
X0061000Y0031565D02*
X0055685D01*
X0061000Y0031556D02*
X0055694D01*
X0061000Y0031547D02*
X0055703D01*
X0061000Y0031538D02*
X0055712D01*
X0061000Y0031529D02*
X0055721D01*
X0061000Y0031520D02*
X0055730D01*
X0061000Y0031511D02*
X0055739D01*
X0061000Y0031502D02*
X0055748D01*
X0061000Y0031493D02*
X0055757D01*
X0061000Y0031484D02*
X0055766D01*
X0061000Y0031475D02*
X0055775D01*
X0061000Y0031466D02*
X0055784D01*
X0061000Y0031457D02*
X0055793D01*
X0061000Y0031448D02*
X0055802D01*
X0061000Y0031439D02*
X0055811D01*
X0061000Y0031430D02*
X0055820D01*
X0061000Y0031421D02*
X0055829D01*
X0061000Y0031412D02*
X0055838D01*
X0061000Y0031750D02*
X0056000D01*
X0055650Y0032100D02*
X0056000Y0031750D01*
X0055650Y0032100D02*
X0052500D01*
X0051800Y0031400D01*
X0052450D02*
X0051800D01*
X0053000Y0031950D02*
X0052450Y0031400D01*
X0055300Y0031950D02*
X0053000D01*
X0055300D02*
X0055950Y0031300D01*
X0061000D02*
X0055950D01*
X0061000Y0031750D02*
Y0031300D01*
X0052759Y0031709D02*
X0052109D01*
X0061000D02*
X0055541D01*
X0060993Y0031750D02*
Y0031300D01*
X0060984Y0031750D02*
Y0031300D01*
X0060975Y0031750D02*
Y0031300D01*
X0060966Y0031750D02*
Y0031300D01*
X0060957Y0031750D02*
Y0031300D01*
X0060948Y0031750D02*
Y0031300D01*
X0060939Y0031750D02*
Y0031300D01*
X0060930Y0031750D02*
Y0031300D01*
X0060921Y0031750D02*
Y0031300D01*
X0060912Y0031750D02*
Y0031300D01*
X0060903Y0031750D02*
Y0031300D01*
X0060894Y0031750D02*
Y0031300D01*
X0060885Y0031750D02*
Y0031300D01*
X0060876Y0031750D02*
Y0031300D01*
X0060867Y0031750D02*
Y0031300D01*
X0060858Y0031750D02*
Y0031300D01*
X0060849Y0031750D02*
Y0031300D01*
X0060840Y0031750D02*
Y0031300D01*
X0060831Y0031750D02*
Y0031300D01*
X0060822Y0031750D02*
Y0031300D01*
X0060813Y0031750D02*
Y0031300D01*
X0060804Y0031750D02*
Y0031300D01*
X0060795Y0031750D02*
Y0031300D01*
X0060786Y0031750D02*
Y0031300D01*
X0060777Y0031750D02*
Y0031300D01*
X0060768Y0031750D02*
Y0031300D01*
X0060759Y0031750D02*
Y0031300D01*
X0060750Y0031750D02*
Y0031300D01*
X0060741Y0031750D02*
Y0031300D01*
X0060732Y0031750D02*
Y0031300D01*
X0060723Y0031750D02*
Y0031300D01*
X0060714Y0031750D02*
Y0031300D01*
X0060705Y0031750D02*
Y0031300D01*
X0060696Y0031750D02*
Y0031300D01*
X0060687Y0031750D02*
Y0031300D01*
X0060678Y0031750D02*
Y0031300D01*
X0060669Y0031750D02*
Y0031300D01*
X0060660Y0031750D02*
Y0031300D01*
X0060651Y0031750D02*
Y0031300D01*
X0060642Y0031750D02*
Y0031300D01*
X0060633Y0031750D02*
Y0031300D01*
X0060624Y0031750D02*
Y0031300D01*
X0060615Y0031750D02*
Y0031300D01*
X0060606Y0031750D02*
Y0031300D01*
X0060597Y0031750D02*
Y0031300D01*
X0060588Y0031750D02*
Y0031300D01*
X0060579Y0031750D02*
Y0031300D01*
X0060570Y0031750D02*
Y0031300D01*
X0060561Y0031750D02*
Y0031300D01*
X0060552Y0031750D02*
Y0031300D01*
X0060543Y0031750D02*
Y0031300D01*
X0060534Y0031750D02*
Y0031300D01*
X0060525Y0031750D02*
Y0031300D01*
X0060516Y0031750D02*
Y0031300D01*
X0060507Y0031750D02*
Y0031300D01*
X0060498Y0031750D02*
Y0031300D01*
X0060489Y0031750D02*
Y0031300D01*
X0060480Y0031750D02*
Y0031300D01*
X0060471Y0031750D02*
Y0031300D01*
X0060462Y0031750D02*
Y0031300D01*
X0060453Y0031750D02*
Y0031300D01*
X0060444Y0031750D02*
Y0031300D01*
X0060435Y0031750D02*
Y0031300D01*
X0060426Y0031750D02*
Y0031300D01*
X0060417Y0031750D02*
Y0031300D01*
X0060408Y0031750D02*
Y0031300D01*
X0060399Y0031750D02*
Y0031300D01*
X0060390Y0031750D02*
Y0031300D01*
X0060381Y0031750D02*
Y0031300D01*
X0060372Y0031750D02*
Y0031300D01*
X0060363Y0031750D02*
Y0031300D01*
X0060354Y0031750D02*
Y0031300D01*
X0060345Y0031750D02*
Y0031300D01*
X0060336Y0031750D02*
Y0031300D01*
X0060327Y0031750D02*
Y0031300D01*
X0060318Y0031750D02*
Y0031300D01*
X0060309Y0031750D02*
Y0031300D01*
X0060300Y0031750D02*
Y0031300D01*
X0060291Y0031750D02*
Y0031300D01*
X0060282Y0031750D02*
Y0031300D01*
X0060273Y0031750D02*
Y0031300D01*
X0060264Y0031750D02*
Y0031300D01*
X0060255Y0031750D02*
Y0031300D01*
X0060246Y0031750D02*
Y0031300D01*
X0060237Y0031750D02*
Y0031300D01*
X0060228Y0031750D02*
Y0031300D01*
X0060219Y0031750D02*
Y0031300D01*
X0060210Y0031750D02*
Y0031300D01*
X0060201Y0031750D02*
Y0031300D01*
X0060192Y0031750D02*
Y0031300D01*
X0060183Y0031750D02*
Y0031300D01*
X0060174Y0031750D02*
Y0031300D01*
X0060165Y0031750D02*
Y0031300D01*
X0060156Y0031750D02*
Y0031300D01*
X0060147Y0031750D02*
Y0031300D01*
X0060138Y0031750D02*
Y0031300D01*
X0060129Y0031750D02*
Y0031300D01*
X0060120Y0031750D02*
Y0031300D01*
X0060111Y0031750D02*
Y0031300D01*
X0060102Y0031750D02*
Y0031300D01*
X0060093Y0031750D02*
Y0031300D01*
X0060084Y0031750D02*
Y0031300D01*
X0060075Y0031750D02*
Y0031300D01*
X0060066Y0031750D02*
Y0031300D01*
X0060057Y0031750D02*
Y0031300D01*
X0060048Y0031750D02*
Y0031300D01*
X0060039Y0031750D02*
Y0031300D01*
X0060030Y0031750D02*
Y0031300D01*
X0060021Y0031750D02*
Y0031300D01*
X0060012Y0031750D02*
Y0031300D01*
X0060003Y0031750D02*
Y0031300D01*
X0059994Y0031750D02*
Y0031300D01*
X0059985Y0031750D02*
Y0031300D01*
X0059976Y0031750D02*
Y0031300D01*
X0059967Y0031750D02*
Y0031300D01*
X0059958Y0031750D02*
Y0031300D01*
X0059949Y0031750D02*
Y0031300D01*
X0059940Y0031750D02*
Y0031300D01*
X0059931Y0031750D02*
Y0031300D01*
X0059922Y0031750D02*
Y0031300D01*
X0059913Y0031750D02*
Y0031300D01*
X0059904Y0031750D02*
Y0031300D01*
X0059895Y0031750D02*
Y0031300D01*
X0059886Y0031750D02*
Y0031300D01*
X0059877Y0031750D02*
Y0031300D01*
X0059868Y0031750D02*
Y0031300D01*
X0059859Y0031750D02*
Y0031300D01*
X0059850Y0031750D02*
Y0031300D01*
X0059841Y0031750D02*
Y0031300D01*
X0059832Y0031750D02*
Y0031300D01*
X0059823Y0031750D02*
Y0031300D01*
X0059814Y0031750D02*
Y0031300D01*
X0059805Y0031750D02*
Y0031300D01*
X0059796Y0031750D02*
Y0031300D01*
X0059787Y0031750D02*
Y0031300D01*
X0059778Y0031750D02*
Y0031300D01*
X0059769Y0031750D02*
Y0031300D01*
X0059760Y0031750D02*
Y0031300D01*
X0059751Y0031750D02*
Y0031300D01*
X0059742Y0031750D02*
Y0031300D01*
X0059733Y0031750D02*
Y0031300D01*
X0059724Y0031750D02*
Y0031300D01*
X0059715Y0031750D02*
Y0031300D01*
X0059706Y0031750D02*
Y0031300D01*
X0059697Y0031750D02*
Y0031300D01*
X0059688Y0031750D02*
Y0031300D01*
X0059679Y0031750D02*
Y0031300D01*
X0059670Y0031750D02*
Y0031300D01*
X0059661Y0031750D02*
Y0031300D01*
X0059652Y0031750D02*
Y0031300D01*
X0059643Y0031750D02*
Y0031300D01*
X0059634Y0031750D02*
Y0031300D01*
X0059625Y0031750D02*
Y0031300D01*
X0059616Y0031750D02*
Y0031300D01*
X0059607Y0031750D02*
Y0031300D01*
X0059598Y0031750D02*
Y0031300D01*
X0059589Y0031750D02*
Y0031300D01*
X0059580Y0031750D02*
Y0031300D01*
X0059571Y0031750D02*
Y0031300D01*
X0059562Y0031750D02*
Y0031300D01*
X0059553Y0031750D02*
Y0031300D01*
X0059544Y0031750D02*
Y0031300D01*
X0059535Y0031750D02*
Y0031300D01*
X0059526Y0031750D02*
Y0031300D01*
X0059517Y0031750D02*
Y0031300D01*
X0059508Y0031750D02*
Y0031300D01*
X0059499Y0031750D02*
Y0031300D01*
X0059490Y0031750D02*
Y0031300D01*
X0059481Y0031750D02*
Y0031300D01*
X0059472Y0031750D02*
Y0031300D01*
X0059463Y0031750D02*
Y0031300D01*
X0059454Y0031750D02*
Y0031300D01*
X0059445Y0031750D02*
Y0031300D01*
X0059436Y0031750D02*
Y0031300D01*
X0059427Y0031750D02*
Y0031300D01*
X0059418Y0031750D02*
Y0031300D01*
X0059409Y0031750D02*
Y0031300D01*
X0059400Y0031750D02*
Y0031300D01*
X0059391Y0031750D02*
Y0031300D01*
X0059382Y0031750D02*
Y0031300D01*
X0059373Y0031750D02*
Y0031300D01*
X0059364Y0031750D02*
Y0031300D01*
X0059355Y0031750D02*
Y0031300D01*
X0059346Y0031750D02*
Y0031300D01*
X0059337Y0031750D02*
Y0031300D01*
X0059328Y0031750D02*
Y0031300D01*
X0059319Y0031750D02*
Y0031300D01*
X0059310Y0031750D02*
Y0031300D01*
X0059301Y0031750D02*
Y0031300D01*
X0059292Y0031750D02*
Y0031300D01*
X0059283Y0031750D02*
Y0031300D01*
X0059274Y0031750D02*
Y0031300D01*
X0059265Y0031750D02*
Y0031300D01*
X0059256Y0031750D02*
Y0031300D01*
X0059247Y0031750D02*
Y0031300D01*
X0059238Y0031750D02*
Y0031300D01*
X0059229Y0031750D02*
Y0031300D01*
X0059220Y0031750D02*
Y0031300D01*
X0059211Y0031750D02*
Y0031300D01*
X0059202Y0031750D02*
Y0031300D01*
X0059193Y0031750D02*
Y0031300D01*
X0059184Y0031750D02*
Y0031300D01*
X0059175Y0031750D02*
Y0031300D01*
X0059166Y0031750D02*
Y0031300D01*
X0059157Y0031750D02*
Y0031300D01*
X0059148Y0031750D02*
Y0031300D01*
X0059139Y0031750D02*
Y0031300D01*
X0059130Y0031750D02*
Y0031300D01*
X0059121Y0031750D02*
Y0031300D01*
X0059112Y0031750D02*
Y0031300D01*
X0059103Y0031750D02*
Y0031300D01*
X0059094Y0031750D02*
Y0031300D01*
X0059085Y0031750D02*
Y0031300D01*
X0059076Y0031750D02*
Y0031300D01*
X0059067Y0031750D02*
Y0031300D01*
X0059058Y0031750D02*
Y0031300D01*
X0059049Y0031750D02*
Y0031300D01*
X0059040Y0031750D02*
Y0031300D01*
X0059031Y0031750D02*
Y0031300D01*
X0059022Y0031750D02*
Y0031300D01*
X0059013Y0031750D02*
Y0031300D01*
X0059004Y0031750D02*
Y0031300D01*
X0058995Y0031750D02*
Y0031300D01*
X0058986Y0031750D02*
Y0031300D01*
X0058977Y0031750D02*
Y0031300D01*
X0058968Y0031750D02*
Y0031300D01*
X0058959Y0031750D02*
Y0031300D01*
X0058950Y0031750D02*
Y0031300D01*
X0058941Y0031750D02*
Y0031300D01*
X0058932Y0031750D02*
Y0031300D01*
X0058923Y0031750D02*
Y0031300D01*
X0058914Y0031750D02*
Y0031300D01*
X0058905Y0031750D02*
Y0031300D01*
X0058896Y0031750D02*
Y0031300D01*
X0058887Y0031750D02*
Y0031300D01*
X0058878Y0031750D02*
Y0031300D01*
X0058869Y0031750D02*
Y0031300D01*
X0058860Y0031750D02*
Y0031300D01*
X0058851Y0031750D02*
Y0031300D01*
X0058842Y0031750D02*
Y0031300D01*
X0058833Y0031750D02*
Y0031300D01*
X0058824Y0031750D02*
Y0031300D01*
X0058815Y0031750D02*
Y0031300D01*
X0058806Y0031750D02*
Y0031300D01*
X0058797Y0031750D02*
Y0031300D01*
X0058788Y0031750D02*
Y0031300D01*
X0058779Y0031750D02*
Y0031300D01*
X0058770Y0031750D02*
Y0031300D01*
X0058761Y0031750D02*
Y0031300D01*
X0058752Y0031750D02*
Y0031300D01*
X0058743Y0031750D02*
Y0031300D01*
X0058734Y0031750D02*
Y0031300D01*
X0058725Y0031750D02*
Y0031300D01*
X0058716Y0031750D02*
Y0031300D01*
X0058707Y0031750D02*
Y0031300D01*
X0058698Y0031750D02*
Y0031300D01*
X0058689Y0031750D02*
Y0031300D01*
X0058680Y0031750D02*
Y0031300D01*
X0058671Y0031750D02*
Y0031300D01*
X0058662Y0031750D02*
Y0031300D01*
X0058653Y0031750D02*
Y0031300D01*
X0058644Y0031750D02*
Y0031300D01*
X0058635Y0031750D02*
Y0031300D01*
X0058626Y0031750D02*
Y0031300D01*
X0058617Y0031750D02*
Y0031300D01*
X0058608Y0031750D02*
Y0031300D01*
X0058599Y0031750D02*
Y0031300D01*
X0058590Y0031750D02*
Y0031300D01*
X0058581Y0031750D02*
Y0031300D01*
X0058572Y0031750D02*
Y0031300D01*
X0058563Y0031750D02*
Y0031300D01*
X0058554Y0031750D02*
Y0031300D01*
X0058545Y0031750D02*
Y0031300D01*
X0058536Y0031750D02*
Y0031300D01*
X0058527Y0031750D02*
Y0031300D01*
X0058518Y0031750D02*
Y0031300D01*
X0058509Y0031750D02*
Y0031300D01*
X0058500Y0031750D02*
Y0031300D01*
X0058491Y0031750D02*
Y0031300D01*
X0058482Y0031750D02*
Y0031300D01*
X0058473Y0031750D02*
Y0031300D01*
X0058464Y0031750D02*
Y0031300D01*
X0058455Y0031750D02*
Y0031300D01*
X0058446Y0031750D02*
Y0031300D01*
X0058437Y0031750D02*
Y0031300D01*
X0058428Y0031750D02*
Y0031300D01*
X0058419Y0031750D02*
Y0031300D01*
X0058410Y0031750D02*
Y0031300D01*
X0058401Y0031750D02*
Y0031300D01*
X0058392Y0031750D02*
Y0031300D01*
X0058383Y0031750D02*
Y0031300D01*
X0058374Y0031750D02*
Y0031300D01*
X0058365Y0031750D02*
Y0031300D01*
X0058356Y0031750D02*
Y0031300D01*
X0058347Y0031750D02*
Y0031300D01*
X0058338Y0031750D02*
Y0031300D01*
X0058329Y0031750D02*
Y0031300D01*
X0058320Y0031750D02*
Y0031300D01*
X0058311Y0031750D02*
Y0031300D01*
X0058302Y0031750D02*
Y0031300D01*
X0058293Y0031750D02*
Y0031300D01*
X0058284Y0031750D02*
Y0031300D01*
X0058275Y0031750D02*
Y0031300D01*
X0058266Y0031750D02*
Y0031300D01*
X0058257Y0031750D02*
Y0031300D01*
X0058248Y0031750D02*
Y0031300D01*
X0058239Y0031750D02*
Y0031300D01*
X0058230Y0031750D02*
Y0031300D01*
X0058221Y0031750D02*
Y0031300D01*
X0058212Y0031750D02*
Y0031300D01*
X0058203Y0031750D02*
Y0031300D01*
X0058194Y0031750D02*
Y0031300D01*
X0058185Y0031750D02*
Y0031300D01*
X0058176Y0031750D02*
Y0031300D01*
X0058167Y0031750D02*
Y0031300D01*
X0058158Y0031750D02*
Y0031300D01*
X0058149Y0031750D02*
Y0031300D01*
X0058140Y0031750D02*
Y0031300D01*
X0058131Y0031750D02*
Y0031300D01*
X0058122Y0031750D02*
Y0031300D01*
X0058113Y0031750D02*
Y0031300D01*
X0058104Y0031750D02*
Y0031300D01*
X0058095Y0031750D02*
Y0031300D01*
X0058086Y0031750D02*
Y0031300D01*
X0058077Y0031750D02*
Y0031300D01*
X0058068Y0031750D02*
Y0031300D01*
X0058059Y0031750D02*
Y0031300D01*
X0058050Y0031750D02*
Y0031300D01*
X0058041Y0031750D02*
Y0031300D01*
X0058032Y0031750D02*
Y0031300D01*
X0058023Y0031750D02*
Y0031300D01*
X0058014Y0031750D02*
Y0031300D01*
X0058005Y0031750D02*
Y0031300D01*
X0057996Y0031750D02*
Y0031300D01*
X0057987Y0031750D02*
Y0031300D01*
X0057978Y0031750D02*
Y0031300D01*
X0057969Y0031750D02*
Y0031300D01*
X0057960Y0031750D02*
Y0031300D01*
X0057951Y0031750D02*
Y0031300D01*
X0057942Y0031750D02*
Y0031300D01*
X0057933Y0031750D02*
Y0031300D01*
X0057924Y0031750D02*
Y0031300D01*
X0057915Y0031750D02*
Y0031300D01*
X0057906Y0031750D02*
Y0031300D01*
X0057897Y0031750D02*
Y0031300D01*
X0057888Y0031750D02*
Y0031300D01*
X0057879Y0031750D02*
Y0031300D01*
X0057870Y0031750D02*
Y0031300D01*
X0057861Y0031750D02*
Y0031300D01*
X0057852Y0031750D02*
Y0031300D01*
X0057843Y0031750D02*
Y0031300D01*
X0057834Y0031750D02*
Y0031300D01*
X0057825Y0031750D02*
Y0031300D01*
X0057816Y0031750D02*
Y0031300D01*
X0057807Y0031750D02*
Y0031300D01*
X0057798Y0031750D02*
Y0031300D01*
X0057789Y0031750D02*
Y0031300D01*
X0057780Y0031750D02*
Y0031300D01*
X0057771Y0031750D02*
Y0031300D01*
X0057762Y0031750D02*
Y0031300D01*
X0057753Y0031750D02*
Y0031300D01*
X0057744Y0031750D02*
Y0031300D01*
X0057735Y0031750D02*
Y0031300D01*
X0057726Y0031750D02*
Y0031300D01*
X0057717Y0031750D02*
Y0031300D01*
X0057708Y0031750D02*
Y0031300D01*
G54D18*
G01X0010287Y0018950D02*
X0010744Y0018494D01*
Y0018006D01*
X0011500Y0017250D01*
X0014000D01*
X0014250Y0017500D01*
X0017500D01*
X0017750Y0017250D01*
X0020000D01*
X0020750Y0018000D01*
X0021250D01*
X0021750Y0017500D01*
X0024750D01*
X0026000Y0018750D01*
X0029750D01*
X0030000Y0019000D01*
X0043000Y0023500D02*
X0042000D01*
X0006500Y0029000D02*
X0006750D01*
X0007250Y0029500D01*
X0008000D01*
X0008250Y0029750D01*
X0014250D01*
X0014500Y0030000D01*
X0007000Y0030750D02*
X0006750Y0030500D01*
X0006000D01*
X0005750Y0030750D01*
Y0031250D01*
X0006000Y0031500D01*
X0010500D01*
X0010750Y0031750D01*
X0016623D01*
X0017373Y0032500D01*
X0012750Y0025250D02*
X0012250Y0024750D01*
X0006750D01*
X0009000Y0036000D02*
X0015750D01*
X0016000Y0035750D01*
X0016500D01*
X0017000Y0036250D01*
X0030000D01*
X0031500Y0034750D01*
X0032250D01*
X0032500Y0035000D01*
Y0036000D01*
X0031500Y0037000D01*
X0030000D01*
X0006250Y0031000D02*
X0006500Y0031250D01*
X0015250D01*
X0052000Y0010500D02*
X0051500Y0011000D01*
X0050750D01*
X0050500Y0010750D01*
Y0009250D01*
X0050750Y0009000D01*
X0053500D01*
X0054500Y0010000D01*
X0062000D01*
X0062250Y0010250D01*
X0059750Y0036250D02*
X0059000Y0035500D01*
X0049250D01*
X0048250Y0034500D01*
X0047250D01*
X0046250Y0035500D01*
X0033750D01*
X0031750Y0037500D01*
X0029500D01*
X0028750Y0036750D01*
X0024250D01*
X0024000Y0037000D01*
X0018750D01*
X0049500Y0017250D02*
X0040250D01*
X0040000Y0017500D01*
X0038750D01*
X0036750Y0019500D01*
X0032500D01*
X0032250Y0019750D01*
X0047500Y0006500D02*
X0048250D01*
X0048750Y0006000D01*
X0050500D01*
X0051000Y0006500D01*
X0018000Y0000750D02*
X0018250Y0000500D01*
X0047500D01*
X0047750Y0000750D01*
X0066500D01*
Y0032000D02*
X0059000D01*
X0058750Y0032250D01*
X0057500D01*
Y0034500D01*
X0057000Y0035000D01*
X0019735Y0033287D02*
Y0033625D01*
X0019860Y0033750D01*
X0020000D01*
X0020750Y0034500D01*
X0029500D01*
X0030000Y0034000D01*
X0031000D01*
Y0033000D02*
X0031250D01*
X0031750Y0033500D01*
X0044000D01*
X0044250Y0033250D01*
X0055000D01*
X0056250Y0032000D01*
X0057250D01*
X0057500Y0032250D01*
Y0034500D01*
X0057000Y0035000D01*
X0014000Y0035500D02*
X0014500Y0035000D01*
X0026500D01*
X0027000Y0035500D01*
X0030250D01*
X0030500Y0035250D01*
Y0034500D01*
X0043000Y0026500D02*
X0042250D01*
X0042000Y0026250D01*
X0038500D01*
X0038000Y0025750D01*
X0032250D01*
X0031500Y0026500D01*
X0025750D01*
X0039000Y0011500D02*
X0039500Y0011000D01*
Y0009250D01*
X0039000Y0008750D01*
X0030250D01*
X0030000Y0008500D01*
X0030500Y0022500D02*
X0016000D01*
X0014750Y0021250D01*
X0007500Y0029000D02*
X0007750Y0029250D01*
X0008500D01*
X0008750Y0029500D01*
X0024500D01*
X0024750Y0029750D01*
X0033000D01*
X0033750Y0029000D01*
X0035250D01*
X0035500Y0028750D01*
X0036000Y0018000D02*
X0036250Y0017750D01*
Y0014500D01*
X0036750Y0014000D01*
X0037500D01*
X0038000Y0014500D01*
Y0015500D01*
X0038500Y0016000D01*
X0039250D01*
X0039500Y0015750D01*
Y0015250D01*
X0039250Y0015000D01*
X0038750D01*
X0038500Y0014750D01*
Y0014250D01*
X0038750Y0014000D01*
X0044500D01*
X0045000Y0014500D01*
Y0016500D01*
X0045500Y0017000D01*
X0048250D01*
X0048750Y0016500D01*
X0051000D01*
X0034250Y0028000D02*
X0033750Y0028500D01*
X0031000D01*
X0030250Y0029250D01*
X0025250D01*
X0025000Y0029000D01*
X0023500D01*
X0022750Y0028250D01*
X0007750D01*
X0011500Y0017750D02*
X0018000D01*
X0018250Y0017500D01*
X0019750D01*
X0020500Y0018250D01*
X0021500D01*
X0022000Y0017750D01*
X0024500D01*
X0026250Y0019500D01*
X0031000D01*
X0031750Y0020250D01*
X0032750D01*
X0033250Y0019750D01*
X0037000D01*
X0039000Y0017750D01*
X0040250D01*
X0040500Y0017500D01*
X0049000D01*
X0049250Y0017750D01*
X0051750D01*
X0052500Y0018500D01*
X0053750D01*
X0054000Y0018750D01*
X0061500D01*
X0062000Y0019250D01*
Y0022250D01*
X0062750Y0023000D01*
X0064250D01*
X0065250Y0024000D01*
X0065500D01*
X0068500Y0027000D01*
X0061000Y0016500D02*
X0061500Y0016000D01*
Y0012500D01*
X0062000Y0012000D01*
X0064500D01*
X0067500Y0015000D01*
X0061000Y0016500D02*
X0060000D01*
X0015750Y0030750D02*
X0016000Y0030500D01*
X0021000D01*
X0021250Y0030250D01*
X0028000D01*
X0028500Y0030750D01*
X0029250D01*
X0029500Y0030500D01*
X0030000D01*
X0012500Y0043000D02*
X0013000Y0043500D01*
X0021250D01*
X0022250Y0042500D01*
X0025750D01*
X0026250Y0043000D01*
X0027500Y0014750D02*
X0027750Y0015000D01*
X0033250D01*
X0033500Y0014750D01*
Y0013000D01*
X0034000Y0012500D01*
X0024000Y0028500D02*
X0024750D01*
X0025250Y0028000D01*
X0026000D01*
X0026750Y0028750D01*
X0029500D01*
X0030250Y0028000D01*
X0033000D01*
X0033750Y0027250D01*
X0035250D01*
X0035750Y0027750D01*
X0038750D01*
X0039000Y0028000D01*
X0039750D01*
X0040000Y0028250D01*
X0044750D01*
X0045000Y0028000D01*
X0046750D01*
X0047250Y0028500D01*
X0053750D01*
X0054250Y0029000D01*
X0055500D01*
X0057000Y0030500D01*
X0020750Y0017500D02*
X0021000Y0017250D01*
X0025000D01*
X0026250Y0018500D01*
X0032750D01*
X0033000Y0018750D01*
X0033500Y0021750D02*
X0033750Y0022000D01*
X0039250D01*
X0039500Y0021750D01*
X0041500D01*
X0041750Y0022000D01*
X0047250D01*
X0048250Y0023000D01*
X0061250D01*
X0063250Y0025000D01*
X0064250D01*
X0066250Y0027000D01*
X0067500D01*
X0020523Y0033287D02*
X0021485Y0034250D01*
X0029250D01*
X0030000Y0033500D01*
X0031250D01*
X0032250Y0034500D01*
X0044750D01*
X0045750Y0033500D01*
X0055500D01*
X0056500Y0032500D01*
X0057000D01*
X0034000Y0030500D02*
X0033000D01*
X0052000Y0011500D02*
X0052500Y0012000D01*
Y0015750D01*
X0052250Y0016000D01*
X0047750D01*
X0047500Y0015750D01*
Y0015000D01*
X0048000Y0014500D01*
X0026250Y0038250D02*
X0028500D01*
X0028750Y0038500D01*
X0031000D01*
X0031500Y0038000D01*
X0032000D01*
X0032750Y0038750D01*
X0049250D01*
X0015500Y0009000D02*
X0016000Y0008500D01*
X0024750D01*
X0025000Y0008750D01*
Y0009250D01*
X0025500Y0009750D01*
X0026750D01*
X0027250Y0010250D01*
X0028000Y0033500D02*
Y0033000D01*
X0025750D01*
X0024500Y0031750D01*
X0022847D01*
X0022097Y0032500D01*
X0048000Y0030500D02*
Y0031500D01*
X0048500Y0032000D01*
Y0032750D01*
X0048250Y0033000D01*
X0044000D01*
X0043750Y0033250D01*
X0032250D01*
X0031500Y0032500D01*
X0030750D01*
X0030250Y0033000D01*
X0025750D01*
X0024500Y0031750D01*
X0022847D01*
X0022097Y0032500D01*
X0048000Y0015500D02*
X0049250D01*
X0049750Y0015000D01*
X0051500D01*
X0052000Y0015500D01*
X0057500Y0029250D02*
X0057750Y0029000D01*
X0065750D01*
X0066500Y0004250D02*
X0064000Y0001750D01*
X0047500D01*
X0047250Y0001500D01*
X0045000D01*
X0044750Y0001750D01*
X0038750D01*
X0038250Y0001250D01*
X0021000D01*
X0020750Y0001500D01*
Y0002250D01*
X0020500Y0002500D01*
X0043000Y0016500D02*
X0042000D01*
X0046000Y0014500D02*
X0046750Y0013750D01*
Y0011500D01*
X0047250Y0011000D01*
X0048250D01*
X0050500Y0008750D01*
X0057000D01*
X0057500Y0009250D01*
X0059000D01*
X0059500Y0008750D01*
X0060500D01*
X0061250Y0009500D01*
X0063000D01*
X0063500Y0009000D01*
X0066250D01*
X0067250Y0010000D01*
X0025750Y0028750D02*
X0026000Y0029000D01*
X0029750D01*
X0030500Y0028250D01*
X0033250D01*
X0034000Y0027500D01*
X0034500D01*
X0035000Y0028000D01*
X0038250D01*
X0038500Y0028250D01*
X0039000D01*
X0039250Y0028500D01*
X0045000D01*
X0045250Y0028250D01*
X0046500D01*
X0047000Y0028750D01*
X0053250D01*
X0053500Y0029000D01*
X0054750Y0017750D02*
X0055000Y0017500D01*
Y0016500D01*
X0061000Y0024500D02*
X0060000D01*
X0038750Y0028750D02*
X0038500Y0028500D01*
X0038250D01*
X0038000Y0028250D01*
X0035250D01*
X0034750Y0028750D01*
X0033250D01*
X0032500Y0029500D01*
X0025000D01*
X0024750Y0029250D01*
X0017250D01*
X0016750Y0028750D01*
X0043000Y0014500D02*
X0043500Y0015000D01*
Y0016875D01*
X0043375Y0017000D01*
X0040000D01*
X0039750Y0017250D01*
X0038250D01*
X0037500Y0018000D01*
X0038500Y0039250D02*
X0025750D01*
X0043000Y0021500D02*
X0042000D01*
X0064000Y0016500D02*
Y0017500D01*
X0063500Y0018000D01*
X0062250D01*
X0062000Y0018250D01*
X0064000Y0016500D02*
X0070500D01*
X0071000Y0016000D01*
Y0010750D01*
X0070750Y0010500D01*
X0070000D01*
X0069500Y0011000D01*
X0029000Y0030250D02*
X0028750Y0030000D01*
X0014500D01*
X0061000Y0010500D02*
X0061500D01*
X0061750Y0010750D01*
X0063000D01*
X0063750Y0010000D01*
X0066500D01*
X0067000Y0010500D01*
X0067875D01*
X0068000Y0010625D01*
Y0012000D01*
X0069500Y0013500D01*
Y0015000D01*
X0057000Y0023500D02*
X0056000D01*
X0007750Y0011500D02*
X0007500Y0011750D01*
Y0012500D01*
X0008000Y0013000D01*
X0009500D01*
X0043000Y0019500D02*
X0042000D01*
X0061000Y0032500D02*
X0060000D01*
X0033000Y0010500D02*
X0033500Y0011000D01*
X0035250D01*
X0035750Y0010500D01*
X0037000D01*
X0057000Y0021500D02*
X0056000D01*
X0034000Y0035000D02*
X0033000D01*
X0057000Y0024500D02*
X0054000D01*
X0053500Y0024000D01*
X0042500D01*
X0042000Y0024500D01*
X0040250D01*
X0040000Y0024750D01*
X0032750D01*
X0032500Y0025000D01*
X0031250D01*
X0030500Y0025750D01*
X0028000D01*
X0027750Y0025500D01*
X0068500Y0043000D02*
X0067750Y0043750D01*
X0059500D01*
X0047000Y0024500D02*
X0046000D01*
X0060000Y0010500D02*
X0060500Y0011000D01*
X0063500D01*
X0064000Y0010500D01*
X0040750Y0027250D02*
X0040000D01*
X0039750Y0027000D01*
X0037750D01*
X0037250Y0026500D01*
X0033000D01*
X0032250Y0027250D01*
X0029000D01*
X0028250Y0028000D01*
X0027500D01*
X0027000Y0027500D01*
X0024250D01*
X0024000Y0027250D01*
X0016250D01*
X0014500Y0016000D02*
X0015000Y0016500D01*
X0016750D01*
X0017000Y0016250D01*
X0026500D01*
X0027000Y0016750D01*
X0026500Y0035750D02*
X0023250D01*
X0023000Y0035500D01*
X0044500Y0004500D02*
X0046500D01*
X0047000Y0005000D01*
X0052500D01*
X0053000Y0004500D01*
X0043000Y0030500D02*
X0042000D01*
X0055250Y0028000D02*
X0054750Y0027500D01*
X0047750D01*
X0047500Y0027250D01*
X0041750D01*
X0041250Y0026750D01*
X0038000D01*
X0037500Y0026250D01*
X0032750D01*
X0032000Y0027000D01*
X0028500D01*
X0028250Y0027250D01*
X0047500Y0031000D02*
Y0030250D01*
X0047750Y0030000D01*
X0048250D01*
X0049250Y0031000D01*
X0067000D01*
X0067750Y0003750D02*
X0066750D01*
X0064500Y0001500D01*
X0047750D01*
X0047500Y0001250D01*
X0044750D01*
X0044500Y0001500D01*
X0039000D01*
X0038500Y0001000D01*
X0020500D01*
X0020250Y0001250D01*
X0013250D01*
X0013000Y0001000D01*
X0057000Y0019500D02*
X0056000D01*
X0047500Y0031000D02*
X0039500D01*
X0038500Y0032000D01*
X0032500D01*
X0031750Y0031250D01*
X0031000D01*
X0030750Y0031500D01*
X0026000D01*
X0025500Y0031000D01*
X0022250D01*
X0022000Y0031250D01*
X0021500D01*
X0021000Y0031750D01*
X0020485D01*
X0019735Y0032500D01*
X0043000Y0024500D02*
X0042500D01*
X0042250Y0024750D01*
X0040750D01*
X0040500Y0025000D01*
X0033250D01*
X0033000Y0025250D01*
X0031500D01*
X0030750Y0026000D01*
X0027250D01*
X0026750Y0025500D01*
X0025500D01*
X0047000Y0022500D02*
X0046000D01*
X0020523Y0032500D02*
X0021500Y0031750D01*
X0021750D01*
X0022000Y0031500D01*
X0022250D01*
X0022500Y0031250D01*
X0025000D01*
X0025500Y0031750D01*
X0031500D01*
X0033000Y0037750D02*
X0034250D01*
X0035750Y0036250D01*
X0036500D01*
X0036750Y0036500D01*
X0046500D01*
X0048000Y0035000D01*
X0043500Y0010000D02*
X0048750D01*
X0050500Y0008250D01*
X0061250D01*
X0061750Y0008750D01*
X0068000D01*
X0044500Y0041000D02*
X0046000D01*
X0046500Y0041500D01*
X0055250D01*
X0055750Y0041000D01*
Y0036750D01*
X0055000Y0036000D01*
X0039000Y0032500D02*
X0040250D01*
X0040750Y0032000D01*
X0042500D01*
X0043000Y0032500D01*
X0061250Y0009000D02*
X0060750Y0008500D01*
X0058250D01*
X0058000Y0008750D01*
Y0010750D02*
Y0013500D01*
X0057000Y0014500D01*
X0054500Y0028000D02*
X0047750D01*
X0047250Y0027500D01*
X0044250D01*
X0044000Y0027750D01*
X0040500D01*
X0040250Y0027500D01*
X0039500D01*
X0039250Y0027250D01*
X0037500D01*
X0037000Y0026750D01*
X0033250D01*
X0032500Y0027500D01*
X0029500D01*
X0029000Y0028000D01*
X0033000Y0003500D02*
X0032000D01*
X0031000Y0004500D01*
X0037250D02*
X0039000D01*
X0054500Y0028000D02*
X0055000Y0028500D01*
X0067500D01*
X0068000Y0029000D01*
Y0033000D01*
X0042000Y0010500D02*
X0042500Y0011000D01*
X0044250D01*
X0044750Y0010500D01*
X0046000D01*
X0051000D02*
X0051500Y0010000D01*
X0052500D01*
X0053000Y0010500D01*
Y0011500D01*
X0053500Y0012000D01*
X0054000D01*
X0054500Y0011500D01*
X0055000D01*
X0039000Y0025500D02*
X0040500D01*
X0041000Y0025000D01*
X0042500D01*
X0043000Y0025500D01*
X0061000Y0037000D02*
X0060000D01*
X0047000Y0020500D02*
X0046000D01*
X0011075Y0032500D02*
X0011000D01*
X0010250Y0031750D01*
X0005500D01*
X0002000Y0004500D02*
X0029750D01*
X0030250Y0005000D01*
X0031750D01*
X0032750Y0004000D01*
X0033750D01*
X0034750Y0005000D01*
X0035250D01*
X0035500Y0004750D01*
Y0004250D01*
X0035750Y0004000D01*
X0053250D01*
X0053500Y0004250D01*
Y0005000D01*
X0053000Y0005500D01*
X0064000Y0004500D02*
X0063000D01*
X0061500Y0003000D01*
X0060750D01*
X0060500Y0003250D01*
Y0003750D01*
X0060250Y0004000D01*
X0059000D01*
X0058500Y0003500D01*
X0058000D01*
X0061000Y0030500D02*
X0060000D01*
X0049500Y0007500D02*
X0049750Y0007750D01*
X0062250D01*
X0062500Y0007500D01*
X0034000Y0032500D02*
X0033000D01*
X0052000Y0030500D02*
X0051000D01*
X0056500Y0043000D02*
X0058000D01*
X0059500Y0041500D01*
X0063500D01*
X0064000Y0041000D01*
Y0037000D01*
X0007750Y0015500D02*
X0013000D01*
X0013500Y0016000D01*
X0052000Y0037000D02*
X0051000D01*
X0026750Y0042500D02*
X0025750Y0041500D01*
X0022000D01*
X0021000Y0042500D01*
X0019000D01*
X0018500Y0043000D01*
X0016500D01*
X0056500Y0040000D02*
X0059000Y0037500D01*
X0062500D01*
X0063000Y0037000D01*
Y0035000D01*
X0064000Y0034000D01*
X0039000Y0014500D02*
X0039500D01*
X0039750Y0014750D01*
Y0016500D01*
X0039250Y0017000D01*
X0037500D01*
X0037000Y0017500D01*
Y0018250D01*
X0036000Y0019250D01*
X0031750D01*
Y0023250D02*
X0029750D01*
X0029500Y0023000D01*
X0013750D01*
X0013250Y0023500D01*
X0012750D01*
X0012000Y0022750D01*
Y0021500D01*
X0057000Y0025500D02*
X0056000D01*
X0061000Y0020500D02*
X0060000D01*
X0025000Y0038750D02*
X0031500D01*
X0031750Y0038500D01*
X0033750Y0018750D02*
X0034000Y0018500D01*
X0036250D01*
X0036500Y0018250D01*
Y0015000D01*
X0037000Y0014500D01*
X0056500Y0041000D02*
X0058750Y0038750D01*
X0062750D01*
X0063250Y0038250D01*
Y0035750D01*
X0064000Y0035000D01*
X0056500Y0042000D02*
X0057000D01*
X0059500Y0039500D01*
X0063000D01*
X0063500Y0039000D01*
Y0036500D01*
X0064000Y0036000D01*
Y0006500D02*
X0062250D01*
X0061000Y0022500D02*
X0060000D01*
X0043000Y0035000D02*
X0042000D01*
X0006750Y0026500D02*
X0006500Y0026750D01*
X0004250D01*
X0003750Y0027250D01*
Y0032750D01*
X0004250Y0033250D01*
X0006250D01*
X0009000Y0036000D01*
X0069000Y0028500D02*
X0068750Y0028250D01*
X0055500D01*
X0055250Y0028000D01*
X0016000Y0012500D02*
X0019250D01*
X0019750Y0013000D01*
Y0013750D01*
X0020000Y0014000D01*
X0025250D01*
X0029500Y0009750D01*
Y0009250D01*
X0029750Y0009000D01*
X0036000D01*
X0036500Y0009500D01*
X0039000D01*
X0012750Y0022750D02*
X0029750D01*
X0030000Y0023000D01*
X0030750D01*
X0031000Y0022750D01*
X0032000D01*
X0032250Y0023000D01*
X0039500D01*
X0040500Y0024000D01*
X0040750D01*
X0048500Y0027000D02*
X0055000D01*
X0055750Y0027750D01*
X0065750D01*
X0023250D02*
X0023500Y0028000D01*
X0024750D01*
X0025000Y0027750D01*
X0026500D01*
X0027250Y0028500D01*
X0029250D01*
X0030000Y0027750D01*
X0032750D01*
X0033500Y0027000D01*
X0035500D01*
X0036000Y0027500D01*
X0039000D01*
X0039250Y0027750D01*
X0040000D01*
X0040250Y0028000D01*
X0044500D01*
X0044750Y0027750D01*
X0047000D01*
X0047500Y0028250D01*
X0054000D01*
X0054500Y0028750D01*
X0057000D01*
X0057500Y0029250D01*
X0013500Y0009000D02*
X0014250Y0009750D01*
X0024500D01*
X0025250Y0010500D01*
X0025750Y0032000D02*
Y0031750D01*
X0025500D01*
X0025000Y0031250D01*
X0022500D01*
X0022250Y0031500D01*
X0022000D01*
X0021750Y0031750D01*
X0021500D01*
X0020523Y0032500D01*
Y0019737D02*
X0021285Y0020500D01*
X0027750D01*
X0028250Y0020000D01*
X0030500D01*
X0031250Y0020750D01*
X0033250D01*
X0033500Y0020500D01*
X0034500D01*
X0034750Y0020250D01*
X0039750D01*
X0040000Y0020000D01*
X0044500D01*
X0045000Y0019500D01*
X0046000D01*
X0047000D02*
X0046000D01*
X0010287Y0032500D02*
Y0032150D01*
X0010150D01*
X0010000Y0032000D01*
X0006750D01*
X0006500Y0032250D01*
X0011000Y0001500D02*
X0019750D01*
X0020000Y0001750D01*
Y0002750D01*
X0020250Y0003000D01*
X0020750D01*
X0021000Y0002750D01*
Y0001750D01*
X0021250Y0001500D01*
X0028750D01*
X0029750Y0002500D01*
X0032000D01*
X0032250Y0002250D01*
X0040000D01*
X0040250Y0002500D01*
X0025500Y0009000D02*
X0026000Y0008500D01*
X0028250D01*
X0028750Y0008000D01*
X0029750Y0002000D02*
X0045000D01*
X0045250Y0001750D01*
X0047000D01*
X0047250Y0002000D01*
X0063500D01*
X0065500Y0004000D01*
X0034000Y0016500D02*
X0033000D01*
X0061000Y0026500D02*
X0060000D01*
X0036000Y0003500D02*
X0037000D01*
X0037500Y0003000D01*
X0037750D01*
X0046000Y0002250D02*
X0045750D01*
X0044500Y0003500D01*
X0029750Y0024000D02*
X0028750D01*
X0028500Y0023750D01*
X0014250D01*
X0013500Y0024500D01*
X0011000D01*
X0010500Y0024000D01*
Y0021750D01*
X0019735Y0019737D02*
Y0020125D01*
X0019860Y0020250D01*
X0020500D01*
X0021250Y0021000D01*
X0030250D01*
X0030500Y0021250D01*
X0034000D01*
X0034250Y0021000D01*
X0044500D01*
X0045000Y0021500D01*
X0046000D01*
X0044500Y0003500D02*
X0045750Y0002250D01*
X0051000D01*
X0051250Y0002500D01*
X0040750Y0022250D02*
X0033250D01*
X0032500Y0021500D01*
X0030250D01*
X0030000Y0021250D01*
X0020000D01*
X0018948Y0020198D01*
Y0019737D01*
X0043000Y0020500D02*
X0045000D01*
X0045500Y0021000D01*
X0047250D01*
X0048250Y0022000D01*
X0050250D01*
X0051000Y0022750D01*
X0056000D01*
X0056750Y0022000D01*
X0061250D01*
X0063250Y0024000D01*
X0064250D01*
X0065000Y0024750D01*
X0065750D01*
X0029250Y0020500D02*
X0029500Y0020750D01*
X0030500D01*
X0030750Y0021000D01*
X0033500D01*
X0033750Y0020750D01*
X0034750D01*
X0035000Y0020500D01*
X0043000D01*
X0016250Y0036250D02*
X0016500Y0036500D01*
X0030750D01*
X0032000Y0035250D01*
X0047000Y0023500D02*
X0046000D01*
X0067250Y0001250D02*
X0048250D01*
X0048000Y0001000D01*
X0039500D01*
X0067500Y0011000D02*
X0064500D01*
X0064000Y0010500D01*
X0012000Y0014000D02*
X0012250Y0014250D01*
X0015000D01*
X0015500Y0014750D01*
X0017500D01*
X0017750Y0014500D01*
X0026000D01*
X0030000Y0010500D01*
X0047000Y0021500D02*
X0046000D01*
X0017373Y0019737D02*
X0019886Y0022250D01*
X0029750D01*
X0030000Y0022000D01*
X0031750D01*
X0032500Y0022750D01*
X0039750D01*
X0040000Y0023000D01*
X0044000D01*
X0044250Y0023250D01*
X0062250Y0008250D02*
X0062000Y0008000D01*
X0049000D01*
X0048750Y0007750D01*
X0033750D01*
X0033000Y0007000D01*
X0030000D01*
X0029250Y0007750D01*
Y0008500D01*
X0029000Y0008750D01*
Y0009250D01*
X0027000Y0011250D01*
X0022500D01*
X0020500Y0013250D01*
X0061000Y0021500D02*
X0060000D01*
X0008500Y0034000D02*
X0018750D01*
X0019500Y0034750D01*
X0027000D01*
X0027250Y0035000D01*
X0030000D01*
X0021310Y0018950D02*
X0022010Y0018250D01*
X0024500D01*
X0026000Y0019750D01*
X0030750D01*
X0031500Y0020500D01*
X0033000D01*
X0033250Y0020250D01*
X0034000D01*
X0034250Y0020000D01*
X0037500D01*
X0039500Y0018000D01*
X0040500D01*
X0040750Y0017750D01*
X0048500D01*
X0048750Y0018000D01*
X0051250D01*
X0052250Y0019000D01*
X0059500D01*
X0060000Y0019500D01*
X0047000Y0026500D02*
X0046000D01*
X0061000Y0019500D02*
X0060000D01*
X0017373Y0032500D02*
X0019123Y0030750D01*
X0021250D01*
X0021500Y0030500D01*
X0027750D01*
X0028250Y0031000D01*
X0030250D01*
X0031250Y0030000D01*
X0041500D01*
X0010500Y0009000D02*
X0012250Y0007250D01*
X0026000D01*
X0026250Y0031000D02*
X0026500Y0031250D01*
X0030500D01*
X0030750Y0031000D01*
X0038500D01*
X0039000Y0030500D01*
X0018161Y0032500D02*
X0018911Y0031750D01*
X0019500D01*
X0020250Y0031000D01*
X0021750D01*
X0022000Y0030750D01*
X0025750D01*
X0026000Y0031000D01*
X0026250D01*
X0026500Y0031250D01*
X0030500D01*
X0030750Y0031000D01*
X0038500D01*
X0039000Y0030500D01*
X0043000Y0022500D02*
X0041250D01*
X0041000Y0022750D01*
X0040500D01*
X0040250Y0022500D01*
X0032750D01*
X0032000Y0021750D01*
X0028750D01*
X0052000Y0010500D02*
X0051500Y0011000D01*
Y0014000D01*
X0051000Y0014500D01*
X0049500Y0043500D02*
X0058500D01*
X0059500Y0042500D01*
X0061000D01*
X0061500Y0043000D01*
X0064500D01*
X0057000Y0012500D02*
X0056500Y0013000D01*
Y0016750D01*
X0056750Y0017000D01*
X0061500D01*
X0061750Y0016750D01*
Y0013500D01*
X0062250Y0013000D01*
X0064250D01*
X0064500Y0013250D01*
Y0015000D01*
X0064000Y0015500D01*
X0047000Y0025500D02*
X0046000D01*
X0036000Y0004500D02*
X0036500D01*
X0037000Y0005000D01*
X0044000D01*
X0044500Y0004500D01*
X0011250Y0021250D02*
Y0023000D01*
X0012250Y0024000D01*
X0013500D01*
X0014000Y0023500D01*
X0029250D01*
X0048000Y0012500D02*
X0050000D01*
X0043000Y0037000D02*
X0042000D01*
X0016250Y0027250D02*
X0024000D01*
X0024250Y0027500D01*
X0020500Y0006500D02*
X0010000D01*
X0007500Y0009000D01*
X0064000Y0009500D02*
X0063750Y0009750D01*
X0061000D01*
X0060250Y0009000D01*
X0059750D01*
X0059250Y0009500D01*
X0057000D01*
X0007000Y0012250D02*
Y0010500D01*
X0008500Y0009000D01*
X0016000Y0014250D02*
X0025500D01*
X0029750Y0010000D01*
X0037750D01*
X0038250Y0010500D01*
Y0015000D01*
X0038500Y0015250D01*
Y0015375D01*
X0038625Y0015500D01*
X0039000D01*
X0052000Y0032500D02*
X0051000D01*
X0053750Y0011500D02*
Y0010000D01*
X0053250Y0009500D01*
X0052000D01*
X0011500Y0013000D02*
X0011000Y0013500D01*
X0006750D01*
X0057000Y0015500D02*
X0058250D01*
X0058750Y0015000D01*
X0060500D01*
X0061000Y0015500D01*
Y0035000D02*
X0060000D01*
X0052000Y0016500D02*
X0051000D01*
X0052000Y0035000D02*
X0051000D01*
X0046000Y0015500D02*
X0045250Y0014750D01*
Y0013500D01*
X0044750Y0013000D01*
X0042500D01*
X0042000Y0012500D01*
X0009500Y0032500D02*
X0008000D01*
X0007750Y0032750D01*
X0006500Y0014250D02*
X0011000D01*
X0011750Y0013500D01*
X0019250D01*
Y0011500D02*
X0020000Y0012250D01*
Y0013500D01*
X0020250Y0013750D01*
X0025000D01*
X0029250Y0009500D01*
Y0009000D01*
X0029500Y0008750D01*
Y0008250D01*
X0030250Y0007500D01*
X0032750D01*
X0060000Y0025500D02*
X0059000D01*
X0058500Y0026000D01*
X0054250D01*
X0053250Y0025000D01*
X0052750D01*
X0052000Y0025750D01*
X0050500D01*
X0050250Y0026000D01*
X0049750D01*
X0049500Y0026250D01*
X0048000D01*
X0047250Y0027000D01*
X0042000D01*
X0041500Y0026500D01*
X0038250D01*
X0037750Y0026000D01*
X0032500D01*
X0031750Y0026750D01*
X0028000D01*
X0027750Y0027000D01*
X0021750D01*
X0021500Y0026750D01*
X0061000Y0025500D02*
X0060000D01*
X0021310Y0032500D02*
X0022250Y0031750D01*
X0022500D01*
X0022750Y0031500D01*
X0024750D01*
X0025750Y0032500D01*
X0027000D01*
X0026750Y0010750D02*
X0026000Y0010000D01*
X0025250D01*
X0024750Y0009500D01*
X0015000D01*
X0014500Y0009000D01*
X0048000Y0032500D02*
X0047000D01*
X0046500Y0032000D01*
X0044500D01*
X0043500Y0033000D01*
X0032750D01*
X0032000Y0032250D01*
X0031250D01*
X0031000Y0032000D01*
X0029750D01*
X0029250Y0032500D01*
X0025750D01*
X0024750Y0031500D01*
X0022750D01*
X0022500Y0031750D01*
X0022250D01*
X0021310Y0032500D01*
X0033000Y0004500D02*
X0034500Y0006000D01*
X0037250D01*
X0037750Y0006500D01*
X0039000D01*
X0061000Y0003500D02*
X0061500Y0004000D01*
Y0004750D01*
X0061250Y0005000D01*
X0055000D01*
X0053500Y0003500D01*
X0053000D01*
X0060000Y0023500D02*
X0059500D01*
X0058000Y0025000D01*
X0053750D01*
X0053500Y0024750D01*
X0052250D01*
X0052000Y0025000D01*
X0049750D01*
X0048750Y0026000D01*
X0038750D01*
X0038250Y0025500D01*
X0032000D01*
X0031250Y0026250D01*
X0027000D01*
X0026750Y0026000D01*
X0024250D01*
X0024000Y0026250D01*
X0023500D01*
X0023250Y0026500D01*
X0061000Y0023500D02*
X0060000D01*
X0034000Y0037000D02*
X0033000D01*
G54D20*
G01X0004500Y0029000D02*
X0005500Y0028000D01*
X0006500D01*
X0007250Y0027250D01*
X0012500D01*
X0015250Y0024500D01*
X0028000D01*
X0028500Y0025000D01*
X0030250D01*
X0031000Y0024250D01*
X0032000D01*
X0032250Y0024000D01*
X0039500D01*
X0053000Y0021500D02*
X0051000Y0019500D01*
Y0019250D01*
X0050500Y0018750D01*
X0048500D01*
X0048250Y0018500D01*
X0041500D01*
X0041250Y0018750D01*
X0039750D01*
X0039000Y0019500D01*
X0036000Y0037000D02*
X0037000Y0038000D01*
X0044500D01*
X0045000Y0037500D01*
X0045250Y0037750D01*
X0049750D01*
X0050000Y0038000D01*
X0054000D01*
X0055000Y0037000D01*
X0024500Y0044000D02*
X0024375Y0044125D01*
X0005100D01*
X0003500Y0042525D01*
Y0039000D01*
X0028500Y0040000D02*
X0024500D01*
X0032500D02*
X0028500D01*
X0036500D02*
X0032500D01*
X0040500D02*
X0036500D01*
X0044500D02*
X0040500D01*
X0048500D02*
X0044500D01*
Y0043000D02*
X0042610D01*
X0041610Y0044000D01*
X0024500D01*
X0032500Y0042000D02*
X0028500D01*
X0036500D02*
X0032500D01*
X0040500D02*
X0036500D01*
X0048500Y0043000D02*
X0044500D01*
G54D21*
G01X0016500Y0038000D02*
X0012500D01*
X0008500D01*
X0048000Y0009500D02*
X0042000D01*
X0035000Y0004500D02*
Y0003500D01*
X0027500Y0002000D02*
X0026500D01*
X0025500D01*
X0024500D01*
X0023500D01*
X0022500D01*
X0021500D01*
X0019500D02*
X0018500D01*
X0017500D01*
X0016500D01*
X0015500D01*
X0014500D01*
X0013500D01*
X0012500D01*
X0010500D01*
X0009500D01*
X0008500D01*
X0007500D01*
X0006500D01*
X0005500D01*
X0004500D01*
X0003500D01*
X0068500Y0011000D02*
X0069250Y0011750D01*
X0069750D01*
X0070500Y0011000D01*
X0064000Y0021500D02*
X0067500D01*
X0068500Y0022500D01*
Y0023000D01*
X0069250Y0023750D01*
X0069750D01*
X0070500Y0023000D01*
X0020500Y0038000D02*
X0023500D01*
Y0041000D01*
X0024500D01*
X0003500Y0035000D02*
X0004250Y0034250D01*
X0006000D01*
X0008500Y0036750D01*
Y0038000D01*
X0052000Y0029500D02*
X0047000D01*
X0046250Y0028750D01*
X0045500D01*
X0044750Y0029500D01*
X0043000D01*
X0038250D01*
X0037500Y0028750D01*
X0036500D01*
X0035750Y0029500D01*
X0034000D01*
X0014500Y0010500D02*
X0015500D01*
X0015750Y0010250D01*
X0016500D01*
X0017250Y0011000D01*
X0042000Y0009500D02*
X0040750Y0008250D01*
X0032500D01*
X0064000Y0003500D02*
X0062710D01*
X0061710Y0002500D01*
X0060625D01*
X0060000Y0003125D01*
Y0003500D01*
X0052000D02*
X0052750Y0002750D01*
X0054000D01*
X0054750Y0003500D01*
X0056000D01*
X0060000D02*
Y0003125D01*
X0059625D01*
X0059250Y0002750D01*
X0056750D01*
X0056000Y0003500D01*
X0047500D02*
X0048250Y0002750D01*
X0050500D01*
X0051250Y0003500D01*
X0052000D01*
X0039000D02*
X0040250D01*
X0041000Y0002750D01*
X0042750D01*
X0043500Y0003500D01*
X0035000D02*
X0034250Y0002750D01*
X0032500D01*
X0032250Y0003000D01*
X0029500D01*
X0028500Y0002000D01*
X0021500D02*
Y0003250D01*
X0021250Y0003500D01*
X0020000D01*
X0019500Y0003000D01*
Y0002000D01*
X0010500Y0017500D02*
X0009750Y0018250D01*
X0009000D01*
X0008750Y0018500D01*
Y0020000D01*
X0009250Y0020500D01*
X0016205D01*
X0016586Y0020119D01*
Y0019737D01*
X0042000Y0009500D02*
X0040750Y0008250D01*
X0030750D01*
X0020500Y0038000D02*
X0025250D01*
X0026000Y0037250D01*
X0028250D01*
X0029000Y0038000D01*
X0030750D01*
X0049250Y0021500D02*
Y0020875D01*
X0049625Y0020500D01*
X0050000D01*
X0008000Y0012250D02*
X0008250D01*
X0010000Y0010500D01*
X0012250Y0008250D01*
X0015250D01*
X0015500Y0008000D01*
X0027750D01*
X0029250Y0006500D01*
X0033000D01*
X0033750D01*
X0034500Y0007250D01*
X0035250D01*
X0036000Y0006500D01*
X0041500D02*
X0040500D01*
X0039750Y0007250D01*
X0037750D01*
X0037000Y0006500D01*
X0036000D01*
X0044500D02*
X0045250Y0007250D01*
X0048250D01*
X0049000Y0006500D01*
X0050000D01*
X0053000D02*
X0054250D01*
X0055000Y0007250D01*
X0057250D01*
X0058000Y0006500D01*
X0016250Y0011000D02*
X0015000Y0012250D01*
X0013500D01*
X0013250Y0012000D01*
X0011500D01*
X0010000Y0010500D01*
X0064000Y0026500D02*
X0062000D01*
X0061250Y0027250D01*
X0056500D01*
X0055750Y0026500D01*
X0050000D01*
X0064000Y0020500D02*
X0063250Y0021250D01*
Y0021750D01*
X0064000Y0022500D01*
X0053000Y0018000D02*
X0054000D01*
X0054250Y0018250D01*
X0061000D01*
X0004500Y0020000D02*
X0008500Y0016000D01*
X0009500D01*
X0058000Y0006500D02*
X0058750Y0007250D01*
X0060250D01*
X0061000Y0006500D01*
X0050000D02*
X0050750Y0007250D01*
X0052250D01*
X0053000Y0006500D01*
X0041500D02*
X0042250Y0007250D01*
X0043750D01*
X0044500Y0006500D01*
X0004500Y0023000D02*
X0008000Y0019500D01*
Y0018000D01*
X0009250Y0016750D01*
X0014250D01*
X0014500Y0017000D01*
X0017000D01*
X0017250Y0016750D01*
X0025750D01*
X0027000Y0018000D01*
X0035000D01*
X0035750Y0017250D01*
Y0014375D01*
X0036625Y0013500D01*
X0037000D01*
X0020500Y0038000D02*
X0016500D01*
X0005750Y0025750D02*
X0007875D01*
X0008125Y0026000D01*
X0008750D01*
Y0030250D02*
X0007750D01*
X0007500Y0030000D01*
X0005000D01*
X0050250Y0017250D02*
X0053750D01*
X0054250Y0016750D01*
Y0014250D01*
X0055000Y0013500D01*
X0008500Y0040000D02*
X0005500Y0037000D01*
X0004500D01*
X0055000Y0013500D02*
X0056000Y0014500D01*
Y0017000D01*
X0056500Y0017500D01*
X0062750D01*
X0063250Y0017000D01*
Y0014250D01*
X0064000Y0013500D01*
X0019500Y0015000D02*
X0018500D01*
X0004500Y0036000D02*
X0006500D01*
X0012500Y0041000D02*
X0008500D01*
Y0042000D02*
X0007500D01*
X0004500Y0039000D01*
X0012500Y0042000D02*
X0008500D01*
X0001250Y0015000D02*
X0013250D01*
X0013500Y0015250D01*
X0016750D01*
X0017250Y0015750D01*
X0028250D01*
X0029750Y0017250D01*
X0034500D01*
X0034750Y0017000D01*
Y0014250D01*
X0034000Y0013500D01*
X0016500Y0042000D02*
X0012500D01*
Y0040000D02*
X0008500D01*
X0016500D02*
X0012500D01*
X0020500D02*
X0016500D01*
X0020500Y0042000D02*
X0016500D01*
Y0041000D02*
X0012500D01*
X0020500D02*
X0016500D01*
X0004500Y0023000D02*
X0002750Y0024750D01*
Y0036250D01*
X0003500Y0037000D01*
G54D10*
X0064000Y0019500D03*
X0061000D03*
X0064000Y0020500D03*
X0061000D03*
X0064000Y0021500D03*
X0061000D03*
X0064000Y0022500D03*
X0061000D03*
X0064000Y0023500D03*
X0061000D03*
X0064000Y0024500D03*
X0061000D03*
X0064000Y0025500D03*
X0061000D03*
X0064000Y0026500D03*
X0061000D03*
X0060000Y0009500D03*
X0057000D03*
Y0010500D03*
X0060000D03*
Y0011500D03*
X0057000D03*
Y0012500D03*
X0060000D03*
X0057000Y0013500D03*
X0060000D03*
X0057000Y0014500D03*
X0060000D03*
Y0015500D03*
X0057000D03*
X0060000Y0016500D03*
X0057000D03*
Y0030500D03*
X0060000D03*
Y0032500D03*
X0057000D03*
Y0035000D03*
X0060000D03*
Y0037000D03*
X0057000D03*
X0056000Y0019500D03*
X0053000D03*
X0056000Y0021500D03*
X0053000D03*
X0056000Y0023500D03*
X0053000D03*
X0056000Y0025500D03*
X0053000D03*
X0048000Y0009500D03*
X0051000D03*
Y0010500D03*
X0048000D03*
Y0011500D03*
X0051000D03*
Y0012500D03*
X0048000D03*
X0051000Y0013500D03*
X0048000D03*
X0051000Y0014500D03*
X0048000D03*
X0051000Y0015500D03*
X0048000D03*
X0051000Y0016500D03*
X0048000D03*
X0050000Y0019500D03*
X0047000D03*
X0050000Y0020500D03*
X0047000D03*
X0050000Y0021500D03*
X0047000D03*
X0050000Y0022500D03*
X0047000D03*
X0050000Y0023500D03*
X0047000D03*
X0050000Y0024500D03*
X0047000D03*
X0050000Y0025500D03*
X0047000D03*
X0050000Y0026500D03*
X0047000D03*
X0048000Y0030500D03*
X0051000D03*
Y0032500D03*
X0048000D03*
Y0035000D03*
X0051000D03*
Y0037000D03*
X0048000D03*
X0039000Y0009500D03*
X0042000D03*
Y0010500D03*
X0039000D03*
Y0011500D03*
X0042000D03*
Y0012500D03*
X0039000D03*
Y0013500D03*
X0042000D03*
Y0014500D03*
X0039000D03*
Y0015500D03*
X0042000D03*
Y0016500D03*
X0039000D03*
X0042000Y0019500D03*
X0039000D03*
X0042000Y0021500D03*
X0039000D03*
X0042000Y0023500D03*
X0039000D03*
Y0025500D03*
X0042000D03*
X0039000Y0030500D03*
X0042000D03*
X0039000Y0032500D03*
X0042000D03*
X0039000Y0035000D03*
X0042000D03*
Y0037000D03*
X0039000D03*
X0030000Y0009500D03*
X0033000D03*
Y0010500D03*
X0030000D03*
Y0011500D03*
X0033000D03*
Y0012500D03*
X0030000D03*
Y0013500D03*
X0033000D03*
Y0014500D03*
X0030000D03*
Y0015500D03*
X0033000D03*
Y0016500D03*
X0030000D03*
Y0030500D03*
X0033000D03*
Y0032500D03*
X0030000D03*
Y0035000D03*
X0033000D03*
Y0037000D03*
X0030000D03*
X0028500Y0002000D03*
Y0005000D03*
X0027500Y0002000D03*
Y0005000D03*
X0026500Y0002000D03*
Y0005000D03*
X0025500Y0002000D03*
Y0005000D03*
X0024500Y0002000D03*
Y0005000D03*
X0023500Y0002000D03*
Y0005000D03*
X0022500Y0002000D03*
Y0005000D03*
X0021500Y0002000D03*
Y0005000D03*
X0019500Y0002000D03*
Y0005000D03*
X0018500Y0002000D03*
Y0005000D03*
X0019500Y0018000D03*
Y0015000D03*
X0018500Y0018000D03*
Y0015000D03*
X0017500Y0002000D03*
Y0005000D03*
X0016500Y0002000D03*
Y0005000D03*
X0015500Y0002000D03*
Y0005000D03*
X0014500Y0002000D03*
Y0005000D03*
X0013500Y0002000D03*
Y0005000D03*
X0012500Y0002000D03*
Y0005000D03*
X0010500Y0002000D03*
Y0005000D03*
X0009500Y0002000D03*
Y0005000D03*
X0008500Y0002000D03*
Y0005000D03*
X0007500Y0002000D03*
Y0005000D03*
X0006500Y0002000D03*
Y0005000D03*
X0005500Y0002000D03*
Y0005000D03*
X0004500Y0002000D03*
Y0005000D03*
X0003500Y0002000D03*
Y0005000D03*
X0017250Y0011000D03*
X0016250D03*
X0014500Y0011500D03*
Y0010500D03*
X0012750Y0011000D03*
X0011750D03*
X0010000Y0010500D03*
Y0011500D03*
X0007750Y0010500D03*
Y0011500D03*
G54D11*
X0058000Y0003500D03*
X0060000D03*
X0058000Y0004500D03*
X0060000D03*
X0058000Y0005500D03*
X0060000D03*
X0058000Y0006500D03*
X0060000D03*
X0050000Y0003500D03*
X0052000D03*
X0050000Y0004500D03*
X0052000D03*
X0050000Y0005500D03*
X0052000D03*
X0050000Y0006500D03*
X0052000D03*
X0041500Y0003500D03*
X0043500D03*
X0041500Y0004500D03*
X0043500D03*
X0041500Y0005500D03*
X0043500D03*
X0041500Y0006500D03*
X0043500D03*
X0033000Y0003500D03*
X0035000D03*
X0033000Y0004500D03*
X0035000D03*
X0033000Y0005500D03*
X0035000D03*
X0033000Y0006500D03*
X0035000D03*
G54D12*
X0018500Y0034500D03*
Y0035500D03*
X0017500Y0034500D03*
Y0035500D03*
X0015000Y0034500D03*
Y0035500D03*
X0014000Y0034500D03*
Y0035500D03*
X0009500Y0017500D03*
X0010500D03*
X0003500Y0035000D03*
X0004500D03*
X0003500Y0036000D03*
X0004500D03*
X0003500Y0037000D03*
X0004500D03*
X0003500Y0038000D03*
X0004500D03*
X0003500Y0039000D03*
X0004500D03*
G54D13*
Y0032000D03*
Y0029000D03*
Y0026000D03*
Y0023000D03*
Y0020000D03*
Y0017000D03*
G54D14*
X0061000Y0005500D03*
Y0004500D03*
Y0003500D03*
X0064000D03*
Y0004500D03*
Y0005500D03*
Y0006500D03*
X0061000Y0015500D03*
Y0014500D03*
Y0013500D03*
Y0012500D03*
Y0011500D03*
Y0010500D03*
X0064000D03*
Y0011500D03*
Y0012500D03*
Y0013500D03*
Y0014500D03*
Y0015500D03*
Y0016500D03*
X0061000Y0031500D03*
Y0030500D03*
Y0029500D03*
X0064000D03*
Y0030500D03*
Y0031500D03*
Y0032500D03*
X0061000Y0036000D03*
Y0035000D03*
Y0034000D03*
X0064000D03*
Y0035000D03*
Y0036000D03*
Y0037000D03*
X0057000Y0025500D03*
Y0024500D03*
Y0023500D03*
Y0022500D03*
Y0021500D03*
Y0020500D03*
Y0019500D03*
X0060000D03*
Y0020500D03*
Y0021500D03*
Y0022500D03*
Y0023500D03*
Y0024500D03*
Y0025500D03*
Y0026500D03*
X0053000Y0005500D03*
Y0004500D03*
Y0003500D03*
X0056000D03*
Y0004500D03*
Y0005500D03*
Y0006500D03*
X0052000Y0015500D03*
Y0014500D03*
Y0013500D03*
Y0012500D03*
Y0011500D03*
Y0010500D03*
X0055000D03*
Y0011500D03*
Y0012500D03*
Y0013500D03*
Y0014500D03*
Y0015500D03*
Y0016500D03*
X0052000Y0031500D03*
Y0030500D03*
Y0029500D03*
X0055000D03*
Y0030500D03*
Y0031500D03*
Y0032500D03*
X0052000Y0036000D03*
Y0035000D03*
Y0034000D03*
X0055000D03*
Y0035000D03*
Y0036000D03*
Y0037000D03*
X0044500Y0005500D03*
Y0004500D03*
Y0003500D03*
X0047500D03*
Y0004500D03*
Y0005500D03*
Y0006500D03*
X0043000Y0015500D03*
Y0014500D03*
Y0013500D03*
Y0012500D03*
Y0011500D03*
Y0010500D03*
X0046000D03*
Y0011500D03*
Y0012500D03*
Y0013500D03*
Y0014500D03*
Y0015500D03*
Y0016500D03*
X0043000Y0025500D03*
Y0024500D03*
Y0023500D03*
Y0022500D03*
Y0021500D03*
Y0020500D03*
Y0019500D03*
X0046000D03*
Y0020500D03*
Y0021500D03*
Y0022500D03*
Y0023500D03*
Y0024500D03*
Y0025500D03*
Y0026500D03*
X0043000Y0031500D03*
Y0030500D03*
Y0029500D03*
X0046000D03*
Y0030500D03*
Y0031500D03*
Y0032500D03*
X0043000Y0036000D03*
Y0035000D03*
Y0034000D03*
X0046000D03*
Y0035000D03*
Y0036000D03*
Y0037000D03*
X0036000Y0005500D03*
Y0004500D03*
Y0003500D03*
X0039000D03*
Y0004500D03*
Y0005500D03*
Y0006500D03*
X0034000Y0015500D03*
Y0014500D03*
Y0013500D03*
Y0012500D03*
Y0011500D03*
Y0010500D03*
X0037000D03*
Y0011500D03*
Y0012500D03*
Y0013500D03*
Y0014500D03*
Y0015500D03*
Y0016500D03*
X0034000Y0031500D03*
Y0030500D03*
Y0029500D03*
X0037000D03*
Y0030500D03*
Y0031500D03*
Y0032500D03*
X0034000Y0036000D03*
Y0035000D03*
Y0034000D03*
X0037000D03*
Y0035000D03*
Y0036000D03*
Y0037000D03*
X0022500Y0006000D03*
X0023500D03*
X0024500D03*
X0025500D03*
X0026500D03*
X0027500D03*
X0028500D03*
Y0009000D03*
X0027500D03*
X0026500D03*
X0025500D03*
X0024500D03*
X0023500D03*
X0022500D03*
X0021500D03*
X0013500Y0006000D03*
X0014500D03*
X0015500D03*
X0016500D03*
X0017500D03*
X0018500D03*
X0019500D03*
Y0009000D03*
X0018500D03*
X0017500D03*
X0016500D03*
X0015500D03*
X0014500D03*
X0013500D03*
X0012500D03*
X0010500Y0013000D03*
X0011500D03*
X0012500D03*
X0013500D03*
X0014500D03*
X0015500D03*
X0016500D03*
Y0016000D03*
X0015500D03*
X0014500D03*
X0013500D03*
X0012500D03*
X0011500D03*
X0010500D03*
X0009500D03*
X0004500Y0006000D03*
X0005500D03*
X0006500D03*
X0007500D03*
X0008500D03*
X0009500D03*
X0010500D03*
Y0009000D03*
X0009500D03*
X0008500D03*
X0007500D03*
X0006500D03*
X0005500D03*
X0004500D03*
X0003500D03*
X0068500Y0011000D03*
X0069500D03*
X0070500D03*
X0068500Y0015000D03*
X0069500D03*
X0070500D03*
X0068500Y0019000D03*
X0069500D03*
X0070500D03*
X0068500Y0023000D03*
X0069500D03*
X0070500D03*
X0068500Y0027000D03*
X0069500D03*
X0070500D03*
X0068500Y0042000D03*
Y0041000D03*
Y0040000D03*
X0064500Y0042000D03*
Y0041000D03*
Y0040000D03*
X0060500Y0042000D03*
Y0041000D03*
Y0040000D03*
X0056500Y0042000D03*
Y0041000D03*
Y0040000D03*
X0052500Y0042000D03*
Y0041000D03*
Y0040000D03*
X0048500Y0042000D03*
Y0041000D03*
Y0040000D03*
X0044500Y0042000D03*
Y0041000D03*
Y0040000D03*
X0040500Y0042000D03*
Y0041000D03*
Y0040000D03*
X0036500Y0042000D03*
Y0041000D03*
Y0040000D03*
X0032500Y0042000D03*
Y0041000D03*
Y0040000D03*
X0028500Y0042000D03*
Y0041000D03*
Y0040000D03*
X0024500Y0042000D03*
Y0041000D03*
Y0040000D03*
X0020500Y0042000D03*
Y0041000D03*
Y0040000D03*
Y0039000D03*
Y0038000D03*
X0009500Y0019737D03*
X0010287Y0018950D03*
Y0019737D03*
X0011075Y0018950D03*
Y0019737D03*
X0011862Y0018950D03*
Y0019737D03*
X0012649Y0018950D03*
X0013437D03*
Y0019737D03*
X0014224Y0018950D03*
Y0019737D03*
X0015011Y0018950D03*
Y0019737D03*
X0015799Y0018950D03*
Y0019737D03*
X0016586Y0018950D03*
X0017373D03*
Y0019737D03*
X0018161Y0018950D03*
Y0019737D03*
X0018948Y0018950D03*
Y0019737D03*
X0019735Y0018950D03*
Y0019737D03*
X0020523Y0018950D03*
X0021310D03*
Y0019737D03*
X0022097Y0018950D03*
Y0019737D03*
X0022885Y0018950D03*
Y0019737D03*
X0023672Y0018950D03*
Y0019737D03*
X0024459Y0018950D03*
Y0019737D03*
X0009500Y0033287D03*
X0010287Y0032500D03*
Y0033287D03*
X0011075Y0032500D03*
Y0033287D03*
X0011862Y0032500D03*
Y0033287D03*
X0012649Y0032500D03*
X0013437D03*
Y0033287D03*
X0014224Y0032500D03*
Y0033287D03*
X0015011Y0032500D03*
Y0033287D03*
X0015799Y0032500D03*
Y0033287D03*
X0016586Y0032500D03*
X0017373D03*
Y0033287D03*
X0018161Y0032500D03*
Y0033287D03*
X0018948Y0032500D03*
Y0033287D03*
X0019735Y0032500D03*
Y0033287D03*
X0020523Y0032500D03*
X0021310D03*
Y0033287D03*
X0022097Y0032500D03*
Y0033287D03*
X0022885Y0032500D03*
Y0033287D03*
X0023672Y0032500D03*
Y0033287D03*
X0024459Y0032500D03*
Y0033287D03*
X0016500Y0042000D03*
Y0041000D03*
Y0040000D03*
Y0039000D03*
Y0038000D03*
X0012500Y0042000D03*
Y0041000D03*
Y0040000D03*
Y0039000D03*
Y0038000D03*
X0008500Y0042000D03*
Y0041000D03*
Y0040000D03*
Y0039000D03*
Y0038000D03*
G54D15*
X0061000Y0006500D03*
Y0016500D03*
Y0032500D03*
Y0037000D03*
X0057000Y0026500D03*
X0053000Y0006500D03*
X0052000Y0016500D03*
Y0032500D03*
Y0037000D03*
X0044500Y0006500D03*
X0043000Y0016500D03*
Y0026500D03*
Y0032500D03*
Y0037000D03*
X0036000Y0006500D03*
X0034000Y0016500D03*
Y0032500D03*
Y0037000D03*
X0021500Y0006000D03*
X0012500D03*
X0009500Y0013000D03*
X0003500Y0006000D03*
X0067500Y0011000D03*
Y0015000D03*
Y0019000D03*
Y0023000D03*
Y0027000D03*
X0068500Y0043000D03*
X0064500D03*
X0060500D03*
X0056500D03*
X0052500D03*
X0048500D03*
X0044500D03*
X0040500D03*
X0036500D03*
X0032500D03*
X0028500D03*
X0024500D03*
X0020500D03*
X0009500Y0018950D03*
X0012649Y0019737D03*
X0016586D03*
X0020523D03*
X0009500Y0032500D03*
X0012649Y0033287D03*
X0016586D03*
X0020523D03*
X0016500Y0043000D03*
X0012500D03*
X0008500D03*
G54D16*
X0070500Y0001750D03*
X0070750Y0043250D03*
X0001625Y0001750D03*
X0001750Y0043250D03*
G54D19*
X0030000Y0019000D03*
X0032500Y0008250D03*
X0030750D03*
Y0038000D03*
X0049250Y0021500D03*
X0008000Y0012250D03*
X0039500Y0024000D03*
X0053000Y0018000D03*
X0061000Y0018250D03*
X0036000Y0037000D03*
X0006500Y0029000D03*
X0007000Y0030750D03*
X0012750Y0025250D03*
X0006750Y0024750D03*
X0006250Y0031000D03*
X0015250Y0031250D03*
X0045000Y0037500D03*
X0062250Y0010250D03*
X0059750Y0036250D03*
X0018750Y0037000D03*
X0049500Y0017250D03*
X0032250Y0019750D03*
X0051000Y0006500D03*
X0018000Y0000750D03*
X0066500D03*
Y0032000D03*
X0031000Y0034000D03*
Y0033000D03*
X0030500Y0034500D03*
X0025750Y0026500D03*
X0030000Y0008500D03*
X0030500Y0022500D03*
X0014750Y0021250D03*
X0007500Y0029000D03*
X0035500Y0028750D03*
X0036000Y0018000D03*
X0034250Y0028000D03*
X0007750Y0028250D03*
X0011500Y0017750D03*
X0026250Y0043000D03*
X0027500Y0014750D03*
X0024000Y0028500D03*
X0020750Y0017500D03*
X0033000Y0018750D03*
X0033500Y0021750D03*
X0026250Y0038250D03*
X0049250Y0038750D03*
X0027250Y0010250D03*
X0028000Y0033500D03*
X0005750Y0025750D03*
X0008750Y0026000D03*
Y0030250D03*
X0005000Y0030000D03*
X0065750Y0029000D03*
X0066500Y0004250D03*
X0020500Y0002500D03*
X0067250Y0010000D03*
X0025750Y0028750D03*
X0053500Y0029000D03*
X0054750Y0017750D03*
X0038750Y0028750D03*
X0016750D03*
X0037500Y0018000D03*
X0038500Y0039250D03*
X0025750D03*
X0050250Y0017250D03*
X0062000Y0018250D03*
X0029000Y0030250D03*
X0014500Y0030000D03*
X0027750Y0025500D03*
X0059500Y0043750D03*
X0040750Y0027250D03*
X0027000Y0016750D03*
X0026500Y0035750D03*
X0023000Y0035500D03*
X0028250Y0027250D03*
X0067000Y0031000D03*
X0067750Y0003750D03*
X0013000Y0001000D03*
X0047500Y0031000D03*
X0025500Y0025500D03*
X0031500Y0031750D03*
X0033000Y0037750D03*
X0043500Y0010000D03*
X0068000Y0008750D03*
X0061250Y0009000D03*
X0058000Y0008750D03*
Y0010750D03*
X0029000Y0028000D03*
X0031000Y0004500D03*
X0037250D03*
X0054500Y0028000D03*
X0068000Y0033000D03*
X0005500Y0031750D03*
X0002000Y0004500D03*
X0006500Y0036000D03*
X0049500Y0007500D03*
X0062500D03*
X0007750Y0015500D03*
X0026750Y0042500D03*
X0031750Y0019250D03*
Y0023250D03*
X0012000Y0021500D03*
X0025000Y0038750D03*
X0031750Y0038500D03*
X0033750Y0018750D03*
X0001250Y0015000D03*
X0062250Y0006500D03*
X0006750Y0026500D03*
X0009000Y0036000D03*
X0069000Y0028500D03*
X0055250Y0028000D03*
X0016000Y0012500D03*
X0012750Y0022750D03*
X0040750Y0024000D03*
X0048500Y0027000D03*
X0065750Y0027750D03*
X0023250D03*
X0057500Y0029250D03*
X0025250Y0010500D03*
X0025750Y0032000D03*
X0006500Y0032250D03*
X0011000Y0001500D03*
X0040250Y0002500D03*
X0028750Y0008000D03*
X0029750Y0002000D03*
X0065500Y0004000D03*
X0024500Y0044000D03*
X0037750Y0003000D03*
X0046000Y0002250D03*
X0029750Y0024000D03*
X0010500Y0021750D03*
X0051250Y0002500D03*
X0040750Y0022250D03*
X0065750Y0024750D03*
X0029250Y0020500D03*
X0016250Y0036250D03*
X0032000Y0035250D03*
X0067250Y0001250D03*
X0039500Y0001000D03*
X0012000Y0014000D03*
X0044250Y0023250D03*
X0062250Y0008250D03*
X0020500Y0013250D03*
X0008500Y0034000D03*
X0041500Y0030000D03*
X0026000Y0007250D03*
X0026250Y0031000D03*
X0028750Y0021750D03*
X0049500Y0043500D03*
X0011250Y0021250D03*
X0029250Y0023500D03*
X0050000Y0012500D03*
X0016250Y0027250D03*
X0024250Y0027500D03*
X0020500Y0006500D03*
X0064000Y0009500D03*
X0007000Y0012250D03*
X0016000Y0014250D03*
X0053750Y0011500D03*
X0052000Y0009500D03*
X0006750Y0013500D03*
X0007750Y0032750D03*
X0006500Y0014250D03*
X0019250Y0013500D03*
Y0011500D03*
X0032750Y0007500D03*
X0021500Y0026750D03*
X0027000Y0032500D03*
X0026750Y0010750D03*
X0023250Y0026500D03*
G54D22*
X0015750Y0030750D03*
M02*
