*
G04 Mass Parameters ***
*
G04 Image ***
*
%INZ:\CONTROLBOARD_PROJECT\CAD\CONTROLBOARD_CAD-20.FAB*%
%ICAS*%
%MOIN*%
%IPPOS*%
%ASAXBY*%
G74*%FSLAN2X34Y34*%
*
G04 Aperture Definitions ***
*
%ADD10C,0.0550*%
%ADD11C,0.0520*%
%ADD12C,0.0580*%
%ADD13R,0.0580X0.0580*%
%ADD14C,0.1100*%
%ADD15C,0.0620*%
%ADD16C,0.0450*%
%ADD17C,0.2047*%
%ADD18C,0.0010*%
%ADD19C,0.0120*%
%ADD20C,0.0500*%
%ADD21C,0.0500*%
%ADD22C,0.0800*%
%ADD23C,0.0500*%
%ADD24C,0.0550*%
%ADD25C,0.0520*%
%ADD26C,0.0580*%
%ADD27R,0.0580X0.0580*%
%ADD28C,0.1100*%
%ADD29C,0.0620*%
%ADD30C,0.0450*%
%ADD31C,0.2047*%
%ADD32C,0.0500*%
%ADD33C,0.0750*%
%ADD34C,0.0720*%
%ADD35C,0.0780*%
%ADD36R,0.0780X0.0780*%
%ADD37C,0.1160*%
%ADD38C,0.0800*%
%ADD39C,0.0650*%
%ADD40C,0.2362*%
%ADD41C,0.0750*%
%ADD42C,0.0750*%
%ADD43C,0.1150*%
%ADD44C,0.0670*%
%ADD45C,0.0550*%
%ADD46C,0.0550*%
%ADD47C,0.0080*%
%ADD48C,0.0100*%
%ADD49C,0.0150*%
%ADD50C,0.0280*%
%ADD51C,0.0280*%
*
G04 Plot Data ***
*
G54D21*
G01X0072250D01*
Y0045000D01*
X0000000D01*
Y0000000D01*
G54D50*
X0018000Y0000750D03*
X0066500D03*
Y0032000D03*
X0027250Y0010250D03*
X0028000Y0033500D03*
X0026750Y0010750D03*
X0027000Y0032500D03*
X0067250Y0001250D03*
X0039500Y0001000D03*
X0016000Y0014250D03*
X0026250Y0031000D03*
X0026000Y0007250D03*
X0031750Y0019250D03*
Y0023250D03*
X0012000Y0021500D03*
X0062250Y0008250D03*
X0020500Y0013250D03*
X0049500Y0007500D03*
X0062500D03*
X0033750Y0018750D03*
X0031750Y0038500D03*
X0025000Y0038750D03*
X0008500Y0034000D03*
X0034250Y0028000D03*
X0007750Y0028250D03*
X0050250Y0017250D03*
X0050000Y0012500D03*
X0054750Y0017750D03*
X0053500Y0029000D03*
X0025750Y0028750D03*
X0007750Y0015500D03*
X0062250Y0006500D03*
X0025500Y0025500D03*
X0009000Y0036000D03*
X0011500Y0017750D03*
X0068000Y0033000D03*
X0028750Y0021750D03*
X0024250Y0027500D03*
X0020500Y0006500D03*
X0016250Y0027250D03*
X0040750D03*
X0058000Y0010750D03*
Y0008750D03*
X0061250Y0009000D03*
X0032000Y0035250D03*
X0016250Y0036250D03*
X0038750Y0028750D03*
X0016750D03*
X0026250Y0043000D03*
X0027500Y0014750D03*
X0062250Y0010250D03*
X0059750Y0036250D03*
X0018750Y0037000D03*
X0029250Y0020500D03*
X0065750Y0024750D03*
X0027000Y0016750D03*
X0026500Y0035750D03*
X0023000Y0035500D03*
X0065750Y0027750D03*
X0048500Y0027000D03*
X0040750Y0024000D03*
X0012750Y0022750D03*
X0032250Y0019750D03*
X0049500Y0017250D03*
X0054500Y0028000D03*
X0029000D03*
X0016000Y0012500D03*
X0031000Y0004500D03*
X0037250D03*
X0030750Y0038000D03*
X0024000Y0028500D03*
X0029750Y0024000D03*
X0010500Y0021750D03*
X0064000Y0009500D03*
X0049500Y0043500D03*
X0012000Y0014000D03*
X0001250Y0015000D03*
X0013000Y0001000D03*
X0067750Y0003750D03*
X0067000Y0031000D03*
X0047500D03*
X0007000Y0012250D03*
X0039500Y0024000D03*
X0025750Y0026500D03*
X0006500Y0036000D03*
X0030000Y0008500D03*
X0030500Y0022500D03*
X0014750Y0021250D03*
X0062000Y0018250D03*
X0026750Y0042500D03*
X0049250Y0038750D03*
X0026250Y0038250D03*
X0006500Y0029000D03*
X0015750Y0030750D03*
X0015250Y0031250D03*
X0006250Y0031000D03*
X0043500Y0010000D03*
X0068000Y0008750D03*
X0065500Y0004000D03*
X0029750Y0002000D03*
X0028750Y0008000D03*
X0067250Y0010000D03*
X0006750Y0026500D03*
X0012750Y0025250D03*
X0006750Y0024750D03*
X0030000Y0019000D03*
X0002000Y0004500D03*
X0005500Y0031750D03*
X0021500Y0026750D03*
X0006750Y0013500D03*
X0052000Y0009500D03*
X0053750Y0011500D03*
X0037500Y0018000D03*
X0038500Y0039250D03*
X0025750D03*
X0051000Y0006500D03*
X0033500Y0021750D03*
X0033000Y0018750D03*
X0020750Y0017500D03*
X0044250Y0023250D03*
X0041500Y0030000D03*
X0007000Y0030750D03*
X0007750Y0032750D03*
X0006500Y0014250D03*
X0019250Y0013500D03*
Y0011500D03*
X0032750Y0007500D03*
X0023250Y0026500D03*
X0040750Y0022250D03*
G54D51*
X0005000Y0030000D03*
X0008750Y0030250D03*
Y0026000D03*
X0005750Y0025750D03*
X0045250Y0037750D03*
X0024500Y0044000D03*
X0036000Y0037000D03*
X0045000D03*
X0008000Y0012250D03*
X0049250Y0021500D03*
X0032500Y0008250D03*
X0030750D03*
X0069000Y0028500D03*
X0055250Y0028000D03*
X0028250Y0027250D03*
X0053000Y0018000D03*
X0061000Y0018250D03*
X0051250Y0002500D03*
X0046000Y0002250D03*
X0037750Y0003000D03*
X0030500Y0034500D03*
X0029000Y0030250D03*
X0014500Y0030000D03*
X0031000Y0033000D03*
Y0034000D03*
X0025250Y0010500D03*
X0025750Y0032000D03*
X0031500Y0031750D03*
X0033000Y0037750D03*
X0059500Y0043750D03*
X0027750Y0025500D03*
X0029250Y0023500D03*
X0011250Y0021250D03*
X0020500Y0002500D03*
X0066500Y0004250D03*
X0065750Y0029000D03*
X0023250Y0027750D03*
X0057500Y0029250D03*
X0006500Y0032250D03*
X0011000Y0001500D03*
X0040250Y0002500D03*
X0036000Y0018000D03*
X0035500Y0028750D03*
X0007500Y0029000D03*
M02*
