*
G04 Mass Parameters ***
*
G04 Image ***
*
%INZ:\CONTROLBOARD_PROJECT\CAD\CONTROLBOARD_CAD-20.SST*%
%ICAS*%
%MOIN*%
%IPPOS*%
%ASAXBY*%
G74*%FSLAN2X34Y34*%
*
G04 Aperture Definitions ***
*
%ADD10C,0.0550*%
%ADD11C,0.0520*%
%ADD12C,0.0580*%
%ADD13R,0.0580X0.0580*%
%ADD14C,0.1100*%
%ADD15C,0.0620*%
%ADD16C,0.0450*%
%ADD17C,0.2047*%
%ADD18C,0.0010*%
%ADD19C,0.0120*%
%ADD20C,0.0500*%
%ADD21C,0.0500*%
%ADD22C,0.0800*%
%ADD23C,0.0500*%
%ADD24C,0.0550*%
%ADD25C,0.0520*%
%ADD26C,0.0580*%
%ADD27R,0.0580X0.0580*%
%ADD28C,0.1100*%
%ADD29C,0.0620*%
%ADD30C,0.0450*%
%ADD31C,0.2047*%
%ADD32C,0.0500*%
%ADD33C,0.0750*%
%ADD34C,0.0720*%
%ADD35C,0.0780*%
%ADD36R,0.0780X0.0780*%
%ADD37C,0.1160*%
%ADD38C,0.0800*%
%ADD39C,0.0650*%
%ADD40C,0.2362*%
%ADD41C,0.0750*%
%ADD42C,0.0750*%
%ADD43C,0.1150*%
%ADD44C,0.0670*%
%ADD45C,0.0550*%
%ADD46C,0.0550*%
%ADD47C,0.0080*%
%ADD48C,0.0100*%
%ADD49C,0.0150*%
*
G04 Plot Data ***
*
G54D47*
G01X0067278Y0025737D02*
X0067611Y0025903D01*
Y0025737D02*
X0067278Y0025903D01*
Y0026230D02*
X0067611D01*
Y0026119D02*
Y0026341D01*
X0069980Y0027889D02*
Y0028222D01*
X0069924Y0028167D01*
X0069869Y0028055D01*
X0069813Y0028167D01*
X0069758Y0028222D01*
Y0027889D01*
X0069570D02*
Y0028222D01*
X0069514Y0028167D01*
X0069459Y0028055D01*
X0069403Y0028167D01*
X0069348Y0028222D01*
Y0027889D01*
X0068965D02*
X0068938Y0027944D01*
Y0028167D01*
X0068965Y0028222D01*
X0069132D01*
X0069160Y0028167D01*
Y0027944D01*
X0069132Y0027889D01*
X0068965D01*
X0068750Y0027944D02*
X0068722Y0027889D01*
X0068555D01*
X0068528Y0027944D01*
Y0028167D01*
X0068555Y0028222D01*
X0068722D01*
X0068750Y0028167D01*
X0020861Y0007986D02*
X0020805Y0007931D01*
X0020750Y0007903D01*
X0020639D01*
X0020583Y0007931D01*
X0020528Y0007986D01*
Y0008042D01*
X0020583Y0008098D01*
X0020639Y0008125D01*
X0020750D01*
X0020805Y0008098D01*
X0020861Y0008042D01*
Y0007986D01*
X0020528Y0007715D02*
X0020861D01*
X0020805Y0007660D01*
X0020583Y0007549D01*
X0020528Y0007493D01*
X0020861D01*
Y0007305D02*
Y0007194D01*
Y0007250D02*
X0020528D01*
Y0007305D02*
Y0007194D01*
X0011694Y0008313D02*
X0011639Y0008341D01*
X0011583D01*
X0011528Y0008313D01*
Y0008147D01*
X0011583Y0008119D01*
X0011639D01*
X0011694Y0008147D01*
Y0008313D01*
X0011750Y0008341D01*
X0011805D01*
X0011861Y0008313D01*
Y0008147D01*
X0011805Y0008119D01*
X0011750D01*
X0011694Y0008147D01*
X0011861Y0007820D02*
X0011528D01*
Y0007931D02*
Y0007709D01*
Y0007521D02*
X0011805D01*
X0011861Y0007493D01*
Y0007327D01*
X0011805Y0007299D01*
X0011528D01*
X0011861Y0006917D02*
X0011805Y0006889D01*
X0011583D01*
X0011528Y0006917D01*
Y0007083D01*
X0011583Y0007111D01*
X0011805D01*
X0011861Y0007083D01*
Y0006917D01*
X0002861Y0008202D02*
X0002805Y0008147D01*
X0002750Y0008119D01*
X0002639D01*
X0002583Y0008147D01*
X0002528Y0008202D01*
Y0008258D01*
X0002583Y0008313D01*
X0002639Y0008341D01*
X0002750D01*
X0002805Y0008313D01*
X0002861Y0008258D01*
Y0008202D01*
Y0007820D02*
X0002528D01*
Y0007931D02*
Y0007709D01*
Y0007521D02*
X0002805D01*
X0002861Y0007493D01*
Y0007327D01*
X0002805Y0007299D01*
X0002528D01*
X0002861Y0006917D02*
X0002805Y0006889D01*
X0002583D01*
X0002528Y0006917D01*
Y0007083D01*
X0002583Y0007111D01*
X0002805D01*
X0002861Y0007083D01*
Y0006917D01*
X0001292Y0016944D02*
X0001320Y0016889D01*
X0001486D01*
X0001514Y0016944D01*
Y0017055D01*
X0001459Y0017111D01*
X0001292D01*
Y0017222D01*
X0001514D01*
X0001104Y0016889D02*
X0000993D01*
X0001049D02*
Y0017222D01*
X0000993Y0017167D01*
X0000639Y0017055D02*
X0000750D01*
Y0016944D01*
X0000722Y0016889D01*
X0000555D01*
X0000528Y0016944D01*
Y0017167D01*
X0000555Y0017222D01*
X0000722D01*
X0000750Y0017167D01*
X0001188Y0019944D02*
X0001215Y0019889D01*
X0001382D01*
X0001410Y0019944D01*
Y0020055D01*
X0001354Y0020111D01*
X0001188D01*
Y0020222D01*
X0001410D01*
X0001000D02*
Y0020111D01*
X0000889Y0019889D01*
X0000778Y0020111D01*
Y0020222D01*
X0001674Y0023055D02*
X0001452D01*
X0001042Y0022944D02*
X0001070Y0022889D01*
X0001236D01*
X0001264Y0022944D01*
Y0023055D01*
X0001209Y0023111D01*
X0001042D01*
Y0023222D01*
X0001264D01*
X0000854Y0022889D02*
X0000743D01*
X0000799D02*
Y0023222D01*
X0000743Y0023167D01*
X0000500Y0023222D02*
Y0023111D01*
X0000389Y0022889D01*
X0000278Y0023111D01*
Y0023222D01*
X0001563Y0026167D02*
Y0025944D01*
X0001674Y0026055D02*
X0001452D01*
X0001042Y0025944D02*
X0001070Y0025889D01*
X0001236D01*
X0001264Y0025944D01*
Y0026055D01*
X0001209Y0026111D01*
X0001042D01*
Y0026222D01*
X0001264D01*
X0000854Y0025889D02*
X0000743D01*
X0000799D02*
Y0026222D01*
X0000743Y0026167D01*
X0000500Y0026222D02*
Y0026111D01*
X0000389Y0025889D01*
X0000278Y0026111D01*
Y0026222D01*
X0001570Y0029000D02*
X0001348D01*
X0001459Y0029222D01*
X0001514D01*
Y0028889D01*
X0001160D02*
X0000938D01*
X0001160Y0029111D01*
Y0029167D01*
X0001132Y0029222D01*
X0000965D01*
X0000938Y0029167D01*
X0000639Y0029055D02*
X0000750D01*
Y0028944D01*
X0000722Y0028889D01*
X0000555D01*
X0000528Y0028944D01*
Y0029167D01*
X0000555Y0029222D01*
X0000722D01*
X0000750Y0029167D01*
X0001570Y0032000D02*
X0001348D01*
X0001459Y0032222D01*
X0001514D01*
Y0031889D01*
X0001160D02*
X0000938D01*
X0001160Y0032111D01*
Y0032167D01*
X0001132Y0032222D01*
X0000965D01*
X0000938Y0032167D01*
X0000750Y0032222D02*
Y0032111D01*
X0000639Y0031889D01*
X0000528Y0032111D01*
Y0032222D01*
X0069854Y0042000D02*
X0069632D01*
X0069743Y0042222D01*
X0069799D01*
Y0041889D01*
X0069444D02*
X0069333D01*
X0069389D02*
Y0042222D01*
X0069444D02*
X0069333D01*
X0069632Y0042944D02*
X0069688Y0042889D01*
X0069799D01*
X0069854Y0042944D01*
Y0043000D01*
X0069743Y0043111D01*
X0069854Y0043222D01*
X0069632D01*
X0069444Y0042889D02*
X0069333D01*
X0069389D02*
Y0043222D01*
X0069444D02*
X0069333D01*
X0069632Y0040944D02*
X0069660Y0040889D01*
X0069826D01*
X0069854Y0040944D01*
Y0041055D01*
X0069799Y0041111D01*
X0069632D01*
Y0041222D01*
X0069854D01*
X0069444Y0040889D02*
X0069333D01*
X0069389D02*
Y0041222D01*
X0069444D02*
X0069333D01*
X0065854Y0040889D02*
X0065632D01*
X0065854Y0041111D01*
Y0041167D01*
X0065826Y0041222D01*
X0065660D01*
X0065632Y0041167D01*
X0065444Y0040889D02*
X0065333D01*
X0065389D02*
Y0041222D01*
X0065444D02*
X0065333D01*
X0065799Y0041889D02*
X0065688D01*
X0065743D02*
Y0042222D01*
X0065688Y0042167D01*
X0065444Y0041889D02*
X0065333D01*
X0065389D02*
Y0042222D01*
X0065444D02*
X0065333D01*
X0065715Y0042889D02*
X0065660Y0042944D01*
X0065632Y0043000D01*
Y0043111D01*
X0065660Y0043167D01*
X0065715Y0043222D01*
X0065771D01*
X0065826Y0043167D01*
X0065854Y0043111D01*
Y0043000D01*
X0065826Y0042944D01*
X0065771Y0042889D01*
X0065715D01*
X0065444D02*
X0065333D01*
X0065389D02*
Y0043222D01*
X0065444D02*
X0065333D01*
X0067583Y0040257D02*
X0067528Y0040229D01*
Y0040062D01*
X0067583Y0040034D01*
X0067694D01*
X0067750Y0040090D01*
Y0040257D01*
X0067861D01*
Y0040034D01*
X0067639Y0040444D02*
Y0040667D01*
X0067861Y0040556D01*
Y0040500D01*
X0067528D01*
X0067583Y0041077D02*
X0067528Y0041021D01*
Y0040910D01*
X0067583Y0040854D01*
X0067639D01*
X0067750Y0040966D01*
X0067861Y0040854D01*
Y0041077D01*
Y0041264D02*
X0067528D01*
X0067583Y0041320D01*
X0067805Y0041431D01*
X0067861Y0041487D01*
X0067528D01*
Y0041674D02*
Y0041785D01*
Y0041730D02*
X0067861D01*
Y0041674D02*
Y0041785D01*
X0061688Y0039944D02*
X0061715Y0039889D01*
X0061882D01*
X0061910Y0039944D01*
Y0040055D01*
X0061854Y0040111D01*
X0061688D01*
Y0040222D01*
X0061910D01*
X0061305Y0039889D02*
X0061278Y0039944D01*
Y0040167D01*
X0061305Y0040222D01*
X0061472D01*
X0061500Y0040167D01*
Y0039944D01*
X0061472Y0039889D01*
X0061305D01*
X0061688Y0040944D02*
X0061715Y0040889D01*
X0061882D01*
X0061910Y0040944D01*
Y0041055D01*
X0061854Y0041111D01*
X0061688D01*
Y0041222D01*
X0061910D01*
X0061305Y0040889D02*
X0061278Y0040944D01*
Y0041167D01*
X0061305Y0041222D01*
X0061472D01*
X0061500Y0041167D01*
Y0040944D01*
X0061472Y0040889D01*
X0061305D01*
X0061910Y0042000D02*
X0061688D01*
X0061799Y0042222D01*
X0061854D01*
Y0041889D01*
X0061305D02*
X0061278Y0041944D01*
Y0042167D01*
X0061305Y0042222D01*
X0061472D01*
X0061500Y0042167D01*
Y0041944D01*
X0061472Y0041889D01*
X0061305D01*
X0061910Y0043000D02*
X0061688D01*
X0061799Y0043222D01*
X0061854D01*
Y0042889D01*
X0061305D02*
X0061278Y0042944D01*
Y0043167D01*
X0061305Y0043222D01*
X0061472D01*
X0061500Y0043167D01*
Y0042944D01*
X0061472Y0042889D01*
X0061305D01*
X0057688Y0039944D02*
X0057743Y0039889D01*
X0057854D01*
X0057910Y0039944D01*
Y0040000D01*
X0057799Y0040111D01*
X0057910Y0040222D01*
X0057688D01*
X0057305Y0039889D02*
X0057278Y0039944D01*
Y0040167D01*
X0057305Y0040222D01*
X0057472D01*
X0057500Y0040167D01*
Y0039944D01*
X0057472Y0039889D01*
X0057305D01*
X0057688Y0040944D02*
X0057743Y0040889D01*
X0057854D01*
X0057910Y0040944D01*
Y0041000D01*
X0057799Y0041111D01*
X0057910Y0041222D01*
X0057688D01*
X0057305Y0040889D02*
X0057278Y0040944D01*
Y0041167D01*
X0057305Y0041222D01*
X0057472D01*
X0057500Y0041167D01*
Y0040944D01*
X0057472Y0040889D01*
X0057305D01*
X0057910Y0041889D02*
X0057688D01*
X0057910Y0042111D01*
Y0042167D01*
X0057882Y0042222D01*
X0057715D01*
X0057688Y0042167D01*
X0057305Y0041889D02*
X0057278Y0041944D01*
Y0042167D01*
X0057305Y0042222D01*
X0057472D01*
X0057500Y0042167D01*
Y0041944D01*
X0057472Y0041889D01*
X0057305D01*
X0057910Y0042889D02*
X0057688D01*
X0057910Y0043111D01*
Y0043167D01*
X0057882Y0043222D01*
X0057715D01*
X0057688Y0043167D01*
X0057305Y0042889D02*
X0057278Y0042944D01*
Y0043167D01*
X0057305Y0043222D01*
X0057472D01*
X0057500Y0043167D01*
Y0042944D01*
X0057472Y0042889D01*
X0057305D01*
X0053854Y0039889D02*
X0053743D01*
X0053799D02*
Y0040222D01*
X0053743Y0040167D01*
X0053305Y0039889D02*
X0053278Y0039944D01*
Y0040167D01*
X0053305Y0040222D01*
X0053472D01*
X0053500Y0040167D01*
Y0039944D01*
X0053472Y0039889D01*
X0053305D01*
X0053854Y0040889D02*
X0053743D01*
X0053799D02*
Y0041222D01*
X0053743Y0041167D01*
X0053305Y0040889D02*
X0053278Y0040944D01*
Y0041167D01*
X0053305Y0041222D01*
X0053472D01*
X0053500Y0041167D01*
Y0040944D01*
X0053472Y0040889D01*
X0053305D01*
X0053771Y0041889D02*
X0053715Y0041944D01*
X0053688Y0042000D01*
Y0042111D01*
X0053715Y0042167D01*
X0053771Y0042222D01*
X0053827D01*
X0053882Y0042167D01*
X0053910Y0042111D01*
Y0042000D01*
X0053882Y0041944D01*
X0053827Y0041889D01*
X0053771D01*
X0053305D02*
X0053278Y0041944D01*
Y0042167D01*
X0053305Y0042222D01*
X0053472D01*
X0053500Y0042167D01*
Y0041944D01*
X0053472Y0041889D01*
X0053305D01*
X0053771Y0042889D02*
X0053715Y0042944D01*
X0053688Y0043000D01*
Y0043111D01*
X0053715Y0043167D01*
X0053771Y0043222D01*
X0053827D01*
X0053882Y0043167D01*
X0053910Y0043111D01*
Y0043000D01*
X0053882Y0042944D01*
X0053827Y0042889D01*
X0053771D01*
X0053305D02*
X0053278Y0042944D01*
Y0043167D01*
X0053305Y0043222D01*
X0053472D01*
X0053500Y0043167D01*
Y0042944D01*
X0053472Y0042889D01*
X0053305D01*
X0063528Y0040090D02*
Y0040312D01*
X0063750Y0040090D01*
X0063805D01*
X0063861Y0040118D01*
Y0040285D01*
X0063805Y0040312D01*
X0063528Y0040500D02*
Y0040611D01*
Y0040556D02*
X0063861D01*
X0063805Y0040611D01*
X0063528Y0040993D02*
X0063583Y0041049D01*
X0063639Y0041077D01*
X0063750D01*
X0063805Y0041049D01*
X0063861Y0040993D01*
Y0040938D01*
X0063805Y0040882D01*
X0063750Y0040854D01*
X0063639D01*
X0063583Y0040882D01*
X0063528Y0040938D01*
Y0040993D01*
X0063861Y0041264D02*
X0063528D01*
X0063583Y0041320D01*
X0063805Y0041431D01*
X0063861Y0041487D01*
X0063528D01*
Y0041674D02*
Y0041785D01*
Y0041730D02*
X0063861D01*
Y0041674D02*
Y0041785D01*
X0059583Y0040201D02*
X0059528Y0040173D01*
Y0040007D01*
X0059583Y0039979D01*
X0059694D01*
X0059750Y0040034D01*
Y0040201D01*
X0059861D01*
Y0039979D01*
X0059639Y0040389D02*
Y0040611D01*
X0059861Y0040500D01*
Y0040444D01*
X0059528D01*
Y0040910D02*
X0059861D01*
Y0040799D02*
Y0041021D01*
Y0041209D02*
X0059583D01*
X0059528Y0041237D01*
Y0041403D01*
X0059583Y0041431D01*
X0059861D01*
X0059528Y0041813D02*
X0059583Y0041841D01*
X0059805D01*
X0059861Y0041813D01*
Y0041647D01*
X0059805Y0041619D01*
X0059583D01*
X0059528Y0041647D01*
Y0041813D01*
X0055583Y0040201D02*
X0055528Y0040145D01*
Y0040034D01*
X0055583Y0039979D01*
X0055639D01*
X0055750Y0040090D01*
X0055861Y0039979D01*
Y0040201D01*
X0055528Y0040389D02*
Y0040611D01*
X0055750Y0040389D01*
X0055805D01*
X0055861Y0040417D01*
Y0040583D01*
X0055805Y0040611D01*
X0055528Y0040910D02*
X0055861D01*
Y0040799D02*
Y0041021D01*
Y0041209D02*
X0055583D01*
X0055528Y0041237D01*
Y0041403D01*
X0055583Y0041431D01*
X0055861D01*
X0055528Y0041813D02*
X0055583Y0041841D01*
X0055805D01*
X0055861Y0041813D01*
Y0041647D01*
X0055805Y0041619D01*
X0055583D01*
X0055528Y0041647D01*
Y0041813D01*
X0051528Y0040034D02*
Y0040145D01*
Y0040090D02*
X0051861D01*
X0051805Y0040145D01*
X0051528Y0040528D02*
X0051583Y0040583D01*
X0051639Y0040611D01*
X0051750D01*
X0051805Y0040583D01*
X0051861Y0040528D01*
Y0040472D01*
X0051805Y0040417D01*
X0051750Y0040389D01*
X0051639D01*
X0051583Y0040417D01*
X0051528Y0040472D01*
Y0040528D01*
Y0040910D02*
X0051861D01*
Y0040799D02*
Y0041021D01*
Y0041209D02*
X0051583D01*
X0051528Y0041237D01*
Y0041403D01*
X0051583Y0041431D01*
X0051861D01*
X0051528Y0041813D02*
X0051583Y0041841D01*
X0051805D01*
X0051861Y0041813D01*
Y0041647D01*
X0051805Y0041619D01*
X0051583D01*
X0051528Y0041647D01*
Y0041813D01*
X0050702Y0040055D02*
X0050480D01*
X0050098Y0039889D02*
Y0040222D01*
X0050070Y0039889D02*
X0050236D01*
X0050292Y0040000D01*
Y0040111D01*
X0050236Y0040222D01*
X0050070D01*
X0049826Y0040055D02*
X0049660D01*
X0049882Y0039889D02*
X0049660D01*
Y0040222D01*
X0049882D01*
X0049472Y0039889D02*
X0049278D01*
Y0040222D01*
X0050591Y0041167D02*
Y0040944D01*
X0050702Y0041055D02*
X0050480D01*
X0050098Y0040889D02*
Y0041222D01*
X0050070Y0040889D02*
X0050236D01*
X0050292Y0041000D01*
Y0041111D01*
X0050236Y0041222D01*
X0050070D01*
X0049826Y0041055D02*
X0049660D01*
X0049882Y0040889D02*
X0049660D01*
Y0041222D01*
X0049882D01*
X0049472Y0040889D02*
X0049278D01*
Y0041222D01*
X0050264Y0042055D02*
X0050042D01*
X0049854Y0042222D02*
Y0041889D01*
X0049799Y0041944D01*
X0049688Y0042167D01*
X0049632Y0042222D01*
Y0041889D01*
X0049444D02*
X0049333D01*
X0049389D02*
Y0042222D01*
X0049444D02*
X0049333D01*
X0050153Y0043167D02*
Y0042944D01*
X0050264Y0043055D02*
X0050042D01*
X0049854Y0043222D02*
Y0042889D01*
X0049799Y0042944D01*
X0049688Y0043167D01*
X0049632Y0043222D01*
Y0042889D01*
X0049444D02*
X0049333D01*
X0049389D02*
Y0043222D01*
X0049444D02*
X0049333D01*
X0046702Y0040055D02*
X0046480D01*
X0046098Y0039889D02*
Y0040222D01*
X0046070Y0039889D02*
X0046236D01*
X0046292Y0040000D01*
Y0040111D01*
X0046236Y0040222D01*
X0046070D01*
X0045826Y0040055D02*
X0045660D01*
X0045882Y0039889D02*
X0045660D01*
Y0040222D01*
X0045882D01*
X0045472Y0039889D02*
X0045278D01*
Y0040222D01*
X0046591Y0041167D02*
Y0040944D01*
X0046702Y0041055D02*
X0046480D01*
X0046098Y0040889D02*
Y0041222D01*
X0046070Y0040889D02*
X0046236D01*
X0046292Y0041000D01*
Y0041111D01*
X0046236Y0041222D01*
X0046070D01*
X0045826Y0041055D02*
X0045660D01*
X0045882Y0040889D02*
X0045660D01*
Y0041222D01*
X0045882D01*
X0045472Y0040889D02*
X0045278D01*
Y0041222D01*
X0046264Y0042055D02*
X0046042D01*
X0045854Y0042222D02*
Y0041889D01*
X0045799Y0041944D01*
X0045688Y0042167D01*
X0045632Y0042222D01*
Y0041889D01*
X0045444D02*
X0045333D01*
X0045389D02*
Y0042222D01*
X0045444D02*
X0045333D01*
X0046153Y0043167D02*
Y0042944D01*
X0046264Y0043055D02*
X0046042D01*
X0045854Y0043222D02*
Y0042889D01*
X0045799Y0042944D01*
X0045688Y0043167D01*
X0045632Y0043222D01*
Y0042889D01*
X0045444D02*
X0045333D01*
X0045389D02*
Y0043222D01*
X0045444D02*
X0045333D01*
X0004570Y0039944D02*
X0004542Y0039889D01*
X0004375D01*
X0004348Y0039944D01*
Y0040167D01*
X0004375Y0040222D01*
X0004542D01*
X0004570Y0040167D01*
X0004104Y0040055D02*
X0003938D01*
Y0039889D02*
Y0040222D01*
X0004160D01*
X0003750Y0039889D02*
Y0040222D01*
X0003694Y0040167D01*
X0003639Y0040055D01*
X0003583Y0040167D01*
X0003528Y0040222D01*
Y0039889D01*
X0042320Y0040055D02*
X0042098D01*
X0041910Y0040222D02*
Y0040111D01*
X0041799Y0039889D01*
X0041688Y0040111D01*
Y0040222D01*
X0041500D02*
Y0040111D01*
X0041389Y0039889D01*
X0041278Y0040111D01*
Y0040222D01*
X0042209Y0041167D02*
Y0040944D01*
X0042320Y0041055D02*
X0042098D01*
X0041910Y0041222D02*
Y0041111D01*
X0041799Y0040889D01*
X0041688Y0041111D01*
Y0041222D01*
X0041500D02*
Y0041111D01*
X0041389Y0040889D01*
X0041278Y0041111D01*
Y0041222D01*
X0042320Y0042055D02*
X0042098D01*
X0041688D02*
X0041854D01*
X0041910Y0042111D01*
Y0042167D01*
X0041854Y0042222D01*
X0041688D01*
Y0041889D01*
X0041500Y0042222D02*
Y0042111D01*
X0041389Y0041889D01*
X0041278Y0042111D01*
Y0042222D01*
X0042209Y0043167D02*
Y0042944D01*
X0042320Y0043055D02*
X0042098D01*
X0041688D02*
X0041854D01*
X0041910Y0043111D01*
Y0043167D01*
X0041854Y0043222D01*
X0041688D01*
Y0042889D01*
X0041500Y0043222D02*
Y0043111D01*
X0041389Y0042889D01*
X0041278Y0043111D01*
Y0043222D01*
X0038264Y0040055D02*
X0038042D01*
X0037854Y0039889D02*
X0037743D01*
X0037799D02*
Y0040222D01*
X0037743Y0040167D01*
X0037500Y0040222D02*
Y0040111D01*
X0037389Y0039889D01*
X0037278Y0040111D01*
Y0040222D01*
X0038153Y0041167D02*
Y0040944D01*
X0038264Y0041055D02*
X0038042D01*
X0037854Y0040889D02*
X0037743D01*
X0037799D02*
Y0041222D01*
X0037743Y0041167D01*
X0037500Y0041222D02*
Y0041111D01*
X0037389Y0040889D01*
X0037278Y0041111D01*
Y0041222D01*
X0038320Y0042055D02*
X0038098D01*
X0037771Y0041889D02*
X0037715Y0041944D01*
X0037688Y0042000D01*
Y0042111D01*
X0037715Y0042167D01*
X0037771Y0042222D01*
X0037827D01*
X0037882Y0042167D01*
X0037910Y0042111D01*
Y0042000D01*
X0037882Y0041944D01*
X0037827Y0041889D01*
X0037771D01*
X0037500Y0042222D02*
Y0042111D01*
X0037389Y0041889D01*
X0037278Y0042111D01*
Y0042222D01*
X0038209Y0043167D02*
Y0042944D01*
X0038320Y0043055D02*
X0038098D01*
X0037771Y0042889D02*
X0037715Y0042944D01*
X0037688Y0043000D01*
Y0043111D01*
X0037715Y0043167D01*
X0037771Y0043222D01*
X0037827D01*
X0037882Y0043167D01*
X0037910Y0043111D01*
Y0043000D01*
X0037882Y0042944D01*
X0037827Y0042889D01*
X0037771D01*
X0037500Y0043222D02*
Y0043111D01*
X0037389Y0042889D01*
X0037278Y0043111D01*
Y0043222D01*
X0034320Y0040055D02*
X0034098D01*
X0033688Y0039944D02*
X0033743Y0039889D01*
X0033854D01*
X0033910Y0039944D01*
Y0040000D01*
X0033799Y0040111D01*
X0033910Y0040222D01*
X0033688D01*
X0033500D02*
Y0040111D01*
X0033389Y0039889D01*
X0033278Y0040111D01*
Y0040222D01*
X0034209Y0041167D02*
Y0040944D01*
X0034320Y0041055D02*
X0034098D01*
X0033688Y0040944D02*
X0033743Y0040889D01*
X0033854D01*
X0033910Y0040944D01*
Y0041000D01*
X0033799Y0041111D01*
X0033910Y0041222D01*
X0033688D01*
X0033500D02*
Y0041111D01*
X0033389Y0040889D01*
X0033278Y0041111D01*
Y0041222D01*
X0034320Y0042055D02*
X0034098D01*
X0033910Y0041889D02*
X0033688D01*
X0033910Y0042111D01*
Y0042167D01*
X0033882Y0042222D01*
X0033715D01*
X0033688Y0042167D01*
X0033500Y0042222D02*
Y0042111D01*
X0033389Y0041889D01*
X0033278Y0042111D01*
Y0042222D01*
X0034209Y0043167D02*
Y0042944D01*
X0034320Y0043055D02*
X0034098D01*
X0033910Y0042889D02*
X0033688D01*
X0033910Y0043111D01*
Y0043167D01*
X0033882Y0043222D01*
X0033715D01*
X0033688Y0043167D01*
X0033500Y0043222D02*
Y0043111D01*
X0033389Y0042889D01*
X0033278Y0043111D01*
Y0043222D01*
X0030264Y0040055D02*
X0030042D01*
X0029854Y0039889D02*
X0029743D01*
X0029799D02*
Y0040222D01*
X0029743Y0040167D01*
X0029500Y0040222D02*
Y0040111D01*
X0029389Y0039889D01*
X0029278Y0040111D01*
Y0040222D01*
X0030153Y0041167D02*
Y0040944D01*
X0030264Y0041055D02*
X0030042D01*
X0029854Y0040889D02*
X0029743D01*
X0029799D02*
Y0041222D01*
X0029743Y0041167D01*
X0029500Y0041222D02*
Y0041111D01*
X0029389Y0040889D01*
X0029278Y0041111D01*
Y0041222D01*
X0030320Y0042055D02*
X0030098D01*
X0029771Y0041889D02*
X0029715Y0041944D01*
X0029688Y0042000D01*
Y0042111D01*
X0029715Y0042167D01*
X0029771Y0042222D01*
X0029827D01*
X0029882Y0042167D01*
X0029910Y0042111D01*
Y0042000D01*
X0029882Y0041944D01*
X0029827Y0041889D01*
X0029771D01*
X0029500Y0042222D02*
Y0042111D01*
X0029389Y0041889D01*
X0029278Y0042111D01*
Y0042222D01*
X0030209Y0043167D02*
Y0042944D01*
X0030320Y0043055D02*
X0030098D01*
X0029771Y0042889D02*
X0029715Y0042944D01*
X0029688Y0043000D01*
Y0043111D01*
X0029715Y0043167D01*
X0029771Y0043222D01*
X0029827D01*
X0029882Y0043167D01*
X0029910Y0043111D01*
Y0043000D01*
X0029882Y0042944D01*
X0029827Y0042889D01*
X0029771D01*
X0029500Y0043222D02*
Y0043111D01*
X0029389Y0042889D01*
X0029278Y0043111D01*
Y0043222D01*
X0031583Y0039492D02*
X0031528Y0039437D01*
Y0039326D01*
X0031583Y0039270D01*
X0031639D01*
X0031750Y0039381D01*
X0031861Y0039270D01*
Y0039492D01*
X0031528Y0039680D02*
Y0039902D01*
X0031750Y0039680D01*
X0031805D01*
X0031861Y0039708D01*
Y0039874D01*
X0031805Y0039902D01*
X0031861Y0040090D02*
X0031750D01*
X0031528Y0040201D01*
X0031750Y0040312D01*
X0031861D01*
X0031528Y0040555D02*
Y0040500D01*
X0031583D01*
Y0040555D01*
X0031528D01*
X0031805Y0040799D02*
X0031861Y0040827D01*
Y0040993D01*
X0031805Y0041021D01*
X0031750D01*
X0031694Y0040993D01*
Y0040827D01*
X0031639Y0040799D01*
X0031583D01*
X0031528Y0040827D01*
Y0040993D01*
X0031583Y0041021D01*
X0031639Y0041209D02*
Y0041431D01*
X0031528Y0041209D02*
X0031694D01*
X0031861Y0041292D01*
Y0041348D01*
X0031694Y0041431D01*
X0031528D01*
X0031694Y0041730D02*
Y0041619D01*
X0031583D01*
X0031528Y0041647D01*
Y0041813D01*
X0031583Y0041841D01*
X0031805D01*
X0031861Y0041813D01*
Y0041647D01*
X0031805Y0041619D01*
X0043528Y0040090D02*
X0043861D01*
Y0039979D02*
Y0040201D01*
X0043694Y0040472D02*
X0043528Y0040389D01*
X0043694Y0040611D02*
Y0040444D01*
X0043750Y0040389D01*
X0043805D01*
X0043861Y0040444D01*
Y0040611D01*
X0043528D01*
X0043639Y0040799D02*
Y0041021D01*
X0043528Y0040799D02*
X0043694D01*
X0043861Y0040882D01*
Y0040938D01*
X0043694Y0041021D01*
X0043528D01*
Y0041320D02*
X0043861D01*
Y0041209D02*
Y0041431D01*
X0043805Y0041619D02*
X0043861Y0041647D01*
Y0041813D01*
X0043805Y0041841D01*
X0043750D01*
X0043694Y0041813D01*
Y0041647D01*
X0043639Y0041619D01*
X0043583D01*
X0043528Y0041647D01*
Y0041813D01*
X0043583Y0041841D01*
X0039861Y0040500D02*
X0039750D01*
X0039528Y0040611D01*
X0039750Y0040722D01*
X0039861D01*
X0039528Y0040965D02*
Y0040910D01*
X0039583D01*
Y0040965D01*
X0039528D01*
X0039861Y0041209D02*
X0039750D01*
X0039528Y0041320D01*
X0039750Y0041431D01*
X0039861D01*
X0039694Y0041841D02*
Y0041674D01*
X0039750Y0041619D01*
X0039805D01*
X0039861Y0041674D01*
Y0041841D01*
X0039528D01*
X0035861Y0039680D02*
X0035750D01*
X0035528Y0039791D01*
X0035750Y0039902D01*
X0035861D01*
X0035528Y0040145D02*
Y0040090D01*
X0035583D01*
Y0040145D01*
X0035528D01*
X0035694Y0040611D02*
Y0040444D01*
X0035750Y0040389D01*
X0035805D01*
X0035861Y0040444D01*
Y0040611D01*
X0035528D01*
Y0040799D02*
X0035861D01*
X0035805Y0040854D01*
X0035694Y0040910D01*
X0035805Y0040965D01*
X0035861Y0041021D01*
X0035528D01*
X0035861Y0041209D02*
X0035583D01*
X0035528Y0041237D01*
Y0041403D01*
X0035583Y0041431D01*
X0035861D01*
X0035694Y0041841D02*
Y0041674D01*
X0035750Y0041619D01*
X0035805D01*
X0035861Y0041674D01*
Y0041841D01*
X0035528D01*
X0047694Y0040611D02*
Y0040444D01*
X0047750Y0040389D01*
X0047805D01*
X0047861Y0040444D01*
Y0040611D01*
X0047528D01*
Y0040993D02*
X0047583Y0041021D01*
X0047805D01*
X0047861Y0040993D01*
Y0040827D01*
X0047805Y0040799D01*
X0047583D01*
X0047528Y0040827D01*
Y0040993D01*
Y0041320D02*
X0047861D01*
Y0041209D02*
Y0041431D01*
X0047805Y0041619D02*
X0047861Y0041647D01*
Y0041813D01*
X0047805Y0041841D01*
X0047750D01*
X0047694Y0041813D01*
Y0041647D01*
X0047639Y0041619D01*
X0047583D01*
X0047528Y0041647D01*
Y0041813D01*
X0047583Y0041841D01*
X0027528Y0039326D02*
Y0039437D01*
Y0039381D02*
X0027861D01*
X0027805Y0039437D01*
X0027528Y0039819D02*
X0027583Y0039874D01*
X0027639Y0039902D01*
X0027750D01*
X0027805Y0039874D01*
X0027861Y0039819D01*
Y0039763D01*
X0027805Y0039708D01*
X0027750Y0039680D01*
X0027639D01*
X0027583Y0039708D01*
X0027528Y0039763D01*
Y0039819D01*
X0027861Y0040090D02*
X0027750D01*
X0027528Y0040201D01*
X0027750Y0040312D01*
X0027861D01*
X0027528Y0040555D02*
Y0040500D01*
X0027583D01*
Y0040555D01*
X0027528D01*
X0027805Y0040799D02*
X0027861Y0040827D01*
Y0040993D01*
X0027805Y0041021D01*
X0027750D01*
X0027694Y0040993D01*
Y0040827D01*
X0027639Y0040799D01*
X0027583D01*
X0027528Y0040827D01*
Y0040993D01*
X0027583Y0041021D01*
X0027639Y0041209D02*
Y0041431D01*
X0027528Y0041209D02*
X0027694D01*
X0027861Y0041292D01*
Y0041348D01*
X0027694Y0041431D01*
X0027528D01*
X0027694Y0041730D02*
Y0041619D01*
X0027583D01*
X0027528Y0041647D01*
Y0041813D01*
X0027583Y0041841D01*
X0027805D01*
X0027861Y0041813D01*
Y0041647D01*
X0027805Y0041619D01*
X0026125Y0039889D02*
Y0040222D01*
X0026098Y0039889D02*
X0026264D01*
X0026320Y0040000D01*
Y0040111D01*
X0026264Y0040222D01*
X0026098D01*
X0025910D02*
Y0039889D01*
X0025854Y0039944D01*
X0025743Y0040167D01*
X0025688Y0040222D01*
Y0039889D01*
X0025389Y0040055D02*
X0025500D01*
Y0039944D01*
X0025472Y0039889D01*
X0025305D01*
X0025278Y0039944D01*
Y0040167D01*
X0025305Y0040222D01*
X0025472D01*
X0025500Y0040167D01*
X0026320Y0041055D02*
X0026098D01*
X0025715Y0040889D02*
Y0041222D01*
X0025688Y0040889D02*
X0025854D01*
X0025910Y0041000D01*
Y0041111D01*
X0025854Y0041222D01*
X0025688D01*
X0025500Y0041000D02*
X0025278D01*
X0025500Y0040889D02*
Y0041055D01*
X0025417Y0041222D01*
X0025361D01*
X0025278Y0041055D01*
Y0040889D01*
X0026209Y0042167D02*
Y0041944D01*
X0026320Y0042055D02*
X0026098D01*
X0025715Y0041889D02*
Y0042222D01*
X0025688Y0041889D02*
X0025854D01*
X0025910Y0042000D01*
Y0042111D01*
X0025854Y0042222D01*
X0025688D01*
X0025500Y0042000D02*
X0025278D01*
X0025500Y0041889D02*
Y0042055D01*
X0025417Y0042222D01*
X0025361D01*
X0025278Y0042055D01*
Y0041889D01*
X0026320Y0043000D02*
X0026098D01*
X0026209Y0043222D01*
X0026264D01*
Y0042889D01*
X0025910D02*
X0025688D01*
X0025910Y0043111D01*
Y0043167D01*
X0025882Y0043222D01*
X0025715D01*
X0025688Y0043167D01*
X0025500Y0043222D02*
Y0043111D01*
X0025389Y0042889D01*
X0025278Y0043111D01*
Y0043222D01*
X0023694Y0040201D02*
Y0040090D01*
X0023583D01*
X0023528Y0040118D01*
Y0040284D01*
X0023583Y0040312D01*
X0023805D01*
X0023861Y0040284D01*
Y0040118D01*
X0023805Y0040090D01*
X0023528Y0040555D02*
Y0040500D01*
X0023583D01*
Y0040555D01*
X0023528D01*
X0023583Y0040799D02*
X0023528Y0040827D01*
Y0040993D01*
X0023583Y0041021D01*
X0023805D01*
X0023861Y0040993D01*
Y0040827D01*
X0023805Y0040799D01*
X0023639Y0041209D02*
Y0041431D01*
X0023528Y0041209D02*
X0023694D01*
X0023861Y0041292D01*
Y0041348D01*
X0023694Y0041431D01*
X0023528D01*
X0023861Y0041619D02*
X0023750D01*
X0023528Y0041730D01*
X0023750Y0041841D01*
X0023861D01*
X0011140Y0038167D02*
X0011112Y0038222D01*
X0010945D01*
X0010918Y0038167D01*
Y0038111D01*
X0010945Y0038055D01*
X0011112D01*
X0011140Y0038000D01*
Y0037944D01*
X0011112Y0037889D01*
X0010945D01*
X0010918Y0037944D01*
X0010730Y0037778D02*
X0010508D01*
X0010125Y0037889D02*
Y0038222D01*
X0010098Y0037889D02*
X0010264D01*
X0010320Y0038000D01*
Y0038111D01*
X0010264Y0038222D01*
X0010098D01*
X0009910D02*
Y0037889D01*
X0009854Y0037944D01*
X0009743Y0038167D01*
X0009688Y0038222D01*
Y0037889D01*
X0009389Y0038055D02*
X0009500D01*
Y0037944D01*
X0009472Y0037889D01*
X0009305D01*
X0009278Y0037944D01*
Y0038167D01*
X0009305Y0038222D01*
X0009472D01*
X0009500Y0038167D01*
X0009910Y0039000D02*
X0009688D01*
X0009910Y0038889D02*
Y0039055D01*
X0009827Y0039222D01*
X0009771D01*
X0009688Y0039055D01*
Y0038889D01*
X0009305D02*
Y0039222D01*
X0009278Y0038889D02*
X0009444D01*
X0009500Y0039000D01*
Y0039111D01*
X0009444Y0039222D01*
X0009278D01*
X0009910Y0040055D02*
X0009688D01*
X0009500Y0040222D02*
Y0040111D01*
X0009389Y0039889D01*
X0009278Y0040111D01*
Y0040222D01*
X0010125Y0040889D02*
Y0041222D01*
X0010098Y0040889D02*
X0010264D01*
X0010320Y0041000D01*
Y0041111D01*
X0010264Y0041222D01*
X0010098D01*
X0009910D02*
Y0040889D01*
X0009854Y0040944D01*
X0009743Y0041167D01*
X0009688Y0041222D01*
Y0040889D01*
X0009389Y0041055D02*
X0009500D01*
Y0040944D01*
X0009472Y0040889D01*
X0009305D01*
X0009278Y0040944D01*
Y0041167D01*
X0009305Y0041222D01*
X0009472D01*
X0009500Y0041167D01*
X0009799Y0042167D02*
Y0041944D01*
X0009910Y0042055D02*
X0009688D01*
X0009500Y0042222D02*
Y0042111D01*
X0009389Y0041889D01*
X0009278Y0042111D01*
Y0042222D01*
X0009715Y0042889D02*
Y0043222D01*
X0009688Y0042889D02*
X0009854D01*
X0009910Y0043000D01*
Y0043111D01*
X0009854Y0043222D01*
X0009688D01*
X0009500Y0043000D02*
X0009278D01*
X0009500Y0042889D02*
Y0043055D01*
X0009417Y0043222D01*
X0009361D01*
X0009278Y0043055D01*
Y0042889D01*
X0019583Y0040611D02*
X0019528Y0040555D01*
Y0040444D01*
X0019583Y0040389D01*
X0019639D01*
X0019750Y0040500D01*
X0019861Y0040389D01*
Y0040611D01*
X0019583Y0040799D02*
X0019528Y0040827D01*
Y0040993D01*
X0019583Y0041021D01*
X0019805D01*
X0019861Y0040993D01*
Y0040827D01*
X0019805Y0040799D01*
X0019694Y0041264D02*
Y0041431D01*
X0019528D02*
X0019861D01*
Y0041209D01*
X0019528Y0041619D02*
X0019861D01*
X0019805Y0041674D01*
X0019694Y0041730D01*
X0019805Y0041785D01*
X0019861Y0041841D01*
X0019528D01*
X0015528Y0040389D02*
Y0040611D01*
X0015750Y0040389D01*
X0015805D01*
X0015861Y0040417D01*
Y0040583D01*
X0015805Y0040611D01*
X0015583Y0040799D02*
X0015528Y0040827D01*
Y0040993D01*
X0015583Y0041021D01*
X0015805D01*
X0015861Y0040993D01*
Y0040827D01*
X0015805Y0040799D01*
X0015694Y0041264D02*
Y0041431D01*
X0015528D02*
X0015861D01*
Y0041209D01*
X0015528Y0041619D02*
X0015861D01*
X0015805Y0041674D01*
X0015694Y0041730D01*
X0015805Y0041785D01*
X0015861Y0041841D01*
X0015528D01*
X0011528Y0040444D02*
Y0040555D01*
Y0040500D02*
X0011861D01*
X0011805Y0040555D01*
X0011583Y0040799D02*
X0011528Y0040827D01*
Y0040993D01*
X0011583Y0041021D01*
X0011805D01*
X0011861Y0040993D01*
Y0040827D01*
X0011805Y0040799D01*
X0011694Y0041264D02*
Y0041431D01*
X0011528D02*
X0011861D01*
Y0041209D01*
X0011528Y0041619D02*
X0011861D01*
X0011805Y0041674D01*
X0011694Y0041730D01*
X0011805Y0041785D01*
X0011861Y0041841D01*
X0011528D01*
X0007528Y0040528D02*
X0007583Y0040583D01*
X0007639Y0040611D01*
X0007750D01*
X0007805Y0040583D01*
X0007861Y0040528D01*
Y0040472D01*
X0007805Y0040417D01*
X0007750Y0040389D01*
X0007639D01*
X0007583Y0040417D01*
X0007528Y0040472D01*
Y0040528D01*
X0007583Y0040799D02*
X0007528Y0040827D01*
Y0040993D01*
X0007583Y0041021D01*
X0007805D01*
X0007861Y0040993D01*
Y0040827D01*
X0007805Y0040799D01*
X0007694Y0041264D02*
Y0041431D01*
X0007528D02*
X0007861D01*
Y0041209D01*
X0007528Y0041619D02*
X0007861D01*
X0007805Y0041674D01*
X0007694Y0041730D01*
X0007805Y0041785D01*
X0007861Y0041841D01*
X0007528D01*
X0006612Y0034944D02*
X0006640Y0034889D01*
X0006806D01*
X0006834Y0034944D01*
Y0035055D01*
X0006779Y0035111D01*
X0006612D01*
Y0035222D01*
X0006834D01*
X0006424Y0034889D02*
X0006313D01*
X0006369D02*
Y0035222D01*
X0006313Y0035167D01*
X0005875Y0034889D02*
Y0035222D01*
X0005848Y0034889D02*
X0006014D01*
X0006070Y0035000D01*
Y0035111D01*
X0006014Y0035222D01*
X0005848D01*
X0005660D02*
Y0034889D01*
X0005604Y0034944D01*
X0005493Y0035167D01*
X0005438Y0035222D01*
Y0034889D01*
X0005139Y0035055D02*
X0005250D01*
Y0034944D01*
X0005222Y0034889D01*
X0005055D01*
X0005028Y0034944D01*
Y0035167D01*
X0005055Y0035222D01*
X0005222D01*
X0005250Y0035167D01*
X0006890Y0036000D02*
X0006668D01*
X0006779Y0036222D01*
X0006834D01*
Y0035889D01*
X0006480D02*
X0006258D01*
X0006480Y0036111D01*
Y0036167D01*
X0006452Y0036222D01*
X0006285D01*
X0006258Y0036167D01*
X0005875Y0035889D02*
Y0036222D01*
X0005848Y0035889D02*
X0006014D01*
X0006070Y0036000D01*
Y0036111D01*
X0006014Y0036222D01*
X0005848D01*
X0005660D02*
Y0035889D01*
X0005604Y0035944D01*
X0005493Y0036167D01*
X0005438Y0036222D01*
Y0035889D01*
X0005139Y0036055D02*
X0005250D01*
Y0035944D01*
X0005222Y0035889D01*
X0005055D01*
X0005028Y0035944D01*
Y0036167D01*
X0005055Y0036222D01*
X0005222D01*
X0005250Y0036167D01*
X0006424Y0037055D02*
X0006202D01*
X0005792Y0036944D02*
X0005820Y0036889D01*
X0005986D01*
X0006014Y0036944D01*
Y0037055D01*
X0005959Y0037111D01*
X0005792D01*
Y0037222D01*
X0006014D01*
X0005604Y0036889D02*
X0005493D01*
X0005549D02*
Y0037222D01*
X0005493Y0037167D01*
X0005250Y0037222D02*
Y0037111D01*
X0005139Y0036889D01*
X0005028Y0037111D01*
Y0037222D01*
X0006313Y0038167D02*
Y0037944D01*
X0006424Y0038055D02*
X0006202D01*
X0005792Y0037944D02*
X0005820Y0037889D01*
X0005986D01*
X0006014Y0037944D01*
Y0038055D01*
X0005959Y0038111D01*
X0005792D01*
Y0038222D01*
X0006014D01*
X0005604Y0037889D02*
X0005493D01*
X0005549D02*
Y0038222D01*
X0005493Y0038167D01*
X0005250Y0038222D02*
Y0038111D01*
X0005139Y0037889D01*
X0005028Y0038111D01*
Y0038222D01*
X0006070Y0039000D02*
X0005848D01*
X0005959Y0039222D01*
X0006014D01*
Y0038889D01*
X0005660D02*
X0005438D01*
X0005660Y0039111D01*
Y0039167D01*
X0005632Y0039222D01*
X0005465D01*
X0005438Y0039167D01*
X0005250Y0039222D02*
Y0039111D01*
X0005139Y0038889D01*
X0005028Y0039111D01*
Y0039222D01*
X0068444Y0008889D02*
Y0009111D01*
X0068278Y0009299D02*
Y0009521D01*
X0068500Y0009299D01*
X0068555D01*
X0068611Y0009327D01*
Y0009493D01*
X0068555Y0009521D01*
X0068389Y0009709D02*
Y0009931D01*
X0068278Y0009709D02*
X0068444D01*
X0068611Y0009792D01*
Y0009848D01*
X0068444Y0009931D01*
X0068278D01*
Y0010313D02*
X0068611D01*
X0068278Y0010341D02*
Y0010174D01*
X0068389Y0010119D01*
X0068500D01*
X0068611Y0010174D01*
Y0010341D01*
X0067555Y0009000D02*
X0067333D01*
X0067444Y0008889D02*
Y0009111D01*
X0067278Y0009299D02*
Y0009521D01*
X0067500Y0009299D01*
X0067555D01*
X0067611Y0009327D01*
Y0009493D01*
X0067555Y0009521D01*
X0067389Y0009709D02*
Y0009931D01*
X0067278Y0009709D02*
X0067444D01*
X0067611Y0009792D01*
Y0009848D01*
X0067444Y0009931D01*
X0067278D01*
Y0010313D02*
X0067611D01*
X0067278Y0010341D02*
Y0010174D01*
X0067389Y0010119D01*
X0067500D01*
X0067611Y0010174D01*
Y0010341D01*
X0070444Y0012944D02*
Y0013167D01*
X0070278Y0013354D02*
Y0013465D01*
Y0013410D02*
X0070611D01*
X0070555Y0013465D01*
X0070389Y0013709D02*
Y0013931D01*
X0070278Y0013709D02*
X0070444D01*
X0070611Y0013792D01*
Y0013848D01*
X0070444Y0013931D01*
X0070278D01*
Y0014313D02*
X0070611D01*
X0070278Y0014341D02*
Y0014174D01*
X0070389Y0014119D01*
X0070500D01*
X0070611Y0014174D01*
Y0014341D01*
X0069555Y0013056D02*
X0069333D01*
X0069444Y0012944D02*
Y0013167D01*
X0069278Y0013354D02*
Y0013465D01*
Y0013410D02*
X0069611D01*
X0069555Y0013465D01*
X0069389Y0013709D02*
Y0013931D01*
X0069278Y0013709D02*
X0069444D01*
X0069611Y0013792D01*
Y0013848D01*
X0069444Y0013931D01*
X0069278D01*
Y0014313D02*
X0069611D01*
X0069278Y0014341D02*
Y0014174D01*
X0069389Y0014119D01*
X0069500D01*
X0069611Y0014174D01*
Y0014341D01*
X0068444Y0012889D02*
Y0013111D01*
X0068278Y0013438D02*
X0068333Y0013493D01*
X0068389Y0013521D01*
X0068500D01*
X0068555Y0013493D01*
X0068611Y0013438D01*
Y0013382D01*
X0068555Y0013327D01*
X0068500Y0013299D01*
X0068389D01*
X0068333Y0013327D01*
X0068278Y0013382D01*
Y0013438D01*
X0068389Y0013709D02*
Y0013931D01*
X0068278Y0013709D02*
X0068444D01*
X0068611Y0013792D01*
Y0013848D01*
X0068444Y0013931D01*
X0068278D01*
Y0014313D02*
X0068611D01*
X0068278Y0014341D02*
Y0014174D01*
X0068389Y0014119D01*
X0068500D01*
X0068611Y0014174D01*
Y0014341D01*
X0067555Y0013000D02*
X0067333D01*
X0067444Y0012889D02*
Y0013111D01*
X0067278Y0013438D02*
X0067333Y0013493D01*
X0067389Y0013521D01*
X0067500D01*
X0067555Y0013493D01*
X0067611Y0013438D01*
Y0013382D01*
X0067555Y0013327D01*
X0067500Y0013299D01*
X0067389D01*
X0067333Y0013327D01*
X0067278Y0013382D01*
Y0013438D01*
X0067389Y0013709D02*
Y0013931D01*
X0067278Y0013709D02*
X0067444D01*
X0067611Y0013792D01*
Y0013848D01*
X0067444Y0013931D01*
X0067278D01*
Y0014313D02*
X0067611D01*
X0067278Y0014341D02*
Y0014174D01*
X0067389Y0014119D01*
X0067500D01*
X0067611Y0014174D01*
Y0014341D01*
X0070444Y0008889D02*
Y0009111D01*
X0070333Y0009521D02*
X0070278Y0009465D01*
Y0009354D01*
X0070333Y0009299D01*
X0070389D01*
X0070500Y0009410D01*
X0070611Y0009299D01*
Y0009521D01*
X0070389Y0009709D02*
Y0009931D01*
X0070278Y0009709D02*
X0070444D01*
X0070611Y0009792D01*
Y0009848D01*
X0070444Y0009931D01*
X0070278D01*
Y0010313D02*
X0070611D01*
X0070278Y0010341D02*
Y0010174D01*
X0070389Y0010119D01*
X0070500D01*
X0070611Y0010174D01*
Y0010341D01*
X0069555Y0009000D02*
X0069333D01*
X0069444Y0008889D02*
Y0009111D01*
X0069333Y0009521D02*
X0069278Y0009465D01*
Y0009354D01*
X0069333Y0009299D01*
X0069389D01*
X0069500Y0009410D01*
X0069611Y0009299D01*
Y0009521D01*
X0069389Y0009709D02*
Y0009931D01*
X0069278Y0009709D02*
X0069444D01*
X0069611Y0009792D01*
Y0009848D01*
X0069444Y0009931D01*
X0069278D01*
Y0010313D02*
X0069611D01*
X0069278Y0010341D02*
Y0010174D01*
X0069389Y0010119D01*
X0069500D01*
X0069611Y0010174D01*
Y0010341D01*
X0068444Y0016889D02*
Y0017111D01*
X0068278Y0017299D02*
Y0017521D01*
X0068500Y0017299D01*
X0068555D01*
X0068611Y0017327D01*
Y0017493D01*
X0068555Y0017521D01*
X0068278Y0017903D02*
X0068611D01*
X0068278Y0017931D02*
Y0017764D01*
X0068389Y0017709D01*
X0068500D01*
X0068611Y0017764D01*
Y0017931D01*
X0068389Y0018119D02*
Y0018341D01*
X0068278Y0018119D02*
X0068444D01*
X0068611Y0018202D01*
Y0018258D01*
X0068444Y0018341D01*
X0068278D01*
X0067555Y0017000D02*
X0067333D01*
X0067444Y0016889D02*
Y0017111D01*
X0067278Y0017299D02*
Y0017521D01*
X0067500Y0017299D01*
X0067555D01*
X0067611Y0017327D01*
Y0017493D01*
X0067555Y0017521D01*
X0067278Y0017903D02*
X0067611D01*
X0067278Y0017931D02*
Y0017764D01*
X0067389Y0017709D01*
X0067500D01*
X0067611Y0017764D01*
Y0017931D01*
X0067389Y0018119D02*
Y0018341D01*
X0067278Y0018119D02*
X0067444D01*
X0067611Y0018202D01*
Y0018258D01*
X0067444Y0018341D01*
X0067278D01*
X0070444Y0020944D02*
Y0021167D01*
X0070278Y0021354D02*
Y0021465D01*
Y0021410D02*
X0070611D01*
X0070555Y0021465D01*
X0070278Y0021903D02*
X0070611D01*
X0070278Y0021931D02*
Y0021764D01*
X0070389Y0021709D01*
X0070500D01*
X0070611Y0021764D01*
Y0021931D01*
X0070389Y0022119D02*
Y0022341D01*
X0070278Y0022119D02*
X0070444D01*
X0070611Y0022202D01*
Y0022258D01*
X0070444Y0022341D01*
X0070278D01*
X0069555Y0021056D02*
X0069333D01*
X0069444Y0020944D02*
Y0021167D01*
X0069278Y0021354D02*
Y0021465D01*
Y0021410D02*
X0069611D01*
X0069555Y0021465D01*
X0069278Y0021903D02*
X0069611D01*
X0069278Y0021931D02*
Y0021764D01*
X0069389Y0021709D01*
X0069500D01*
X0069611Y0021764D01*
Y0021931D01*
X0069389Y0022119D02*
Y0022341D01*
X0069278Y0022119D02*
X0069444D01*
X0069611Y0022202D01*
Y0022258D01*
X0069444Y0022341D01*
X0069278D01*
X0068444Y0020889D02*
Y0021111D01*
X0068278Y0021438D02*
X0068333Y0021493D01*
X0068389Y0021521D01*
X0068500D01*
X0068555Y0021493D01*
X0068611Y0021438D01*
Y0021382D01*
X0068555Y0021327D01*
X0068500Y0021299D01*
X0068389D01*
X0068333Y0021327D01*
X0068278Y0021382D01*
Y0021438D01*
Y0021903D02*
X0068611D01*
X0068278Y0021931D02*
Y0021764D01*
X0068389Y0021709D01*
X0068500D01*
X0068611Y0021764D01*
Y0021931D01*
X0068389Y0022119D02*
Y0022341D01*
X0068278Y0022119D02*
X0068444D01*
X0068611Y0022202D01*
Y0022258D01*
X0068444Y0022341D01*
X0068278D01*
X0067555Y0021000D02*
X0067333D01*
X0067444Y0020889D02*
Y0021111D01*
X0067278Y0021438D02*
X0067333Y0021493D01*
X0067389Y0021521D01*
X0067500D01*
X0067555Y0021493D01*
X0067611Y0021438D01*
Y0021382D01*
X0067555Y0021327D01*
X0067500Y0021299D01*
X0067389D01*
X0067333Y0021327D01*
X0067278Y0021382D01*
Y0021438D01*
Y0021903D02*
X0067611D01*
X0067278Y0021931D02*
Y0021764D01*
X0067389Y0021709D01*
X0067500D01*
X0067611Y0021764D01*
Y0021931D01*
X0067389Y0022119D02*
Y0022341D01*
X0067278Y0022119D02*
X0067444D01*
X0067611Y0022202D01*
Y0022258D01*
X0067444Y0022341D01*
X0067278D01*
X0069758Y0011944D02*
X0069813Y0011889D01*
X0069924D01*
X0069980Y0011944D01*
Y0012000D01*
X0069869Y0012111D01*
X0069980Y0012222D01*
X0069758D01*
X0069570Y0011889D02*
X0069348D01*
X0069570Y0012111D01*
Y0012167D01*
X0069542Y0012222D01*
X0069375D01*
X0069348Y0012167D01*
X0069160Y0012000D02*
X0068938D01*
X0069160Y0011889D02*
Y0012055D01*
X0069077Y0012222D01*
X0069021D01*
X0068938Y0012055D01*
Y0011889D01*
X0068555D02*
Y0012222D01*
X0068528Y0011889D02*
X0068694D01*
X0068750Y0012000D01*
Y0012111D01*
X0068694Y0012222D01*
X0068528D01*
X0069924Y0015889D02*
X0069813D01*
X0069869D02*
Y0016222D01*
X0069813Y0016167D01*
X0069431Y0015889D02*
X0069375Y0015944D01*
X0069348Y0016000D01*
Y0016111D01*
X0069375Y0016167D01*
X0069431Y0016222D01*
X0069487D01*
X0069542Y0016167D01*
X0069570Y0016111D01*
Y0016000D01*
X0069542Y0015944D01*
X0069487Y0015889D01*
X0069431D01*
X0069160Y0016000D02*
X0068938D01*
X0069160Y0015889D02*
Y0016055D01*
X0069077Y0016222D01*
X0069021D01*
X0068938Y0016055D01*
Y0015889D01*
X0068555D02*
Y0016222D01*
X0068528Y0015889D02*
X0068694D01*
X0068750Y0016000D01*
Y0016111D01*
X0068694Y0016222D01*
X0068528D01*
X0069570Y0019889D02*
X0069348D01*
X0069570Y0020111D01*
Y0020167D01*
X0069542Y0020222D01*
X0069375D01*
X0069348Y0020167D01*
X0068965Y0019889D02*
Y0020222D01*
X0068938Y0019889D02*
X0069104D01*
X0069160Y0020000D01*
Y0020111D01*
X0069104Y0020222D01*
X0068938D01*
X0068750Y0020000D02*
X0068528D01*
X0068750Y0019889D02*
Y0020055D01*
X0068667Y0020222D01*
X0068611D01*
X0068528Y0020055D01*
Y0019889D01*
X0069924Y0023889D02*
X0069813D01*
X0069869D02*
Y0024222D01*
X0069813Y0024167D01*
X0069431Y0023889D02*
X0069375Y0023944D01*
X0069348Y0024000D01*
Y0024111D01*
X0069375Y0024167D01*
X0069431Y0024222D01*
X0069487D01*
X0069542Y0024167D01*
X0069570Y0024111D01*
Y0024000D01*
X0069542Y0023944D01*
X0069487Y0023889D01*
X0069431D01*
X0068965D02*
Y0024222D01*
X0068938Y0023889D02*
X0069104D01*
X0069160Y0024000D01*
Y0024111D01*
X0069104Y0024222D01*
X0068938D01*
X0068750Y0024000D02*
X0068528D01*
X0068750Y0023889D02*
Y0024055D01*
X0068667Y0024222D01*
X0068611D01*
X0068528Y0024055D01*
Y0023889D01*
X0069278Y0025493D02*
X0069611D01*
X0069278Y0025521D02*
Y0025354D01*
X0069389Y0025299D01*
X0069500D01*
X0069611Y0025354D01*
Y0025521D01*
Y0025709D02*
X0069278D01*
X0069333Y0025764D01*
X0069555Y0025875D01*
X0069611Y0025931D01*
X0069278D01*
X0069444Y0026230D02*
Y0026119D01*
X0069333D01*
X0069278Y0026147D01*
Y0026313D01*
X0069333Y0026341D01*
X0069555D01*
X0069611Y0026313D01*
Y0026147D01*
X0069555Y0026119D01*
X0068278Y0025737D02*
X0068611Y0025903D01*
Y0025737D02*
X0068278Y0025903D01*
X0068444Y0026202D02*
X0068278Y0026119D01*
X0068444Y0026341D02*
Y0026174D01*
X0068500Y0026119D01*
X0068555D01*
X0068611Y0026174D01*
Y0026341D01*
X0068278D01*
X0010864Y0016775D02*
X0010620D01*
X0010742Y0017019D01*
X0010803D01*
Y0016653D01*
X0010185Y0016714D02*
X0010246Y0016653D01*
X0010368D01*
X0010429Y0016714D01*
Y0016775D01*
X0010307Y0016897D01*
X0010429Y0017019D01*
X0010185D01*
X0009780Y0016775D02*
Y0016714D01*
X0009811Y0016653D01*
X0009933D01*
X0009964Y0016714D01*
Y0017019D01*
X0009994D02*
X0009872D01*
X0002620Y0035964D02*
X0002650Y0035903D01*
X0002834D01*
X0002864Y0035964D01*
Y0036086D01*
X0002803Y0036147D01*
X0002620D01*
Y0036269D01*
X0002864D01*
X0002429Y0035903D02*
X0002185D01*
X0002429Y0036147D01*
Y0036208D01*
X0002399Y0036269D01*
X0002215D01*
X0002185Y0036208D01*
X0001780Y0036025D02*
Y0035964D01*
X0001811Y0035903D01*
X0001933D01*
X0001964Y0035964D01*
Y0036269D01*
X0001994D02*
X0001872D01*
X0051313Y0003433D02*
X0051202D01*
X0051258D02*
Y0003766D01*
X0051202Y0003710D01*
X0050959Y0003433D02*
X0050848D01*
X0050903D02*
Y0003766D01*
X0050848Y0003710D01*
X0050604Y0003488D02*
X0050577Y0003433D01*
X0050410D01*
X0050382Y0003488D01*
Y0003710D01*
X0050410Y0003766D01*
X0050577D01*
X0050604Y0003710D01*
X0013692Y0001480D02*
X0013637Y0001424D01*
X0013581Y0001396D01*
X0013470D01*
X0013414Y0001424D01*
X0013359Y0001480D01*
Y0001535D01*
X0013414Y0001591D01*
X0013470Y0001619D01*
X0013581D01*
X0013637Y0001591D01*
X0013692Y0001535D01*
Y0001480D01*
Y0001209D02*
Y0001098D01*
Y0001153D02*
X0013359D01*
X0013414Y0001098D01*
X0013526Y0000771D02*
X0013692Y0000854D01*
X0013526Y0000632D02*
Y0000799D01*
X0013470Y0000854D01*
X0013414D01*
X0013359Y0000799D01*
Y0000632D01*
X0013692D01*
X0062880Y0037925D02*
X0062714D01*
X0062686Y0037980D01*
Y0038036D01*
X0062714Y0038092D01*
X0062880D01*
X0062908Y0038036D01*
Y0037980D01*
X0062797Y0037758D01*
X0062498D02*
X0062387D01*
X0062443D02*
Y0038092D01*
X0062387Y0038036D01*
X0062144Y0038092D02*
Y0037814D01*
X0062116Y0037758D01*
X0061949D01*
X0061921Y0037814D01*
Y0038092D01*
X0051243Y0021275D02*
X0051299Y0021220D01*
X0051410D01*
X0051465Y0021275D01*
Y0021331D01*
X0051354Y0021442D01*
X0051465Y0021553D01*
X0051243D01*
X0050833Y0021275D02*
X0050889Y0021220D01*
X0051000D01*
X0051055Y0021275D01*
Y0021331D01*
X0050944Y0021442D01*
X0051055Y0021553D01*
X0050833D01*
X0050562Y0021387D02*
X0050645Y0021220D01*
X0050423Y0021387D02*
X0050590D01*
X0050645Y0021442D01*
Y0021498D01*
X0050590Y0021553D01*
X0050423D01*
Y0021220D01*
X0018308Y0013492D02*
X0018641Y0013325D01*
Y0013548D01*
X0018474Y0013763D02*
Y0013930D01*
X0018530Y0013958D01*
X0018585D01*
X0018641Y0013930D01*
Y0013763D01*
X0018585Y0013735D01*
X0018530D01*
X0018308Y0013847D01*
X0018474Y0014229D02*
X0018308Y0014145D01*
X0018474Y0014368D02*
Y0014201D01*
X0018530Y0014145D01*
X0018585D01*
X0018641Y0014201D01*
Y0014368D01*
X0018308D01*
X0058743Y0016275D02*
X0058799Y0016220D01*
X0058910D01*
X0058965Y0016275D01*
Y0016331D01*
X0058854Y0016442D01*
X0058965Y0016553D01*
X0058743D01*
X0058528Y0016387D02*
X0058555Y0016442D01*
Y0016498D01*
X0058528Y0016553D01*
X0058361D01*
X0058333Y0016498D01*
Y0016442D01*
X0058361Y0016387D01*
X0058528D01*
X0058555Y0016331D01*
Y0016275D01*
X0058528Y0016220D01*
X0058361D01*
X0058333Y0016275D01*
Y0016331D01*
X0058361Y0016387D01*
X0058062D02*
X0058145Y0016220D01*
X0057923Y0016387D02*
X0058090D01*
X0058145Y0016442D01*
Y0016498D01*
X0058090Y0016553D01*
X0057923D01*
Y0016220D01*
X0047638Y0043035D02*
X0047583Y0043007D01*
Y0042840D01*
X0047638Y0042812D01*
X0047749D01*
X0047805Y0042868D01*
Y0043035D01*
X0047916D01*
Y0042812D01*
X0047694Y0043417D02*
X0047638D01*
X0047583Y0043389D01*
Y0043278D01*
X0047638Y0043250D01*
X0047916D01*
Y0043222D02*
Y0043333D01*
X0048332Y0043694D02*
Y0043805D01*
Y0043750D02*
X0048666D01*
X0048610Y0043805D01*
X0048444Y0039139D02*
Y0039361D01*
X0048666Y0039250D01*
Y0039194D01*
X0048332D01*
X0031660Y0037470D02*
X0031549D01*
X0031604D02*
Y0037803D01*
X0031549Y0037748D01*
X0031111Y0037637D02*
X0031278D01*
X0031305Y0037581D01*
Y0037525D01*
X0031278Y0037470D01*
X0031111D01*
X0031083Y0037525D01*
Y0037581D01*
X0031194Y0037803D01*
X0030812Y0037637D02*
X0030895Y0037470D01*
X0030673Y0037637D02*
X0030840D01*
X0030895Y0037692D01*
Y0037748D01*
X0030840Y0037803D01*
X0030673D01*
Y0037470D01*
X0054660Y0025970D02*
X0054549D01*
X0054604D02*
Y0026303D01*
X0054549Y0026248D01*
X0054305Y0026081D02*
X0054083D01*
X0054194Y0026303D01*
X0054250D01*
Y0025970D01*
X0053812Y0026137D02*
X0053895Y0025970D01*
X0053673Y0026137D02*
X0053840D01*
X0053895Y0026192D01*
Y0026248D01*
X0053840Y0026303D01*
X0053673D01*
Y0025970D01*
X0049965Y0010331D02*
X0049743D01*
X0049854Y0010553D01*
X0049910D01*
Y0010220D01*
X0049389D02*
X0049555Y0010553D01*
X0049333D01*
X0049062Y0010387D02*
X0049145Y0010220D01*
X0048923Y0010387D02*
X0049090D01*
X0049145Y0010442D01*
Y0010498D01*
X0049090Y0010553D01*
X0048923D01*
Y0010220D01*
X0059369Y0005544D02*
X0059146D01*
X0059258Y0005766D01*
X0059313D01*
Y0005433D01*
X0058959D02*
X0058848D01*
X0058903D02*
Y0005766D01*
X0058848Y0005710D01*
X0058604Y0005488D02*
X0058577Y0005433D01*
X0058410D01*
X0058382Y0005488D01*
Y0005710D01*
X0058410Y0005766D01*
X0058577D01*
X0058604Y0005710D01*
X0038102Y0007258D02*
X0037991D01*
X0038047D02*
Y0007592D01*
X0037991Y0007536D01*
X0037748Y0007258D02*
X0037637D01*
X0037693D02*
Y0007592D01*
X0037637Y0007536D01*
X0037394Y0007592D02*
Y0007314D01*
X0037366Y0007258D01*
X0037199D01*
X0037171Y0007314D01*
Y0007592D01*
X0058674Y0035669D02*
X0058452D01*
X0058563Y0035891D01*
X0058619D01*
Y0035558D01*
X0058237Y0035724D02*
X0058070D01*
X0058042Y0035780D01*
Y0035835D01*
X0058070Y0035891D01*
X0058237D01*
X0058264Y0035835D01*
Y0035780D01*
X0058153Y0035558D01*
X0057771Y0035724D02*
X0057854Y0035558D01*
X0057632Y0035724D02*
X0057799D01*
X0057854Y0035780D01*
Y0035835D01*
X0057799Y0035891D01*
X0057632D01*
Y0035558D01*
X0008526Y0001070D02*
Y0001237D01*
X0008581Y0001264D01*
X0008637D01*
X0008692Y0001237D01*
Y0001070D01*
X0008637Y0001042D01*
X0008581D01*
X0008359Y0001153D01*
X0008526Y0000771D02*
X0008692Y0000854D01*
X0008526Y0000632D02*
Y0000799D01*
X0008470Y0000854D01*
X0008414D01*
X0008359Y0000799D01*
Y0000632D01*
X0008692D01*
X0007637Y0001042D02*
X0007692Y0001070D01*
Y0001237D01*
X0007637Y0001264D01*
X0007526D01*
X0007470Y0001209D01*
Y0001042D01*
X0007359D01*
Y0001264D01*
X0007526Y0000771D02*
X0007692Y0000854D01*
X0007526Y0000632D02*
Y0000799D01*
X0007470Y0000854D01*
X0007414D01*
X0007359Y0000799D01*
Y0000632D01*
X0007692D01*
X0014617Y0010625D02*
X0014884D01*
X0014751Y0010758D02*
Y0010492D01*
X0013692Y0011494D02*
Y0011383D01*
Y0011438D02*
X0013359D01*
X0013414Y0011383D01*
X0013692Y0011139D02*
Y0010917D01*
X0013470Y0011139D01*
X0013414D01*
X0013359Y0011112D01*
Y0010945D01*
X0013414Y0010917D01*
X0013637Y0010729D02*
X0013692Y0010702D01*
Y0010535D01*
X0013637Y0010507D01*
X0013414D01*
X0013359Y0010535D01*
Y0010702D01*
X0013414Y0010729D01*
X0053991Y0028508D02*
X0054158Y0028842D01*
X0053936D01*
X0053748Y0028508D02*
X0053637D01*
X0053693D02*
Y0028842D01*
X0053637Y0028786D01*
X0053394Y0028842D02*
Y0028564D01*
X0053366Y0028508D01*
X0053199D01*
X0053171Y0028564D01*
Y0028842D01*
X0044769Y0037758D02*
X0044714Y0037814D01*
X0044686Y0037869D01*
Y0037980D01*
X0044714Y0038036D01*
X0044769Y0038092D01*
X0044825D01*
X0044880Y0038036D01*
X0044908Y0037980D01*
Y0037869D01*
X0044880Y0037814D01*
X0044825Y0037758D01*
X0044769D01*
X0044498D02*
X0044387D01*
X0044443D02*
Y0038092D01*
X0044387Y0038036D01*
X0044144Y0038092D02*
Y0037814D01*
X0044116Y0037758D01*
X0043949D01*
X0043921Y0037814D01*
Y0038092D01*
X0031938Y0012387D02*
X0031771D01*
X0031743Y0012442D01*
Y0012498D01*
X0031771Y0012553D01*
X0031938D01*
X0031965Y0012498D01*
Y0012442D01*
X0031854Y0012220D01*
X0031333Y0012275D02*
X0031389Y0012220D01*
X0031500D01*
X0031555Y0012275D01*
Y0012331D01*
X0031444Y0012442D01*
X0031555Y0012553D01*
X0031333D01*
X0031062Y0012387D02*
X0031145Y0012220D01*
X0030923Y0012387D02*
X0031090D01*
X0031145Y0012442D01*
Y0012498D01*
X0031090Y0012553D01*
X0030923D01*
Y0012220D01*
X0013347Y0035711D02*
X0013286Y0035650D01*
X0013225Y0035620D01*
X0013103D01*
X0013042Y0035650D01*
X0012981Y0035711D01*
Y0035773D01*
X0013042Y0035834D01*
X0013103Y0035864D01*
X0013225D01*
X0013286Y0035834D01*
X0013347Y0035773D01*
Y0035711D01*
X0013286Y0035185D02*
X0013347Y0035246D01*
Y0035368D01*
X0013286Y0035429D01*
X0013225D01*
X0013103Y0035307D01*
X0012981Y0035429D01*
Y0035185D01*
X0013225Y0034780D02*
X0013286D01*
X0013347Y0034811D01*
Y0034933D01*
X0013286Y0034964D01*
X0012981D01*
Y0034994D02*
Y0034872D01*
X0059174Y0004599D02*
X0059341D01*
X0059369Y0004544D01*
Y0004488D01*
X0059341Y0004433D01*
X0059174D01*
X0059146Y0004488D01*
Y0004544D01*
X0059258Y0004766D01*
X0058959Y0004433D02*
X0058848D01*
X0058903D02*
Y0004766D01*
X0058848Y0004710D01*
X0058604Y0004488D02*
X0058577Y0004433D01*
X0058410D01*
X0058382Y0004488D01*
Y0004710D01*
X0058410Y0004766D01*
X0058577D01*
X0058604Y0004710D01*
X0007749Y0042840D02*
Y0043007D01*
X0007805Y0043035D01*
X0007860D01*
X0007916Y0043007D01*
Y0042840D01*
X0007860Y0042812D01*
X0007805D01*
X0007583Y0042923D01*
X0007694Y0043417D02*
X0007638D01*
X0007583Y0043389D01*
Y0043278D01*
X0007638Y0043250D01*
X0007916D01*
Y0043222D02*
Y0043333D01*
X0008332Y0043694D02*
Y0043805D01*
Y0043750D02*
X0008666D01*
X0008610Y0043805D01*
X0008499Y0037333D02*
Y0037167D01*
X0008444Y0037139D01*
X0008388D01*
X0008332Y0037167D01*
Y0037333D01*
X0008388Y0037361D01*
X0008444D01*
X0008666Y0037250D01*
X0049674Y0035558D02*
X0049452D01*
X0049674Y0035780D01*
Y0035835D01*
X0049647Y0035891D01*
X0049480D01*
X0049452Y0035835D01*
X0049237Y0035724D02*
X0049264Y0035780D01*
Y0035835D01*
X0049237Y0035891D01*
X0049070D01*
X0049042Y0035835D01*
Y0035780D01*
X0049070Y0035724D01*
X0049237D01*
X0049264Y0035669D01*
Y0035613D01*
X0049237Y0035558D01*
X0049070D01*
X0049042Y0035613D01*
Y0035669D01*
X0049070Y0035724D01*
X0048771D02*
X0048854Y0035558D01*
X0048632Y0035724D02*
X0048799D01*
X0048854Y0035780D01*
Y0035835D01*
X0048799Y0035891D01*
X0048632D01*
Y0035558D01*
X0046658Y0007369D02*
X0046436D01*
X0046547Y0007592D01*
X0046602D01*
Y0007258D01*
X0046248D02*
X0046137D01*
X0046193D02*
Y0007592D01*
X0046137Y0007536D01*
X0045894Y0007592D02*
Y0007314D01*
X0045866Y0007258D01*
X0045699D01*
X0045671Y0007314D01*
Y0007592D01*
X0065438Y0025387D02*
X0065465Y0025442D01*
Y0025498D01*
X0065438Y0025553D01*
X0065271D01*
X0065243Y0025498D01*
Y0025442D01*
X0065271Y0025387D01*
X0065438D01*
X0065465Y0025331D01*
Y0025275D01*
X0065438Y0025220D01*
X0065271D01*
X0065243Y0025275D01*
Y0025331D01*
X0065271Y0025387D01*
X0064833Y0025275D02*
X0064889Y0025220D01*
X0065000D01*
X0065055Y0025275D01*
Y0025331D01*
X0064944Y0025442D01*
X0065055Y0025553D01*
X0064833D01*
X0064562Y0025387D02*
X0064645Y0025220D01*
X0064423Y0025387D02*
X0064590D01*
X0064645Y0025442D01*
Y0025498D01*
X0064590Y0025553D01*
X0064423D01*
Y0025220D01*
X0006581Y0001264D02*
Y0001042D01*
X0006359Y0001153D01*
Y0001209D01*
X0006692D01*
X0006526Y0000771D02*
X0006692Y0000854D01*
X0006526Y0000632D02*
Y0000799D01*
X0006470Y0000854D01*
X0006414D01*
X0006359Y0000799D01*
Y0000632D01*
X0006692D01*
X0035583Y0042597D02*
X0035638Y0042652D01*
X0035694Y0042680D01*
X0035805D01*
X0035860Y0042652D01*
X0035916Y0042597D01*
Y0042541D01*
X0035860Y0042486D01*
X0035805Y0042458D01*
X0035694D01*
X0035638Y0042486D01*
X0035583Y0042541D01*
Y0042597D01*
Y0042868D02*
Y0042979D01*
Y0042923D02*
X0035916D01*
X0035860Y0042979D01*
X0035694Y0043417D02*
X0035638D01*
X0035583Y0043389D01*
Y0043278D01*
X0035638Y0043250D01*
X0035916D01*
Y0043222D02*
Y0043333D01*
X0036332Y0043694D02*
Y0043805D01*
Y0043750D02*
X0036666D01*
X0036610Y0043805D01*
X0036444Y0039139D02*
Y0039361D01*
X0036666Y0039250D01*
Y0039194D01*
X0036332D01*
X0040660Y0037470D02*
X0040549D01*
X0040604D02*
Y0037803D01*
X0040549Y0037748D01*
X0040139Y0037470D02*
X0040305Y0037803D01*
X0040083D01*
X0039812Y0037637D02*
X0039895Y0037470D01*
X0039673Y0037637D02*
X0039840D01*
X0039895Y0037692D01*
Y0037748D01*
X0039840Y0037803D01*
X0039673D01*
Y0037470D01*
X0031799Y0016220D02*
X0031965Y0016553D01*
X0031743D01*
X0031333Y0016275D02*
X0031389Y0016220D01*
X0031500D01*
X0031555Y0016275D01*
Y0016331D01*
X0031444Y0016442D01*
X0031555Y0016553D01*
X0031333D01*
X0031062Y0016387D02*
X0031145Y0016220D01*
X0030923Y0016387D02*
X0031090D01*
X0031145Y0016442D01*
Y0016498D01*
X0031090Y0016553D01*
X0030923D01*
Y0016220D01*
X0040535Y0031058D02*
X0040480Y0031113D01*
X0040452Y0031169D01*
Y0031280D01*
X0040480Y0031335D01*
X0040535Y0031391D01*
X0040591D01*
X0040647Y0031335D01*
X0040674Y0031280D01*
Y0031169D01*
X0040647Y0031113D01*
X0040591Y0031058D01*
X0040535D01*
X0040237Y0031224D02*
X0040264Y0031280D01*
Y0031335D01*
X0040237Y0031391D01*
X0040070D01*
X0040042Y0031335D01*
Y0031280D01*
X0040070Y0031224D01*
X0040237D01*
X0040264Y0031169D01*
Y0031113D01*
X0040237Y0031058D01*
X0040070D01*
X0040042Y0031113D01*
Y0031169D01*
X0040070Y0031224D01*
X0039771D02*
X0039854Y0031058D01*
X0039632Y0031224D02*
X0039799D01*
X0039854Y0031280D01*
Y0031335D01*
X0039799Y0031391D01*
X0039632D01*
Y0031058D01*
X0022526Y0001591D02*
X0022470Y0001619D01*
X0022414D01*
X0022359Y0001591D01*
Y0001424D01*
X0022414Y0001396D01*
X0022470D01*
X0022526Y0001424D01*
Y0001591D01*
X0022581Y0001619D01*
X0022637D01*
X0022692Y0001591D01*
Y0001424D01*
X0022637Y0001396D01*
X0022581D01*
X0022526Y0001424D01*
X0022692Y0001209D02*
Y0001098D01*
Y0001153D02*
X0022359D01*
X0022414Y0001098D01*
X0022526Y0000771D02*
X0022692Y0000854D01*
X0022526Y0000632D02*
Y0000799D01*
X0022470Y0000854D01*
X0022414D01*
X0022359Y0000799D01*
Y0000632D01*
X0022692D01*
X0058493Y0033025D02*
X0058521Y0032970D01*
X0058688D01*
X0058715Y0033025D01*
Y0033137D01*
X0058660Y0033192D01*
X0058493D01*
Y0033303D01*
X0058715D01*
X0058278Y0033137D02*
X0058111D01*
X0058083Y0033192D01*
Y0033248D01*
X0058111Y0033303D01*
X0058278D01*
X0058305Y0033248D01*
Y0033192D01*
X0058194Y0032970D01*
X0057812Y0033137D02*
X0057895Y0032970D01*
X0057673Y0033137D02*
X0057840D01*
X0057895Y0033192D01*
Y0033248D01*
X0057840Y0033303D01*
X0057673D01*
Y0032970D01*
X0040702Y0009363D02*
X0040730Y0009308D01*
X0040897D01*
X0040924Y0009363D01*
Y0009474D01*
X0040869Y0009530D01*
X0040702D01*
Y0009641D01*
X0040924D01*
X0040320Y0009474D02*
X0040487D01*
X0040514Y0009419D01*
Y0009363D01*
X0040487Y0009308D01*
X0040320D01*
X0040292Y0009363D01*
Y0009419D01*
X0040403Y0009641D01*
X0040021Y0009474D02*
X0040104Y0009308D01*
X0039882Y0009474D02*
X0040049D01*
X0040104Y0009530D01*
Y0009585D01*
X0040049Y0009641D01*
X0039882D01*
Y0009308D01*
X0065271Y0019387D02*
X0065438D01*
X0065465Y0019331D01*
Y0019275D01*
X0065438Y0019220D01*
X0065271D01*
X0065243Y0019275D01*
Y0019331D01*
X0065354Y0019553D01*
X0064833Y0019275D02*
X0064861Y0019220D01*
X0065028D01*
X0065055Y0019275D01*
Y0019387D01*
X0065000Y0019442D01*
X0064833D01*
Y0019553D01*
X0065055D01*
X0064562Y0019387D02*
X0064645Y0019220D01*
X0064423Y0019387D02*
X0064590D01*
X0064645Y0019442D01*
Y0019498D01*
X0064590Y0019553D01*
X0064423D01*
Y0019220D01*
X0031647Y0031224D02*
X0031674Y0031280D01*
Y0031335D01*
X0031647Y0031391D01*
X0031480D01*
X0031452Y0031335D01*
Y0031280D01*
X0031480Y0031224D01*
X0031647D01*
X0031674Y0031169D01*
Y0031113D01*
X0031647Y0031058D01*
X0031480D01*
X0031452Y0031113D01*
Y0031169D01*
X0031480Y0031224D01*
X0031070D02*
X0031237D01*
X0031264Y0031169D01*
Y0031113D01*
X0031237Y0031058D01*
X0031070D01*
X0031042Y0031113D01*
Y0031169D01*
X0031153Y0031391D01*
X0030771Y0031224D02*
X0030854Y0031058D01*
X0030632Y0031224D02*
X0030799D01*
X0030854Y0031280D01*
Y0031335D01*
X0030799Y0031391D01*
X0030632D01*
Y0031058D01*
X0019583Y0042541D02*
X0019638Y0042597D01*
X0019694Y0042625D01*
X0019805D01*
X0019860Y0042597D01*
X0019916Y0042541D01*
Y0042486D01*
X0019860Y0042430D01*
X0019805Y0042402D01*
X0019694D01*
X0019638Y0042430D01*
X0019583Y0042486D01*
Y0042541D01*
Y0042812D02*
Y0043035D01*
X0019805Y0042812D01*
X0019860D01*
X0019916Y0042840D01*
Y0043007D01*
X0019860Y0043035D01*
X0019694Y0043417D02*
X0019638D01*
X0019583Y0043389D01*
Y0043278D01*
X0019638Y0043250D01*
X0019916D01*
Y0043222D02*
Y0043333D01*
X0020332Y0043694D02*
Y0043805D01*
Y0043750D02*
X0020666D01*
X0020610Y0043805D01*
X0020499Y0037333D02*
Y0037167D01*
X0020444Y0037139D01*
X0020388D01*
X0020332Y0037167D01*
Y0037333D01*
X0020388Y0037361D01*
X0020444D01*
X0020666Y0037250D01*
X0031785Y0015308D02*
X0031730Y0015363D01*
X0031702Y0015419D01*
Y0015530D01*
X0031730Y0015585D01*
X0031785Y0015641D01*
X0031841D01*
X0031897Y0015585D01*
X0031924Y0015530D01*
Y0015419D01*
X0031897Y0015363D01*
X0031841Y0015308D01*
X0031785D01*
X0031292Y0015363D02*
X0031320Y0015308D01*
X0031487D01*
X0031514Y0015363D01*
Y0015474D01*
X0031459Y0015530D01*
X0031292D01*
Y0015641D01*
X0031514D01*
X0031021Y0015474D02*
X0031104Y0015308D01*
X0030882Y0015474D02*
X0031049D01*
X0031104Y0015530D01*
Y0015585D01*
X0031049Y0015641D01*
X0030882D01*
Y0015308D01*
X0019286Y0035620D02*
X0019347Y0035681D01*
Y0035803D01*
X0019286Y0035864D01*
X0019225D01*
X0019103Y0035742D01*
X0018981Y0035864D01*
Y0035620D01*
X0019286Y0035185D02*
X0019347Y0035246D01*
Y0035368D01*
X0019286Y0035429D01*
X0019225D01*
X0019103Y0035307D01*
X0018981Y0035429D01*
Y0035185D01*
X0019225Y0034780D02*
X0019286D01*
X0019347Y0034811D01*
Y0034933D01*
X0019286Y0034964D01*
X0018981D01*
Y0034994D02*
Y0034872D01*
X0067847Y0011999D02*
X0068014D01*
X0068042Y0011944D01*
Y0011888D01*
X0068014Y0011833D01*
X0067847D01*
X0067820Y0011888D01*
Y0011944D01*
X0067931Y0012166D01*
X0067632Y0011833D02*
X0067521D01*
X0067576D02*
Y0012166D01*
X0067521Y0012110D01*
X0067083Y0011944D02*
Y0011888D01*
X0067111Y0011833D01*
X0067222D01*
X0067250Y0011888D01*
Y0012166D01*
X0067278D02*
X0067166D01*
X0066805Y0010832D02*
X0066694D01*
X0066750D02*
Y0011166D01*
X0066694Y0011110D01*
X0071361Y0010944D02*
X0071139D01*
X0071250Y0011166D01*
X0071305D01*
Y0010832D01*
X0031702Y0009363D02*
X0031758Y0009308D01*
X0031869D01*
X0031924Y0009363D01*
Y0009419D01*
X0031813Y0009530D01*
X0031924Y0009641D01*
X0031702D01*
X0031320Y0009474D02*
X0031487D01*
X0031514Y0009419D01*
Y0009363D01*
X0031487Y0009308D01*
X0031320D01*
X0031292Y0009363D01*
Y0009419D01*
X0031403Y0009641D01*
X0031021Y0009474D02*
X0031104Y0009308D01*
X0030882Y0009474D02*
X0031049D01*
X0031104Y0009530D01*
Y0009585D01*
X0031049Y0009641D01*
X0030882D01*
Y0009308D01*
X0059583Y0042514D02*
Y0042625D01*
Y0042569D02*
X0059916D01*
X0059860Y0042625D01*
X0059583Y0042868D02*
Y0042979D01*
Y0042923D02*
X0059916D01*
X0059860Y0042979D01*
X0059694Y0043417D02*
X0059638D01*
X0059583Y0043389D01*
Y0043278D01*
X0059638Y0043250D01*
X0059916D01*
Y0043222D02*
Y0043333D01*
X0060332Y0043694D02*
Y0043805D01*
Y0043750D02*
X0060666D01*
X0060610Y0043805D01*
X0060444Y0039139D02*
Y0039361D01*
X0060666Y0039250D01*
Y0039194D01*
X0060332D01*
X0044873Y0027219D02*
X0044629D01*
X0044751Y0027463D01*
X0044812D01*
Y0027096D01*
X0044438Y0027463D02*
Y0027158D01*
X0044407Y0027096D01*
X0044224D01*
X0044194Y0027158D01*
Y0027463D01*
X0049743Y0014275D02*
X0049799Y0014220D01*
X0049910D01*
X0049965Y0014275D01*
Y0014331D01*
X0049854Y0014442D01*
X0049965Y0014553D01*
X0049743D01*
X0049389Y0014220D02*
X0049555Y0014553D01*
X0049333D01*
X0049062Y0014387D02*
X0049145Y0014220D01*
X0048923Y0014387D02*
X0049090D01*
X0049145Y0014442D01*
Y0014498D01*
X0049090Y0014553D01*
X0048923D01*
Y0014220D01*
X0062814Y0017480D02*
X0062980D01*
X0063008Y0017424D01*
Y0017369D01*
X0062980Y0017313D01*
X0062814D01*
X0062786Y0017369D01*
Y0017424D01*
X0062897Y0017647D01*
X0062598Y0017313D02*
X0062487D01*
X0062543D02*
Y0017647D01*
X0062487Y0017591D01*
X0062244Y0017647D02*
Y0017369D01*
X0062216Y0017313D01*
X0062049D01*
X0062021Y0017369D01*
Y0017647D01*
X0031749Y0043007D02*
Y0042840D01*
X0031694Y0042812D01*
X0031638D01*
X0031583Y0042840D01*
Y0043007D01*
X0031638Y0043035D01*
X0031694D01*
X0031916Y0042923D01*
X0031694Y0043417D02*
X0031638D01*
X0031583Y0043389D01*
Y0043278D01*
X0031638Y0043250D01*
X0031916D01*
Y0043222D02*
Y0043333D01*
X0032332Y0043694D02*
Y0043805D01*
Y0043750D02*
X0032666D01*
X0032610Y0043805D01*
X0032444Y0039139D02*
Y0039361D01*
X0032666Y0039250D01*
Y0039194D01*
X0032332D01*
X0058869Y0013308D02*
X0058758D01*
X0058813D02*
Y0013641D01*
X0058758Y0013585D01*
X0058487Y0013474D02*
X0058320D01*
X0058292Y0013530D01*
Y0013585D01*
X0058320Y0013641D01*
X0058487D01*
X0058514Y0013585D01*
Y0013530D01*
X0058403Y0013308D01*
X0058021Y0013474D02*
X0058104Y0013308D01*
X0057882Y0013474D02*
X0058049D01*
X0058104Y0013530D01*
Y0013585D01*
X0058049Y0013641D01*
X0057882D01*
Y0013308D01*
X0010070Y0034249D02*
X0009903D01*
X0009875Y0034305D01*
Y0034360D01*
X0009903Y0034416D01*
X0010070D01*
X0010098Y0034360D01*
Y0034305D01*
X0009986Y0034082D01*
X0009688D02*
X0009465D01*
X0009688Y0034305D01*
Y0034360D01*
X0009660Y0034416D01*
X0009493D01*
X0009465Y0034360D01*
X0009083Y0034194D02*
Y0034138D01*
X0009111Y0034082D01*
X0009222D01*
X0009250Y0034138D01*
Y0034416D01*
X0009278D02*
X0009166D01*
X0008634Y0032411D02*
X0008523D01*
X0008578D02*
Y0032744D01*
X0008523Y0032689D01*
X0008690Y0033175D02*
X0008467D01*
X0008690Y0033397D01*
Y0033453D01*
X0008662Y0033509D01*
X0008495D01*
X0008467Y0033453D01*
X0025856Y0032499D02*
X0025690D01*
X0025662Y0032555D01*
Y0032610D01*
X0025690Y0032666D01*
X0025856D01*
X0025884Y0032610D01*
Y0032555D01*
X0025773Y0032332D01*
X0025252Y0032388D02*
X0025307Y0032332D01*
X0025418D01*
X0025474Y0032388D01*
Y0032444D01*
X0025363Y0032555D01*
X0025474Y0032666D01*
X0025252D01*
X0025745Y0033175D02*
X0025690Y0033231D01*
X0025662Y0033286D01*
Y0033397D01*
X0025690Y0033453D01*
X0025745Y0033509D01*
X0025801D01*
X0025856Y0033453D01*
X0025884Y0033397D01*
Y0033286D01*
X0025856Y0033231D01*
X0025801Y0033175D01*
X0025745D01*
X0025474Y0033286D02*
X0025252D01*
X0025363Y0033509D01*
X0025418D01*
Y0033175D01*
X0042570Y0005599D02*
X0042737D01*
X0042764Y0005544D01*
Y0005488D01*
X0042737Y0005433D01*
X0042570D01*
X0042542Y0005488D01*
Y0005544D01*
X0042653Y0005766D01*
X0042354Y0005488D02*
X0042327Y0005433D01*
X0042160D01*
X0042132Y0005488D01*
Y0005710D01*
X0042160Y0005766D01*
X0042327D01*
X0042354Y0005710D01*
X0001264Y0032708D02*
Y0032930D01*
X0001486Y0032708D01*
X0001542D01*
X0001597Y0032736D01*
Y0032902D01*
X0001542Y0032930D01*
X0001264Y0033118D02*
Y0033340D01*
X0001486Y0033118D01*
X0001542D01*
X0001597Y0033146D01*
Y0033312D01*
X0001542Y0033340D01*
X0001375Y0033722D02*
X0001319D01*
X0001264Y0033694D01*
Y0033583D01*
X0001319Y0033556D01*
X0001597D01*
Y0033528D02*
Y0033639D01*
X0058480Y0031224D02*
X0058647D01*
X0058674Y0031169D01*
Y0031113D01*
X0058647Y0031058D01*
X0058480D01*
X0058452Y0031113D01*
Y0031169D01*
X0058563Y0031391D01*
X0058237Y0031224D02*
X0058070D01*
X0058042Y0031280D01*
Y0031335D01*
X0058070Y0031391D01*
X0058237D01*
X0058264Y0031335D01*
Y0031280D01*
X0058153Y0031058D01*
X0057771Y0031224D02*
X0057854Y0031058D01*
X0057632Y0031224D02*
X0057799D01*
X0057854Y0031280D01*
Y0031335D01*
X0057799Y0031391D01*
X0057632D01*
Y0031058D01*
X0011625Y0010382D02*
Y0010116D01*
X0011758Y0010249D02*
X0011492D01*
X0012410Y0011308D02*
X0012355Y0011363D01*
X0012327Y0011419D01*
Y0011530D01*
X0012355Y0011585D01*
X0012410Y0011641D01*
X0012466D01*
X0012522Y0011585D01*
X0012549Y0011530D01*
Y0011419D01*
X0012522Y0011363D01*
X0012466Y0011308D01*
X0012410D01*
X0012139D02*
X0011917D01*
X0012139Y0011530D01*
Y0011585D01*
X0012112Y0011641D01*
X0011945D01*
X0011917Y0011585D01*
X0011729Y0011363D02*
X0011702Y0011308D01*
X0011535D01*
X0011507Y0011363D01*
Y0011585D01*
X0011535Y0011641D01*
X0011702D01*
X0011729Y0011585D01*
X0040688Y0024137D02*
X0040521D01*
X0040493Y0024192D01*
Y0024248D01*
X0040521Y0024303D01*
X0040688D01*
X0040715Y0024248D01*
Y0024192D01*
X0040604Y0023970D01*
X0040305D02*
X0040083D01*
X0040305Y0024192D01*
Y0024248D01*
X0040278Y0024303D01*
X0040111D01*
X0040083Y0024248D01*
X0039812Y0024137D02*
X0039895Y0023970D01*
X0039673Y0024137D02*
X0039840D01*
X0039895Y0024192D01*
Y0024248D01*
X0039840Y0024303D01*
X0039673D01*
Y0023970D01*
X0016637Y0001396D02*
X0016692Y0001452D01*
Y0001563D01*
X0016637Y0001619D01*
X0016581D01*
X0016470Y0001508D01*
X0016359Y0001619D01*
Y0001396D01*
X0016692Y0001209D02*
Y0001098D01*
Y0001153D02*
X0016359D01*
X0016414Y0001098D01*
X0016526Y0000771D02*
X0016692Y0000854D01*
X0016526Y0000632D02*
Y0000799D01*
X0016470Y0000854D01*
X0016414D01*
X0016359Y0000799D01*
Y0000632D01*
X0016692D01*
X0039694Y0042458D02*
Y0042680D01*
X0039916Y0042569D01*
Y0042514D01*
X0039583D01*
Y0042868D02*
Y0042979D01*
Y0042923D02*
X0039916D01*
X0039860Y0042979D01*
X0039694Y0043417D02*
X0039638D01*
X0039583Y0043389D01*
Y0043278D01*
X0039638Y0043250D01*
X0039916D01*
Y0043222D02*
Y0043333D01*
X0040332Y0043694D02*
Y0043805D01*
Y0043750D02*
X0040666D01*
X0040610Y0043805D01*
X0040444Y0039139D02*
Y0039361D01*
X0040666Y0039250D01*
Y0039194D01*
X0040332D01*
X0018637Y0001396D02*
X0018692Y0001424D01*
Y0001591D01*
X0018637Y0001619D01*
X0018526D01*
X0018470Y0001563D01*
Y0001396D01*
X0018359D01*
Y0001619D01*
X0018692Y0001209D02*
Y0001098D01*
Y0001153D02*
X0018359D01*
X0018414Y0001098D01*
X0018526Y0000771D02*
X0018692Y0000854D01*
X0018526Y0000632D02*
Y0000799D01*
X0018470Y0000854D01*
X0018414D01*
X0018359Y0000799D01*
Y0000632D01*
X0018692D01*
X0042542Y0006488D02*
X0042570Y0006433D01*
X0042737D01*
X0042764Y0006488D01*
Y0006599D01*
X0042709Y0006655D01*
X0042542D01*
Y0006766D01*
X0042764D01*
X0042354Y0006488D02*
X0042327Y0006433D01*
X0042160D01*
X0042132Y0006488D01*
Y0006710D01*
X0042160Y0006766D01*
X0042327D01*
X0042354Y0006710D01*
X0058688Y0037637D02*
X0058521D01*
X0058493Y0037692D01*
Y0037748D01*
X0058521Y0037803D01*
X0058688D01*
X0058715Y0037748D01*
Y0037692D01*
X0058604Y0037470D01*
X0058278Y0037637D02*
X0058305Y0037692D01*
Y0037748D01*
X0058278Y0037803D01*
X0058111D01*
X0058083Y0037748D01*
Y0037692D01*
X0058111Y0037637D01*
X0058278D01*
X0058305Y0037581D01*
Y0037525D01*
X0058278Y0037470D01*
X0058111D01*
X0058083Y0037525D01*
Y0037581D01*
X0058111Y0037637D01*
X0057812D02*
X0057895Y0037470D01*
X0057673Y0037637D02*
X0057840D01*
X0057895Y0037692D01*
Y0037748D01*
X0057840Y0037803D01*
X0057673D01*
Y0037470D01*
X0002650Y0035086D02*
X0002834D01*
X0002864Y0035025D01*
Y0034964D01*
X0002834Y0034903D01*
X0002650D01*
X0002620Y0034964D01*
Y0035025D01*
X0002742Y0035269D01*
X0002429Y0034903D02*
X0002185D01*
X0002429Y0035147D01*
Y0035208D01*
X0002399Y0035269D01*
X0002215D01*
X0002185Y0035208D01*
X0001780Y0035025D02*
Y0034964D01*
X0001811Y0034903D01*
X0001933D01*
X0001964Y0034964D01*
Y0035269D01*
X0001994D02*
X0001872D01*
X0019526Y0001424D02*
Y0001591D01*
X0019581Y0001619D01*
X0019637D01*
X0019692Y0001591D01*
Y0001424D01*
X0019637Y0001396D01*
X0019581D01*
X0019359Y0001508D01*
X0019692Y0001209D02*
Y0001098D01*
Y0001153D02*
X0019359D01*
X0019414Y0001098D01*
X0019526Y0000771D02*
X0019692Y0000854D01*
X0019526Y0000632D02*
Y0000799D01*
X0019470Y0000854D01*
X0019414D01*
X0019359Y0000799D01*
Y0000632D01*
X0019692D01*
X0040715Y0021970D02*
X0040493D01*
X0040715Y0022192D01*
Y0022248D01*
X0040688Y0022303D01*
X0040521D01*
X0040493Y0022248D01*
X0040083Y0022025D02*
X0040139Y0021970D01*
X0040250D01*
X0040305Y0022025D01*
Y0022081D01*
X0040194Y0022192D01*
X0040305Y0022303D01*
X0040083D01*
X0039812Y0022137D02*
X0039895Y0021970D01*
X0039673Y0022137D02*
X0039840D01*
X0039895Y0022192D01*
Y0022248D01*
X0039840Y0022303D01*
X0039673D01*
Y0021970D01*
X0049897Y0011474D02*
X0049924Y0011530D01*
Y0011585D01*
X0049897Y0011641D01*
X0049730D01*
X0049702Y0011585D01*
Y0011530D01*
X0049730Y0011474D01*
X0049897D01*
X0049924Y0011419D01*
Y0011363D01*
X0049897Y0011308D01*
X0049730D01*
X0049702Y0011363D01*
Y0011419D01*
X0049730Y0011474D01*
X0049348Y0011308D02*
X0049514Y0011641D01*
X0049292D01*
X0049021Y0011474D02*
X0049104Y0011308D01*
X0048882Y0011474D02*
X0049049D01*
X0049104Y0011530D01*
Y0011585D01*
X0049049Y0011641D01*
X0048882D01*
Y0011308D01*
X0051271Y0019387D02*
X0051438D01*
X0051465Y0019331D01*
Y0019275D01*
X0051438Y0019220D01*
X0051271D01*
X0051243Y0019275D01*
Y0019331D01*
X0051354Y0019553D01*
X0050833Y0019275D02*
X0050889Y0019220D01*
X0051000D01*
X0051055Y0019275D01*
Y0019331D01*
X0050944Y0019442D01*
X0051055Y0019553D01*
X0050833D01*
X0050562Y0019387D02*
X0050645Y0019220D01*
X0050423Y0019387D02*
X0050590D01*
X0050645Y0019442D01*
Y0019498D01*
X0050590Y0019553D01*
X0050423D01*
Y0019220D01*
X0015625Y0010382D02*
Y0010116D01*
X0015758Y0010249D02*
X0015492D01*
X0016466Y0011474D02*
X0016494Y0011530D01*
Y0011585D01*
X0016466Y0011641D01*
X0016299D01*
X0016271Y0011585D01*
Y0011530D01*
X0016299Y0011474D01*
X0016466D01*
X0016494Y0011419D01*
Y0011363D01*
X0016466Y0011308D01*
X0016299D01*
X0016271Y0011363D01*
Y0011419D01*
X0016299Y0011474D01*
X0016084Y0011308D02*
X0015973D01*
X0016028D02*
Y0011641D01*
X0015973Y0011585D01*
X0015729Y0011363D02*
X0015702Y0011308D01*
X0015535D01*
X0015507Y0011363D01*
Y0011585D01*
X0015535Y0011641D01*
X0015702D01*
X0015729Y0011585D01*
X0005637Y0001042D02*
X0005692Y0001098D01*
Y0001209D01*
X0005637Y0001264D01*
X0005581D01*
X0005470Y0001153D01*
X0005359Y0001264D01*
Y0001042D01*
X0005526Y0000771D02*
X0005692Y0000854D01*
X0005526Y0000632D02*
Y0000799D01*
X0005470Y0000854D01*
X0005414D01*
X0005359Y0000799D01*
Y0000632D01*
X0005692D01*
X0031924Y0013308D02*
X0031702D01*
X0031924Y0013530D01*
Y0013585D01*
X0031897Y0013641D01*
X0031730D01*
X0031702Y0013585D01*
X0031320Y0013474D02*
X0031487D01*
X0031514Y0013419D01*
Y0013363D01*
X0031487Y0013308D01*
X0031320D01*
X0031292Y0013363D01*
Y0013419D01*
X0031403Y0013641D01*
X0031021Y0013474D02*
X0031104Y0013308D01*
X0030882Y0013474D02*
X0031049D01*
X0031104Y0013530D01*
Y0013585D01*
X0031049Y0013641D01*
X0030882D01*
Y0013308D01*
X0067749Y0042486D02*
Y0042652D01*
X0067805Y0042680D01*
X0067860D01*
X0067916Y0042652D01*
Y0042486D01*
X0067860Y0042458D01*
X0067805D01*
X0067583Y0042569D01*
Y0042868D02*
Y0042979D01*
Y0042923D02*
X0067916D01*
X0067860Y0042979D01*
X0067694Y0043417D02*
X0067638D01*
X0067583Y0043389D01*
Y0043278D01*
X0067638Y0043250D01*
X0067916D01*
Y0043222D02*
Y0043333D01*
X0068332Y0043694D02*
Y0043805D01*
Y0043750D02*
X0068666D01*
X0068610Y0043805D01*
X0068444Y0039139D02*
Y0039361D01*
X0068666Y0039250D01*
Y0039194D01*
X0068332D01*
X0016847Y0035864D02*
Y0035620D01*
X0016603Y0035864D01*
X0016542D01*
X0016481Y0035834D01*
Y0035650D01*
X0016542Y0035620D01*
X0016786Y0035185D02*
X0016847Y0035246D01*
Y0035368D01*
X0016786Y0035429D01*
X0016725D01*
X0016603Y0035307D01*
X0016481Y0035429D01*
Y0035185D01*
X0016725Y0034780D02*
X0016786D01*
X0016847Y0034811D01*
Y0034933D01*
X0016786Y0034964D01*
X0016481D01*
Y0034994D02*
Y0034872D01*
X0051271Y0026387D02*
X0051438D01*
X0051465Y0026331D01*
Y0026275D01*
X0051438Y0026220D01*
X0051271D01*
X0051243Y0026275D01*
Y0026331D01*
X0051354Y0026553D01*
X0051055Y0026220D02*
X0050833D01*
X0051055Y0026442D01*
Y0026498D01*
X0051028Y0026553D01*
X0050861D01*
X0050833Y0026498D01*
X0050562Y0026387D02*
X0050645Y0026220D01*
X0050423Y0026387D02*
X0050590D01*
X0050645Y0026442D01*
Y0026498D01*
X0050590Y0026553D01*
X0050423D01*
Y0026220D01*
X0055583Y0042979D02*
X0055916Y0042812D01*
Y0043035D01*
X0055694Y0043417D02*
X0055638D01*
X0055583Y0043389D01*
Y0043278D01*
X0055638Y0043250D01*
X0055916D01*
Y0043222D02*
Y0043333D01*
X0056332Y0043694D02*
Y0043805D01*
Y0043750D02*
X0056666D01*
X0056610Y0043805D01*
X0056444Y0039139D02*
Y0039361D01*
X0056666Y0039250D01*
Y0039194D01*
X0056332D01*
X0058758Y0014308D02*
X0058924Y0014641D01*
X0058702D01*
X0058487Y0014474D02*
X0058514Y0014530D01*
Y0014585D01*
X0058487Y0014641D01*
X0058320D01*
X0058292Y0014585D01*
Y0014530D01*
X0058320Y0014474D01*
X0058487D01*
X0058514Y0014419D01*
Y0014363D01*
X0058487Y0014308D01*
X0058320D01*
X0058292Y0014363D01*
Y0014419D01*
X0058320Y0014474D01*
X0058021D02*
X0058104Y0014308D01*
X0057882Y0014474D02*
X0058049D01*
X0058104Y0014530D01*
Y0014585D01*
X0058049Y0014641D01*
X0057882D01*
Y0014308D01*
X0027637Y0001452D02*
X0027692Y0001508D01*
Y0001619D01*
X0027637Y0001674D01*
X0027581D01*
X0027470Y0001563D01*
X0027359Y0001674D01*
Y0001452D01*
X0027692Y0001264D02*
Y0001042D01*
X0027470Y0001264D01*
X0027414D01*
X0027359Y0001237D01*
Y0001070D01*
X0027414Y0001042D01*
X0027526Y0000771D02*
X0027692Y0000854D01*
X0027526Y0000632D02*
Y0000799D01*
X0027470Y0000854D01*
X0027414D01*
X0027359Y0000799D01*
Y0000632D01*
X0027692D01*
X0015847Y0035803D02*
Y0035681D01*
Y0035742D02*
X0015481D01*
X0015542Y0035681D01*
X0015786Y0035185D02*
X0015847Y0035246D01*
Y0035368D01*
X0015786Y0035429D01*
X0015725D01*
X0015603Y0035307D01*
X0015481Y0035429D01*
Y0035185D01*
X0015725Y0034780D02*
X0015786D01*
X0015847Y0034811D01*
Y0034933D01*
X0015786Y0034964D01*
X0015481D01*
Y0034994D02*
Y0034872D01*
X0040493Y0020025D02*
X0040521Y0019970D01*
X0040688D01*
X0040715Y0020025D01*
Y0020137D01*
X0040660Y0020192D01*
X0040493D01*
Y0020303D01*
X0040715D01*
X0040083Y0020025D02*
X0040139Y0019970D01*
X0040250D01*
X0040305Y0020025D01*
Y0020081D01*
X0040194Y0020192D01*
X0040305Y0020303D01*
X0040083D01*
X0039812Y0020137D02*
X0039895Y0019970D01*
X0039673Y0020137D02*
X0039840D01*
X0039895Y0020192D01*
Y0020248D01*
X0039840Y0020303D01*
X0039673D01*
Y0019970D01*
X0040938Y0014387D02*
X0040771D01*
X0040743Y0014442D01*
Y0014498D01*
X0040771Y0014553D01*
X0040938D01*
X0040965Y0014498D01*
Y0014442D01*
X0040854Y0014220D01*
X0040333Y0014275D02*
X0040361Y0014220D01*
X0040528D01*
X0040555Y0014275D01*
Y0014387D01*
X0040500Y0014442D01*
X0040333D01*
Y0014553D01*
X0040555D01*
X0040062Y0014387D02*
X0040145Y0014220D01*
X0039923Y0014387D02*
X0040090D01*
X0040145Y0014442D01*
Y0014498D01*
X0040090Y0014553D01*
X0039923D01*
Y0014220D01*
X0068042Y0027833D02*
X0067931D01*
X0067986D02*
Y0028166D01*
X0067931Y0028110D01*
X0067688Y0027833D02*
X0067465D01*
X0067688Y0028055D01*
Y0028110D01*
X0067660Y0028166D01*
X0067493D01*
X0067465Y0028110D01*
X0067083Y0027944D02*
Y0027888D01*
X0067111Y0027833D01*
X0067222D01*
X0067250Y0027888D01*
Y0028166D01*
X0067278D02*
X0067166D01*
X0066805Y0026832D02*
X0066694D01*
X0066750D02*
Y0027166D01*
X0066694Y0027110D01*
X0071361Y0026944D02*
X0071139D01*
X0071250Y0027166D01*
X0071305D01*
Y0026832D01*
X0058924Y0012419D02*
X0058702D01*
X0058813Y0012641D01*
X0058869D01*
Y0012308D01*
X0058487Y0012474D02*
X0058514Y0012530D01*
Y0012585D01*
X0058487Y0012641D01*
X0058320D01*
X0058292Y0012585D01*
Y0012530D01*
X0058320Y0012474D01*
X0058487D01*
X0058514Y0012419D01*
Y0012363D01*
X0058487Y0012308D01*
X0058320D01*
X0058292Y0012363D01*
Y0012419D01*
X0058320Y0012474D01*
X0058021D02*
X0058104Y0012308D01*
X0057882Y0012474D02*
X0058049D01*
X0058104Y0012530D01*
Y0012585D01*
X0058049Y0012641D01*
X0057882D01*
Y0012308D01*
X0040924Y0015308D02*
X0040702D01*
X0040924Y0015530D01*
Y0015585D01*
X0040897Y0015641D01*
X0040730D01*
X0040702Y0015585D01*
X0040292Y0015363D02*
X0040320Y0015308D01*
X0040487D01*
X0040514Y0015363D01*
Y0015474D01*
X0040459Y0015530D01*
X0040292D01*
Y0015641D01*
X0040514D01*
X0040021Y0015474D02*
X0040104Y0015308D01*
X0039882Y0015474D02*
X0040049D01*
X0040104Y0015530D01*
Y0015585D01*
X0040049Y0015641D01*
X0039882D01*
Y0015308D01*
X0067688Y0023944D02*
X0067465D01*
X0067576Y0024166D01*
X0067632D01*
Y0023833D01*
X0067083Y0023944D02*
Y0023888D01*
X0067111Y0023833D01*
X0067222D01*
X0067250Y0023888D01*
Y0024166D01*
X0067278D02*
X0067166D01*
X0066805Y0022832D02*
X0066694D01*
X0066750D02*
Y0023166D01*
X0066694Y0023110D01*
X0071361Y0022944D02*
X0071139D01*
X0071250Y0023166D01*
X0071305D01*
Y0022832D01*
X0035709Y0017480D02*
X0035876D01*
X0035904Y0017424D01*
Y0017369D01*
X0035876Y0017313D01*
X0035709D01*
X0035681Y0017369D01*
Y0017424D01*
X0035793Y0017647D01*
X0035494D02*
Y0017369D01*
X0035466Y0017313D01*
X0035299D01*
X0035271Y0017369D01*
Y0017647D01*
X0040826Y0012220D02*
X0040771Y0012275D01*
X0040743Y0012331D01*
Y0012442D01*
X0040771Y0012498D01*
X0040826Y0012553D01*
X0040882D01*
X0040938Y0012498D01*
X0040965Y0012442D01*
Y0012331D01*
X0040938Y0012275D01*
X0040882Y0012220D01*
X0040826D01*
X0040555Y0012331D02*
X0040333D01*
X0040444Y0012553D01*
X0040500D01*
Y0012220D01*
X0040062Y0012387D02*
X0040145Y0012220D01*
X0039923Y0012387D02*
X0040090D01*
X0040145Y0012442D01*
Y0012498D01*
X0040090Y0012553D01*
X0039923D01*
Y0012220D01*
X0065299Y0022220D02*
X0065465Y0022553D01*
X0065243D01*
X0065055Y0022331D02*
X0064833D01*
X0064944Y0022553D01*
X0065000D01*
Y0022220D01*
X0064562Y0022387D02*
X0064645Y0022220D01*
X0064423Y0022387D02*
X0064590D01*
X0064645Y0022442D01*
Y0022498D01*
X0064590Y0022553D01*
X0064423D01*
Y0022220D01*
X0054008Y0017313D02*
X0053786D01*
X0054008Y0017535D01*
Y0017591D01*
X0053980Y0017647D01*
X0053814D01*
X0053786Y0017591D01*
X0053598Y0017313D02*
X0053487D01*
X0053543D02*
Y0017647D01*
X0053487Y0017591D01*
X0053244Y0017647D02*
Y0017369D01*
X0053216Y0017313D01*
X0053049D01*
X0053021Y0017369D01*
Y0017647D01*
X0014692Y0001563D02*
Y0001452D01*
Y0001508D02*
X0014359D01*
X0014414Y0001452D01*
X0014692Y0001209D02*
Y0001098D01*
Y0001153D02*
X0014359D01*
X0014414Y0001098D01*
X0014526Y0000771D02*
X0014692Y0000854D01*
X0014526Y0000632D02*
Y0000799D01*
X0014470Y0000854D01*
X0014414D01*
X0014359Y0000799D01*
Y0000632D01*
X0014692D01*
X0025692Y0001619D02*
Y0001508D01*
Y0001563D02*
X0025359D01*
X0025414Y0001508D01*
X0025692Y0001264D02*
Y0001042D01*
X0025470Y0001264D01*
X0025414D01*
X0025359Y0001237D01*
Y0001070D01*
X0025414Y0001042D01*
X0025526Y0000771D02*
X0025692Y0000854D01*
X0025526Y0000632D02*
Y0000799D01*
X0025470Y0000854D01*
X0025414D01*
X0025359Y0000799D01*
Y0000632D01*
X0025692D01*
X0068042Y0015833D02*
X0067820D01*
X0068042Y0016055D01*
Y0016110D01*
X0068014Y0016166D01*
X0067847D01*
X0067820Y0016110D01*
X0067632Y0015833D02*
X0067521D01*
X0067576D02*
Y0016166D01*
X0067521Y0016110D01*
X0067083Y0015944D02*
Y0015888D01*
X0067111Y0015833D01*
X0067222D01*
X0067250Y0015888D01*
Y0016166D01*
X0067278D02*
X0067166D01*
X0066805Y0014832D02*
X0066694D01*
X0066750D02*
Y0015166D01*
X0066694Y0015110D01*
X0071361Y0014944D02*
X0071139D01*
X0071250Y0015166D01*
X0071305D01*
Y0014832D01*
X0042598Y0003433D02*
X0042764Y0003766D01*
X0042542D01*
X0042354Y0003488D02*
X0042327Y0003433D01*
X0042160D01*
X0042132Y0003488D01*
Y0003710D01*
X0042160Y0003766D01*
X0042327D01*
X0042354Y0003710D01*
X0049480Y0031224D02*
X0049647D01*
X0049674Y0031169D01*
Y0031113D01*
X0049647Y0031058D01*
X0049480D01*
X0049452Y0031113D01*
Y0031169D01*
X0049563Y0031391D01*
X0049237Y0031224D02*
X0049264Y0031280D01*
Y0031335D01*
X0049237Y0031391D01*
X0049070D01*
X0049042Y0031335D01*
Y0031280D01*
X0049070Y0031224D01*
X0049237D01*
X0049264Y0031169D01*
Y0031113D01*
X0049237Y0031058D01*
X0049070D01*
X0049042Y0031113D01*
Y0031169D01*
X0049070Y0031224D01*
X0048771D02*
X0048854Y0031058D01*
X0048632Y0031224D02*
X0048799D01*
X0048854Y0031280D01*
Y0031335D01*
X0048799Y0031391D01*
X0048632D01*
Y0031058D01*
X0040826Y0010220D02*
X0040771Y0010275D01*
X0040743Y0010331D01*
Y0010442D01*
X0040771Y0010498D01*
X0040826Y0010553D01*
X0040882D01*
X0040938Y0010498D01*
X0040965Y0010442D01*
Y0010331D01*
X0040938Y0010275D01*
X0040882Y0010220D01*
X0040826D01*
X0040361Y0010387D02*
X0040528D01*
X0040555Y0010331D01*
Y0010275D01*
X0040528Y0010220D01*
X0040361D01*
X0040333Y0010275D01*
Y0010331D01*
X0040444Y0010553D01*
X0040062Y0010387D02*
X0040145Y0010220D01*
X0039923Y0010387D02*
X0040090D01*
X0040145Y0010442D01*
Y0010498D01*
X0040090Y0010553D01*
X0039923D01*
Y0010220D01*
X0035776Y0037925D02*
X0035804Y0037980D01*
Y0038036D01*
X0035776Y0038092D01*
X0035609D01*
X0035581Y0038036D01*
Y0037980D01*
X0035609Y0037925D01*
X0035776D01*
X0035804Y0037869D01*
Y0037814D01*
X0035776Y0037758D01*
X0035609D01*
X0035581Y0037814D01*
Y0037869D01*
X0035609Y0037925D01*
X0035394Y0038092D02*
Y0037814D01*
X0035366Y0037758D01*
X0035199D01*
X0035171Y0037814D01*
Y0038092D01*
X0031480Y0035724D02*
X0031647D01*
X0031674Y0035669D01*
Y0035613D01*
X0031647Y0035558D01*
X0031480D01*
X0031452Y0035613D01*
Y0035669D01*
X0031563Y0035891D01*
X0031070Y0035724D02*
X0031237D01*
X0031264Y0035669D01*
Y0035613D01*
X0031237Y0035558D01*
X0031070D01*
X0031042Y0035613D01*
Y0035669D01*
X0031153Y0035891D01*
X0030771Y0035724D02*
X0030854Y0035558D01*
X0030632Y0035724D02*
X0030799D01*
X0030854Y0035780D01*
Y0035835D01*
X0030799Y0035891D01*
X0030632D01*
Y0035558D01*
X0049826Y0016220D02*
X0049771Y0016275D01*
X0049743Y0016331D01*
Y0016442D01*
X0049771Y0016498D01*
X0049826Y0016553D01*
X0049882D01*
X0049938Y0016498D01*
X0049965Y0016442D01*
Y0016331D01*
X0049938Y0016275D01*
X0049882Y0016220D01*
X0049826D01*
X0049389D02*
X0049555Y0016553D01*
X0049333D01*
X0049062Y0016387D02*
X0049145Y0016220D01*
X0048923Y0016387D02*
X0049090D01*
X0049145Y0016442D01*
Y0016498D01*
X0049090Y0016553D01*
X0048923D01*
Y0016220D01*
X0065465Y0024331D02*
X0065243D01*
X0065354Y0024553D01*
X0065410D01*
Y0024220D01*
X0065055Y0024331D02*
X0064833D01*
X0064944Y0024553D01*
X0065000D01*
Y0024220D01*
X0064562Y0024387D02*
X0064645Y0024220D01*
X0064423Y0024387D02*
X0064590D01*
X0064645Y0024442D01*
Y0024498D01*
X0064590Y0024553D01*
X0064423D01*
Y0024220D01*
X0010070Y0020699D02*
X0010098Y0020755D01*
Y0020810D01*
X0010070Y0020866D01*
X0009903D01*
X0009875Y0020810D01*
Y0020755D01*
X0009903Y0020699D01*
X0010070D01*
X0010098Y0020644D01*
Y0020588D01*
X0010070Y0020532D01*
X0009903D01*
X0009875Y0020588D01*
Y0020644D01*
X0009903Y0020699D01*
X0009688Y0020532D02*
X0009465D01*
X0009688Y0020755D01*
Y0020810D01*
X0009660Y0020866D01*
X0009493D01*
X0009465Y0020810D01*
X0009083Y0020644D02*
Y0020588D01*
X0009111Y0020532D01*
X0009222D01*
X0009250Y0020588D01*
Y0020866D01*
X0009278D02*
X0009166D01*
X0008634Y0018861D02*
X0008523D01*
X0008578D02*
Y0019194D01*
X0008523Y0019139D01*
X0008690Y0019625D02*
X0008467D01*
X0008690Y0019847D01*
Y0019903D01*
X0008662Y0019959D01*
X0008495D01*
X0008467Y0019903D01*
X0025856Y0018949D02*
X0025690D01*
X0025662Y0019005D01*
Y0019060D01*
X0025690Y0019116D01*
X0025856D01*
X0025884Y0019060D01*
Y0019005D01*
X0025773Y0018782D01*
X0025252Y0018838D02*
X0025307Y0018782D01*
X0025418D01*
X0025474Y0018838D01*
Y0018894D01*
X0025363Y0019005D01*
X0025474Y0019116D01*
X0025252D01*
X0025745Y0019625D02*
X0025690Y0019681D01*
X0025662Y0019736D01*
Y0019847D01*
X0025690Y0019903D01*
X0025745Y0019959D01*
X0025801D01*
X0025856Y0019903D01*
X0025884Y0019847D01*
Y0019736D01*
X0025856Y0019681D01*
X0025801Y0019625D01*
X0025745D01*
X0025474Y0019736D02*
X0025252D01*
X0025363Y0019959D01*
X0025418D01*
Y0019625D01*
X0003692Y0001209D02*
Y0001098D01*
Y0001153D02*
X0003359D01*
X0003414Y0001098D01*
X0003526Y0000771D02*
X0003692Y0000854D01*
X0003526Y0000632D02*
Y0000799D01*
X0003470Y0000854D01*
X0003414D01*
X0003359Y0000799D01*
Y0000632D01*
X0003692D01*
X0023749Y0042486D02*
X0023805Y0042458D01*
X0023860D01*
X0023916Y0042486D01*
Y0042652D01*
X0023860Y0042680D01*
X0023805D01*
X0023749Y0042652D01*
Y0042486D01*
X0023694Y0042458D01*
X0023638D01*
X0023583Y0042486D01*
Y0042652D01*
X0023638Y0042680D01*
X0023694D01*
X0023749Y0042652D01*
X0023583Y0042868D02*
Y0042979D01*
Y0042923D02*
X0023916D01*
X0023860Y0042979D01*
X0023694Y0043417D02*
X0023638D01*
X0023583Y0043389D01*
Y0043278D01*
X0023638Y0043250D01*
X0023916D01*
Y0043222D02*
Y0043333D01*
X0024332Y0043694D02*
Y0043805D01*
Y0043750D02*
X0024666D01*
X0024610Y0043805D01*
X0024444Y0039139D02*
Y0039361D01*
X0024666Y0039250D01*
Y0039194D01*
X0024332D01*
X0024692Y0001535D02*
X0024637Y0001480D01*
X0024581Y0001452D01*
X0024470D01*
X0024414Y0001480D01*
X0024359Y0001535D01*
Y0001591D01*
X0024414Y0001647D01*
X0024470Y0001674D01*
X0024581D01*
X0024637Y0001647D01*
X0024692Y0001591D01*
Y0001535D01*
Y0001264D02*
Y0001042D01*
X0024470Y0001264D01*
X0024414D01*
X0024359Y0001237D01*
Y0001070D01*
X0024414Y0001042D01*
X0024526Y0000771D02*
X0024692Y0000854D01*
X0024526Y0000632D02*
Y0000799D01*
X0024470Y0000854D01*
X0024414D01*
X0024359Y0000799D01*
Y0000632D01*
X0024692D01*
X0031938Y0010387D02*
X0031965Y0010442D01*
Y0010498D01*
X0031938Y0010553D01*
X0031771D01*
X0031743Y0010498D01*
Y0010442D01*
X0031771Y0010387D01*
X0031938D01*
X0031965Y0010331D01*
Y0010275D01*
X0031938Y0010220D01*
X0031771D01*
X0031743Y0010275D01*
Y0010331D01*
X0031771Y0010387D01*
X0031333Y0010275D02*
X0031361Y0010220D01*
X0031528D01*
X0031555Y0010275D01*
Y0010387D01*
X0031500Y0010442D01*
X0031333D01*
Y0010553D01*
X0031555D01*
X0031062Y0010387D02*
X0031145Y0010220D01*
X0030923Y0010387D02*
X0031090D01*
X0031145Y0010442D01*
Y0010498D01*
X0031090Y0010553D01*
X0030923D01*
Y0010220D01*
X0008903Y0015058D02*
Y0014814D01*
X0008659Y0015058D01*
X0008598D01*
X0008537Y0015027D01*
Y0014844D01*
X0008598Y0014814D01*
X0008903Y0014623D02*
Y0014379D01*
X0008659Y0014623D01*
X0008598D01*
X0008537Y0014592D01*
Y0014409D01*
X0008598Y0014379D01*
X0008537Y0014188D02*
X0008842D01*
X0008903Y0014157D01*
Y0013974D01*
X0008842Y0013944D01*
X0008537D01*
X0065438Y0021387D02*
X0065271D01*
X0065243Y0021442D01*
Y0021498D01*
X0065271Y0021553D01*
X0065438D01*
X0065465Y0021498D01*
Y0021442D01*
X0065354Y0021220D01*
X0065055Y0021331D02*
X0064833D01*
X0064944Y0021553D01*
X0065000D01*
Y0021220D01*
X0064562Y0021387D02*
X0064645Y0021220D01*
X0064423Y0021387D02*
X0064590D01*
X0064645Y0021442D01*
Y0021498D01*
X0064590Y0021553D01*
X0064423D01*
Y0021220D01*
X0020842Y0006379D02*
X0020903Y0006440D01*
Y0006562D01*
X0020842Y0006623D01*
X0020781D01*
X0020659Y0006501D01*
X0020537Y0006623D01*
Y0006379D01*
Y0006188D02*
X0020842D01*
X0020903Y0006157D01*
Y0005974D01*
X0020842Y0005944D01*
X0020537D01*
X0051369Y0004433D02*
X0051146D01*
X0051369Y0004655D01*
Y0004710D01*
X0051341Y0004766D01*
X0051174D01*
X0051146Y0004710D01*
X0050959Y0004433D02*
X0050848D01*
X0050903D02*
Y0004766D01*
X0050848Y0004710D01*
X0050604Y0004488D02*
X0050577Y0004433D01*
X0050410D01*
X0050382Y0004488D01*
Y0004710D01*
X0050410Y0004766D01*
X0050577D01*
X0050604Y0004710D01*
X0019474Y0013353D02*
X0019530Y0013325D01*
X0019585D01*
X0019641Y0013353D01*
Y0013520D01*
X0019585Y0013548D01*
X0019530D01*
X0019474Y0013520D01*
Y0013353D01*
X0019419Y0013325D01*
X0019363D01*
X0019308Y0013353D01*
Y0013520D01*
X0019363Y0013548D01*
X0019419D01*
X0019474Y0013520D01*
Y0013763D02*
Y0013930D01*
X0019530Y0013958D01*
X0019585D01*
X0019641Y0013930D01*
Y0013763D01*
X0019585Y0013735D01*
X0019530D01*
X0019308Y0013847D01*
X0019474Y0014229D02*
X0019308Y0014145D01*
X0019474Y0014368D02*
Y0014201D01*
X0019530Y0014145D01*
X0019585D01*
X0019641Y0014201D01*
Y0014368D01*
X0019308D01*
X0053686Y0037814D02*
X0053714Y0037758D01*
X0053880D01*
X0053908Y0037814D01*
Y0037925D01*
X0053852Y0037980D01*
X0053686D01*
Y0038092D01*
X0053908D01*
X0053498Y0037758D02*
X0053387D01*
X0053443D02*
Y0038092D01*
X0053387Y0038036D01*
X0053144Y0038092D02*
Y0037814D01*
X0053116Y0037758D01*
X0052949D01*
X0052921Y0037814D01*
Y0038092D01*
X0015583Y0042625D02*
X0015916Y0042458D01*
Y0042680D01*
X0015583Y0042868D02*
Y0042979D01*
Y0042923D02*
X0015916D01*
X0015860Y0042979D01*
X0015694Y0043417D02*
X0015638D01*
X0015583Y0043389D01*
Y0043278D01*
X0015638Y0043250D01*
X0015916D01*
Y0043222D02*
Y0043333D01*
X0016332Y0043694D02*
Y0043805D01*
Y0043750D02*
X0016666D01*
X0016610Y0043805D01*
X0016499Y0037333D02*
Y0037167D01*
X0016444Y0037139D01*
X0016388D01*
X0016332Y0037167D01*
Y0037333D01*
X0016388Y0037361D01*
X0016444D01*
X0016666Y0037250D01*
X0023526Y0001591D02*
Y0001424D01*
X0023470Y0001396D01*
X0023414D01*
X0023359Y0001424D01*
Y0001591D01*
X0023414Y0001619D01*
X0023470D01*
X0023692Y0001508D01*
Y0001209D02*
Y0001098D01*
Y0001153D02*
X0023359D01*
X0023414Y0001098D01*
X0023526Y0000771D02*
X0023692Y0000854D01*
X0023526Y0000632D02*
Y0000799D01*
X0023470Y0000854D01*
X0023414D01*
X0023359Y0000799D01*
Y0000632D01*
X0023692D01*
X0034042Y0003488D02*
X0034098Y0003433D01*
X0034209D01*
X0034264Y0003488D01*
Y0003544D01*
X0034153Y0003655D01*
X0034264Y0003766D01*
X0034042D01*
X0033854Y0003488D02*
X0033827Y0003433D01*
X0033660D01*
X0033632Y0003488D01*
Y0003710D01*
X0033660Y0003766D01*
X0033827D01*
X0033854Y0003710D01*
X0058897Y0010474D02*
X0058924Y0010530D01*
Y0010585D01*
X0058897Y0010641D01*
X0058730D01*
X0058702Y0010585D01*
Y0010530D01*
X0058730Y0010474D01*
X0058897D01*
X0058924Y0010419D01*
Y0010363D01*
X0058897Y0010308D01*
X0058730D01*
X0058702Y0010363D01*
Y0010419D01*
X0058730Y0010474D01*
X0058487D02*
X0058514Y0010530D01*
Y0010585D01*
X0058487Y0010641D01*
X0058320D01*
X0058292Y0010585D01*
Y0010530D01*
X0058320Y0010474D01*
X0058487D01*
X0058514Y0010419D01*
Y0010363D01*
X0058487Y0010308D01*
X0058320D01*
X0058292Y0010363D01*
Y0010419D01*
X0058320Y0010474D01*
X0058021D02*
X0058104Y0010308D01*
X0057882Y0010474D02*
X0058049D01*
X0058104Y0010530D01*
Y0010585D01*
X0058049Y0010641D01*
X0057882D01*
Y0010308D01*
X0065243Y0026275D02*
X0065299Y0026220D01*
X0065410D01*
X0065465Y0026275D01*
Y0026331D01*
X0065354Y0026442D01*
X0065465Y0026553D01*
X0065243D01*
X0065055Y0026331D02*
X0064833D01*
X0064944Y0026553D01*
X0065000D01*
Y0026220D01*
X0064562Y0026387D02*
X0064645Y0026220D01*
X0064423Y0026387D02*
X0064590D01*
X0064645Y0026442D01*
Y0026498D01*
X0064590Y0026553D01*
X0064423D01*
Y0026220D01*
X0067660Y0019999D02*
X0067688Y0020055D01*
Y0020110D01*
X0067660Y0020166D01*
X0067493D01*
X0067465Y0020110D01*
Y0020055D01*
X0067493Y0019999D01*
X0067660D01*
X0067688Y0019944D01*
Y0019888D01*
X0067660Y0019833D01*
X0067493D01*
X0067465Y0019888D01*
Y0019944D01*
X0067493Y0019999D01*
X0067083Y0019944D02*
Y0019888D01*
X0067111Y0019833D01*
X0067222D01*
X0067250Y0019888D01*
Y0020166D01*
X0067278D02*
X0067166D01*
X0066805Y0018832D02*
X0066694D01*
X0066750D02*
Y0019166D01*
X0066694Y0019110D01*
X0071361Y0018944D02*
X0071139D01*
X0071250Y0019166D01*
X0071305D01*
Y0018832D01*
X0040674Y0035558D02*
X0040452D01*
X0040674Y0035780D01*
Y0035835D01*
X0040647Y0035891D01*
X0040480D01*
X0040452Y0035835D01*
X0040098Y0035558D02*
X0040264Y0035891D01*
X0040042D01*
X0039771Y0035724D02*
X0039854Y0035558D01*
X0039632Y0035724D02*
X0039799D01*
X0039854Y0035780D01*
Y0035835D01*
X0039799Y0035891D01*
X0039632D01*
Y0035558D01*
X0031799Y0014220D02*
X0031965Y0014553D01*
X0031743D01*
X0031333Y0014275D02*
X0031361Y0014220D01*
X0031528D01*
X0031555Y0014275D01*
Y0014387D01*
X0031500Y0014442D01*
X0031333D01*
Y0014553D01*
X0031555D01*
X0031062Y0014387D02*
X0031145Y0014220D01*
X0030923Y0014387D02*
X0031090D01*
X0031145Y0014442D01*
Y0014498D01*
X0031090Y0014553D01*
X0030923D01*
Y0014220D01*
X0049758Y0009308D02*
X0049924Y0009641D01*
X0049702D01*
X0049348Y0009308D02*
X0049514Y0009641D01*
X0049292D01*
X0049021Y0009474D02*
X0049104Y0009308D01*
X0048882Y0009474D02*
X0049049D01*
X0049104Y0009530D01*
Y0009585D01*
X0049049Y0009641D01*
X0048882D01*
Y0009308D01*
X0044936Y0028564D02*
X0044991Y0028508D01*
X0045102D01*
X0045158Y0028564D01*
Y0028619D01*
X0045047Y0028730D01*
X0045158Y0028842D01*
X0044936D01*
X0044748Y0028508D02*
X0044637D01*
X0044693D02*
Y0028842D01*
X0044637Y0028786D01*
X0044394Y0028842D02*
Y0028564D01*
X0044366Y0028508D01*
X0044199D01*
X0044171Y0028564D01*
Y0028842D01*
X0051326Y0023220D02*
X0051271Y0023275D01*
X0051243Y0023331D01*
Y0023442D01*
X0051271Y0023498D01*
X0051326Y0023553D01*
X0051382D01*
X0051438Y0023498D01*
X0051465Y0023442D01*
Y0023331D01*
X0051438Y0023275D01*
X0051382Y0023220D01*
X0051326D01*
X0050833Y0023275D02*
X0050889Y0023220D01*
X0051000D01*
X0051055Y0023275D01*
Y0023331D01*
X0050944Y0023442D01*
X0051055Y0023553D01*
X0050833D01*
X0050562Y0023387D02*
X0050645Y0023220D01*
X0050423Y0023387D02*
X0050590D01*
X0050645Y0023442D01*
Y0023498D01*
X0050590Y0023553D01*
X0050423D01*
Y0023220D01*
X0021692Y0001452D02*
X0021359Y0001619D01*
Y0001396D01*
X0021692Y0001209D02*
Y0001098D01*
Y0001153D02*
X0021359D01*
X0021414Y0001098D01*
X0021526Y0000771D02*
X0021692Y0000854D01*
X0021526Y0000632D02*
Y0000799D01*
X0021470Y0000854D01*
X0021414D01*
X0021359Y0000799D01*
Y0000632D01*
X0021692D01*
X0058690Y0027096D02*
X0058873Y0027463D01*
X0058629D01*
X0058438D02*
Y0027158D01*
X0058407Y0027096D01*
X0058224D01*
X0058194Y0027158D01*
Y0027463D01*
X0049743Y0015275D02*
X0049771Y0015220D01*
X0049938D01*
X0049965Y0015275D01*
Y0015387D01*
X0049910Y0015442D01*
X0049743D01*
Y0015553D01*
X0049965D01*
X0049389Y0015220D02*
X0049555Y0015553D01*
X0049333D01*
X0049062Y0015387D02*
X0049145Y0015220D01*
X0048923Y0015387D02*
X0049090D01*
X0049145Y0015442D01*
Y0015498D01*
X0049090Y0015553D01*
X0048923D01*
Y0015220D01*
X0031549Y0032970D02*
X0031715Y0033303D01*
X0031493D01*
X0031111Y0033137D02*
X0031278D01*
X0031305Y0033081D01*
Y0033025D01*
X0031278Y0032970D01*
X0031111D01*
X0031083Y0033025D01*
Y0033081D01*
X0031194Y0033303D01*
X0030812Y0033137D02*
X0030895Y0032970D01*
X0030673Y0033137D02*
X0030840D01*
X0030895Y0033192D01*
Y0033248D01*
X0030840Y0033303D01*
X0030673D01*
Y0032970D01*
X0063158Y0028508D02*
X0063047D01*
X0063103D02*
Y0028842D01*
X0063047Y0028786D01*
X0062804Y0028508D02*
X0062581D01*
X0062804Y0028730D01*
Y0028786D01*
X0062776Y0028842D01*
X0062609D01*
X0062581Y0028786D01*
X0062394Y0028842D02*
Y0028564D01*
X0062366Y0028508D01*
X0062199D01*
X0062171Y0028564D01*
Y0028842D01*
X0063638Y0042680D02*
X0063583Y0042652D01*
Y0042486D01*
X0063638Y0042458D01*
X0063749D01*
X0063805Y0042514D01*
Y0042680D01*
X0063916D01*
Y0042458D01*
X0063583Y0042868D02*
Y0042979D01*
Y0042923D02*
X0063916D01*
X0063860Y0042979D01*
X0063694Y0043417D02*
X0063638D01*
X0063583Y0043389D01*
Y0043278D01*
X0063638Y0043250D01*
X0063916D01*
Y0043222D02*
Y0043333D01*
X0064332Y0043694D02*
Y0043805D01*
Y0043750D02*
X0064666D01*
X0064610Y0043805D01*
X0064444Y0039139D02*
Y0039361D01*
X0064666Y0039250D01*
Y0039194D01*
X0064332D01*
X0034264Y0004544D02*
X0034042D01*
X0034153Y0004766D01*
X0034209D01*
Y0004433D01*
X0033854Y0004488D02*
X0033827Y0004433D01*
X0033660D01*
X0033632Y0004488D01*
Y0004710D01*
X0033660Y0004766D01*
X0033827D01*
X0033854Y0004710D01*
X0051438Y0024387D02*
X0051465Y0024442D01*
Y0024498D01*
X0051438Y0024553D01*
X0051271D01*
X0051243Y0024498D01*
Y0024442D01*
X0051271Y0024387D01*
X0051438D01*
X0051465Y0024331D01*
Y0024275D01*
X0051438Y0024220D01*
X0051271D01*
X0051243Y0024275D01*
Y0024331D01*
X0051271Y0024387D01*
X0051055Y0024220D02*
X0050833D01*
X0051055Y0024442D01*
Y0024498D01*
X0051028Y0024553D01*
X0050861D01*
X0050833Y0024498D01*
X0050562Y0024387D02*
X0050645Y0024220D01*
X0050423Y0024387D02*
X0050590D01*
X0050645Y0024442D01*
Y0024498D01*
X0050590Y0024553D01*
X0050423D01*
Y0024220D01*
X0011903Y0006623D02*
Y0006379D01*
X0011659Y0006623D01*
X0011598D01*
X0011537Y0006592D01*
Y0006409D01*
X0011598Y0006379D01*
X0011537Y0006188D02*
X0011842D01*
X0011903Y0006157D01*
Y0005974D01*
X0011842Y0005944D01*
X0011537D01*
X0040965Y0016220D02*
X0040743D01*
X0040965Y0016442D01*
Y0016498D01*
X0040938Y0016553D01*
X0040771D01*
X0040743Y0016498D01*
X0040555Y0016331D02*
X0040333D01*
X0040444Y0016553D01*
X0040500D01*
Y0016220D01*
X0040062Y0016387D02*
X0040145Y0016220D01*
X0039923Y0016387D02*
X0040090D01*
X0040145Y0016442D01*
Y0016498D01*
X0040090Y0016553D01*
X0039923D01*
Y0016220D01*
X0040924Y0013419D02*
X0040702D01*
X0040813Y0013641D01*
X0040869D01*
Y0013308D01*
X0040320Y0013474D02*
X0040487D01*
X0040514Y0013419D01*
Y0013363D01*
X0040487Y0013308D01*
X0040320D01*
X0040292Y0013363D01*
Y0013419D01*
X0040403Y0013641D01*
X0040021Y0013474D02*
X0040104Y0013308D01*
X0039882Y0013474D02*
X0040049D01*
X0040104Y0013530D01*
Y0013585D01*
X0040049Y0013641D01*
X0039882D01*
Y0013308D01*
X0055130Y0007425D02*
X0055158Y0007480D01*
Y0007536D01*
X0055130Y0007592D01*
X0054964D01*
X0054936Y0007536D01*
Y0007480D01*
X0054964Y0007425D01*
X0055130D01*
X0055158Y0007369D01*
Y0007314D01*
X0055130Y0007258D01*
X0054964D01*
X0054936Y0007314D01*
Y0007369D01*
X0054964Y0007425D01*
X0054748Y0007258D02*
X0054637D01*
X0054693D02*
Y0007592D01*
X0054637Y0007536D01*
X0054394Y0007592D02*
Y0007314D01*
X0054366Y0007258D01*
X0054199D01*
X0054171Y0007314D01*
Y0007592D01*
X0027583Y0042812D02*
Y0043035D01*
X0027805Y0042812D01*
X0027860D01*
X0027916Y0042840D01*
Y0043007D01*
X0027860Y0043035D01*
X0027694Y0043417D02*
X0027638D01*
X0027583Y0043389D01*
Y0043278D01*
X0027638Y0043250D01*
X0027916D01*
Y0043222D02*
Y0043333D01*
X0028332Y0043694D02*
Y0043805D01*
Y0043750D02*
X0028666D01*
X0028610Y0043805D01*
X0028444Y0039139D02*
Y0039361D01*
X0028666Y0039250D01*
Y0039194D01*
X0028332D01*
X0034264Y0005433D02*
X0034042D01*
X0034264Y0005655D01*
Y0005710D01*
X0034237Y0005766D01*
X0034070D01*
X0034042Y0005710D01*
X0033854Y0005488D02*
X0033827Y0005433D01*
X0033660D01*
X0033632Y0005488D01*
Y0005710D01*
X0033660Y0005766D01*
X0033827D01*
X0033854Y0005710D01*
X0011638Y0042680D02*
X0011583Y0042625D01*
Y0042514D01*
X0011638Y0042458D01*
X0011694D01*
X0011805Y0042569D01*
X0011916Y0042458D01*
Y0042680D01*
X0011583Y0042868D02*
Y0042979D01*
Y0042923D02*
X0011916D01*
X0011860Y0042979D01*
X0011694Y0043417D02*
X0011638D01*
X0011583Y0043389D01*
Y0043278D01*
X0011638Y0043250D01*
X0011916D01*
Y0043222D02*
Y0043333D01*
X0012332Y0043694D02*
Y0043805D01*
Y0043750D02*
X0012666D01*
X0012610Y0043805D01*
X0012499Y0037333D02*
Y0037167D01*
X0012444Y0037139D01*
X0012388D01*
X0012332Y0037167D01*
Y0037333D01*
X0012388Y0037361D01*
X0012444D01*
X0012666Y0037250D01*
X0059146Y0003488D02*
X0059174Y0003433D01*
X0059341D01*
X0059369Y0003488D01*
Y0003599D01*
X0059313Y0003655D01*
X0059146D01*
Y0003766D01*
X0059369D01*
X0058959Y0003433D02*
X0058848D01*
X0058903D02*
Y0003766D01*
X0058848Y0003710D01*
X0058604Y0003488D02*
X0058577Y0003433D01*
X0058410D01*
X0058382Y0003488D01*
Y0003710D01*
X0058410Y0003766D01*
X0058577D01*
X0058604Y0003710D01*
X0040647Y0033224D02*
X0040480D01*
X0040452Y0033280D01*
Y0033335D01*
X0040480Y0033391D01*
X0040647D01*
X0040674Y0033335D01*
Y0033280D01*
X0040563Y0033058D01*
X0040098D02*
X0040264Y0033391D01*
X0040042D01*
X0039771Y0033224D02*
X0039854Y0033058D01*
X0039632Y0033224D02*
X0039799D01*
X0039854Y0033280D01*
Y0033335D01*
X0039799Y0033391D01*
X0039632D01*
Y0033058D01*
X0051410Y0022220D02*
X0051299D01*
X0051354D02*
Y0022553D01*
X0051299Y0022498D01*
X0050833Y0022275D02*
X0050889Y0022220D01*
X0051000D01*
X0051055Y0022275D01*
Y0022331D01*
X0050944Y0022442D01*
X0051055Y0022553D01*
X0050833D01*
X0050562Y0022387D02*
X0050645Y0022220D01*
X0050423Y0022387D02*
X0050590D01*
X0050645Y0022442D01*
Y0022498D01*
X0050590Y0022553D01*
X0050423D01*
Y0022220D01*
X0059146Y0006488D02*
X0059202Y0006433D01*
X0059313D01*
X0059369Y0006488D01*
Y0006544D01*
X0059258Y0006655D01*
X0059369Y0006766D01*
X0059146D01*
X0058959Y0006433D02*
X0058848D01*
X0058903D02*
Y0006766D01*
X0058848Y0006710D01*
X0058604Y0006488D02*
X0058577Y0006433D01*
X0058410D01*
X0058382Y0006488D01*
Y0006710D01*
X0058410Y0006766D01*
X0058577D01*
X0058604Y0006710D01*
X0054493Y0020025D02*
X0054521Y0019970D01*
X0054688D01*
X0054715Y0020025D01*
Y0020137D01*
X0054660Y0020192D01*
X0054493D01*
Y0020303D01*
X0054715D01*
X0054083Y0020025D02*
X0054111Y0019970D01*
X0054278D01*
X0054305Y0020025D01*
Y0020137D01*
X0054250Y0020192D01*
X0054083D01*
Y0020303D01*
X0054305D01*
X0053812Y0020137D02*
X0053895Y0019970D01*
X0053673Y0020137D02*
X0053840D01*
X0053895Y0020192D01*
Y0020248D01*
X0053840Y0020303D01*
X0053673D01*
Y0019970D01*
X0017581Y0001619D02*
Y0001396D01*
X0017359Y0001508D01*
Y0001563D01*
X0017692D01*
Y0001209D02*
Y0001098D01*
Y0001153D02*
X0017359D01*
X0017414Y0001098D01*
X0017526Y0000771D02*
X0017692Y0000854D01*
X0017526Y0000632D02*
Y0000799D01*
X0017470Y0000854D01*
X0017414D01*
X0017359Y0000799D01*
Y0000632D01*
X0017692D01*
X0051465Y0020331D02*
X0051243D01*
X0051354Y0020553D01*
X0051410D01*
Y0020220D01*
X0050833Y0020275D02*
X0050889Y0020220D01*
X0051000D01*
X0051055Y0020275D01*
Y0020331D01*
X0050944Y0020442D01*
X0051055Y0020553D01*
X0050833D01*
X0050562Y0020387D02*
X0050645Y0020220D01*
X0050423Y0020387D02*
X0050590D01*
X0050645Y0020442D01*
Y0020498D01*
X0050590Y0020553D01*
X0050423D01*
Y0020220D01*
X0049660Y0037470D02*
X0049549D01*
X0049604D02*
Y0037803D01*
X0049549Y0037748D01*
X0049278Y0037637D02*
X0049305Y0037692D01*
Y0037748D01*
X0049278Y0037803D01*
X0049111D01*
X0049083Y0037748D01*
Y0037692D01*
X0049111Y0037637D01*
X0049278D01*
X0049305Y0037581D01*
Y0037525D01*
X0049278Y0037470D01*
X0049111D01*
X0049083Y0037525D01*
Y0037581D01*
X0049111Y0037637D01*
X0048812D02*
X0048895Y0037470D01*
X0048673Y0037637D02*
X0048840D01*
X0048895Y0037692D01*
Y0037748D01*
X0048840Y0037803D01*
X0048673D01*
Y0037470D01*
X0049771Y0013387D02*
X0049938D01*
X0049965Y0013331D01*
Y0013275D01*
X0049938Y0013220D01*
X0049771D01*
X0049743Y0013275D01*
Y0013331D01*
X0049854Y0013553D01*
X0049389Y0013220D02*
X0049555Y0013553D01*
X0049333D01*
X0049062Y0013387D02*
X0049145Y0013220D01*
X0048923Y0013387D02*
X0049090D01*
X0049145Y0013442D01*
Y0013498D01*
X0049090Y0013553D01*
X0048923D01*
Y0013220D01*
X0051638Y0043035D02*
X0051583Y0042979D01*
Y0042868D01*
X0051638Y0042812D01*
X0051694D01*
X0051805Y0042923D01*
X0051916Y0042812D01*
Y0043035D01*
X0051694Y0043417D02*
X0051638D01*
X0051583Y0043389D01*
Y0043278D01*
X0051638Y0043250D01*
X0051916D01*
Y0043222D02*
Y0043333D01*
X0052332Y0043694D02*
Y0043805D01*
Y0043750D02*
X0052666D01*
X0052610Y0043805D01*
X0052444Y0039139D02*
Y0039361D01*
X0052666Y0039250D01*
Y0039194D01*
X0052332D01*
X0034209Y0006433D02*
X0034098D01*
X0034153D02*
Y0006766D01*
X0034098Y0006710D01*
X0033854Y0006488D02*
X0033827Y0006433D01*
X0033660D01*
X0033632Y0006488D01*
Y0006710D01*
X0033660Y0006766D01*
X0033827D01*
X0033854Y0006710D01*
X0051230Y0005433D02*
X0051174Y0005488D01*
X0051146Y0005544D01*
Y0005655D01*
X0051174Y0005710D01*
X0051230Y0005766D01*
X0051285D01*
X0051341Y0005710D01*
X0051369Y0005655D01*
Y0005544D01*
X0051341Y0005488D01*
X0051285Y0005433D01*
X0051230D01*
X0050959D02*
X0050848D01*
X0050903D02*
Y0005766D01*
X0050848Y0005710D01*
X0050604Y0005488D02*
X0050577Y0005433D01*
X0050410D01*
X0050382Y0005488D01*
Y0005710D01*
X0050410Y0005766D01*
X0050577D01*
X0050604Y0005710D01*
X0031869Y0011308D02*
X0031758D01*
X0031813D02*
Y0011641D01*
X0031758Y0011585D01*
X0031292Y0011363D02*
X0031320Y0011308D01*
X0031487D01*
X0031514Y0011363D01*
Y0011474D01*
X0031459Y0011530D01*
X0031292D01*
Y0011641D01*
X0031514D01*
X0031021Y0011474D02*
X0031104Y0011308D01*
X0030882Y0011474D02*
X0031049D01*
X0031104Y0011530D01*
Y0011585D01*
X0031049Y0011641D01*
X0030882D01*
Y0011308D01*
X0058965Y0009220D02*
X0058743D01*
X0058965Y0009442D01*
Y0009498D01*
X0058938Y0009553D01*
X0058771D01*
X0058743Y0009498D01*
X0058528Y0009387D02*
X0058361D01*
X0058333Y0009442D01*
Y0009498D01*
X0058361Y0009553D01*
X0058528D01*
X0058555Y0009498D01*
Y0009442D01*
X0058444Y0009220D01*
X0058062Y0009387D02*
X0058145Y0009220D01*
X0057923Y0009387D02*
X0058090D01*
X0058145Y0009442D01*
Y0009498D01*
X0058090Y0009553D01*
X0057923D01*
Y0009220D01*
X0009692Y0001098D02*
X0009359Y0001264D01*
Y0001042D01*
X0009526Y0000771D02*
X0009692Y0000854D01*
X0009526Y0000632D02*
Y0000799D01*
X0009470Y0000854D01*
X0009414D01*
X0009359Y0000799D01*
Y0000632D01*
X0009692D01*
X0009382Y0011375D02*
X0009116D01*
X0009249Y0011242D02*
Y0011508D01*
X0010308Y0010673D02*
X0010641Y0010506D01*
Y0010728D01*
X0010308Y0010916D02*
Y0011027D01*
Y0010972D02*
X0010641D01*
X0010585Y0011027D01*
X0010363Y0011270D02*
X0010308Y0011298D01*
Y0011465D01*
X0010363Y0011493D01*
X0010585D01*
X0010641Y0011465D01*
Y0011298D01*
X0010585Y0011270D01*
X0015692Y0001619D02*
Y0001396D01*
X0015470Y0001619D01*
X0015414D01*
X0015359Y0001591D01*
Y0001424D01*
X0015414Y0001396D01*
X0015692Y0001209D02*
Y0001098D01*
Y0001153D02*
X0015359D01*
X0015414Y0001098D01*
X0015526Y0000771D02*
X0015692Y0000854D01*
X0015526Y0000632D02*
Y0000799D01*
X0015470Y0000854D01*
X0015414D01*
X0015359Y0000799D01*
Y0000632D01*
X0015692D01*
X0040702Y0011363D02*
X0040758Y0011308D01*
X0040869D01*
X0040924Y0011363D01*
Y0011419D01*
X0040813Y0011530D01*
X0040924Y0011641D01*
X0040702D01*
X0040292Y0011363D02*
X0040320Y0011308D01*
X0040487D01*
X0040514Y0011363D01*
Y0011474D01*
X0040459Y0011530D01*
X0040292D01*
Y0011641D01*
X0040514D01*
X0040021Y0011474D02*
X0040104Y0011308D01*
X0039882Y0011474D02*
X0040049D01*
X0040104Y0011530D01*
Y0011585D01*
X0040049Y0011641D01*
X0039882D01*
Y0011308D01*
X0054688Y0022137D02*
X0054715Y0022192D01*
Y0022248D01*
X0054688Y0022303D01*
X0054521D01*
X0054493Y0022248D01*
Y0022192D01*
X0054521Y0022137D01*
X0054688D01*
X0054715Y0022081D01*
Y0022025D01*
X0054688Y0021970D01*
X0054521D01*
X0054493Y0022025D01*
Y0022081D01*
X0054521Y0022137D01*
X0054305Y0022081D02*
X0054083D01*
X0054194Y0022303D01*
X0054250D01*
Y0021970D01*
X0053812Y0022137D02*
X0053895Y0021970D01*
X0053673Y0022137D02*
X0053840D01*
X0053895Y0022192D01*
Y0022248D01*
X0053840Y0022303D01*
X0053673D01*
Y0021970D01*
X0040452Y0026113D02*
X0040480Y0026058D01*
X0040647D01*
X0040674Y0026113D01*
Y0026224D01*
X0040619Y0026280D01*
X0040452D01*
Y0026391D01*
X0040674D01*
X0040264Y0026058D02*
X0040042D01*
X0040264Y0026280D01*
Y0026335D01*
X0040237Y0026391D01*
X0040070D01*
X0040042Y0026335D01*
X0039771Y0026224D02*
X0039854Y0026058D01*
X0039632Y0026224D02*
X0039799D01*
X0039854Y0026280D01*
Y0026335D01*
X0039799Y0026391D01*
X0039632D01*
Y0026058D01*
X0002620Y0038964D02*
X0002681Y0038903D01*
X0002803D01*
X0002864Y0038964D01*
Y0039025D01*
X0002742Y0039147D01*
X0002864Y0039269D01*
X0002620D01*
X0002429Y0038903D02*
X0002185D01*
X0002429Y0039147D01*
Y0039208D01*
X0002399Y0039269D01*
X0002215D01*
X0002185Y0039208D01*
X0001780Y0039025D02*
Y0038964D01*
X0001811Y0038903D01*
X0001933D01*
X0001964Y0038964D01*
Y0039269D01*
X0001994D02*
X0001872D01*
X0012526Y0001237D02*
Y0001070D01*
X0012470Y0001042D01*
X0012414D01*
X0012359Y0001070D01*
Y0001237D01*
X0012414Y0001264D01*
X0012470D01*
X0012692Y0001153D01*
X0012526Y0000771D02*
X0012692Y0000854D01*
X0012526Y0000632D02*
Y0000799D01*
X0012470Y0000854D01*
X0012414D01*
X0012359Y0000799D01*
Y0000632D01*
X0012692D01*
X0044431Y0017369D02*
X0044459Y0017313D01*
X0044626D01*
X0044654Y0017369D01*
Y0017480D01*
X0044598Y0017535D01*
X0044431D01*
Y0017647D01*
X0044654D01*
X0044244D02*
Y0017369D01*
X0044216Y0017313D01*
X0044049D01*
X0044021Y0017369D01*
Y0017647D01*
X0058826Y0015220D02*
X0058771Y0015275D01*
X0058743Y0015331D01*
Y0015442D01*
X0058771Y0015498D01*
X0058826Y0015553D01*
X0058882D01*
X0058938Y0015498D01*
X0058965Y0015442D01*
Y0015331D01*
X0058938Y0015275D01*
X0058882Y0015220D01*
X0058826D01*
X0058528Y0015387D02*
X0058361D01*
X0058333Y0015442D01*
Y0015498D01*
X0058361Y0015553D01*
X0058528D01*
X0058555Y0015498D01*
Y0015442D01*
X0058444Y0015220D01*
X0058062Y0015387D02*
X0058145Y0015220D01*
X0057923Y0015387D02*
X0058090D01*
X0058145Y0015442D01*
Y0015498D01*
X0058090Y0015553D01*
X0057923D01*
Y0015220D01*
X0007382Y0011375D02*
X0007116D01*
X0007249Y0011242D02*
Y0011508D01*
X0008474Y0010534D02*
Y0010701D01*
X0008530Y0010728D01*
X0008585D01*
X0008641Y0010701D01*
Y0010534D01*
X0008585Y0010506D01*
X0008530D01*
X0008308Y0010617D01*
Y0010916D02*
Y0011027D01*
Y0010972D02*
X0008641D01*
X0008585Y0011027D01*
X0008363Y0011270D02*
X0008308Y0011298D01*
Y0011465D01*
X0008363Y0011493D01*
X0008585D01*
X0008641Y0011465D01*
Y0011298D01*
X0008585Y0011270D01*
X0050987Y0006599D02*
X0050820D01*
X0050792Y0006655D01*
Y0006710D01*
X0050820Y0006766D01*
X0050987D01*
X0051014Y0006710D01*
Y0006655D01*
X0050903Y0006433D01*
X0050604Y0006488D02*
X0050577Y0006433D01*
X0050410D01*
X0050382Y0006488D01*
Y0006710D01*
X0050410Y0006766D01*
X0050577D01*
X0050604Y0006710D01*
X0002903Y0006562D02*
Y0006440D01*
Y0006501D02*
X0002537D01*
X0002598Y0006440D01*
X0002537Y0006188D02*
X0002842D01*
X0002903Y0006157D01*
Y0005974D01*
X0002842Y0005944D01*
X0002537D01*
X0063075Y0007258D02*
X0063019Y0007314D01*
X0062991Y0007369D01*
Y0007480D01*
X0063019Y0007536D01*
X0063075Y0007592D01*
X0063130D01*
X0063186Y0007536D01*
X0063214Y0007480D01*
Y0007369D01*
X0063186Y0007314D01*
X0063130Y0007258D01*
X0063075D01*
X0062804D02*
X0062581D01*
X0062804Y0007480D01*
Y0007536D01*
X0062776Y0007592D01*
X0062609D01*
X0062581Y0007536D01*
X0062394Y0007592D02*
Y0007314D01*
X0062366Y0007258D01*
X0062199D01*
X0062171Y0007314D01*
Y0007592D01*
X0028581Y0001674D02*
Y0001452D01*
X0028359Y0001563D01*
Y0001619D01*
X0028692D01*
Y0001264D02*
Y0001042D01*
X0028470Y0001264D01*
X0028414D01*
X0028359Y0001237D01*
Y0001070D01*
X0028414Y0001042D01*
X0028526Y0000771D02*
X0028692Y0000854D01*
X0028526Y0000632D02*
Y0000799D01*
X0028470Y0000854D01*
X0028414D01*
X0028359Y0000799D01*
Y0000632D01*
X0028692D01*
X0058743Y0011275D02*
X0058799Y0011220D01*
X0058910D01*
X0058965Y0011275D01*
Y0011331D01*
X0058854Y0011442D01*
X0058965Y0011553D01*
X0058743D01*
X0058528Y0011387D02*
X0058361D01*
X0058333Y0011442D01*
Y0011498D01*
X0058361Y0011553D01*
X0058528D01*
X0058555Y0011498D01*
Y0011442D01*
X0058444Y0011220D01*
X0058062Y0011387D02*
X0058145Y0011220D01*
X0057923Y0011387D02*
X0058090D01*
X0058145Y0011442D01*
Y0011498D01*
X0058090Y0011553D01*
X0057923D01*
Y0011220D01*
X0010526Y0001237D02*
X0010470Y0001264D01*
X0010414D01*
X0010359Y0001237D01*
Y0001070D01*
X0010414Y0001042D01*
X0010470D01*
X0010526Y0001070D01*
Y0001237D01*
X0010581Y0001264D01*
X0010637D01*
X0010692Y0001237D01*
Y0001070D01*
X0010637Y0001042D01*
X0010581D01*
X0010526Y0001070D01*
Y0000771D02*
X0010692Y0000854D01*
X0010526Y0000632D02*
Y0000799D01*
X0010470Y0000854D01*
X0010414D01*
X0010359Y0000799D01*
Y0000632D01*
X0010692D01*
X0042737Y0004599D02*
X0042764Y0004655D01*
Y0004710D01*
X0042737Y0004766D01*
X0042570D01*
X0042542Y0004710D01*
Y0004655D01*
X0042570Y0004599D01*
X0042737D01*
X0042764Y0004544D01*
Y0004488D01*
X0042737Y0004433D01*
X0042570D01*
X0042542Y0004488D01*
Y0004544D01*
X0042570Y0004599D01*
X0042354Y0004488D02*
X0042327Y0004433D01*
X0042160D01*
X0042132Y0004488D01*
Y0004710D01*
X0042160Y0004766D01*
X0042327D01*
X0042354Y0004710D01*
X0051299Y0025220D02*
X0051465Y0025553D01*
X0051243D01*
X0051055Y0025220D02*
X0050833D01*
X0051055Y0025442D01*
Y0025498D01*
X0051028Y0025553D01*
X0050861D01*
X0050833Y0025498D01*
X0050562Y0025387D02*
X0050645Y0025220D01*
X0050423Y0025387D02*
X0050590D01*
X0050645Y0025442D01*
Y0025498D01*
X0050590Y0025553D01*
X0050423D01*
Y0025220D01*
X0065465Y0020331D02*
X0065243D01*
X0065354Y0020553D01*
X0065410D01*
Y0020220D01*
X0064833Y0020275D02*
X0064861Y0020220D01*
X0065028D01*
X0065055Y0020275D01*
Y0020387D01*
X0065000Y0020442D01*
X0064833D01*
Y0020553D01*
X0065055D01*
X0064562Y0020387D02*
X0064645Y0020220D01*
X0064423Y0020387D02*
X0064590D01*
X0064645Y0020442D01*
Y0020498D01*
X0064590Y0020553D01*
X0064423D01*
Y0020220D01*
X0002864Y0038025D02*
X0002620D01*
X0002742Y0038269D01*
X0002803D01*
Y0037903D01*
X0002429D02*
X0002185D01*
X0002429Y0038147D01*
Y0038208D01*
X0002399Y0038269D01*
X0002215D01*
X0002185Y0038208D01*
X0001780Y0038025D02*
Y0037964D01*
X0001811Y0037903D01*
X0001933D01*
X0001964Y0037964D01*
Y0038269D01*
X0001994D02*
X0001872D01*
X0004692Y0001264D02*
Y0001042D01*
X0004470Y0001264D01*
X0004414D01*
X0004359Y0001237D01*
Y0001070D01*
X0004414Y0001042D01*
X0004526Y0000771D02*
X0004692Y0000854D01*
X0004526Y0000632D02*
Y0000799D01*
X0004470Y0000854D01*
X0004414D01*
X0004359Y0000799D01*
Y0000632D01*
X0004692D01*
X0035776Y0028675D02*
X0035609D01*
X0035581Y0028730D01*
Y0028786D01*
X0035609Y0028842D01*
X0035776D01*
X0035804Y0028786D01*
Y0028730D01*
X0035693Y0028508D01*
X0035394Y0028842D02*
Y0028564D01*
X0035366Y0028508D01*
X0035199D01*
X0035171Y0028564D01*
Y0028842D01*
X0002681Y0036903D02*
X0002864Y0037269D01*
X0002620D01*
X0002429Y0036903D02*
X0002185D01*
X0002429Y0037147D01*
Y0037208D01*
X0002399Y0037269D01*
X0002215D01*
X0002185Y0037208D01*
X0001780Y0037025D02*
Y0036964D01*
X0001811Y0036903D01*
X0001933D01*
X0001964Y0036964D01*
Y0037269D01*
X0001994D02*
X0001872D01*
X0065271Y0023387D02*
X0065438D01*
X0065465Y0023331D01*
Y0023275D01*
X0065438Y0023220D01*
X0065271D01*
X0065243Y0023275D01*
Y0023331D01*
X0065354Y0023553D01*
X0065055Y0023331D02*
X0064833D01*
X0064944Y0023553D01*
X0065000D01*
Y0023220D01*
X0064562Y0023387D02*
X0064645Y0023220D01*
X0064423Y0023387D02*
X0064590D01*
X0064645Y0023442D01*
Y0023498D01*
X0064590Y0023553D01*
X0064423D01*
Y0023220D01*
X0043583Y0042868D02*
Y0042979D01*
Y0042923D02*
X0043916D01*
X0043860Y0042979D01*
X0043694Y0043417D02*
X0043638D01*
X0043583Y0043389D01*
Y0043278D01*
X0043638Y0043250D01*
X0043916D01*
Y0043222D02*
Y0043333D01*
X0044332Y0043694D02*
Y0043805D01*
Y0043750D02*
X0044666D01*
X0044610Y0043805D01*
X0044444Y0039139D02*
Y0039361D01*
X0044666Y0039250D01*
Y0039194D01*
X0044332D01*
X0049493Y0033025D02*
X0049521Y0032970D01*
X0049688D01*
X0049715Y0033025D01*
Y0033137D01*
X0049660Y0033192D01*
X0049493D01*
Y0033303D01*
X0049715D01*
X0049278Y0033137D02*
X0049305Y0033192D01*
Y0033248D01*
X0049278Y0033303D01*
X0049111D01*
X0049083Y0033248D01*
Y0033192D01*
X0049111Y0033137D01*
X0049278D01*
X0049305Y0033081D01*
Y0033025D01*
X0049278Y0032970D01*
X0049111D01*
X0049083Y0033025D01*
Y0033081D01*
X0049111Y0033137D01*
X0048812D02*
X0048895Y0032970D01*
X0048673Y0033137D02*
X0048840D01*
X0048895Y0033192D01*
Y0033248D01*
X0048840Y0033303D01*
X0048673D01*
Y0032970D01*
X0026692Y0001674D02*
Y0001452D01*
X0026470Y0001674D01*
X0026414D01*
X0026359Y0001647D01*
Y0001480D01*
X0026414Y0001452D01*
X0026692Y0001264D02*
Y0001042D01*
X0026470Y0001264D01*
X0026414D01*
X0026359Y0001237D01*
Y0001070D01*
X0026414Y0001042D01*
X0026526Y0000771D02*
X0026692Y0000854D01*
X0026526Y0000632D02*
Y0000799D01*
X0026470Y0000854D01*
X0026414D01*
X0026359Y0000799D01*
Y0000632D01*
X0026692D01*
X0049938Y0012387D02*
X0049771D01*
X0049743Y0012442D01*
Y0012498D01*
X0049771Y0012553D01*
X0049938D01*
X0049965Y0012498D01*
Y0012442D01*
X0049854Y0012220D01*
X0049361Y0012387D02*
X0049528D01*
X0049555Y0012331D01*
Y0012275D01*
X0049528Y0012220D01*
X0049361D01*
X0049333Y0012275D01*
Y0012331D01*
X0049444Y0012553D01*
X0049062Y0012387D02*
X0049145Y0012220D01*
X0048923Y0012387D02*
X0049090D01*
X0049145Y0012442D01*
Y0012498D01*
X0049090Y0012553D01*
X0048923D01*
Y0012220D01*
X0054493Y0024025D02*
X0054521Y0023970D01*
X0054688D01*
X0054715Y0024025D01*
Y0024137D01*
X0054660Y0024192D01*
X0054493D01*
Y0024303D01*
X0054715D01*
X0054305Y0024081D02*
X0054083D01*
X0054194Y0024303D01*
X0054250D01*
Y0023970D01*
X0053812Y0024137D02*
X0053895Y0023970D01*
X0053673Y0024137D02*
X0053840D01*
X0053895Y0024192D01*
Y0024248D01*
X0053840Y0024303D01*
X0053673D01*
Y0023970D01*
X0013875Y0002625D02*
Y0004375D01*
X0013125D01*
Y0002625D01*
X0013875D01*
X0013500Y0004625D02*
Y0004375D01*
Y0002375D02*
Y0002625D01*
X0063500Y0037500D02*
Y0033500D01*
X0061500D01*
Y0037500D01*
X0063500D01*
X0063000D02*
Y0037250D01*
X0062000D01*
Y0037500D01*
X0049375Y0021875D02*
X0047625D01*
Y0021125D01*
X0049375D01*
Y0021875D01*
X0047375Y0021500D02*
X0047625D01*
X0049625D02*
X0049375D01*
X0018125Y0017375D02*
Y0015625D01*
X0018875D01*
Y0017375D01*
X0018125D01*
X0018500Y0015375D02*
Y0015625D01*
Y0017625D02*
Y0017375D01*
X0059375Y0016875D02*
X0057625D01*
Y0016125D01*
X0059375D01*
Y0016875D01*
X0057375Y0016500D02*
X0057625D01*
X0059625D02*
X0059375D01*
X0049000Y0039500D02*
X0048000D01*
Y0043500D01*
X0049000D01*
Y0039500D01*
X0032375Y0037375D02*
X0030625D01*
Y0036625D01*
X0032375D01*
Y0037375D01*
X0030375Y0037000D02*
X0030625D01*
X0032625D02*
X0032375D01*
X0055375Y0025875D02*
X0053625D01*
Y0025125D01*
X0055375D01*
Y0025875D01*
X0053375Y0025500D02*
X0053625D01*
X0055625D02*
X0055375D01*
X0050375Y0010875D02*
X0048625D01*
Y0010125D01*
X0050375D01*
Y0010875D01*
X0048375Y0010500D02*
X0048625D01*
X0050625D02*
X0050375D01*
X0060000Y0006000D02*
X0058000D01*
Y0005000D02*
X0060000D01*
X0038500Y0007000D02*
Y0003000D01*
X0036500D01*
Y0007000D01*
X0038500D01*
X0038000D02*
Y0006750D01*
X0037000D01*
Y0007000D01*
X0057625Y0034625D02*
X0059375D01*
Y0035375D01*
X0057625D01*
Y0034625D01*
X0059625Y0035000D02*
X0059375D01*
X0057375D02*
X0057625D01*
X0008875Y0002625D02*
Y0004375D01*
X0008125D01*
Y0002625D01*
X0008875D01*
X0008500Y0004625D02*
Y0004375D01*
Y0002375D02*
Y0002625D01*
X0007875D02*
Y0004375D01*
X0007125D01*
Y0002625D01*
X0007875D01*
X0007500Y0004625D02*
Y0004375D01*
Y0002375D02*
Y0002625D01*
X0054500Y0033000D02*
Y0029000D01*
X0052500D01*
Y0033000D01*
X0054500D01*
X0054000D02*
Y0032750D01*
X0053000D01*
Y0033000D01*
X0045500Y0037500D02*
Y0033500D01*
X0043500D01*
Y0037500D01*
X0045500D01*
X0045000D02*
Y0037250D01*
X0044000D01*
Y0037500D01*
X0032375Y0012875D02*
X0030625D01*
Y0012125D01*
X0032375D01*
Y0012875D01*
X0030375Y0012500D02*
X0030625D01*
X0032625D02*
X0032375D01*
X0060000Y0005000D02*
X0058000D01*
Y0004000D02*
X0060000D01*
X0009000Y0037500D02*
X0008000D01*
Y0043500D01*
X0009000D01*
Y0037500D01*
X0048625Y0034625D02*
X0050375D01*
Y0035375D01*
X0048625D01*
Y0034625D01*
X0050625Y0035000D02*
X0050375D01*
X0048375D02*
X0048625D01*
X0047000Y0007000D02*
Y0003000D01*
X0045000D01*
Y0007000D01*
X0047000D01*
X0046500D02*
Y0006750D01*
X0045500D01*
Y0007000D01*
X0063375Y0025875D02*
X0061625D01*
Y0025125D01*
X0063375D01*
Y0025875D01*
X0061375Y0025500D02*
X0061625D01*
X0063625D02*
X0063375D01*
X0006875Y0002625D02*
Y0004375D01*
X0006125D01*
Y0002625D01*
X0006875D01*
X0006500Y0004625D02*
Y0004375D01*
Y0002375D02*
Y0002625D01*
X0037000Y0039500D02*
X0036000D01*
Y0043500D01*
X0037000D01*
Y0039500D01*
X0041375Y0037375D02*
X0039625D01*
Y0036625D01*
X0041375D01*
Y0037375D01*
X0039375Y0037000D02*
X0039625D01*
X0041625D02*
X0041375D01*
X0032375Y0016875D02*
X0030625D01*
Y0016125D01*
X0032375D01*
Y0016875D01*
X0030375Y0016500D02*
X0030625D01*
X0032625D02*
X0032375D01*
X0039625Y0030125D02*
X0041375D01*
Y0030875D01*
X0039625D01*
Y0030125D01*
X0041625Y0030500D02*
X0041375D01*
X0039375D02*
X0039625D01*
X0022875Y0002625D02*
Y0004375D01*
X0022125D01*
Y0002625D01*
X0022875D01*
X0022500Y0004625D02*
Y0004375D01*
Y0002375D02*
Y0002625D01*
X0059375Y0032875D02*
X0057625D01*
Y0032125D01*
X0059375D01*
Y0032875D01*
X0057375Y0032500D02*
X0057625D01*
X0059625D02*
X0059375D01*
X0039625Y0009125D02*
X0041375D01*
Y0009875D01*
X0039625D01*
Y0009125D01*
X0041625Y0009500D02*
X0041375D01*
X0039375D02*
X0039625D01*
X0063375Y0019875D02*
X0061625D01*
Y0019125D01*
X0063375D01*
Y0019875D01*
X0061375Y0019500D02*
X0061625D01*
X0063625D02*
X0063375D01*
X0030625Y0030125D02*
X0032375D01*
Y0030875D01*
X0030625D01*
Y0030125D01*
X0032625Y0030500D02*
X0032375D01*
X0030375D02*
X0030625D01*
X0021000Y0037500D02*
X0020000D01*
Y0043500D01*
X0021000D01*
Y0037500D01*
X0030625Y0015125D02*
X0032375D01*
Y0015875D01*
X0030625D01*
Y0015125D01*
X0032625Y0015500D02*
X0032375D01*
X0030375D02*
X0030625D01*
X0071000Y0011500D02*
Y0010500D01*
X0067000D01*
Y0011500D01*
X0071000D01*
X0030625Y0009125D02*
X0032375D01*
Y0009875D01*
X0030625D01*
Y0009125D01*
X0032625Y0009500D02*
X0032375D01*
X0030375D02*
X0030625D01*
X0061000Y0039500D02*
X0060000D01*
Y0043500D01*
X0061000D01*
Y0039500D01*
X0043500Y0019000D02*
X0045500D01*
Y0027000D01*
X0043500D01*
Y0019000D01*
X0045000Y0027000D02*
Y0026750D01*
X0044000D01*
Y0027000D01*
X0050375Y0014875D02*
X0048625D01*
Y0014125D01*
X0050375D01*
Y0014875D01*
X0048375Y0014500D02*
X0048625D01*
X0050625D02*
X0050375D01*
X0063000Y0017000D02*
X0063500D01*
Y0010000D01*
X0061500D01*
Y0017000D01*
X0063000D01*
Y0016750D01*
X0062000D01*
Y0017000D01*
X0033000Y0039500D02*
X0032000D01*
Y0043500D01*
X0033000D01*
Y0039500D01*
X0057625Y0013125D02*
X0059375D01*
Y0013875D01*
X0057625D01*
Y0013125D01*
X0059625Y0013500D02*
X0059375D01*
X0057375D02*
X0057625D01*
X0009000Y0033759D02*
X0024997D01*
Y0032000D01*
X0009000D01*
Y0033759D01*
X0043500Y0006000D02*
X0041500D01*
Y0005000D02*
X0043500D01*
X0057625Y0030125D02*
X0059375D01*
Y0030875D01*
X0057625D01*
Y0030125D01*
X0059625Y0030500D02*
X0059375D01*
X0057375D02*
X0057625D01*
X0041375Y0023875D02*
X0039625D01*
Y0023125D01*
X0041375D01*
Y0023875D01*
X0039375Y0023500D02*
X0039625D01*
X0041625D02*
X0041375D01*
X0016875Y0002625D02*
Y0004375D01*
X0016125D01*
Y0002625D01*
X0016875D01*
X0016500Y0004625D02*
Y0004375D01*
Y0002375D02*
Y0002625D01*
X0041000Y0039500D02*
X0040000D01*
Y0043500D01*
X0041000D01*
Y0039500D01*
X0018875Y0002625D02*
Y0004375D01*
X0018125D01*
Y0002625D01*
X0018875D01*
X0018500Y0004625D02*
Y0004375D01*
Y0002375D02*
Y0002625D01*
X0043500Y0007000D02*
X0041500D01*
Y0006000D02*
X0043500D01*
X0059375Y0037375D02*
X0057625D01*
Y0036625D01*
X0059375D01*
Y0037375D01*
X0057375Y0037000D02*
X0057625D01*
X0059625D02*
X0059375D01*
X0019875Y0002625D02*
Y0004375D01*
X0019125D01*
Y0002625D01*
X0019875D01*
X0019500Y0004625D02*
Y0004375D01*
Y0002375D02*
Y0002625D01*
X0041375Y0021875D02*
X0039625D01*
Y0021125D01*
X0041375D01*
Y0021875D01*
X0039375Y0021500D02*
X0039625D01*
X0041625D02*
X0041375D01*
X0048625Y0011125D02*
X0050375D01*
Y0011875D01*
X0048625D01*
Y0011125D01*
X0050625Y0011500D02*
X0050375D01*
X0048375D02*
X0048625D01*
X0049375Y0019875D02*
X0047625D01*
Y0019125D01*
X0049375D01*
Y0019875D01*
X0047375Y0019500D02*
X0047625D01*
X0049625D02*
X0049375D01*
X0005875Y0002625D02*
Y0004375D01*
X0005125D01*
Y0002625D01*
X0005875D01*
X0005500Y0004625D02*
Y0004375D01*
Y0002375D02*
Y0002625D01*
X0030625Y0013125D02*
X0032375D01*
Y0013875D01*
X0030625D01*
Y0013125D01*
X0032625Y0013500D02*
X0032375D01*
X0030375D02*
X0030625D01*
X0069000Y0039500D02*
X0068000D01*
Y0043500D01*
X0069000D01*
Y0039500D01*
X0049375Y0026875D02*
X0047625D01*
Y0026125D01*
X0049375D01*
Y0026875D01*
X0047375Y0026500D02*
X0047625D01*
X0049625D02*
X0049375D01*
X0057000Y0039500D02*
X0056000D01*
Y0043500D01*
X0057000D01*
Y0039500D01*
X0057625Y0014125D02*
X0059375D01*
Y0014875D01*
X0057625D01*
Y0014125D01*
X0059625Y0014500D02*
X0059375D01*
X0057375D02*
X0057625D01*
X0027875Y0002625D02*
Y0004375D01*
X0027125D01*
Y0002625D01*
X0027875D01*
X0027500Y0004625D02*
Y0004375D01*
Y0002375D02*
Y0002625D01*
X0041375Y0019875D02*
X0039625D01*
Y0019125D01*
X0041375D01*
Y0019875D01*
X0039375Y0019500D02*
X0039625D01*
X0041625D02*
X0041375D01*
Y0014875D02*
X0039625D01*
Y0014125D01*
X0041375D01*
Y0014875D01*
X0039375Y0014500D02*
X0039625D01*
X0041625D02*
X0041375D01*
X0071000Y0027500D02*
Y0026500D01*
X0067000D01*
Y0027500D01*
X0071000D01*
X0057625Y0012125D02*
X0059375D01*
Y0012875D01*
X0057625D01*
Y0012125D01*
X0059625Y0012500D02*
X0059375D01*
X0057375D02*
X0057625D01*
X0039625Y0015125D02*
X0041375D01*
Y0015875D01*
X0039625D01*
Y0015125D01*
X0041625Y0015500D02*
X0041375D01*
X0039375D02*
X0039625D01*
X0071000Y0023500D02*
Y0022500D01*
X0067000D01*
Y0023500D01*
X0071000D01*
X0036000Y0017000D02*
X0036500D01*
Y0010000D01*
X0034500D01*
Y0017000D01*
X0036000D01*
Y0016750D01*
X0035000D01*
Y0017000D01*
X0041375Y0012875D02*
X0039625D01*
Y0012125D01*
X0041375D01*
Y0012875D01*
X0039375Y0012500D02*
X0039625D01*
X0041625D02*
X0041375D01*
X0063375Y0022875D02*
X0061625D01*
Y0022125D01*
X0063375D01*
Y0022875D01*
X0061375Y0022500D02*
X0061625D01*
X0063625D02*
X0063375D01*
X0054000Y0017000D02*
X0054500D01*
Y0010000D01*
X0052500D01*
Y0017000D01*
X0054000D01*
Y0016750D01*
X0053000D01*
Y0017000D01*
X0014875Y0002625D02*
Y0004375D01*
X0014125D01*
Y0002625D01*
X0014875D01*
X0014500Y0004625D02*
Y0004375D01*
Y0002375D02*
Y0002625D01*
X0025875D02*
Y0004375D01*
X0025125D01*
Y0002625D01*
X0025875D01*
X0025500Y0004625D02*
Y0004375D01*
Y0002375D02*
Y0002625D01*
X0071000Y0015500D02*
Y0014500D01*
X0067000D01*
Y0015500D01*
X0071000D01*
X0043500Y0004000D02*
X0041500D01*
Y0003000D02*
X0043500D01*
X0048625Y0030125D02*
X0050375D01*
Y0030875D01*
X0048625D01*
Y0030125D01*
X0050625Y0030500D02*
X0050375D01*
X0048375D02*
X0048625D01*
X0041375Y0010875D02*
X0039625D01*
Y0010125D01*
X0041375D01*
Y0010875D01*
X0039375Y0010500D02*
X0039625D01*
X0041625D02*
X0041375D01*
X0036500Y0037500D02*
Y0033500D01*
X0034500D01*
Y0037500D01*
X0036500D01*
X0036000D02*
Y0037250D01*
X0035000D01*
Y0037500D01*
X0030625Y0034625D02*
X0032375D01*
Y0035375D01*
X0030625D01*
Y0034625D01*
X0032625Y0035000D02*
X0032375D01*
X0030375D02*
X0030625D01*
X0050375Y0016875D02*
X0048625D01*
Y0016125D01*
X0050375D01*
Y0016875D01*
X0048375Y0016500D02*
X0048625D01*
X0050625D02*
X0050375D01*
X0063375Y0024875D02*
X0061625D01*
Y0024125D01*
X0063375D01*
Y0024875D01*
X0061375Y0024500D02*
X0061625D01*
X0063625D02*
X0063375D01*
X0009000Y0020209D02*
X0024997D01*
Y0018450D01*
X0009000D01*
Y0020209D01*
X0003875Y0002625D02*
Y0004375D01*
X0003125D01*
Y0002625D01*
X0003875D01*
X0003500Y0004625D02*
Y0004375D01*
Y0002375D02*
Y0002625D01*
X0025000Y0039500D02*
X0024000D01*
Y0043500D01*
X0025000D01*
Y0039500D01*
X0024875Y0002625D02*
Y0004375D01*
X0024125D01*
Y0002625D01*
X0024875D01*
X0024500Y0004625D02*
Y0004375D01*
Y0002375D02*
Y0002625D01*
X0032375Y0010875D02*
X0030625D01*
Y0010125D01*
X0032375D01*
Y0010875D01*
X0030375Y0010500D02*
X0030625D01*
X0032625D02*
X0032375D01*
X0017000Y0013500D02*
Y0015500D01*
X0009000D01*
Y0013500D01*
X0017000D01*
X0009000Y0015000D02*
X0009250D01*
Y0014000D01*
X0009000D01*
X0063375Y0021875D02*
X0061625D01*
Y0021125D01*
X0063375D01*
Y0021875D01*
X0061375Y0021500D02*
X0061625D01*
X0063625D02*
X0063375D01*
X0029000Y0006500D02*
Y0008500D01*
X0021000D01*
Y0006500D01*
X0029000D01*
X0021000Y0008000D02*
X0021250D01*
Y0007000D01*
X0021000D01*
X0052000Y0005000D02*
X0050000D01*
Y0004000D02*
X0052000D01*
X0019125Y0017375D02*
Y0015625D01*
X0019875D01*
Y0017375D01*
X0019125D01*
X0019500Y0015375D02*
Y0015625D01*
Y0017625D02*
Y0017375D01*
X0054500Y0037500D02*
Y0033500D01*
X0052500D01*
Y0037500D01*
X0054500D01*
X0054000D02*
Y0037250D01*
X0053000D01*
Y0037500D01*
X0017000D02*
X0016000D01*
Y0043500D01*
X0017000D01*
Y0037500D01*
X0023875Y0002625D02*
Y0004375D01*
X0023125D01*
Y0002625D01*
X0023875D01*
X0023500Y0004625D02*
Y0004375D01*
Y0002375D02*
Y0002625D01*
X0035000Y0004000D02*
X0033000D01*
Y0003000D02*
X0035000D01*
X0057625Y0010125D02*
X0059375D01*
Y0010875D01*
X0057625D01*
Y0010125D01*
X0059625Y0010500D02*
X0059375D01*
X0057375D02*
X0057625D01*
X0063375Y0026875D02*
X0061625D01*
Y0026125D01*
X0063375D01*
Y0026875D01*
X0061375Y0026500D02*
X0061625D01*
X0063625D02*
X0063375D01*
X0071000Y0019500D02*
Y0018500D01*
X0067000D01*
Y0019500D01*
X0071000D01*
X0039625Y0034625D02*
X0041375D01*
Y0035375D01*
X0039625D01*
Y0034625D01*
X0041625Y0035000D02*
X0041375D01*
X0039375D02*
X0039625D01*
X0032375Y0014875D02*
X0030625D01*
Y0014125D01*
X0032375D01*
Y0014875D01*
X0030375Y0014500D02*
X0030625D01*
X0032625D02*
X0032375D01*
X0048625Y0009125D02*
X0050375D01*
Y0009875D01*
X0048625D01*
Y0009125D01*
X0050625Y0009500D02*
X0050375D01*
X0048375D02*
X0048625D01*
X0045500Y0033000D02*
Y0029000D01*
X0043500D01*
Y0033000D01*
X0045500D01*
X0045000D02*
Y0032750D01*
X0044000D01*
Y0033000D01*
X0049375Y0023875D02*
X0047625D01*
Y0023125D01*
X0049375D01*
Y0023875D01*
X0047375Y0023500D02*
X0047625D01*
X0049625D02*
X0049375D01*
X0021875Y0002625D02*
Y0004375D01*
X0021125D01*
Y0002625D01*
X0021875D01*
X0021500Y0004625D02*
Y0004375D01*
Y0002375D02*
Y0002625D01*
X0057500Y0019000D02*
X0059500D01*
Y0027000D01*
X0057500D01*
Y0019000D01*
X0059000Y0027000D02*
Y0026750D01*
X0058000D01*
Y0027000D01*
X0050375Y0015875D02*
X0048625D01*
Y0015125D01*
X0050375D01*
Y0015875D01*
X0048375Y0015500D02*
X0048625D01*
X0050625D02*
X0050375D01*
X0032375Y0032875D02*
X0030625D01*
Y0032125D01*
X0032375D01*
Y0032875D01*
X0030375Y0032500D02*
X0030625D01*
X0032625D02*
X0032375D01*
X0063500Y0033000D02*
Y0029000D01*
X0061500D01*
Y0033000D01*
X0063500D01*
X0063000D02*
Y0032750D01*
X0062000D01*
Y0033000D01*
X0065000Y0039500D02*
X0064000D01*
Y0043500D01*
X0065000D01*
Y0039500D01*
X0035000Y0005000D02*
X0033000D01*
Y0004000D02*
X0035000D01*
X0049375Y0024875D02*
X0047625D01*
Y0024125D01*
X0049375D01*
Y0024875D01*
X0047375Y0024500D02*
X0047625D01*
X0049625D02*
X0049375D01*
X0020000Y0006500D02*
Y0008500D01*
X0012000D01*
Y0006500D01*
X0020000D01*
X0012000Y0008000D02*
X0012250D01*
Y0007000D01*
X0012000D01*
X0041375Y0016875D02*
X0039625D01*
Y0016125D01*
X0041375D01*
Y0016875D01*
X0039375Y0016500D02*
X0039625D01*
X0041625D02*
X0041375D01*
X0039625Y0013125D02*
X0041375D01*
Y0013875D01*
X0039625D01*
Y0013125D01*
X0041625Y0013500D02*
X0041375D01*
X0039375D02*
X0039625D01*
X0055500Y0007000D02*
Y0003000D01*
X0053500D01*
Y0007000D01*
X0055500D01*
X0055000D02*
Y0006750D01*
X0054000D01*
Y0007000D01*
X0029000Y0039500D02*
X0028000D01*
Y0043500D01*
X0029000D01*
Y0039500D01*
X0035000Y0006000D02*
X0033000D01*
Y0005000D02*
X0035000D01*
X0013000Y0037500D02*
X0012000D01*
Y0043500D01*
X0013000D01*
Y0037500D01*
X0060000Y0004000D02*
X0058000D01*
Y0003000D02*
X0060000D01*
X0039625Y0032125D02*
X0041375D01*
Y0032875D01*
X0039625D01*
Y0032125D01*
X0041625Y0032500D02*
X0041375D01*
X0039375D02*
X0039625D01*
X0049375Y0022875D02*
X0047625D01*
Y0022125D01*
X0049375D01*
Y0022875D01*
X0047375Y0022500D02*
X0047625D01*
X0049625D02*
X0049375D01*
X0060000Y0007000D02*
X0058000D01*
Y0006000D02*
X0060000D01*
X0055375Y0019875D02*
X0053625D01*
Y0019125D01*
X0055375D01*
Y0019875D01*
X0053375Y0019500D02*
X0053625D01*
X0055625D02*
X0055375D01*
X0017875Y0002625D02*
Y0004375D01*
X0017125D01*
Y0002625D01*
X0017875D01*
X0017500Y0004625D02*
Y0004375D01*
Y0002375D02*
Y0002625D01*
X0049375Y0020875D02*
X0047625D01*
Y0020125D01*
X0049375D01*
Y0020875D01*
X0047375Y0020500D02*
X0047625D01*
X0049625D02*
X0049375D01*
X0050375Y0037375D02*
X0048625D01*
Y0036625D01*
X0050375D01*
Y0037375D01*
X0048375Y0037000D02*
X0048625D01*
X0050625D02*
X0050375D01*
Y0013875D02*
X0048625D01*
Y0013125D01*
X0050375D01*
Y0013875D01*
X0048375Y0013500D02*
X0048625D01*
X0050625D02*
X0050375D01*
X0053000Y0039500D02*
X0052000D01*
Y0043500D01*
X0053000D01*
Y0039500D01*
X0035000Y0007000D02*
X0033000D01*
Y0006000D02*
X0035000D01*
X0052000D02*
X0050000D01*
Y0005000D02*
X0052000D01*
X0030625Y0011125D02*
X0032375D01*
Y0011875D01*
X0030625D01*
Y0011125D01*
X0032625Y0011500D02*
X0032375D01*
X0030375D02*
X0030625D01*
X0059375Y0009875D02*
X0057625D01*
Y0009125D01*
X0059375D01*
Y0009875D01*
X0057375Y0009500D02*
X0057625D01*
X0059625D02*
X0059375D01*
X0009875Y0002625D02*
Y0004375D01*
X0009125D01*
Y0002625D01*
X0009875D01*
X0009500Y0004625D02*
Y0004375D01*
Y0002375D02*
Y0002625D01*
X0015875D02*
Y0004375D01*
X0015125D01*
Y0002625D01*
X0015875D01*
X0015500Y0004625D02*
Y0004375D01*
Y0002375D02*
Y0002625D01*
X0039625Y0011125D02*
X0041375D01*
Y0011875D01*
X0039625D01*
Y0011125D01*
X0041625Y0011500D02*
X0041375D01*
X0039375D02*
X0039625D01*
X0055375Y0021875D02*
X0053625D01*
Y0021125D01*
X0055375D01*
Y0021875D01*
X0053375Y0021500D02*
X0053625D01*
X0055625D02*
X0055375D01*
X0039625Y0025125D02*
X0041375D01*
Y0025875D01*
X0039625D01*
Y0025125D01*
X0041625Y0025500D02*
X0041375D01*
X0039375D02*
X0039625D01*
X0012875Y0002625D02*
Y0004375D01*
X0012125D01*
Y0002625D01*
X0012875D01*
X0012500Y0004625D02*
Y0004375D01*
Y0002375D02*
Y0002625D01*
X0045000Y0017000D02*
X0045500D01*
Y0010000D01*
X0043500D01*
Y0017000D01*
X0045000D01*
Y0016750D01*
X0044000D01*
Y0017000D01*
X0059375Y0015875D02*
X0057625D01*
Y0015125D01*
X0059375D01*
Y0015875D01*
X0057375Y0015500D02*
X0057625D01*
X0059625D02*
X0059375D01*
X0052000Y0007000D02*
X0050000D01*
Y0006000D02*
X0052000D01*
X0011000Y0006500D02*
Y0008500D01*
X0003000D01*
Y0006500D01*
X0011000D01*
X0003000Y0008000D02*
X0003250D01*
Y0007000D01*
X0003000D01*
X0063500D02*
Y0003000D01*
X0061500D01*
Y0007000D01*
X0063500D01*
X0063000D02*
Y0006750D01*
X0062000D01*
Y0007000D01*
X0028875Y0002625D02*
Y0004375D01*
X0028125D01*
Y0002625D01*
X0028875D01*
X0028500Y0004625D02*
Y0004375D01*
Y0002375D02*
Y0002625D01*
X0059375Y0011875D02*
X0057625D01*
Y0011125D01*
X0059375D01*
Y0011875D01*
X0057375Y0011500D02*
X0057625D01*
X0059625D02*
X0059375D01*
X0010875Y0002625D02*
Y0004375D01*
X0010125D01*
Y0002625D01*
X0010875D01*
X0010500Y0004625D02*
Y0004375D01*
Y0002375D02*
Y0002625D01*
X0043500Y0005000D02*
X0041500D01*
Y0004000D02*
X0043500D01*
X0049375Y0025875D02*
X0047625D01*
Y0025125D01*
X0049375D01*
Y0025875D01*
X0047375Y0025500D02*
X0047625D01*
X0049625D02*
X0049375D01*
X0063375Y0020875D02*
X0061625D01*
Y0020125D01*
X0063375D01*
Y0020875D01*
X0061375Y0020500D02*
X0061625D01*
X0063625D02*
X0063375D01*
X0004875Y0002625D02*
Y0004375D01*
X0004125D01*
Y0002625D01*
X0004875D01*
X0004500Y0004625D02*
Y0004375D01*
Y0002375D02*
Y0002625D01*
X0036500Y0033000D02*
Y0029000D01*
X0034500D01*
Y0033000D01*
X0036500D01*
X0036000D02*
Y0032750D01*
X0035000D01*
Y0033000D01*
X0063375Y0023875D02*
X0061625D01*
Y0023125D01*
X0063375D01*
Y0023875D01*
X0061375Y0023500D02*
X0061625D01*
X0063625D02*
X0063375D01*
X0045000Y0039500D02*
X0044000D01*
Y0043500D01*
X0045000D01*
Y0039500D01*
X0050375Y0032875D02*
X0048625D01*
Y0032125D01*
X0050375D01*
Y0032875D01*
X0048375Y0032500D02*
X0048625D01*
X0050625D02*
X0050375D01*
X0026875Y0002625D02*
Y0004375D01*
X0026125D01*
Y0002625D01*
X0026875D01*
X0026500Y0004625D02*
Y0004375D01*
Y0002375D02*
Y0002625D01*
X0050375Y0012875D02*
X0048625D01*
Y0012125D01*
X0050375D01*
Y0012875D01*
X0048375Y0012500D02*
X0048625D01*
X0050625D02*
X0050375D01*
X0055375Y0023875D02*
X0053625D01*
Y0023125D01*
X0055375D01*
Y0023875D01*
X0053375Y0023500D02*
X0053625D01*
X0055625D02*
X0055375D01*
X0052000Y0004000D02*
X0050000D01*
Y0003000D02*
X0052000D01*
G01X0014000Y0010000D02*
G03X0015000Y0011000I0000000J0001000D01*
G03X0014000Y0012000I0001000J0000000D01*
G03X0013000Y0011000I0000000J0001000D01*
G03X0014000Y0010000I0001000J0000000D01*
G01X0011000Y0011000D02*
G03X0012000Y0010000I0001000J0000000D01*
G03X0013000Y0011000I0000000J0001000D01*
G03X0012000Y0012000I0001000J0000000D01*
G03X0011000Y0011000I0000000J0001000D01*
G01X0015000D02*
G03X0016000Y0010000I0001000J0000000D01*
G03X0017000Y0011000I0000000J0001000D01*
G03X0016000Y0012000I0001000J0000000D01*
G03X0015000Y0011000I0000000J0001000D01*
G01X0010000Y0012000D02*
G03X0009000Y0011000I0000000J0001000D01*
G03X0010000Y0010000I0001000J0000000D01*
G03X0011000Y0011000I0000000J0001000D01*
G03X0010000Y0012000I0001000J0000000D01*
G01X0008000D02*
G03X0007000Y0011000I0000000J0001000D01*
G03X0008000Y0010000I0001000J0000000D01*
G03X0009000Y0011000I0000000J0001000D01*
G03X0008000Y0012000I0001000J0000000D01*
G54D48*
G01X0036196Y0022958D02*
X0036029D01*
X0036112D02*
Y0023458D01*
X0036029Y0023375D01*
X0035621Y0022958D02*
X0035704D01*
Y0023042D01*
X0035621D01*
Y0022958D01*
X0035087D02*
X0035004Y0023042D01*
X0034962Y0023125D01*
Y0023292D01*
X0035004Y0023375D01*
X0035087Y0023458D01*
X0035171D01*
X0035254Y0023375D01*
X0035296Y0023292D01*
Y0023125D01*
X0035254Y0023042D01*
X0035171Y0022958D01*
X0035087D01*
X0034721Y0023292D02*
X0034554Y0022958D01*
X0034387Y0023292D01*
X0033383D02*
X0033217D01*
X0033175Y0023208D01*
X0033092D01*
Y0023292D02*
Y0022958D01*
X0032808D02*
X0032558D01*
X0032517Y0023042D01*
Y0023208D01*
X0032558Y0023292D01*
X0032808D01*
X0032850Y0023208D01*
Y0023125D01*
X0032517D01*
X0032275Y0022958D02*
X0032108D01*
X0032192D02*
Y0023458D01*
X0032108D01*
X0031825Y0022958D02*
X0031658D01*
X0031742D02*
Y0023458D01*
X0031658D01*
X0031083Y0022958D02*
X0031042Y0023042D01*
Y0023208D01*
X0031083Y0023292D01*
X0031333D01*
X0031375Y0023208D01*
Y0023042D01*
X0031333Y0022958D01*
X0031083D01*
X0030800Y0023292D02*
X0030633D01*
X0030592Y0023208D01*
X0030508D01*
Y0023292D02*
Y0022958D01*
X0030225Y0023292D02*
X0029975D01*
X0030267Y0022958D02*
X0030100D01*
X0030058Y0023042D01*
Y0023458D01*
X0029733Y0022958D02*
Y0023208D01*
X0029692Y0023292D01*
X0029442D01*
Y0022958D01*
X0028908D02*
X0028867Y0023042D01*
Y0023208D01*
X0028908Y0023292D01*
X0029158D01*
X0029200Y0023208D01*
Y0023042D01*
X0029158Y0022958D01*
X0028908D01*
X0028625Y0023042D02*
X0028583Y0022958D01*
X0028333D01*
X0028292Y0023042D01*
Y0023375D01*
X0028333Y0023458D01*
X0028583D01*
X0028625Y0023375D01*
X0013600Y0034800D02*
X0014400D01*
Y0035150D01*
X0013600D01*
Y0034800D01*
X0018100D02*
X0018900D01*
Y0035150D01*
X0018100D01*
Y0034800D01*
X0007000Y0033500D02*
X0002000D01*
Y0015500D01*
X0007000D01*
Y0033500D01*
X0003800Y0035400D02*
Y0034600D01*
X0004150D01*
Y0035400D01*
X0003800D01*
X0017100Y0034800D02*
X0017900D01*
Y0035150D01*
X0017100D01*
Y0034800D01*
X0014600D02*
X0015400D01*
Y0035150D01*
X0014600D01*
Y0034800D01*
X0003800Y0039400D02*
Y0038600D01*
X0004150D01*
Y0039400D01*
X0003800D01*
Y0038400D02*
Y0037600D01*
X0004150D01*
Y0038400D01*
X0003800D01*
Y0037400D02*
Y0036600D01*
X0004150D01*
Y0037400D01*
X0003800D01*
X0009800Y0017900D02*
Y0017100D01*
X0010150D01*
Y0017900D01*
X0009800D01*
X0003800Y0036400D02*
Y0035600D01*
X0004150D01*
Y0036400D01*
X0003800D01*
G54D49*
G01X0036605Y0024278D02*
X0036272D01*
X0036216Y0024389D01*
Y0024611D01*
X0036272Y0024722D01*
X0036605D01*
X0036661Y0024611D01*
Y0024500D01*
X0036216D01*
X0035861Y0024722D02*
X0035527D01*
X0035472Y0024611D01*
Y0024389D01*
X0035527Y0024278D01*
X0035861D01*
X0035116D02*
Y0024611D01*
X0035061Y0024722D01*
X0034727D01*
Y0024278D01*
X0034316D02*
X0033983D01*
X0033927Y0024389D01*
Y0024611D01*
X0033983Y0024722D01*
X0034316D01*
X0034372Y0024611D01*
Y0024500D01*
X0033927D01*
X0033460Y0024944D02*
Y0024945D01*
X0033461D01*
Y0024944D01*
X0033460D01*
X0033572Y0024278D02*
X0033350D01*
X0033461D02*
Y0024722D01*
X0033350D01*
X0032939D02*
X0032605D01*
X0032550Y0024611D01*
Y0024389D01*
X0032605Y0024278D01*
X0032939D01*
X0032194Y0024833D02*
X0032139Y0024944D01*
X0031805D01*
X0031750Y0024833D01*
Y0024722D01*
X0031805Y0024611D01*
X0032139D01*
X0032194Y0024500D01*
Y0024389D01*
X0032139Y0024278D01*
X0031805D01*
X0031750Y0024389D01*
X0031005Y0024278D02*
X0030950Y0024389D01*
Y0024611D01*
X0031005Y0024722D01*
X0031339D01*
X0031394Y0024611D01*
Y0024389D01*
X0031339Y0024278D01*
X0031005D01*
X0030539Y0024722D02*
X0030205D01*
X0030594Y0024278D02*
X0030372D01*
X0030317Y0024389D01*
Y0024944D01*
X0029628Y0024278D02*
Y0024611D01*
X0029850Y0024278D02*
Y0024611D01*
X0029794Y0024722D01*
X0029683D01*
X0029628Y0024611D01*
X0029572Y0024722D01*
X0029461D01*
X0029405Y0024611D01*
Y0024278D01*
X0028994D02*
X0028661D01*
X0028605Y0024389D01*
Y0024611D01*
X0028661Y0024722D01*
X0028994D01*
X0029050Y0024611D01*
Y0024500D01*
X0028605D01*
X0028139Y0024611D02*
X0027805D01*
Y0024278D02*
Y0024944D01*
X0028250D01*
M02*
