%
T1C0.0100F200S100
X001250Y015000
X002000Y004500
X005000Y030000
X005500Y031750
X005750Y025750
X006250Y031000
X006500Y014250
X006750Y013500
X006750Y024750
X006750Y026500
X006500Y029000
X006500Y032250
X006500Y036000
X007000Y012250
X007500Y029000
X007000Y030750
X007750Y015500
X008000Y012250
X007750Y028250
X007750Y032750
X008500Y034000
X008750Y026000
X008750Y030250
X009000Y036000
X010500Y021750
X011000Y001500
X011250Y021250
X011500Y017750
X012000Y014000
X012000Y021500
X012750Y022750
X012750Y025250
X013000Y001000
X014500Y030000
X014750Y021250
X015250Y031250
X015750Y030750
X016000Y012500
X016000Y014250
X016250Y027250
X016250Y036250
X016750Y028750
X018000Y000750
X018750Y037000
X019250Y011500
X019250Y013500
X020500Y002500
X020500Y006500
X020500Y013250
X020750Y017500
X021500Y026750
X023000Y035500
X023250Y026500
X023250Y027750
X024000Y028500
X024250Y027500
X024500Y044000
X025000Y038750
X025250Y010500
X025500Y025500
X025750Y026500
X025750Y028750
X025750Y032000
X025750Y039250
X026000Y007250
X026250Y031000
X026250Y038250
X026250Y043000
X026500Y035750
X026750Y010750
X026750Y042500
X027000Y016750
X027250Y010250
X027000Y032500
X027500Y014750
X027750Y025500
X028000Y033500
X028250Y027250
X028750Y008000
X028750Y021750
X029000Y028000
X029000Y030250
X029250Y020500
X029250Y023500
X029750Y002000
X029750Y024000
X030000Y008500
X030000Y019000
X030500Y022500
X030500Y034500
X030750Y008250
X031000Y004500
X031000Y033000
X031000Y034000
X030750Y038000
X031500Y031750
X031750Y019250
X031750Y023250
X031750Y038500
X032000Y035250
X032250Y019750
X032500Y008250
X032750Y007500
X033000Y018750
X033500Y021750
X033000Y037750
X033750Y018750
X034250Y028000
X035500Y028750
X036000Y018000
X036000Y037000
X037250Y004500
X037500Y018000
X037750Y003000
X038500Y039250
X038750Y028750
X039500Y001000
X039500Y024000
X040250Y002500
X040750Y022250
X040750Y024000
X040750Y027250
X041500Y030000
X043500Y010000
X044250Y023250
X045000Y037500
X046000Y002250
X047500Y031000
X048500Y027000
X049250Y021500
X049250Y038750
X049500Y007500
X050000Y012500
X049500Y017250
X049500Y043500
X050250Y017250
X051000Y006500
X051250Y002500
X052000Y009500
X053000Y018000
X053500Y029000
X053750Y011500
X054500Y028000
X054750Y017750
X055250Y028000
X057500Y029250
X058000Y008750
X058000Y010750
X059500Y043750
X059750Y036250
X061000Y018250
X061250Y009000
X062000Y018250
X062250Y006500
X062250Y008250
X062250Y010250
X062500Y007500
X064000Y009500
X065500Y004000
X065750Y024750
X065750Y027750
X065750Y029000
X066500Y000750
X066500Y004250
X067000Y031000
X066500Y032000
X067250Y001250
X067750Y003750
X067250Y010000
X068000Y008750
X069000Y028500
X068000Y033000
T2C0.0310F200S100
X003500Y002000
X004500Y002000
X004500Y005000
X003500Y005000
X005500Y002000
X006500Y002000
X006500Y005000
X005500Y005000
X007500Y002000
X007500Y005000
X007750Y010500
X007750Y011500
X008500Y002000
X009500Y002000
X009500Y005000
X008500Y005000
X010000Y010500
X010000Y011500
X010500Y002000
X010500Y005000
X011750Y011000
X012500Y002000
X012500Y005000
X012750Y011000
X013500Y002000
X013500Y005000
X014500Y002000
X015500Y002000
X015500Y005000
X014500Y005000
X014500Y010500
X014500Y011500
X016250Y011000
X016500Y002000
X016500Y005000
X017250Y011000
X017500Y002000
X017500Y005000
X018500Y002000
X019500Y002000
X019500Y005000
X018500Y005000
X018500Y015000
X019500Y015000
X019500Y018000
X018500Y018000
X021500Y002000
X022500Y002000
X022500Y005000
X021500Y005000
X023500Y002000
X024500Y002000
X024500Y005000
X023500Y005000
X025500Y002000
X026500Y002000
X026500Y005000
X025500Y005000
X027500Y002000
X028500Y002000
X028500Y005000
X027500Y005000
X030000Y009500
X030000Y010500
X030000Y011500
X030000Y012500
X030000Y013500
X030000Y014500
X030000Y015500
X030000Y016500
X033000Y009500
X033000Y010500
X033000Y011500
X033000Y012500
X033000Y013500
X033000Y014500
X033000Y015500
X033000Y016500
X033000Y030500
X033000Y032500
X033000Y035000
X033000Y037000
X030000Y030500
X030000Y032500
X030000Y035000
X030000Y037000
X039000Y009500
X039000Y010500
X039000Y011500
X039000Y012500
X039000Y013500
X039000Y014500
X039000Y015500
X039000Y016500
X039000Y019500
X039000Y021500
X039000Y023500
X039000Y025500
X039000Y030500
X039000Y032500
X039000Y035000
X039000Y037000
X042000Y009500
X042000Y010500
X042000Y011500
X042000Y012500
X042000Y013500
X042000Y014500
X042000Y015500
X042000Y016500
X042000Y019500
X042000Y021500
X042000Y023500
X042000Y025500
X042000Y030500
X042000Y032500
X042000Y035000
X042000Y037000
X047000Y019500
X047000Y020500
X047000Y021500
X047000Y022500
X047000Y023500
X047000Y024500
X047000Y025500
X047000Y026500
X048000Y009500
X048000Y010500
X048000Y011500
X048000Y012500
X048000Y013500
X048000Y014500
X048000Y015500
X048000Y016500
X048000Y030500
X048000Y032500
X048000Y035000
X048000Y037000
X050000Y019500
X050000Y020500
X050000Y021500
X050000Y022500
X050000Y023500
X050000Y024500
X050000Y025500
X050000Y026500
X051000Y009500
X051000Y010500
X051000Y011500
X051000Y012500
X051000Y013500
X051000Y014500
X051000Y015500
X051000Y016500
X051000Y030500
X051000Y032500
X051000Y035000
X051000Y037000
X053000Y019500
X053000Y021500
X053000Y023500
X053000Y025500
X056000Y019500
X056000Y021500
X056000Y023500
X056000Y025500
X057000Y009500
X057000Y010500
X057000Y011500
X057000Y012500
X057000Y013500
X057000Y014500
X057000Y015500
X057000Y016500
X060000Y009500
X060000Y010500
X060000Y011500
X060000Y012500
X060000Y013500
X060000Y014500
X060000Y015500
X060000Y016500
X060000Y030500
X060000Y032500
X060000Y035000
X060000Y037000
X057000Y030500
X057000Y032500
X057000Y035000
X057000Y037000
X061000Y019500
X061000Y020500
X061000Y021500
X061000Y022500
X061000Y023500
X061000Y024500
X061000Y025500
X061000Y026500
X064000Y019500
X064000Y020500
X064000Y021500
X064000Y022500
X064000Y023500
X064000Y024500
X064000Y025500
X064000Y026500
T4C0.0370F200S100
X008500Y038000
X008500Y039000
X008500Y040000
X008500Y041000
X008500Y042000
X008500Y043000
X009500Y018950
X009500Y019737
X009500Y032500
X009500Y033287
X010287Y018950
X010287Y019737
X011075Y018950
X011075Y019737
X011075Y032500
X010287Y032500
X010287Y033287
X011075Y033287
X011862Y018950
X011862Y019737
X011862Y032500
X011862Y033287
X012500Y038000
X012500Y039000
X012500Y040000
X012500Y041000
X012500Y042000
X012500Y043000
X012649Y018950
X012649Y019737
X013437Y018950
X013437Y019737
X013437Y032500
X012649Y032500
X012649Y033287
X013437Y033287
X014224Y018950
X014224Y019737
X015011Y018950
X015011Y019737
X015011Y032500
X014224Y032500
X014224Y033287
X015011Y033287
X015799Y018950
X015799Y019737
X015799Y032500
X015799Y033287
X016500Y038000
X016500Y039000
X016500Y040000
X016500Y041000
X016500Y042000
X016500Y043000
X016586Y018950
X016586Y019737
X017373Y018950
X017373Y019737
X017373Y032500
X016586Y032500
X016586Y033287
X017373Y033287
X018161Y018950
X018161Y019737
X018948Y018950
X018948Y019737
X018948Y032500
X018161Y032500
X018161Y033287
X018948Y033287
X019735Y018950
X019735Y019737
X019735Y032500
X019735Y033287
X020500Y038000
X020500Y039000
X020500Y040000
X020500Y041000
X020500Y042000
X020500Y043000
X020523Y018950
X020523Y019737
X021310Y018950
X021310Y019737
X021310Y032500
X020523Y032500
X020523Y033287
X021310Y033287
X022097Y018950
X022097Y019737
X022885Y018950
X022885Y019737
X022885Y032500
X022097Y032500
X022097Y033287
X022885Y033287
X023672Y018950
X023672Y019737
X024459Y018950
X024459Y019737
X024459Y032500
X023672Y032500
X023672Y033287
X024459Y033287
X024500Y040000
X024500Y041000
X024500Y042000
X024500Y043000
X028500Y040000
X028500Y041000
X028500Y042000
X028500Y043000
X032500Y040000
X032500Y041000
X032500Y042000
X032500Y043000
X036500Y040000
X036500Y041000
X036500Y042000
X036500Y043000
X040500Y040000
X040500Y041000
X040500Y042000
X040500Y043000
X044500Y040000
X044500Y041000
X044500Y042000
X044500Y043000
X048500Y040000
X048500Y041000
X048500Y042000
X048500Y043000
X052500Y040000
X052500Y041000
X052500Y042000
X052500Y043000
X056500Y040000
X056500Y041000
X056500Y042000
X056500Y043000
X060500Y040000
X060500Y041000
X060500Y042000
X060500Y043000
X064500Y040000
X064500Y041000
X064500Y042000
X064500Y043000
X067500Y011000
X067500Y015000
X067500Y019000
X067500Y023000
X067500Y027000
X068500Y011000
X069500Y011000
X069500Y015000
X068500Y015000
X068500Y019000
X069500Y019000
X069500Y023000
X068500Y023000
X068500Y027000
X069500Y027000
X068500Y040000
X068500Y041000
X068500Y042000
X068500Y043000
X070500Y011000
X070500Y015000
X070500Y019000
X070500Y023000
X070500Y027000
T5C0.0380F200S100
X003500Y035000
X003500Y036000
X003500Y037000
X003500Y038000
X003500Y039000
X004500Y035000
X004500Y036000
X004500Y037000
X004500Y038000
X004500Y039000
X009500Y017500
X010500Y017500
X014000Y034500
X014000Y035500
X015000Y034500
X015000Y035500
X017500Y034500
X017500Y035500
X018500Y034500
X018500Y035500
T3C0.0340F200S100
X003500Y006000
X004500Y006000
X004500Y009000
X003500Y009000
X005500Y006000
X006500Y006000
X006500Y009000
X005500Y009000
X007500Y006000
X008500Y006000
X008500Y009000
X007500Y009000
X009500Y006000
X010500Y006000
X010500Y009000
X009500Y009000
X009500Y013000
X010500Y013000
X010500Y016000
X009500Y016000
X011500Y013000
X011500Y016000
X012500Y006000
X012500Y009000
X012500Y013000
X012500Y016000
X013500Y006000
X014500Y006000
X014500Y009000
X013500Y009000
X013500Y013000
X014500Y013000
X014500Y016000
X013500Y016000
X015500Y006000
X016500Y006000
X016500Y009000
X015500Y009000
X015500Y013000
X016500Y013000
X016500Y016000
X015500Y016000
X017500Y006000
X018500Y006000
X018500Y009000
X017500Y009000
X019500Y006000
X021500Y006000
X021500Y009000
X019500Y009000
X022500Y006000
X023500Y006000
X023500Y009000
X022500Y009000
X024500Y006000
X025500Y006000
X025500Y009000
X024500Y009000
X026500Y006000
X027500Y006000
X027500Y009000
X026500Y009000
X028500Y006000
X028500Y009000
X033000Y003500
X033000Y004500
X033000Y005500
X033000Y006500
X034000Y010500
X034000Y011500
X034000Y012500
X034000Y013500
X034000Y014500
X034000Y015500
X034000Y016500
X034000Y029500
X034000Y030500
X034000Y031500
X034000Y032500
X034000Y034000
X034000Y035000
X034000Y036000
X034000Y037000
X035000Y003500
X035000Y004500
X035000Y005500
X035000Y006500
X036000Y003500
X036000Y004500
X036000Y005500
X036000Y006500
X037000Y010500
X037000Y011500
X037000Y012500
X037000Y013500
X037000Y014500
X037000Y015500
X037000Y016500
X037000Y029500
X037000Y030500
X037000Y031500
X037000Y032500
X037000Y034000
X037000Y035000
X037000Y036000
X037000Y037000
X039000Y003500
X039000Y004500
X039000Y005500
X039000Y006500
X041500Y003500
X041500Y004500
X041500Y005500
X041500Y006500
X043000Y010500
X043000Y011500
X043000Y012500
X043000Y013500
X043000Y014500
X043000Y015500
X043000Y016500
X043000Y019500
X043000Y020500
X043000Y021500
X043000Y022500
X043000Y023500
X043000Y024500
X043000Y025500
X043000Y026500
X043000Y029500
X043000Y030500
X043000Y031500
X043000Y032500
X043000Y034000
X043000Y035000
X043000Y036000
X043000Y037000
X043500Y003500
X043500Y004500
X043500Y005500
X043500Y006500
X044500Y003500
X044500Y004500
X044500Y005500
X044500Y006500
X046000Y010500
X046000Y011500
X046000Y012500
X046000Y013500
X046000Y014500
X046000Y015500
X046000Y016500
X046000Y019500
X046000Y020500
X046000Y021500
X046000Y022500
X046000Y023500
X046000Y024500
X046000Y025500
X046000Y026500
X046000Y029500
X046000Y030500
X046000Y031500
X046000Y032500
X046000Y034000
X046000Y035000
X046000Y036000
X046000Y037000
X047500Y003500
X047500Y004500
X047500Y005500
X047500Y006500
X050000Y003500
X050000Y004500
X050000Y005500
X050000Y006500
X052000Y003500
X052000Y004500
X052000Y005500
X052000Y006500
X053000Y003500
X053000Y004500
X053000Y005500
X053000Y006500
X052000Y010500
X052000Y011500
X052000Y012500
X052000Y013500
X052000Y014500
X052000Y015500
X052000Y016500
X052000Y029500
X052000Y030500
X052000Y031500
X052000Y032500
X052000Y034000
X052000Y035000
X052000Y036000
X052000Y037000
X055000Y010500
X055000Y011500
X055000Y012500
X055000Y013500
X055000Y014500
X055000Y015500
X055000Y016500
X055000Y029500
X055000Y030500
X055000Y031500
X055000Y032500
X055000Y034000
X055000Y035000
X055000Y036000
X055000Y037000
X056000Y003500
X056000Y004500
X056000Y005500
X056000Y006500
X057000Y019500
X057000Y020500
X057000Y021500
X057000Y022500
X057000Y023500
X057000Y024500
X057000Y025500
X057000Y026500
X058000Y003500
X058000Y004500
X058000Y005500
X058000Y006500
X060000Y003500
X060000Y004500
X060000Y005500
X060000Y006500
X061000Y003500
X061000Y004500
X061000Y005500
X061000Y006500
X061000Y010500
X061000Y011500
X061000Y012500
X061000Y013500
X061000Y014500
X061000Y015500
X061000Y016500
X060000Y019500
X060000Y020500
X060000Y021500
X060000Y022500
X060000Y023500
X060000Y024500
X060000Y025500
X060000Y026500
X061000Y029500
X061000Y030500
X061000Y031500
X061000Y032500
X061000Y034000
X061000Y035000
X061000Y036000
X061000Y037000
X064000Y003500
X064000Y004500
X064000Y005500
X064000Y006500
X064000Y010500
X064000Y011500
X064000Y012500
X064000Y013500
X064000Y014500
X064000Y015500
X064000Y016500
X064000Y029500
X064000Y030500
X064000Y031500
X064000Y032500
X064000Y034000
X064000Y035000
X064000Y036000
X064000Y037000
T6C0.0800F200S100
X004500Y017000
X004500Y020000
X004500Y023000
X004500Y026000
X004500Y029000
X004500Y032000
T7C0.1660F200S100
X001625Y001750
X001750Y043250
X070500Y001750
X070750Y043250
M30
