*
G04 Mass Parameters ***
*
G04 Image ***
*
%INZ:\CONTROLBOARD_PROJECT\CAD\CONTROLBOARD_CAD-23.DRD*%
%ICAS*%
%MOIN*%
%IPPOS*%
%ASAXBY*%
G74*%FSLAN2X34Y34*%
*
G04 Aperture Definitions ***
*
%ADD10C,0.0520*%
%ADD11C,0.0550*%
%ADD12C,0.0620*%
%ADD13C,0.1100*%
%ADD14C,0.0580*%
%ADD15R,0.0580X0.0580*%
%ADD16C,0.2047*%
%ADD17C,0.0010*%
%ADD18C,0.0120*%
%ADD19C,0.0250*%
%ADD20C,0.0500*%
%ADD21C,0.0800*%
%ADD22C,0.0250*%
%ADD23C,0.0520*%
%ADD24C,0.0550*%
%ADD25C,0.0620*%
%ADD26C,0.1100*%
%ADD27C,0.0580*%
%ADD28R,0.0580X0.0580*%
%ADD29C,0.2047*%
%ADD30C,0.0720*%
%ADD31C,0.0750*%
%ADD32C,0.0800*%
%ADD33C,0.1160*%
%ADD34C,0.0780*%
%ADD35R,0.0780X0.0780*%
%ADD36C,0.2362*%
%ADD37C,0.0370*%
%ADD38C,0.0370*%
%ADD39C,0.0670*%
%ADD40C,0.1150*%
%ADD41C,0.0270*%
%ADD42C,0.0270*%
%ADD43C,0.0080*%
%ADD44C,0.0100*%
%ADD45C,0.0150*%
*
G04 Plot Data ***
*
G54D20*
G01X0072250D01*
Y0045000D01*
X0000000D01*
Y0000000D01*
G54D44*
G01X0024292Y-0015833D02*
X0024125Y-0015667D01*
X0024042Y-0015500D01*
Y-0015167D01*
X0024125Y-0015000D01*
X0024292Y-0014833D01*
X0024458D01*
X0024625Y-0015000D01*
X0024708Y-0015167D01*
Y-0015500D01*
X0024625Y-0015667D01*
X0024458Y-0015833D01*
X0024292D01*
X0023175Y-0015333D02*
X0023675D01*
X0023758Y-0015500D01*
Y-0015667D01*
X0023675Y-0015833D01*
X0023175D01*
X0023092Y-0015667D01*
Y-0015500D01*
X0023425Y-0014833D01*
X0022725Y-0015333D02*
X0022808Y-0015167D01*
Y-0015000D01*
X0022725Y-0014833D01*
X0022225D01*
X0022142Y-0015000D01*
Y-0015167D01*
X0022225Y-0015333D01*
X0022725D01*
X0022808Y-0015500D01*
Y-0015667D01*
X0022725Y-0015833D01*
X0022225D01*
X0022142Y-0015667D01*
Y-0015500D01*
X0022225Y-0015333D01*
X0012312Y-0015833D02*
X0011729D01*
Y-0014833D01*
X0011446Y-0015500D02*
X0010779D01*
X0011446Y-0015833D02*
Y-0015333D01*
X0011196Y-0014833D01*
X0011029D01*
X0010779Y-0015333D01*
Y-0015833D01*
X0010162D02*
Y-0014833D01*
X0010496D02*
X0009829D01*
X0008962Y-0015833D02*
X0008879Y-0015667D01*
Y-0015000D01*
X0008962Y-0014833D01*
X0009462D01*
X0009546Y-0015000D01*
Y-0015667D01*
X0009462Y-0015833D01*
X0008962D01*
X0008262D02*
Y-0014833D01*
X0008596D02*
X0007929D01*
X0024708Y-0013750D02*
X0024264D01*
X0024486Y-0013306D01*
X0024597D01*
Y-0013972D01*
X0010703Y-0013639D02*
X0011036D01*
X0011092Y-0013750D01*
Y-0013861D01*
X0011036Y-0013972D01*
X0010703D01*
X0010647Y-0013861D01*
Y-0013750D01*
X0010869Y-0013306D01*
X0010392Y-0013972D02*
X0009947D01*
X0010392Y-0013528D01*
Y-0013417D01*
X0010336Y-0013306D01*
X0010003D01*
X0009947Y-0013417D01*
X0009692Y-0013972D02*
X0009469D01*
X0009580D02*
Y-0013306D01*
X0009469Y-0013417D01*
X0008992Y-0013972D02*
X0009103D01*
Y-0013861D01*
X0008992D01*
Y-0013972D01*
X0008347D02*
X0008236Y-0013861D01*
X0008181Y-0013750D01*
Y-0013528D01*
X0008236Y-0013417D01*
X0008347Y-0013306D01*
X0008458D01*
X0008569Y-0013417D01*
X0008625Y-0013528D01*
Y-0013750D01*
X0008569Y-0013861D01*
X0008458Y-0013972D01*
X0008347D01*
X0024319Y-0012139D02*
X0024653D01*
X0024708Y-0012250D01*
Y-0012361D01*
X0024653Y-0012472D01*
X0024319D01*
X0024264Y-0012361D01*
Y-0012250D01*
X0024486Y-0011806D01*
X0010814Y-0012472D02*
X0010703Y-0012361D01*
X0010647Y-0012250D01*
Y-0012028D01*
X0010703Y-0011917D01*
X0010814Y-0011806D01*
X0010925D01*
X0011036Y-0011917D01*
X0011092Y-0012028D01*
Y-0012250D01*
X0011036Y-0012361D01*
X0010925Y-0012472D01*
X0010814D01*
X0010336Y-0012139D02*
X0010392Y-0012028D01*
Y-0011917D01*
X0010336Y-0011806D01*
X0010003D01*
X0009947Y-0011917D01*
Y-0012028D01*
X0010003Y-0012139D01*
X0010336D01*
X0010392Y-0012250D01*
Y-0012361D01*
X0010336Y-0012472D01*
X0010003D01*
X0009947Y-0012361D01*
Y-0012250D01*
X0010003Y-0012139D01*
X0009414Y-0012472D02*
X0009303Y-0012361D01*
X0009247Y-0012250D01*
Y-0012028D01*
X0009303Y-0011917D01*
X0009414Y-0011806D01*
X0009525D01*
X0009636Y-0011917D01*
X0009692Y-0012028D01*
Y-0012250D01*
X0009636Y-0012361D01*
X0009525Y-0012472D01*
X0009414D01*
X0008881D02*
X0008992D01*
Y-0012361D01*
X0008881D01*
Y-0012472D01*
X0008236D02*
X0008125Y-0012361D01*
X0008069Y-0012250D01*
Y-0012028D01*
X0008125Y-0011917D01*
X0008236Y-0011806D01*
X0008347D01*
X0008458Y-0011917D01*
X0008514Y-0012028D01*
Y-0012250D01*
X0008458Y-0012361D01*
X0008347Y-0012472D01*
X0008236D01*
X0024430Y-0010972D02*
X0024319Y-0010861D01*
X0024264Y-0010750D01*
Y-0010528D01*
X0024319Y-0010417D01*
X0024430Y-0010306D01*
X0024542D01*
X0024653Y-0010417D01*
X0024708Y-0010528D01*
Y-0010750D01*
X0024653Y-0010861D01*
X0024542Y-0010972D01*
X0024430D01*
X0024008D02*
X0023564D01*
X0024008Y-0010528D01*
Y-0010417D01*
X0023953Y-0010306D01*
X0023619D01*
X0023564Y-0010417D01*
X0011036Y-0010639D02*
X0011092Y-0010528D01*
Y-0010417D01*
X0011036Y-0010306D01*
X0010703D01*
X0010647Y-0010417D01*
Y-0010528D01*
X0010703Y-0010639D01*
X0011036D01*
X0011092Y-0010750D01*
Y-0010861D01*
X0011036Y-0010972D01*
X0010703D01*
X0010647Y-0010861D01*
Y-0010750D01*
X0010703Y-0010639D01*
X0009947Y-0010861D02*
X0010058Y-0010972D01*
X0010280D01*
X0010392Y-0010861D01*
Y-0010750D01*
X0010169Y-0010528D01*
X0010392Y-0010306D01*
X0009947D01*
X0009414Y-0010972D02*
X0009303Y-0010861D01*
X0009247Y-0010750D01*
Y-0010528D01*
X0009303Y-0010417D01*
X0009414Y-0010306D01*
X0009525D01*
X0009636Y-0010417D01*
X0009692Y-0010528D01*
Y-0010750D01*
X0009636Y-0010861D01*
X0009525Y-0010972D01*
X0009414D01*
X0008881D02*
X0008992D01*
Y-0010861D01*
X0008881D01*
Y-0010972D01*
X0008236D02*
X0008125Y-0010861D01*
X0008069Y-0010750D01*
Y-0010528D01*
X0008125Y-0010417D01*
X0008236Y-0010306D01*
X0008347D01*
X0008458Y-0010417D01*
X0008514Y-0010528D01*
Y-0010750D01*
X0008458Y-0010861D01*
X0008347Y-0010972D01*
X0008236D01*
X0024708Y-0009472D02*
X0024264D01*
X0024708Y-0009028D01*
Y-0008917D01*
X0024653Y-0008806D01*
X0024319D01*
X0024264Y-0008917D01*
X0023675Y-0009472D02*
X0024008Y-0008806D01*
X0023564D01*
X0023308Y-0009472D02*
X0023086D01*
X0023197D02*
Y-0008806D01*
X0023086Y-0008917D01*
X0010758Y-0009472D02*
X0011092Y-0008806D01*
X0010647D01*
X0009947Y-0009361D02*
X0010058Y-0009472D01*
X0010280D01*
X0010392Y-0009361D01*
Y-0009250D01*
X0010169Y-0009028D01*
X0010392Y-0008806D01*
X0009947D01*
X0009414Y-0009472D02*
X0009303Y-0009361D01*
X0009247Y-0009250D01*
Y-0009028D01*
X0009303Y-0008917D01*
X0009414Y-0008806D01*
X0009525D01*
X0009636Y-0008917D01*
X0009692Y-0009028D01*
Y-0009250D01*
X0009636Y-0009361D01*
X0009525Y-0009472D01*
X0009414D01*
X0008881D02*
X0008992D01*
Y-0009361D01*
X0008881D01*
Y-0009472D01*
X0008236D02*
X0008125Y-0009361D01*
X0008069Y-0009250D01*
Y-0009028D01*
X0008125Y-0008917D01*
X0008236Y-0008806D01*
X0008347D01*
X0008458Y-0008917D01*
X0008514Y-0009028D01*
Y-0009250D01*
X0008458Y-0009361D01*
X0008347Y-0009472D01*
X0008236D01*
X0024430Y-0007972D02*
X0024319Y-0007861D01*
X0024264Y-0007750D01*
Y-0007528D01*
X0024319Y-0007417D01*
X0024430Y-0007306D01*
X0024542D01*
X0024653Y-0007417D01*
X0024708Y-0007528D01*
Y-0007750D01*
X0024653Y-0007861D01*
X0024542Y-0007972D01*
X0024430D01*
X0023953Y-0007639D02*
X0024008Y-0007528D01*
Y-0007417D01*
X0023953Y-0007306D01*
X0023619D01*
X0023564Y-0007417D01*
Y-0007528D01*
X0023619Y-0007639D01*
X0023953D01*
X0024008Y-0007750D01*
Y-0007861D01*
X0023953Y-0007972D01*
X0023619D01*
X0023564Y-0007861D01*
Y-0007750D01*
X0023619Y-0007639D01*
X0023308Y-0007972D02*
X0022864D01*
X0023308Y-0007528D01*
Y-0007417D01*
X0023253Y-0007306D01*
X0022919D01*
X0022864Y-0007417D01*
X0011092Y-0007750D02*
X0010647D01*
X0010869Y-0007306D01*
X0010980D01*
Y-0007972D01*
X0009947Y-0007861D02*
X0010058Y-0007972D01*
X0010280D01*
X0010392Y-0007861D01*
Y-0007750D01*
X0010169Y-0007528D01*
X0010392Y-0007306D01*
X0009947D01*
X0009414Y-0007972D02*
X0009303Y-0007861D01*
X0009247Y-0007750D01*
Y-0007528D01*
X0009303Y-0007417D01*
X0009414Y-0007306D01*
X0009525D01*
X0009636Y-0007417D01*
X0009692Y-0007528D01*
Y-0007750D01*
X0009636Y-0007861D01*
X0009525Y-0007972D01*
X0009414D01*
X0008881D02*
X0008992D01*
Y-0007861D01*
X0008881D01*
Y-0007972D01*
X0008236D02*
X0008125Y-0007861D01*
X0008069Y-0007750D01*
Y-0007528D01*
X0008125Y-0007417D01*
X0008236Y-0007306D01*
X0008347D01*
X0008458Y-0007417D01*
X0008514Y-0007528D01*
Y-0007750D01*
X0008458Y-0007861D01*
X0008347Y-0007972D01*
X0008236D01*
X0024319Y-0006139D02*
X0024653D01*
X0024708Y-0006250D01*
Y-0006361D01*
X0024653Y-0006472D01*
X0024319D01*
X0024264Y-0006361D01*
Y-0006250D01*
X0024486Y-0005806D01*
X0023730Y-0006472D02*
X0023619Y-0006361D01*
X0023564Y-0006250D01*
Y-0006028D01*
X0023619Y-0005917D01*
X0023730Y-0005806D01*
X0023842D01*
X0023953Y-0005917D01*
X0024008Y-0006028D01*
Y-0006250D01*
X0023953Y-0006361D01*
X0023842Y-0006472D01*
X0023730D01*
X0023308D02*
X0022864D01*
X0023308Y-0006028D01*
Y-0005917D01*
X0023253Y-0005806D01*
X0022919D01*
X0022864Y-0005917D01*
X0011092Y-0006472D02*
X0010869D01*
X0010980D02*
Y-0005806D01*
X0010869Y-0005917D01*
X0010058Y-0006361D02*
X0010169Y-0006472D01*
X0010392D01*
X0010503Y-0006361D01*
Y-0006250D01*
X0010280Y-0006028D01*
X0010503Y-0005806D01*
X0010058D01*
X0009525Y-0006472D02*
X0009414Y-0006361D01*
X0009358Y-0006250D01*
Y-0006028D01*
X0009414Y-0005917D01*
X0009525Y-0005806D01*
X0009636D01*
X0009747Y-0005917D01*
X0009803Y-0006028D01*
Y-0006250D01*
X0009747Y-0006361D01*
X0009636Y-0006472D01*
X0009525D01*
X0008992D02*
X0009103D01*
Y-0006361D01*
X0008992D01*
Y-0006472D01*
X0008347D02*
X0008236Y-0006361D01*
X0008181Y-0006250D01*
Y-0006028D01*
X0008236Y-0005917D01*
X0008347Y-0005806D01*
X0008458D01*
X0008569Y-0005917D01*
X0008625Y-0006028D01*
Y-0006250D01*
X0008569Y-0006361D01*
X0008458Y-0006472D01*
X0008347D01*
X0024708Y-0004972D02*
X0024264D01*
X0024708Y-0004528D01*
Y-0004417D01*
X0024653Y-0004306D01*
X0024319D01*
X0024264Y-0004417D01*
X0023675Y-0004972D02*
X0024008Y-0004306D01*
X0023564D01*
X0023308Y-0004972D02*
X0023086D01*
X0023197D02*
Y-0004306D01*
X0023086Y-0004417D01*
X0010814Y-0004972D02*
X0010703Y-0004861D01*
X0010647Y-0004750D01*
Y-0004528D01*
X0010703Y-0004417D01*
X0010814Y-0004306D01*
X0010925D01*
X0011036Y-0004417D01*
X0011092Y-0004528D01*
Y-0004750D01*
X0011036Y-0004861D01*
X0010925Y-0004972D01*
X0010814D01*
X0010392D02*
X0010169D01*
X0010280D02*
Y-0004306D01*
X0010169Y-0004417D01*
X0009525Y-0004972D02*
X0009414Y-0004861D01*
X0009358Y-0004750D01*
Y-0004528D01*
X0009414Y-0004417D01*
X0009525Y-0004306D01*
X0009636D01*
X0009747Y-0004417D01*
X0009803Y-0004528D01*
Y-0004750D01*
X0009747Y-0004861D01*
X0009636Y-0004972D01*
X0009525D01*
X0008992D02*
X0009103D01*
Y-0004861D01*
X0008992D01*
Y-0004972D01*
X0008347D02*
X0008236Y-0004861D01*
X0008181Y-0004750D01*
Y-0004528D01*
X0008236Y-0004417D01*
X0008347Y-0004306D01*
X0008458D01*
X0008569Y-0004417D01*
X0008625Y-0004528D01*
Y-0004750D01*
X0008569Y-0004861D01*
X0008458Y-0004972D01*
X0008347D01*
X0033112Y-0002833D02*
X0032612D01*
X0033279Y-0003333D02*
X0032612D01*
Y-0002333D01*
X0033279D01*
X0031996Y-0003333D02*
Y-0002333D01*
X0032329D02*
X0031662D01*
X0030796Y-0003333D02*
X0030712Y-0003167D01*
Y-0002500D01*
X0030796Y-0002333D01*
X0031296D01*
X0031379Y-0002500D01*
Y-0003167D01*
X0031296Y-0003333D01*
X0030796D01*
X0030429Y-0002333D02*
Y-0003333D01*
X0030262Y-0003167D01*
X0029929Y-0002500D01*
X0029762Y-0002333D01*
Y-0003333D01*
X0023925D02*
Y-0002833D01*
X0024258Y-0002333D02*
X0024008Y-0002833D01*
X0023842D01*
X0023592Y-0002333D01*
X0022975Y-0003333D02*
Y-0002333D01*
X0023308D02*
X0022642D01*
X0022025Y-0003000D02*
X0022358Y-0003333D01*
X0021692Y-0003167D02*
X0021775Y-0003333D01*
X0022108D01*
X0022192Y-0003167D01*
X0022358Y-0003000D01*
Y-0002500D01*
X0022275Y-0002333D01*
X0021775D01*
X0021692Y-0002500D01*
Y-0003167D01*
X0017408Y-0003333D02*
X0016825D01*
Y-0002333D01*
X0015958Y-0003333D02*
X0015875Y-0003167D01*
Y-0002500D01*
X0015958Y-0002333D01*
X0016458D01*
X0016542Y-0002500D01*
Y-0003167D01*
X0016458Y-0003333D01*
X0015958D01*
X0015258D02*
Y-0002333D01*
X0015592D02*
X0014925D01*
X0009587Y-0003333D02*
Y-0002333D01*
X0009421Y-0002500D01*
X0009254Y-0002833D01*
X0009087Y-0002500D01*
X0008921Y-0002333D01*
Y-0003333D01*
X0008637Y-0003000D02*
X0007971D01*
X0008637Y-0003333D02*
Y-0002833D01*
X0008387Y-0002333D01*
X0008221D01*
X0007971Y-0002833D01*
Y-0003333D01*
X0007687D02*
X0007354D01*
X0007521D02*
Y-0002333D01*
X0007687D02*
X0007354D01*
X0006321Y-0003333D02*
Y-0002333D01*
X0006237Y-0003333D02*
X0006737D01*
X0006904Y-0003000D01*
Y-0002667D01*
X0006737Y-0002333D01*
X0006237D01*
X0003150Y-0003333D02*
Y-0002333D01*
X0002983Y-0002500D01*
X0002817Y-0002833D01*
X0002650Y-0002500D01*
X0002483Y-0002333D01*
Y-0003333D01*
X0001867D02*
Y-0002833D01*
X0002200Y-0002333D02*
X0001950Y-0002833D01*
X0001783D01*
X0001533Y-0002333D01*
X0001250Y-0002500D02*
X0001167Y-0002333D01*
X0000667D01*
X0000583Y-0002500D01*
Y-0002667D01*
X0000667Y-0002833D01*
X0001167D01*
X0001250Y-0003000D01*
Y-0003167D01*
X0001167Y-0003333D01*
X0000667D01*
X0000583Y-0003167D01*
X0023437Y-0001333D02*
Y-0000333D01*
X0023771D02*
X0023104D01*
X0022571Y-0000833D02*
X0022821Y-0001333D01*
X0022154Y-0000833D02*
X0022654D01*
X0022821Y-0000667D01*
Y-0000500D01*
X0022654Y-0000333D01*
X0022154D01*
Y-0001333D01*
X0021871Y-0001000D02*
X0021204D01*
X0021871Y-0001333D02*
Y-0000833D01*
X0021621Y-0000333D01*
X0021454D01*
X0021204Y-0000833D01*
Y-0001333D01*
X0020921Y-0000833D02*
X0020254D01*
X0020921Y-0001333D02*
Y-0000333D01*
X0020254Y-0001333D02*
Y-0000333D01*
X0019971Y-0001167D02*
X0019887Y-0001333D01*
X0019387D01*
X0019304Y-0001167D01*
Y-0000500D01*
X0019387Y-0000333D01*
X0019887D01*
X0019971Y-0000500D01*
X0017696Y-0001333D02*
X0017112D01*
Y-0000333D01*
X0016829Y-0001333D02*
X0016246D01*
Y-0000333D01*
X0015962Y-0001333D02*
X0015629D01*
X0015796D02*
Y-0000333D01*
X0015962D02*
X0015629D01*
X0014929Y-0000833D02*
X0015179Y-0001333D01*
X0014512Y-0000833D02*
X0015012D01*
X0015179Y-0000667D01*
Y-0000500D01*
X0015012Y-0000333D01*
X0014512D01*
Y-0001333D01*
X0013646D02*
Y-0000333D01*
X0013562Y-0001333D02*
X0014062D01*
X0014229Y-0001000D01*
Y-0000667D01*
X0014062Y-0000333D01*
X0013562D01*
X0030250Y0019250D02*
X0029750Y0018750D01*
X0030250D02*
X0029750Y0019250D01*
X0032750Y0008500D02*
X0032250Y0008000D01*
X0032750D02*
X0032250Y0008500D01*
X0031000D02*
X0030500Y0008000D01*
X0031000D02*
X0030500Y0008500D01*
X0031000Y0038250D02*
X0030500Y0037750D01*
X0031000D02*
X0030500Y0038250D01*
X0049500Y0021750D02*
X0049000Y0021250D01*
X0049500D02*
X0049000Y0021750D01*
X0008250Y0012500D02*
X0007750Y0012000D01*
X0008250D02*
X0007750Y0012500D01*
X0039750Y0024250D02*
X0039250Y0023750D01*
X0039750D02*
X0039250Y0024250D01*
X0030750Y0034750D02*
X0030250Y0034250D01*
X0030750D02*
X0030250Y0034750D01*
X0045250Y0037750D02*
X0044750Y0037250D01*
X0045250D02*
X0044750Y0037750D01*
X0036250Y0037250D02*
X0035750Y0036750D01*
X0036250D02*
X0035750Y0037250D01*
X0045250Y0037750D02*
X0044750Y0037250D01*
X0045250D02*
X0044750Y0037750D01*
X0013000Y0025500D02*
X0012500Y0025000D01*
X0013000D02*
X0012500Y0025500D01*
X0007000Y0025000D02*
X0006500Y0024500D01*
X0007000D02*
X0006500Y0025000D01*
X0039000Y0029000D02*
X0038500Y0028500D01*
X0039000D02*
X0038500Y0029000D01*
X0017000D02*
X0016500Y0028500D01*
X0017000D02*
X0016500Y0029000D01*
X0009250Y0036250D02*
X0008750Y0035750D01*
X0009250D02*
X0008750Y0036250D01*
X0006750Y0029250D02*
X0006250Y0028750D01*
X0006750D02*
X0006250Y0029250D01*
X0014750Y0030250D02*
X0014250Y0029750D01*
X0014750D02*
X0014250Y0030250D01*
X0007750Y0029250D02*
X0007250Y0028750D01*
X0007750D02*
X0007250Y0029250D01*
X0035750Y0029000D02*
X0035250Y0028500D01*
X0035750D02*
X0035250Y0029000D01*
X0036250Y0018250D02*
X0035750Y0017750D01*
X0036250D02*
X0035750Y0018250D01*
X0031250Y0004750D02*
X0030750Y0004250D01*
X0031250D02*
X0030750Y0004750D01*
X0037500D02*
X0037000Y0004250D01*
X0037500D02*
X0037000Y0004750D01*
X0050500Y0017500D02*
X0050000Y0017000D01*
X0050500D02*
X0050000Y0017500D01*
X0049750Y0007750D02*
X0049250Y0007250D01*
X0049750D02*
X0049250Y0007750D01*
X0062750D02*
X0062250Y0007250D01*
X0062750D02*
X0062250Y0007750D01*
X0057750Y0029500D02*
X0057250Y0029000D01*
X0057750D02*
X0057250Y0029500D01*
X0066000Y0029250D02*
X0065500Y0028750D01*
X0066000D02*
X0065500Y0029250D01*
X0066750Y0004500D02*
X0066250Y0004000D01*
X0066750D02*
X0066250Y0004500D01*
X0020750Y0002750D02*
X0020250Y0002250D01*
X0020750D02*
X0020250Y0002750D01*
X0023500Y0028000D02*
X0023000Y0027500D01*
X0023500D02*
X0023000Y0028000D01*
X0057750Y0029500D02*
X0057250Y0029000D01*
X0057750D02*
X0057250Y0029500D01*
X0062250Y0018500D02*
X0061750Y0018000D01*
X0062250D02*
X0061750Y0018500D01*
X0021000Y0017750D02*
X0020500Y0017250D01*
X0021000D02*
X0020500Y0017750D01*
X0033250Y0019000D02*
X0032750Y0018500D01*
X0033250D02*
X0032750Y0019000D01*
X0033750Y0022000D02*
X0033250Y0021500D01*
X0033750D02*
X0033250Y0022000D01*
X0016250Y0012750D02*
X0015750Y0012250D01*
X0016250D02*
X0015750Y0012750D01*
X0024250Y0028750D02*
X0023750Y0028250D01*
X0024250D02*
X0023750Y0028750D01*
X0062500Y0006750D02*
X0062000Y0006250D01*
X0062500D02*
X0062000Y0006750D01*
X0026000Y0029000D02*
X0025500Y0028500D01*
X0026000D02*
X0025500Y0029000D01*
X0053750Y0029250D02*
X0053250Y0028750D01*
X0053750D02*
X0053250Y0029250D01*
X0055000Y0018000D02*
X0054500Y0017500D01*
X0055000D02*
X0054500Y0018000D01*
X0050250Y0012750D02*
X0049750Y0012250D01*
X0050250D02*
X0049750Y0012750D01*
X0029250Y0030500D02*
X0028750Y0030000D01*
X0029250D02*
X0028750Y0030500D01*
X0014750Y0030250D02*
X0014250Y0029750D01*
X0014750D02*
X0014250Y0030250D01*
X0038000Y0003250D02*
X0037500Y0002750D01*
X0038000D02*
X0037500Y0003250D01*
X0046250Y0002500D02*
X0045750Y0002000D01*
X0046250D02*
X0045750Y0002500D01*
X0034500Y0028250D02*
X0034000Y0027750D01*
X0034500D02*
X0034000Y0028250D01*
X0008000Y0028500D02*
X0007500Y0028000D01*
X0008000D02*
X0007500Y0028500D01*
X0011750Y0018000D02*
X0011250Y0017500D01*
X0011750D02*
X0011250Y0018000D01*
X0018250Y0001000D02*
X0017750Y0000500D01*
X0018250D02*
X0017750Y0001000D01*
X0066750D02*
X0066250Y0000500D01*
X0066750D02*
X0066250Y0001000D01*
X0066750Y0032250D02*
X0066250Y0031750D01*
X0066750D02*
X0066250Y0032250D01*
X0031250Y0034250D02*
X0030750Y0033750D01*
X0031250D02*
X0030750Y0034250D01*
X0031250Y0033250D02*
X0030750Y0032750D01*
X0031250D02*
X0030750Y0033250D01*
X0062500Y0010500D02*
X0062000Y0010000D01*
X0062500D02*
X0062000Y0010500D01*
X0060000Y0036500D02*
X0059500Y0036000D01*
X0060000D02*
X0059500Y0036500D01*
X0019000Y0037250D02*
X0018500Y0036750D01*
X0019000D02*
X0018500Y0037250D01*
X0001500Y0015250D02*
X0001000Y0014750D01*
X0001500D02*
X0001000Y0015250D01*
X0030250Y0008750D02*
X0029750Y0008250D01*
X0030250D02*
X0029750Y0008750D01*
X0030750Y0022750D02*
X0030250Y0022250D01*
X0030750D02*
X0030250Y0022750D01*
X0015000Y0021500D02*
X0014500Y0021000D01*
X0015000D02*
X0014500Y0021500D01*
X0027250Y0032750D02*
X0026750Y0032250D01*
X0027250D02*
X0026750Y0032750D01*
X0027000Y0011000D02*
X0026500Y0010500D01*
X0027000D02*
X0026500Y0011000D01*
X0049750Y0017500D02*
X0049250Y0017000D01*
X0049750D02*
X0049250Y0017500D01*
X0032500Y0020000D02*
X0032000Y0019500D01*
X0032500D02*
X0032000Y0020000D01*
X0027500Y0010500D02*
X0027000Y0010000D01*
X0027500D02*
X0027000Y0010500D01*
X0028250Y0033750D02*
X0027750Y0033250D01*
X0028250D02*
X0027750Y0033750D01*
X0067500Y0001500D02*
X0067000Y0001000D01*
X0067500D02*
X0067000Y0001500D01*
X0039750Y0001250D02*
X0039250Y0000750D01*
X0039750D02*
X0039250Y0001250D01*
X0026500Y0038500D02*
X0026000Y0038000D01*
X0026500D02*
X0026000Y0038500D01*
X0049500Y0039000D02*
X0049000Y0038500D01*
X0049500D02*
X0049000Y0039000D01*
X0041000Y0027500D02*
X0040500Y0027000D01*
X0041000D02*
X0040500Y0027500D01*
X0016500D02*
X0016000Y0027000D01*
X0016500D02*
X0016000Y0027500D01*
X0025250Y0039000D02*
X0024750Y0038500D01*
X0025250D02*
X0024750Y0039000D01*
X0032000Y0038750D02*
X0031500Y0038250D01*
X0032000D02*
X0031500Y0038750D01*
X0034000Y0019000D02*
X0033500Y0018500D01*
X0034000D02*
X0033500Y0019000D01*
X0053250Y0018250D02*
X0052750Y0017750D01*
X0053250D02*
X0052750Y0018250D01*
X0061250Y0018500D02*
X0060750Y0018000D01*
X0061250D02*
X0060750Y0018500D01*
X0008750Y0034250D02*
X0008250Y0033750D01*
X0008750D02*
X0008250Y0034250D01*
X0027250Y0017000D02*
X0026750Y0016500D01*
X0027250D02*
X0026750Y0017000D01*
Y0036000D02*
X0026250Y0035500D01*
X0026750D02*
X0026250Y0036000D01*
X0023250Y0035750D02*
X0022750Y0035250D01*
X0023250D02*
X0022750Y0035750D01*
X0029000Y0008250D02*
X0028500Y0007750D01*
X0029000D02*
X0028500Y0008250D01*
X0030000Y0002250D02*
X0029500Y0001750D01*
X0030000D02*
X0029500Y0002250D01*
X0065750Y0004250D02*
X0065250Y0003750D01*
X0065750D02*
X0065250Y0004250D01*
X0006500Y0031250D02*
X0006000Y0030750D01*
X0006500D02*
X0006000Y0031250D01*
X0015500Y0031500D02*
X0015000Y0031000D01*
X0015500D02*
X0015000Y0031500D01*
X0008000Y0015750D02*
X0007500Y0015250D01*
X0008000D02*
X0007500Y0015750D01*
X0028000Y0025750D02*
X0027500Y0025250D01*
X0028000D02*
X0027500Y0025750D01*
X0026250Y0007500D02*
X0025750Y0007000D01*
X0026250D02*
X0025750Y0007500D01*
X0026500Y0031250D02*
X0026000Y0030750D01*
X0026500D02*
X0026000Y0031250D01*
Y0026750D02*
X0025500Y0026250D01*
X0026000D02*
X0025500Y0026750D01*
X0047750Y0031250D02*
X0047250Y0030750D01*
X0047750D02*
X0047250Y0031250D01*
X0067250D02*
X0066750Y0030750D01*
X0067250D02*
X0066750Y0031250D01*
X0068000Y0004000D02*
X0067500Y0003500D01*
X0068000D02*
X0067500Y0004000D01*
X0013250Y0001250D02*
X0012750Y0000750D01*
X0013250D02*
X0012750Y0001250D01*
X0037750Y0018250D02*
X0037250Y0017750D01*
X0037750D02*
X0037250Y0018250D01*
X0038750Y0039500D02*
X0038250Y0039000D01*
X0038750D02*
X0038250Y0039500D01*
X0026000D02*
X0025500Y0039000D01*
X0026000D02*
X0025500Y0039500D01*
X0055500Y0028250D02*
X0055000Y0027750D01*
X0055500D02*
X0055000Y0028250D01*
X0028500Y0027500D02*
X0028000Y0027000D01*
X0028500D02*
X0028000Y0027500D01*
X0069250Y0028750D02*
X0068750Y0028250D01*
X0069250D02*
X0068750Y0028750D01*
X0055500Y0028250D02*
X0055000Y0027750D01*
X0055500D02*
X0055000Y0028250D01*
X0006750Y0032500D02*
X0006250Y0032000D01*
X0006750D02*
X0006250Y0032500D01*
X0011250Y0001750D02*
X0010750Y0001250D01*
X0011250D02*
X0010750Y0001750D01*
X0040500Y0002750D02*
X0040000Y0002250D01*
X0040500D02*
X0040000Y0002750D01*
X0006750Y0036250D02*
X0006250Y0035750D01*
X0006750D02*
X0006250Y0036250D01*
X0006000Y0026000D02*
X0005500Y0025500D01*
X0006000D02*
X0005500Y0026000D01*
X0009000Y0026250D02*
X0008500Y0025750D01*
X0009000D02*
X0008500Y0026250D01*
X0009000Y0030500D02*
X0008500Y0030000D01*
X0009000D02*
X0008500Y0030500D01*
X0005250Y0030250D02*
X0004750Y0029750D01*
X0005250D02*
X0004750Y0030250D01*
X0026500Y0043250D02*
X0026000Y0042750D01*
X0026500D02*
X0026000Y0043250D01*
X0027750Y0015000D02*
X0027250Y0014500D01*
X0027750D02*
X0027250Y0015000D01*
X0016250Y0014500D02*
X0015750Y0014000D01*
X0016250D02*
X0015750Y0014500D01*
X0027000Y0042750D02*
X0026500Y0042250D01*
X0027000D02*
X0026500Y0042750D01*
X0024750Y0044250D02*
X0024250Y0043750D01*
X0024750D02*
X0024250Y0044250D01*
X0059750Y0044000D02*
X0059250Y0043500D01*
X0059750D02*
X0059250Y0044000D01*
X0051500Y0002750D02*
X0051000Y0002250D01*
X0051500D02*
X0051000Y0002750D01*
X0032000Y0019500D02*
X0031500Y0019000D01*
X0032000D02*
X0031500Y0019500D01*
X0032000Y0023500D02*
X0031500Y0023000D01*
X0032000D02*
X0031500Y0023500D01*
X0012250Y0021750D02*
X0011750Y0021250D01*
X0012250D02*
X0011750Y0021750D01*
X0005750Y0032000D02*
X0005250Y0031500D01*
X0005750D02*
X0005250Y0032000D01*
X0002250Y0004750D02*
X0001750Y0004250D01*
X0002250D02*
X0001750Y0004750D01*
X0047750Y0031250D02*
X0047250Y0030750D01*
X0047750D02*
X0047250Y0031250D01*
X0008000Y0033000D02*
X0007500Y0032500D01*
X0008000D02*
X0007500Y0033000D01*
X0006750Y0014500D02*
X0006250Y0014000D01*
X0006750D02*
X0006250Y0014500D01*
X0019500Y0013750D02*
X0019000Y0013250D01*
X0019500D02*
X0019000Y0013750D01*
X0019500Y0011750D02*
X0019000Y0011250D01*
X0019500D02*
X0019000Y0011750D01*
X0033000Y0007750D02*
X0032500Y0007250D01*
X0033000D02*
X0032500Y0007750D01*
X0066000Y0025000D02*
X0065500Y0024500D01*
X0066000D02*
X0065500Y0025000D01*
X0016500Y0036500D02*
X0016000Y0036000D01*
X0016500D02*
X0016000Y0036500D01*
X0032250Y0035500D02*
X0031750Y0035000D01*
X0032250D02*
X0031750Y0035500D01*
X0029500Y0020750D02*
X0029000Y0020250D01*
X0029500D02*
X0029000Y0020750D01*
X0041000Y0022500D02*
X0040500Y0022000D01*
X0041000D02*
X0040500Y0022500D01*
X0044500Y0023500D02*
X0044000Y0023000D01*
X0044500D02*
X0044000Y0023500D01*
X0029000Y0022000D02*
X0028500Y0021500D01*
X0029000D02*
X0028500Y0022000D01*
X0049750Y0043750D02*
X0049250Y0043250D01*
X0049750D02*
X0049250Y0043750D01*
X0043750Y0010250D02*
X0043250Y0009750D01*
X0043750D02*
X0043250Y0010250D01*
X0068250Y0009000D02*
X0067750Y0008500D01*
X0068250D02*
X0067750Y0009000D01*
X0061500Y0009250D02*
X0061000Y0008750D01*
X0061500D02*
X0061000Y0009250D01*
X0058250Y0009000D02*
X0057750Y0008500D01*
X0058250D02*
X0057750Y0009000D01*
X0058250Y0011000D02*
X0057750Y0010500D01*
X0058250D02*
X0057750Y0011000D01*
X0030000Y0024250D02*
X0029500Y0023750D01*
X0030000D02*
X0029500Y0024250D01*
X0010750Y0022000D02*
X0010250Y0021500D01*
X0010750D02*
X0010250Y0022000D01*
X0023500Y0026750D02*
X0023000Y0026250D01*
X0023500D02*
X0023000Y0026750D01*
X0007000D02*
X0006500Y0026250D01*
X0007000D02*
X0006500Y0026750D01*
X0009250Y0036250D02*
X0008750Y0035750D01*
X0009250D02*
X0008750Y0036250D01*
X0062500Y0008500D02*
X0062000Y0008000D01*
X0062500D02*
X0062000Y0008500D01*
X0020750Y0013500D02*
X0020250Y0013000D01*
X0020750D02*
X0020250Y0013500D01*
X0007250Y0012500D02*
X0006750Y0012000D01*
X0007250D02*
X0006750Y0012500D01*
X0007250Y0031000D02*
X0006750Y0030500D01*
X0007250D02*
X0006750Y0031000D01*
X0041750Y0030250D02*
X0041250Y0029750D01*
X0041750D02*
X0041250Y0030250D01*
X0025750Y0025750D02*
X0025250Y0025250D01*
X0025750D02*
X0025250Y0025750D01*
X0051250Y0006750D02*
X0050750Y0006250D01*
X0051250D02*
X0050750Y0006750D01*
X0054750Y0028250D02*
X0054250Y0027750D01*
X0054750D02*
X0054250Y0028250D01*
X0029250D02*
X0028750Y0027750D01*
X0029250D02*
X0028750Y0028250D01*
X0054750D02*
X0054250Y0027750D01*
X0054750D02*
X0054250Y0028250D01*
X0068250Y0033250D02*
X0067750Y0032750D01*
X0068250D02*
X0067750Y0033250D01*
X0012250Y0014250D02*
X0011750Y0013750D01*
X0012250D02*
X0011750Y0014250D01*
X0016000Y0031000D02*
X0015500Y0030500D01*
X0016000D02*
X0015500Y0031000D01*
X0016500Y0027500D02*
X0016000Y0027000D01*
X0016500D02*
X0016000Y0027500D01*
X0024500Y0027750D02*
X0024000Y0027250D01*
X0024500D02*
X0024000Y0027750D01*
X0020750Y0006750D02*
X0020250Y0006250D01*
X0020750D02*
X0020250Y0006750D01*
X0011500Y0021500D02*
X0011000Y0021000D01*
X0011500D02*
X0011000Y0021500D01*
X0029500Y0023750D02*
X0029000Y0023250D01*
X0029500D02*
X0029000Y0023750D01*
X0064250Y0009750D02*
X0063750Y0009250D01*
X0064250D02*
X0063750Y0009750D01*
X0067500Y0010250D02*
X0067000Y0009750D01*
X0067500D02*
X0067000Y0010250D01*
X0031750Y0032000D02*
X0031250Y0031500D01*
X0031750D02*
X0031250Y0032000D01*
X0033250Y0038000D02*
X0032750Y0037500D01*
X0033250D02*
X0032750Y0038000D01*
X0025500Y0010750D02*
X0025000Y0010250D01*
X0025500D02*
X0025000Y0010750D01*
X0026000Y0032250D02*
X0025500Y0031750D01*
X0026000D02*
X0025500Y0032250D01*
X0054000Y0011750D02*
X0053500Y0011250D01*
X0054000D02*
X0053500Y0011750D01*
X0052250Y0009750D02*
X0051750Y0009250D01*
X0052250D02*
X0051750Y0009750D01*
X0013000Y0023000D02*
X0012500Y0022500D01*
X0013000D02*
X0012500Y0023000D01*
X0041000Y0024250D02*
X0040500Y0023750D01*
X0041000D02*
X0040500Y0024250D01*
X0048750Y0027250D02*
X0048250Y0026750D01*
X0048750D02*
X0048250Y0027250D01*
X0066000Y0028000D02*
X0065500Y0027500D01*
X0066000D02*
X0065500Y0028000D01*
X0007000Y0013750D02*
X0006500Y0013250D01*
X0007000D02*
X0006500Y0013750D01*
X0021750Y0027000D02*
X0021250Y0026500D01*
X0021750D02*
X0021250Y0027000D01*
X0001575Y-0013650D02*
Y-0013850D01*
X0001725Y-0013500D02*
X0001575Y-0013650D01*
X0001925Y-0013500D02*
X0001725D01*
X0002075Y-0013650D02*
X0001925Y-0013500D01*
X0002075Y-0013850D02*
Y-0013650D01*
X0001925Y-0014000D02*
X0002075Y-0013850D01*
X0001725Y-0014000D02*
X0001925D01*
X0001575Y-0013850D02*
X0001725Y-0014000D01*
X0001575Y-0012000D02*
Y-0012250D01*
X0001825Y-0012000D02*
X0001575D01*
X0001825Y-0012500D02*
Y-0012000D01*
X0002075Y-0012500D02*
X0001825D01*
X0002075Y-0012250D02*
Y-0012500D01*
X0001575Y-0012250D02*
X0002075D01*
X0001575Y-0010500D02*
Y-0011000D01*
X0002075Y-0010500D02*
X0001575D01*
X0002075Y-0011000D02*
Y-0010500D01*
X0001575Y-0011000D02*
X0002075D01*
Y-0010750D02*
X0001575D01*
X0001825Y-0010500D02*
Y-0011000D01*
X0001575Y-0009000D02*
Y-0009500D01*
X0002075Y-0009000D02*
X0001575D01*
X0002075Y-0009500D02*
Y-0009000D01*
X0001575Y-0009500D02*
X0002075D01*
Y-0009000D02*
X0001575Y-0009500D01*
X0002075D02*
X0001575Y-0009000D01*
X0001825Y-0007500D02*
X0001575Y-0007750D01*
X0002075D02*
X0001825Y-0007500D01*
Y-0008000D02*
X0002075Y-0007750D01*
X0001575D02*
X0001825Y-0008000D01*
X0002075Y-0006250D02*
X0001575D01*
X0001825Y-0006000D02*
Y-0006500D01*
X0002075Y-0004500D02*
X0001575Y-0005000D01*
X0002075D02*
X0001575Y-0004500D01*
X0037300Y-0016550D02*
X-0000050D01*
X0037250Y-0016500D02*
X0000000D01*
X0037250Y-0014500D02*
X0000000D01*
X0037250Y-0013000D02*
X0000000D01*
X0037250Y-0011500D02*
X0000000D01*
X0037250Y-0010000D02*
X0000000D01*
X0037250Y-0008500D02*
X0000000D01*
X0037250Y-0007000D02*
X0000000D01*
X0037250Y-0005500D02*
X0000000D01*
X0037250Y-0004000D02*
X0000000D01*
X0037250Y-0003950D02*
X0000000D01*
X0037250Y-0002000D02*
X0000000D01*
X0037250Y-0001950D02*
X0000000D01*
X0037250Y0000000D02*
X0000000D01*
X0037300Y0000050D02*
X-0000050D01*
X0037300Y-0016500D02*
Y0000000D01*
X0037250Y-0016500D02*
Y0000000D01*
X0025708Y-0016500D02*
Y-0002000D01*
X0020158Y-0016500D02*
Y-0002000D01*
X0012092Y-0014500D02*
Y-0002000D01*
X0003700Y-0014500D02*
Y-0002000D01*
X0003650Y-0014500D02*
Y-0002000D01*
X-0000050Y-0016500D02*
Y0000000D01*
X0000000Y-0016500D02*
Y0000000D01*
X0001250Y0001600D02*
Y0001400D01*
X0001400Y0001750D02*
X0001250Y0001600D01*
X0001600Y0001750D02*
X0001400D01*
X0001750Y0001600D02*
X0001600Y0001750D01*
X0001750Y0001400D02*
Y0001600D01*
X0001600Y0001250D02*
X0001750Y0001400D01*
X0001400Y0001250D02*
X0001600D01*
X0001250Y0001400D02*
X0001400Y0001250D01*
X0070500Y0001600D02*
Y0001400D01*
X0070650Y0001750D02*
X0070500Y0001600D01*
X0070850Y0001750D02*
X0070650D01*
X0071000Y0001600D02*
X0070850Y0001750D01*
X0071000Y0001400D02*
Y0001600D01*
X0070850Y0001250D02*
X0071000Y0001400D01*
X0070650Y0001250D02*
X0070850D01*
X0070500Y0001400D02*
X0070650Y0001250D01*
X0070500Y0043600D02*
Y0043400D01*
X0070650Y0043750D02*
X0070500Y0043600D01*
X0070850Y0043750D02*
X0070650D01*
X0071000Y0043600D02*
X0070850Y0043750D01*
X0071000Y0043400D02*
Y0043600D01*
X0070850Y0043250D02*
X0071000Y0043400D01*
X0070650Y0043250D02*
X0070850D01*
X0070500Y0043400D02*
X0070650Y0043250D01*
X0001250Y0043600D02*
Y0043400D01*
X0001400Y0043750D02*
X0001250Y0043600D01*
X0001600Y0043750D02*
X0001400D01*
X0001750Y0043600D02*
X0001600Y0043750D01*
X0001750Y0043400D02*
Y0043600D01*
X0001600Y0043250D02*
X0001750Y0043400D01*
X0001400Y0043250D02*
X0001600D01*
X0001250Y0043400D02*
X0001400Y0043250D01*
X0061000Y0006750D02*
X0060750Y0006500D01*
X0061250D02*
X0061000Y0006750D01*
Y0006250D02*
X0061250Y0006500D01*
X0060750D02*
X0061000Y0006250D01*
Y0005750D02*
X0060750Y0005500D01*
X0061250D02*
X0061000Y0005750D01*
Y0005250D02*
X0061250Y0005500D01*
X0060750D02*
X0061000Y0005250D01*
Y0004750D02*
X0060750Y0004500D01*
X0061250D02*
X0061000Y0004750D01*
Y0004250D02*
X0061250Y0004500D01*
X0060750D02*
X0061000Y0004250D01*
Y0003750D02*
X0060750Y0003500D01*
X0061250D02*
X0061000Y0003750D01*
Y0003250D02*
X0061250Y0003500D01*
X0060750D02*
X0061000Y0003250D01*
X0064000Y0003750D02*
X0063750Y0003500D01*
X0064250D02*
X0064000Y0003750D01*
Y0003250D02*
X0064250Y0003500D01*
X0063750D02*
X0064000Y0003250D01*
Y0004750D02*
X0063750Y0004500D01*
X0064250D02*
X0064000Y0004750D01*
Y0004250D02*
X0064250Y0004500D01*
X0063750D02*
X0064000Y0004250D01*
Y0005750D02*
X0063750Y0005500D01*
X0064250D02*
X0064000Y0005750D01*
Y0005250D02*
X0064250Y0005500D01*
X0063750D02*
X0064000Y0005250D01*
Y0006750D02*
X0063750Y0006500D01*
X0064250D02*
X0064000Y0006750D01*
Y0006250D02*
X0064250Y0006500D01*
X0063750D02*
X0064000Y0006250D01*
X0061000Y0016750D02*
X0060750Y0016500D01*
X0061250D02*
X0061000Y0016750D01*
Y0016250D02*
X0061250Y0016500D01*
X0060750D02*
X0061000Y0016250D01*
Y0015750D02*
X0060750Y0015500D01*
X0061250D02*
X0061000Y0015750D01*
Y0015250D02*
X0061250Y0015500D01*
X0060750D02*
X0061000Y0015250D01*
Y0014750D02*
X0060750Y0014500D01*
X0061250D02*
X0061000Y0014750D01*
Y0014250D02*
X0061250Y0014500D01*
X0060750D02*
X0061000Y0014250D01*
Y0013750D02*
X0060750Y0013500D01*
X0061250D02*
X0061000Y0013750D01*
Y0013250D02*
X0061250Y0013500D01*
X0060750D02*
X0061000Y0013250D01*
Y0012750D02*
X0060750Y0012500D01*
X0061250D02*
X0061000Y0012750D01*
Y0012250D02*
X0061250Y0012500D01*
X0060750D02*
X0061000Y0012250D01*
Y0011750D02*
X0060750Y0011500D01*
X0061250D02*
X0061000Y0011750D01*
Y0011250D02*
X0061250Y0011500D01*
X0060750D02*
X0061000Y0011250D01*
Y0010750D02*
X0060750Y0010500D01*
X0061250D02*
X0061000Y0010750D01*
Y0010250D02*
X0061250Y0010500D01*
X0060750D02*
X0061000Y0010250D01*
X0064000Y0010750D02*
X0063750Y0010500D01*
X0064250D02*
X0064000Y0010750D01*
Y0010250D02*
X0064250Y0010500D01*
X0063750D02*
X0064000Y0010250D01*
Y0011750D02*
X0063750Y0011500D01*
X0064250D02*
X0064000Y0011750D01*
Y0011250D02*
X0064250Y0011500D01*
X0063750D02*
X0064000Y0011250D01*
Y0012750D02*
X0063750Y0012500D01*
X0064250D02*
X0064000Y0012750D01*
Y0012250D02*
X0064250Y0012500D01*
X0063750D02*
X0064000Y0012250D01*
Y0013750D02*
X0063750Y0013500D01*
X0064250D02*
X0064000Y0013750D01*
Y0013250D02*
X0064250Y0013500D01*
X0063750D02*
X0064000Y0013250D01*
Y0014750D02*
X0063750Y0014500D01*
X0064250D02*
X0064000Y0014750D01*
Y0014250D02*
X0064250Y0014500D01*
X0063750D02*
X0064000Y0014250D01*
Y0015750D02*
X0063750Y0015500D01*
X0064250D02*
X0064000Y0015750D01*
Y0015250D02*
X0064250Y0015500D01*
X0063750D02*
X0064000Y0015250D01*
Y0016750D02*
X0063750Y0016500D01*
X0064250D02*
X0064000Y0016750D01*
Y0016250D02*
X0064250Y0016500D01*
X0063750D02*
X0064000Y0016250D01*
X0061000Y0032750D02*
X0060750Y0032500D01*
X0061250D02*
X0061000Y0032750D01*
Y0032250D02*
X0061250Y0032500D01*
X0060750D02*
X0061000Y0032250D01*
Y0031750D02*
X0060750Y0031500D01*
X0061250D02*
X0061000Y0031750D01*
Y0031250D02*
X0061250Y0031500D01*
X0060750D02*
X0061000Y0031250D01*
Y0030750D02*
X0060750Y0030500D01*
X0061250D02*
X0061000Y0030750D01*
Y0030250D02*
X0061250Y0030500D01*
X0060750D02*
X0061000Y0030250D01*
Y0029750D02*
X0060750Y0029500D01*
X0061250D02*
X0061000Y0029750D01*
Y0029250D02*
X0061250Y0029500D01*
X0060750D02*
X0061000Y0029250D01*
X0064000Y0029750D02*
X0063750Y0029500D01*
X0064250D02*
X0064000Y0029750D01*
Y0029250D02*
X0064250Y0029500D01*
X0063750D02*
X0064000Y0029250D01*
Y0030750D02*
X0063750Y0030500D01*
X0064250D02*
X0064000Y0030750D01*
Y0030250D02*
X0064250Y0030500D01*
X0063750D02*
X0064000Y0030250D01*
Y0031750D02*
X0063750Y0031500D01*
X0064250D02*
X0064000Y0031750D01*
Y0031250D02*
X0064250Y0031500D01*
X0063750D02*
X0064000Y0031250D01*
Y0032750D02*
X0063750Y0032500D01*
X0064250D02*
X0064000Y0032750D01*
Y0032250D02*
X0064250Y0032500D01*
X0063750D02*
X0064000Y0032250D01*
X0061000Y0037250D02*
X0060750Y0037000D01*
X0061250D02*
X0061000Y0037250D01*
Y0036750D02*
X0061250Y0037000D01*
X0060750D02*
X0061000Y0036750D01*
Y0036250D02*
X0060750Y0036000D01*
X0061250D02*
X0061000Y0036250D01*
Y0035750D02*
X0061250Y0036000D01*
X0060750D02*
X0061000Y0035750D01*
Y0035250D02*
X0060750Y0035000D01*
X0061250D02*
X0061000Y0035250D01*
Y0034750D02*
X0061250Y0035000D01*
X0060750D02*
X0061000Y0034750D01*
Y0034250D02*
X0060750Y0034000D01*
X0061250D02*
X0061000Y0034250D01*
Y0033750D02*
X0061250Y0034000D01*
X0060750D02*
X0061000Y0033750D01*
X0064000Y0034250D02*
X0063750Y0034000D01*
X0064250D02*
X0064000Y0034250D01*
Y0033750D02*
X0064250Y0034000D01*
X0063750D02*
X0064000Y0033750D01*
Y0035250D02*
X0063750Y0035000D01*
X0064250D02*
X0064000Y0035250D01*
Y0034750D02*
X0064250Y0035000D01*
X0063750D02*
X0064000Y0034750D01*
Y0036250D02*
X0063750Y0036000D01*
X0064250D02*
X0064000Y0036250D01*
Y0035750D02*
X0064250Y0036000D01*
X0063750D02*
X0064000Y0035750D01*
Y0037250D02*
X0063750Y0037000D01*
X0064250D02*
X0064000Y0037250D01*
Y0036750D02*
X0064250Y0037000D01*
X0063750D02*
X0064000Y0036750D01*
X0057000Y0026750D02*
X0056750Y0026500D01*
X0057250D02*
X0057000Y0026750D01*
Y0026250D02*
X0057250Y0026500D01*
X0056750D02*
X0057000Y0026250D01*
Y0025750D02*
X0056750Y0025500D01*
X0057250D02*
X0057000Y0025750D01*
Y0025250D02*
X0057250Y0025500D01*
X0056750D02*
X0057000Y0025250D01*
Y0024750D02*
X0056750Y0024500D01*
X0057250D02*
X0057000Y0024750D01*
Y0024250D02*
X0057250Y0024500D01*
X0056750D02*
X0057000Y0024250D01*
Y0023750D02*
X0056750Y0023500D01*
X0057250D02*
X0057000Y0023750D01*
Y0023250D02*
X0057250Y0023500D01*
X0056750D02*
X0057000Y0023250D01*
Y0022750D02*
X0056750Y0022500D01*
X0057250D02*
X0057000Y0022750D01*
Y0022250D02*
X0057250Y0022500D01*
X0056750D02*
X0057000Y0022250D01*
Y0021750D02*
X0056750Y0021500D01*
X0057250D02*
X0057000Y0021750D01*
Y0021250D02*
X0057250Y0021500D01*
X0056750D02*
X0057000Y0021250D01*
Y0020750D02*
X0056750Y0020500D01*
X0057250D02*
X0057000Y0020750D01*
Y0020250D02*
X0057250Y0020500D01*
X0056750D02*
X0057000Y0020250D01*
Y0019750D02*
X0056750Y0019500D01*
X0057250D02*
X0057000Y0019750D01*
Y0019250D02*
X0057250Y0019500D01*
X0056750D02*
X0057000Y0019250D01*
X0060000Y0019750D02*
X0059750Y0019500D01*
X0060250D02*
X0060000Y0019750D01*
Y0019250D02*
X0060250Y0019500D01*
X0059750D02*
X0060000Y0019250D01*
Y0020750D02*
X0059750Y0020500D01*
X0060250D02*
X0060000Y0020750D01*
Y0020250D02*
X0060250Y0020500D01*
X0059750D02*
X0060000Y0020250D01*
Y0021750D02*
X0059750Y0021500D01*
X0060250D02*
X0060000Y0021750D01*
Y0021250D02*
X0060250Y0021500D01*
X0059750D02*
X0060000Y0021250D01*
Y0022750D02*
X0059750Y0022500D01*
X0060250D02*
X0060000Y0022750D01*
Y0022250D02*
X0060250Y0022500D01*
X0059750D02*
X0060000Y0022250D01*
Y0023750D02*
X0059750Y0023500D01*
X0060250D02*
X0060000Y0023750D01*
Y0023250D02*
X0060250Y0023500D01*
X0059750D02*
X0060000Y0023250D01*
Y0024750D02*
X0059750Y0024500D01*
X0060250D02*
X0060000Y0024750D01*
Y0024250D02*
X0060250Y0024500D01*
X0059750D02*
X0060000Y0024250D01*
Y0025750D02*
X0059750Y0025500D01*
X0060250D02*
X0060000Y0025750D01*
Y0025250D02*
X0060250Y0025500D01*
X0059750D02*
X0060000Y0025250D01*
Y0026750D02*
X0059750Y0026500D01*
X0060250D02*
X0060000Y0026750D01*
Y0026250D02*
X0060250Y0026500D01*
X0059750D02*
X0060000Y0026250D01*
X0053000Y0006750D02*
X0052750Y0006500D01*
X0053250D02*
X0053000Y0006750D01*
Y0006250D02*
X0053250Y0006500D01*
X0052750D02*
X0053000Y0006250D01*
Y0005750D02*
X0052750Y0005500D01*
X0053250D02*
X0053000Y0005750D01*
Y0005250D02*
X0053250Y0005500D01*
X0052750D02*
X0053000Y0005250D01*
Y0004750D02*
X0052750Y0004500D01*
X0053250D02*
X0053000Y0004750D01*
Y0004250D02*
X0053250Y0004500D01*
X0052750D02*
X0053000Y0004250D01*
Y0003750D02*
X0052750Y0003500D01*
X0053250D02*
X0053000Y0003750D01*
Y0003250D02*
X0053250Y0003500D01*
X0052750D02*
X0053000Y0003250D01*
X0056000Y0003750D02*
X0055750Y0003500D01*
X0056250D02*
X0056000Y0003750D01*
Y0003250D02*
X0056250Y0003500D01*
X0055750D02*
X0056000Y0003250D01*
Y0004750D02*
X0055750Y0004500D01*
X0056250D02*
X0056000Y0004750D01*
Y0004250D02*
X0056250Y0004500D01*
X0055750D02*
X0056000Y0004250D01*
Y0005750D02*
X0055750Y0005500D01*
X0056250D02*
X0056000Y0005750D01*
Y0005250D02*
X0056250Y0005500D01*
X0055750D02*
X0056000Y0005250D01*
Y0006750D02*
X0055750Y0006500D01*
X0056250D02*
X0056000Y0006750D01*
Y0006250D02*
X0056250Y0006500D01*
X0055750D02*
X0056000Y0006250D01*
X0052000Y0016750D02*
X0051750Y0016500D01*
X0052250D02*
X0052000Y0016750D01*
Y0016250D02*
X0052250Y0016500D01*
X0051750D02*
X0052000Y0016250D01*
Y0015750D02*
X0051750Y0015500D01*
X0052250D02*
X0052000Y0015750D01*
Y0015250D02*
X0052250Y0015500D01*
X0051750D02*
X0052000Y0015250D01*
Y0014750D02*
X0051750Y0014500D01*
X0052250D02*
X0052000Y0014750D01*
Y0014250D02*
X0052250Y0014500D01*
X0051750D02*
X0052000Y0014250D01*
Y0013750D02*
X0051750Y0013500D01*
X0052250D02*
X0052000Y0013750D01*
Y0013250D02*
X0052250Y0013500D01*
X0051750D02*
X0052000Y0013250D01*
Y0012750D02*
X0051750Y0012500D01*
X0052250D02*
X0052000Y0012750D01*
Y0012250D02*
X0052250Y0012500D01*
X0051750D02*
X0052000Y0012250D01*
Y0011750D02*
X0051750Y0011500D01*
X0052250D02*
X0052000Y0011750D01*
Y0011250D02*
X0052250Y0011500D01*
X0051750D02*
X0052000Y0011250D01*
Y0010750D02*
X0051750Y0010500D01*
X0052250D02*
X0052000Y0010750D01*
Y0010250D02*
X0052250Y0010500D01*
X0051750D02*
X0052000Y0010250D01*
X0055000Y0010750D02*
X0054750Y0010500D01*
X0055250D02*
X0055000Y0010750D01*
Y0010250D02*
X0055250Y0010500D01*
X0054750D02*
X0055000Y0010250D01*
Y0011750D02*
X0054750Y0011500D01*
X0055250D02*
X0055000Y0011750D01*
Y0011250D02*
X0055250Y0011500D01*
X0054750D02*
X0055000Y0011250D01*
Y0012750D02*
X0054750Y0012500D01*
X0055250D02*
X0055000Y0012750D01*
Y0012250D02*
X0055250Y0012500D01*
X0054750D02*
X0055000Y0012250D01*
Y0013750D02*
X0054750Y0013500D01*
X0055250D02*
X0055000Y0013750D01*
Y0013250D02*
X0055250Y0013500D01*
X0054750D02*
X0055000Y0013250D01*
Y0014750D02*
X0054750Y0014500D01*
X0055250D02*
X0055000Y0014750D01*
Y0014250D02*
X0055250Y0014500D01*
X0054750D02*
X0055000Y0014250D01*
Y0015750D02*
X0054750Y0015500D01*
X0055250D02*
X0055000Y0015750D01*
Y0015250D02*
X0055250Y0015500D01*
X0054750D02*
X0055000Y0015250D01*
Y0016750D02*
X0054750Y0016500D01*
X0055250D02*
X0055000Y0016750D01*
Y0016250D02*
X0055250Y0016500D01*
X0054750D02*
X0055000Y0016250D01*
X0052000Y0032750D02*
X0051750Y0032500D01*
X0052250D02*
X0052000Y0032750D01*
Y0032250D02*
X0052250Y0032500D01*
X0051750D02*
X0052000Y0032250D01*
Y0031750D02*
X0051750Y0031500D01*
X0052250D02*
X0052000Y0031750D01*
Y0031250D02*
X0052250Y0031500D01*
X0051750D02*
X0052000Y0031250D01*
Y0030750D02*
X0051750Y0030500D01*
X0052250D02*
X0052000Y0030750D01*
Y0030250D02*
X0052250Y0030500D01*
X0051750D02*
X0052000Y0030250D01*
Y0029750D02*
X0051750Y0029500D01*
X0052250D02*
X0052000Y0029750D01*
Y0029250D02*
X0052250Y0029500D01*
X0051750D02*
X0052000Y0029250D01*
X0055000Y0029750D02*
X0054750Y0029500D01*
X0055250D02*
X0055000Y0029750D01*
Y0029250D02*
X0055250Y0029500D01*
X0054750D02*
X0055000Y0029250D01*
Y0030750D02*
X0054750Y0030500D01*
X0055250D02*
X0055000Y0030750D01*
Y0030250D02*
X0055250Y0030500D01*
X0054750D02*
X0055000Y0030250D01*
Y0031750D02*
X0054750Y0031500D01*
X0055250D02*
X0055000Y0031750D01*
Y0031250D02*
X0055250Y0031500D01*
X0054750D02*
X0055000Y0031250D01*
Y0032750D02*
X0054750Y0032500D01*
X0055250D02*
X0055000Y0032750D01*
Y0032250D02*
X0055250Y0032500D01*
X0054750D02*
X0055000Y0032250D01*
X0052000Y0037250D02*
X0051750Y0037000D01*
X0052250D02*
X0052000Y0037250D01*
Y0036750D02*
X0052250Y0037000D01*
X0051750D02*
X0052000Y0036750D01*
Y0036250D02*
X0051750Y0036000D01*
X0052250D02*
X0052000Y0036250D01*
Y0035750D02*
X0052250Y0036000D01*
X0051750D02*
X0052000Y0035750D01*
Y0035250D02*
X0051750Y0035000D01*
X0052250D02*
X0052000Y0035250D01*
Y0034750D02*
X0052250Y0035000D01*
X0051750D02*
X0052000Y0034750D01*
Y0034250D02*
X0051750Y0034000D01*
X0052250D02*
X0052000Y0034250D01*
Y0033750D02*
X0052250Y0034000D01*
X0051750D02*
X0052000Y0033750D01*
X0055000Y0034250D02*
X0054750Y0034000D01*
X0055250D02*
X0055000Y0034250D01*
Y0033750D02*
X0055250Y0034000D01*
X0054750D02*
X0055000Y0033750D01*
Y0035250D02*
X0054750Y0035000D01*
X0055250D02*
X0055000Y0035250D01*
Y0034750D02*
X0055250Y0035000D01*
X0054750D02*
X0055000Y0034750D01*
Y0036250D02*
X0054750Y0036000D01*
X0055250D02*
X0055000Y0036250D01*
Y0035750D02*
X0055250Y0036000D01*
X0054750D02*
X0055000Y0035750D01*
Y0037250D02*
X0054750Y0037000D01*
X0055250D02*
X0055000Y0037250D01*
Y0036750D02*
X0055250Y0037000D01*
X0054750D02*
X0055000Y0036750D01*
X0044500Y0006750D02*
X0044250Y0006500D01*
X0044750D02*
X0044500Y0006750D01*
Y0006250D02*
X0044750Y0006500D01*
X0044250D02*
X0044500Y0006250D01*
Y0005750D02*
X0044250Y0005500D01*
X0044750D02*
X0044500Y0005750D01*
Y0005250D02*
X0044750Y0005500D01*
X0044250D02*
X0044500Y0005250D01*
Y0004750D02*
X0044250Y0004500D01*
X0044750D02*
X0044500Y0004750D01*
Y0004250D02*
X0044750Y0004500D01*
X0044250D02*
X0044500Y0004250D01*
Y0003750D02*
X0044250Y0003500D01*
X0044750D02*
X0044500Y0003750D01*
Y0003250D02*
X0044750Y0003500D01*
X0044250D02*
X0044500Y0003250D01*
X0047500Y0003750D02*
X0047250Y0003500D01*
X0047750D02*
X0047500Y0003750D01*
Y0003250D02*
X0047750Y0003500D01*
X0047250D02*
X0047500Y0003250D01*
Y0004750D02*
X0047250Y0004500D01*
X0047750D02*
X0047500Y0004750D01*
Y0004250D02*
X0047750Y0004500D01*
X0047250D02*
X0047500Y0004250D01*
Y0005750D02*
X0047250Y0005500D01*
X0047750D02*
X0047500Y0005750D01*
Y0005250D02*
X0047750Y0005500D01*
X0047250D02*
X0047500Y0005250D01*
Y0006750D02*
X0047250Y0006500D01*
X0047750D02*
X0047500Y0006750D01*
Y0006250D02*
X0047750Y0006500D01*
X0047250D02*
X0047500Y0006250D01*
X0043000Y0016750D02*
X0042750Y0016500D01*
X0043250D02*
X0043000Y0016750D01*
Y0016250D02*
X0043250Y0016500D01*
X0042750D02*
X0043000Y0016250D01*
Y0015750D02*
X0042750Y0015500D01*
X0043250D02*
X0043000Y0015750D01*
Y0015250D02*
X0043250Y0015500D01*
X0042750D02*
X0043000Y0015250D01*
Y0014750D02*
X0042750Y0014500D01*
X0043250D02*
X0043000Y0014750D01*
Y0014250D02*
X0043250Y0014500D01*
X0042750D02*
X0043000Y0014250D01*
Y0013750D02*
X0042750Y0013500D01*
X0043250D02*
X0043000Y0013750D01*
Y0013250D02*
X0043250Y0013500D01*
X0042750D02*
X0043000Y0013250D01*
Y0012750D02*
X0042750Y0012500D01*
X0043250D02*
X0043000Y0012750D01*
Y0012250D02*
X0043250Y0012500D01*
X0042750D02*
X0043000Y0012250D01*
Y0011750D02*
X0042750Y0011500D01*
X0043250D02*
X0043000Y0011750D01*
Y0011250D02*
X0043250Y0011500D01*
X0042750D02*
X0043000Y0011250D01*
Y0010750D02*
X0042750Y0010500D01*
X0043250D02*
X0043000Y0010750D01*
Y0010250D02*
X0043250Y0010500D01*
X0042750D02*
X0043000Y0010250D01*
X0046000Y0010750D02*
X0045750Y0010500D01*
X0046250D02*
X0046000Y0010750D01*
Y0010250D02*
X0046250Y0010500D01*
X0045750D02*
X0046000Y0010250D01*
Y0011750D02*
X0045750Y0011500D01*
X0046250D02*
X0046000Y0011750D01*
Y0011250D02*
X0046250Y0011500D01*
X0045750D02*
X0046000Y0011250D01*
Y0012750D02*
X0045750Y0012500D01*
X0046250D02*
X0046000Y0012750D01*
Y0012250D02*
X0046250Y0012500D01*
X0045750D02*
X0046000Y0012250D01*
Y0013750D02*
X0045750Y0013500D01*
X0046250D02*
X0046000Y0013750D01*
Y0013250D02*
X0046250Y0013500D01*
X0045750D02*
X0046000Y0013250D01*
Y0014750D02*
X0045750Y0014500D01*
X0046250D02*
X0046000Y0014750D01*
Y0014250D02*
X0046250Y0014500D01*
X0045750D02*
X0046000Y0014250D01*
Y0015750D02*
X0045750Y0015500D01*
X0046250D02*
X0046000Y0015750D01*
Y0015250D02*
X0046250Y0015500D01*
X0045750D02*
X0046000Y0015250D01*
Y0016750D02*
X0045750Y0016500D01*
X0046250D02*
X0046000Y0016750D01*
Y0016250D02*
X0046250Y0016500D01*
X0045750D02*
X0046000Y0016250D01*
X0043000Y0026750D02*
X0042750Y0026500D01*
X0043250D02*
X0043000Y0026750D01*
Y0026250D02*
X0043250Y0026500D01*
X0042750D02*
X0043000Y0026250D01*
Y0025750D02*
X0042750Y0025500D01*
X0043250D02*
X0043000Y0025750D01*
Y0025250D02*
X0043250Y0025500D01*
X0042750D02*
X0043000Y0025250D01*
Y0024750D02*
X0042750Y0024500D01*
X0043250D02*
X0043000Y0024750D01*
Y0024250D02*
X0043250Y0024500D01*
X0042750D02*
X0043000Y0024250D01*
Y0023750D02*
X0042750Y0023500D01*
X0043250D02*
X0043000Y0023750D01*
Y0023250D02*
X0043250Y0023500D01*
X0042750D02*
X0043000Y0023250D01*
Y0022750D02*
X0042750Y0022500D01*
X0043250D02*
X0043000Y0022750D01*
Y0022250D02*
X0043250Y0022500D01*
X0042750D02*
X0043000Y0022250D01*
Y0021750D02*
X0042750Y0021500D01*
X0043250D02*
X0043000Y0021750D01*
Y0021250D02*
X0043250Y0021500D01*
X0042750D02*
X0043000Y0021250D01*
Y0020750D02*
X0042750Y0020500D01*
X0043250D02*
X0043000Y0020750D01*
Y0020250D02*
X0043250Y0020500D01*
X0042750D02*
X0043000Y0020250D01*
Y0019750D02*
X0042750Y0019500D01*
X0043250D02*
X0043000Y0019750D01*
Y0019250D02*
X0043250Y0019500D01*
X0042750D02*
X0043000Y0019250D01*
X0046000Y0019750D02*
X0045750Y0019500D01*
X0046250D02*
X0046000Y0019750D01*
Y0019250D02*
X0046250Y0019500D01*
X0045750D02*
X0046000Y0019250D01*
Y0020750D02*
X0045750Y0020500D01*
X0046250D02*
X0046000Y0020750D01*
Y0020250D02*
X0046250Y0020500D01*
X0045750D02*
X0046000Y0020250D01*
Y0021750D02*
X0045750Y0021500D01*
X0046250D02*
X0046000Y0021750D01*
Y0021250D02*
X0046250Y0021500D01*
X0045750D02*
X0046000Y0021250D01*
Y0022750D02*
X0045750Y0022500D01*
X0046250D02*
X0046000Y0022750D01*
Y0022250D02*
X0046250Y0022500D01*
X0045750D02*
X0046000Y0022250D01*
Y0023750D02*
X0045750Y0023500D01*
X0046250D02*
X0046000Y0023750D01*
Y0023250D02*
X0046250Y0023500D01*
X0045750D02*
X0046000Y0023250D01*
Y0024750D02*
X0045750Y0024500D01*
X0046250D02*
X0046000Y0024750D01*
Y0024250D02*
X0046250Y0024500D01*
X0045750D02*
X0046000Y0024250D01*
Y0025750D02*
X0045750Y0025500D01*
X0046250D02*
X0046000Y0025750D01*
Y0025250D02*
X0046250Y0025500D01*
X0045750D02*
X0046000Y0025250D01*
Y0026750D02*
X0045750Y0026500D01*
X0046250D02*
X0046000Y0026750D01*
Y0026250D02*
X0046250Y0026500D01*
X0045750D02*
X0046000Y0026250D01*
X0043000Y0032750D02*
X0042750Y0032500D01*
X0043250D02*
X0043000Y0032750D01*
Y0032250D02*
X0043250Y0032500D01*
X0042750D02*
X0043000Y0032250D01*
Y0031750D02*
X0042750Y0031500D01*
X0043250D02*
X0043000Y0031750D01*
Y0031250D02*
X0043250Y0031500D01*
X0042750D02*
X0043000Y0031250D01*
Y0030750D02*
X0042750Y0030500D01*
X0043250D02*
X0043000Y0030750D01*
Y0030250D02*
X0043250Y0030500D01*
X0042750D02*
X0043000Y0030250D01*
Y0029750D02*
X0042750Y0029500D01*
X0043250D02*
X0043000Y0029750D01*
Y0029250D02*
X0043250Y0029500D01*
X0042750D02*
X0043000Y0029250D01*
X0046000Y0029750D02*
X0045750Y0029500D01*
X0046250D02*
X0046000Y0029750D01*
Y0029250D02*
X0046250Y0029500D01*
X0045750D02*
X0046000Y0029250D01*
Y0030750D02*
X0045750Y0030500D01*
X0046250D02*
X0046000Y0030750D01*
Y0030250D02*
X0046250Y0030500D01*
X0045750D02*
X0046000Y0030250D01*
Y0031750D02*
X0045750Y0031500D01*
X0046250D02*
X0046000Y0031750D01*
Y0031250D02*
X0046250Y0031500D01*
X0045750D02*
X0046000Y0031250D01*
Y0032750D02*
X0045750Y0032500D01*
X0046250D02*
X0046000Y0032750D01*
Y0032250D02*
X0046250Y0032500D01*
X0045750D02*
X0046000Y0032250D01*
X0043000Y0037250D02*
X0042750Y0037000D01*
X0043250D02*
X0043000Y0037250D01*
Y0036750D02*
X0043250Y0037000D01*
X0042750D02*
X0043000Y0036750D01*
Y0036250D02*
X0042750Y0036000D01*
X0043250D02*
X0043000Y0036250D01*
Y0035750D02*
X0043250Y0036000D01*
X0042750D02*
X0043000Y0035750D01*
Y0035250D02*
X0042750Y0035000D01*
X0043250D02*
X0043000Y0035250D01*
Y0034750D02*
X0043250Y0035000D01*
X0042750D02*
X0043000Y0034750D01*
Y0034250D02*
X0042750Y0034000D01*
X0043250D02*
X0043000Y0034250D01*
Y0033750D02*
X0043250Y0034000D01*
X0042750D02*
X0043000Y0033750D01*
X0046000Y0034250D02*
X0045750Y0034000D01*
X0046250D02*
X0046000Y0034250D01*
Y0033750D02*
X0046250Y0034000D01*
X0045750D02*
X0046000Y0033750D01*
Y0035250D02*
X0045750Y0035000D01*
X0046250D02*
X0046000Y0035250D01*
Y0034750D02*
X0046250Y0035000D01*
X0045750D02*
X0046000Y0034750D01*
Y0036250D02*
X0045750Y0036000D01*
X0046250D02*
X0046000Y0036250D01*
Y0035750D02*
X0046250Y0036000D01*
X0045750D02*
X0046000Y0035750D01*
Y0037250D02*
X0045750Y0037000D01*
X0046250D02*
X0046000Y0037250D01*
Y0036750D02*
X0046250Y0037000D01*
X0045750D02*
X0046000Y0036750D01*
X0036000Y0006750D02*
X0035750Y0006500D01*
X0036250D02*
X0036000Y0006750D01*
Y0006250D02*
X0036250Y0006500D01*
X0035750D02*
X0036000Y0006250D01*
Y0005750D02*
X0035750Y0005500D01*
X0036250D02*
X0036000Y0005750D01*
Y0005250D02*
X0036250Y0005500D01*
X0035750D02*
X0036000Y0005250D01*
Y0004750D02*
X0035750Y0004500D01*
X0036250D02*
X0036000Y0004750D01*
Y0004250D02*
X0036250Y0004500D01*
X0035750D02*
X0036000Y0004250D01*
Y0003750D02*
X0035750Y0003500D01*
X0036250D02*
X0036000Y0003750D01*
Y0003250D02*
X0036250Y0003500D01*
X0035750D02*
X0036000Y0003250D01*
X0039000Y0003750D02*
X0038750Y0003500D01*
X0039250D02*
X0039000Y0003750D01*
Y0003250D02*
X0039250Y0003500D01*
X0038750D02*
X0039000Y0003250D01*
Y0004750D02*
X0038750Y0004500D01*
X0039250D02*
X0039000Y0004750D01*
Y0004250D02*
X0039250Y0004500D01*
X0038750D02*
X0039000Y0004250D01*
Y0005750D02*
X0038750Y0005500D01*
X0039250D02*
X0039000Y0005750D01*
Y0005250D02*
X0039250Y0005500D01*
X0038750D02*
X0039000Y0005250D01*
Y0006750D02*
X0038750Y0006500D01*
X0039250D02*
X0039000Y0006750D01*
Y0006250D02*
X0039250Y0006500D01*
X0038750D02*
X0039000Y0006250D01*
X0034000Y0016750D02*
X0033750Y0016500D01*
X0034250D02*
X0034000Y0016750D01*
Y0016250D02*
X0034250Y0016500D01*
X0033750D02*
X0034000Y0016250D01*
Y0015750D02*
X0033750Y0015500D01*
X0034250D02*
X0034000Y0015750D01*
Y0015250D02*
X0034250Y0015500D01*
X0033750D02*
X0034000Y0015250D01*
Y0014750D02*
X0033750Y0014500D01*
X0034250D02*
X0034000Y0014750D01*
Y0014250D02*
X0034250Y0014500D01*
X0033750D02*
X0034000Y0014250D01*
Y0013750D02*
X0033750Y0013500D01*
X0034250D02*
X0034000Y0013750D01*
Y0013250D02*
X0034250Y0013500D01*
X0033750D02*
X0034000Y0013250D01*
Y0012750D02*
X0033750Y0012500D01*
X0034250D02*
X0034000Y0012750D01*
Y0012250D02*
X0034250Y0012500D01*
X0033750D02*
X0034000Y0012250D01*
Y0011750D02*
X0033750Y0011500D01*
X0034250D02*
X0034000Y0011750D01*
Y0011250D02*
X0034250Y0011500D01*
X0033750D02*
X0034000Y0011250D01*
Y0010750D02*
X0033750Y0010500D01*
X0034250D02*
X0034000Y0010750D01*
Y0010250D02*
X0034250Y0010500D01*
X0033750D02*
X0034000Y0010250D01*
X0037000Y0010750D02*
X0036750Y0010500D01*
X0037250D02*
X0037000Y0010750D01*
Y0010250D02*
X0037250Y0010500D01*
X0036750D02*
X0037000Y0010250D01*
Y0011750D02*
X0036750Y0011500D01*
X0037250D02*
X0037000Y0011750D01*
Y0011250D02*
X0037250Y0011500D01*
X0036750D02*
X0037000Y0011250D01*
Y0012750D02*
X0036750Y0012500D01*
X0037250D02*
X0037000Y0012750D01*
Y0012250D02*
X0037250Y0012500D01*
X0036750D02*
X0037000Y0012250D01*
Y0013750D02*
X0036750Y0013500D01*
X0037250D02*
X0037000Y0013750D01*
Y0013250D02*
X0037250Y0013500D01*
X0036750D02*
X0037000Y0013250D01*
Y0014750D02*
X0036750Y0014500D01*
X0037250D02*
X0037000Y0014750D01*
Y0014250D02*
X0037250Y0014500D01*
X0036750D02*
X0037000Y0014250D01*
Y0015750D02*
X0036750Y0015500D01*
X0037250D02*
X0037000Y0015750D01*
Y0015250D02*
X0037250Y0015500D01*
X0036750D02*
X0037000Y0015250D01*
Y0016750D02*
X0036750Y0016500D01*
X0037250D02*
X0037000Y0016750D01*
Y0016250D02*
X0037250Y0016500D01*
X0036750D02*
X0037000Y0016250D01*
X0034000Y0032750D02*
X0033750Y0032500D01*
X0034250D02*
X0034000Y0032750D01*
Y0032250D02*
X0034250Y0032500D01*
X0033750D02*
X0034000Y0032250D01*
Y0031750D02*
X0033750Y0031500D01*
X0034250D02*
X0034000Y0031750D01*
Y0031250D02*
X0034250Y0031500D01*
X0033750D02*
X0034000Y0031250D01*
Y0030750D02*
X0033750Y0030500D01*
X0034250D02*
X0034000Y0030750D01*
Y0030250D02*
X0034250Y0030500D01*
X0033750D02*
X0034000Y0030250D01*
Y0029750D02*
X0033750Y0029500D01*
X0034250D02*
X0034000Y0029750D01*
Y0029250D02*
X0034250Y0029500D01*
X0033750D02*
X0034000Y0029250D01*
X0037000Y0029750D02*
X0036750Y0029500D01*
X0037250D02*
X0037000Y0029750D01*
Y0029250D02*
X0037250Y0029500D01*
X0036750D02*
X0037000Y0029250D01*
Y0030750D02*
X0036750Y0030500D01*
X0037250D02*
X0037000Y0030750D01*
Y0030250D02*
X0037250Y0030500D01*
X0036750D02*
X0037000Y0030250D01*
Y0031750D02*
X0036750Y0031500D01*
X0037250D02*
X0037000Y0031750D01*
Y0031250D02*
X0037250Y0031500D01*
X0036750D02*
X0037000Y0031250D01*
Y0032750D02*
X0036750Y0032500D01*
X0037250D02*
X0037000Y0032750D01*
Y0032250D02*
X0037250Y0032500D01*
X0036750D02*
X0037000Y0032250D01*
X0034000Y0037250D02*
X0033750Y0037000D01*
X0034250D02*
X0034000Y0037250D01*
Y0036750D02*
X0034250Y0037000D01*
X0033750D02*
X0034000Y0036750D01*
Y0036250D02*
X0033750Y0036000D01*
X0034250D02*
X0034000Y0036250D01*
Y0035750D02*
X0034250Y0036000D01*
X0033750D02*
X0034000Y0035750D01*
Y0035250D02*
X0033750Y0035000D01*
X0034250D02*
X0034000Y0035250D01*
Y0034750D02*
X0034250Y0035000D01*
X0033750D02*
X0034000Y0034750D01*
Y0034250D02*
X0033750Y0034000D01*
X0034250D02*
X0034000Y0034250D01*
Y0033750D02*
X0034250Y0034000D01*
X0033750D02*
X0034000Y0033750D01*
X0037000Y0034250D02*
X0036750Y0034000D01*
X0037250D02*
X0037000Y0034250D01*
Y0033750D02*
X0037250Y0034000D01*
X0036750D02*
X0037000Y0033750D01*
Y0035250D02*
X0036750Y0035000D01*
X0037250D02*
X0037000Y0035250D01*
Y0034750D02*
X0037250Y0035000D01*
X0036750D02*
X0037000Y0034750D01*
Y0036250D02*
X0036750Y0036000D01*
X0037250D02*
X0037000Y0036250D01*
Y0035750D02*
X0037250Y0036000D01*
X0036750D02*
X0037000Y0035750D01*
Y0037250D02*
X0036750Y0037000D01*
X0037250D02*
X0037000Y0037250D01*
Y0036750D02*
X0037250Y0037000D01*
X0036750D02*
X0037000Y0036750D01*
X0021500Y0006250D02*
X0021250Y0006000D01*
X0021750D02*
X0021500Y0006250D01*
Y0005750D02*
X0021750Y0006000D01*
X0021250D02*
X0021500Y0005750D01*
X0022500Y0006250D02*
X0022250Y0006000D01*
X0022750D02*
X0022500Y0006250D01*
Y0005750D02*
X0022750Y0006000D01*
X0022250D02*
X0022500Y0005750D01*
X0023500Y0006250D02*
X0023250Y0006000D01*
X0023750D02*
X0023500Y0006250D01*
Y0005750D02*
X0023750Y0006000D01*
X0023250D02*
X0023500Y0005750D01*
X0024500Y0006250D02*
X0024250Y0006000D01*
X0024750D02*
X0024500Y0006250D01*
Y0005750D02*
X0024750Y0006000D01*
X0024250D02*
X0024500Y0005750D01*
X0025500Y0006250D02*
X0025250Y0006000D01*
X0025750D02*
X0025500Y0006250D01*
Y0005750D02*
X0025750Y0006000D01*
X0025250D02*
X0025500Y0005750D01*
X0026500Y0006250D02*
X0026250Y0006000D01*
X0026750D02*
X0026500Y0006250D01*
Y0005750D02*
X0026750Y0006000D01*
X0026250D02*
X0026500Y0005750D01*
X0027500Y0006250D02*
X0027250Y0006000D01*
X0027750D02*
X0027500Y0006250D01*
Y0005750D02*
X0027750Y0006000D01*
X0027250D02*
X0027500Y0005750D01*
X0028500Y0006250D02*
X0028250Y0006000D01*
X0028750D02*
X0028500Y0006250D01*
Y0005750D02*
X0028750Y0006000D01*
X0028250D02*
X0028500Y0005750D01*
Y0009250D02*
X0028250Y0009000D01*
X0028750D02*
X0028500Y0009250D01*
Y0008750D02*
X0028750Y0009000D01*
X0028250D02*
X0028500Y0008750D01*
X0027500Y0009250D02*
X0027250Y0009000D01*
X0027750D02*
X0027500Y0009250D01*
Y0008750D02*
X0027750Y0009000D01*
X0027250D02*
X0027500Y0008750D01*
X0026500Y0009250D02*
X0026250Y0009000D01*
X0026750D02*
X0026500Y0009250D01*
Y0008750D02*
X0026750Y0009000D01*
X0026250D02*
X0026500Y0008750D01*
X0025500Y0009250D02*
X0025250Y0009000D01*
X0025750D02*
X0025500Y0009250D01*
Y0008750D02*
X0025750Y0009000D01*
X0025250D02*
X0025500Y0008750D01*
X0024500Y0009250D02*
X0024250Y0009000D01*
X0024750D02*
X0024500Y0009250D01*
Y0008750D02*
X0024750Y0009000D01*
X0024250D02*
X0024500Y0008750D01*
X0023500Y0009250D02*
X0023250Y0009000D01*
X0023750D02*
X0023500Y0009250D01*
Y0008750D02*
X0023750Y0009000D01*
X0023250D02*
X0023500Y0008750D01*
X0022500Y0009250D02*
X0022250Y0009000D01*
X0022750D02*
X0022500Y0009250D01*
Y0008750D02*
X0022750Y0009000D01*
X0022250D02*
X0022500Y0008750D01*
X0021500Y0009250D02*
X0021250Y0009000D01*
X0021750D02*
X0021500Y0009250D01*
Y0008750D02*
X0021750Y0009000D01*
X0021250D02*
X0021500Y0008750D01*
X0012500Y0006250D02*
X0012250Y0006000D01*
X0012750D02*
X0012500Y0006250D01*
Y0005750D02*
X0012750Y0006000D01*
X0012250D02*
X0012500Y0005750D01*
X0013500Y0006250D02*
X0013250Y0006000D01*
X0013750D02*
X0013500Y0006250D01*
Y0005750D02*
X0013750Y0006000D01*
X0013250D02*
X0013500Y0005750D01*
X0014500Y0006250D02*
X0014250Y0006000D01*
X0014750D02*
X0014500Y0006250D01*
Y0005750D02*
X0014750Y0006000D01*
X0014250D02*
X0014500Y0005750D01*
X0015500Y0006250D02*
X0015250Y0006000D01*
X0015750D02*
X0015500Y0006250D01*
Y0005750D02*
X0015750Y0006000D01*
X0015250D02*
X0015500Y0005750D01*
X0016500Y0006250D02*
X0016250Y0006000D01*
X0016750D02*
X0016500Y0006250D01*
Y0005750D02*
X0016750Y0006000D01*
X0016250D02*
X0016500Y0005750D01*
X0017500Y0006250D02*
X0017250Y0006000D01*
X0017750D02*
X0017500Y0006250D01*
Y0005750D02*
X0017750Y0006000D01*
X0017250D02*
X0017500Y0005750D01*
X0018500Y0006250D02*
X0018250Y0006000D01*
X0018750D02*
X0018500Y0006250D01*
Y0005750D02*
X0018750Y0006000D01*
X0018250D02*
X0018500Y0005750D01*
X0019500Y0006250D02*
X0019250Y0006000D01*
X0019750D02*
X0019500Y0006250D01*
Y0005750D02*
X0019750Y0006000D01*
X0019250D02*
X0019500Y0005750D01*
Y0009250D02*
X0019250Y0009000D01*
X0019750D02*
X0019500Y0009250D01*
Y0008750D02*
X0019750Y0009000D01*
X0019250D02*
X0019500Y0008750D01*
X0018500Y0009250D02*
X0018250Y0009000D01*
X0018750D02*
X0018500Y0009250D01*
Y0008750D02*
X0018750Y0009000D01*
X0018250D02*
X0018500Y0008750D01*
X0017500Y0009250D02*
X0017250Y0009000D01*
X0017750D02*
X0017500Y0009250D01*
Y0008750D02*
X0017750Y0009000D01*
X0017250D02*
X0017500Y0008750D01*
X0016500Y0009250D02*
X0016250Y0009000D01*
X0016750D02*
X0016500Y0009250D01*
Y0008750D02*
X0016750Y0009000D01*
X0016250D02*
X0016500Y0008750D01*
X0015500Y0009250D02*
X0015250Y0009000D01*
X0015750D02*
X0015500Y0009250D01*
Y0008750D02*
X0015750Y0009000D01*
X0015250D02*
X0015500Y0008750D01*
X0014500Y0009250D02*
X0014250Y0009000D01*
X0014750D02*
X0014500Y0009250D01*
Y0008750D02*
X0014750Y0009000D01*
X0014250D02*
X0014500Y0008750D01*
X0013500Y0009250D02*
X0013250Y0009000D01*
X0013750D02*
X0013500Y0009250D01*
Y0008750D02*
X0013750Y0009000D01*
X0013250D02*
X0013500Y0008750D01*
X0012500Y0009250D02*
X0012250Y0009000D01*
X0012750D02*
X0012500Y0009250D01*
Y0008750D02*
X0012750Y0009000D01*
X0012250D02*
X0012500Y0008750D01*
X0009500Y0013250D02*
X0009250Y0013000D01*
X0009750D02*
X0009500Y0013250D01*
Y0012750D02*
X0009750Y0013000D01*
X0009250D02*
X0009500Y0012750D01*
X0010500Y0013250D02*
X0010250Y0013000D01*
X0010750D02*
X0010500Y0013250D01*
Y0012750D02*
X0010750Y0013000D01*
X0010250D02*
X0010500Y0012750D01*
X0011500Y0013250D02*
X0011250Y0013000D01*
X0011750D02*
X0011500Y0013250D01*
Y0012750D02*
X0011750Y0013000D01*
X0011250D02*
X0011500Y0012750D01*
X0012500Y0013250D02*
X0012250Y0013000D01*
X0012750D02*
X0012500Y0013250D01*
Y0012750D02*
X0012750Y0013000D01*
X0012250D02*
X0012500Y0012750D01*
X0013500Y0013250D02*
X0013250Y0013000D01*
X0013750D02*
X0013500Y0013250D01*
Y0012750D02*
X0013750Y0013000D01*
X0013250D02*
X0013500Y0012750D01*
X0014500Y0013250D02*
X0014250Y0013000D01*
X0014750D02*
X0014500Y0013250D01*
Y0012750D02*
X0014750Y0013000D01*
X0014250D02*
X0014500Y0012750D01*
X0015500Y0013250D02*
X0015250Y0013000D01*
X0015750D02*
X0015500Y0013250D01*
Y0012750D02*
X0015750Y0013000D01*
X0015250D02*
X0015500Y0012750D01*
X0016500Y0013250D02*
X0016250Y0013000D01*
X0016750D02*
X0016500Y0013250D01*
Y0012750D02*
X0016750Y0013000D01*
X0016250D02*
X0016500Y0012750D01*
Y0016250D02*
X0016250Y0016000D01*
X0016750D02*
X0016500Y0016250D01*
Y0015750D02*
X0016750Y0016000D01*
X0016250D02*
X0016500Y0015750D01*
X0015500Y0016250D02*
X0015250Y0016000D01*
X0015750D02*
X0015500Y0016250D01*
Y0015750D02*
X0015750Y0016000D01*
X0015250D02*
X0015500Y0015750D01*
X0014500Y0016250D02*
X0014250Y0016000D01*
X0014750D02*
X0014500Y0016250D01*
Y0015750D02*
X0014750Y0016000D01*
X0014250D02*
X0014500Y0015750D01*
X0013500Y0016250D02*
X0013250Y0016000D01*
X0013750D02*
X0013500Y0016250D01*
Y0015750D02*
X0013750Y0016000D01*
X0013250D02*
X0013500Y0015750D01*
X0012500Y0016250D02*
X0012250Y0016000D01*
X0012750D02*
X0012500Y0016250D01*
Y0015750D02*
X0012750Y0016000D01*
X0012250D02*
X0012500Y0015750D01*
X0011500Y0016250D02*
X0011250Y0016000D01*
X0011750D02*
X0011500Y0016250D01*
Y0015750D02*
X0011750Y0016000D01*
X0011250D02*
X0011500Y0015750D01*
X0010500Y0016250D02*
X0010250Y0016000D01*
X0010750D02*
X0010500Y0016250D01*
Y0015750D02*
X0010750Y0016000D01*
X0010250D02*
X0010500Y0015750D01*
X0009500Y0016250D02*
X0009250Y0016000D01*
X0009750D02*
X0009500Y0016250D01*
Y0015750D02*
X0009750Y0016000D01*
X0009250D02*
X0009500Y0015750D01*
X0003500Y0006250D02*
X0003250Y0006000D01*
X0003750D02*
X0003500Y0006250D01*
Y0005750D02*
X0003750Y0006000D01*
X0003250D02*
X0003500Y0005750D01*
X0004500Y0006250D02*
X0004250Y0006000D01*
X0004750D02*
X0004500Y0006250D01*
Y0005750D02*
X0004750Y0006000D01*
X0004250D02*
X0004500Y0005750D01*
X0005500Y0006250D02*
X0005250Y0006000D01*
X0005750D02*
X0005500Y0006250D01*
Y0005750D02*
X0005750Y0006000D01*
X0005250D02*
X0005500Y0005750D01*
X0006500Y0006250D02*
X0006250Y0006000D01*
X0006750D02*
X0006500Y0006250D01*
Y0005750D02*
X0006750Y0006000D01*
X0006250D02*
X0006500Y0005750D01*
X0007500Y0006250D02*
X0007250Y0006000D01*
X0007750D02*
X0007500Y0006250D01*
Y0005750D02*
X0007750Y0006000D01*
X0007250D02*
X0007500Y0005750D01*
X0008500Y0006250D02*
X0008250Y0006000D01*
X0008750D02*
X0008500Y0006250D01*
Y0005750D02*
X0008750Y0006000D01*
X0008250D02*
X0008500Y0005750D01*
X0009500Y0006250D02*
X0009250Y0006000D01*
X0009750D02*
X0009500Y0006250D01*
Y0005750D02*
X0009750Y0006000D01*
X0009250D02*
X0009500Y0005750D01*
X0010500Y0006250D02*
X0010250Y0006000D01*
X0010750D02*
X0010500Y0006250D01*
Y0005750D02*
X0010750Y0006000D01*
X0010250D02*
X0010500Y0005750D01*
Y0009250D02*
X0010250Y0009000D01*
X0010750D02*
X0010500Y0009250D01*
Y0008750D02*
X0010750Y0009000D01*
X0010250D02*
X0010500Y0008750D01*
X0009500Y0009250D02*
X0009250Y0009000D01*
X0009750D02*
X0009500Y0009250D01*
Y0008750D02*
X0009750Y0009000D01*
X0009250D02*
X0009500Y0008750D01*
X0008500Y0009250D02*
X0008250Y0009000D01*
X0008750D02*
X0008500Y0009250D01*
Y0008750D02*
X0008750Y0009000D01*
X0008250D02*
X0008500Y0008750D01*
X0007500Y0009250D02*
X0007250Y0009000D01*
X0007750D02*
X0007500Y0009250D01*
Y0008750D02*
X0007750Y0009000D01*
X0007250D02*
X0007500Y0008750D01*
X0006500Y0009250D02*
X0006250Y0009000D01*
X0006750D02*
X0006500Y0009250D01*
Y0008750D02*
X0006750Y0009000D01*
X0006250D02*
X0006500Y0008750D01*
X0005500Y0009250D02*
X0005250Y0009000D01*
X0005750D02*
X0005500Y0009250D01*
Y0008750D02*
X0005750Y0009000D01*
X0005250D02*
X0005500Y0008750D01*
X0004500Y0009250D02*
X0004250Y0009000D01*
X0004750D02*
X0004500Y0009250D01*
Y0008750D02*
X0004750Y0009000D01*
X0004250D02*
X0004500Y0008750D01*
X0003500Y0009250D02*
X0003250Y0009000D01*
X0003750D02*
X0003500Y0009250D01*
Y0008750D02*
X0003750Y0009000D01*
X0003250D02*
X0003500Y0008750D01*
X0064250Y0019500D02*
X0063750D01*
X0064000Y0019750D02*
Y0019250D01*
X0061250Y0019500D02*
X0060750D01*
X0061000Y0019750D02*
Y0019250D01*
X0064250Y0020500D02*
X0063750D01*
X0064000Y0020750D02*
Y0020250D01*
X0061250Y0020500D02*
X0060750D01*
X0061000Y0020750D02*
Y0020250D01*
X0064250Y0021500D02*
X0063750D01*
X0064000Y0021750D02*
Y0021250D01*
X0061250Y0021500D02*
X0060750D01*
X0061000Y0021750D02*
Y0021250D01*
X0064250Y0022500D02*
X0063750D01*
X0064000Y0022750D02*
Y0022250D01*
X0061250Y0022500D02*
X0060750D01*
X0061000Y0022750D02*
Y0022250D01*
X0064250Y0023500D02*
X0063750D01*
X0064000Y0023750D02*
Y0023250D01*
X0061250Y0023500D02*
X0060750D01*
X0061000Y0023750D02*
Y0023250D01*
X0064250Y0024500D02*
X0063750D01*
X0064000Y0024750D02*
Y0024250D01*
X0061250Y0024500D02*
X0060750D01*
X0061000Y0024750D02*
Y0024250D01*
X0064250Y0025500D02*
X0063750D01*
X0064000Y0025750D02*
Y0025250D01*
X0061250Y0025500D02*
X0060750D01*
X0061000Y0025750D02*
Y0025250D01*
X0064250Y0026500D02*
X0063750D01*
X0064000Y0026750D02*
Y0026250D01*
X0061250Y0026500D02*
X0060750D01*
X0061000Y0026750D02*
Y0026250D01*
X0060250Y0009500D02*
X0059750D01*
X0060000Y0009750D02*
Y0009250D01*
X0057250Y0009500D02*
X0056750D01*
X0057000Y0009750D02*
Y0009250D01*
X0057250Y0010500D02*
X0056750D01*
X0057000Y0010750D02*
Y0010250D01*
X0060250Y0010500D02*
X0059750D01*
X0060000Y0010750D02*
Y0010250D01*
X0060250Y0011500D02*
X0059750D01*
X0060000Y0011750D02*
Y0011250D01*
X0057250Y0011500D02*
X0056750D01*
X0057000Y0011750D02*
Y0011250D01*
X0057250Y0012500D02*
X0056750D01*
X0057000Y0012750D02*
Y0012250D01*
X0060250Y0012500D02*
X0059750D01*
X0060000Y0012750D02*
Y0012250D01*
X0057250Y0013500D02*
X0056750D01*
X0057000Y0013750D02*
Y0013250D01*
X0060250Y0013500D02*
X0059750D01*
X0060000Y0013750D02*
Y0013250D01*
X0057250Y0014500D02*
X0056750D01*
X0057000Y0014750D02*
Y0014250D01*
X0060250Y0014500D02*
X0059750D01*
X0060000Y0014750D02*
Y0014250D01*
X0060250Y0015500D02*
X0059750D01*
X0060000Y0015750D02*
Y0015250D01*
X0057250Y0015500D02*
X0056750D01*
X0057000Y0015750D02*
Y0015250D01*
X0060250Y0016500D02*
X0059750D01*
X0060000Y0016750D02*
Y0016250D01*
X0057250Y0016500D02*
X0056750D01*
X0057000Y0016750D02*
Y0016250D01*
X0057250Y0030500D02*
X0056750D01*
X0057000Y0030750D02*
Y0030250D01*
X0060250Y0030500D02*
X0059750D01*
X0060000Y0030750D02*
Y0030250D01*
X0060250Y0032500D02*
X0059750D01*
X0060000Y0032750D02*
Y0032250D01*
X0057250Y0032500D02*
X0056750D01*
X0057000Y0032750D02*
Y0032250D01*
X0057250Y0035000D02*
X0056750D01*
X0057000Y0035250D02*
Y0034750D01*
X0060250Y0035000D02*
X0059750D01*
X0060000Y0035250D02*
Y0034750D01*
X0060250Y0037000D02*
X0059750D01*
X0060000Y0037250D02*
Y0036750D01*
X0057250Y0037000D02*
X0056750D01*
X0057000Y0037250D02*
Y0036750D01*
X0056250Y0019500D02*
X0055750D01*
X0056000Y0019750D02*
Y0019250D01*
X0053250Y0019500D02*
X0052750D01*
X0053000Y0019750D02*
Y0019250D01*
X0056250Y0021500D02*
X0055750D01*
X0056000Y0021750D02*
Y0021250D01*
X0053250Y0021500D02*
X0052750D01*
X0053000Y0021750D02*
Y0021250D01*
X0056250Y0023500D02*
X0055750D01*
X0056000Y0023750D02*
Y0023250D01*
X0053250Y0023500D02*
X0052750D01*
X0053000Y0023750D02*
Y0023250D01*
X0056250Y0025500D02*
X0055750D01*
X0056000Y0025750D02*
Y0025250D01*
X0053250Y0025500D02*
X0052750D01*
X0053000Y0025750D02*
Y0025250D01*
X0048250Y0009500D02*
X0047750D01*
X0048000Y0009750D02*
Y0009250D01*
X0051250Y0009500D02*
X0050750D01*
X0051000Y0009750D02*
Y0009250D01*
X0051250Y0010500D02*
X0050750D01*
X0051000Y0010750D02*
Y0010250D01*
X0048250Y0010500D02*
X0047750D01*
X0048000Y0010750D02*
Y0010250D01*
X0048250Y0011500D02*
X0047750D01*
X0048000Y0011750D02*
Y0011250D01*
X0051250Y0011500D02*
X0050750D01*
X0051000Y0011750D02*
Y0011250D01*
X0051250Y0012500D02*
X0050750D01*
X0051000Y0012750D02*
Y0012250D01*
X0048250Y0012500D02*
X0047750D01*
X0048000Y0012750D02*
Y0012250D01*
X0051250Y0013500D02*
X0050750D01*
X0051000Y0013750D02*
Y0013250D01*
X0048250Y0013500D02*
X0047750D01*
X0048000Y0013750D02*
Y0013250D01*
X0051250Y0014500D02*
X0050750D01*
X0051000Y0014750D02*
Y0014250D01*
X0048250Y0014500D02*
X0047750D01*
X0048000Y0014750D02*
Y0014250D01*
X0051250Y0015500D02*
X0050750D01*
X0051000Y0015750D02*
Y0015250D01*
X0048250Y0015500D02*
X0047750D01*
X0048000Y0015750D02*
Y0015250D01*
X0051250Y0016500D02*
X0050750D01*
X0051000Y0016750D02*
Y0016250D01*
X0048250Y0016500D02*
X0047750D01*
X0048000Y0016750D02*
Y0016250D01*
X0050250Y0019500D02*
X0049750D01*
X0050000Y0019750D02*
Y0019250D01*
X0047250Y0019500D02*
X0046750D01*
X0047000Y0019750D02*
Y0019250D01*
X0050250Y0020500D02*
X0049750D01*
X0050000Y0020750D02*
Y0020250D01*
X0047250Y0020500D02*
X0046750D01*
X0047000Y0020750D02*
Y0020250D01*
X0050250Y0021500D02*
X0049750D01*
X0050000Y0021750D02*
Y0021250D01*
X0047250Y0021500D02*
X0046750D01*
X0047000Y0021750D02*
Y0021250D01*
X0050250Y0022500D02*
X0049750D01*
X0050000Y0022750D02*
Y0022250D01*
X0047250Y0022500D02*
X0046750D01*
X0047000Y0022750D02*
Y0022250D01*
X0050250Y0023500D02*
X0049750D01*
X0050000Y0023750D02*
Y0023250D01*
X0047250Y0023500D02*
X0046750D01*
X0047000Y0023750D02*
Y0023250D01*
X0050250Y0024500D02*
X0049750D01*
X0050000Y0024750D02*
Y0024250D01*
X0047250Y0024500D02*
X0046750D01*
X0047000Y0024750D02*
Y0024250D01*
X0050250Y0025500D02*
X0049750D01*
X0050000Y0025750D02*
Y0025250D01*
X0047250Y0025500D02*
X0046750D01*
X0047000Y0025750D02*
Y0025250D01*
X0050250Y0026500D02*
X0049750D01*
X0050000Y0026750D02*
Y0026250D01*
X0047250Y0026500D02*
X0046750D01*
X0047000Y0026750D02*
Y0026250D01*
X0048250Y0030500D02*
X0047750D01*
X0048000Y0030750D02*
Y0030250D01*
X0051250Y0030500D02*
X0050750D01*
X0051000Y0030750D02*
Y0030250D01*
X0051250Y0032500D02*
X0050750D01*
X0051000Y0032750D02*
Y0032250D01*
X0048250Y0032500D02*
X0047750D01*
X0048000Y0032750D02*
Y0032250D01*
X0048250Y0035000D02*
X0047750D01*
X0048000Y0035250D02*
Y0034750D01*
X0051250Y0035000D02*
X0050750D01*
X0051000Y0035250D02*
Y0034750D01*
X0051250Y0037000D02*
X0050750D01*
X0051000Y0037250D02*
Y0036750D01*
X0048250Y0037000D02*
X0047750D01*
X0048000Y0037250D02*
Y0036750D01*
X0039250Y0009500D02*
X0038750D01*
X0039000Y0009750D02*
Y0009250D01*
X0042250Y0009500D02*
X0041750D01*
X0042000Y0009750D02*
Y0009250D01*
X0042250Y0010500D02*
X0041750D01*
X0042000Y0010750D02*
Y0010250D01*
X0039250Y0010500D02*
X0038750D01*
X0039000Y0010750D02*
Y0010250D01*
X0039250Y0011500D02*
X0038750D01*
X0039000Y0011750D02*
Y0011250D01*
X0042250Y0011500D02*
X0041750D01*
X0042000Y0011750D02*
Y0011250D01*
X0042250Y0012500D02*
X0041750D01*
X0042000Y0012750D02*
Y0012250D01*
X0039250Y0012500D02*
X0038750D01*
X0039000Y0012750D02*
Y0012250D01*
X0039250Y0013500D02*
X0038750D01*
X0039000Y0013750D02*
Y0013250D01*
X0042250Y0013500D02*
X0041750D01*
X0042000Y0013750D02*
Y0013250D01*
X0042250Y0014500D02*
X0041750D01*
X0042000Y0014750D02*
Y0014250D01*
X0039250Y0014500D02*
X0038750D01*
X0039000Y0014750D02*
Y0014250D01*
X0039250Y0015500D02*
X0038750D01*
X0039000Y0015750D02*
Y0015250D01*
X0042250Y0015500D02*
X0041750D01*
X0042000Y0015750D02*
Y0015250D01*
X0042250Y0016500D02*
X0041750D01*
X0042000Y0016750D02*
Y0016250D01*
X0039250Y0016500D02*
X0038750D01*
X0039000Y0016750D02*
Y0016250D01*
X0042250Y0019500D02*
X0041750D01*
X0042000Y0019750D02*
Y0019250D01*
X0039250Y0019500D02*
X0038750D01*
X0039000Y0019750D02*
Y0019250D01*
X0042250Y0021500D02*
X0041750D01*
X0042000Y0021750D02*
Y0021250D01*
X0039250Y0021500D02*
X0038750D01*
X0039000Y0021750D02*
Y0021250D01*
X0042250Y0023500D02*
X0041750D01*
X0042000Y0023750D02*
Y0023250D01*
X0039250Y0023500D02*
X0038750D01*
X0039000Y0023750D02*
Y0023250D01*
X0039250Y0025500D02*
X0038750D01*
X0039000Y0025750D02*
Y0025250D01*
X0042250Y0025500D02*
X0041750D01*
X0042000Y0025750D02*
Y0025250D01*
X0039250Y0030500D02*
X0038750D01*
X0039000Y0030750D02*
Y0030250D01*
X0042250Y0030500D02*
X0041750D01*
X0042000Y0030750D02*
Y0030250D01*
X0039250Y0032500D02*
X0038750D01*
X0039000Y0032750D02*
Y0032250D01*
X0042250Y0032500D02*
X0041750D01*
X0042000Y0032750D02*
Y0032250D01*
X0039250Y0035000D02*
X0038750D01*
X0039000Y0035250D02*
Y0034750D01*
X0042250Y0035000D02*
X0041750D01*
X0042000Y0035250D02*
Y0034750D01*
X0042250Y0037000D02*
X0041750D01*
X0042000Y0037250D02*
Y0036750D01*
X0039250Y0037000D02*
X0038750D01*
X0039000Y0037250D02*
Y0036750D01*
X0030250Y0009500D02*
X0029750D01*
X0030000Y0009750D02*
Y0009250D01*
X0033250Y0009500D02*
X0032750D01*
X0033000Y0009750D02*
Y0009250D01*
X0033250Y0010500D02*
X0032750D01*
X0033000Y0010750D02*
Y0010250D01*
X0030250Y0010500D02*
X0029750D01*
X0030000Y0010750D02*
Y0010250D01*
X0030250Y0011500D02*
X0029750D01*
X0030000Y0011750D02*
Y0011250D01*
X0033250Y0011500D02*
X0032750D01*
X0033000Y0011750D02*
Y0011250D01*
X0033250Y0012500D02*
X0032750D01*
X0033000Y0012750D02*
Y0012250D01*
X0030250Y0012500D02*
X0029750D01*
X0030000Y0012750D02*
Y0012250D01*
X0030250Y0013500D02*
X0029750D01*
X0030000Y0013750D02*
Y0013250D01*
X0033250Y0013500D02*
X0032750D01*
X0033000Y0013750D02*
Y0013250D01*
X0033250Y0014500D02*
X0032750D01*
X0033000Y0014750D02*
Y0014250D01*
X0030250Y0014500D02*
X0029750D01*
X0030000Y0014750D02*
Y0014250D01*
X0030250Y0015500D02*
X0029750D01*
X0030000Y0015750D02*
Y0015250D01*
X0033250Y0015500D02*
X0032750D01*
X0033000Y0015750D02*
Y0015250D01*
X0033250Y0016500D02*
X0032750D01*
X0033000Y0016750D02*
Y0016250D01*
X0030250Y0016500D02*
X0029750D01*
X0030000Y0016750D02*
Y0016250D01*
X0030250Y0030500D02*
X0029750D01*
X0030000Y0030750D02*
Y0030250D01*
X0033250Y0030500D02*
X0032750D01*
X0033000Y0030750D02*
Y0030250D01*
X0033250Y0032500D02*
X0032750D01*
X0033000Y0032750D02*
Y0032250D01*
X0030250Y0032500D02*
X0029750D01*
X0030000Y0032750D02*
Y0032250D01*
X0030250Y0035000D02*
X0029750D01*
X0030000Y0035250D02*
Y0034750D01*
X0033250Y0035000D02*
X0032750D01*
X0033000Y0035250D02*
Y0034750D01*
X0033250Y0037000D02*
X0032750D01*
X0033000Y0037250D02*
Y0036750D01*
X0030250Y0037000D02*
X0029750D01*
X0030000Y0037250D02*
Y0036750D01*
X0028750Y0002000D02*
X0028250D01*
X0028500Y0002250D02*
Y0001750D01*
X0028750Y0005000D02*
X0028250D01*
X0028500Y0005250D02*
Y0004750D01*
X0027750Y0002000D02*
X0027250D01*
X0027500Y0002250D02*
Y0001750D01*
X0027750Y0005000D02*
X0027250D01*
X0027500Y0005250D02*
Y0004750D01*
X0026750Y0002000D02*
X0026250D01*
X0026500Y0002250D02*
Y0001750D01*
X0026750Y0005000D02*
X0026250D01*
X0026500Y0005250D02*
Y0004750D01*
X0025750Y0002000D02*
X0025250D01*
X0025500Y0002250D02*
Y0001750D01*
X0025750Y0005000D02*
X0025250D01*
X0025500Y0005250D02*
Y0004750D01*
X0024750Y0002000D02*
X0024250D01*
X0024500Y0002250D02*
Y0001750D01*
X0024750Y0005000D02*
X0024250D01*
X0024500Y0005250D02*
Y0004750D01*
X0023750Y0002000D02*
X0023250D01*
X0023500Y0002250D02*
Y0001750D01*
X0023750Y0005000D02*
X0023250D01*
X0023500Y0005250D02*
Y0004750D01*
X0022750Y0002000D02*
X0022250D01*
X0022500Y0002250D02*
Y0001750D01*
X0022750Y0005000D02*
X0022250D01*
X0022500Y0005250D02*
Y0004750D01*
X0021750Y0002000D02*
X0021250D01*
X0021500Y0002250D02*
Y0001750D01*
X0021750Y0005000D02*
X0021250D01*
X0021500Y0005250D02*
Y0004750D01*
X0019750Y0002000D02*
X0019250D01*
X0019500Y0002250D02*
Y0001750D01*
X0019750Y0005000D02*
X0019250D01*
X0019500Y0005250D02*
Y0004750D01*
X0018750Y0002000D02*
X0018250D01*
X0018500Y0002250D02*
Y0001750D01*
X0018750Y0005000D02*
X0018250D01*
X0018500Y0005250D02*
Y0004750D01*
X0019750Y0018000D02*
X0019250D01*
X0019500Y0018250D02*
Y0017750D01*
X0019750Y0015000D02*
X0019250D01*
X0019500Y0015250D02*
Y0014750D01*
X0018750Y0018000D02*
X0018250D01*
X0018500Y0018250D02*
Y0017750D01*
X0018750Y0015000D02*
X0018250D01*
X0018500Y0015250D02*
Y0014750D01*
X0017750Y0002000D02*
X0017250D01*
X0017500Y0002250D02*
Y0001750D01*
X0017750Y0005000D02*
X0017250D01*
X0017500Y0005250D02*
Y0004750D01*
X0016750Y0002000D02*
X0016250D01*
X0016500Y0002250D02*
Y0001750D01*
X0016750Y0005000D02*
X0016250D01*
X0016500Y0005250D02*
Y0004750D01*
X0015750Y0002000D02*
X0015250D01*
X0015500Y0002250D02*
Y0001750D01*
X0015750Y0005000D02*
X0015250D01*
X0015500Y0005250D02*
Y0004750D01*
X0014750Y0002000D02*
X0014250D01*
X0014500Y0002250D02*
Y0001750D01*
X0014750Y0005000D02*
X0014250D01*
X0014500Y0005250D02*
Y0004750D01*
X0013750Y0002000D02*
X0013250D01*
X0013500Y0002250D02*
Y0001750D01*
X0013750Y0005000D02*
X0013250D01*
X0013500Y0005250D02*
Y0004750D01*
X0012750Y0002000D02*
X0012250D01*
X0012500Y0002250D02*
Y0001750D01*
X0012750Y0005000D02*
X0012250D01*
X0012500Y0005250D02*
Y0004750D01*
X0010750Y0002000D02*
X0010250D01*
X0010500Y0002250D02*
Y0001750D01*
X0010750Y0005000D02*
X0010250D01*
X0010500Y0005250D02*
Y0004750D01*
X0009750Y0002000D02*
X0009250D01*
X0009500Y0002250D02*
Y0001750D01*
X0009750Y0005000D02*
X0009250D01*
X0009500Y0005250D02*
Y0004750D01*
X0008750Y0002000D02*
X0008250D01*
X0008500Y0002250D02*
Y0001750D01*
X0008750Y0005000D02*
X0008250D01*
X0008500Y0005250D02*
Y0004750D01*
X0007750Y0002000D02*
X0007250D01*
X0007500Y0002250D02*
Y0001750D01*
X0007750Y0005000D02*
X0007250D01*
X0007500Y0005250D02*
Y0004750D01*
X0006750Y0002000D02*
X0006250D01*
X0006500Y0002250D02*
Y0001750D01*
X0006750Y0005000D02*
X0006250D01*
X0006500Y0005250D02*
Y0004750D01*
X0005750Y0002000D02*
X0005250D01*
X0005500Y0002250D02*
Y0001750D01*
X0005750Y0005000D02*
X0005250D01*
X0005500Y0005250D02*
Y0004750D01*
X0004750Y0002000D02*
X0004250D01*
X0004500Y0002250D02*
Y0001750D01*
X0004750Y0005000D02*
X0004250D01*
X0004500Y0005250D02*
Y0004750D01*
X0003750Y0002000D02*
X0003250D01*
X0003500Y0002250D02*
Y0001750D01*
X0003750Y0005000D02*
X0003250D01*
X0003500Y0005250D02*
Y0004750D01*
X0067250Y0011250D02*
Y0010750D01*
X0067750Y0011250D02*
X0067250D01*
X0067750Y0010750D02*
Y0011250D01*
X0067250Y0010750D02*
X0067750D01*
Y0011250D02*
X0067250Y0010750D01*
X0067750D02*
X0067250Y0011250D01*
X0068250D02*
Y0010750D01*
X0068750Y0011250D02*
X0068250D01*
X0068750Y0010750D02*
Y0011250D01*
X0068250Y0010750D02*
X0068750D01*
Y0011250D02*
X0068250Y0010750D01*
X0068750D02*
X0068250Y0011250D01*
X0069250D02*
Y0010750D01*
X0069750Y0011250D02*
X0069250D01*
X0069750Y0010750D02*
Y0011250D01*
X0069250Y0010750D02*
X0069750D01*
Y0011250D02*
X0069250Y0010750D01*
X0069750D02*
X0069250Y0011250D01*
X0070250D02*
Y0010750D01*
X0070750Y0011250D02*
X0070250D01*
X0070750Y0010750D02*
Y0011250D01*
X0070250Y0010750D02*
X0070750D01*
Y0011250D02*
X0070250Y0010750D01*
X0070750D02*
X0070250Y0011250D01*
X0067250Y0015250D02*
Y0014750D01*
X0067750Y0015250D02*
X0067250D01*
X0067750Y0014750D02*
Y0015250D01*
X0067250Y0014750D02*
X0067750D01*
Y0015250D02*
X0067250Y0014750D01*
X0067750D02*
X0067250Y0015250D01*
X0068250D02*
Y0014750D01*
X0068750Y0015250D02*
X0068250D01*
X0068750Y0014750D02*
Y0015250D01*
X0068250Y0014750D02*
X0068750D01*
Y0015250D02*
X0068250Y0014750D01*
X0068750D02*
X0068250Y0015250D01*
X0069250D02*
Y0014750D01*
X0069750Y0015250D02*
X0069250D01*
X0069750Y0014750D02*
Y0015250D01*
X0069250Y0014750D02*
X0069750D01*
Y0015250D02*
X0069250Y0014750D01*
X0069750D02*
X0069250Y0015250D01*
X0070250D02*
Y0014750D01*
X0070750Y0015250D02*
X0070250D01*
X0070750Y0014750D02*
Y0015250D01*
X0070250Y0014750D02*
X0070750D01*
Y0015250D02*
X0070250Y0014750D01*
X0070750D02*
X0070250Y0015250D01*
X0067250Y0019250D02*
Y0018750D01*
X0067750Y0019250D02*
X0067250D01*
X0067750Y0018750D02*
Y0019250D01*
X0067250Y0018750D02*
X0067750D01*
Y0019250D02*
X0067250Y0018750D01*
X0067750D02*
X0067250Y0019250D01*
X0068250D02*
Y0018750D01*
X0068750Y0019250D02*
X0068250D01*
X0068750Y0018750D02*
Y0019250D01*
X0068250Y0018750D02*
X0068750D01*
Y0019250D02*
X0068250Y0018750D01*
X0068750D02*
X0068250Y0019250D01*
X0069250D02*
Y0018750D01*
X0069750Y0019250D02*
X0069250D01*
X0069750Y0018750D02*
Y0019250D01*
X0069250Y0018750D02*
X0069750D01*
Y0019250D02*
X0069250Y0018750D01*
X0069750D02*
X0069250Y0019250D01*
X0070250D02*
Y0018750D01*
X0070750Y0019250D02*
X0070250D01*
X0070750Y0018750D02*
Y0019250D01*
X0070250Y0018750D02*
X0070750D01*
Y0019250D02*
X0070250Y0018750D01*
X0070750D02*
X0070250Y0019250D01*
X0067250Y0023250D02*
Y0022750D01*
X0067750Y0023250D02*
X0067250D01*
X0067750Y0022750D02*
Y0023250D01*
X0067250Y0022750D02*
X0067750D01*
Y0023250D02*
X0067250Y0022750D01*
X0067750D02*
X0067250Y0023250D01*
X0068250D02*
Y0022750D01*
X0068750Y0023250D02*
X0068250D01*
X0068750Y0022750D02*
Y0023250D01*
X0068250Y0022750D02*
X0068750D01*
Y0023250D02*
X0068250Y0022750D01*
X0068750D02*
X0068250Y0023250D01*
X0069250D02*
Y0022750D01*
X0069750Y0023250D02*
X0069250D01*
X0069750Y0022750D02*
Y0023250D01*
X0069250Y0022750D02*
X0069750D01*
Y0023250D02*
X0069250Y0022750D01*
X0069750D02*
X0069250Y0023250D01*
X0070250D02*
Y0022750D01*
X0070750Y0023250D02*
X0070250D01*
X0070750Y0022750D02*
Y0023250D01*
X0070250Y0022750D02*
X0070750D01*
Y0023250D02*
X0070250Y0022750D01*
X0070750D02*
X0070250Y0023250D01*
X0067250Y0027250D02*
Y0026750D01*
X0067750Y0027250D02*
X0067250D01*
X0067750Y0026750D02*
Y0027250D01*
X0067250Y0026750D02*
X0067750D01*
Y0027250D02*
X0067250Y0026750D01*
X0067750D02*
X0067250Y0027250D01*
X0068250D02*
Y0026750D01*
X0068750Y0027250D02*
X0068250D01*
X0068750Y0026750D02*
Y0027250D01*
X0068250Y0026750D02*
X0068750D01*
Y0027250D02*
X0068250Y0026750D01*
X0068750D02*
X0068250Y0027250D01*
X0069250D02*
Y0026750D01*
X0069750Y0027250D02*
X0069250D01*
X0069750Y0026750D02*
Y0027250D01*
X0069250Y0026750D02*
X0069750D01*
Y0027250D02*
X0069250Y0026750D01*
X0069750D02*
X0069250Y0027250D01*
X0070250D02*
Y0026750D01*
X0070750Y0027250D02*
X0070250D01*
X0070750Y0026750D02*
Y0027250D01*
X0070250Y0026750D02*
X0070750D01*
Y0027250D02*
X0070250Y0026750D01*
X0070750D02*
X0070250Y0027250D01*
X0068250Y0043250D02*
Y0042750D01*
X0068750Y0043250D02*
X0068250D01*
X0068750Y0042750D02*
Y0043250D01*
X0068250Y0042750D02*
X0068750D01*
Y0043250D02*
X0068250Y0042750D01*
X0068750D02*
X0068250Y0043250D01*
Y0042250D02*
Y0041750D01*
X0068750Y0042250D02*
X0068250D01*
X0068750Y0041750D02*
Y0042250D01*
X0068250Y0041750D02*
X0068750D01*
Y0042250D02*
X0068250Y0041750D01*
X0068750D02*
X0068250Y0042250D01*
Y0041250D02*
Y0040750D01*
X0068750Y0041250D02*
X0068250D01*
X0068750Y0040750D02*
Y0041250D01*
X0068250Y0040750D02*
X0068750D01*
Y0041250D02*
X0068250Y0040750D01*
X0068750D02*
X0068250Y0041250D01*
Y0040250D02*
Y0039750D01*
X0068750Y0040250D02*
X0068250D01*
X0068750Y0039750D02*
Y0040250D01*
X0068250Y0039750D02*
X0068750D01*
Y0040250D02*
X0068250Y0039750D01*
X0068750D02*
X0068250Y0040250D01*
X0064250Y0043250D02*
Y0042750D01*
X0064750Y0043250D02*
X0064250D01*
X0064750Y0042750D02*
Y0043250D01*
X0064250Y0042750D02*
X0064750D01*
Y0043250D02*
X0064250Y0042750D01*
X0064750D02*
X0064250Y0043250D01*
Y0042250D02*
Y0041750D01*
X0064750Y0042250D02*
X0064250D01*
X0064750Y0041750D02*
Y0042250D01*
X0064250Y0041750D02*
X0064750D01*
Y0042250D02*
X0064250Y0041750D01*
X0064750D02*
X0064250Y0042250D01*
Y0041250D02*
Y0040750D01*
X0064750Y0041250D02*
X0064250D01*
X0064750Y0040750D02*
Y0041250D01*
X0064250Y0040750D02*
X0064750D01*
Y0041250D02*
X0064250Y0040750D01*
X0064750D02*
X0064250Y0041250D01*
Y0040250D02*
Y0039750D01*
X0064750Y0040250D02*
X0064250D01*
X0064750Y0039750D02*
Y0040250D01*
X0064250Y0039750D02*
X0064750D01*
Y0040250D02*
X0064250Y0039750D01*
X0064750D02*
X0064250Y0040250D01*
X0060250Y0043250D02*
Y0042750D01*
X0060750Y0043250D02*
X0060250D01*
X0060750Y0042750D02*
Y0043250D01*
X0060250Y0042750D02*
X0060750D01*
Y0043250D02*
X0060250Y0042750D01*
X0060750D02*
X0060250Y0043250D01*
Y0042250D02*
Y0041750D01*
X0060750Y0042250D02*
X0060250D01*
X0060750Y0041750D02*
Y0042250D01*
X0060250Y0041750D02*
X0060750D01*
Y0042250D02*
X0060250Y0041750D01*
X0060750D02*
X0060250Y0042250D01*
Y0041250D02*
Y0040750D01*
X0060750Y0041250D02*
X0060250D01*
X0060750Y0040750D02*
Y0041250D01*
X0060250Y0040750D02*
X0060750D01*
Y0041250D02*
X0060250Y0040750D01*
X0060750D02*
X0060250Y0041250D01*
Y0040250D02*
Y0039750D01*
X0060750Y0040250D02*
X0060250D01*
X0060750Y0039750D02*
Y0040250D01*
X0060250Y0039750D02*
X0060750D01*
Y0040250D02*
X0060250Y0039750D01*
X0060750D02*
X0060250Y0040250D01*
X0056250Y0043250D02*
Y0042750D01*
X0056750Y0043250D02*
X0056250D01*
X0056750Y0042750D02*
Y0043250D01*
X0056250Y0042750D02*
X0056750D01*
Y0043250D02*
X0056250Y0042750D01*
X0056750D02*
X0056250Y0043250D01*
Y0042250D02*
Y0041750D01*
X0056750Y0042250D02*
X0056250D01*
X0056750Y0041750D02*
Y0042250D01*
X0056250Y0041750D02*
X0056750D01*
Y0042250D02*
X0056250Y0041750D01*
X0056750D02*
X0056250Y0042250D01*
Y0041250D02*
Y0040750D01*
X0056750Y0041250D02*
X0056250D01*
X0056750Y0040750D02*
Y0041250D01*
X0056250Y0040750D02*
X0056750D01*
Y0041250D02*
X0056250Y0040750D01*
X0056750D02*
X0056250Y0041250D01*
Y0040250D02*
Y0039750D01*
X0056750Y0040250D02*
X0056250D01*
X0056750Y0039750D02*
Y0040250D01*
X0056250Y0039750D02*
X0056750D01*
Y0040250D02*
X0056250Y0039750D01*
X0056750D02*
X0056250Y0040250D01*
X0052250Y0043250D02*
Y0042750D01*
X0052750Y0043250D02*
X0052250D01*
X0052750Y0042750D02*
Y0043250D01*
X0052250Y0042750D02*
X0052750D01*
Y0043250D02*
X0052250Y0042750D01*
X0052750D02*
X0052250Y0043250D01*
Y0042250D02*
Y0041750D01*
X0052750Y0042250D02*
X0052250D01*
X0052750Y0041750D02*
Y0042250D01*
X0052250Y0041750D02*
X0052750D01*
Y0042250D02*
X0052250Y0041750D01*
X0052750D02*
X0052250Y0042250D01*
Y0041250D02*
Y0040750D01*
X0052750Y0041250D02*
X0052250D01*
X0052750Y0040750D02*
Y0041250D01*
X0052250Y0040750D02*
X0052750D01*
Y0041250D02*
X0052250Y0040750D01*
X0052750D02*
X0052250Y0041250D01*
Y0040250D02*
Y0039750D01*
X0052750Y0040250D02*
X0052250D01*
X0052750Y0039750D02*
Y0040250D01*
X0052250Y0039750D02*
X0052750D01*
Y0040250D02*
X0052250Y0039750D01*
X0052750D02*
X0052250Y0040250D01*
X0048250Y0043250D02*
Y0042750D01*
X0048750Y0043250D02*
X0048250D01*
X0048750Y0042750D02*
Y0043250D01*
X0048250Y0042750D02*
X0048750D01*
Y0043250D02*
X0048250Y0042750D01*
X0048750D02*
X0048250Y0043250D01*
Y0042250D02*
Y0041750D01*
X0048750Y0042250D02*
X0048250D01*
X0048750Y0041750D02*
Y0042250D01*
X0048250Y0041750D02*
X0048750D01*
Y0042250D02*
X0048250Y0041750D01*
X0048750D02*
X0048250Y0042250D01*
Y0041250D02*
Y0040750D01*
X0048750Y0041250D02*
X0048250D01*
X0048750Y0040750D02*
Y0041250D01*
X0048250Y0040750D02*
X0048750D01*
Y0041250D02*
X0048250Y0040750D01*
X0048750D02*
X0048250Y0041250D01*
Y0040250D02*
Y0039750D01*
X0048750Y0040250D02*
X0048250D01*
X0048750Y0039750D02*
Y0040250D01*
X0048250Y0039750D02*
X0048750D01*
Y0040250D02*
X0048250Y0039750D01*
X0048750D02*
X0048250Y0040250D01*
X0044250Y0043250D02*
Y0042750D01*
X0044750Y0043250D02*
X0044250D01*
X0044750Y0042750D02*
Y0043250D01*
X0044250Y0042750D02*
X0044750D01*
Y0043250D02*
X0044250Y0042750D01*
X0044750D02*
X0044250Y0043250D01*
Y0042250D02*
Y0041750D01*
X0044750Y0042250D02*
X0044250D01*
X0044750Y0041750D02*
Y0042250D01*
X0044250Y0041750D02*
X0044750D01*
Y0042250D02*
X0044250Y0041750D01*
X0044750D02*
X0044250Y0042250D01*
Y0041250D02*
Y0040750D01*
X0044750Y0041250D02*
X0044250D01*
X0044750Y0040750D02*
Y0041250D01*
X0044250Y0040750D02*
X0044750D01*
Y0041250D02*
X0044250Y0040750D01*
X0044750D02*
X0044250Y0041250D01*
Y0040250D02*
Y0039750D01*
X0044750Y0040250D02*
X0044250D01*
X0044750Y0039750D02*
Y0040250D01*
X0044250Y0039750D02*
X0044750D01*
Y0040250D02*
X0044250Y0039750D01*
X0044750D02*
X0044250Y0040250D01*
X0040250Y0043250D02*
Y0042750D01*
X0040750Y0043250D02*
X0040250D01*
X0040750Y0042750D02*
Y0043250D01*
X0040250Y0042750D02*
X0040750D01*
Y0043250D02*
X0040250Y0042750D01*
X0040750D02*
X0040250Y0043250D01*
Y0042250D02*
Y0041750D01*
X0040750Y0042250D02*
X0040250D01*
X0040750Y0041750D02*
Y0042250D01*
X0040250Y0041750D02*
X0040750D01*
Y0042250D02*
X0040250Y0041750D01*
X0040750D02*
X0040250Y0042250D01*
Y0041250D02*
Y0040750D01*
X0040750Y0041250D02*
X0040250D01*
X0040750Y0040750D02*
Y0041250D01*
X0040250Y0040750D02*
X0040750D01*
Y0041250D02*
X0040250Y0040750D01*
X0040750D02*
X0040250Y0041250D01*
Y0040250D02*
Y0039750D01*
X0040750Y0040250D02*
X0040250D01*
X0040750Y0039750D02*
Y0040250D01*
X0040250Y0039750D02*
X0040750D01*
Y0040250D02*
X0040250Y0039750D01*
X0040750D02*
X0040250Y0040250D01*
X0036250Y0043250D02*
Y0042750D01*
X0036750Y0043250D02*
X0036250D01*
X0036750Y0042750D02*
Y0043250D01*
X0036250Y0042750D02*
X0036750D01*
Y0043250D02*
X0036250Y0042750D01*
X0036750D02*
X0036250Y0043250D01*
Y0042250D02*
Y0041750D01*
X0036750Y0042250D02*
X0036250D01*
X0036750Y0041750D02*
Y0042250D01*
X0036250Y0041750D02*
X0036750D01*
Y0042250D02*
X0036250Y0041750D01*
X0036750D02*
X0036250Y0042250D01*
Y0041250D02*
Y0040750D01*
X0036750Y0041250D02*
X0036250D01*
X0036750Y0040750D02*
Y0041250D01*
X0036250Y0040750D02*
X0036750D01*
Y0041250D02*
X0036250Y0040750D01*
X0036750D02*
X0036250Y0041250D01*
Y0040250D02*
Y0039750D01*
X0036750Y0040250D02*
X0036250D01*
X0036750Y0039750D02*
Y0040250D01*
X0036250Y0039750D02*
X0036750D01*
Y0040250D02*
X0036250Y0039750D01*
X0036750D02*
X0036250Y0040250D01*
X0032250Y0043250D02*
Y0042750D01*
X0032750Y0043250D02*
X0032250D01*
X0032750Y0042750D02*
Y0043250D01*
X0032250Y0042750D02*
X0032750D01*
Y0043250D02*
X0032250Y0042750D01*
X0032750D02*
X0032250Y0043250D01*
Y0042250D02*
Y0041750D01*
X0032750Y0042250D02*
X0032250D01*
X0032750Y0041750D02*
Y0042250D01*
X0032250Y0041750D02*
X0032750D01*
Y0042250D02*
X0032250Y0041750D01*
X0032750D02*
X0032250Y0042250D01*
Y0041250D02*
Y0040750D01*
X0032750Y0041250D02*
X0032250D01*
X0032750Y0040750D02*
Y0041250D01*
X0032250Y0040750D02*
X0032750D01*
Y0041250D02*
X0032250Y0040750D01*
X0032750D02*
X0032250Y0041250D01*
Y0040250D02*
Y0039750D01*
X0032750Y0040250D02*
X0032250D01*
X0032750Y0039750D02*
Y0040250D01*
X0032250Y0039750D02*
X0032750D01*
Y0040250D02*
X0032250Y0039750D01*
X0032750D02*
X0032250Y0040250D01*
X0028250Y0043250D02*
Y0042750D01*
X0028750Y0043250D02*
X0028250D01*
X0028750Y0042750D02*
Y0043250D01*
X0028250Y0042750D02*
X0028750D01*
Y0043250D02*
X0028250Y0042750D01*
X0028750D02*
X0028250Y0043250D01*
Y0042250D02*
Y0041750D01*
X0028750Y0042250D02*
X0028250D01*
X0028750Y0041750D02*
Y0042250D01*
X0028250Y0041750D02*
X0028750D01*
Y0042250D02*
X0028250Y0041750D01*
X0028750D02*
X0028250Y0042250D01*
Y0041250D02*
Y0040750D01*
X0028750Y0041250D02*
X0028250D01*
X0028750Y0040750D02*
Y0041250D01*
X0028250Y0040750D02*
X0028750D01*
Y0041250D02*
X0028250Y0040750D01*
X0028750D02*
X0028250Y0041250D01*
Y0040250D02*
Y0039750D01*
X0028750Y0040250D02*
X0028250D01*
X0028750Y0039750D02*
Y0040250D01*
X0028250Y0039750D02*
X0028750D01*
Y0040250D02*
X0028250Y0039750D01*
X0028750D02*
X0028250Y0040250D01*
X0024250Y0043250D02*
Y0042750D01*
X0024750Y0043250D02*
X0024250D01*
X0024750Y0042750D02*
Y0043250D01*
X0024250Y0042750D02*
X0024750D01*
Y0043250D02*
X0024250Y0042750D01*
X0024750D02*
X0024250Y0043250D01*
Y0042250D02*
Y0041750D01*
X0024750Y0042250D02*
X0024250D01*
X0024750Y0041750D02*
Y0042250D01*
X0024250Y0041750D02*
X0024750D01*
Y0042250D02*
X0024250Y0041750D01*
X0024750D02*
X0024250Y0042250D01*
Y0041250D02*
Y0040750D01*
X0024750Y0041250D02*
X0024250D01*
X0024750Y0040750D02*
Y0041250D01*
X0024250Y0040750D02*
X0024750D01*
Y0041250D02*
X0024250Y0040750D01*
X0024750D02*
X0024250Y0041250D01*
Y0040250D02*
Y0039750D01*
X0024750Y0040250D02*
X0024250D01*
X0024750Y0039750D02*
Y0040250D01*
X0024250Y0039750D02*
X0024750D01*
Y0040250D02*
X0024250Y0039750D01*
X0024750D02*
X0024250Y0040250D01*
X0018250Y0034750D02*
Y0034250D01*
X0018750Y0034750D02*
X0018250D01*
X0018750Y0034250D02*
Y0034750D01*
X0018250Y0034250D02*
X0018750D01*
Y0034500D02*
X0018250D01*
X0018500Y0034750D02*
Y0034250D01*
X0018250Y0035750D02*
Y0035250D01*
X0018750Y0035750D02*
X0018250D01*
X0018750Y0035250D02*
Y0035750D01*
X0018250Y0035250D02*
X0018750D01*
Y0035500D02*
X0018250D01*
X0018500Y0035750D02*
Y0035250D01*
X0020250Y0043250D02*
Y0042750D01*
X0020750Y0043250D02*
X0020250D01*
X0020750Y0042750D02*
Y0043250D01*
X0020250Y0042750D02*
X0020750D01*
Y0043250D02*
X0020250Y0042750D01*
X0020750D02*
X0020250Y0043250D01*
Y0042250D02*
Y0041750D01*
X0020750Y0042250D02*
X0020250D01*
X0020750Y0041750D02*
Y0042250D01*
X0020250Y0041750D02*
X0020750D01*
Y0042250D02*
X0020250Y0041750D01*
X0020750D02*
X0020250Y0042250D01*
Y0041250D02*
Y0040750D01*
X0020750Y0041250D02*
X0020250D01*
X0020750Y0040750D02*
Y0041250D01*
X0020250Y0040750D02*
X0020750D01*
Y0041250D02*
X0020250Y0040750D01*
X0020750D02*
X0020250Y0041250D01*
Y0040250D02*
Y0039750D01*
X0020750Y0040250D02*
X0020250D01*
X0020750Y0039750D02*
Y0040250D01*
X0020250Y0039750D02*
X0020750D01*
Y0040250D02*
X0020250Y0039750D01*
X0020750D02*
X0020250Y0040250D01*
Y0039250D02*
Y0038750D01*
X0020750Y0039250D02*
X0020250D01*
X0020750Y0038750D02*
Y0039250D01*
X0020250Y0038750D02*
X0020750D01*
Y0039250D02*
X0020250Y0038750D01*
X0020750D02*
X0020250Y0039250D01*
Y0038250D02*
Y0037750D01*
X0020750Y0038250D02*
X0020250D01*
X0020750Y0037750D02*
Y0038250D01*
X0020250Y0037750D02*
X0020750D01*
Y0038250D02*
X0020250Y0037750D01*
X0020750D02*
X0020250Y0038250D01*
X0009250Y0019200D02*
Y0018700D01*
X0009750Y0019200D02*
X0009250D01*
X0009750Y0018700D02*
Y0019200D01*
X0009250Y0018700D02*
X0009750D01*
Y0019200D02*
X0009250Y0018700D01*
X0009750D02*
X0009250Y0019200D01*
Y0019987D02*
Y0019487D01*
X0009750Y0019987D02*
X0009250D01*
X0009750Y0019487D02*
Y0019987D01*
X0009250Y0019487D02*
X0009750D01*
Y0019987D02*
X0009250Y0019487D01*
X0009750D02*
X0009250Y0019987D01*
X0010037Y0019200D02*
Y0018700D01*
X0010537Y0019200D02*
X0010037D01*
X0010537Y0018700D02*
Y0019200D01*
X0010037Y0018700D02*
X0010537D01*
Y0019200D02*
X0010037Y0018700D01*
X0010537D02*
X0010037Y0019200D01*
Y0019987D02*
Y0019487D01*
X0010537Y0019987D02*
X0010037D01*
X0010537Y0019487D02*
Y0019987D01*
X0010037Y0019487D02*
X0010537D01*
Y0019987D02*
X0010037Y0019487D01*
X0010537D02*
X0010037Y0019987D01*
X0010825Y0019200D02*
Y0018700D01*
X0011325Y0019200D02*
X0010825D01*
X0011325Y0018700D02*
Y0019200D01*
X0010825Y0018700D02*
X0011325D01*
Y0019200D02*
X0010825Y0018700D01*
X0011325D02*
X0010825Y0019200D01*
Y0019987D02*
Y0019487D01*
X0011325Y0019987D02*
X0010825D01*
X0011325Y0019487D02*
Y0019987D01*
X0010825Y0019487D02*
X0011325D01*
Y0019987D02*
X0010825Y0019487D01*
X0011325D02*
X0010825Y0019987D01*
X0011612Y0019200D02*
Y0018700D01*
X0012112Y0019200D02*
X0011612D01*
X0012112Y0018700D02*
Y0019200D01*
X0011612Y0018700D02*
X0012112D01*
Y0019200D02*
X0011612Y0018700D01*
X0012112D02*
X0011612Y0019200D01*
Y0019987D02*
Y0019487D01*
X0012112Y0019987D02*
X0011612D01*
X0012112Y0019487D02*
Y0019987D01*
X0011612Y0019487D02*
X0012112D01*
Y0019987D02*
X0011612Y0019487D01*
X0012112D02*
X0011612Y0019987D01*
X0012399Y0019200D02*
Y0018700D01*
X0012899Y0019200D02*
X0012399D01*
X0012899Y0018700D02*
Y0019200D01*
X0012399Y0018700D02*
X0012899D01*
Y0019200D02*
X0012399Y0018700D01*
X0012899D02*
X0012399Y0019200D01*
Y0019987D02*
Y0019487D01*
X0012899Y0019987D02*
X0012399D01*
X0012899Y0019487D02*
Y0019987D01*
X0012399Y0019487D02*
X0012899D01*
Y0019987D02*
X0012399Y0019487D01*
X0012899D02*
X0012399Y0019987D01*
X0013187Y0019200D02*
Y0018700D01*
X0013687Y0019200D02*
X0013187D01*
X0013687Y0018700D02*
Y0019200D01*
X0013187Y0018700D02*
X0013687D01*
Y0019200D02*
X0013187Y0018700D01*
X0013687D02*
X0013187Y0019200D01*
Y0019987D02*
Y0019487D01*
X0013687Y0019987D02*
X0013187D01*
X0013687Y0019487D02*
Y0019987D01*
X0013187Y0019487D02*
X0013687D01*
Y0019987D02*
X0013187Y0019487D01*
X0013687D02*
X0013187Y0019987D01*
X0013974Y0019200D02*
Y0018700D01*
X0014474Y0019200D02*
X0013974D01*
X0014474Y0018700D02*
Y0019200D01*
X0013974Y0018700D02*
X0014474D01*
Y0019200D02*
X0013974Y0018700D01*
X0014474D02*
X0013974Y0019200D01*
Y0019987D02*
Y0019487D01*
X0014474Y0019987D02*
X0013974D01*
X0014474Y0019487D02*
Y0019987D01*
X0013974Y0019487D02*
X0014474D01*
Y0019987D02*
X0013974Y0019487D01*
X0014474D02*
X0013974Y0019987D01*
X0014761Y0019200D02*
Y0018700D01*
X0015261Y0019200D02*
X0014761D01*
X0015261Y0018700D02*
Y0019200D01*
X0014761Y0018700D02*
X0015261D01*
Y0019200D02*
X0014761Y0018700D01*
X0015261D02*
X0014761Y0019200D01*
Y0019987D02*
Y0019487D01*
X0015261Y0019987D02*
X0014761D01*
X0015261Y0019487D02*
Y0019987D01*
X0014761Y0019487D02*
X0015261D01*
Y0019987D02*
X0014761Y0019487D01*
X0015261D02*
X0014761Y0019987D01*
X0015549Y0019200D02*
Y0018700D01*
X0016049Y0019200D02*
X0015549D01*
X0016049Y0018700D02*
Y0019200D01*
X0015549Y0018700D02*
X0016049D01*
Y0019200D02*
X0015549Y0018700D01*
X0016049D02*
X0015549Y0019200D01*
Y0019987D02*
Y0019487D01*
X0016049Y0019987D02*
X0015549D01*
X0016049Y0019487D02*
Y0019987D01*
X0015549Y0019487D02*
X0016049D01*
Y0019987D02*
X0015549Y0019487D01*
X0016049D02*
X0015549Y0019987D01*
X0016336Y0019200D02*
Y0018700D01*
X0016836Y0019200D02*
X0016336D01*
X0016836Y0018700D02*
Y0019200D01*
X0016336Y0018700D02*
X0016836D01*
Y0019200D02*
X0016336Y0018700D01*
X0016836D02*
X0016336Y0019200D01*
Y0019987D02*
Y0019487D01*
X0016836Y0019987D02*
X0016336D01*
X0016836Y0019487D02*
Y0019987D01*
X0016336Y0019487D02*
X0016836D01*
Y0019987D02*
X0016336Y0019487D01*
X0016836D02*
X0016336Y0019987D01*
X0017123Y0019200D02*
Y0018700D01*
X0017623Y0019200D02*
X0017123D01*
X0017623Y0018700D02*
Y0019200D01*
X0017123Y0018700D02*
X0017623D01*
Y0019200D02*
X0017123Y0018700D01*
X0017623D02*
X0017123Y0019200D01*
Y0019987D02*
Y0019487D01*
X0017623Y0019987D02*
X0017123D01*
X0017623Y0019487D02*
Y0019987D01*
X0017123Y0019487D02*
X0017623D01*
Y0019987D02*
X0017123Y0019487D01*
X0017623D02*
X0017123Y0019987D01*
X0017911Y0019200D02*
Y0018700D01*
X0018411Y0019200D02*
X0017911D01*
X0018411Y0018700D02*
Y0019200D01*
X0017911Y0018700D02*
X0018411D01*
Y0019200D02*
X0017911Y0018700D01*
X0018411D02*
X0017911Y0019200D01*
Y0019987D02*
Y0019487D01*
X0018411Y0019987D02*
X0017911D01*
X0018411Y0019487D02*
Y0019987D01*
X0017911Y0019487D02*
X0018411D01*
Y0019987D02*
X0017911Y0019487D01*
X0018411D02*
X0017911Y0019987D01*
X0018698Y0019200D02*
Y0018700D01*
X0019198Y0019200D02*
X0018698D01*
X0019198Y0018700D02*
Y0019200D01*
X0018698Y0018700D02*
X0019198D01*
Y0019200D02*
X0018698Y0018700D01*
X0019198D02*
X0018698Y0019200D01*
Y0019987D02*
Y0019487D01*
X0019198Y0019987D02*
X0018698D01*
X0019198Y0019487D02*
Y0019987D01*
X0018698Y0019487D02*
X0019198D01*
Y0019987D02*
X0018698Y0019487D01*
X0019198D02*
X0018698Y0019987D01*
X0019485Y0019200D02*
Y0018700D01*
X0019985Y0019200D02*
X0019485D01*
X0019985Y0018700D02*
Y0019200D01*
X0019485Y0018700D02*
X0019985D01*
Y0019200D02*
X0019485Y0018700D01*
X0019985D02*
X0019485Y0019200D01*
Y0019987D02*
Y0019487D01*
X0019985Y0019987D02*
X0019485D01*
X0019985Y0019487D02*
Y0019987D01*
X0019485Y0019487D02*
X0019985D01*
Y0019987D02*
X0019485Y0019487D01*
X0019985D02*
X0019485Y0019987D01*
X0020273Y0019200D02*
Y0018700D01*
X0020773Y0019200D02*
X0020273D01*
X0020773Y0018700D02*
Y0019200D01*
X0020273Y0018700D02*
X0020773D01*
Y0019200D02*
X0020273Y0018700D01*
X0020773D02*
X0020273Y0019200D01*
Y0019987D02*
Y0019487D01*
X0020773Y0019987D02*
X0020273D01*
X0020773Y0019487D02*
Y0019987D01*
X0020273Y0019487D02*
X0020773D01*
Y0019987D02*
X0020273Y0019487D01*
X0020773D02*
X0020273Y0019987D01*
X0021060Y0019200D02*
Y0018700D01*
X0021560Y0019200D02*
X0021060D01*
X0021560Y0018700D02*
Y0019200D01*
X0021060Y0018700D02*
X0021560D01*
Y0019200D02*
X0021060Y0018700D01*
X0021560D02*
X0021060Y0019200D01*
Y0019987D02*
Y0019487D01*
X0021560Y0019987D02*
X0021060D01*
X0021560Y0019487D02*
Y0019987D01*
X0021060Y0019487D02*
X0021560D01*
Y0019987D02*
X0021060Y0019487D01*
X0021560D02*
X0021060Y0019987D01*
X0021847Y0019200D02*
Y0018700D01*
X0022347Y0019200D02*
X0021847D01*
X0022347Y0018700D02*
Y0019200D01*
X0021847Y0018700D02*
X0022347D01*
Y0019200D02*
X0021847Y0018700D01*
X0022347D02*
X0021847Y0019200D01*
Y0019987D02*
Y0019487D01*
X0022347Y0019987D02*
X0021847D01*
X0022347Y0019487D02*
Y0019987D01*
X0021847Y0019487D02*
X0022347D01*
Y0019987D02*
X0021847Y0019487D01*
X0022347D02*
X0021847Y0019987D01*
X0022635Y0019200D02*
Y0018700D01*
X0023135Y0019200D02*
X0022635D01*
X0023135Y0018700D02*
Y0019200D01*
X0022635Y0018700D02*
X0023135D01*
Y0019200D02*
X0022635Y0018700D01*
X0023135D02*
X0022635Y0019200D01*
Y0019987D02*
Y0019487D01*
X0023135Y0019987D02*
X0022635D01*
X0023135Y0019487D02*
Y0019987D01*
X0022635Y0019487D02*
X0023135D01*
Y0019987D02*
X0022635Y0019487D01*
X0023135D02*
X0022635Y0019987D01*
X0023422Y0019200D02*
Y0018700D01*
X0023922Y0019200D02*
X0023422D01*
X0023922Y0018700D02*
Y0019200D01*
X0023422Y0018700D02*
X0023922D01*
Y0019200D02*
X0023422Y0018700D01*
X0023922D02*
X0023422Y0019200D01*
Y0019987D02*
Y0019487D01*
X0023922Y0019987D02*
X0023422D01*
X0023922Y0019487D02*
Y0019987D01*
X0023422Y0019487D02*
X0023922D01*
Y0019987D02*
X0023422Y0019487D01*
X0023922D02*
X0023422Y0019987D01*
X0024209Y0019200D02*
Y0018700D01*
X0024709Y0019200D02*
X0024209D01*
X0024709Y0018700D02*
Y0019200D01*
X0024209Y0018700D02*
X0024709D01*
Y0019200D02*
X0024209Y0018700D01*
X0024709D02*
X0024209Y0019200D01*
Y0019987D02*
Y0019487D01*
X0024709Y0019987D02*
X0024209D01*
X0024709Y0019487D02*
Y0019987D01*
X0024209Y0019487D02*
X0024709D01*
Y0019987D02*
X0024209Y0019487D01*
X0024709D02*
X0024209Y0019987D01*
X0009250Y0032750D02*
Y0032250D01*
X0009750Y0032750D02*
X0009250D01*
X0009750Y0032250D02*
Y0032750D01*
X0009250Y0032250D02*
X0009750D01*
Y0032750D02*
X0009250Y0032250D01*
X0009750D02*
X0009250Y0032750D01*
Y0033537D02*
Y0033037D01*
X0009750Y0033537D02*
X0009250D01*
X0009750Y0033037D02*
Y0033537D01*
X0009250Y0033037D02*
X0009750D01*
Y0033537D02*
X0009250Y0033037D01*
X0009750D02*
X0009250Y0033537D01*
X0010037Y0032750D02*
Y0032250D01*
X0010537Y0032750D02*
X0010037D01*
X0010537Y0032250D02*
Y0032750D01*
X0010037Y0032250D02*
X0010537D01*
Y0032750D02*
X0010037Y0032250D01*
X0010537D02*
X0010037Y0032750D01*
Y0033537D02*
Y0033037D01*
X0010537Y0033537D02*
X0010037D01*
X0010537Y0033037D02*
Y0033537D01*
X0010037Y0033037D02*
X0010537D01*
Y0033537D02*
X0010037Y0033037D01*
X0010537D02*
X0010037Y0033537D01*
X0010825Y0032750D02*
Y0032250D01*
X0011325Y0032750D02*
X0010825D01*
X0011325Y0032250D02*
Y0032750D01*
X0010825Y0032250D02*
X0011325D01*
Y0032750D02*
X0010825Y0032250D01*
X0011325D02*
X0010825Y0032750D01*
Y0033537D02*
Y0033037D01*
X0011325Y0033537D02*
X0010825D01*
X0011325Y0033037D02*
Y0033537D01*
X0010825Y0033037D02*
X0011325D01*
Y0033537D02*
X0010825Y0033037D01*
X0011325D02*
X0010825Y0033537D01*
X0011612Y0032750D02*
Y0032250D01*
X0012112Y0032750D02*
X0011612D01*
X0012112Y0032250D02*
Y0032750D01*
X0011612Y0032250D02*
X0012112D01*
Y0032750D02*
X0011612Y0032250D01*
X0012112D02*
X0011612Y0032750D01*
Y0033537D02*
Y0033037D01*
X0012112Y0033537D02*
X0011612D01*
X0012112Y0033037D02*
Y0033537D01*
X0011612Y0033037D02*
X0012112D01*
Y0033537D02*
X0011612Y0033037D01*
X0012112D02*
X0011612Y0033537D01*
X0012399Y0032750D02*
Y0032250D01*
X0012899Y0032750D02*
X0012399D01*
X0012899Y0032250D02*
Y0032750D01*
X0012399Y0032250D02*
X0012899D01*
Y0032750D02*
X0012399Y0032250D01*
X0012899D02*
X0012399Y0032750D01*
Y0033537D02*
Y0033037D01*
X0012899Y0033537D02*
X0012399D01*
X0012899Y0033037D02*
Y0033537D01*
X0012399Y0033037D02*
X0012899D01*
Y0033537D02*
X0012399Y0033037D01*
X0012899D02*
X0012399Y0033537D01*
X0013187Y0032750D02*
Y0032250D01*
X0013687Y0032750D02*
X0013187D01*
X0013687Y0032250D02*
Y0032750D01*
X0013187Y0032250D02*
X0013687D01*
Y0032750D02*
X0013187Y0032250D01*
X0013687D02*
X0013187Y0032750D01*
Y0033537D02*
Y0033037D01*
X0013687Y0033537D02*
X0013187D01*
X0013687Y0033037D02*
Y0033537D01*
X0013187Y0033037D02*
X0013687D01*
Y0033537D02*
X0013187Y0033037D01*
X0013687D02*
X0013187Y0033537D01*
X0013974Y0032750D02*
Y0032250D01*
X0014474Y0032750D02*
X0013974D01*
X0014474Y0032250D02*
Y0032750D01*
X0013974Y0032250D02*
X0014474D01*
Y0032750D02*
X0013974Y0032250D01*
X0014474D02*
X0013974Y0032750D01*
Y0033537D02*
Y0033037D01*
X0014474Y0033537D02*
X0013974D01*
X0014474Y0033037D02*
Y0033537D01*
X0013974Y0033037D02*
X0014474D01*
Y0033537D02*
X0013974Y0033037D01*
X0014474D02*
X0013974Y0033537D01*
X0014761Y0032750D02*
Y0032250D01*
X0015261Y0032750D02*
X0014761D01*
X0015261Y0032250D02*
Y0032750D01*
X0014761Y0032250D02*
X0015261D01*
Y0032750D02*
X0014761Y0032250D01*
X0015261D02*
X0014761Y0032750D01*
Y0033537D02*
Y0033037D01*
X0015261Y0033537D02*
X0014761D01*
X0015261Y0033037D02*
Y0033537D01*
X0014761Y0033037D02*
X0015261D01*
Y0033537D02*
X0014761Y0033037D01*
X0015261D02*
X0014761Y0033537D01*
X0015549Y0032750D02*
Y0032250D01*
X0016049Y0032750D02*
X0015549D01*
X0016049Y0032250D02*
Y0032750D01*
X0015549Y0032250D02*
X0016049D01*
Y0032750D02*
X0015549Y0032250D01*
X0016049D02*
X0015549Y0032750D01*
Y0033537D02*
Y0033037D01*
X0016049Y0033537D02*
X0015549D01*
X0016049Y0033037D02*
Y0033537D01*
X0015549Y0033037D02*
X0016049D01*
Y0033537D02*
X0015549Y0033037D01*
X0016049D02*
X0015549Y0033537D01*
X0016336Y0032750D02*
Y0032250D01*
X0016836Y0032750D02*
X0016336D01*
X0016836Y0032250D02*
Y0032750D01*
X0016336Y0032250D02*
X0016836D01*
Y0032750D02*
X0016336Y0032250D01*
X0016836D02*
X0016336Y0032750D01*
Y0033537D02*
Y0033037D01*
X0016836Y0033537D02*
X0016336D01*
X0016836Y0033037D02*
Y0033537D01*
X0016336Y0033037D02*
X0016836D01*
Y0033537D02*
X0016336Y0033037D01*
X0016836D02*
X0016336Y0033537D01*
X0017123Y0032750D02*
Y0032250D01*
X0017623Y0032750D02*
X0017123D01*
X0017623Y0032250D02*
Y0032750D01*
X0017123Y0032250D02*
X0017623D01*
Y0032750D02*
X0017123Y0032250D01*
X0017623D02*
X0017123Y0032750D01*
Y0033537D02*
Y0033037D01*
X0017623Y0033537D02*
X0017123D01*
X0017623Y0033037D02*
Y0033537D01*
X0017123Y0033037D02*
X0017623D01*
Y0033537D02*
X0017123Y0033037D01*
X0017623D02*
X0017123Y0033537D01*
X0017911Y0032750D02*
Y0032250D01*
X0018411Y0032750D02*
X0017911D01*
X0018411Y0032250D02*
Y0032750D01*
X0017911Y0032250D02*
X0018411D01*
Y0032750D02*
X0017911Y0032250D01*
X0018411D02*
X0017911Y0032750D01*
Y0033537D02*
Y0033037D01*
X0018411Y0033537D02*
X0017911D01*
X0018411Y0033037D02*
Y0033537D01*
X0017911Y0033037D02*
X0018411D01*
Y0033537D02*
X0017911Y0033037D01*
X0018411D02*
X0017911Y0033537D01*
X0018698Y0032750D02*
Y0032250D01*
X0019198Y0032750D02*
X0018698D01*
X0019198Y0032250D02*
Y0032750D01*
X0018698Y0032250D02*
X0019198D01*
Y0032750D02*
X0018698Y0032250D01*
X0019198D02*
X0018698Y0032750D01*
Y0033537D02*
Y0033037D01*
X0019198Y0033537D02*
X0018698D01*
X0019198Y0033037D02*
Y0033537D01*
X0018698Y0033037D02*
X0019198D01*
Y0033537D02*
X0018698Y0033037D01*
X0019198D02*
X0018698Y0033537D01*
X0019485Y0032750D02*
Y0032250D01*
X0019985Y0032750D02*
X0019485D01*
X0019985Y0032250D02*
Y0032750D01*
X0019485Y0032250D02*
X0019985D01*
Y0032750D02*
X0019485Y0032250D01*
X0019985D02*
X0019485Y0032750D01*
Y0033537D02*
Y0033037D01*
X0019985Y0033537D02*
X0019485D01*
X0019985Y0033037D02*
Y0033537D01*
X0019485Y0033037D02*
X0019985D01*
Y0033537D02*
X0019485Y0033037D01*
X0019985D02*
X0019485Y0033537D01*
X0020273Y0032750D02*
Y0032250D01*
X0020773Y0032750D02*
X0020273D01*
X0020773Y0032250D02*
Y0032750D01*
X0020273Y0032250D02*
X0020773D01*
Y0032750D02*
X0020273Y0032250D01*
X0020773D02*
X0020273Y0032750D01*
Y0033537D02*
Y0033037D01*
X0020773Y0033537D02*
X0020273D01*
X0020773Y0033037D02*
Y0033537D01*
X0020273Y0033037D02*
X0020773D01*
Y0033537D02*
X0020273Y0033037D01*
X0020773D02*
X0020273Y0033537D01*
X0021060Y0032750D02*
Y0032250D01*
X0021560Y0032750D02*
X0021060D01*
X0021560Y0032250D02*
Y0032750D01*
X0021060Y0032250D02*
X0021560D01*
Y0032750D02*
X0021060Y0032250D01*
X0021560D02*
X0021060Y0032750D01*
Y0033537D02*
Y0033037D01*
X0021560Y0033537D02*
X0021060D01*
X0021560Y0033037D02*
Y0033537D01*
X0021060Y0033037D02*
X0021560D01*
Y0033537D02*
X0021060Y0033037D01*
X0021560D02*
X0021060Y0033537D01*
X0021847Y0032750D02*
Y0032250D01*
X0022347Y0032750D02*
X0021847D01*
X0022347Y0032250D02*
Y0032750D01*
X0021847Y0032250D02*
X0022347D01*
Y0032750D02*
X0021847Y0032250D01*
X0022347D02*
X0021847Y0032750D01*
Y0033537D02*
Y0033037D01*
X0022347Y0033537D02*
X0021847D01*
X0022347Y0033037D02*
Y0033537D01*
X0021847Y0033037D02*
X0022347D01*
Y0033537D02*
X0021847Y0033037D01*
X0022347D02*
X0021847Y0033537D01*
X0022635Y0032750D02*
Y0032250D01*
X0023135Y0032750D02*
X0022635D01*
X0023135Y0032250D02*
Y0032750D01*
X0022635Y0032250D02*
X0023135D01*
Y0032750D02*
X0022635Y0032250D01*
X0023135D02*
X0022635Y0032750D01*
Y0033537D02*
Y0033037D01*
X0023135Y0033537D02*
X0022635D01*
X0023135Y0033037D02*
Y0033537D01*
X0022635Y0033037D02*
X0023135D01*
Y0033537D02*
X0022635Y0033037D01*
X0023135D02*
X0022635Y0033537D01*
X0023422Y0032750D02*
Y0032250D01*
X0023922Y0032750D02*
X0023422D01*
X0023922Y0032250D02*
Y0032750D01*
X0023422Y0032250D02*
X0023922D01*
Y0032750D02*
X0023422Y0032250D01*
X0023922D02*
X0023422Y0032750D01*
Y0033537D02*
Y0033037D01*
X0023922Y0033537D02*
X0023422D01*
X0023922Y0033037D02*
Y0033537D01*
X0023422Y0033037D02*
X0023922D01*
Y0033537D02*
X0023422Y0033037D01*
X0023922D02*
X0023422Y0033537D01*
X0024209Y0032750D02*
Y0032250D01*
X0024709Y0032750D02*
X0024209D01*
X0024709Y0032250D02*
Y0032750D01*
X0024209Y0032250D02*
X0024709D01*
Y0032750D02*
X0024209Y0032250D01*
X0024709D02*
X0024209Y0032750D01*
Y0033537D02*
Y0033037D01*
X0024709Y0033537D02*
X0024209D01*
X0024709Y0033037D02*
Y0033537D01*
X0024209Y0033037D02*
X0024709D01*
Y0033537D02*
X0024209Y0033037D01*
X0024709D02*
X0024209Y0033537D01*
X0017250Y0034750D02*
Y0034250D01*
X0017750Y0034750D02*
X0017250D01*
X0017750Y0034250D02*
Y0034750D01*
X0017250Y0034250D02*
X0017750D01*
Y0034500D02*
X0017250D01*
X0017500Y0034750D02*
Y0034250D01*
X0017250Y0035750D02*
Y0035250D01*
X0017750Y0035750D02*
X0017250D01*
X0017750Y0035250D02*
Y0035750D01*
X0017250Y0035250D02*
X0017750D01*
Y0035500D02*
X0017250D01*
X0017500Y0035750D02*
Y0035250D01*
X0016250Y0043250D02*
Y0042750D01*
X0016750Y0043250D02*
X0016250D01*
X0016750Y0042750D02*
Y0043250D01*
X0016250Y0042750D02*
X0016750D01*
Y0043250D02*
X0016250Y0042750D01*
X0016750D02*
X0016250Y0043250D01*
Y0042250D02*
Y0041750D01*
X0016750Y0042250D02*
X0016250D01*
X0016750Y0041750D02*
Y0042250D01*
X0016250Y0041750D02*
X0016750D01*
Y0042250D02*
X0016250Y0041750D01*
X0016750D02*
X0016250Y0042250D01*
Y0041250D02*
Y0040750D01*
X0016750Y0041250D02*
X0016250D01*
X0016750Y0040750D02*
Y0041250D01*
X0016250Y0040750D02*
X0016750D01*
Y0041250D02*
X0016250Y0040750D01*
X0016750D02*
X0016250Y0041250D01*
Y0040250D02*
Y0039750D01*
X0016750Y0040250D02*
X0016250D01*
X0016750Y0039750D02*
Y0040250D01*
X0016250Y0039750D02*
X0016750D01*
Y0040250D02*
X0016250Y0039750D01*
X0016750D02*
X0016250Y0040250D01*
Y0039250D02*
Y0038750D01*
X0016750Y0039250D02*
X0016250D01*
X0016750Y0038750D02*
Y0039250D01*
X0016250Y0038750D02*
X0016750D01*
Y0039250D02*
X0016250Y0038750D01*
X0016750D02*
X0016250Y0039250D01*
Y0038250D02*
Y0037750D01*
X0016750Y0038250D02*
X0016250D01*
X0016750Y0037750D02*
Y0038250D01*
X0016250Y0037750D02*
X0016750D01*
Y0038250D02*
X0016250Y0037750D01*
X0016750D02*
X0016250Y0038250D01*
X0014750Y0034750D02*
Y0034250D01*
X0015250Y0034750D02*
X0014750D01*
X0015250Y0034250D02*
Y0034750D01*
X0014750Y0034250D02*
X0015250D01*
Y0034500D02*
X0014750D01*
X0015000Y0034750D02*
Y0034250D01*
X0014750Y0035750D02*
Y0035250D01*
X0015250Y0035750D02*
X0014750D01*
X0015250Y0035250D02*
Y0035750D01*
X0014750Y0035250D02*
X0015250D01*
Y0035500D02*
X0014750D01*
X0015000Y0035750D02*
Y0035250D01*
X0013750Y0034750D02*
Y0034250D01*
X0014250Y0034750D02*
X0013750D01*
X0014250Y0034250D02*
Y0034750D01*
X0013750Y0034250D02*
X0014250D01*
Y0034500D02*
X0013750D01*
X0014000Y0034750D02*
Y0034250D01*
X0013750Y0035750D02*
Y0035250D01*
X0014250Y0035750D02*
X0013750D01*
X0014250Y0035250D02*
Y0035750D01*
X0013750Y0035250D02*
X0014250D01*
Y0035500D02*
X0013750D01*
X0014000Y0035750D02*
Y0035250D01*
X0012250Y0043250D02*
Y0042750D01*
X0012750Y0043250D02*
X0012250D01*
X0012750Y0042750D02*
Y0043250D01*
X0012250Y0042750D02*
X0012750D01*
Y0043250D02*
X0012250Y0042750D01*
X0012750D02*
X0012250Y0043250D01*
Y0042250D02*
Y0041750D01*
X0012750Y0042250D02*
X0012250D01*
X0012750Y0041750D02*
Y0042250D01*
X0012250Y0041750D02*
X0012750D01*
Y0042250D02*
X0012250Y0041750D01*
X0012750D02*
X0012250Y0042250D01*
Y0041250D02*
Y0040750D01*
X0012750Y0041250D02*
X0012250D01*
X0012750Y0040750D02*
Y0041250D01*
X0012250Y0040750D02*
X0012750D01*
Y0041250D02*
X0012250Y0040750D01*
X0012750D02*
X0012250Y0041250D01*
Y0040250D02*
Y0039750D01*
X0012750Y0040250D02*
X0012250D01*
X0012750Y0039750D02*
Y0040250D01*
X0012250Y0039750D02*
X0012750D01*
Y0040250D02*
X0012250Y0039750D01*
X0012750D02*
X0012250Y0040250D01*
Y0039250D02*
Y0038750D01*
X0012750Y0039250D02*
X0012250D01*
X0012750Y0038750D02*
Y0039250D01*
X0012250Y0038750D02*
X0012750D01*
Y0039250D02*
X0012250Y0038750D01*
X0012750D02*
X0012250Y0039250D01*
Y0038250D02*
Y0037750D01*
X0012750Y0038250D02*
X0012250D01*
X0012750Y0037750D02*
Y0038250D01*
X0012250Y0037750D02*
X0012750D01*
Y0038250D02*
X0012250Y0037750D01*
X0012750D02*
X0012250Y0038250D01*
X0009250Y0017750D02*
Y0017250D01*
X0009750Y0017750D02*
X0009250D01*
X0009750Y0017250D02*
Y0017750D01*
X0009250Y0017250D02*
X0009750D01*
Y0017500D02*
X0009250D01*
X0009500Y0017750D02*
Y0017250D01*
X0010250Y0017750D02*
Y0017250D01*
X0010750Y0017750D02*
X0010250D01*
X0010750Y0017250D02*
Y0017750D01*
X0010250Y0017250D02*
X0010750D01*
Y0017500D02*
X0010250D01*
X0010500Y0017750D02*
Y0017250D01*
X0008250Y0043250D02*
Y0042750D01*
X0008750Y0043250D02*
X0008250D01*
X0008750Y0042750D02*
Y0043250D01*
X0008250Y0042750D02*
X0008750D01*
Y0043250D02*
X0008250Y0042750D01*
X0008750D02*
X0008250Y0043250D01*
Y0042250D02*
Y0041750D01*
X0008750Y0042250D02*
X0008250D01*
X0008750Y0041750D02*
Y0042250D01*
X0008250Y0041750D02*
X0008750D01*
Y0042250D02*
X0008250Y0041750D01*
X0008750D02*
X0008250Y0042250D01*
Y0041250D02*
Y0040750D01*
X0008750Y0041250D02*
X0008250D01*
X0008750Y0040750D02*
Y0041250D01*
X0008250Y0040750D02*
X0008750D01*
Y0041250D02*
X0008250Y0040750D01*
X0008750D02*
X0008250Y0041250D01*
Y0040250D02*
Y0039750D01*
X0008750Y0040250D02*
X0008250D01*
X0008750Y0039750D02*
Y0040250D01*
X0008250Y0039750D02*
X0008750D01*
Y0040250D02*
X0008250Y0039750D01*
X0008750D02*
X0008250Y0040250D01*
Y0039250D02*
Y0038750D01*
X0008750Y0039250D02*
X0008250D01*
X0008750Y0038750D02*
Y0039250D01*
X0008250Y0038750D02*
X0008750D01*
Y0039250D02*
X0008250Y0038750D01*
X0008750D02*
X0008250Y0039250D01*
Y0038250D02*
Y0037750D01*
X0008750Y0038250D02*
X0008250D01*
X0008750Y0037750D02*
Y0038250D01*
X0008250Y0037750D02*
X0008750D01*
Y0038250D02*
X0008250Y0037750D01*
X0008750D02*
X0008250Y0038250D01*
X0004250Y0032250D02*
Y0032000D01*
X0004500Y0032250D02*
X0004250D01*
X0004500Y0031750D02*
Y0032250D01*
X0004750Y0031750D02*
X0004500D01*
X0004750Y0032000D02*
Y0031750D01*
X0004250Y0032000D02*
X0004750D01*
X0004250Y0029250D02*
Y0029000D01*
X0004500Y0029250D02*
X0004250D01*
X0004500Y0028750D02*
Y0029250D01*
X0004750Y0028750D02*
X0004500D01*
X0004750Y0029000D02*
Y0028750D01*
X0004250Y0029000D02*
X0004750D01*
X0004250Y0026250D02*
Y0026000D01*
X0004500Y0026250D02*
X0004250D01*
X0004500Y0025750D02*
Y0026250D01*
X0004750Y0025750D02*
X0004500D01*
X0004750Y0026000D02*
Y0025750D01*
X0004250Y0026000D02*
X0004750D01*
X0004250Y0023250D02*
Y0023000D01*
X0004500Y0023250D02*
X0004250D01*
X0004500Y0022750D02*
Y0023250D01*
X0004750Y0022750D02*
X0004500D01*
X0004750Y0023000D02*
Y0022750D01*
X0004250Y0023000D02*
X0004750D01*
X0004250Y0020250D02*
Y0020000D01*
X0004500Y0020250D02*
X0004250D01*
X0004500Y0019750D02*
Y0020250D01*
X0004750Y0019750D02*
X0004500D01*
X0004750Y0020000D02*
Y0019750D01*
X0004250Y0020000D02*
X0004750D01*
X0004250Y0017250D02*
Y0017000D01*
X0004500Y0017250D02*
X0004250D01*
X0004500Y0016750D02*
Y0017250D01*
X0004750Y0016750D02*
X0004500D01*
X0004750Y0017000D02*
Y0016750D01*
X0004250Y0017000D02*
X0004750D01*
X0003250Y0035250D02*
Y0034750D01*
X0003750Y0035250D02*
X0003250D01*
X0003750Y0034750D02*
Y0035250D01*
X0003250Y0034750D02*
X0003750D01*
Y0035000D02*
X0003250D01*
X0003500Y0035250D02*
Y0034750D01*
X0004250Y0035250D02*
Y0034750D01*
X0004750Y0035250D02*
X0004250D01*
X0004750Y0034750D02*
Y0035250D01*
X0004250Y0034750D02*
X0004750D01*
Y0035000D02*
X0004250D01*
X0004500Y0035250D02*
Y0034750D01*
X0003250Y0036250D02*
Y0035750D01*
X0003750Y0036250D02*
X0003250D01*
X0003750Y0035750D02*
Y0036250D01*
X0003250Y0035750D02*
X0003750D01*
Y0036000D02*
X0003250D01*
X0003500Y0036250D02*
Y0035750D01*
X0004250Y0036250D02*
Y0035750D01*
X0004750Y0036250D02*
X0004250D01*
X0004750Y0035750D02*
Y0036250D01*
X0004250Y0035750D02*
X0004750D01*
Y0036000D02*
X0004250D01*
X0004500Y0036250D02*
Y0035750D01*
X0003250Y0037250D02*
Y0036750D01*
X0003750Y0037250D02*
X0003250D01*
X0003750Y0036750D02*
Y0037250D01*
X0003250Y0036750D02*
X0003750D01*
Y0037000D02*
X0003250D01*
X0003500Y0037250D02*
Y0036750D01*
X0004250Y0037250D02*
Y0036750D01*
X0004750Y0037250D02*
X0004250D01*
X0004750Y0036750D02*
Y0037250D01*
X0004250Y0036750D02*
X0004750D01*
Y0037000D02*
X0004250D01*
X0004500Y0037250D02*
Y0036750D01*
X0003250Y0038250D02*
Y0037750D01*
X0003750Y0038250D02*
X0003250D01*
X0003750Y0037750D02*
Y0038250D01*
X0003250Y0037750D02*
X0003750D01*
Y0038000D02*
X0003250D01*
X0003500Y0038250D02*
Y0037750D01*
X0004250Y0038250D02*
Y0037750D01*
X0004750Y0038250D02*
X0004250D01*
X0004750Y0037750D02*
Y0038250D01*
X0004250Y0037750D02*
X0004750D01*
Y0038000D02*
X0004250D01*
X0004500Y0038250D02*
Y0037750D01*
X0003250Y0039250D02*
Y0038750D01*
X0003750Y0039250D02*
X0003250D01*
X0003750Y0038750D02*
Y0039250D01*
X0003250Y0038750D02*
X0003750D01*
Y0039000D02*
X0003250D01*
X0003500Y0039250D02*
Y0038750D01*
X0004250Y0039250D02*
Y0038750D01*
X0004750Y0039250D02*
X0004250D01*
X0004750Y0038750D02*
Y0039250D01*
X0004250Y0038750D02*
X0004750D01*
Y0039000D02*
X0004250D01*
X0004500Y0039250D02*
Y0038750D01*
X0058000Y0003750D02*
X0057750Y0003500D01*
X0058250D02*
X0058000Y0003750D01*
Y0003250D02*
X0058250Y0003500D01*
X0057750D02*
X0058000Y0003250D01*
X0060000Y0003750D02*
X0059750Y0003500D01*
X0060250D02*
X0060000Y0003750D01*
Y0003250D02*
X0060250Y0003500D01*
X0059750D02*
X0060000Y0003250D01*
X0058000Y0004750D02*
X0057750Y0004500D01*
X0058250D02*
X0058000Y0004750D01*
Y0004250D02*
X0058250Y0004500D01*
X0057750D02*
X0058000Y0004250D01*
X0060000Y0004750D02*
X0059750Y0004500D01*
X0060250D02*
X0060000Y0004750D01*
Y0004250D02*
X0060250Y0004500D01*
X0059750D02*
X0060000Y0004250D01*
X0058000Y0005750D02*
X0057750Y0005500D01*
X0058250D02*
X0058000Y0005750D01*
Y0005250D02*
X0058250Y0005500D01*
X0057750D02*
X0058000Y0005250D01*
X0060000Y0005750D02*
X0059750Y0005500D01*
X0060250D02*
X0060000Y0005750D01*
Y0005250D02*
X0060250Y0005500D01*
X0059750D02*
X0060000Y0005250D01*
X0058000Y0006750D02*
X0057750Y0006500D01*
X0058250D02*
X0058000Y0006750D01*
Y0006250D02*
X0058250Y0006500D01*
X0057750D02*
X0058000Y0006250D01*
X0060000Y0006750D02*
X0059750Y0006500D01*
X0060250D02*
X0060000Y0006750D01*
Y0006250D02*
X0060250Y0006500D01*
X0059750D02*
X0060000Y0006250D01*
X0050000Y0003750D02*
X0049750Y0003500D01*
X0050250D02*
X0050000Y0003750D01*
Y0003250D02*
X0050250Y0003500D01*
X0049750D02*
X0050000Y0003250D01*
X0052000Y0003750D02*
X0051750Y0003500D01*
X0052250D02*
X0052000Y0003750D01*
Y0003250D02*
X0052250Y0003500D01*
X0051750D02*
X0052000Y0003250D01*
X0050000Y0004750D02*
X0049750Y0004500D01*
X0050250D02*
X0050000Y0004750D01*
Y0004250D02*
X0050250Y0004500D01*
X0049750D02*
X0050000Y0004250D01*
X0052000Y0004750D02*
X0051750Y0004500D01*
X0052250D02*
X0052000Y0004750D01*
Y0004250D02*
X0052250Y0004500D01*
X0051750D02*
X0052000Y0004250D01*
X0050000Y0005750D02*
X0049750Y0005500D01*
X0050250D02*
X0050000Y0005750D01*
Y0005250D02*
X0050250Y0005500D01*
X0049750D02*
X0050000Y0005250D01*
X0052000Y0005750D02*
X0051750Y0005500D01*
X0052250D02*
X0052000Y0005750D01*
Y0005250D02*
X0052250Y0005500D01*
X0051750D02*
X0052000Y0005250D01*
X0050000Y0006750D02*
X0049750Y0006500D01*
X0050250D02*
X0050000Y0006750D01*
Y0006250D02*
X0050250Y0006500D01*
X0049750D02*
X0050000Y0006250D01*
X0052000Y0006750D02*
X0051750Y0006500D01*
X0052250D02*
X0052000Y0006750D01*
Y0006250D02*
X0052250Y0006500D01*
X0051750D02*
X0052000Y0006250D01*
X0041500Y0003750D02*
X0041250Y0003500D01*
X0041750D02*
X0041500Y0003750D01*
Y0003250D02*
X0041750Y0003500D01*
X0041250D02*
X0041500Y0003250D01*
X0043500Y0003750D02*
X0043250Y0003500D01*
X0043750D02*
X0043500Y0003750D01*
Y0003250D02*
X0043750Y0003500D01*
X0043250D02*
X0043500Y0003250D01*
X0041500Y0004750D02*
X0041250Y0004500D01*
X0041750D02*
X0041500Y0004750D01*
Y0004250D02*
X0041750Y0004500D01*
X0041250D02*
X0041500Y0004250D01*
X0043500Y0004750D02*
X0043250Y0004500D01*
X0043750D02*
X0043500Y0004750D01*
Y0004250D02*
X0043750Y0004500D01*
X0043250D02*
X0043500Y0004250D01*
X0041500Y0005750D02*
X0041250Y0005500D01*
X0041750D02*
X0041500Y0005750D01*
Y0005250D02*
X0041750Y0005500D01*
X0041250D02*
X0041500Y0005250D01*
X0043500Y0005750D02*
X0043250Y0005500D01*
X0043750D02*
X0043500Y0005750D01*
Y0005250D02*
X0043750Y0005500D01*
X0043250D02*
X0043500Y0005250D01*
X0041500Y0006750D02*
X0041250Y0006500D01*
X0041750D02*
X0041500Y0006750D01*
Y0006250D02*
X0041750Y0006500D01*
X0041250D02*
X0041500Y0006250D01*
X0043500Y0006750D02*
X0043250Y0006500D01*
X0043750D02*
X0043500Y0006750D01*
Y0006250D02*
X0043750Y0006500D01*
X0043250D02*
X0043500Y0006250D01*
X0033000Y0003750D02*
X0032750Y0003500D01*
X0033250D02*
X0033000Y0003750D01*
Y0003250D02*
X0033250Y0003500D01*
X0032750D02*
X0033000Y0003250D01*
X0035000Y0003750D02*
X0034750Y0003500D01*
X0035250D02*
X0035000Y0003750D01*
Y0003250D02*
X0035250Y0003500D01*
X0034750D02*
X0035000Y0003250D01*
X0033000Y0004750D02*
X0032750Y0004500D01*
X0033250D02*
X0033000Y0004750D01*
Y0004250D02*
X0033250Y0004500D01*
X0032750D02*
X0033000Y0004250D01*
X0035000Y0004750D02*
X0034750Y0004500D01*
X0035250D02*
X0035000Y0004750D01*
Y0004250D02*
X0035250Y0004500D01*
X0034750D02*
X0035000Y0004250D01*
X0033000Y0005750D02*
X0032750Y0005500D01*
X0033250D02*
X0033000Y0005750D01*
Y0005250D02*
X0033250Y0005500D01*
X0032750D02*
X0033000Y0005250D01*
X0035000Y0005750D02*
X0034750Y0005500D01*
X0035250D02*
X0035000Y0005750D01*
Y0005250D02*
X0035250Y0005500D01*
X0034750D02*
X0035000Y0005250D01*
X0033000Y0006750D02*
X0032750Y0006500D01*
X0033250D02*
X0033000Y0006750D01*
Y0006250D02*
X0033250Y0006500D01*
X0032750D02*
X0033000Y0006250D01*
X0035000Y0006750D02*
X0034750Y0006500D01*
X0035250D02*
X0035000Y0006750D01*
Y0006250D02*
X0035250Y0006500D01*
X0034750D02*
X0035000Y0006250D01*
X0017500Y0011000D02*
X0017000D01*
X0017250Y0011250D02*
Y0010750D01*
X0016500Y0011000D02*
X0016000D01*
X0016250Y0011250D02*
Y0010750D01*
X0014750Y0011500D02*
X0014250D01*
X0014500Y0011750D02*
Y0011250D01*
X0014750Y0010500D02*
X0014250D01*
X0014500Y0010750D02*
Y0010250D01*
X0013000Y0011000D02*
X0012500D01*
X0012750Y0011250D02*
Y0010750D01*
X0012000Y0011000D02*
X0011500D01*
X0011750Y0011250D02*
Y0010750D01*
X0010250Y0010500D02*
X0009750D01*
X0010000Y0010750D02*
Y0010250D01*
X0010250Y0011500D02*
X0009750D01*
X0010000Y0011750D02*
Y0011250D01*
X0008000Y0010500D02*
X0007500D01*
X0007750Y0010750D02*
Y0010250D01*
X0008000Y0011500D02*
X0007500D01*
X0007750Y0011750D02*
Y0011250D01*
M02*
